<?xml version="1.0" encoding="UTF-8" standalone="no"?>
<svg
   xmlns:dc="http://purl.org/dc/elements/1.1/"
   xmlns:cc="http://creativecommons.org/ns#"
   xmlns:rdf="http://www.w3.org/1999/02/22-rdf-syntax-ns#"
   xmlns:svg="http://www.w3.org/2000/svg"
   xmlns="http://www.w3.org/2000/svg"
   xmlns:sodipodi="http://sodipodi.sourceforge.net/DTD/sodipodi-0.dtd"
   xmlns:inkscape="http://www.inkscape.org/namespaces/inkscape"
   width="700pt"
   height="700pt"
   version="1.1"
   viewBox="0 0 700 700"
   id="svg482"
   sodipodi:docname="noun-shield-4865890.svg"
   inkscape:version="1.0.2 (e86c870879, 2021-01-15, custom)">
  <metadata
     id="metadata486">
    <rdf:RDF>
      <cc:Work
         rdf:about="">
        <dc:format>image/svg+xml</dc:format>
        <dc:type
           rdf:resource="http://purl.org/dc/dcmitype/StillImage" />
        <dc:title></dc:title>
      </cc:Work>
    </rdf:RDF>
  </metadata>
  <sodipodi:namedview
     pagecolor="#ffffff"
     bordercolor="#666666"
     borderopacity="1"
     objecttolerance="10"
     gridtolerance="10"
     guidetolerance="10"
     inkscape:pageopacity="0"
     inkscape:pageshadow="2"
     inkscape:window-width="1920"
     inkscape:window-height="992"
     id="namedview484"
     showgrid="false"
     inkscape:pagecheckerboard="true"
     inkscape:zoom="0.88928571"
     inkscape:cx="466.66667"
     inkscape:cy="421.68675"
     inkscape:window-x="-8"
     inkscape:window-y="-8"
     inkscape:window-maximized="1"
     inkscape:current-layer="g480" />
  <defs
     id="defs462">
    <symbol
       id="g"
       overflow="visible">
      <path
         d="m39.078-2.3281c-2.0117 1.043-4.1094 1.8281-6.2969 2.3594s-4.4648 0.79688-6.8281 0.79688c-7.0859 0-12.699-1.9766-16.844-5.9375-4.1367-3.957-6.2031-9.3281-6.2031-16.109 0-6.7891 2.0664-12.164 6.2031-16.125 4.1445-3.9688 9.7578-5.9531 16.844-5.9531 2.3633 0 4.6406 0.26562 6.8281 0.79688s4.2852 1.3242 6.2969 2.375v8.7969c-2.0312-1.3828-4.0391-2.3984-6.0156-3.0469-1.9688-0.64453-4.0469-0.96875-6.2344-0.96875-3.9062 0-6.9844 1.2578-9.2344 3.7656-2.2422 2.5-3.3594 5.9531-3.3594 10.359 0 4.3867 1.1172 7.8359 3.3594 10.344 2.25 2.5 5.3281 3.75 9.2344 3.75 2.1875 0 4.2656-0.32031 6.2344-0.96875 1.9766-0.64453 3.9844-1.6602 6.0156-3.0469z"
         id="path441" />
    </symbol>
    <symbol
       id="f"
       overflow="visible">
      <path
         d="m16.031-40.953v9.0625h10.516v7.2812h-10.516v13.531c0 1.4805 0.28906 2.4805 0.875 3 0.59375 0.52344 1.7656 0.78125 3.5156 0.78125h5.2344v7.2969h-8.7344c-4.0312 0-6.8867-0.83594-8.5625-2.5156-1.6797-1.6875-2.5156-4.5391-2.5156-8.5625v-13.531h-5.0781v-7.2812h5.0781v-9.0625z"
         id="path444" />
    </symbol>
    <symbol
       id="e"
       overflow="visible">
      <path
         d="m26.594-27.234v-17.078h10.266v44.312h-10.266v-4.6094c-1.3984 1.875-2.9453 3.25-4.6406 4.125-1.6875 0.875-3.6406 1.3125-5.8594 1.3125-3.9297 0-7.1562-1.5625-9.6875-4.6875-2.5234-3.125-3.7812-7.1445-3.7812-12.062 0-4.9141 1.2578-8.9375 3.7812-12.062 2.5312-3.125 5.7578-4.6875 9.6875-4.6875 2.1953 0 4.1445 0.44531 5.8438 1.3281 1.707 0.88672 3.2578 2.2578 4.6562 4.1094zm-6.7188 20.656c2.1875 0 3.8516-0.79688 5-2.3906 1.1445-1.5938 1.7188-3.9102 1.7188-6.9531 0-3.0391-0.57422-5.3594-1.7188-6.9531-1.1484-1.5938-2.8125-2.3906-5-2.3906-2.168 0-3.8242 0.79688-4.9688 2.3906-1.1484 1.5938-1.7188 3.9141-1.7188 6.9531 0 3.043 0.57031 5.3594 1.7188 6.9531 1.1445 1.5938 2.8008 2.3906 4.9688 2.3906z"
         id="path447" />
    </symbol>
    <symbol
       id="d"
       overflow="visible">
      <path
         d="m21.875-6.5781c2.1758 0 3.8359-0.79688 4.9844-2.3906 1.1562-1.5938 1.7344-3.9102 1.7344-6.9531 0-3.0391-0.57812-5.3594-1.7344-6.9531-1.1484-1.5938-2.8086-2.3906-4.9844-2.3906-2.1875 0-3.8672 0.80469-5.0312 2.4062-1.168 1.6055-1.75 3.918-1.75 6.9375 0 3.0234 0.58203 5.3359 1.75 6.9375 1.1641 1.6055 2.8438 2.4062 5.0312 2.4062zm-6.7812-20.656c1.4062-1.8516 2.9609-3.2227 4.6719-4.1094 1.707-0.88281 3.6719-1.3281 5.8906-1.3281 3.9375 0 7.1641 1.5625 9.6875 4.6875 2.5195 3.125 3.7812 7.1484 3.7812 12.062 0 4.918-1.2617 8.9375-3.7812 12.062-2.5234 3.125-5.75 4.6875-9.6875 4.6875-2.2188 0-4.1836-0.44531-5.8906-1.3281-1.7109-0.88281-3.2656-2.2539-4.6719-4.1094v4.6094h-10.188v-44.312h10.188z"
         id="path450" />
    </symbol>
    <symbol
       id="c"
       overflow="visible">
      <path
         d="m5.3594-42.516h12.234l15.469 29.156v-29.156h10.406v42.516h-12.25l-15.469-29.172v29.172h-10.391z"
         id="path453" />
    </symbol>
    <symbol
       id="b"
       overflow="visible">
      <path
         d="m4.9062-31.891h10.188v31.891h-10.188zm0-12.422h10.188v8.3125h-10.188z"
         id="path456" />
    </symbol>
    <symbol
       id="a"
       overflow="visible">
      <path
         d="m4.9062-44.312h10.188v44.312h-10.188z"
         id="path459" />
    </symbol>
  </defs>
  <g
     id="g480">
    <path
       fill="#ffffff"
       d="m 530.18,171.10325 c -28.262,-4 -56.043,-10.844 -82.926,-20.43 -27.609,-9.875 -54.117,-22.59 -79.102,-37.941 -5.4492,-3.3828 -11.738,-5.1797 -18.152,-5.1797 -6.414,0 -12.703,1.7969 -18.152,5.1797 -24.984,15.352 -51.492,28.066 -79.102,37.941 -26.887,9.5898 -54.672,16.434 -82.938,20.43 -8.2891,1.2422 -15.859,5.418 -21.332,11.773 -5.4688,6.3516 -8.4766,14.457 -8.4766,22.84 v 133.35 c -0.0742,37.023 9.1562,73.469 26.852,105.99 17.691,32.523 43.277,60.074 74.402,80.125 l 89.727,58.055 h 0.004 c 5.6641,3.6602 12.266,5.6094 19.012,5.6094 6.7422,0 13.344,-1.9492 19.008,-5.6094 l 89.738,-58.066 h 0.004 c 31.121,-20.047 56.707,-47.598 74.402,-80.117 17.691,-32.523 26.926,-68.969 26.852,-105.99 v -133.35 c 0,-8.3867 -3.0117,-16.492 -8.4844,-22.844 -5.4727,-6.3516 -13.043,-10.531 -21.336,-11.77 z m -101.93,127.17 -93.332,93.332 c -4.5547,4.5508 -11.941,4.5508 -16.496,0 l -46.668,-46.668 c -4.418,-4.5781 -4.3555,-11.855 0.14453,-16.355 4.50003,-4.5 11.777,-4.5625 16.355,-0.14062 l 38.418,38.383 85.086,-85.086 h -0.004 c 4.5781,-4.4219 11.855,-4.3594 16.355,0.14062 4.5,4.5039 4.5625,11.777 0.14453,16.355 z"
       id="path464" />
  </g>
</svg>
