<?xml version="1.0" encoding="UTF-8"?>
<svg width="700pt" height="700pt" version="1.1" viewBox="0 0 700 700" xmlns="http://www.w3.org/2000/svg" xmlns:xlink="http://www.w3.org/1999/xlink">
 <defs>
  <symbol id="p" overflow="visible">
   <path d="m29.312-1.75c-1.5117 0.78125-3.0898 1.3711-4.7344 1.7656-1.6367 0.40625-3.3398 0.60938-5.1094 0.60938-5.3125 0-9.5273-1.4844-12.641-4.4531-3.1055-2.9688-4.6562-7-4.6562-12.094s1.5508-9.125 4.6562-12.094c3.1133-2.9688 7.3281-4.4531 12.641-4.4531 1.7695 0 3.4727 0.19922 5.1094 0.59375 1.6445 0.39844 3.2227 0.99219 4.7344 1.7812v6.5938c-1.5312-1.0391-3.0391-1.8008-4.5156-2.2812-1.4805-0.48828-3.0391-0.73438-4.6719-0.73438-2.9375 0-5.2461 0.94531-6.9219 2.8281-1.6797 1.875-2.5156 4.4648-2.5156 7.7656 0 3.293 0.83594 5.8828 2.5156 7.7656 1.6758 1.875 3.9844 2.8125 6.9219 2.8125 1.6328 0 3.1914-0.23828 4.6719-0.71875 1.4766-0.48828 2.9844-1.2539 4.5156-2.2969z"/>
  </symbol>
  <symbol id="c" overflow="visible">
   <path d="m21.453-17.406c-0.67969-0.3125-1.3516-0.53906-2.0156-0.6875-0.65625-0.15625-1.3203-0.23438-1.9844-0.23438-1.9688 0-3.4844 0.63281-4.5469 1.8906-1.0547 1.2617-1.5781 3.0703-1.5781 5.4219v11.016h-7.6562v-23.922h7.6562v3.9219c0.97656-1.5625 2.1016-2.7031 3.375-3.4219 1.2812-0.71875 2.8125-1.0781 4.5938-1.0781 0.25 0 0.52344 0.011719 0.82812 0.03125 0.30078 0.023438 0.73438 0.070312 1.2969 0.14062z"/>
  </symbol>
  <symbol id="a" overflow="visible">
   <path d="m27.562-12.031v2.1875h-17.891c0.1875 1.793 0.83203 3.1367 1.9375 4.0312 1.1133 0.89844 2.6719 1.3438 4.6719 1.3438 1.6016 0 3.25-0.23438 4.9375-0.70312 1.6875-0.47656 3.4219-1.2031 5.2031-2.1719v5.8906c-1.8047 0.6875-3.6094 1.2031-5.4219 1.5469-1.8125 0.35156-3.6211 0.53125-5.4219 0.53125-4.3359 0-7.7031-1.0977-10.109-3.2969-2.3984-2.207-3.5938-5.2969-3.5938-9.2656 0-3.9062 1.1758-6.9727 3.5312-9.2031 2.3633-2.2383 5.6094-3.3594 9.7344-3.3594 3.7578 0 6.7695 1.1367 9.0312 3.4062 2.2578 2.2617 3.3906 5.2812 3.3906 9.0625zm-7.8594-2.5312c0-1.457-0.42969-2.6289-1.2812-3.5156-0.84375-0.89453-1.9492-1.3438-3.3125-1.3438-1.4922 0-2.6992 0.41797-3.625 1.25-0.91797 0.83594-1.4922 2.0391-1.7188 3.6094z"/>
  </symbol>
  <symbol id="i" overflow="visible">
   <path d="m14.391-10.766c-1.5938 0-2.793 0.27344-3.5938 0.8125-0.80469 0.54297-1.2031 1.3398-1.2031 2.3906 0 0.96875 0.32031 1.7305 0.96875 2.2812 0.64453 0.54297 1.5469 0.8125 2.7031 0.8125 1.4375 0 2.6445-0.51562 3.625-1.5469 0.98828-1.0312 1.4844-2.3203 1.4844-3.875v-0.875zm11.688-2.8906v13.656h-7.7031v-3.5469c-1.0312 1.4492-2.1875 2.5078-3.4688 3.1719s-2.8398 1-4.6719 1c-2.4805 0-4.4961-0.72266-6.0469-2.1719-1.543-1.4453-2.3125-3.3203-2.3125-5.625 0-2.8125 0.96094-4.8672 2.8906-6.1719 1.9375-1.3125 4.9688-1.9688 9.0938-1.9688h4.5156v-0.60938c0-1.207-0.48047-2.0938-1.4375-2.6562-0.94922-0.5625-2.4375-0.84375-4.4688-0.84375-1.6367 0-3.1562 0.16797-4.5625 0.5-1.4062 0.32422-2.7188 0.8125-3.9375 1.4688v-5.8281c1.6445-0.40625 3.2891-0.70703 4.9375-0.90625 1.6562-0.20703 3.3047-0.3125 4.9531-0.3125 4.3203 0 7.4375 0.85547 9.3438 2.5625 1.9141 1.6992 2.875 4.4609 2.875 8.2812z"/>
  </symbol>
  <symbol id="b" overflow="visible">
   <path d="m12.031-30.719v6.7969h7.875v5.4688h-7.875v10.141c0 1.1172 0.21875 1.8711 0.65625 2.2656 0.4375 0.38672 1.3125 0.57812 2.625 0.57812h3.9375v5.4688h-6.5625c-3.0234 0-5.1641-0.62891-6.4219-1.8906-1.2617-1.2578-1.8906-3.3984-1.8906-6.4219v-10.141h-3.7969v-5.4688h3.7969v-6.7969z"/>
  </symbol>
  <symbol id="h" overflow="visible">
   <path d="m19.953-20.422v-12.812h7.6875v33.234h-7.6875v-3.4531c-1.0547 1.4062-2.2148 2.4375-3.4844 3.0938-1.2734 0.65625-2.7422 0.98438-4.4062 0.98438-2.9492 0-5.3711-1.1719-7.2656-3.5156-1.8867-2.3438-2.8281-5.3594-2.8281-9.0469s0.94141-6.7031 2.8281-9.0469c1.8945-2.3438 4.3164-3.5156 7.2656-3.5156 1.6562 0 3.1172 0.33594 4.3906 1 1.2812 0.65625 2.4453 1.6836 3.5 3.0781zm-5.0469 15.484c1.6445 0 2.8945-0.59766 3.75-1.7969 0.86328-1.1953 1.2969-2.9297 1.2969-5.2031 0-2.2812-0.43359-4.0195-1.2969-5.2188-0.85547-1.1953-2.1055-1.7969-3.75-1.7969-1.625 0-2.8711 0.60156-3.7344 1.7969-0.85547 1.1992-1.2812 2.9375-1.2812 5.2188 0 2.2734 0.42578 4.0078 1.2812 5.2031 0.86328 1.1992 2.1094 1.7969 3.7344 1.7969z"/>
  </symbol>
  <symbol id="g" overflow="visible">
   <path d="m16.406-4.9375c1.6328 0 2.8828-0.59766 3.75-1.7969 0.86328-1.1953 1.2969-2.9297 1.2969-5.2031 0-2.2812-0.43359-4.0195-1.2969-5.2188-0.86719-1.1953-2.1172-1.7969-3.75-1.7969-1.6367 0-2.8906 0.60547-3.7656 1.8125-0.875 1.1992-1.3125 2.9336-1.3125 5.2031 0 2.2617 0.4375 3.9961 1.3125 5.2031 0.875 1.1992 2.1289 1.7969 3.7656 1.7969zm-5.0781-15.484c1.0508-1.3945 2.2188-2.4219 3.5-3.0781 1.2812-0.66406 2.7539-1 4.4219-1 2.9453 0 5.3672 1.1719 7.2656 3.5156 1.8945 2.3438 2.8438 5.3594 2.8438 9.0469s-0.94922 6.7031-2.8438 9.0469c-1.8984 2.3438-4.3203 3.5156-7.2656 3.5156-1.668 0-3.1406-0.33594-4.4219-1s-2.4492-1.6914-3.5-3.0781v3.4531h-7.6562v-33.234h7.6562z"/>
  </symbol>
  <symbol id="f" overflow="visible">
   <path d="m0.53125-23.922h7.6562l6.4219 16.234 5.4688-16.234h7.6562l-10.062 26.188c-1.0117 2.6641-2.1953 4.5234-3.5469 5.5781-1.3438 1.0625-3.1211 1.5938-5.3281 1.5938h-4.4219v-5.0156h2.3906c1.3008 0 2.2422-0.21094 2.8281-0.625 0.59375-0.40625 1.0547-1.1484 1.3906-2.2188l0.20312-0.65625z"/>
  </symbol>
  <symbol id="e" overflow="visible">
   <path d="m4.0156-31.891h8.2188v11.641l11.859-11.641h9.5469l-15.359 15.094 16.938 16.797h-10.281l-12.703-12.562v12.562h-8.2188z"/>
  </symbol>
  <symbol id="d" overflow="visible">
   <path d="m15.062-19.031c-1.6992 0-2.9961 0.60938-3.8906 1.8281-0.88672 1.2188-1.3281 2.9766-1.3281 5.2656 0 2.293 0.44141 4.0469 1.3281 5.2656 0.89453 1.2188 2.1914 1.8281 3.8906 1.8281 1.6641 0 2.9375-0.60938 3.8125-1.8281 0.88281-1.2188 1.3281-2.9727 1.3281-5.2656 0-2.2891-0.44531-4.0469-1.3281-5.2656-0.875-1.2188-2.1484-1.8281-3.8125-1.8281zm0-5.4688c4.1133 0 7.3281 1.1094 9.6406 3.3281s3.4688 5.2969 3.4688 9.2344c0 3.9297-1.1562 7.0078-3.4688 9.2344-2.3125 2.2188-5.5273 3.3281-9.6406 3.3281-4.1367 0-7.3711-1.1094-9.7031-3.3281-2.3242-2.2266-3.4844-5.3047-3.4844-9.2344 0-3.9375 1.1602-7.0156 3.4844-9.2344 2.332-2.2188 5.5664-3.3281 9.7031-3.3281z"/>
  </symbol>
  <symbol id="o" overflow="visible">
   <path d="m25.844-19.953c0.96875-1.4766 2.1172-2.6016 3.4531-3.375 1.332-0.78125 2.7969-1.1719 4.3906-1.1719 2.75 0 4.8438 0.85156 6.2812 2.5469 1.4375 1.6875 2.1562 4.1523 2.1562 7.3906v14.562h-7.6875v-12.469c0.007812-0.1875 0.019531-0.37891 0.03125-0.57812 0.007812-0.19531 0.015625-0.48438 0.015625-0.85938 0-1.6953-0.25-2.9258-0.75-3.6875-0.5-0.75781-1.3086-1.1406-2.4219-1.1406-1.4492 0-2.5703 0.60156-3.3594 1.7969-0.79297 1.1992-1.2031 2.9297-1.2344 5.1875v11.75h-7.6875v-12.469c0-2.6562-0.23047-4.3633-0.6875-5.125-0.44922-0.75781-1.2578-1.1406-2.4219-1.1406-1.4688 0-2.6055 0.60547-3.4062 1.8125-0.79297 1.1992-1.1875 2.918-1.1875 5.1562v11.766h-7.7031v-23.922h7.7031v3.5c0.9375-1.3516 2.0156-2.3672 3.2344-3.0469 1.2188-0.6875 2.5547-1.0312 4.0156-1.0312 1.6562 0 3.1133 0.40234 4.375 1.2031 1.2695 0.79297 2.2344 1.9062 2.8906 3.3438z"/>
  </symbol>
  <symbol id="n" overflow="visible">
   <path d="m3.6719-33.234h7.6562v18.094l8.7969-8.7812h8.8906l-11.688 10.969 12.594 12.953h-9.2656l-9.3281-9.9688v9.9688h-7.6562z"/>
  </symbol>
  <symbol id="m" overflow="visible">
   <path d="m3.6719-23.922h7.6562v23.922h-7.6562zm0-9.3125h7.6562v6.2344h-7.6562z"/>
  </symbol>
  <symbol id="l" overflow="visible">
   <path d="m4.0156-31.891h9.1875l11.594 21.875v-21.875h7.7969v31.891h-9.1875l-11.594-21.875v21.875h-7.7969z"/>
  </symbol>
  <symbol id="k" overflow="visible">
   <path d="m27.734-14.562v14.562h-7.7031v-11.156c0-2.0625-0.046875-3.4844-0.14062-4.2656-0.085937-0.78125-0.24219-1.3594-0.46875-1.7344-0.30469-0.5-0.71094-0.88281-1.2188-1.1562-0.51172-0.28125-1.0938-0.42188-1.75-0.42188-1.5938 0-2.8516 0.61719-3.7656 1.8438-0.90625 1.2305-1.3594 2.9375-1.3594 5.125v11.766h-7.6562v-23.922h7.6562v3.5c1.1445-1.3945 2.3633-2.4219 3.6562-3.0781 1.3008-0.66406 2.7383-1 4.3125-1 2.7578 0 4.8516 0.85156 6.2812 2.5469 1.4375 1.6875 2.1562 4.1523 2.1562 7.3906z"/>
  </symbol>
  <symbol id="j" overflow="visible">
   <path d="m11.328-3.4531v12.547h-7.6562v-33.016h7.6562v3.5c1.0508-1.3945 2.2188-2.4219 3.5-3.0781 1.2812-0.66406 2.7539-1 4.4219-1 2.9453 0 5.3672 1.1719 7.2656 3.5156 1.8945 2.3438 2.8438 5.3594 2.8438 9.0469s-0.94922 6.7031-2.8438 9.0469c-1.8984 2.3438-4.3203 3.5156-7.2656 3.5156-1.668 0-3.1406-0.33594-4.4219-1s-2.4492-1.6914-3.5-3.0781zm5.0781-15.5c-1.6367 0-2.8906 0.60547-3.7656 1.8125-0.875 1.1992-1.3125 2.9336-1.3125 5.2031 0 2.2617 0.4375 3.9961 1.3125 5.2031 0.875 1.1992 2.1289 1.7969 3.7656 1.7969 1.6328 0 2.8828-0.59766 3.75-1.7969 0.86328-1.1953 1.2969-2.9297 1.2969-5.2031 0-2.2812-0.43359-4.0195-1.2969-5.2188-0.86719-1.1953-2.1172-1.7969-3.75-1.7969z"/>
  </symbol>
 </defs>
 <g fill="#fff" >
  <path d="m610.75 411.86-37.102-37.102c-3.3242-3.1992-7.7617-4.9883-12.379-4.9883-4.6172 0-9.0547 1.7891-12.383 4.9883l-0.78906 0.78906-20.562-20.562h0.003906c-1.6562-1.5664-2.5781-3.7578-2.5391-6.0391v-35c0.015625-6.9883-2.7539-13.695-7.6992-18.637l-31.938-31.938c-5.0508-4.9844-11.488-8.3203-18.473-9.5664-6.9805-1.25-14.176-0.35547-20.641 2.5664v-109.11c0.015625-6.9883-2.7539-13.695-7.6992-18.637l-7.1758-7.1758c-1.6719-1.6367-2.6172-3.875-2.625-6.2109v-10.238c4.6367-0.015625 9.082-1.8633 12.359-5.1406s5.125-7.7227 5.1406-12.359v-52.5c-0.015625-4.6367-1.8633-9.082-5.1406-12.359s-7.7227-5.125-12.359-5.1406h-140c-4.6367 0.015625-9.082 1.8633-12.359 5.1406s-5.125 7.7227-5.1406 12.359v52.5c0.015625 4.6367 1.8633 9.082 5.1406 12.359s7.7227 5.125 12.359 5.1406v27.738c-0.007812 2.3359-0.95312 4.5742-2.625 6.2109l-24.676 24.676c-4.9453 4.9414-7.7148 11.648-7.6992 18.637v45.238c0.070312 11.66 5.9414 22.52 15.664 28.961l-6.125 6.125c-6.6562-6.1484-15.426-9.4961-24.484-9.3516-9.0586 0.14844-17.715 3.7812-24.168 10.141l-31.938 31.938c-4.9453 4.9414-7.7148 11.648-7.6992 18.637v35c0.03125 2.3203-0.92188 4.5469-2.625 6.125l-20.477 20.477-0.78906-0.78906h0.003906c-3.3281-3.1992-7.7656-4.9883-12.383-4.9883-4.6172 0-9.0547 1.7891-12.379 4.9883l-37.102 37.102c-3.2852 3.2812-5.1328 7.7344-5.1328 12.379 0 4.6445 1.8477 9.1016 5.1328 12.383l98.961 98.961c3.2734 3.3047 7.7305 5.1641 12.383 5.1641s9.1094-1.8594 12.383-5.1641l37.102-37.102-0.003906 0.003906c3.3047-3.2734 5.1641-7.7305 5.1641-12.383 0-4.6484-1.8594-9.1055-5.1641-12.379l7.4375-7.4375c1.5664-1.6562 3.7578-2.5781 6.0391-2.5391h10.238c6.9883 0.015625 13.695-2.7539 18.637-7.6992l57.574-57.664 57.574 57.664c4.9414 4.9453 11.648 7.7148 18.637 7.6992h10.238c2.3203-0.03125 4.5469 0.92188 6.125 2.625l7.3516 7.3516c-3.3047 3.2734-5.1641 7.7305-5.1641 12.379 0 4.6523 1.8594 9.1094 5.1641 12.383l37.102 37.102-0.003906-0.003906c3.2734 3.3047 7.7305 5.1641 12.383 5.1641s9.1094-1.8594 12.383-5.1641l98.961-98.961c3.2852-3.2812 5.1328-7.7383 5.1328-12.383 0-4.6445-1.8477-9.0977-5.1328-12.379zm-471.98 24.762-12.422-12.426 12.426-12.336 12.336 12.336zm167.48-384.12h17.5v17.5h-17.5zm-35 129.76c0.007812-2.3359 0.95312-4.5742 2.625-6.2109l24.676-24.676c4.9453-4.9414 7.7148-11.648 7.6992-18.637v-27.738h105v10.238c-0.015625 6.9883 2.7539 13.695 7.6992 18.637l7.1758 7.1758c1.6719 1.6367 2.6172 3.875 2.625 6.2109v107.36l-46.898-46.988c-4.2109-3.9453-9.5703-6.4453-15.297-7.1367-5.7266-0.69141-11.527 0.45703-16.555 3.2891-5.0273-2.832-10.828-3.9805-16.555-3.2891-5.7266 0.69141-11.086 3.1914-15.297 7.1367l-11.898 11.988v-18.375h-17.5v35.875l-6.5625 6.5625c-3.2188-1.3164-5.9727-3.5547-7.9219-6.4375-1.9453-2.8789-2.9961-6.2734-3.0156-9.75zm8.75 261.36c-1.6367 1.6719-3.875 2.6172-6.2109 2.625h-10.238c-6.957 0.027344-13.621 2.793-18.551 7.6992l-7.3516 7.3516-73.324-73.324 20.387-20.387v-0.003906c4.9531-4.9414 7.7539-11.641 7.7891-18.637v-35c0.007812-2.3359 0.95312-4.5742 2.625-6.2109l31.938-31.938c3.1289-3.1211 7.3281-4.9414 11.746-5.0859 4.418-0.14453 8.7266 1.3906 12.055 4.2969l-31.676 31.676 12.426 12.426 70.352-70.438h-0.003906c0.44531 1.0156 0.94141 2.0078 1.4883 2.9727-3.0781 1.2773-5.875 3.1484-8.2227 5.5156-4.0586 4.0625-6.668 9.3477-7.4258 15.039-0.75781 5.6914 0.375 11.473 3.2227 16.461-3.0508 1.2852-5.8398 3.125-8.2227 5.4219-4.918 4.9414-7.6797 11.625-7.6797 18.594 0 6.9727 2.7617 13.656 7.6797 18.594l54.863 54.773zm182.35 17.676-7.2617-7.2617h-0.003906c-4.9414-4.9531-11.641-7.7539-18.637-7.7891h-10.238c-2.3359-0.007812-4.5742-0.95312-6.2109-2.625l-124.77-124.77c-3.3945-3.4141-3.3945-8.9258 0-12.34 3.1328-2.9844 7.9492-3.3164 11.461-0.78516l75.164 75.25 12.336-12.426-0.085938-0.085937 0.085938-0.085938-86.625-86.449v-0.003907c-1.6484-1.6367-2.5781-3.8594-2.5859-6.1836-0.007812-2.3203 0.90625-4.5508 2.543-6.1992 3.4062-3.4297 8.9492-3.4492 12.379-0.042969l86.625 86.711h0.085937l12.336-12.426-86.625-86.625c-0.085937 0-0.085937-0.085937-0.17578-0.085937l-12.164-12.164 0.007812 0.003906c-1.6797-1.6328-2.625-3.875-2.625-6.2148 0-2.3398 0.94531-4.582 2.625-6.2109 2.3281-2.6094 6.0742-3.4219 9.2734-2.0117 1.1719 0.40625 2.2227 1.0977 3.0625 2.0117l98.961 98.961 12.336-12.512-86.539-86.539h0.003907c-3.332-3.4375-3.332-8.8984 0-12.336 1.6367-1.6602 3.8828-2.5781 6.2148-2.5391 2.3047-0.039063 4.5234 0.88281 6.125 2.5391l98.961 99.051 12.426-12.426-31.676-31.676c3.3281-2.9062 7.6367-4.4414 12.055-4.2969 4.418 0.14453 8.6172 1.9648 11.746 5.0859l31.938 31.938c1.6719 1.6367 2.6172 3.875 2.625 6.2109v35c0.027344 6.957 2.793 13.621 7.6992 18.551l20.477 20.477zm98.875-24.676-12.336-12.426 12.336-12.336 12.426 12.336z"/>
  <path d="m341.25 490h17.5v17.5h-17.5z"/>
  <path d="m374.2 488.79 17.285-2.7422 2.7422 17.285-17.285 2.7422z"/>
  <path d="m406.57 482.42 16.645-5.4102 5.4102 16.645-16.645 5.4102z"/>
  <path d="m547.01 353.22 5.4102-16.645 16.645 5.4102-5.4102 16.645z"/>
  <path d="m556.29 321.41 2.7461-17.289 17.289 2.7461-2.7461 17.289z"/>
  <path d="m560 271.25h17.5v17.5h-17.5z"/>
  <path d="m556.05 238.52 17.285-2.7422 2.7422 17.285-17.285 2.7422z"/>
  <path d="m547.01 206.79 16.645-5.4102 5.4102 16.645-16.645 5.4102z"/>
  <path d="m533.14 176.86 15.594-7.9453 7.9453 15.594-15.594 7.9453z"/>
  <path d="m514.75 149.49 14.156-10.285 10.285 14.156-14.156 10.285z"/>
  <path d="m492.31 125.31 12.375-12.375 12.375 12.375-12.375 12.375z"/>
  <path d="m466.36 104.98 10.285-14.156 14.156 10.285-10.285 14.156z"/>
  <path d="m238.92 81.27 15.594-7.9453 7.9453 15.594-15.594 7.9453z"/>
  <path d="m209.21 101.09 14.156-10.285 10.285 14.156-14.156 10.285z"/>
  <path d="m182.95 125.32 12.375-12.375 12.375 12.375-12.375 12.375z"/>
  <path d="m160.8 153.35 10.285-14.156 14.156 10.285-10.285 14.156z"/>
  <path d="m143.32 184.51 7.9453-15.594 15.594 7.9453-7.9453 15.594z"/>
  <path d="m130.94 218.02 5.4102-16.645 16.645 5.4102-5.4102 16.645z"/>
  <path d="m124.04 253.1 2.7461-17.289 17.289 2.7461-2.7461 17.289z"/>
  <path d="m122.5 271.25h17.5v17.5h-17.5z"/>
  <path d="m123.93 306.95 17.285-2.7383 2.7383 17.285-17.285 2.7383z"/>
  <path d="m130.93 341.98 16.645-5.4102 5.4102 16.645-16.645 5.4102z"/>
  <path d="m271.37 493.66 5.4102-16.645 16.645 5.4102-5.4102 16.645z"/>
  <path d="m305.77 503.33 2.7383-17.285 17.285 2.7383-2.7383 17.285z"/>
  <use x="70" y="691.25" xlink:href="#p"/>
  <use x="102.109375" y="691.25" xlink:href="#c"/>
  <use x="123.683594" y="691.25" xlink:href="#a"/>
  <use x="153.355469" y="691.25" xlink:href="#i"/>
  <use x="182.878906" y="691.25" xlink:href="#b"/>
  <use x="203.792969" y="691.25" xlink:href="#a"/>
  <use x="233.464844" y="691.25" xlink:href="#h"/>
  <use x="280.011719" y="691.25" xlink:href="#g"/>
  <use x="311.328125" y="691.25" xlink:href="#f"/>
  <use x="355.078125" y="691.25" xlink:href="#e"/>
  <use x="388.980469" y="691.25" xlink:href="#d"/>
  <use x="419.039062" y="691.25" xlink:href="#o"/>
  <use x="464.625" y="691.25" xlink:href="#n"/>
  <use x="493.722656" y="691.25" xlink:href="#c"/>
  <use x="515.296875" y="691.25" xlink:href="#m"/>
  <use x="530.292969" y="691.25" xlink:href="#b"/>
  <use x="566.4375" y="691.25" xlink:href="#l"/>
  <use x="603.054687" y="691.25" xlink:href="#d"/>
  <use x="633.109375" y="691.25" xlink:href="#a"/>
  <use x="662.78125" y="691.25" xlink:href="#k"/>
  <use x="693.929687" y="691.25" xlink:href="#j"/>
 </g>
</svg>
