<?xml version="1.0" encoding="UTF-8"?>
<svg width="700pt" height="700pt" version="1.1" viewBox="0 0 700 700" xmlns="http://www.w3.org/2000/svg" xmlns:xlink="http://www.w3.org/1999/xlink">
 <defs>
  <symbol id="x" overflow="visible">
   <path d="m22.578-1.3438c-1.168 0.60547-2.3828 1.0586-3.6406 1.3594-1.2617 0.3125-2.5781 0.46875-3.9531 0.46875-4.0859 0-7.3242-1.1445-9.7188-3.4375-2.3984-2.2891-3.5938-5.3945-3.5938-9.3125 0-3.9258 1.1953-7.0312 3.5938-9.3125 2.3945-2.2891 5.6328-3.4375 9.7188-3.4375 1.375 0 2.6914 0.15625 3.9531 0.46875 1.2578 0.30469 2.4727 0.75781 3.6406 1.3594v5.0781c-1.1797-0.78906-2.3398-1.375-3.4844-1.75-1.1367-0.375-2.3359-0.5625-3.5938-0.5625-2.2617 0-4.0391 0.72656-5.3281 2.1719-1.293 1.4492-1.9375 3.4453-1.9375 5.9844 0 2.543 0.64453 4.5391 1.9375 5.9844 1.2891 1.4492 3.0664 2.1719 5.3281 2.1719 1.2578 0 2.457-0.1875 3.5938-0.5625 1.1445-0.375 2.3047-0.96094 3.4844-1.7656z"/>
  </symbol>
  <symbol id="d" overflow="visible">
   <path d="m16.516-13.406c-0.51172-0.25-1.0234-0.42969-1.5312-0.54688-0.51172-0.11328-1.0273-0.17188-1.5469-0.17188-1.5117 0-2.6797 0.49219-3.5 1.4688-0.8125 0.96875-1.2188 2.3594-1.2188 4.1719v8.4844h-5.8906v-18.438h5.8906v3.0312c0.75781-1.207 1.6289-2.0859 2.6094-2.6406 0.97656-0.55078 2.1562-0.82812 3.5312-0.82812 0.19531 0 0.41016 0.011719 0.64062 0.03125 0.22656 0.011719 0.5625 0.042969 1 0.09375z"/>
  </symbol>
  <symbol id="a" overflow="visible">
   <path d="m21.234-9.2656v1.6719h-13.781c0.14453 1.3867 0.64453 2.4297 1.5 3.125 0.85156 0.6875 2.0508 1.0312 3.5938 1.0312 1.2383 0 2.5039-0.17969 3.7969-0.54688 1.3008-0.375 2.6406-0.92969 4.0156-1.6719v4.5312c-1.3984 0.53125-2.793 0.93359-4.1875 1.2031-1.3867 0.26953-2.7773 0.40625-4.1719 0.40625-3.3359 0-5.9297-0.84766-7.7812-2.5469-1.8438-1.6953-2.7656-4.0781-2.7656-7.1406 0-3 0.90625-5.3594 2.7188-7.0781 1.8125-1.7266 4.3125-2.5938 7.5-2.5938 2.8945 0 5.2109 0.875 6.9531 2.625 1.7383 1.7422 2.6094 4.0703 2.6094 6.9844zm-6.0625-1.9531c0-1.125-0.32812-2.0234-0.98438-2.7031-0.64844-0.6875-1.4961-1.0312-2.5469-1.0312-1.1484 0-2.0781 0.32422-2.7969 0.96875-0.71094 0.63672-1.1523 1.5586-1.3281 2.7656z"/>
  </symbol>
  <symbol id="g" overflow="visible">
   <path d="m11.094-8.2969c-1.2305 0-2.1562 0.21094-2.7812 0.625-0.61719 0.41797-0.92188 1.0312-0.92188 1.8438 0 0.75 0.25 1.3398 0.75 1.7656 0.5 0.41797 1.1914 0.625 2.0781 0.625 1.1016 0 2.0352-0.39453 2.7969-1.1875 0.75781-0.80078 1.1406-1.8008 1.1406-3v-0.67188zm9-2.2188v10.516h-5.9375v-2.7344c-0.79297 1.125-1.6836 1.9453-2.6719 2.4531-0.99219 0.50781-2.1953 0.76562-3.6094 0.76562-1.9062 0-3.4531-0.55469-4.6406-1.6719-1.1875-1.1133-1.7812-2.5625-1.7812-4.3438 0-2.1562 0.73828-3.7383 2.2188-4.75 1.4883-1.0078 3.8281-1.5156 7.0156-1.5156h3.4688v-0.46875c0-0.92578-0.37109-1.6016-1.1094-2.0312-0.73047-0.4375-1.875-0.65625-3.4375-0.65625-1.2617 0-2.4375 0.125-3.5312 0.375-1.0859 0.25-2.0898 0.63281-3.0156 1.1406v-4.5c1.2578-0.3125 2.5234-0.54688 3.7969-0.70312 1.2695-0.15625 2.5469-0.23438 3.8281-0.23438 3.3203 0 5.7188 0.65625 7.1875 1.9688 1.4766 1.3125 2.2188 3.4453 2.2188 6.3906z"/>
  </symbol>
  <symbol id="c" overflow="visible">
   <path d="m9.2656-23.672v5.2344h6.0781v4.2188h-6.0781v7.8125c0 0.85547 0.16406 1.4336 0.5 1.7344 0.34375 0.30469 1.0195 0.45312 2.0312 0.45312h3.0312v4.2188h-5.0469c-2.3359 0-3.9844-0.48438-4.9531-1.4531s-1.4531-2.6172-1.4531-4.9531v-7.8125h-2.9375v-4.2188h2.9375v-5.2344z"/>
  </symbol>
  <symbol id="n" overflow="visible">
   <path d="m15.375-15.734v-9.875h5.9219v25.609h-5.9219v-2.6719c-0.8125 1.0938-1.7109 1.8984-2.6875 2.4062-0.98047 0.5-2.1094 0.75-3.3906 0.75-2.2734 0-4.1367-0.89844-5.5938-2.7031-1.4609-1.8125-2.1875-4.1406-2.1875-6.9844s0.72656-5.1641 2.1875-6.9688c1.457-1.8008 3.3203-2.7031 5.5938-2.7031 1.2695 0 2.3945 0.25781 3.375 0.76562 0.98828 0.51172 1.8906 1.3047 2.7031 2.375zm-3.8906 11.938c1.2578 0 2.2227-0.45703 2.8906-1.375 0.66406-0.92578 1-2.2695 1-4.0312 0-1.75-0.33594-3.082-1-4-0.66797-0.92578-1.6328-1.3906-2.8906-1.3906-1.25 0-2.2109 0.46484-2.875 1.3906-0.65625 0.91797-0.98438 2.25-0.98438 4 0 1.7617 0.32812 3.1055 0.98438 4.0312 0.66406 0.91797 1.625 1.375 2.875 1.375z"/>
  </symbol>
  <symbol id="m" overflow="visible">
   <path d="m12.641-3.7969c1.2578 0 2.2188-0.45703 2.875-1.375 0.66406-0.92578 1-2.2695 1-4.0312 0-1.75-0.33594-3.082-1-4-0.65625-0.92578-1.6172-1.3906-2.875-1.3906-1.2617 0-2.2305 0.46484-2.9062 1.3906-0.67969 0.92969-1.0156 2.2617-1.0156 4 0 1.75 0.33594 3.0898 1.0156 4.0156 0.67578 0.92969 1.6445 1.3906 2.9062 1.3906zm-3.9219-11.938c0.8125-1.0703 1.7109-1.8633 2.7031-2.375 0.98828-0.50781 2.125-0.76562 3.4062-0.76562 2.2695 0 4.1328 0.90234 5.5938 2.7031 1.457 1.8047 2.1875 4.125 2.1875 6.9688s-0.73047 5.1719-2.1875 6.9844c-1.4609 1.8047-3.3242 2.7031-5.5938 2.7031-1.2812 0-2.418-0.25781-3.4062-0.76562-0.99219-0.50781-1.8906-1.3047-2.7031-2.3906v2.6719h-5.8906v-25.609h5.8906z"/>
  </symbol>
  <symbol id="l" overflow="visible">
   <path d="m0.40625-18.438h5.8906l4.9531 12.516 4.2188-12.516h5.8906l-7.75 20.188c-0.78125 2.0508-1.6953 3.4844-2.7344 4.2969-1.0312 0.82031-2.3984 1.2344-4.0938 1.2344h-3.4062v-3.875h1.8438c1 0 1.7227-0.16406 2.1719-0.48438 0.45703-0.3125 0.8125-0.88281 1.0625-1.7031l0.17188-0.51562z"/>
  </symbol>
  <symbol id="k" overflow="visible">
   <path d="m3.0938-24.562h17.094v4.7812h-10.766v4.5781h10.125v4.7812h-10.125v5.6406h11.125v4.7812h-17.453z"/>
  </symbol>
  <symbol id="j" overflow="visible">
   <path d="m0.51562-18.438h5.8906l4.5938 12.75 4.5625-12.75h5.9062l-7.25 18.438h-6.4688z"/>
  </symbol>
  <symbol id="w" overflow="visible">
   <path d="m15.375-3.125c-0.8125 1.0742-1.7109 1.8672-2.6875 2.375-0.98047 0.5-2.1094 0.75-3.3906 0.75-2.25 0-4.1094-0.88281-5.5781-2.6562-1.4688-1.7695-2.2031-4.0234-2.2031-6.7656 0-2.7578 0.73438-5.0195 2.2031-6.7812 1.4688-1.7578 3.3281-2.6406 5.5781-2.6406 1.2812 0 2.4102 0.25781 3.3906 0.76562 0.97656 0.5 1.875 1.293 2.6875 2.375v-2.7344h5.9219v16.578c0 2.957-0.9375 5.2188-2.8125 6.7812-1.8672 1.5703-4.5781 2.3594-8.1406 2.3594-1.1484 0-2.2617-0.089844-3.3438-0.26562-1.0742-0.17969-2.1523-0.44922-3.2344-0.8125v-4.5938c1.0312 0.59375 2.0391 1.0352 3.0312 1.3281 0.98828 0.28906 1.9844 0.4375 2.9844 0.4375 1.9258 0 3.3359-0.42188 4.2344-1.2656 0.90625-0.84375 1.3594-2.1641 1.3594-3.9688zm-3.8906-11.469c-1.2188 0-2.168 0.45312-2.8438 1.3594-0.67969 0.89844-1.0156 2.168-1.0156 3.8125 0 1.6875 0.32812 2.9688 0.98438 3.8438 0.65625 0.86719 1.6133 1.2969 2.875 1.2969 1.2266 0 2.1797-0.44531 2.8594-1.3438 0.6875-0.90625 1.0312-2.1719 1.0312-3.7969 0-1.6445-0.34375-2.9141-1.0312-3.8125-0.67969-0.90625-1.6328-1.3594-2.8594-1.3594z"/>
  </symbol>
  <symbol id="i" overflow="visible">
   <path d="m21.359-11.219v11.219h-5.9219v-8.5938c0-1.582-0.039062-2.6758-0.10938-3.2812-0.074219-0.60156-0.19922-1.0508-0.375-1.3438-0.23047-0.38281-0.54297-0.67969-0.9375-0.89062-0.39844-0.21875-0.84375-0.32812-1.3438-0.32812-1.2305 0-2.1992 0.48047-2.9062 1.4375-0.69922 0.94922-1.0469 2.2617-1.0469 3.9375v9.0625h-5.8906v-18.438h5.8906v2.7031c0.89453-1.0703 1.8359-1.8633 2.8281-2.375 1-0.50781 2.1016-0.76562 3.3125-0.76562 2.125 0 3.7383 0.65625 4.8438 1.9688 1.1016 1.3047 1.6562 3.1992 1.6562 5.6875z"/>
  </symbol>
  <symbol id="f" overflow="visible">
   <path d="m2.8281-18.438h5.8906v18.438h-5.8906zm0-7.1719h5.8906v4.8125h-5.8906z"/>
  </symbol>
  <symbol id="v" overflow="visible">
   <path d="m3.0938-24.562h6.3281v19.781h11.125v4.7812h-17.453z"/>
  </symbol>
  <symbol id="u" overflow="visible">
   <path d="m2.8281-25.609h5.8906v13.938l6.7812-6.7656h6.8438l-9 8.4688 9.7188 9.9688h-7.1562l-7.1875-7.6875v7.6875h-5.8906z"/>
  </symbol>
  <symbol id="e" overflow="visible">
   <path d="m21.359-11.219v11.219h-5.9219v-8.5625c0-1.6016-0.039062-2.707-0.10938-3.3125-0.074219-0.60156-0.19922-1.0508-0.375-1.3438-0.23047-0.38281-0.54297-0.67969-0.9375-0.89062-0.39844-0.21875-0.84375-0.32812-1.3438-0.32812-1.2305 0-2.1992 0.48047-2.9062 1.4375-0.69922 0.94922-1.0469 2.2617-1.0469 3.9375v9.0625h-5.8906v-25.609h5.8906v9.875c0.89453-1.0703 1.8359-1.8633 2.8281-2.375 1-0.50781 2.1016-0.76562 3.3125-0.76562 2.125 0 3.7383 0.65625 4.8438 1.9688 1.1016 1.3047 1.6562 3.1992 1.6562 5.6875z"/>
  </symbol>
  <symbol id="h" overflow="visible">
   <path d="m17.719-17.859v4.8125c-0.80469-0.55078-1.6055-0.95703-2.4062-1.2188-0.80469-0.25781-1.6406-0.39062-2.5156-0.39062-1.6484 0-2.9297 0.48047-3.8438 1.4375-0.90625 0.96094-1.3594 2.2969-1.3594 4.0156 0 1.7305 0.45312 3.0742 1.3594 4.0312 0.91406 0.96094 2.1953 1.4375 3.8438 1.4375 0.92578 0 1.8008-0.13281 2.625-0.40625 0.83203-0.28125 1.5977-0.6875 2.2969-1.2188v4.8125c-0.91797 0.34375-1.8516 0.59766-2.7969 0.76562-0.94922 0.17578-1.9023 0.26562-2.8594 0.26562-3.3242 0-5.9219-0.85156-7.7969-2.5625-1.875-1.707-2.8125-4.082-2.8125-7.125 0-3.0312 0.9375-5.3984 2.8125-7.1094 1.875-1.707 4.4727-2.5625 7.7969-2.5625 0.96875 0 1.9219 0.089844 2.8594 0.26562 0.9375 0.16797 1.8672 0.41797 2.7969 0.75z"/>
  </symbol>
  <symbol id="b" overflow="visible">
   <path d="m11.609-14.656c-1.3125 0-2.3125 0.46875-3 1.4062-0.67969 0.9375-1.0156 2.2891-1.0156 4.0469 0 1.7734 0.33594 3.125 1.0156 4.0625 0.6875 0.9375 1.6875 1.4062 3 1.4062 1.2812 0 2.2578-0.46875 2.9375-1.4062 0.67578-0.9375 1.0156-2.2891 1.0156-4.0625 0-1.7578-0.33984-3.1094-1.0156-4.0469-0.67969-0.9375-1.6562-1.4062-2.9375-1.4062zm0-4.2188c3.1641 0 5.6406 0.85938 7.4219 2.5781 1.7812 1.7109 2.6719 4.0742 2.6719 7.0938 0 3.0312-0.89062 5.4062-2.6719 7.125-1.7812 1.7109-4.2578 2.5625-7.4219 2.5625-3.1875 0-5.6797-0.85156-7.4688-2.5625-1.793-1.7188-2.6875-4.0938-2.6875-7.125 0-3.0195 0.89453-5.3828 2.6875-7.0938 1.7891-1.7188 4.2812-2.5781 7.4688-2.5781z"/>
  </symbol>
  <symbol id="t" overflow="visible">
   <path d="m14.953-25.609v3.875h-3.25c-0.83594 0-1.418 0.15234-1.75 0.45312-0.32422 0.30469-0.48438 0.82422-0.48438 1.5625v1.2812h5.0312v4.2188h-5.0312v14.219h-5.8906v-14.219h-2.9375v-4.2188h2.9375v-1.2812c0-2.0078 0.55469-3.4922 1.6719-4.4531 1.1133-0.95703 2.8477-1.4375 5.2031-1.4375z"/>
  </symbol>
  <symbol id="s" overflow="visible">
   <path d="m19.906-15.375c0.75-1.1328 1.6328-2 2.6562-2.5938 1.0312-0.60156 2.1602-0.90625 3.3906-0.90625 2.1133 0 3.7227 0.65625 4.8281 1.9688 1.1133 1.3047 1.6719 3.1992 1.6719 5.6875v11.219h-5.9219v-9.6094c0.007812-0.14453 0.015625-0.28906 0.015625-0.4375 0.007813-0.15625 0.015625-0.37891 0.015625-0.67188 0-1.3008-0.19531-2.2422-0.57812-2.8281-0.38672-0.59375-1.0078-0.89062-1.8594-0.89062-1.1172 0-1.9805 0.46484-2.5938 1.3906-0.60547 0.91797-0.91797 2.25-0.9375 4v9.0469h-5.9375v-9.6094c0-2.0391-0.17969-3.3516-0.53125-3.9375-0.34375-0.59375-0.96484-0.89062-1.8594-0.89062-1.1367 0-2.0117 0.46484-2.625 1.3906-0.61719 0.92969-0.92188 2.2578-0.92188 3.9844v9.0625h-5.9219v-18.438h5.9219v2.7031c0.72656-1.0391 1.5625-1.8203 2.5-2.3438 0.9375-0.53125 1.9688-0.79688 3.0938-0.79688 1.2695 0 2.3945 0.30859 3.375 0.92188 0.97656 0.61719 1.7188 1.4766 2.2188 2.5781z"/>
  </symbol>
  <symbol id="r" overflow="visible">
   <path d="m3.0938-24.562h7.0781l8.9375 16.844v-16.844h6v24.562h-7.0781l-8.9375-16.859v16.859h-6z"/>
  </symbol>
  <symbol id="q" overflow="visible">
   <path d="m2.6406-7.1719v-11.266h5.9219v1.8438c0 1-0.007812 2.2578-0.015625 3.7656-0.011719 1.5117-0.015625 2.5156-0.015625 3.0156 0 1.4805 0.035156 2.5469 0.10938 3.2031 0.070313 0.65625 0.20312 1.1328 0.39062 1.4219 0.23828 0.38672 0.55078 0.68359 0.9375 0.89062 0.39453 0.21094 0.84766 0.3125 1.3594 0.3125 1.2266 0 2.1914-0.46875 2.8906-1.4062 0.69531-0.94531 1.0469-2.2578 1.0469-3.9375v-9.1094h5.8906v18.438h-5.8906v-2.6719c-0.88672 1.0859-1.8281 1.8828-2.8281 2.3906-0.99219 0.50781-2.0781 0.76562-3.2656 0.76562-2.1367 0-3.7617-0.64844-4.875-1.9531-1.1055-1.3125-1.6562-3.2109-1.6562-5.7031z"/>
  </symbol>
  <symbol id="p" overflow="visible">
   <path d="m3.0938-24.562h10.516c3.125 0 5.5195 0.69531 7.1875 2.0781 1.6758 1.3867 2.5156 3.3594 2.5156 5.9219 0 2.5859-0.83984 4.5703-2.5156 5.9531-1.668 1.3867-4.0625 2.0781-7.1875 2.0781h-4.1875v8.5312h-6.3281zm6.3281 4.5781v6.875h3.5156c1.2266 0 2.1758-0.29688 2.8438-0.89062 0.66406-0.60156 1-1.457 1-2.5625 0-1.0938-0.33594-1.9375-1-2.5312-0.66797-0.59375-1.6172-0.89062-2.8438-0.89062z"/>
  </symbol>
  <symbol id="o" overflow="visible">
   <path d="m2.8281-18.438h5.8906v18.109c0 2.4688-0.59375 4.3516-1.7812 5.6562-1.1797 1.3008-2.8906 1.9531-5.1406 1.9531h-2.9219v-3.875h1.0312c1.1133 0 1.8789-0.25781 2.2969-0.76562 0.41406-0.5 0.625-1.4922 0.625-2.9688zm0-7.1719h5.8906v4.8125h-5.8906z"/>
  </symbol>
 </defs>
 <g>
  <path fill="#fff" d="m334.46 302.68c1.375-2.4961 2.3125-5.207 2.7617-8.0195v-6.7422c-0.19531-1.2109-0.48828-2.4062-0.875-3.5703l0.875-0.67578v-2.5625c-28.508 22.578-72.25 30.734-107.84 30.734s-79.324-8.2227-107.84-30.934v9.4375c0 15.973 15.973 27.633 28.645 34.172 26.352 13.48 61.195 18.465 92.672 16.512v-0.003906c7.8438-8.3164 17.109-15.164 27.363-20.219 20.02-9.8906 41.668-16.059 63.895-18.195zm267.23 71.102c0.31641 3.0703 0.31641 6.1641 0 9.2344v1.8203c-2.9648 19.543-18.398 36.191-41.246 48.258-21.352 10.434-44.5 16.703-68.203 18.465v29.387c0.078124 1.5469 0.078124 3.0977 0 4.6484 0 22.039-15.84 41.312-41.516 54.66h-0.003906c-28 13.484-58.762 20.246-89.84 19.746-31.176 0.59375-62.059-6.125-90.176-19.613-23.59-12.266-38.887-29.586-41.18-49.402v-20.219c-31.109 0.55859-61.918-6.1562-89.973-19.613-25.68-13.074-41.52-32.617-41.52-54.656v-322.36c0-21.902 15.84-41.18 41.52-54.523 28.113-13.488 58.996-20.207 90.176-19.613 31.18-0.59375 62.062 6.125 90.176 19.613 22.375 11.66 44.078 31.812 41.246 59.309v47.18-0.003906c0.31641 3.0703 0.31641 6.1641 0 9.2344v37.203c5.8594-4.7891 12.207-8.9492 18.941-12.398 28.113-13.492 58.996-20.207 90.176-19.613 31.18-0.59375 62.062 6.1211 90.176 19.613 22.375 11.66 44.078 31.812 41.246 59.309v47.18-0.003906c0.31641 3.0703 0.31641 6.1641 0 9.2344v44.281c0.31641 3.0664 0.31641 6.1602 0 9.2305zm-109.45 53.918h0.003907c19.93-1.6484 39.383-6.9961 57.352-15.77 11.457-6 26.285-16.578 28.375-30.195v-6.7383c-0.19531-1.2109-0.48828-2.4062-0.875-3.5742l0.875-0.67578v-2.4922c-22.98 18.195-56.008 26.957-85.594 29.723v29.453zm0-53.445h0.003907c19.934-1.6406 39.383-6.9883 57.352-15.77 11.457-6 26.285-16.578 28.375-30.195v-6.7383c-0.19531-1.2109-0.48828-2.4062-0.875-3.5742l0.875-0.67578v-2.6289c-25.477 20.219-62.949 28.848-96.109 30.465l0.003906 0.003906c6.5664 8.2227 10.344 18.328 10.781 28.844zm85.598-99.543v-6.7422c-0.19922-1.2109-0.49219-2.4062-0.87891-3.5703l0.875-0.67578v-5.6602c-28.508 22.578-72.25 30.734-107.84 30.734-35.586 0-79.324-8.2227-107.84-30.934v12.602c0 14.289 12.738 25.141 24.602 31.945h0.003906c22.223 2.1406 43.875 8.3047 63.891 18.195 6.1992 0.53906 12.535 0.80859 19.074 0.80859 27.547 0.83984 54.906-4.8164 79.863-16.512 11.457-6 26.285-16.578 28.375-30.195zm0-56.75v-3.168c0-12.402-10.918-24.262-28.645-33.699-24.719-11.73-51.836-17.523-79.191-16.914-27.258-0.49219-54.254 5.3672-78.855 17.117-38.148 19.883-38.148 47.18 0 66.992 24.719 11.73 51.84 17.523 79.191 16.918 27.379 0.61719 54.52-5.1758 79.258-16.918 16.176-8.4258 26.957-19.074 28.375-30.328zm-347.63 147.67c-0.72266 3.25-1.0859 6.5742-1.0781 9.9062v21.633c-27.145 0.53516-54.047-5.2344-78.586-16.848-12.672-6.7383-28.914-18.195-28.645-34.172v-11.387c27.969 22.441 70.836 30.934 108.31 30.867zm-1.0781 55.398c-36.867 0-79.461-8.7617-107.23-30.934v5.6602c0 15.973 15.973 27.633 28.645 34.172h-0.003907c24.535 11.641 51.434 17.43 78.586 16.914zm239.59 65.914v-4.3789c-0.19531-1.2148-0.48828-2.4062-0.875-3.5742l0.875-0.67578v-2.6289 0.003906c-5.4297 4.25-11.254 7.9727-17.387 11.121-28.191 13.551-59.172 20.293-90.449 19.68-31.176 0.58984-62.059-6.125-90.176-19.613-6.2383-3.1953-12.152-6.9883-17.656-11.324v9.707c0 15.973 15.973 27.633 28.645 34.172l-0.003906-0.003907c24.738 11.66 51.855 17.387 79.191 16.715 27.332 0.50391 54.402-5.3828 79.059-17.184 12.062-6.2695 27.836-17.656 28.578-32.281zm0-51.492v-6.7383c-0.19531-1.2109-0.48828-2.4062-0.875-3.5703l0.875-0.67578v-5.6602c-5.4297 4.25-11.254 7.9727-17.387 11.121-28.168 13.645-59.152 20.477-90.449 19.949-31.176 0.58984-62.059-6.125-90.176-19.613-6.2383-3.2188-12.152-7.0312-17.656-11.391v12.469c0 15.973 15.973 27.633 28.645 34.172l-0.003906-0.003907c24.711 11.777 51.828 17.617 79.191 17.055 27.305 0.60547 54.375-5.1641 79.059-16.852 11.457-6 26.285-16.578 28.375-30.195zm0-56.75c-1.6836 11.254-12.199 21.902-28.375 30.328v0.003906c-24.801 11.77-52.016 17.566-79.461 16.918-27.352 0.60547-54.469-5.1875-79.191-16.918-17.656-9.2344-28.645-21.094-28.645-33.699 0-12.602 10.918-24.262 28.645-33.699 24.754-11.59 51.871-17.242 79.191-16.512 27.355-0.60547 54.473 5.1875 79.191 16.918 17.656 9.2344 28.645 21.094 28.645 33.699v3.168zm-346.42-141.54v-9.3633c28.508 22.781 72.383 30.934 107.84 30.934 35.449 0 79.055-8.1562 107.84-30.734v2.4922l-0.875 0.67578-0.003906 0.003906c0.38672 1.1641 0.67969 2.3594 0.875 3.5703v6.7383c-2.0898 13.48-16.918 24.262-28.375 30.195-24.719 11.73-51.836 17.523-79.188 16.918-27.605 0.62891-54.965-5.2617-79.867-17.188-12.672-6.7383-28.914-18.195-28.645-34.172zm0-53.445c0 15.973 15.973 27.633 28.645 34.172v0.003906c24.719 11.73 51.836 17.523 79.191 16.914 27.352 0.60938 54.469-5.1836 79.188-16.914 11.457-6 26.285-16.578 28.375-30.195v-6.7383c-0.19531-1.2109-0.48828-2.4062-0.875-3.5742l0.875-0.67578v-2.6289c-28.508 22.578-72.25 30.734-107.84 30.734-35.586 0-79.324-8.2227-107.84-30.934v9.5039zm215.67-49.605v-6.0586c-0.19531-1.2109-0.48828-2.4062-0.875-3.5742l0.875-0.67578v-5.6602c-29.184 22.309-72.988 30.129-108.24 30.129s-79.324-8.2227-107.84-30.934v12.602c0 15.973 15.973 27.633 28.645 34.172v-0.003906c24.695 11.824 51.816 17.711 79.191 17.188 27.328 0.61719 54.418-5.1523 79.125-16.848 11.457-6 26.285-16.578 28.375-30.195zm0-56.75v-3.2266c0-12.402-10.918-24.262-28.645-33.699-24.867-11.676-52.129-17.355-79.594-16.578-27.355-0.60547-54.473 5.1836-79.191 16.914-17.656 9.2344-28.645 21.098-28.645 33.363s10.918 24.262 28.645 33.699c24.727 11.707 51.844 17.477 79.191 16.848 27.328 0.61719 54.418-5.1523 79.125-16.848 16.176-8.4922 26.754-19.141 28.441-30.398z" fill-rule="evenodd"/>
 </g>
</svg>
