<svg id="svg26904" xmlns="http://www.w3.org/2000/svg" viewBox="0 0 109.24 104.22" width="109.24px" height="104.22px"><defs><style>.cls-1{fill:#653a25;}.cls-2{fill:#9b5e3a;}.cls-3{fill:#947549;}.cls-4{fill:#cc7c54;}.cls-5{fill:#f8a980;}</style></defs><title>chairs-6p 02</title><path id="path590" class="cls-1" d="M191.91,11.31c26.55,0,48.63,7.33,53.41,17a9,9,0,0,0,1-3.93c0-11.58-24.36-21-54.4-21s-54.39,9.4-54.39,21a8.81,8.81,0,0,0,1,3.93c4.77-9.71,26.85-17,53.4-17" transform="translate(-137.3 0.01)"></path><path id="path592" class="cls-2" d="M232.2,46.14C223.92,40.1,209,36,191.91,36c-16.08,0-30.27,3.59-38.79,9a21.29,21.29,0,0,0-1,4l-.67,5c8.24-6.1,23.26-10.2,40.44-10.2,18.16,0,33.88,4.58,41.76,11.27l-.82-6a20.56,20.56,0,0,0-.65-3" transform="translate(-137.3 0.01)"></path><path id="path594" class="cls-2" d="M167.57,45.51,160,48.21,147.17,12.49l7.54-2.71,12.86,35.73" transform="translate(-137.3 0.01)"></path><path id="path596" class="cls-2" d="M217.42,45.51l7.54,2.7,12.86-35.72-7.54-2.71L217.42,45.51" transform="translate(-137.3 0.01)"></path><path id="path598" class="cls-2" d="M169.94,41.4,165.57,7.32l11.91-1.53,4.37,34.08L169.94,41.4" transform="translate(-137.3 0.01)"></path><path id="path600" class="cls-3" d="M197.92,38.45h-12V5.24h12V38.45" transform="translate(-137.3 0.01)"></path><path id="path602" class="cls-2" d="M213.89,41.4,202,39.87l4.37-34.08,11.92,1.53-4.4,34.08" transform="translate(-137.3 0.01)"></path><path id="path604" class="cls-2" d="M197.92,38.45h-12V5.24h12V38.45" transform="translate(-137.3 0.01)"></path><path id="path606" class="cls-4" d="M151.47,54.1,147,87c-1.29,9.47,4.34,17.21,12.52,17.21h65.95c8.18,0,13.81-7.74,12.52-17.21l-4.32-31.81c-7.88-6.69-23.6-11.27-41.76-11.27-17.18,0-32.2,4.1-40.44,10.2" transform="translate(-137.3 0.01)"></path><path id="path608" class="cls-5" d="M225.47,99.4H159.52c-6.65,0-11.62-5.13-12.55-12.15-1.14,9.35,4.45,16.94,12.55,16.94h65.95c8.1,0,13.69-7.59,12.55-16.94-.93,7-5.9,12.15-12.55,12.15" transform="translate(-137.3 0.01)"></path><path id="path610" class="cls-2" d="M191.91,7.86c26.55,0,49.51,8.11,54.28,17.81a18.83,18.83,0,0,0,.32-4.68c0-11.58-24.56-21-54.6-21s-53.52,9.53-54.39,21c-.1,1.34-.51,3.42.12,4.7,4.78-9.7,27.72-17.81,54.27-17.81" transform="translate(-137.3 0.01)"></path><path id="path660" class="cls-2" d="M9.78,107.43" transform="translate(-137.3 0.01)"></path><path id="path660-2" data-name="path660" class="cls-2" d="M48.21,112.74" transform="translate(-137.3 0.01)"></path></svg>