<svg id="svg29932" xmlns="http://www.w3.org/2000/svg" viewBox="0 0 81.27 70.33" width="81.27px" height="70.33px"><defs><style>.cls-1{fill:#4e473c;}.cls-2{fill:#947c72;}.cls-3{fill:#695e50;}</style></defs><title>chairs-4p-2 03</title><path id="path548" class="cls-1" d="M88.65,219.12l-8.57-2.51-4.14,14,8.58,2.52,4.13-14" transform="translate(-75.94 -162.8)"></path><path id="path550" class="cls-1" d="M144.51,219.09l8.57-2.52,4.13,14-8.58,2.52-4.12-14" transform="translate(-75.94 -162.8)"></path><path id="path552" class="cls-2" d="M81,208.4l6-38.6a63.66,63.66,0,0,1,29.62-7,63.7,63.7,0,0,1,29.63,7l6,38.6c-8.43,6.53-21.38,10.8-35.61,10.8S89.41,214.93,81,208.4" transform="translate(-75.94 -162.8)"></path><path id="path554" class="cls-3" d="M147.47,223.26a75.93,75.93,0,0,1-30.89,6.22,75.92,75.92,0,0,1-30.88-6.22,55.14,55.14,0,0,1-6.5-3.42L81,208.4c8.45,6.53,21.4,10.8,35.62,10.8s27.18-4.27,35.61-10.8L154,219.84a56.67,56.67,0,0,1-6.5,3.42" transform="translate(-75.94 -162.8)"></path></svg>