<svg id="svg24711" xmlns="http://www.w3.org/2000/svg" xmlns:xlink="http://www.w3.org/1999/xlink" viewBox="0 0 100.42 109.7"><defs><style>.cls-1{fill:none;}.cls-2{clip-path:url(#clip-path);}.cls-3{fill:url(#linear-gradient);}.cls-4{fill:#707062;}.cls-5{fill:#615d51;}.cls-6{clip-path:url(#clip-path-2);}.cls-7{fill:url(#linear-gradient-2);}.cls-8{fill:#fff;}.cls-9{fill:#dddddc;}</style><clipPath id="clip-path" transform="translate(-150.43 0)"><path class="cls-1" d="M230.52,96.8H170.78c-.46-1.48-.88-3-1.23-4.55L165.74,76c-5.47-23.31,3.26-45.13,20.31-48.8a24.37,24.37,0,0,1,5.18-.55h18.85c20.39,0,31.5,23.78,25.5,49.35l-3.82,16.22c-.36,1.55-.78,3.07-1.24,4.55"/></clipPath><linearGradient id="linear-gradient" x1="-178.41" y1="-13.35" x2="-177.41" y2="-13.35" gradientTransform="translate(-12802.71 -914.11) rotate(180) scale(73.09)" gradientUnits="userSpaceOnUse"><stop offset="0" stop-color="#f5ae3f"/><stop offset="0.01" stop-color="#f5ae3f"/><stop offset="1" stop-color="#f68545"/></linearGradient><clipPath id="clip-path-2" transform="translate(-150.43 0)"><path class="cls-1" d="M229.65,99.36h-58c-.3-.83-.59-1.69-.86-2.56h59.74c-.28.87-.56,1.73-.87,2.56"/></clipPath><linearGradient id="linear-gradient-2" x1="-178.41" y1="-13.85" x2="-177.41" y2="-13.85" gradientTransform="translate(-12802.71 -914.11) rotate(180) scale(73.09)" gradientUnits="userSpaceOnUse"><stop offset="0" stop-color="#a3742b"/><stop offset="0.01" stop-color="#a3742b"/><stop offset="1" stop-color="#a6592f"/></linearGradient></defs><title>chairs-4p 01</title><g id="g406"><g class="cls-2"><g id="g408"><path id="path422" class="cls-3" d="M230.52,96.8H170.78c-.46-1.48-.88-3-1.23-4.55L165.74,76c-5.47-23.31,3.26-45.13,20.31-48.8a24.37,24.37,0,0,1,5.18-.55h18.85c20.39,0,31.5,23.78,25.5,49.35l-3.82,16.22c-.36,1.55-.78,3.07-1.24,4.55" transform="translate(-150.43 0)"/></g></g></g><path id="path424" class="cls-4" d="M175.91,101.81h-7v-5h1.92c.27.87.56,1.73.86,2.56h3.62c.21.82.43,1.64.65,2.45" transform="translate(-150.43 0)"/><path id="path426" class="cls-5" d="M231.88,101.81h-56c-.22-.81-.44-1.63-.65-2.45h54.39c.31-.83.59-1.69.87-2.56h1.36v5" transform="translate(-150.43 0)"/><g id="g428"><g class="cls-6"><g id="g430"><path id="path444" class="cls-7" d="M229.65,99.36h-58c-.3-.83-.59-1.69-.86-2.56h59.74c-.28.87-.56,1.73-.87,2.56" transform="translate(-150.43 0)"/></g></g></g><path id="path446" class="cls-8" d="M170.06,106.85l-2.49-9.08-.17-.45a73.54,73.54,0,0,1-2.25-7.69l-3.78-16.27c-3.93-16.91-1.19-33.48,7.33-44.34a28.71,28.71,0,0,1,22.92-11.41h18.7A28.77,28.77,0,0,1,233.25,29c8.51,10.84,11.24,27.43,7.32,44.33l-3.78,16.26a76.1,76.1,0,0,1-2.26,7.69l-.09.22-2.56,9.27L231,109.7h6.66c7.26-18.48,17.18-50.32,11.51-75.63C249.19,34.07,239,0,200.65,0s-48.54,34.07-48.54,34.07c-5.67,25.31,4.25,57.15,11.52,75.63H171l-.89-2.85" transform="translate(-150.43 0)"/><path id="path448" class="cls-9" d="M231.88,106.81l2.56-9.27.09-.22a76.1,76.1,0,0,0,2.26-7.69l3.78-16.26c3.92-16.9,1.19-33.49-7.32-44.33a28.78,28.78,0,0,0-22.93-11.43h-18.7A28.73,28.73,0,0,0,168.7,29c-8.52,10.86-11.26,27.43-7.33,44.34l3.78,16.27a73.54,73.54,0,0,0,2.25,7.69l.17.45,2.49,9.08.89,2.85h3.62l-2.88-10.34h-.05a62.92,62.92,0,0,1-2.09-7.11L165.73,76c-6-25.57,5.1-49.35,25.5-49.35h18.85c20.39,0,31.5,23.78,25.5,49.35l-3.82,16.22a63,63,0,0,1-2.11,7.11h0l-2.87,10.34H231l.86-2.89" transform="translate(-150.43 0)"/></svg>