<svg id="svg26706" xmlns="http://www.w3.org/2000/svg" xmlns:xlink="http://www.w3.org/1999/xlink" viewBox="0 0 30.65 37"><defs><style>.cls-1{fill:url(#linear-gradient);}.cls-2{fill:#f1f1f2;}.cls-3{fill:#9a8479;}.cls-4{fill:#bb844d;}.cls-5{fill:#9f6a39;}.cls-6{fill:#754c28;}.cls-7{fill:#603813;}</style><linearGradient id="linear-gradient" x1="579.29" y1="-90.43" x2="588.03" y2="-90.43" gradientTransform="translate(-278.22 224.38) scale(0.89 1.34)" gradientUnits="userSpaceOnUse"><stop offset="0" stop-color="#b1b3b5"/><stop offset="0.05" stop-color="#c4c5c7"/><stop offset="0.14" stop-color="#dadbdc"/><stop offset="0.24" stop-color="#ebebec"/><stop offset="0.36" stop-color="#f6f7f7"/><stop offset="0.53" stop-color="#fdfdfd"/><stop offset="1" stop-color="#fff"/></linearGradient></defs><title>Coffee Cup 02 without plate</title><rect class="cls-1" x="238.63" y="100.8" width="7.8" height="4.93" rx="1.21" transform="translate(84.89 -222.18) rotate(81.5)"/><circle class="cls-2" cx="15.32" cy="15.32" r="15.32"/><circle class="cls-3" cx="15.32" cy="15.32" r="14.43"/><circle class="cls-4" cx="15.32" cy="15.32" r="13.53"/><path class="cls-5" d="M228.93,92.33c.48,1.22.77,1.83,1.71,1.57s1.68.44,1.94,0a3,3,0,0,0,.39-1.21,8.55,8.55,0,0,0-.1-2.15,1.87,1.87,0,0,1,.12-1.28s0-.92-.41-.59-.44.73-.91,1.15-.74.47-.88-.27-.19-2.73.45-3a2.39,2.39,0,0,1,2.08.42c.44.33,2,1.19,2.62,1s1,0,1.08.49,0,1.07.77.67,1.3-.26,2.38-1.18,1.51-1.07,2.46-.71a2,2,0,0,0,2.45-.62,2.41,2.41,0,0,0,.26-2.4,3.37,3.37,0,0,1-.44-1.28c-.07-.51,0-1.34.61-.79s1,1.58,1.61,2,1.24.58,1.43,1.25.71,2,.93,2.62.21,4.18-.36,4.67-.26,1,.35.29,2.9-4.49,2.22-7.78-3.69-8.77-6.49-10-1.63-1.48-7.67-1.56-11,7.7-10.34,11.32S227.06,87.52,228.93,92.33Z" transform="translate(-223.92 -70.32)"/><path class="cls-6" d="M234.83,94.55s6.74,1.62,7.73.66.66-1.42.66-1.42-1.34,1.49-2.37.86a24.51,24.51,0,0,1-3.34-2.27c-.38-.46-2.79-3.34-2-3.93s1.21-.87,1.61-.52a2,2,0,0,0,1.77-.17c.12-.19,1.71-1,2.16-1.59s.33-2,1.49-2a5.51,5.51,0,0,0,3.88-1.67c.69-1,1-1.3.75-1.89s-.65-1.27,0-1.24,4,3.44,4.15,5.82.54,4.79-1.23,7.36-8.1,4.25-8.1,4.25-4.5.07-6-.88S233.29,93.93,234.83,94.55Z" transform="translate(-223.92 -70.32)"/><circle class="cls-7" cx="8.34" cy="14.33" r="0.85"/><circle class="cls-7" cx="10.4" cy="19.46" r="0.66"/><circle class="cls-7" cx="13.13" cy="15.64" r="0.46"/></svg>