<svg id="svg26706" xmlns="http://www.w3.org/2000/svg" xmlns:xlink="http://www.w3.org/1999/xlink" viewBox="0 0 35.71 30.65"><defs><style>.cls-1{fill:url(#linear-gradient);}.cls-2{fill:#f1f1f2;}.cls-3{fill:#9a8479;}.cls-4{fill:#bb844d;}.cls-5{fill:#9f6a39;}.cls-6{fill:#754c28;}.cls-7{fill:#603813;}</style><linearGradient id="linear-gradient" x1="533.85" y1="-330.57" x2="542.59" y2="-330.57" gradientTransform="translate(-257.1 538.34) scale(0.89 1.34)" gradientUnits="userSpaceOnUse"><stop offset="0" stop-color="#b1b3b5"/><stop offset="0.05" stop-color="#c4c5c7"/><stop offset="0.14" stop-color="#dadbdc"/><stop offset="0.24" stop-color="#ebebec"/><stop offset="0.36" stop-color="#f6f7f7"/><stop offset="0.53" stop-color="#fdfdfd"/><stop offset="1" stop-color="#fff"/></linearGradient></defs><title>Coffee Cup 03 without plate</title><rect class="cls-1" x="219.2" y="93.15" width="7.8" height="4.93" rx="1.21" transform="translate(246.84 28.55) rotate(158.12)"/><circle class="cls-2" cx="20.38" cy="15.32" r="15.32"/><circle class="cls-3" cx="20.38" cy="15.32" r="14.43"/><circle class="cls-4" cx="20.38" cy="15.32" r="13.53"/><path class="cls-5" d="M242.05,99.87c1.31-.1,2-.2,2-1.17s.91-1.47.58-1.85a3.11,3.11,0,0,0-1-.73,9,9,0,0,0-2.08-.54c-.94-.16-1.18-.5-1.18-.5s-.87-.31-.69.22.56.64.82,1.21.23.85-.51.76-2.67-.63-2.77-1.33a2.37,2.37,0,0,1,1-1.86c.45-.33,1.72-1.54,1.74-2.2s.29-1,.79-.89,1,.35.86-.53a6.89,6.89,0,0,0-.42-2.63c-.55-1.29-.57-1.76.06-2.56a2,2,0,0,0,.13-2.53,2.39,2.39,0,0,0-2.21-1,3.33,3.33,0,0,1-1.36,0c-.5-.08-1.26-.44-.57-.81s1.8-.46,2.37-1,.93-1,1.63-1S243.33,79,244,79s4.05,1,4.35,1.73.88.55.38-.25S245.31,76.34,242,76s-9.47.91-11.52,3.21-1.89,1.12-3.76,6.86,4.08,12.8,7.74,13.23S236.9,100.22,242.05,99.87Z" transform="translate(-218.92 -72.65)"/><path class="cls-6" d="M249.9,91.19s.43-6.93-.69-7.73-1.51-.41-1.51-.41,1.69,1.07,1.25,2.19a23.78,23.78,0,0,1-1.66,3.68c-.38.46-2.8,3.33-3.53,2.62S242.7,90.49,243,90s-.25-1.62-.47-1.71-1.24-1.53-1.94-1.85-2,0-2.23-1.13A5.48,5.48,0,0,0,236,81.82c-1.11-.5-1.45-.77-2-.4s-1.13.85-1.23.16,2.7-4.51,5-5.1,4.62-1.36,7.46-.06,5.59,7.24,5.59,7.24.85,4.41.17,6.07S249.55,92.82,249.9,91.19Z" transform="translate(-218.92 -72.65)"/><circle class="cls-7" cx="28.89" cy="20.63" r="0.85"/><circle class="cls-7" cx="12.91" cy="21.29" r="0.66"/><circle class="cls-7" cx="11.33" cy="19" r="0.46"/></svg>