<svg id="svg26706" xmlns="http://www.w3.org/2000/svg" xmlns:xlink="http://www.w3.org/1999/xlink" viewBox="0 0 37.55 30.65"><defs><style>.cls-1{fill:url(#linear-gradient);}.cls-2{fill:#f1f1f2;}.cls-3{fill:#9a8479;}.cls-4{fill:#bb844d;}.cls-5{fill:#9f6a39;}.cls-6{fill:#754c28;}.cls-7{fill:#603813;}</style><linearGradient id="linear-gradient" x1="260.31" y1="60.24" x2="269.42" y2="60.24" gradientTransform="translate(-202.83 -65.31) scale(0.89 1.34)" gradientUnits="userSpaceOnUse"><stop offset="0" stop-color="#b1b3b5"/><stop offset="0.05" stop-color="#c4c5c7"/><stop offset="0.14" stop-color="#dadbdc"/><stop offset="0.24" stop-color="#ebebec"/><stop offset="0.36" stop-color="#f6f7f7"/><stop offset="0.53" stop-color="#fdfdfd"/><stop offset="1" stop-color="#fff"/></linearGradient></defs><title>Coffee Cup 01 without plate</title><rect class="cls-1" x="29.42" y="12.91" width="8.13" height="4.93" rx="1.21"/><circle class="cls-2" cx="15.32" cy="15.32" r="15.32"/><circle class="cls-3" cx="15.32" cy="15.32" r="14.43"/><circle class="cls-4" cx="15.32" cy="15.32" r="13.53"/><path class="cls-5" d="M224.74,62.31c-1.3-.17-2-.2-2.2.75s-1.18,1.26-.94,1.69a3.26,3.26,0,0,0,.87.93,9.66,9.66,0,0,0,1.93.93c.89.34,1.07.72,1.07.72s.78.48.72-.08-.43-.74-.57-1.35-.06-.87.65-.64,2.49,1.14,2.45,1.85-.85,1.39-1.36,1.62-2,1.18-2.13,1.82-.48.91-.95.71-.92-.54-.95.36a6.89,6.89,0,0,0-.11,2.66c.29,1.38.22,1.84-.56,2.5a2,2,0,0,0-.62,2.45,2.41,2.41,0,0,0,2,1.38,3.39,3.39,0,0,1,1.34.22c.48.18,1.15.68.41.92s-1.87.09-2.51.46-1.11.81-1.8.66-2.08-.33-2.74-.44-3.77-1.82-3.92-2.55-.75-.71-.42.17,2.55,4.68,5.76,5.67,9.47,1,11.92-.88,2.08-.73,5-6-1.47-13.35-5-14.5S229.86,63,224.74,62.31Z" transform="translate(-210.03 -59.03)"/><path class="cls-6" d="M220.8,64.57s-5.23,4.55-5,5.91.76,1.36.76,1.36-.42-2,.68-2.42A25.36,25.36,0,0,1,221,68c.6,0,4.34-.34,4.34.68s0,1.49-.51,1.62-1,1.32-.89,1.53a14.48,14.48,0,0,0,0,2.68c.26.73,1.45,1.45.77,2.39a5.52,5.52,0,0,0-.9,4.13c.43,1.14.47,1.57,1.11,1.7s1.4.21,1,.76-5.11,1.24-7.15,0-4.21-2.34-5.28-5.27,1.24-9.07,1.24-9.07,2.55-3.7,4.21-4.38S222.2,63.67,220.8,64.57Z" transform="translate(-210.03 -59.03)"/><circle class="cls-7" cx="17.7" cy="12.85" r="0.85"/><circle class="cls-7" cx="22.87" cy="12.24" r="0.66"/><circle class="cls-7" cx="19.39" cy="17.95" r="0.46"/></svg>