<svg id="svg26706" xmlns="http://www.w3.org/2000/svg" xmlns:xlink="http://www.w3.org/1999/xlink" viewBox="0 0 276.87 152.34"><defs><style>.cls-1{fill:#b7a782;}.cls-2{fill:#716558;}.cls-3{fill:#95805c;}.cls-4{fill:#dcdcdc;}.cls-5{fill:#808184;}.cls-6{fill:#a6a8ab;}.cls-7{fill:url(#linear-gradient);}.cls-8{fill:#f3f4f5;}.cls-9{fill:#e6e7e8;}.cls-10{fill:#6d6e70;}</style><linearGradient id="linear-gradient" x1="216.65" y1="97.4" x2="216.46" y2="51.26" gradientUnits="userSpaceOnUse"><stop offset="0.45" stop-color="#dcdcdc"/><stop offset="0.51" stop-color="#d3d3d4"/><stop offset="0.61" stop-color="#bcbcbd"/><stop offset="0.72" stop-color="#969799"/><stop offset="0.78" stop-color="#808184"/><stop offset="0.95" stop-color="#dcdcdc"/></linearGradient></defs><title>Desk with Computer</title><rect class="cls-1" width="276.87" height="152.34" rx="4.94"/><rect class="cls-2" x="5.2" y="4.45" width="266.59" height="143.02" rx="3.85"/><rect class="cls-3" x="7.64" y="7.24" width="261.7" height="137.87" rx="2.49"/><rect class="cls-4" x="86.98" y="86.97" width="99.46" height="37.36" rx="1.87"/><rect class="cls-5" x="88.84" y="91.65" width="4.76" height="3.17" rx="0.42"/><rect class="cls-5" x="97.01" y="91.65" width="4.76" height="3.17" rx="0.42"/><rect class="cls-5" x="102.75" y="91.65" width="4.76" height="3.17" rx="0.42"/><rect class="cls-5" x="108.25" y="91.65" width="4.76" height="3.17" rx="0.42"/><rect class="cls-5" x="113.72" y="91.65" width="4.76" height="3.17" rx="0.42"/><rect class="cls-5" x="121.59" y="91.65" width="4.76" height="3.17" rx="0.42"/><rect class="cls-5" x="127.32" y="91.65" width="4.76" height="3.17" rx="0.42"/><rect class="cls-5" x="132.82" y="91.65" width="4.76" height="3.17" rx="0.42"/><rect class="cls-5" x="138.29" y="91.65" width="4.76" height="3.17" rx="0.42"/><rect class="cls-5" x="146.3" y="91.65" width="4.76" height="3.17" rx="0.42"/><rect class="cls-5" x="152.03" y="91.65" width="4.76" height="3.17" rx="0.42"/><rect class="cls-5" x="157.53" y="91.65" width="4.76" height="3.17" rx="0.42"/><rect class="cls-5" x="163" y="91.65" width="4.76" height="3.17" rx="0.42"/><rect class="cls-5" x="168.89" y="91.65" width="4.76" height="3.17" rx="0.42"/><rect class="cls-5" x="174.62" y="91.65" width="4.76" height="3.17" rx="0.42"/><rect class="cls-5" x="180.12" y="91.65" width="4.76" height="3.17" rx="0.42"/><rect class="cls-5" x="168.89" y="95.62" width="4.76" height="4.09" rx="0.42"/><rect class="cls-5" x="152.03" y="95.62" width="4.6" height="4.09" rx="0.42"/><rect class="cls-5" x="146.45" y="95.62" width="4.6" height="4.09" rx="0.42"/><rect class="cls-5" x="141.15" y="95.62" width="4.6" height="4.09" rx="0.42"/><rect class="cls-5" x="135.74" y="95.62" width="4.6" height="4.09" rx="0.42"/><rect class="cls-5" x="130.36" y="95.62" width="4.6" height="4.09" rx="0.42"/><rect class="cls-5" x="125.1" y="95.62" width="4.6" height="4.09" rx="0.42"/><rect class="cls-5" x="119.79" y="95.62" width="4.6" height="4.09" rx="0.42"/><rect class="cls-5" x="114.39" y="95.62" width="4.6" height="4.09" rx="0.42"/><rect class="cls-5" x="109.01" y="95.62" width="4.6" height="4.09" rx="0.42"/><rect class="cls-5" x="103.64" y="95.62" width="4.6" height="4.09" rx="0.42"/><rect class="cls-5" x="98.24" y="95.62" width="4.6" height="4.09" rx="0.42"/><rect class="cls-5" x="88.92" y="95.48" width="7.48" height="4.09" rx="0.42"/><rect class="cls-5" x="157.94" y="95.62" width="9.62" height="4.09" rx="0.42"/><rect class="cls-5" x="160.38" y="101.08" width="7.18" height="4.09" rx="0.42"/><rect class="cls-5" x="174.62" y="95.62" width="4.76" height="4.09" rx="0.42"/><rect class="cls-5" x="180.12" y="95.62" width="4.76" height="4.09" rx="0.42"/><rect class="cls-5" x="168.89" y="101.08" width="4.76" height="4.09" rx="0.42"/><rect class="cls-5" x="155.24" y="101.08" width="4.38" height="4.09" rx="0.42"/><rect class="cls-5" x="150.1" y="101.08" width="4.38" height="4.09" rx="0.42"/><rect class="cls-5" x="144.96" y="101.08" width="4.38" height="4.09" rx="0.42"/><rect class="cls-5" x="139.61" y="101.08" width="4.38" height="4.09" rx="0.42"/><rect class="cls-5" x="134.47" y="101.08" width="4.38" height="4.09" rx="0.42"/><rect class="cls-5" x="129.21" y="101.08" width="4.38" height="4.09" rx="0.42"/><rect class="cls-5" x="124.07" y="101.08" width="4.38" height="4.09" rx="0.42"/><rect class="cls-5" x="118.95" y="101.08" width="4.38" height="4.09" rx="0.42"/><rect class="cls-5" x="113.81" y="101.08" width="4.38" height="4.09" rx="0.42"/><rect class="cls-5" x="108.46" y="101.08" width="4.38" height="4.09" rx="0.42"/><rect class="cls-5" x="103.32" y="101.08" width="4.38" height="4.09" rx="0.42"/><rect class="cls-5" x="98.06" y="101.08" width="4.38" height="4.09" rx="0.42"/><rect class="cls-5" x="98.49" y="106.56" width="4.38" height="4.09" rx="0.42"/><rect class="cls-5" x="103.7" y="106.56" width="4.38" height="4.09" rx="0.42"/><rect class="cls-5" x="109.01" y="106.56" width="4.38" height="4.09" rx="0.42"/><rect class="cls-5" x="114.22" y="106.56" width="4.38" height="4.09" rx="0.42"/><rect class="cls-5" x="119.63" y="106.56" width="4.38" height="4.09" rx="0.42"/><rect class="cls-5" x="124.84" y="106.56" width="4.38" height="4.09" rx="0.42"/><rect class="cls-5" x="130.15" y="106.56" width="4.38" height="4.09" rx="0.42"/><rect class="cls-5" x="135.36" y="106.56" width="4.38" height="4.09" rx="0.42"/><rect class="cls-5" x="140.69" y="106.56" width="4.38" height="4.09" rx="0.42"/><rect class="cls-5" x="145.9" y="106.56" width="4.38" height="4.09" rx="0.42"/><rect class="cls-5" x="151.21" y="106.56" width="4.38" height="4.09" rx="0.42"/><rect class="cls-5" x="148.49" y="112.01" width="4.38" height="4.09" rx="0.42"/><rect class="cls-5" x="143.42" y="112.01" width="4.38" height="4.09" rx="0.42"/><rect class="cls-5" x="137.94" y="112.01" width="4.38" height="4.09" rx="0.42"/><rect class="cls-5" x="132.54" y="112.01" width="4.38" height="4.09" rx="0.42"/><rect class="cls-5" x="127.72" y="112.01" width="4.38" height="4.09" rx="0.42"/><rect class="cls-5" x="122.24" y="112.01" width="4.38" height="4.09" rx="0.42"/><rect class="cls-5" x="116.84" y="112.01" width="4.38" height="4.09" rx="0.42"/><rect class="cls-5" x="111.72" y="112.01" width="4.38" height="4.09" rx="0.42"/><rect class="cls-5" x="106.23" y="112.01" width="4.38" height="4.09" rx="0.42"/><rect class="cls-5" x="100.83" y="112.01" width="4.38" height="4.09" rx="0.42"/><rect class="cls-5" x="95.74" y="117.44" width="4.38" height="4.09" rx="0.42"/><rect class="cls-5" x="100.94" y="117.44" width="5.29" height="4.09" rx="0.42"/><rect class="cls-5" x="142.52" y="117.44" width="5.29" height="4.09" rx="0.42"/><rect class="cls-5" x="149.25" y="117.44" width="4.95" height="4.09" rx="0.42"/><rect class="cls-5" x="155.77" y="117.44" width="4.95" height="4.09" rx="0.42"/><rect class="cls-5" x="162.4" y="117.44" width="5.23" height="4.09" rx="0.42"/><rect class="cls-5" x="107.2" y="117.34" width="5.18" height="4.09" rx="0.42"/><rect class="cls-5" x="113.81" y="117.44" width="28" height="4.09" rx="0.42"/><rect class="cls-5" x="156.43" y="106.56" width="11.13" height="4.09" rx="0.42"/><rect class="cls-5" x="153.68" y="112.01" width="13.87" height="4.09" rx="0.42"/><rect class="cls-5" x="88.92" y="101.08" width="7.03" height="4.09" rx="0.42"/><rect class="cls-5" x="88.92" y="106.56" width="8.55" height="4.09" rx="0.42"/><rect class="cls-5" x="88.92" y="112.01" width="11.11" height="4.09" rx="0.42"/><rect class="cls-5" x="88.92" y="117.44" width="5.42" height="4.09" rx="0.42"/><rect class="cls-5" x="174.62" y="101.08" width="4.76" height="4.09" rx="0.42"/><rect class="cls-5" x="174.62" y="111.52" width="4.62" height="4.39" rx="0.42"/><rect class="cls-5" x="174.62" y="117.23" width="4.62" height="4.39" rx="0.42"/><rect class="cls-5" x="180.1" y="117.23" width="4.62" height="4.39" rx="0.42"/><rect class="cls-5" x="169.08" y="117.23" width="4.62" height="4.39" rx="0.42"/><rect class="cls-5" x="180.12" y="101.08" width="4.76" height="4.09" rx="0.42"/><path class="cls-6" d="M296.76,115.18c-1.31-7-8.28-7-8.28-7s-7,0-8.28,7-.93,17.52,0,19.78,1.51,5.94,7.55,6h1.46c6-.11,6.63-3.8,7.55-6S298.08,122.2,296.76,115.18Z" transform="translate(-79.43 -19.09)"/><path class="cls-4" d="M244.13,36.81H188.91c-11.37,25.62-5.84,54.84-5.84,54.84H250S255.51,62.43,244.13,36.81Z" transform="translate(-79.43 -19.09)"/><path class="cls-4" d="M244.13,36.81H188.91c-11.37,25.62-5.84,54.84-5.84,54.84H250S255.51,62.43,244.13,36.81Z" transform="translate(-79.43 -19.09)"/><path class="cls-7" d="M244.13,44H188.91c-11.37,15.37-5.84,32.9-5.84,32.9H250S255.51,59.36,244.13,44Z" transform="translate(-79.43 -19.09)"/><path class="cls-8" d="M307.57,52.56S245,48.28,214.22,49c-30.29-.76-92,3.52-92,3.52l-12.89,5.19H320.67Z" transform="translate(-79.43 -19.09)"/><rect class="cls-6" x="29.86" y="38.66" width="211.38" height="3.39"/><path class="cls-9" d="M296.54,115.43c-1.28-6.83-8.06-6.78-8.06-6.78s-6.78-.05-8.06,6.78-.9,17,0,19.25,1.47,5.78,7.35,5.88h1.42c5.88-.1,6.45-3.69,7.35-5.88S297.82,122.26,296.54,115.43Z" transform="translate(-79.43 -19.09)"/><rect class="cls-10" x="208.7" y="89.57" width="0.36" height="10.84"/><rect class="cls-5" x="208.15" y="92.08" width="1.45" height="7.4" rx="0.41"/></svg>