<svg id="svg26706" xmlns="http://www.w3.org/2000/svg" xmlns:xlink="http://www.w3.org/1999/xlink" viewBox="0 0 140.54 140.54"><defs><style>.cls-1{fill:#25a9e0;}.cls-2{fill:url(#radial-gradient);}.cls-3{fill:#b66b29;}.cls-4{fill:url(#Orange_Yellow);}.cls-5{fill:none;stroke:#a0ddf8;stroke-miterlimit:10;stroke-width:2px;}</style><radialGradient id="radial-gradient" cx="70.27" cy="70.27" r="70.27" gradientUnits="userSpaceOnUse"><stop offset="0.32" stop-color="#4770aa" stop-opacity="0"/><stop offset="0.47" stop-color="#4871ab" stop-opacity="0.01"/><stop offset="0.53" stop-color="#4b76ae" stop-opacity="0.04"/><stop offset="0.57" stop-color="#507db4" stop-opacity="0.08"/><stop offset="0.6" stop-color="#5888bc" stop-opacity="0.15"/><stop offset="0.62" stop-color="#6196c6" stop-opacity="0.24"/><stop offset="0.65" stop-color="#6ea8d3" stop-opacity="0.35"/><stop offset="0.67" stop-color="#7cbde2" stop-opacity="0.48"/><stop offset="0.69" stop-color="#8cd4f3" stop-opacity="0.63"/><stop offset="0.69" stop-color="#8ed7f5" stop-opacity="0.65"/><stop offset="0.73" stop-color="#84cbea" stop-opacity="0.71"/><stop offset="0.87" stop-color="#68a9cb" stop-opacity="0.89"/><stop offset="1" stop-color="#5e9dc0" stop-opacity="0.95"/></radialGradient><linearGradient id="Orange_Yellow" x1="184.78" y1="101.27" x2="290.12" y2="101.27" gradientUnits="userSpaceOnUse"><stop offset="0" stop-color="#fff23a"/><stop offset="0.04" stop-color="#fee62d"/><stop offset="0.12" stop-color="#fed41a"/><stop offset="0.2" stop-color="#fdc90f"/><stop offset="0.28" stop-color="#fdc60b"/><stop offset="0.67" stop-color="#f28f3f"/><stop offset="0.89" stop-color="#ed693c"/><stop offset="1" stop-color="#e83e39"/></linearGradient></defs><title>Fish Bowl</title><circle class="cls-1" cx="70.27" cy="70.27" r="70.27"/><circle class="cls-2" cx="70.27" cy="70.27" r="70.27"/><path class="cls-3" d="M278.5,91.86a30.3,30.3,0,0,0,1.23-3.42c-.08,0-1.23-1-1.23-1a9.76,9.76,0,0,0-3.05,1.38c-.78.76-1.95.47-3.06,1.07s-2.2.78-2.57,2-.57,1.64-.86,1.69a2.62,2.62,0,0,0-1.54.83c-.55.63-.86,1.2-1.23,1.38s-.34.26-.4.52,3.86,2.3,4.51,2.43,2.68.77,3,.45S277.9,93.33,278.5,91.86Z" transform="translate(-169.89 -28.56)"/><path class="cls-3" d="M256.09,106.85s-1.67,2.15-1.29,2.85-2.36,3.48-1.71,5.94-1.63-.7-.43,5.59S263.37,113,263.37,113a7.94,7.94,0,0,0-1.41-2.47C261.27,110,257.84,105.83,256.09,106.85Z" transform="translate(-169.89 -28.56)"/><path class="cls-3" d="M247.13,87.7a16.49,16.49,0,0,1,2.31,3.24c.35,1,6.58,2.33,6.69,1.76s-1.71-2.85-2.66-3.09-3.47-.62-3.64-.74S247.69,87.07,247.13,87.7Z" transform="translate(-169.89 -28.56)"/><path class="cls-3" d="M249.4,101s.73.7-4.76.62-7,2.74-7,2.74-1.32,0,.74-1.68a13.73,13.73,0,0,0,3.3-3.83c.25-.47.19-1.39,1-1.4S249.74,99.93,249.4,101Z" transform="translate(-169.89 -28.56)"/><path class="cls-4" d="M281.89,104.62l2.4.47,1.89,1s1.24,1.79,1.15,2.46,2.75,2.7,2.79,5-.73,4.18-1.89,4.81a8.65,8.65,0,0,1-6.34.86c-3.09-.71-4.29,0-4.29,0s-2.65,1-2.7-1.6c0,0-10.07-2.94-13.88-7.08s-20.53-15.24-23.15-15.36-.85-1.44-12-.66-17.57,3.48-17.57,3.48-11.18,1.29-18.17-5.32S185,85.63,185,85.63l14.1,6.52,2.83,1.8a2.28,2.28,0,0,1-1.15-2.34,10.42,10.42,0,0,0-.65-4.18,12.22,12.22,0,0,1-.6-3.64c-.13-2.5,1.25,1.8,1.25,1.8s1.54,3.91,3.64,5.7,4,4.5,7.76,3.8,9.08-4.42,16.84-5.91,18.86-.23,24.6,1.92,16.76,7.27,16.76,7.27a13.44,13.44,0,0,1,2.92.79A26.43,26.43,0,0,1,281.89,104.62Z" transform="translate(-169.89 -28.56)"/><circle class="cls-5" cx="70.3" cy="70.27" r="48.89"/></svg>