<svg id="svg26706" xmlns="http://www.w3.org/2000/svg" viewBox="0 0 304.38 194.66"><defs><style>.cls-1{fill:#808184;}.cls-2{fill:#ecedee;}.cls-3{fill:#258c44;}.cls-4{fill:#434268;}</style></defs><title>Ping Pong Table</title><rect class="cls-1" y="0.88" width="304.38" height="191.93" rx="1.96"/><path class="cls-2" d="M86.25,101.2q0-45.67,0-91.36c0-1.84.53-2.25,2.3-2.25q72.07.09,144.17.1c1.62,0,2-.55,1.84-2-.17-1.11.25-1.34,1.39-1.41,1.49-.1,1.32.75,1.23,1.56-.16,1.42.34,1.84,1.79,1.83q69.29-.06,138.55-.05c2,0,4,.07,6.06,0,1.54-.09,2.28.31,2.1,2a41.45,41.45,0,0,0,0,4.32q0,89,0,178c0,3.35.56,3-3,3q-71.33,0-142.66,0c-1.83,0-3.07.11-2.67,2.42.24,1.42-.9.82-1.56,1-1,.22-1.36-.25-1.19-1.14.38-2.05-.63-2.26-2.39-2.26q-71.88.07-143.74.08c-2,0-2.18-.69-2.18-2.36q.07-45.68,0-91.35Zm75.47-90.74v0c-23.37,0-46.75,0-70.13-.06-2.18,0-2.55.65-2.54,2.65q.09,42,0,84c0,2.75,0,2.76,2.84,2.76l123,0c5.9,0,11.81,0,17.72,0,1.66,0,2-.53,2-2.09q-.08-42.21,0-84.42c0-2.92,0-2.92-2.89-2.92ZM335.24,99.77v.06c15,0,30,0,45,.06,2.05,0,2.47-.62,2.47-2.53q-.09-42.21,0-84.42c0-1.94-.44-2.5-2.46-2.5q-67.54.09-135.08.05c-2,0-4,0-6.06,0-1.33,0-1.9.29-1.9,1.79q.06,43,0,85.94c0,1.33.39,1.78,1.71,1.72,7.77-.33,15.55-.17,23.31-.2,9.68,0,19.37.12,29.05.08C306,99.74,320.6,99.77,335.24,99.77ZM310,192H380.5c1.3,0,2.24.12,2.24-1.81q-.11-42.65,0-85.28c0-1.74-.41-2.27-2.27-2.26q-53.35.12-106.71.09l-33.06,0c-3.33,0-3.35,0-3.35,3.41q0,41.88-.12,83.75c0,1.72.48,2.16,2.17,2.15Q274.67,191.92,310,192Zm-148.21,0q35.17,0,70.36,0c2,0,2.48-.51,2.48-2.48q-.11-42.44,0-84.86c0-1.7-.55-2-2.07-2-6.44.07-12.88,0-19.32,0s-13.14.13-19.71,0c-5.3-.13-10.59.14-15.88.11-28.57-.15-57.14-.07-85.71-.08-2.8,0-2.81,0-2.81,2.73q0,42.11,0,84.21c0,1.84.35,2.42,2.33,2.41C114.84,191.93,138.29,192,161.74,192Z" transform="translate(-83.44 -4.29)"/><path class="cls-3" d="M161.72,10.46h69.92c2.89,0,2.89,0,2.89,2.92q0,42.21,0,84.42c0,1.56-.31,2.12-2,2.09-5.91-.09-11.82,0-17.72,0l-123,0c-2.84,0-2.84,0-2.84-2.76q0-42,0-84c0-2,.36-2.66,2.54-2.65,23.38.09,46.76.06,70.13.06Z" transform="translate(-83.44 -4.29)"/><path class="cls-3" d="M335.24,99.77c-14.64,0-29.29,0-43.93,0-9.68,0-19.37-.11-29.05-.08-7.76,0-15.54-.13-23.31.2-1.32.06-1.71-.39-1.71-1.72q0-43,0-85.94c0-1.5.57-1.84,1.9-1.79,2,.08,4,0,6.06,0q67.55,0,135.08-.05c2,0,2.47.56,2.46,2.5q-.09,42.21,0,84.42c0,1.91-.42,2.54-2.47,2.53-15-.1-30-.06-45-.06Z" transform="translate(-83.44 -4.29)"/><path class="cls-3" d="M310,192q-35.28,0-70.56,0c-1.69,0-2.17-.43-2.17-2.15q.12-41.88.12-83.75c0-3.39,0-3.41,3.35-3.41l33.06,0q53.36,0,106.71-.09c1.86,0,2.27.52,2.27,2.26q-.08,42.65,0,85.28c0,1.93-.94,1.81-2.24,1.81Z" transform="translate(-83.44 -4.29)"/><path class="cls-3" d="M161.74,192c-23.45,0-46.9,0-70.36,0-2,0-2.33-.57-2.33-2.41q.09-42.1,0-84.21c0-2.73,0-2.73,2.81-2.73,28.57,0,57.14-.07,85.71.08,5.29,0,10.58-.24,15.88-.11,6.57.16,13.14,0,19.71,0s12.88,0,19.32,0c1.52,0,2.08.34,2.07,2q-.09,42.42,0,84.86c0,2-.5,2.49-2.48,2.48Q196.93,191.91,161.74,192Z" transform="translate(-83.44 -4.29)"/><path class="cls-4" d="M234,4.29h4a0,0,0,0,1,0,0v8.8a2,2,0,0,1-2,2h0a2,2,0,0,1-2-2V4.29A0,0,0,0,1,234,4.29Z" transform="translate(388.43 15.07) rotate(180)"/><path class="cls-4" d="M150.52,183.88h4a0,0,0,0,1,0,0v8.8a2,2,0,0,1-2,2h0a2,2,0,0,1-2-2v-8.8A0,0,0,0,1,150.52,183.88Z"/></svg>