<svg id="svg12291" xmlns="http://www.w3.org/2000/svg" viewBox="0 0 258.24 233.65" width="258.24px" height="233.65px"><defs><style>.cls-1{fill:#7a4122;}.cls-2{fill:#b59a63;}.cls-3{fill:#4a2816;}.cls-4{fill:#564924;}.cls-5{fill:#777e4a;}.cls-6{fill:#3e391a;}.cls-7{fill:#415a24;}.cls-8{fill:#81c32d;}.cls-9{fill:#52734d;}</style></defs><title>plant4</title><path id="path4456" class="cls-1" d="M184.3,152.61a81,81,0,1,1-81-81,81,81,0,0,1,81,81" transform="translate(0 0)"></path><path id="path4458" class="cls-2" d="M174,152.61a70.75,70.75,0,1,1-70.75-70.75A70.76,70.76,0,0,1,174,152.61" transform="translate(0 0)"></path><path id="path4460" class="cls-3" d="M170.13,152.61a66.88,66.88,0,1,1-66.87-66.88,66.87,66.87,0,0,1,66.87,66.88" transform="translate(0 0)"></path><path id="path4472" class="cls-4" d="M92,223.84a7.09,7.09,0,0,1-5.62-2.5A71.31,71.31,0,0,0,96,223a13.27,13.27,0,0,1-1.87.6,8.32,8.32,0,0,1-2,.25" transform="translate(0 0)"></path><path id="path4474" class="cls-5" d="M96,223a71.31,71.31,0,0,1-9.53-1.65,4.62,4.62,0,0,1-.71-4.19,67,67,0,0,0,16,2.32,8.9,8.9,0,0,1-5.23,3.28L96,223" transform="translate(0 0)"></path><path id="path4476" class="cls-4" d="M36.29,183.69c-1.6,0-2.8-1-3-3.85a6.51,6.51,0,0,1-.74-3,6.39,6.39,0,0,1,2.57-5.3,69.62,69.62,0,0,0,4.21,11.31,7,7,0,0,1-3,.85" transform="translate(0 0)"></path><path id="path4478" class="cls-5" d="M39.28,182.84a69.62,69.62,0,0,1-4.21-11.31,20.73,20.73,0,0,1,3.41-2.24,66.85,66.85,0,0,0,4.09,11.45,18.6,18.6,0,0,1-3.29,2.1" transform="translate(0 0)"></path><path id="path4480" class="cls-4" d="M27.46,162.28c-1.49,0-2.39-.71-2-2.76-.94-.51-1.18-1.8-.06-4.43,1.29-3.06,4.07-4.8,7.14-5.67,0,1.06-.07,2.12-.07,3.19a70.39,70.39,0,0,0,.47,8.12,16.41,16.41,0,0,1-5.52,1.55" transform="translate(0 0)"></path><path id="path4482" class="cls-5" d="M33,160.73a70.39,70.39,0,0,1-.47-8.12c0-1.07,0-2.13.07-3.19a19.45,19.45,0,0,1,3.91-.64c-.07,1.26-.11,2.54-.11,3.83,0,2.16.11,4.3.31,6.41-.94.45-2.28,1.1-3.71,1.71" transform="translate(0 0)"></path><path id="path4484" class="cls-4" d="M36.84,128.17l-1.09-1.29c-2.82-4.11-1.52-10.13,3.56-10.13a8.26,8.26,0,0,1,1.84.23c.28.08.56.15.83.25a71,71,0,0,0-5.14,10.94" transform="translate(0 0)"></path><path id="path4486" class="cls-5" d="M39.82,131.37a11.68,11.68,0,0,1-2.44-2.54l-.54-.66A71,71,0,0,1,42,117.23a15,15,0,0,1,3,1.4l.54.29a66.63,66.63,0,0,0-5.65,12.45" transform="translate(0 0)"></path><path id="path4490" class="cls-4" d="M61.7,95.35a7,7,0,0,1,2.72-1.88c-.92.6-1.83,1.23-2.72,1.88m-9.34-5c-.32,0-.64,0-1,0a80.67,80.67,0,0,1,51.86-18.76,81.76,81.76,0,0,1,15.52,1.48,2.05,2.05,0,0,0,.41.59,2.09,2.09,0,0,0,1.38.62,2.26,2.26,0,0,0,1.35-.54,79.91,79.91,0,0,1,8.7,2.58c-2.05,3.5-4.53,6.85-5.16,8.14-.11.22-.26.5-.41.84a71.06,71.06,0,0,0-48.78,1.91,13.59,13.59,0,0,0-3.2-.35c-5.85,0-12.27,3.08-17.89,3.39-.83,0-1.82.12-2.82.12" transform="translate(0 0)"></path><path id="path4492" class="cls-5" d="M61.18,100.63a4.07,4.07,0,0,1-.3-3.84,4.83,4.83,0,0,1,.82-1.44c.89-.65,1.8-1.28,2.72-1.88a24.3,24.3,0,0,1,2.94-1c2.3-.69,9.33-2.4,11.4-4.43L77,87.38c-.23-.07-.46-.14-.7-.19a71.06,71.06,0,0,1,48.78-1.91,31.69,31.69,0,0,0-1.51,3.58,67,67,0,0,0-62.36,11.77" transform="translate(0 0)"></path><path id="path4494" class="cls-4" d="M136.17,90a73.76,73.76,0,0,0-6.75-3.12l.46-.74c.8-1.27,3.28-5,5.38-5a1.88,1.88,0,0,1,1.55.89,3.6,3.6,0,0,1,0,2.87l.08.08c.69.93.11,3.06-.75,5" transform="translate(0 0)"></path><path id="path4496" class="cls-5" d="M134.34,93.37a65.61,65.61,0,0,0-7.35-3.3,15.57,15.57,0,0,0,2.43-3.22A73.76,73.76,0,0,1,136.17,90a20.82,20.82,0,0,1-1.83,3.4" transform="translate(0 0)"></path><path id="path4498" class="cls-6" d="M101.71,219.47a67,67,0,0,1-16-2.32,7.16,7.16,0,0,1,1-2.07,14.26,14.26,0,0,1,2.81-3,29.66,29.66,0,0,1,3-2.19c2.3-1.68,4.52-3.44,5.58-6.13,1.64-4.15,0-5.83-2.64-5.83a9.75,9.75,0,0,0-3.27.64,14.52,14.52,0,0,1-4.72.85c-2.59,0-5.09-.91-5.9-3.8a4.55,4.55,0,0,1-.1-2.43c-.23-2.92,2.56-3.85,5.34-3.85a13.29,13.29,0,0,1,2.22.19l1,.21c-2.48-1.21-3.82-5.21-4.34-7.71l-.29-.92-1.15-.27a3,3,0,0,1-1.79.59,4,4,0,0,1-2.51-1c-2-1.63-1.73-4.44-1.57-6.71,0-.7.15-1.86.25-3.19-1.41.77-2.33,2.77-2.63,4.85a9.11,9.11,0,0,0,0,2.56c1,2.34,2.69,4.38,3.72,7l.51,2.12.17.39c1.09,2.74,1.18,9.92-3.09,9.92a4.22,4.22,0,0,1-.6,0c-2.61-.38-3.85-2.74-4.43-5.9a17,17,0,0,1-1-4.51,3.52,3.52,0,0,1-2.85,2.18l-1.52-.26-1.52.58h-.24c-3.37,0-3.7-3.77-3.1-6.14.91-3.62,4.85-9.65,3.65-13.93-3.55,1.18-7.16,6.39-7.45,9.7-.14,1.79-.33,15.57-4.07,15.57A3.26,3.26,0,0,1,52,193.36a5.53,5.53,0,0,1-1.09-3.15c-1.22-2.27-.74-7.15-.33-9.22.93-4.6,4.7-7.05,6-11.15l.2-.77A48.62,48.62,0,0,1,51.24,172l-1.54.36a57.13,57.13,0,0,1-3.25,4.8,27.64,27.64,0,0,1-3.88,3.6,66.55,66.55,0,0,1-4.09-11.45c.7-.39,1.42-.76,2.14-1.12a7.52,7.52,0,0,1,2.3-1.88,13.7,13.7,0,0,1,2.37-1l.89-.9a6,6,0,0,0,1.43-3.22c-1.31-2-4.26-3.11-7-3.11a8.08,8.08,0,0,0-3.06.56l-.84.39c-.2-2.11-.31-4.25-.31-6.41,0-1.29,0-2.57.11-3.83.45,0,.89,0,1.34,0a19.94,19.94,0,0,1,2.07.1c7.44.75,9.06,3.8,13.92,8.86a7.8,7.8,0,0,0,5.41,2.61c1.66,0,2.93-.84,3-2.35l-1.15-1.73c-.53-.66-1.71-2.15-2.84-3.88-2.16-1.07-5.31-2.61-5-5.07a2.1,2.1,0,0,1,1.92-2.06l-.29-1.17a11.3,11.3,0,0,1-5.11,1.85H49.5c-2-.15-3.66-1.57-3.62-3.35a2.66,2.66,0,0,1-.21-4.19,5.45,5.45,0,0,1,4.4-1.61c.48,0,1,0,1.45,0s1,.05,1.45.05c2.28,0,4.44-.5,5.84-3.77a5,5,0,0,0,.48-3.29,4.9,4.9,0,0,0-2.36-.5,15.68,15.68,0,0,0-6.38,1.64,14.54,14.54,0,0,1-6.39,1.9,7.11,7.11,0,0,1-4.34-1.44,66.63,66.63,0,0,1,5.65-12.45c.84.5,1.66,1.06,2.47,1.63,2.39,1.59,4.83,3.06,7.74,3.12h.25c5.82,0,5.47-3.9,2.54-7.37-2.34-2.76-4.93-8.07-1-11l2.24-1a3.54,3.54,0,0,1,1.44-.34c2.54,0,4.11,3.4,4.64,6.14.84,4.33-.15,8.21,2.08,11.86a7.56,7.56,0,0,0,1.67.19c1.89,0,3.71-.76,3.49-3.08s-3.38-3.09-4.43-5c-2-3.61,0-5.79,2.45-5.79l.37,0a3.84,3.84,0,0,1,.76-.08c1.81,0,3.86,1.24,4.75,4.08.78,2.44.49,7.75,2.19,10.1a2.93,2.93,0,0,0,1.11.21,5.5,5.5,0,0,0,2.18-.53c7.5-3.24-2.09-7.14-2.8-10.68a4.37,4.37,0,0,1,4.09-5.08H86c2.53.89,3.48,4.86,3.8,7.09.2,1.25,1,7.17,2.73,9.63a1.47,1.47,0,0,0,.54.1c.72,0,1.55-.51,2.49-1.75,2.17-2.87-6.82-12.31.43-13.5l.92,0,.2,0a3.55,3.55,0,0,1,.64-.06c2.94,0,3.39,4,3.53,6.4.18,3.1-.41,4.81,1.46,6.47a17.7,17.7,0,0,0,9,2.12,54.58,54.58,0,0,0,9.81-1.17c1.45-.27,3.74-1,6.15-1.59-7.27-6.26-17.38-12.44-20.87-13.75a29.59,29.59,0,0,0-10.09-1.61h-.13a22.1,22.1,0,0,0-4.29.58,23.11,23.11,0,0,1-4,.56l-.51,0c-2.52-.19-5-1.61-4.82-4.18a3.45,3.45,0,0,1-1.17-4.56l.07-.14c-4.19,3.92-7.39,8.25-14.16,8.57h-.41c-2.74,0-5.28-1.27-5.17-4a3.9,3.9,0,0,1-.93-.88,67,67,0,0,1,62.36-11.77,11.79,11.79,0,0,0-.4,1.33l.13.17a2.36,2.36,0,0,0,1.61.72,3.31,3.31,0,0,0,2.11-1,65.61,65.61,0,0,1,7.35,3.3,4.18,4.18,0,0,1-.35.46c-2,2.29-3.7,3.56-4.27,5.33a14.9,14.9,0,0,0,1,2.37c1.7,3.2,3.71,6,5,9.66.31.9,1,3,1.6,5.58,3.94-3.43,7.34-7.43,9.08-11.67.16-1.12.27-2.23.33-3.34a66.9,66.9,0,0,1-17.92,112.69,11.75,11.75,0,0,1,1.3-1.4,5.66,5.66,0,0,0-1.5,1.48,66.66,66.66,0,0,1-19.63,4.71,3.85,3.85,0,0,1-.64-.91c-2.1-4.1,3-7.6,1.34-11.76a4.9,4.9,0,0,1-2.68-2.23l-1.27-1.63-.65-.14c-1.86,1.59-2.28,6.08-2,8.58.38,3.32.17,6.18-1.34,8.32" transform="translate(0 0)"></path><path id="path4500" class="cls-7" d="M84,126.86c8.88-3.48,24.53-15.23,22-26.57-.7-3.15-3.5-4.92-4.56-7.78-.83-2.21-.72-7.1,3-5.65,2.47,1,5.11,14.9,9.26,7.76,1.4-2.43-.46-4.82-1.7-6.81a28.9,28.9,0,0,1-3.83-9.94c-.5-2.44-1.82-7,.27-9.08,2.55-2.54,3.9.19,4.79,2.55,1.43,3.75,1.81,12.93,6.51,14.56,7.78,2.68,4.11-9.53,2-12.39-3.06-4.21-6.86-12.42-1.8-17.18,5.44-5.11,5.52,7,6.15,9.89,2.14,9.82,7.23-.07,10.37-3.68,3.29-3.78,13.51-7.12,9.8,1.5-2.4,5.6-9.85,7.84-13.43,12.57-1.72,2.28-2.7,5.3.53,6.93,3.57,1.8,6.74-1.73,9.87-2.65,2.7-.81,6.67-1,6.24,2.94-.32,3.08-4.12,3.74-6.67,4.71-3,1.16-15.88,2.95-17,5.88-1.94,5.14,14.65,1.72,12.38,7.86-1.38,3.75-14.11-.12-16.74-.31-1.75-.13-7.2-.58-7.89,1.2-1.2,3.14,4,3.69,5.61,4s7.31,1.48,5.6,4.28c-1,1.59-6.73,1-8.15.51-4.36-1.48-6-3.42-9.68.92-2.06,2.42-3.63,5-6.23,7.17-2.33,2-16.24,13-16,6.47" transform="translate(0 0)"></path><path id="path4502" class="cls-7" d="M88,127.4c11.22,2.28,26.52,1.42,35.74-6.28a45.11,45.11,0,0,0,6.27-6.69c1.53-2,3.28-6.41,5.41-7.64,4.84-2.77,1.92,3.06.49,5-1.55,2.11-4.65,6.39-.64,7.24,7.64,1.62,6.14-11.74,8.32-15.43,1.26-2.15,5.7-6.47,6.14-1.94.27,2.75-5.82,7.22-3.5,10s6.91-1.88,7.73-3.92c1.22-3,.25-6.81.37-10.08.12-2.7.55-9.27,3.73-10.59,4.54-1.89,2,4.72,1.35,6.75-1.85,5.69-1.88,10.58,5.18,8.14,4.09-1.41,8.66-5.21,13.3-4.56,1.93.26,4.27,1.14,3.29,3.83-.7,1.9-4.68,2.47-6.39,2.78a40.73,40.73,0,0,0-14.3,5.46c-.09,1.08,15.47,11,7.07,11-4.69,0-7.91-6-13.18-5.85-10.27.37,6.73,6.14,5.32,9.67-1,2.43-5.77,1.77-7.51.8-2.63-1.45-3.11-5.66-5.78-6.57-8.19-2.8-.86,11-2,13.08-3.14,5.4-8.33-6.42-11.88-7.42-5-1.42-11.86,3.12-16.56,4.38-5.93,1.61-11.89,1.07-18.1,1.52-3,.23-10.91,1.75-10.87-2.94l.31.66" transform="translate(0 0)"></path><path id="path4504" class="cls-7" d="M87.94,128.6c6.33,3.1,14,6.3,18,13.12,2.56,4.3,2.65,9.34,2.53,14.16-.07,2.43-1.39,11.79,3.45,9.92,4.2-1.63,1.65-11.59,1.61-14.88,0-2.38.47-5.83,3.58-3.47,1.75,1.33,1.44,5.78,1.32,7.87-.28,4.47-5.11,12.88-3,17.09,4.37,8.73,7.64-5.52,7.72-8.52.06-2.32-1.06-6.13,1.28-7.59,2.8-1.74,5.59,1.81,6.3,4.28,1.87,6.48-3.82,13.67-6.61,18.93-1.09,2-3.68,7.76-2.12,10.13,2.25,3.42,6.33-.34,7.69-2.63,1.77-3,1.95-19.61,6.78-18.93,5,.7,1.25,16.15,1.83,19.17a5.37,5.37,0,0,0,8.76,3.19c3.9-2.94.21-9.27-1-12.86-3.88-11.51,7.45-2.41,12.67-1.15,3.27.79,10.27,2,13-.82,3.09-3.16-1.57-7.64-4.78-8.51-7.48-2-12.12,7.31-19.69,2.38s2.11-8,6.68-8.75c4.29-.73,19.26-7.86,9.16-12.47-4.26-1.93-8.55,1-12,3.14-2.89,1.81-7.94,7.87-11.71,7.25-3.52-.57-4.47-5.31-2.55-7.59,3.45-4.1,10.22-3.54,14.09-7,3.7-3.31,2-7.87-3-7.87-4.29,0-7.6,4.06-10.71,6.5s-16.79,7.76-11.16-1.11c2.26-3.54,6.08-2.94,8.58-5.32,2.92-2.77-.91-5.08-3.92-4.26-3.29.88-12,12.08-15.56,7.08-3.38-4.69,13.39-9.34,6.4-13-4.81-2.5-9.89,5.79-13.38,6.86-5.64,1.73-10.53-1.41-15-3.55-1.63-.81-3.41-2.06-5-1.2l1.46,1" transform="translate(0 0)"></path><path id="path4506" class="cls-7" d="M88.83,128.59c.16,2.44,1.34,4.82,1.78,7.32s.52,5,.81,7.65a66.32,66.32,0,0,1,.08,16c-1.44,10.66-10.32,17.53-20.28,19.1-1.9.29-8.6.49-7.35,4,1,2.8,7.62,1.74,9.67,1.36,6.54-1.22,11.21-7.12,16.34-11.31,3.65,2.67,2.53,9.48-.36,12.2C85.1,189,80.3,187.74,75.25,190c-6,2.7-1.44,9.48,3.94,6.87,3.29-1.61,7.89-8.14,12-7.58,7.64,1-4.13,10.64-6.12,12.23-3,2.36-11,10-4.14,12.64,4.9,1.9,7.63-5.25,9.77-8.48,1.3-2,2.87-5.19,5.07-2.42,1.74,2.18.47,5.78-1,7.62-2.33,3.06-10.31,8.18-5,12.58,4.55,3.77,10.92-.24,12.21-5,1.12-4.12.67-11.34-1.24-15-.89-1.69-4.2-4-4.3-5.61-.29-4.41,3.49-.57,4.6.84,3.19,4,8.65,7.72,14.13,6.69,3-.56,4.82-2.74,2.84-5.57-1.69-2.42-5.68-2.72-8.18-4-3.93-2-11.48-4.1-12.06-9.22-.94-8.3,9.7,0,12.81.34,6.45.77,13.21-5.63,5.84-10.31-5.77-3.67-10.56.45-16.33-.64-2.17-.41-4.65-2.17-4.9-4.68-.41-3.83,2.88-3.45,5.65-3.65,2-.15,5.88-.16,7-1.75,1.55-2.2-.39-4.81-2.35-5.41-3.83-1.15-7.53,3.13-9-2-1-3.59,0-8.41-.28-12.15-.43-5.63-.7-16.45-7.73-18l0,.92" transform="translate(0 0)"></path><path id="path4508" class="cls-7" d="M83.73,125.51C84,137,72.34,147.83,63.13,153.3c-8.26,4.92-21.13,10.55-27.92,1-1.62-2.28-2.3-12.14-6.49-11.37-5.4,1,1.61,9.55,3.09,11.29,4.78,5.58-1.48,7.81-5.69,3.61s-5.82-6.94-12.35-7.45c-4.42-.34-10.58.92-12.52,5.77-3.28,8.23,7.78,1.66,10,.66,4.34-1.94,12.64,1.36,8.32,7.05-2.79,3.68-12.1,5.09-11.69,11.15.6,8.38,9.42.47,11.55-2.2,1.86-2.33,3.33-6.06,5.71-7.8,3.17-2.3,4.59.06,3.63,3.38-1.05,3.62-4.29,5.83-5,9.88-.35,2-.73,7,.84,8.6,5.26,5.27,5.07-10.81,5.18-12.63.29-4.56,7.64-13.38,11.06-6.14,2.06,4.35-1.44,20.9,5.41,21.72,4.28.52,4.07-6.23,3-8.72-1.57-3.68-4.66-6-4.12-10.45.38-3.1,2.32-6.11,5.47-3.77,2.79,2.09,2.47,6.4,3.11,9.29s2.75,8.61,6.86,6.7c4.28-2,2.34-7-.15-9.12-3.16-2.71-10-11.19-.65-10.61,4.58.29,10.67,9.1,15.94,5.76S66.39,162.4,65,160.66l-1-2.4c3.79-1.33,12.8,1,15.72-1.4s-3.35-2.38-4.61-3.1c-2.81-1.62-2.16-3.89-.12-5.81,3.73-3.52,8.64-6.21,11.42-11.14,1.12-2,2.27-13.27-2.27-10.67" transform="translate(0 0)"></path><path id="path4510" class="cls-7" d="M96.3,131.28c2.12-6-20.3-19.81-25.56-21.62a25.58,25.58,0,0,0-8.85-1.2c-2.65,0-5.58,1.27-7.81,1.16-2.6-.13-5.24-1.76-4-4.85,1.5-3.73,4.08-.61,7.11-1.58,2.28-.73,4.19-3.43,2.09-5.35s-6,.4-7.83,1.77c-5.22,3.9-7.64,9.64-14.93,10.15-2.94.21-5.85-1.25-4.71-4.84.77-2.41,3.44-3.22,5.57-3.91,3.15-1,16.62-4.55,6.89-7.32-6-1.69-13,2.47-19,3-2.25.17-5.91.69-7-1.69-1.49-3.23,1.94-5,4.38-5.33,4.27-.57,13,1.43,15.53-3.45,2.29-4.49-7.95-10.28-10.56-13.27-3.71-4.24-2.63-11.94,3.55-7C34.72,68.7,36.88,74.52,40,78c1.37,1.54,4.2,4.87,6.47,4.72,3.52-.23,2.72-4.17,3-6.78.26-2.18.11-6.87,2.92-7.57,3.37-.85,3.36,3.65,3.34,6-.08,5.43-2.9,10.08-3.44,15.26-.15,1.44-.33,5.32,2.49,4.47C56.62,93.54,57,88.46,57.5,87c.81-2.46,1.66-4.75,3.94-1.59,1.58,2.2.21,4.83.06,7.14-.25,4.06,2.26,10.2,7.23,8.94.76-1.65.44-6.06,3.09-6,2.88,0,2.23,4.44,2.26,6.3.15,6.35,3,8.57,8.4,11.45,4,2.12,8.94,4,12.42,6.85,2.39,2,5.2,11.5.72,11.89" transform="translate(0 0)"></path><path id="path4512" class="cls-7" d="M97.49,134.16c-1.08-3.62-7.78-6.2-10.82-6.88-8.69-2-24.31-5.56-27.17,7.09-.62,2.72-1.4,7.72-5,8A3.52,3.52,0,0,1,51,137.79c.6-2,3-2.6,3.55-4.63S54,128.07,52,127.5s-4.5,1.92-5.62,3.64c-2,3.11-.44,14.3-6.07,13.82-2-.18-3.76-3.17-3.46-5.13s2.35-2.87,3.55-4.32c3.9-4.7-1-10.41-4.4-6.09-1.32,1.67-1.2,5.22-2,7.15-1.1,2.57-3,4-5.27,5.47-1.9,1.25-4.93,3.5-7.22,3.37S17.06,143,19,140.65c3.12-3.86,8.9,1.42,11.37-5.22s-5.22-4.8-8.28-3.14c-4.55,2.46-8.52,3-12-2.16-2.85-4.21-1.3-10.72,4.49-9.37,4.51,1.06,8,6,12.85,5.95,5.33,0,5-3.71,2.28-6.95-2.1-2.53-4.49-7.43-1.09-10.23s5.72,1.21,6.4,4.32c.89,4-.11,7.64,2.45,10.94,2,.64,5.4.45,5.06-2.67-.22-2-3-2.81-4-4.54-3.22-5.78,4.26-7.81,6.26-2,1.09,3.18.19,12.06,6,9.2,6.48-3.18-2-6.63-2.68-9.92-.56-2.66,1.85-5.55,4.48-4.69,2.23.72,3.14,4.18,3.47,6.11.31,1.72,2.13,13.62,6.2,7.59,1.83-2.73-6.24-11.38.07-12.64,3.07-.61,3.6,3.26,3.77,5.46.26,3.08-.41,4.6,2.22,6.21,5.06,3.07,11.29,1.79,16.65.6,3.32-.75,11.69-4.87,13.76.22,1.08,2.63,1.53,8.82,0,11.09l-1.56-1.62" transform="translate(0 0)"></path><path id="path4514" class="cls-8" d="M94.9,128.62c2.11-6-20.31-19.81-25.57-21.63a25.61,25.61,0,0,0-8.85-1.2c-2.64,0-5.59,1.28-7.81,1.16-2.6-.13-5.24-1.75-4-4.85,1.49-3.72,4.08-.6,7.1-1.58C58,99.8,60,97.1,57.86,95.17s-6,.41-7.84,1.77c-5.21,3.9-7.62,9.64-14.91,10.15-3,.21-5.87-1.25-4.73-4.84.77-2.41,3.44-3.22,5.58-3.91,3.15-1,16.62-4.55,6.88-7.32-6-1.69-13,2.47-19,3-2.24.17-5.9.69-7-1.69-1.49-3.22,1.94-5,4.38-5.32,4.26-.58,13,1.42,15.53-3.46C39,79,28.79,73.22,26.19,70.25c-3.71-4.25-2.63-12,3.55-7,3.57,2.82,5.72,8.65,8.83,12.13,1.36,1.53,4.21,4.86,6.48,4.72,3.51-.24,2.71-4.17,3-6.78.25-2.18.11-6.88,2.91-7.57,3.37-.85,3.37,3.65,3.33,6C54.22,77.15,51.41,81.8,50.87,87c-.16,1.44-.33,5.32,2.49,4.47,1.86-.57,2.26-5.65,2.73-7.07.8-2.45,1.65-4.75,3.94-1.58,1.59,2.19.21,4.82.07,7.13-.25,4.07,2.25,10.2,7.21,9,.76-1.66.46-6.06,3.11-6,2.87,0,2.21,4.45,2.26,6.31.13,6.34,3,8.56,8.38,11.44,4,2.12,9,4,12.43,6.85,2.38,2,5.19,11.5.72,11.89" transform="translate(0 0)"></path><path id="path4516" class="cls-8" d="M87.81,127.42c.15,2.44,1.33,4.81,1.77,7.31s.52,5,.82,7.66a66.32,66.32,0,0,1,.07,16C89,169,80.15,175.91,70.2,177.48c-1.91.3-8.6.49-7.35,4,1,2.8,7.61,1.76,9.66,1.37,6.55-1.23,11.22-7.13,16.34-11.3,3.67,2.66,2.55,9.46-.34,12.19-4.44,4.16-9.24,2.88-14.28,5.14-6,2.7-1.45,9.47,3.94,6.86,3.29-1.6,7.89-8.13,12-7.58,7.63,1-4.14,10.66-6.13,12.24-3,2.35-11,10-4.14,12.63,4.92,1.91,7.64-5.24,9.78-8.47,1.3-2,2.87-5.2,5.07-2.43,1.75,2.2.46,5.78-1,7.62-2.34,3.06-10.32,8.18-5,12.59,4.56,3.77,10.92-.24,12.22-5,1.13-4.11.67-11.33-1.25-15-.88-1.71-4.19-4-4.3-5.63-.29-4.4,3.49-.55,4.6.85,3.19,4,8.66,7.72,14.14,6.69,3-.56,4.81-2.74,2.83-5.57-1.69-2.42-5.68-2.72-8.17-4-3.94-2-11.48-4.11-12.06-9.21-.93-8.31,9.69,0,12.81.33,6.45.77,13.2-5.62,5.83-10.32-5.76-3.66-10.56.47-16.32-.63-2.18-.41-4.65-2.17-4.91-4.68-.4-3.83,2.89-3.46,5.67-3.65,1.95-.14,5.86-.15,7-1.75,1.55-2.19-.4-4.81-2.36-5.4-3.82-1.15-7.52,3.12-9-2-1-3.59,0-8.4-.29-12.15-.42-5.63-.7-16.45-7.73-18l0,.92" transform="translate(0 0)"></path><path id="path4518" class="cls-8" d="M86.34,125.81c8.88-3.48,24.54-15.23,22-26.57-.7-3.15-3.5-4.92-4.56-7.78-.83-2.21-.72-7.1,2.94-5.65,2.48,1,5.12,14.89,9.27,7.75,1.4-2.42-.47-4.82-1.7-6.81a28.35,28.35,0,0,1-3.83-9.94c-.5-2.42-1.82-7,.27-9.07,2.54-2.54,3.9.2,4.79,2.54,1.42,3.76,1.81,12.94,6.52,14.56,7.76,2.7,4.1-9.53,2-12.37-3-4.22-6.85-12.44-1.79-17.19,5.44-5.11,5.53,7,6.15,9.88,2.15,9.84,7.23,0,10.37-3.67,3.28-3.78,13.51-7.12,9.8,1.5-2.41,5.6-9.85,7.84-13.43,12.56-1.72,2.28-2.71,5.3.53,6.93,3.57,1.81,6.73-1.71,9.87-2.65,2.69-.79,6.66-1,6.24,3-.33,3.08-4.13,3.74-6.66,4.7-3,1.16-15.89,3-17,5.88-1.95,5.15,14.64,1.73,12.38,7.86-1.39,3.75-14.11-.11-16.74-.3-1.75-.14-7.2-.59-7.9,1.2-1.19,3.14,4,3.68,5.62,4s7.31,1.48,5.6,4.28c-1,1.59-6.74,1-8.16.53-4.35-1.49-6-3.43-9.68.91-2.05,2.42-3.62,5-6.22,7.16-2.33,2-16.24,13-16.06,6.47" transform="translate(0 0)"></path><path id="path4520" class="cls-8" d="M88.16,126c11.24,2.26,26.53,1.42,35.75-6.3a43.09,43.09,0,0,0,6.27-6.68c1.54-2,3.28-6.41,5.41-7.63,4.85-2.78,1.91,3.06.49,5-1.56,2.11-4.64,6.39-.63,7.25,7.63,1.62,6.13-11.76,8.31-15.45,1.27-2.13,5.7-6.46,6.14-1.93.27,2.76-5.81,7.22-3.5,10s6.91-1.89,7.73-3.91c1.21-3,.25-6.82.38-10.1.1-2.7.54-9.25,3.72-10.58,4.54-1.9,2,4.73,1.36,6.75-1.86,5.69-1.89,10.57,5.17,8.14,4.09-1.41,8.66-5.21,13.31-4.57,1.92.27,4.26,1.14,3.27,3.85-.69,1.89-4.67,2.46-6.39,2.77a40.8,40.8,0,0,0-14.3,5.46c-.08,1.08,15.49,11,7.08,11-4.7,0-7.91-6.06-13.18-5.85-10.27.38,6.74,6.14,5.32,9.67-1,2.44-5.78,1.78-7.52.8-2.63-1.45-3.1-5.65-5.77-6.57-8.2-2.8-.85,11-2,13.09-3.15,5.4-8.33-6.42-11.87-7.43-5-1.42-11.88,3.11-16.57,4.39-5.93,1.6-11.89,1.06-18.1,1.52-3,.22-10.9,1.74-10.87-3l.32.68" transform="translate(0 0)"></path><path id="path4522" class="cls-8" d="M88.37,128.33c6.45,3.17,14.25,6.44,18.4,13.41,2.62,4.4,2.72,9.53,2.59,14.46-.07,2.48-1.41,12,3.52,10.14,4.29-1.68,1.69-11.85,1.64-15.21,0-2.43.49-5.95,3.66-3.55,1.79,1.37,1.48,5.91,1.35,8-.27,4.56-5.22,13.15-3.07,17.45,4.46,8.92,7.8-5.64,7.88-8.7.07-2.38-1.08-6.27,1.32-7.75,2.85-1.78,5.69,1.84,6.43,4.37,1.91,6.62-3.91,13.95-6.76,19.32-1.11,2.1-3.76,7.94-2.16,10.37,2.29,3.49,6.47-.37,7.86-2.7,1.81-3,2-20,6.92-19.34,5.14.73,1.27,16.51,1.86,19.58a5.49,5.49,0,0,0,9,3.26c4-3,.2-9.45-1-13.12-4-11.77,7.6-2.46,12.94-1.18,3.33.8,10.48,2,13.27-.84,3.16-3.22-1.6-7.81-4.89-8.7-7.63-2.06-12.36,7.47-20.11,2.44s2.16-8.14,6.83-8.94c4.38-.74,19.67-8,9.36-12.73-4.36-2-8.74,1-12.28,3.2-3,1.85-8.1,8-12,7.41-3.59-.6-4.55-5.43-2.59-7.76,3.53-4.19,10.42-3.61,14.38-7.14,3.79-3.38,2.08-8-3-8-4.38,0-7.77,4.15-10.94,6.63s-17.16,7.94-11.4-1.12c2.3-3.63,6.2-3,8.76-5.44,3-2.84-.93-5.19-4-4.36-3.36.91-12.21,12.34-15.9,7.24-3.45-4.79,13.68-9.54,6.54-13.24-4.92-2.53-10.1,5.93-13.66,7-5.77,1.77-10.76-1.43-15.29-3.63-1.66-.81-3.49-2.09-5.13-1.22l1.5,1" transform="translate(0 0)"></path><path id="path4524" class="cls-8" d="M83.08,123.33c.28,11.51-11.39,22.31-20.6,27.8-8.26,4.92-21.14,10.55-27.92,1-1.62-2.29-2.3-12.14-6.48-11.38-5.4,1,1.59,9.56,3.08,11.3,4.78,5.57-1.48,7.8-5.7,3.61s-5.82-7-12.35-7.46C8.69,147.85,2.53,149.11.6,154c-3.28,8.24,7.78,1.66,10,.67,4.33-2,12.62,1.35,8.31,7-2.78,3.68-12.11,5.09-11.68,11.15.58,8.38,9.42.47,11.55-2.19,1.85-2.34,3.31-6.07,5.69-7.8,3.17-2.31,4.61.05,3.64,3.38-1,3.61-4.29,5.82-5,9.87-.36,2-.73,7,.84,8.61,5.26,5.26,5.07-10.81,5.18-12.64.29-4.56,7.63-13.37,11.06-6.14,2.06,4.35-1.44,20.9,5.41,21.72,4.28.52,4.08-6.22,3-8.71-1.57-3.69-4.66-6-4.11-10.45.37-3.1,2.31-6.11,5.46-3.76,2.78,2.06,2.47,6.38,3.11,9.27s2.75,8.61,6.85,6.7c4.29-2,2.35-7-.14-9.12-3.16-2.7-10-11.19-.65-10.61,4.59.3,10.67,9.1,15.94,5.77s-9.36-6.49-10.78-8.23l-1-2.4c3.8-1.33,12.8,1,15.72-1.39s-3.35-2.39-4.6-3.11c-2.81-1.62-2.16-3.89-.12-5.82,3.73-3.51,8.63-6.21,11.42-11.13,1.12-2,2.26-13.26-2.27-10.66" transform="translate(0 0)"></path><path id="path4526" class="cls-8" d="M96.48,132.7c-1.08-3.38-7.78-5.78-10.81-6.41-8.7-1.82-24.31-5.16-27.18,6.67-.62,2.54-1.42,7.22-5,7.47A3.33,3.33,0,0,1,50,136.17c.6-1.9,3-2.44,3.55-4.34S53,127.08,51,126.54s-4.51,1.82-5.63,3.41c-2,2.92-.46,13.38-6.09,12.93-2-.15-3.75-2.94-3.45-4.78s2.34-2.68,3.55-4c3.91-4.4-1-9.73-4.39-5.68-1.32,1.56-1.2,4.88-2,6.69-1.12,2.41-3,3.74-5.29,5.12-1.9,1.16-4.93,3.28-7.22,3.17S16,141.11,18,138.89c3.12-3.61,8.89,1.32,11.37-4.9s-5.21-4.47-8.27-2.92c-4.56,2.31-8.53,2.8-12-2-2.84-3.92-1.28-10,4.51-8.75,4.5,1,8,5.56,12.84,5.54,5.33,0,5-3.49,2.29-6.5-2.1-2.38-4.49-7-1.08-9.57s5.72,1.12,6.4,4c.87,3.75-.13,7.14,2.43,10.22,2,.6,5.41.41,5.07-2.5-.22-1.9-3-2.63-4-4.24-3.2-5.4,4.28-7.32,6.28-1.88,1.08,3,.17,11.26,6,8.59,6.48-3-2-6.19-2.67-9.28-.56-2.47,1.85-5.18,4.49-4.39,2.23.68,3.13,3.9,3.46,5.72.3,1.61,2.1,12.73,6.18,7.07,1.83-2.54-6.23-10.61.09-11.79,3.08-.59,3.59,3,3.77,5.08.25,2.89-.42,4.31,2.2,5.8,5,2.87,11.29,1.67,16.65.53,3.32-.69,11.7-4.56,13.76.2,1.07,2.45,1.51,8.22,0,10.37l-1.56-1.52" transform="translate(0 0)"></path><path id="path4528" class="cls-7" d="M96.75,133.93c-.14-9.54-5.66-28.33-17.16-29.93-3.19-.45-5.84,1.55-8.89,1.55-2.36,0-6.91-1.82-4.26-4.75,1.79-2,15.75.44,10.51-6-1.77-2.17-4.67-1.26-7-.8a28.68,28.68,0,0,1-10.65.1c-2.46-.38-7.19-.75-8.41-3.43-1.48-3.27,1.55-3.59,4.07-3.6,4,0,12.75,2.85,15.92-1,5.24-6.33-7.5-7.19-10.88-6.26C55,81.26,46,81.93,43.29,75.53c-2.87-6.89,8.54-2.7,11.42-2.28,10,1.43,2.48-6.8.2-11-2.39-4.4-1.94-15.15,4.84-8.66,4.39,4.22,3.89,12,7.06,17,1.53,2.42,4,4.39,6.67,1.93,3-2.71.76-6.91,1-10.17.2-2.8,1.38-6.6,5-4.81,2.77,1.39,2.06,5.17,2.07,7.89,0,3.26-2.8,15.91-.45,18,4.13,3.61,6.74-13.12,11.7-8.86,3,2.62-5,13.19-6.15,15.59-.73,1.59-3.08,6.53-1.64,7.8,2.52,2.22,4.85-2.44,5.7-3.85s3.94-6.34,6-3.74c1.15,1.46-1.43,6.65-2.37,7.81-2.92,3.56-5.32,4.42-2.54,9.39,1.55,2.77,3.36,5.13,4.53,8.34,1,2.88,6.44,19.75.43,17.3" transform="translate(0 0)"></path><path id="path4530" class="cls-7" d="M98.68,130.35c6-9.73,10.62-24.35,6.63-35.68a43.55,43.55,0,0,0-4.06-8.21C100,84.33,96.4,81.14,96,78.71c-.91-5.51,3.53-.72,4.84,1.29,1.44,2.21,4.37,6.59,6.57,3.14,4.19-6.59-8.85-9.86-11.54-13.2C94.3,68,91.8,62.33,96.2,63.5c2.68.73,4.73,8,8.12,6.78s.65-7.13-1-8.61c-2.38-2.19-6.3-2.62-9.33-3.89-2.48-1.05-8.47-3.75-8.6-7.19-.18-4.93,5.13-.24,6.81,1.09,4.67,3.74,9.23,5.47,9.43-2,.11-4.32-1.85-9.93.39-14,.91-1.71,2.55-3.59,4.74-1.73,1.54,1.32.68,5.24.36,7a40.79,40.79,0,0,0,.1,15.3c1,.46,15.69-10.65,12.79-2.76-1.62,4.41-8.44,5.29-10.1,10.29-3.24,9.75,8.11-4.16,10.93-1.59,1.93,1.75-.37,6-1.89,7.32-2.28,2-6.39.92-8.18,3.1-5.49,6.69,10,4.67,11.54,6.5,4,4.83-8.94,5.56-11.11,8.52-3.09,4.18-1.25,12.21-1.71,17-.57,6.12-3.17,11.51-4.92,17.48-.85,2.9-2.18,10.83-6.57,9.15l.74-.06" transform="translate(0 0)"></path><path id="path4532" class="cls-7" d="M99.77,130.82c5.13-4.84,10.79-10.87,18.62-12.29,4.91-.89,9.67.79,14.14,2.6,2.25.91,10.56,5.43,10.5.25-.05-4.52-10.28-5.61-13.37-6.73-2.24-.8-5.3-2.49-2-4.57,1.86-1.16,5.92.67,7.83,1.53,4.09,1.82,10.28,9.3,15,8.8,9.7-1-2.5-9.09-5.28-10.21-2.15-.88-6.11-1.15-6.66-3.87-.64-3.22,3.65-4.58,6.23-4.39,6.72.51,11.45,8.37,15.39,12.82,1.54,1.74,6,6.17,8.76,5.55,4-.91,1.9-6.06.24-8.14-2.16-2.69-17.69-8.69-15.37-13,2.44-4.46,15.57,4.49,18.6,5a5.37,5.37,0,0,0,6.06-7.09c-1.38-4.68-8.6-3.44-12.39-3.56-12.15-.41.36-7.82,3.37-12.27,1.88-2.78,5.43-8.92,3.77-12.46-1.87-4-7.7-1.21-9.65,1.49-4.52,6.3,2.61,13.9-4.67,19.28s-6.72-4.78-5.85-9.32c.83-4.28-.61-20.8-8.46-13-3.3,3.31-2.1,8.34-1.27,12.36.67,3.34,4.58,10.19,2.67,13.51-1.77,3.09-6.53,2.32-8-.28-2.63-4.68.27-10.81-1.61-15.64-1.8-4.63-6.65-4.67-8.4,0-1.5,4,1.13,8.54,2.32,12.3s1.39,18.45-4.95,10c-2.52-3.34-.62-6.71-2-9.89-1.57-3.7-5.07-.92-5.37,2.18-.32,3.39,7.12,15.43,1.18,17-5.58,1.53-4.05-15.81-9.9-10.53-4,3.64,2,11.29,1.74,14.94-.36,5.89-5,9.37-8.57,12.77-1.32,1.25-3.11,2.47-2.87,4.28l1.45-1" transform="translate(0 0)"></path><path id="path4534" class="cls-7" d="M97.87,132.7c2.33.71,5,.43,7.47.9s4.9,1.27,7.45,1.92a66,66,0,0,1,15,5.54c9.48,5.08,12.81,15.8,10.78,25.67-.39,1.89-2.56,8.24,1.13,8.29,3,0,4.32-6.53,4.67-8.58,1.16-6.56-2.73-13-4.86-19.27,3.78-2.49,9.77.94,11.3,4.61,2.34,5.6-.54,9.65-.19,15.17.42,6.58,8.36,4.68,7.8-1.29-.33-3.64-4.84-10.24-2.87-13.93,3.64-6.8,8.52,7.6,9.32,10,1.16,3.59,5.49,13.8,10.38,8.31,3.5-3.94-2.23-9-4.51-12.13-1.4-1.91-3.86-4.51-.5-5.6,2.67-.86,5.57,1.6,6.81,3.57,2,3.26,4,12.53,10,9.08,5.13-2.94,3.6-10.31-.41-13.19-3.45-2.5-10.37-4.6-14.5-4.1-1.89.23-5.22,2.53-6.77,2.07-4.23-1.28.7-3.48,2.4-4,4.9-1.57,10.27-5.4,11.23-10.9.52-3-.88-5.47-4.23-4.61-2.86.74-4.53,4.37-6.59,6.27-3.22,3-7.87,9.31-12.86,8.06-8.1-2,3.37-9.09,4.8-11.87,3-5.77-.63-14.34-7.61-9.08-5.45,4.1-3.27,10-6.32,15.06-1.15,1.89-3.66,3.59-6.1,3-3.73-1-2.23-3.9-1.44-6.58.57-1.89,1.92-5.55.82-7.16-1.51-2.22-4.65-1.33-5.89.31-2.41,3.17.29,8.14-5.05,7.73-3.72-.29-7.87-2.94-11.47-4-5.43-1.58-15.65-5.11-19.57.93l.85.35" transform="translate(0 0)"></path><path id="path4536" class="cls-7" d="M93.8,132.81c10.88,3.78,16.91,18.49,18.82,29,1.7,9.46,2.46,23.49-8.88,26.5-2.7.71-12.17-2.12-12.92,2.07-1,5.41,9.5,1.85,11.65,1.07,6.9-2.51,6.79,4.12,1.39,6.61-5.56,2.54-8.55,3-11.31,8.94-1.87,4-2.84,10.24,1,13.75,6.55,6,4.28-6.7,4.13-9.14-.3-4.74,5.69-11.35,9.51-5.32,2.47,3.9.52,13.13,6.34,14.85,8.06,2.39,3.75-8.64,2-11.58-1.53-2.54-4.51-5.24-5.3-8.08-1-3.77,1.66-4.28,4.44-2.22,3,2.25,4,6.07,7.49,8.15,1.75,1,6.33,3.15,8.36,2.23,6.77-3.09-8.35-8.53-10-9.27-4.17-1.87-9.86-11.85-1.88-12.52,4.79-.41,19.07,8.67,22.24,2.56,2-3.84-4.4-6-7.1-5.9-4,.17-7.25,2.26-11.23.19-2.77-1.45-4.91-4.31-1.62-6.43,2.93-1.89,6.86-.08,9.79.33s9,.44,8.68-4.07c-.36-4.71-5.73-4.65-8.6-3.06-3.64,2-14,5.41-10.15-3.11,1.88-4.2,12.25-6.81,11-12.91s-9.35,6.5-11.48,7.21a4.38,4.38,0,0,1-2.62.13c.08-4,5.44-11.63,4.21-15.2s-3.41,2.3-4.53,3.22c-2.5,2.07-4.4.67-5.48-1.92-2-4.72-2.79-10.27-6.42-14.6-1.46-1.74-11.64-6.78-10.79-1.62" transform="translate(0 0)"></path><path id="path4538" class="cls-7" d="M93.31,129.27C89,125.67,70.56,140,67.42,143.78a22.84,22.84,0,0,0-3.75,7c-.79,2.2-.66,5-1.45,6.84-.93,2.12-3.1,3.81-5.28,1.82-2.63-2.39.77-3.57.91-6.38.1-2.12-1.55-4.56-3.8-3.41s-1.54,5.13-1,7.06c1.62,5.53,5.64,9.32,3.79,15.53-.74,2.52-2.85,4.48-5.48,2.42-1.77-1.39-1.61-3.86-1.52-5.85.12-2.94,1.39-15.21-3.94-8-3.26,4.43-2,11.53-3.45,16.68-.56,1.92-1.26,5.12-3.58,5.29-3.14.24-3.53-3.16-3-5.29.84-3.71,5.23-10.38,1.95-14-3-3.3-11,3.41-14.29,4.64-4.67,1.77-10.74-1.52-4.73-5.13,3.45-2.08,9-2.06,12.81-3.56,1.69-.66,5.34-2,5.92-3.91.91-3-2.61-3.54-4.68-4.6-1.73-.89-5.67-2.23-5.38-4.78.35-3.06,4.08-1.65,6-.89,4.49,1.75,7.47,5.53,11.6,7.59,1.14.57,4.31,1.92,4.48-.68.11-1.71-4-3.64-5-4.46-1.79-1.44-3.43-2.86-.09-3.76,2.32-.64,4.07,1.32,5.94,2.15,3.3,1.48,9.17,1.3,9.67-3.21-1.14-1.15-4.89-2.25-4-4.45.93-2.37,4.39-.45,6,.1,5.31,1.84,8,.18,12.11-3.41,3-2.65,6.08-6.19,9.55-8.19,2.37-1.37,11.16-.74,10.08,3.1" transform="translate(0 0)"></path><path id="path4540" class="cls-7" d="M97.8,131.35c-3.76-.24-8.53,5.12-10.23,7.73-4.88,7.45-13.73,20.82-2.88,27.93,2.33,1.53,6.73,4,5.72,7.47a3.51,3.51,0,0,1-5.51,1.7c-1.69-1.27-1.4-3.69-3.09-4.94s-5-1.26-6.2.41.23,4.89,1.44,6.54c2.2,3,13.23,5.43,10.82,10.54-.86,1.77-4.28,2.4-6,1.43s-1.87-3.2-2.8-4.83c-3-5.3-10.11-2.72-7.25,2,1.11,1.82,4.47,2.95,6,4.4,2,1.94,2.68,4.25,3.28,6.87.5,2.21,1.54,5.83.62,7.94s-3.79,3.27-5.33.65c-2.52-4.28,4.45-7.84-.91-12.47s-6.31,3.21-5.84,6.65c.71,5.13-.19,9-6.23,10.49-4.94,1.2-10.49-2.54-7.19-7.5,2.56-3.85,8.38-5.37,10.08-10,1.84-5-1.75-5.94-5.72-4.55-3.11,1.07-8.54,1.59-10-2.58s3.14-4.93,6.29-4.48c4.07.58,7.12,2.78,11.11,1.55,1.31-1.66,2.31-4.91-.72-5.68-2-.5-3.7,1.84-5.65,2.14-6.55,1-5.83-6.74.31-6.57,3.37.09,11.37,4.05,10.73-2.38-.72-7.19-6.91-.48-10.25-1-2.67-.4-4.54-3.67-2.81-5.84,1.45-1.83,5-1.47,6.94-1.1,1.72.32,13.5,2.77,9.27-3.15-1.9-2.67-12.83,1.86-11.8-4.5.51-3.09,4.31-2.22,6.43-1.62,3,.85,4.17,2,6.59.1,4.65-3.65,5.64-9.93,6.4-15.38.47-3.36-.46-12.65,5-12.81,2.83-.08,8.78,1.66,10.4,3.85l-2.07.9" transform="translate(0 0)"></path><path id="path4542" class="cls-8" d="M90.66,129.63c-4.29-3.6-22.75,10.7-25.89,14.49a22.63,22.63,0,0,0-3.75,7c-.79,2.2-.67,5-1.46,6.85-.92,2.12-3.08,3.8-5.27,1.81-2.63-2.39.77-3.57.9-6.38.1-2.13-1.55-4.55-3.8-3.4s-1.53,5.12-1,7.06c1.62,5.53,5.63,9.31,3.79,15.53-.74,2.51-2.86,4.47-5.49,2.41-1.76-1.39-1.6-3.85-1.52-5.85.13-2.92,1.4-15.2-3.92-8-3.27,4.44-2,11.53-3.46,16.68-.56,1.93-1.26,5.11-3.58,5.29-3.14.24-3.53-3.16-3-5.29.84-3.71,5.23-10.38,1.95-14-3-3.29-11,3.41-14.29,4.65-4.67,1.75-10.74-1.53-4.73-5.14,3.45-2.08,9-2,12.81-3.56,1.69-.65,5.34-2,5.93-3.9.89-3-2.62-3.55-4.69-4.61-1.73-.89-5.67-2.23-5.38-4.78.34-3.05,4.07-1.65,6-.89,4.49,1.75,7.47,5.53,11.59,7.59,1.15.57,4.32,1.93,4.49-.68.11-1.71-4-3.64-5-4.46-1.79-1.43-3.43-2.86-.09-3.76,2.32-.64,4.07,1.32,5.94,2.16,3.29,1.47,9.17,1.29,9.66-3.22-1.14-1.15-4.88-2.25-4-4.44.92-2.37,4.39-.46,5.95.09,5.31,1.85,8,.19,12.11-3.41,3-2.65,6.08-6.19,9.54-8.19,2.38-1.36,11.16-.74,10.09,3.09" transform="translate(0 0)"></path><path id="path4544" class="cls-8" d="M96.42,133.25c2.32.7,5,.44,7.46.9s4.89,1.28,7.46,1.92a65.14,65.14,0,0,1,15,5.54c9.49,5.07,12.81,15.81,10.79,25.67-.39,1.9-2.56,8.24,1.13,8.28,3,0,4.31-6.52,4.66-8.57,1.15-6.56-2.74-13-4.86-19.27,3.79-2.49,9.76.95,11.3,4.6,2.34,5.61-.54,9.65-.18,15.17.41,6.58,8.35,4.68,7.8-1.27-.34-3.65-4.85-10.25-2.88-13.94,3.63-6.8,8.53,7.6,9.31,10,1.18,3.59,5.5,13.8,10.39,8.31,3.51-3.93-2.24-9-4.51-12.13-1.39-1.92-3.86-4.51-.5-5.6,2.66-.86,5.58,1.6,6.81,3.56,2,3.26,4,12.54,10,9.1,5.13-2.94,3.61-10.32-.4-13.2-3.47-2.49-10.39-4.6-14.5-4.1-1.91.23-5.22,2.53-6.78,2.06-4.22-1.28.7-3.46,2.41-4,4.9-1.57,10.26-5.41,11.22-10.9.52-3-.88-5.46-4.23-4.6-2.85.73-4.53,4.36-6.58,6.26-3.24,3-7.88,9.31-12.86,8.06-8.11-2,3.35-9.09,4.8-11.88,3-5.77-.63-14.34-7.62-9.07-5.44,4.1-3.27,10-6.31,15.05-1.15,1.9-3.66,3.6-6.11,3-3.72-1-2.22-3.91-1.43-6.59.55-1.88,1.91-5.55.81-7.16-1.51-2.21-4.65-1.31-5.89.32-2.41,3.18.29,8.14-5.05,7.72-3.71-.28-7.86-2.93-11.47-4-5.42-1.58-15.65-5.11-19.57.93l.85.35" transform="translate(0 0)"></path><path id="path4546" class="cls-8" d="M96.6,131.34c-.15-9.54-5.67-28.32-17.17-29.93C76.24,101,73.59,103,70.55,103c-2.37,0-6.91-1.81-4.27-4.74,1.79-2,15.75.43,10.51-6-1.77-2.16-4.67-1.25-7-.79a28.89,28.89,0,0,1-10.65.1c-2.45-.38-7.19-.75-8.41-3.44-1.48-3.27,1.56-3.58,4.08-3.59,4,0,12.74,2.84,15.91-1,5.24-6.34-7.49-7.19-10.88-6.27-5,1.39-14,2.07-16.72-4.33-2.88-6.89,8.52-2.71,11.41-2.29,10,1.43,2.48-6.8.19-11C52.37,55.26,52.82,44.5,59.6,51c4.39,4.21,3.88,12,7.05,17,1.53,2.41,4,4.38,6.67,1.93,3-2.72.76-6.92,1-10.18.19-2.8,1.39-6.59,4.94-4.81,2.77,1.39,2.06,5.17,2.08,7.9,0,3.26-2.81,15.91-.46,18C85,84.42,87.63,67.68,92.57,72c3,2.61-5,13.18-6.15,15.58-.73,1.58-3.07,6.54-1.64,7.81,2.52,2.22,4.86-2.45,5.7-3.85s3.94-6.34,6-3.76c1.15,1.48-1.42,6.67-2.37,7.83-2.92,3.56-5.32,4.42-2.54,9.38,1.55,2.77,3.37,5.14,4.53,8.34,1,2.88,6.44,19.76.43,17.3" transform="translate(0 0)"></path><path id="path4548" class="cls-8" d="M97.4,129.69C103.45,120,108,105.34,104,94A43.63,43.63,0,0,0,100,85.8c-1.29-2.12-4.85-5.32-5.25-7.74-.91-5.53,3.54-.73,4.84,1.28,1.44,2.21,4.37,6.6,6.57,3.14,4.19-6.59-8.85-9.87-11.55-13.2-1.55-1.94-4.06-7.61.34-6.44,2.68.72,4.73,8,8.12,6.79s.66-7.14-1-8.62c-2.39-2.19-6.29-2.63-9.32-3.89-2.49-1-8.48-3.76-8.61-7.2C84,45,89.28,49.69,91,51c4.68,3.72,9.24,5.46,9.44-2,.11-4.33-1.84-9.94.39-14.06.91-1.71,2.55-3.6,4.74-1.73,1.54,1.32.67,5.24.36,7a40.84,40.84,0,0,0,.1,15.31c1,.45,15.69-10.66,12.8-2.77C117.15,57.15,110.33,58,108.67,63c-3.24,9.75,8.11-4.16,10.93-1.59,1.93,1.76-.37,6-1.89,7.32-2.29,2-6.39.92-8.18,3.1-5.5,6.69,10,4.66,11.54,6.5,4,4.84-8.94,5.55-11.11,8.51-3.09,4.18-1.25,12.22-1.71,17.06-.57,6.12-3.17,11.51-4.92,17.48-.85,2.9-2.18,10.83-6.57,9.15l.74-.06" transform="translate(0 0)"></path><path id="path4550" class="cls-8" d="M99.67,130.33c5.23-4.94,11-11.1,19-12.55,5-.91,9.88.81,14.44,2.66,2.31.94,10.79,5.54,10.73.25-.06-4.6-10.5-5.73-13.65-6.87-2.29-.83-5.41-2.55-2-4.66,1.91-1.2,6,.67,8,1.55,4.18,1.86,10.5,9.51,15.29,9,9.91-1.06-2.56-9.28-5.4-10.44-2.2-.89-6.24-1.18-6.79-4-.67-3.28,3.72-4.68,6.35-4.48,6.86.52,11.69,8.55,15.72,13.1,1.57,1.77,6.12,6.3,9,5.66,4.07-.94,1.93-6.19.24-8.31-2.21-2.75-18.07-8.88-15.69-13.26,2.48-4.56,15.89,4.59,19,5.12A5.49,5.49,0,0,0,180,95.9c-1.42-4.78-8.79-3.51-12.66-3.64-12.4-.4.36-8,3.44-12.53,1.92-2.84,5.56-9.1,3.87-12.73-1.92-4.08-7.88-1.24-9.87,1.53-4.61,6.43,2.66,14.2-4.77,19.7s-6.86-4.88-6-9.53c.84-4.37-.62-21.25-8.64-13.23-3.38,3.39-2.14,8.53-1.31,12.62.69,3.42,4.69,10.41,2.74,13.8-1.81,3.16-6.68,2.36-8.17-.28-2.68-4.77.28-11-1.65-16-1.83-4.74-6.79-4.76-8.56,0-1.54,4.1,1.14,8.71,2.37,12.55s1.41,18.86-5.06,10.29c-2.58-3.43-.64-6.87-2-10.11-1.61-3.79-5.19-.94-5.48,2.22-.33,3.46,7.27,15.76,1.2,17.42-5.7,1.55-4.13-16.15-10.1-10.76-4.1,3.71,2,11.54,1.78,15.26-.37,6-5.13,9.57-8.77,13-1.34,1.28-3.18,2.53-2.94,4.38l1.5-1" transform="translate(0 0)"></path><path id="path4552" class="cls-8" d="M91.53,132.66c10.89,3.77,16.92,18.49,18.82,29,1.71,9.46,2.46,23.5-8.88,26.5-2.7.71-12.17-2.11-12.92,2.08-1,5.4,9.5,1.85,11.66,1.06,6.89-2.51,6.79,4.14,1.39,6.61-5.56,2.55-8.56,3-11.32,9-1.87,4-2.84,10.23,1,13.73,6.56,6,4.28-6.7,4.13-9.13-.3-4.74,5.7-11.36,9.51-5.32,2.47,3.9.53,13.12,6.35,14.85,8,2.39,3.74-8.65,2-11.59-1.52-2.54-4.51-5.23-5.29-8.06-1-3.78,1.66-4.29,4.43-2.23,3,2.25,4,6.06,7.5,8.14,1.74,1,6.32,3.16,8.35,2.23,6.77-3.08-8.35-8.52-10-9.27-4.17-1.86-9.86-11.84-1.88-12.52,4.8-.39,19.07,8.67,22.24,2.56,2-3.83-4.4-6-7.1-5.89-4,.16-7.26,2.25-11.23.18-2.76-1.43-4.91-4.3-1.61-6.43,2.92-1.89,6.85-.08,9.78.33s9,.44,8.68-4.07c-.36-4.7-5.73-4.64-8.59-3.06-3.65,2-14,5.42-10.16-3.11,1.88-4.19,12.26-6.8,11-12.91s-9.35,6.5-11.48,7.21a4.31,4.31,0,0,1-2.62.14c.09-4,5.44-11.63,4.21-15.21s-3.41,2.31-4.52,3.22c-2.51,2.07-4.4.67-5.49-1.92-2-4.72-2.79-10.26-6.42-14.59-1.46-1.75-11.64-6.78-10.79-1.62" transform="translate(0 0)"></path><path id="path4554" class="cls-8" d="M96.09,131.8c-3.54-.17-8.14,5.26-9.8,7.87-4.75,7.5-13.36,21-3.28,27.79,2.17,1.48,6.27,3.87,5.25,7.31A3.34,3.34,0,0,1,83,176.56c-1.57-1.21-1.24-3.63-2.81-4.84s-4.65-1.15-5.85.54.11,4.85,1.22,6.46c2,2.94,12.36,5.13,10,10.24-.83,1.78-4.08,2.48-5.69,1.55s-1.69-3.14-2.54-4.74c-2.75-5.2-9.46-2.5-6.86,2.12,1,1.78,4.14,2.84,5.55,4.25,1.86,1.88,2.44,4.16,2.94,6.75.43,2.18,1.35,5.77.43,7.87s-3.63,3.32-5,.75c-2.28-4.19,4.36-7.88-.6-12.37s-6,3.32-5.62,6.73c.55,5.07-.38,9-6.1,10.54-4.67,1.29-9.82-2.31-6.61-7.3,2.5-3.87,8-5.5,9.69-10.08,1.84-5-1.52-5.86-5.29-4.42-3,1.14-8.08,1.76-9.34-2.34s3.06-5,6-4.58c3.82.49,6.64,2.61,10.43,1.31,1.26-1.68,2.27-4.93-.56-5.62-1.86-.46-3.52,1.9-5.37,2.23-6.19,1.11-5.36-6.57.43-6.52,3.17,0,10.62,3.78,10.14-2.58-.52-7.13-6.49-.33-9.62-.75-2.51-.35-4.21-3.56-2.54-5.75,1.41-1.85,4.75-1.56,6.56-1.24,1.62.29,12.66,2.49,8.8-3.3-1.74-2.62-12.13,2.1-11-4.23.53-3.08,4.11-2.3,6.09-1.75,2.79.78,3.88,1.9,6.2,0,4.45-3.72,5.52-10,6.34-15.39.51-3.35-.18-12.56,5-12.83,2.67-.14,8.24,1.47,9.72,3.62l-2,.94" transform="translate(0 0)"></path><path id="path5202" class="cls-9" d="M186.87,1V.83h0V1" transform="translate(0 0)"></path><path id="path6538" class="cls-9" d="M255.42,1.43l.31-.49,0,.37-.28.12" transform="translate(0 0)"></path><path id="path6540" class="cls-9" d="M256.44,2.19l.83-.45v.13l-.82.32" transform="translate(0 0)"></path><path id="path6542" class="cls-9" d="M258.09,1.54l.15-.16v.09l-.15.07" transform="translate(0 0)"></path><path id="path6544" class="cls-9" d="M252.81,3l.78-2.94.13-.06V0l-.91,3" transform="translate(0 0)"></path></svg>