<svg id="svg25876" xmlns="http://www.w3.org/2000/svg" xmlns:xlink="http://www.w3.org/1999/xlink" viewBox="0 0 227.6 245.51"><defs><style>.cls-1{fill:none;}.cls-2{fill:#7a4122;}.cls-3{fill:#372015;}.cls-4{fill:#b59a63;}.cls-5{fill:#57331c;}.cls-6{fill:#79866f;}.cls-7{clip-path:url(#clip-path);}.cls-8{fill:url(#linear-gradient);}.cls-9{clip-path:url(#clip-path-2);}.cls-10{fill:url(#linear-gradient-2);}.cls-11{fill:#81c32d;}.cls-12{clip-path:url(#clip-path-3);}.cls-13{fill:url(#linear-gradient-3);}.cls-14{clip-path:url(#clip-path-4);}.cls-15{fill:url(#linear-gradient-4);}.cls-16{clip-path:url(#clip-path-5);}.cls-17{fill:url(#linear-gradient-5);}.cls-18{clip-path:url(#clip-path-6);}.cls-19{fill:url(#linear-gradient-6);}.cls-20{clip-path:url(#clip-path-7);}.cls-21{fill:url(#linear-gradient-7);}.cls-22{clip-path:url(#clip-path-8);}.cls-23{fill:url(#linear-gradient-8);}.cls-24{clip-path:url(#clip-path-9);}.cls-25{fill:url(#linear-gradient-9);}.cls-26{clip-path:url(#clip-path-10);}.cls-27{fill:url(#linear-gradient-10);}</style><clipPath id="clip-path" transform="translate(0 0)"><path class="cls-1" d="M113.39,41.07l9-2.67c-.35-3.54-.68-5.55-.68-5.55C113.39,2.14,101,0,101,0l-9.1,33.58.35,3L103.05,35,92.53,39.09,96.34,71.2,108,70.37l-11.42,3,2.73,23.06,13.24,15C124.26,82.22,123.6,53,122.49,40Z"/></clipPath><linearGradient id="linear-gradient" x1="-175.32" y1="547.42" x2="-174.32" y2="547.42" gradientTransform="matrix(2.6, 111.97, 111.97, -2.6, -60730.99, 21056.05)" gradientUnits="userSpaceOnUse"><stop offset="0" stop-color="#81c32d"/><stop offset="0.36" stop-color="#6d9f2d"/><stop offset="1" stop-color="#4e732a"/></linearGradient><clipPath id="clip-path-2" transform="translate(0 0)"><path class="cls-1" d="M62.32,82.18,57.92,94,59,80.63c-6.2-2.82-12.59-5.38-18.77-8.06-3-1.31-6.14-2.34-9.06-3.73s-4.69-4.21-7.54-5.47C19.49,61.57,8,62.73,3.75,65c-3.63,2-2.62,4.38-.09,8,1.87,2.65,4.69,4.69,6.62,7.36a49.51,49.51,0,0,0,11.8,11.32l5.45-9.46L25.52,94c2.1,1.32,4.26,2.55,6.47,3.72l5.53-8.5v11.35l4,2c5.91,2.9,11.31,6.77,17.23,9.46,3.7,1.68,5,3.17,9.46,1.52,3.31-1.23,6.37-3.2,9.65-4.28l.42-.11c.85-11.87-5.41-21.58-15.92-26.89Z"/></clipPath><linearGradient id="linear-gradient-2" x1="-175.69" y1="542.04" x2="-174.69" y2="542.04" gradientTransform="matrix(76.93, 0, 0, -76.93, 13517.73, 41790.11)" gradientUnits="userSpaceOnUse"><stop offset="0" stop-color="#8ac628"/><stop offset="0.56" stop-color="#6d9f2d"/><stop offset="1" stop-color="#6d9f2d"/></linearGradient><clipPath id="clip-path-3" transform="translate(0 0)"><path class="cls-1" d="M103.34,68.78a35.32,35.32,0,0,0-7.61-12l-13.94,8.5,10.68-11.8c-2.06-2-4.24-3.87-6.4-5.7L75.27,54l7.88-8.71c-1.15-1-2.28-1.94-3.36-2.91-3.14-2.81-26.51-22-29.52-16.67l-1,.13-1.19,1.84-.38-.39c-.7,4.21-1.62,9.44-1.46,14l11.68,1.38L46.68,45.2a44.58,44.58,0,0,0,3.62,9.93l14.12-2L52.49,59.29h0C58.11,69.13,63.32,79.9,71,88.12,74.44,91.77,76.81,96.59,81.3,99c3.57,1.91,12.6,4.75,16.5,2.46,3.74-2.23,6.74-10.31,7.52-14.13,1.39-6.88.19-12.32-2-18.52Z"/></clipPath><linearGradient id="linear-gradient-3" x1="-175.02" y1="540.93" x2="-174.02" y2="540.93" gradientTransform="matrix(59.7, 0, 0, -59.7, 10494.26, 32355.48)" xlink:href="#linear-gradient-2"/><clipPath id="clip-path-4" transform="translate(0 0)"><path class="cls-1" d="M43.81,209.69l1.92-.15,7.15-1.82-2.11-10.43,5.27,9a40.08,40.08,0,0,0,7.54-5.91l-5.67-11.6,8.63,8.53c6.87-7.58,14.68-15.09,19.59-24,2.17-4,5.65-7.36,6.44-11.89.63-3.61.53-12.18-2.54-14.88S79.28,143.57,75.76,144c-6.3.73-10.64,3.29-15.36,6.9a31.86,31.86,0,0,0-8.16,9.92l11.23,9.6-13.16-5.88c-1.12,2.35-2.13,4.74-3.1,7.11l8.39,7.55-9.71-4.32c-.52,1.26-1,2.5-1.55,3.69a109,109,0,0,0-4.17,11.09c-.83,2.62-1.59,5.28-2.37,7.91-1,3.53-2.61,9.5,2,11.09a14.09,14.09,0,0,0,4,1Z"/></clipPath><linearGradient id="linear-gradient-4" x1="-170.75" y1="548.7" x2="-169.75" y2="548.7" gradientTransform="matrix(7.61, 43.77, 43.77, -7.61, -22657.91, 11797.08)" gradientUnits="userSpaceOnUse"><stop offset="0" stop-color="#4e732a"/><stop offset="0.03" stop-color="#4e732a"/><stop offset="0.45" stop-color="#6d9f2d"/><stop offset="1" stop-color="#8ac628"/></linearGradient><clipPath id="clip-path-5" transform="translate(0 0)"><path class="cls-1" d="M226,106.24s-30.91-15.91-72.22-6.1c0,0-20,1.46-30.23,26.31l31.41,13.32,17.46-3.3L170,121.74l4.44,14.34,27.3-5.16-8.2-12.75s9.47,6.6,12.94,11.85L220,127.45S231.85,117.25,226,106.24Z"/></clipPath><linearGradient id="linear-gradient-5" x1="-176.29" y1="543.05" x2="-175.29" y2="543.05" gradientTransform="matrix(104.09, 0, 0, -104.09, 18474.12, 56645.89)" xlink:href="#linear-gradient-2"/><clipPath id="clip-path-6" transform="translate(0 0)"><path class="cls-1" d="M1.33,144.52s30.16,17.59,72.13,9.94c0,0,20.12-.4,31.7-24.79l-30.8-15L56.68,117l1.62,14.89-3.7-14.61-27.66,3.73,7.55,13.22s-9.14-7.12-12.35-12.57L8.43,123.55s-12.43,9.63-7.1,21Z"/></clipPath><linearGradient id="linear-gradient-6" x1="-176.31" y1="543.08" x2="-175.31" y2="543.08" gradientTransform="matrix(105.16, 0, 0, -105.16, 18540.72, 57246.05)" gradientUnits="userSpaceOnUse"><stop offset="0" stop-color="#81c32d"/><stop offset="0.95" stop-color="#6d9f2d"/><stop offset="1" stop-color="#6d9f2d"/></linearGradient><clipPath id="clip-path-7" transform="translate(0 0)"><path class="cls-1" d="M169.39,73.9c19.52-25.32,14-34.25,14-34.25l-8.31-1.51L137.31,63.45l11.74,4-14.82-2L129,69c-1.5,1.13-2.85,2.26-4.08,3.39L137.77,83.1l-15.72-7.85c-11.74,12.77-7.9,24.21-7.83,24.43,2.29,6.68,4.47,13.28,13.11,12.29,7.54-.86,14.35-7.91,19.44-13a275.06,275.06,0,0,0,20.64-22.55l-8.37-5Z"/></clipPath><linearGradient id="linear-gradient-7" x1="-168.68" y1="544.78" x2="-167.68" y2="544.78" gradientTransform="matrix(22.57, 29.08, 29.08, -22.57, -11899.16, 17252.83)" gradientUnits="userSpaceOnUse"><stop offset="0" stop-color="#8ac628"/><stop offset="0.28" stop-color="#8ac628"/><stop offset="1" stop-color="#4e732a"/></linearGradient><clipPath id="clip-path-8" transform="translate(0 0)"><path class="cls-1" d="M201.48,153.69s-17.94-22.88-52.78-29.85c0,0-15.71-5.87-32.17,9.45l19.23,21.09L150.18,158l3.34-12-1.64,12.46,22.56,5.6-1.78-12.55s4.89,8.33,5.7,13.53l11.19,2.77s12.57-3.62,11.93-14.05Z"/></clipPath><linearGradient id="linear-gradient-8" x1="-181.14" y1="548.28" x2="-180.14" y2="548.28" gradientTransform="matrix(-81.41, -32.32, -32.32, 81.41, 3175.28, -50331.44)" gradientUnits="userSpaceOnUse"><stop offset="0" stop-color="#4e732a"/><stop offset="0.05" stop-color="#4e732a"/><stop offset="1" stop-color="#81c32d"/></linearGradient><clipPath id="clip-path-9" transform="translate(0 0)"><path class="cls-1" d="M100.69,164.75c.62,14.2-1.78,28,1.79,42.62,1.69,6.93,5.35,13.32,8.12,19.76,1.42,3.29,2.46,6.88,4.61,9.83s6.1,4.81,6.36,8.55c5.36-5,7.42-16.69,8.85-23.68,2-9.74-.71-18.36-1.79-28.22-.19-1.7-.3-3.41-.37-5.13L120,183l8.16,1.69c0-4.57.18-9.15.38-13.62l-12.34-2.48,12.47-.44c.05-1.13.1-2.25.12-3.36.21-7.64-6.29-13.15-13.37-15.89-5-1.94-10,2.9-13.08,8Z"/></clipPath><linearGradient id="linear-gradient-9" x1="-181.22" y1="544.74" x2="-180.22" y2="544.74" gradientTransform="matrix(-19.83, -99.13, -99.13, 19.83, 50532.23, -28524.1)" gradientUnits="userSpaceOnUse"><stop offset="0" stop-color="#81c32d"/><stop offset="0.36" stop-color="#6d9f2d"/><stop offset="1" stop-color="#6d9f2d"/></linearGradient><clipPath id="clip-path-10" transform="translate(0 0)"><path class="cls-1" d="M135.16,180.73a33.45,33.45,0,0,0,10.73,8.2l9.67-12.18-5.68,14.07c2.51,1.09,5.07,2.06,7.6,3l7.61-9.1-4.18,10.36c1.36.5,2.67,1,4,1.5,5.73,2.27,11.29,4.8,17.28,6.35,3.7,1,9.38,2,13,.52,6.47-2.67,1.8-12.66.05-17l-10.9,2.62,9.24-5.9a42.27,42.27,0,0,0-6.49-7.68l-12,6.4,8.63-9.41c-8.23-6.94-16.43-14.86-26-19.69-4.25-2.14-7.94-5.67-12.74-6.32-3.82-.53-12.83-.11-15.55,3.23s-2.66,11.42-2.1,15.1c1,6.6,3.87,11.07,7.86,15.9Z"/></clipPath><linearGradient id="linear-gradient-10" x1="-174.82" y1="543.07" x2="-173.82" y2="543.07" gradientTransform="matrix(77.49, 24.35, 24.35, -77.49, 446.78, 46504.01)" xlink:href="#linear-gradient-2"/></defs><title>plant2</title><path id="path4562" class="cls-2" d="M63.75,205h139V66h-139Z" transform="translate(0 0)"/><path id="path4564" class="cls-3" d="M74.87,193.9H191.63V77.14H74.87Z" transform="translate(0 0)"/><path id="path4566" class="cls-4" d="M75.86,192.91H190.64V78.13H75.86V192.91m116.77,2H73.87V76.15H192.63V194.9" transform="translate(0 0)"/><path id="path4582" class="cls-5" d="M73.87,176a84.7,84.7,0,0,1-10.12-3.47V153.32l.08-.06,10-1.35V176" transform="translate(0 0)"/><path id="path4586" class="cls-5" d="M73.87,127.39A38.35,38.35,0,0,1,65.31,119a16.94,16.94,0,0,0-1.56-1.83V105.57a34.42,34.42,0,0,1,7.22-.79,20.05,20.05,0,0,1,2.9.18v22.43" transform="translate(0 0)"/><path id="path4588" class="cls-6" d="M202.75,93.87V86.64h0s1.28,2.08,0,7.22" transform="translate(0 0)"/><path id="path4594" class="cls-5" d="M152.22,76.15H131.63L134.37,66H148a63.38,63.38,0,0,1,4.27,10.13m-49.57,0H96l.28-.44.8-.11a1.6,1.6,0,0,1,1.52-.73,10.31,10.31,0,0,1,4.07,1.28" transform="translate(0 0)"/><g id="g4600"><g class="cls-7"><g id="g4602"><path id="path4616" class="cls-8" d="M113.39,41.07l9-2.67c-.35-3.54-.68-5.55-.68-5.55C113.39,2.14,101,0,101,0l-9.1,33.58.35,3L103.05,35,92.53,39.09,96.34,71.2,108,70.37l-11.42,3,2.73,23.06,13.24,15C124.26,82.22,123.6,53,122.49,40l-9.1,1.12" transform="translate(0 0)"/></g></g></g><g id="g4618"><g class="cls-9"><g id="g4620"><path id="path4634" class="cls-10" d="M62.32,82.18,57.92,94,59,80.63c-6.2-2.82-12.59-5.38-18.77-8.06-3-1.31-6.14-2.34-9.06-3.73s-4.69-4.21-7.54-5.47C19.49,61.57,8,62.73,3.75,65c-3.63,2-2.62,4.38-.09,8,1.87,2.65,4.69,4.69,6.62,7.36a49.51,49.51,0,0,0,11.8,11.32l5.45-9.46L25.52,94c2.1,1.32,4.26,2.55,6.47,3.72l5.53-8.5v11.35l4,2c5.91,2.9,11.31,6.77,17.23,9.46,3.7,1.68,5,3.17,9.46,1.52,3.31-1.23,6.37-3.2,9.65-4.28l.42-.11c.85-11.87-5.41-21.58-15.92-26.89" transform="translate(0 0)"/></g></g></g><path id="path4636" class="cls-11" d="M14.09,71s75.5,50.34,95,57.72l-1.3-3.47L61.39,98.73S18.42,70.52,14.09,71" transform="translate(0 0)"/><g id="g4638"><g class="cls-12"><g id="g4640"><path id="path4654" class="cls-13" d="M103.34,68.78a35.32,35.32,0,0,0-7.61-12l-13.94,8.5,10.68-11.8c-2.06-2-4.24-3.87-6.4-5.7L75.27,54l7.88-8.71c-1.15-1-2.28-1.94-3.36-2.91-3.14-2.81-26.51-22-29.52-16.67l-1,.13-1.19,1.84-.38-.39c-.7,4.21-1.62,9.44-1.46,14l11.68,1.38L46.68,45.2a44.58,44.58,0,0,0,3.62,9.93l14.12-2L52.49,59.29h0C58.11,69.13,63.32,79.9,71,88.12,74.44,91.77,76.81,96.59,81.3,99c3.57,1.91,12.6,4.75,16.5,2.46,3.74-2.23,6.74-10.31,7.52-14.13,1.39-6.88.19-12.32-2-18.52" transform="translate(0 0)"/></g></g></g><path id="path4656" class="cls-11" d="M54.88,37.54s46,64.23,51.21,85.49l2.17,8.25H113S101.31,91.35,54.88,37.54" transform="translate(0 0)"/><path id="path4658" class="cls-11" d="M111.74,133.23l-2.07-1.78c7.86-28.94-5.38-122.16-5.38-122.16s4.14,5,6.62,33.21c0,0,7.44,68.59.83,90.73" transform="translate(0 0)"/><g id="g4660"><g class="cls-14"><g id="g4662"><path id="path4678" class="cls-15" d="M43.81,209.69l1.92-.15,7.15-1.82-2.11-10.43,5.27,9a40.08,40.08,0,0,0,7.54-5.91l-5.67-11.6,8.63,8.53c6.87-7.58,14.68-15.09,19.59-24,2.17-4,5.65-7.36,6.44-11.89.63-3.61.53-12.18-2.54-14.88S79.28,143.57,75.76,144c-6.3.73-10.64,3.29-15.36,6.9a31.86,31.86,0,0,0-8.16,9.92l11.23,9.6-13.16-5.88c-1.12,2.35-2.13,4.74-3.1,7.11l8.39,7.55-9.71-4.32c-.52,1.26-1,2.5-1.55,3.69a109,109,0,0,0-4.17,11.09c-.83,2.62-1.59,5.28-2.37,7.91-1,3.53-2.61,9.5,2,11.09a14.09,14.09,0,0,0,4,1" transform="translate(0 0)"/></g></g></g><path id="path4680" class="cls-11" d="M47.15,201.37s42.31-57.63,59.14-68.1l6.49-4.19-1.34-4.1s-31.06,21.3-64.29,76.39" transform="translate(0 0)"/><g id="g4682"><g class="cls-16"><g id="g4684"><path id="path4698" class="cls-17" d="M226,106.24s-30.91-15.91-72.22-6.1c0,0-20,1.46-30.23,26.31l31.41,13.32,17.46-3.3L170,121.74l4.44,14.34,27.3-5.16-8.2-12.75s9.47,6.6,12.94,11.85L220,127.45s11.85-10.2,5.95-21.21" transform="translate(0 0)"/></g></g></g><g id="g4700"><g class="cls-18"><g id="g4702"><path id="path4716" class="cls-19" d="M1.33,144.52s30.16,17.59,72.13,9.94c0,0,20.12-.4,31.7-24.79l-30.8-15L56.68,117l1.62,14.89-3.7-14.61-27.66,3.73,7.55,13.22s-9.14-7.12-12.35-12.57L8.43,123.55s-12.43,9.63-7.1,21" transform="translate(0 0)"/></g></g></g><g id="g4718"><g class="cls-20"><g id="g4720"><path id="path4734" class="cls-21" d="M169.39,73.9c19.52-25.32,14-34.25,14-34.25l-8.31-1.51L137.31,63.45l11.74,4-14.82-2L129,69c-1.5,1.13-2.85,2.26-4.08,3.39L137.77,83.1l-15.72-7.85c-11.74,12.77-7.9,24.21-7.83,24.43,2.29,6.68,4.47,13.28,13.11,12.29,7.54-.86,14.35-7.91,19.44-13a275.06,275.06,0,0,0,20.64-22.55l-8.37-5,10.35,2.51" transform="translate(0 0)"/></g></g></g><path id="path4736" class="cls-11" d="M109.78,131.93s21.48-50.12,52.07-74.22l13.67-15.62s-8.46,15-26,33.2c0,0-26,32.55-31.26,49.48,0,0-3.25,8.46-8.45,7.16" transform="translate(0 0)"/><path id="path4738" class="cls-11" d="M2.06,141s90.6-5.47,110.62-11.38l-3.13-2-53,6.94S5.27,138,2.06,141" transform="translate(0 0)"/><g id="g4740"><g class="cls-22"><g id="g4742"><path id="path4756" class="cls-23" d="M201.48,153.69s-17.94-22.88-52.78-29.85c0,0-15.71-5.87-32.17,9.45l19.23,21.09L150.18,158l3.34-12-1.64,12.46,22.56,5.6-1.78-12.55s4.89,8.33,5.7,13.53l11.19,2.77s12.57-3.62,11.93-14.05" transform="translate(0 0)"/></g></g></g><path id="path4758" class="cls-11" d="M199.82,156.21S128,132.6,110.69,131l1.81,2.49,43.17,10.92s40.77,13.09,44.15,11.77" transform="translate(0 0)"/><g id="g4760"><g class="cls-24"><g id="g4762"><path id="path4776" class="cls-25" d="M100.69,164.75c.62,14.2-1.78,28,1.79,42.62,1.69,6.93,5.35,13.32,8.12,19.76,1.42,3.29,2.46,6.88,4.61,9.83s6.1,4.81,6.36,8.55c5.36-5,7.42-16.69,8.85-23.68,2-9.74-.71-18.36-1.79-28.22-.19-1.7-.3-3.41-.37-5.13L120,183l8.16,1.69c0-4.57.18-9.15.38-13.62l-12.34-2.48,12.47-.44c.05-1.13.1-2.25.12-3.36.21-7.64-6.29-13.15-13.37-15.89-5-1.94-10,2.9-13.08,8l-1.65,7.78" transform="translate(0 0)"/></g></g></g><path id="path4778" class="cls-11" d="M108.56,125.93s5.64,90.64,9.58,104.14c0,0,.56-12.94,0-16.88l-6-88.29s-3.57-3.47-3.57,1" transform="translate(0 0)"/><path id="path4780" class="cls-11" d="M116,129.49s72.65-18.31,96.7-13.7c0,0-2.5-5.26-10.43-4.57,0,0-67.46,7.68-90.58,15.67,0,0-3,3.08,4.31,2.6" transform="translate(0 0)"/><g id="g4782"><g class="cls-26"><g id="g4784"><path id="path4798" class="cls-27" d="M135.16,180.73a33.45,33.45,0,0,0,10.73,8.2l9.67-12.18-5.68,14.07c2.51,1.09,5.07,2.06,7.6,3l7.61-9.1-4.18,10.36c1.36.5,2.67,1,4,1.5,5.73,2.27,11.29,4.8,17.28,6.35,3.7,1,9.38,2,13,.52,6.47-2.67,1.8-12.66.05-17l-10.9,2.62,9.24-5.9a42.27,42.27,0,0,0-6.49-7.68l-12,6.4,8.63-9.41c-8.23-6.94-16.43-14.86-26-19.69-4.25-2.14-7.94-5.67-12.74-6.32-3.82-.53-12.83-.11-15.55,3.23s-2.66,11.42-2.1,15.1c1,6.6,3.87,11.07,7.86,15.9" transform="translate(0 0)"/></g></g></g><path id="path4800" class="cls-11" d="M188.74,192.75s-62.22-42.31-73.85-59.62l-4.65-6.66L106,128s23.59,31.85,82.77,64.72" transform="translate(0 0)"/></svg>