<?xml version="1.0" encoding="UTF-8" standalone="no"?>
<svg
   xmlns:dc="http://purl.org/dc/elements/1.1/"
   xmlns:cc="http://creativecommons.org/ns#"
   xmlns:rdf="http://www.w3.org/1999/02/22-rdf-syntax-ns#"
   xmlns:svg="http://www.w3.org/2000/svg"
   xmlns="http://www.w3.org/2000/svg"
   xmlns:sodipodi="http://sodipodi.sourceforge.net/DTD/sodipodi-0.dtd"
   xmlns:inkscape="http://www.inkscape.org/namespaces/inkscape"
   width="78.432869mm"
   height="61.766689mm"
   viewBox="0 0 78.432869 61.766689"
   version="1.1"
   id="svg25363"
   inkscape:version="1.0.2 (e86c870879, 2021-01-15, custom)"
   sodipodi:docname="plant1.svg">
  <defs
     id="defs25357" />
  <sodipodi:namedview
     id="base"
     pagecolor="#ffffff"
     bordercolor="#666666"
     borderopacity="1.0"
     inkscape:pageopacity="0.0"
     inkscape:pageshadow="2"
     inkscape:zoom="0.35"
     inkscape:cx="-231.78039"
     inkscape:cy="419.58161"
     inkscape:document-units="mm"
     inkscape:current-layer="layer1"
     inkscape:document-rotation="0"
     showgrid="false"
     fit-margin-top="0"
     fit-margin-left="0"
     fit-margin-right="0"
     fit-margin-bottom="0"
     inkscape:window-width="1267"
     inkscape:window-height="1030"
     inkscape:window-x="152"
     inkscape:window-y="0"
     inkscape:window-maximized="0" />
  <metadata
     id="metadata25360">
    <rdf:RDF>
      <cc:Work
         rdf:about="">
        <dc:format>image/svg+xml</dc:format>
        <dc:type
           rdf:resource="http://purl.org/dc/dcmitype/StillImage" />
        <dc:title></dc:title>
      </cc:Work>
    </rdf:RDF>
  </metadata>
  <g
     inkscape:label="Layer 1"
     inkscape:groupmode="layer"
     id="layer1"
     transform="translate(-167.15856,-37.152366)">
    <path
       d="m 230.43699,74.581586 c 0,13.439246 -10.89766,24.33747 -24.33747,24.33747 -13.44313,0 -24.33747,-10.898224 -24.33747,-24.33747 0,-13.443375 10.89434,-24.337753 24.33747,-24.337753 13.43981,0 24.33747,10.894378 24.33747,24.337753"
       style="fill:#7a4122;fill-opacity:1;fill-rule:nonzero;stroke:none;stroke-width:0.326765"
       id="path12222" />
    <path
       d="m 227.34578,74.581586 c 0,11.734165 -9.51213,21.246007 -21.24626,21.246007 -11.7342,0 -21.24625,-9.511842 -21.24625,-21.246007 0,-11.734413 9.51205,-21.24622 21.24625,-21.24622 11.73413,0 21.24626,9.511807 21.24626,21.24622"
       style="fill:#b59a63;fill-opacity:1;fill-rule:nonzero;stroke:none;stroke-width:0.326765"
       id="path12224" />
    <path
       d="m 226.18253,74.581586 c 0,11.090769 -8.99259,20.083005 -20.08301,20.083005 -11.0937,0 -20.08297,-8.992236 -20.08297,-20.083005 0,-11.093628 8.98927,-20.083253 20.08297,-20.083253 11.09042,0 20.08301,8.989625 20.08301,20.083253"
       style="fill:#261512;fill-opacity:1;fill-rule:nonzero;stroke:none;stroke-width:0.326765"
       id="path12226" />
    <path
       d="m 189.66653,95.948808 c -0.5654,-0.004 -1.22865,-0.278095 -2.00635,-0.90484 -1.86588,-1.512605 -1.80707,-3.781002 -1.22538,-6.116708 1.46717,2.00279 3.23173,3.776768 5.22821,5.249792 -0.46066,1.08518 -1.10769,1.771756 -1.99648,1.771756"
       style="fill:#677461;fill-opacity:1;fill-rule:nonzero;stroke:none;stroke-width:0.326765"
       id="path12228" />
    <path
       d="m 191.66301,94.177052 c -1.99648,-1.473024 -3.76104,-3.247002 -5.22821,-5.249792 0.3235,-1.288098 0.80384,-2.598773 1.20576,-3.814022 1.25808,2.195583 2.8919,4.14341 4.8198,5.760579 -0.16341,1.264885 -0.41822,2.41868 -0.79735,3.303235"
       style="fill:#4a2d1b;fill-opacity:1;fill-rule:nonzero;stroke:none;stroke-width:0.326765"
       id="path12230" />
    <path
       d="m 192.46036,90.873817 c -1.9279,-1.617169 -3.56172,-3.564996 -4.8198,-5.760579 0.15036,-0.450603 0.2908,-0.888436 0.40845,-1.310958 0.0228,-0.08791 0.049,-0.172226 0.0751,-0.253929 1.12737,2.258024 2.66972,4.273479 4.52572,5.950726 -0.0229,0.107209 -0.049,0.214383 -0.0784,0.318982 -0.0294,0.356094 -0.0687,0.709648 -0.11112,1.055758"
       style="fill:#6c6940;fill-opacity:1;fill-rule:nonzero;stroke:none;stroke-width:0.326765"
       id="path12232" />
    <path
       d="m 179.4159,88.929905 c -0.92145,0 -1.62726,-0.643396 -1.93774,-2.247794 -0.59143,-3.039322 2.24491,-4.922097 4.92108,-6.545545 0.45424,1.950226 1.14374,3.81374 2.03898,5.552476 -1.77429,1.806045 -3.64013,3.240863 -5.02232,3.240863"
       style="fill:#677461;fill-opacity:1;fill-rule:nonzero;stroke:none;stroke-width:0.326765"
       id="path12234" />
    <path
       d="m 184.43822,85.689042 c -0.89524,-1.738736 -1.58474,-3.60225 -2.03898,-5.552476 0.32353,-0.195298 0.64699,-0.389431 0.95744,-0.582225 l 0.13719,-0.140158 c 0.60784,-0.653521 1.16004,-1.029018 1.66984,-1.198598 0.29732,1.738418 0.8103,3.40427 1.50315,4.970427 -0.003,0.0062 -0.01,0.01274 -0.0164,0.01891 -0.68618,0.839823 -1.44106,1.698908 -2.21227,2.484121"
       style="fill:#4a2d1b;fill-opacity:1;fill-rule:nonzero;stroke:none;stroke-width:0.326765"
       id="path12236" />
    <path
       d="m 186.66686,83.186012 c -0.69285,-1.566157 -1.20583,-3.232009 -1.50315,-4.970427 0.22543,-0.07549 0.4444,-0.11109 0.65677,-0.11109 0.0131,0 0.0261,0 0.0359,0 0.16012,-0.05002 0.30712,-0.08565 0.44764,-0.104881 0.24839,1.434783 0.64703,2.817319 1.17961,4.130605 -0.2287,0.322862 -0.5032,0.672818 -0.81682,1.055793"
       style="fill:#6c6940;fill-opacity:1;fill-rule:nonzero;stroke:none;stroke-width:0.326765"
       id="path12238" />
    <path
       d="m 181.81761,76.261161 c -0.0948,-0.02286 -0.18951,-0.04569 -0.28423,-0.06893 l -0.0687,0.01277 -0.003,-0.02939 c -0.915,-0.218334 -1.90507,-0.50292 -2.84945,-0.848607 l -0.30057,-0.08174 0.013,-0.02678 c -2.00301,-0.764576 -3.73814,-1.799837 -3.98325,-3.054633 -0.29736,-0.506765 -0.46722,-1.091318 -0.45749,-1.77426 0.0164,-1.340098 0.64703,-1.813561 1.61104,-1.813561 0.52606,0 1.15344,0.14284 1.83306,0.362409 0.26145,-0.05888 0.52289,-0.0883 0.78105,-0.0883 1.39852,0 2.75788,0.804192 3.97013,1.793628 -0.20913,1.281642 -0.31697,2.594892 -0.31697,3.937812 0,0.56141 0.0196,1.124479 0.0556,1.679575"
       style="fill:#677461;fill-opacity:1;fill-rule:nonzero;stroke:none;stroke-width:0.326765"
       id="path12240" />
    <path
       d="m 184.28469,76.646747 c -0.35944,0 -0.79403,-0.0562 -1.33646,-0.153212 -0.34971,-0.06505 -0.73194,-0.140476 -1.13062,-0.232374 -0.036,-0.555096 -0.0556,-1.118165 -0.0556,-1.679575 0,-1.34292 0.10781,-2.65617 0.31694,-3.937812 0.11768,0.09835 0.2353,0.196391 0.34963,0.294746 l 0.0785,-0.08562 0.20264,0.209479 c 1.258,0.538515 1.82005,1.235498 1.94747,1.996193 l 0.23531,0.21964 c -0.003,0.04477 -0.007,0.08819 -0.01,0.133949 l -2.50303,2.136705 0.85288,0.947314 1.62401,-1.548271 c 0.007,0.542502 0.036,1.078336 0.085,1.610678 -0.18951,0.06269 -0.40516,0.08816 -0.65677,0.08816"
       style="fill:#4a2d1b;fill-opacity:1;fill-rule:nonzero;stroke:none;stroke-width:0.326765"
       id="path12242" />
    <path
       d="m 184.94146,76.558588 c -0.049,-0.532342 -0.0784,-1.068176 -0.085,-1.610678 l 0.88555,-0.846279 c 0.13073,0.159456 0.21896,0.316618 0.27449,0.469548 0,0.0039 0,0.0079 0,0.01041 0,0.408552 0.01,0.816962 0.036,1.218882 l -0.17971,-0.09183 -0.16665,0.259115 c -0.21565,0.299967 -0.45416,0.490185 -0.76468,0.590833 m -0.0588,-3.146426 c 0.003,-0.04575 0.007,-0.08918 0.01,-0.133949 l 0.0718,0.06498 -0.0817,0.06897"
       style="fill:#6c6940;fill-opacity:1;fill-rule:nonzero;stroke:none;stroke-width:0.326765"
       id="path12244" />
    <path
       d="m 183.6377,65.190746 c -0.56208,-2.582086 -0.31048,-4.549246 1.68931,-4.549246 0.23206,0 0.48366,0.02678 0.7614,0.0817 -0.96393,1.388745 -1.78738,2.888615 -2.45071,4.467542"
       style="fill:#677461;fill-opacity:1;fill-rule:nonzero;stroke:none;stroke-width:0.326765"
       id="path12246" />
    <path
       d="m 185.30747,70.180436 c -0.44768,-1.065883 -0.8594,-2.153356 -1.18943,-3.198707 l -0.0719,-0.171239 0.0196,-0.0025 c -0.16994,-0.555131 -0.31369,-1.097633 -0.4281,-1.617169 0.66333,-1.578927 1.48678,-3.078797 2.45071,-4.467543 0.24504,0.04607 0.50652,0.115006 0.78751,0.205529 0.81693,0.265677 1.46717,0.690774 1.9867,1.225409 -1.70236,2.360224 -2.93433,5.078871 -3.55515,8.026294"
       style="fill:#4a2d1b;fill-opacity:1;fill-rule:nonzero;stroke:none;stroke-width:0.326765"
       id="path12248" />
    <path
       d="m 186.1668,72.094961 c -0.062,-0.133985 -0.12739,-0.274461 -0.196,-0.418571 -0.22546,-0.486234 -0.44768,-0.989119 -0.66333,-1.495954 0.62082,-2.947424 1.85279,-5.666106 3.55515,-8.026295 0.2811,0.291077 0.52613,0.617855 0.73854,0.967493 -0.89866,1.294377 -1.65015,2.695822 -2.22853,4.186837 -0.57189,0.659766 -0.9574,1.22802 -1.15348,1.767841 -0.49339,0.930627 -0.51301,1.613217 0.0555,2.264516 -0.0392,0.247297 -0.0751,0.502814 -0.10788,0.754133"
       style="fill:#6c6940;fill-opacity:1;fill-rule:nonzero;stroke:none;stroke-width:0.326765"
       id="path12250" />
    <path
       d="m 192.64987,89.499077 c -1.856,-1.677247 -3.39835,-3.692702 -4.52572,-5.950726 0.33987,-1.072057 0.794,-1.640276 1.33318,-1.885351 v -3.692525 l -0.32342,0.261408 -0.97381,0.924419 c 0.45096,0.872808 0.21569,1.715559 -0.67642,2.973917 -0.53258,-1.313286 -0.93122,-2.695822 -1.17961,-4.130605 0.085,-0.01012 0.16668,-0.01633 0.24511,-0.01633 0.37902,0 0.69927,0.127388 0.97052,0.349638 l 1.29396,-1.104159 -2.76116,-1.428292 c -0.0263,-0.40192 -0.036,-0.81033 -0.036,-1.218882 0,-0.0025 0,-0.0065 0,-0.01041 0.049,0.144462 0.0719,0.284621 0.0686,0.422522 l 1.97697,0.826029 c 0.40516,0.578132 1.06525,1.235534 1.98998,2.058635 0.12418,0.115005 0.2516,0.22613 0.38234,0.339478 l -0.1797,3.254975 0.40513,-0.04226 c 0.0229,0 0.0457,0 0.0686,0 0.79075,0 1.21232,0.425168 1.49984,1.320165 0.24835,0.513045 0.37578,1.214896 0.43134,2.15706 0.0687,0.509376 0.12093,1.02242 0.15363,1.529186 h 0.003 l 0.0131,0.264089 v 0 c 0.0229,0.47999 0.0261,0.954793 0.003,1.415451 v 0 l -0.003,0.04223 -0.01,0.136525 -0.007,0.125201 -0.003,-0.004 c -0.0327,0.376767 -0.0817,0.739175 -0.16013,1.082569 m 10.34863,-3.187206 c -1.7612,0 -3.95714,-1.139825 -6.02879,-2.593905 l -0.0261,0.01669 -0.24183,-0.206834 c -1.17637,-0.845997 -2.30374,-1.780575 -3.28401,-2.65236 -0.48686,-0.437868 -0.88878,-0.820491 -1.20575,-1.163884 2.94417,2.352322 6.4209,4.542613 9.06444,4.542613 1.22213,0 2.26452,-0.470852 2.9965,-1.608314 0.28099,-0.440125 0.44436,-0.862682 0.50317,-1.271164 0.0294,0.02293 0.0588,0.04971 0.085,0.07518 -0.27122,1.039072 -0.25813,2.144572 0.14704,3.319957 0.0719,0.209409 0.15032,0.408481 0.2287,0.595065 -0.59143,0.666292 -1.35932,0.946962 -2.23834,0.946962 m -7.0679,-11.629567 c -1.46061,-0.571888 -2.84939,-1.097633 -3.94402,-1.600518 -0.98361,-0.454554 -1.75475,-0.649923 -2.36252,-0.649923 -1.00644,0 -1.5652,0.534917 -1.89526,1.33029 -0.098,0.230964 -0.15028,0.452826 -0.16013,0.675041 -0.28427,-0.326778 -0.56197,-0.743973 -0.85287,-1.26358 l 0.87245,-0.833649 c 0.22874,0.09451 0.48359,0.144462 0.77446,0.144462 0.59799,0 1.33646,-0.215935 2.25142,-0.703474 0.23855,-0.127458 0.48691,-0.253965 0.74175,-0.381705 0.01,0.06145 0.0163,0.12386 0.0262,0.182668 l 0.0849,-0.09839 c 0.0621,-0.07511 0.12418,-0.153141 0.18627,-0.228388 2.6991,-1.303091 6.09089,-2.603959 7.8456,-4.767475 0.82018,0.467325 1.82986,0.859085 2.93113,1.179266 0.0163,0.12125 0.0294,0.242852 0.0392,0.36897 0.28755,3.50386 -3.35911,5.175921 -6.53856,6.646405 m -9.68862,-2.430181 c -0.0228,-0.0526 -0.049,-0.104881 -0.0752,-0.157162 0.0328,-0.251319 0.0687,-0.506836 0.10788,-0.754133 0.0426,0.04441 0.085,0.09049 0.13399,0.136525 0.11765,0.117369 0.23851,0.225777 0.36597,0.320251 l -0.53266,0.454519 m 1.13065,-4.943652 c 0.57838,-1.491015 1.32987,-2.89246 2.22854,-4.186837 0.21893,0.362726 0.40516,0.751911 0.56197,1.164308 -0.83319,0.747959 -1.62726,1.63382 -2.36252,2.551395 -0.15349,0.159738 -0.29404,0.316583 -0.42799,0.471134"
       style="fill:#1d1410;fill-opacity:1;fill-rule:nonzero;stroke:none;stroke-width:0.326765"
       id="path12252" />
    <path
       d="m 181.01702,72.130944 c -0.64043,0.879263 -1.42797,0.94428 -3.23494,0.613586 -4.7087,-0.855168 -14.01494,-3.81889 -8.34231,-8.028623 4.33617,-3.217933 8.80308,2.758582 11.15243,4.758726 1.15355,0.980264 1.02934,1.820051 0.42482,2.656311"
       style="fill:#3d6428;fill-opacity:1;fill-rule:nonzero;stroke:none;stroke-width:0.326765"
       id="path12254" />
    <path
       d="m 179.71654,69.977483 c -0.36276,1.407759 -1.50964,1.549505 -3.95386,1.235568 -4.15971,-0.536222 -8.65276,-1.824037 -8.60372,-5.620103 0.0588,-4.38972 5.75754,-0.830897 9.767,0.557813 2.66633,0.921455 3.17285,2.337047 2.79058,3.826722"
       style="fill:#61992f;fill-opacity:1;fill-rule:nonzero;stroke:none;stroke-width:0.326765"
       id="path12256" />
    <path
       d="m 173.90668,68.073082 -1.55544,3.211513 1.22866,0.343041 0.32678,-3.554554 -1.55544,3.211513 1.22866,0.343041 0.32678,-3.554554"
       style="fill:#3d6428;fill-opacity:1;fill-rule:nonzero;stroke:none;stroke-width:0.326765"
       id="path12258" />
    <path
       d="m 172.27935,67.082376 2.06516,-2.349782 -0.95419,-0.574428 -1.11097,2.92421 2.06516,-2.349782 -0.95419,-0.574428 -1.11097,2.92421"
       style="fill:#3d6428;fill-opacity:1;fill-rule:nonzero;stroke:none;stroke-width:0.326765"
       id="path12260" />
    <path
       d="m 174.58955,68.213276 1.78089,-2.523243 -0.38562,-0.231034 -1.39527,2.754277 1.78089,-2.523243 -0.38562,-0.231034 -1.39527,2.754277"
       style="fill:#3d6428;fill-opacity:1;fill-rule:nonzero;stroke:none;stroke-width:0.326765"
       id="path12262" />
    <path
       d="m 175.19414,68.425401 2.38206,-1.963243 -0.31041,-0.324168 -2.07165,2.287411 2.38206,-1.963243 -0.31041,-0.324168 -2.07165,2.287411"
       style="fill:#3d6428;fill-opacity:1;fill-rule:nonzero;stroke:none;stroke-width:0.326765"
       id="path12264" />
    <path
       d="m 175.63194,68.91548 0.41172,3.496063 0.47061,-0.08816 -0.88233,-3.407904 0.41172,3.496063 0.47061,-0.08816 -0.88233,-3.407904"
       style="fill:#3d6428;fill-opacity:1;fill-rule:nonzero;stroke:none;stroke-width:0.326765"
       id="path12266" />
    <path
       d="m 171.53107,66.827177 14.15542,7.312695 0.53915,-1.152489 -14.69457,-6.160206 14.15542,7.312695 0.53915,-1.152489 -14.69457,-6.160206"
       style="fill:#7ec229;fill-opacity:1;fill-rule:nonzero;stroke:none;stroke-width:0.326765"
       id="path12268" />
    <path
       d="m 186.34005,71.016272 c -0.74831,-1.562241 0.0294,-2.817037 2.35924,-5.0939 4.72171,-4.620789 11.42693,-9.522284 11.9531,-3.081408 0.41169,5.028918 -6.09093,6.836587 -10.03826,8.939989 -2.41152,1.288062 -3.58137,0.676699 -4.27408,-0.764681"
       style="fill:#3d6428;fill-opacity:1;fill-rule:nonzero;stroke:none;stroke-width:0.326765"
       id="path12270" />
    <path
       d="m 186.40866,71.477353 c -1.03586,-1.020128 -0.58162,-2.08213 0.91818,-4.034861 2.54878,-3.330399 5.91771,-6.572251 9.17226,-4.624353 3.77091,2.253968 -2.16645,5.395137 -5.37849,8.169064 -2.13378,1.842947 -3.61731,1.571131 -4.71195,0.49015"
       style="fill:#61992f;fill-opacity:1;fill-rule:nonzero;stroke:none;stroke-width:0.326765"
       id="path12272" />
    <path
       d="m 192.74462,67.330062 2.4867,1.826612 0.23858,-0.377719 -2.72528,-1.448893 2.4867,1.826612 0.23858,-0.377719 -2.72528,-1.448893"
       style="fill:#3d6428;fill-opacity:1;fill-rule:nonzero;stroke:none;stroke-width:0.326765"
       id="path12274" />
    <path
       d="m 193.33937,66.889583 2.48998,1.826613 0.23523,-0.376414 -2.72521,-1.450199 2.48998,1.826613 0.23523,-0.376414 -2.72521,-1.450199"
       style="fill:#3d6428;fill-opacity:1;fill-rule:nonzero;stroke:none;stroke-width:0.326765"
       id="path12276" />
    <path
       d="m 194.54838,64.945672 4.86551,1.016211 0.0948,-0.712293 -4.96026,-0.303918 4.86551,1.016211 0.0948,-0.712293 -4.96026,-0.303918"
       style="fill:#3d6428;fill-opacity:1;fill-rule:nonzero;stroke:none;stroke-width:0.326765"
       id="path12278" />
    <path
       d="m 194.35227,65.412961 0.013,-3.669947 -0.71885,0.06897 0.7058,3.600979 0.013,-3.669947 -0.71885,0.06897 0.7058,3.600979"
       style="fill:#3d6428;fill-opacity:1;fill-rule:nonzero;stroke:none;stroke-width:0.326765"
       id="path12280" />
    <path
       d="m 189.1731,65.25213 -0.21565,0.232339 2.08481,2.76091 z"
       style="fill:#3d6428;fill-opacity:1;fill-rule:nonzero;stroke:none;stroke-width:0.326765"
       id="path12282" />
    <path
       d="m 190.67618,63.850649 -0.27774,0.23234 1.25151,3.529118 z"
       style="fill:#3d6428;fill-opacity:1;fill-rule:nonzero;stroke:none;stroke-width:0.326765"
       id="path12284" />
    <path
       d="m 199.90079,60.593134 -17.52117,14.955733 0.85288,0.947314 16.66829,-15.903047 -17.52117,14.955733 0.85288,0.947314 16.66829,-15.903047"
       style="fill:#7ec229;fill-opacity:1;fill-rule:nonzero;stroke:none;stroke-width:0.326765"
       id="path12286" />
    <path
       d="m 187.18961,78.800208 c 1.61748,0.52571 1.97697,1.92458 2.01944,5.117078 0.0817,6.476471 -0.9803,14.547251 -5.90458,10.563649 -3.84281,-3.110795 -0.72553,-8.946445 0.45416,-13.167608 0.71886,-2.582122 1.94095,-2.99974 3.43098,-2.513119"
       style="fill:#3d6428;fill-opacity:1;fill-rule:nonzero;stroke:none;stroke-width:0.326765"
       id="path12288" />
    <path
       d="m 186.81711,78.531815 c 1.42469,-0.04212 1.86909,0.997091 2.24159,3.385326 0.63718,4.059132 0.65676,8.640023 -2.92778,9.633057 -4.14662,1.147656 -2.3592,-5.188691 -2.15339,-9.342227 0.14051,-2.760839 1.32994,-3.626097 2.83958,-3.676156"
       style="fill:#61992f;fill-opacity:1;fill-rule:nonzero;stroke:none;stroke-width:0.326765"
       id="path12290" />
    <path
       d="m 185.47412,85.831846 -2.98013,0.529661 0.10785,0.425132 2.87228,-0.954793 -2.98013,0.529661 0.10785,0.425132 2.87228,-0.954793"
       style="fill:#3d6428;fill-opacity:1;fill-rule:nonzero;stroke:none;stroke-width:0.326765"
       id="path12292" />
    <path
       d="m 185.38261,86.5543 -2.98009,0.526132 0.10784,0.42732 2.87225,-0.953452 -2.98009,0.526132 0.10784,0.42732 2.87225,-0.953452"
       style="fill:#3d6428;fill-opacity:1;fill-rule:nonzero;stroke:none;stroke-width:0.326765"
       id="path12294" />
    <path
       d="m 185.94137,88.726988 -4.00942,2.762073 0.44118,0.551286 3.56824,-3.313359 -4.00942,2.762073 0.44118,0.551286 3.56824,-3.313359"
       style="fill:#3d6428;fill-opacity:1;fill-rule:nonzero;stroke:none;stroke-width:0.326765"
       id="path12296" />
    <path
       d="m 185.74534,88.273703 2.5945,2.488989 0.43462,-0.555167 -3.02912,-1.933822 2.5945,2.488989 0.43462,-0.555167 -3.02912,-1.933822"
       style="fill:#3d6428;fill-opacity:1;fill-rule:nonzero;stroke:none;stroke-width:0.326765"
       id="path12298" />
    <path
       d="m 189.36261,84.704791 -0.0196,-0.307516 -3.36899,-0.392077 z"
       style="fill:#3d6428;fill-opacity:1;fill-rule:nonzero;stroke:none;stroke-width:0.326765"
       id="path12300" />
    <path
       d="m 189.33972,86.720282 0.0262,-0.356165 -3.35258,-1.499799 z"
       style="fill:#3d6428;fill-opacity:1;fill-rule:nonzero;stroke:none;stroke-width:0.326765"
       id="path12302" />
    <path
       d="m 185.40879,95.468783 1.24819,-22.54677 -1.24819,-0.03302 v 22.57979 l 1.24819,-22.54677 -1.24819,-0.03302 v 22.57979"
       style="fill:#7ec229;fill-opacity:1;fill-rule:nonzero;stroke:none;stroke-width:0.326765"
       id="path12304" />
    <path
       d="m 183.78474,75.656358 c 0.85287,1.369449 0.26141,2.607593 -1.66321,4.957375 -3.89833,4.75735 -9.60363,9.979343 -10.7473,4.071762 -0.89532,-4.611582 4.94069,-6.947324 8.37826,-9.299999 2.10104,-1.438452 3.24478,-0.993035 4.03225,0.270862"
       style="fill:#3d6428;fill-opacity:1;fill-rule:nonzero;stroke:none;stroke-width:0.326765"
       id="path12306" />
    <path
       d="m 182.73254,75.232566 c 1.06529,0.838447 0.75163,1.868418 -0.43455,3.831591 -2.01944,3.340523 -4.80674,6.68341 -8.01885,5.215502 -3.7186,-1.702682 1.45412,-5.215502 4.14662,-8.110256 1.78417,-1.925002 3.18273,-1.822662 4.30678,-0.936837"
       style="fill:#61992f;fill-opacity:1;fill-rule:nonzero;stroke:none;stroke-width:0.326765"
       id="path12308" />
    <path
       d="m 176.377,81.774019 2.15011,2.532451 0.75153,-0.91888 -2.90164,-1.613571 2.15011,2.532451 0.75153,-0.91888 -2.90164,-1.613571"
       style="fill:#3d6428;fill-opacity:1;fill-rule:nonzero;stroke:none;stroke-width:0.326765"
       id="path12310" />
    <path
       d="m 175.69403,82.103408 0.93458,3.189923 1.062,-0.533647 -1.99658,-2.656276 0.93458,3.189923 1.062,-0.533647 -1.99658,-2.656276"
       style="fill:#3d6428;fill-opacity:1;fill-rule:nonzero;stroke:none;stroke-width:0.326765"
       id="path12312" />
    <path
       d="m 174.91964,82.786351 -1.22212,-2.643506 -0.85284,0.598594 2.07496,2.044912 -1.22212,-2.643506 -0.85284,0.598594 2.07496,2.044912"
       style="fill:#3d6428;fill-opacity:1;fill-rule:nonzero;stroke:none;stroke-width:0.326765"
       id="path12314" />
    <path
       d="m 177.74282,80.62026 3.13041,0.963612 0.10456,-0.433952 -3.23497,-0.52966 3.13041,0.963612 0.10456,-0.433952 -3.23497,-0.52966"
       style="fill:#3d6428;fill-opacity:1;fill-rule:nonzero;stroke:none;stroke-width:0.326765"
       id="path12316" />
    <path
       d="m 174.42293,83.332698 11.54787,-9.312805 -0.7777,-0.892387 -10.77017,10.205192 11.54787,-9.312805 -0.7777,-0.892387 -10.77017,10.205192"
       style="fill:#7ec229;fill-opacity:1;fill-rule:nonzero;stroke:none;stroke-width:0.326765"
       id="path12318" />
    <path
       d="m 185.53949,71.41858 c -1.79726,0.07511 -2.7644,-1.173127 -4.21527,-4.313026 -2.93434,-6.359138 -5.47003,-14.717149 1.06193,-12.59318 5.09753,1.659326 4.64989,8.567138 5.36878,13.165033 0.44443,2.81312 -0.55876,3.672169 -2.21544,3.741173"
       style="fill:#3d6428;fill-opacity:1;fill-rule:nonzero;stroke:none;stroke-width:0.326765"
       id="path12320" />
    <path
       d="m 185.62768,69.912219 c -1.32665,0.597605 -2.15007,-0.213078 -3.43101,-2.314258 -2.18277,-3.580342 -3.98656,-7.894638 -0.99342,-10.226393 3.46368,-2.699668 4.24473,3.969561 5.66939,7.97246 0.94766,2.65363 0.16012,3.933861 -1.24496,4.568191"
       style="fill:#61992f;fill-opacity:1;fill-rule:nonzero;stroke:none;stroke-width:0.326765"
       id="path12322" />
    <path
       d="m 182.54956,60.612431 -3.48001,0.79368 0.5032,1.170517 2.97681,-1.964197 -3.48001,0.79368 0.5032,1.170517 2.97681,-1.964197"
       style="fill:#3d6428;fill-opacity:1;fill-rule:nonzero;stroke:none;stroke-width:0.326765"
       id="path12324" />
    <path
       d="m 182.30448,58.720484 3.1272,0.147003 -0.15039,-1.10804 -2.97681,0.961037 3.1272,0.147003 -0.15039,-1.10804 -2.97681,0.961037"
       style="fill:#3d6428;fill-opacity:1;fill-rule:nonzero;stroke:none;stroke-width:0.326765"
       id="path12326" />
    <path
       d="m 182.86653,61.229969 3.08137,-0.186161 -0.0588,-0.441819 -3.0226,0.62798 3.08137,-0.186161 -0.0588,-0.441819 -3.0226,0.62798"
       style="fill:#3d6428;fill-opacity:1;fill-rule:nonzero;stroke:none;stroke-width:0.326765"
       id="path12328" />
    <path
       d="m 183.07886,61.835159 3.02264,0.632954 0.0588,-0.444041 -3.08145,-0.188913 3.02264,0.632954 0.0588,-0.444041 -3.08145,-0.188913"
       style="fill:#3d6428;fill-opacity:1;fill-rule:nonzero;stroke:none;stroke-width:0.326765"
       id="path12330" />
    <path
       d="m 182.96781,62.484764 -2.47036,2.50698 0.36604,0.310092 2.10432,-2.817072 -2.47036,2.50698 0.36604,0.310092 2.10432,-2.817072"
       style="fill:#3d6428;fill-opacity:1;fill-rule:nonzero;stroke:none;stroke-width:0.326765"
       id="path12332" />
    <path
       d="m 182.03655,57.979051 3.14021,15.619696 1.23847,-0.301273 -4.37868,-15.318423 3.14021,15.619696 1.23847,-0.301273 -4.37868,-15.318423"
       style="fill:#7ec229;fill-opacity:1;fill-rule:nonzero;stroke:none;stroke-width:0.326765"
       id="path12334" />
    <path
       d="m 187.72879,73.762153 c -0.51629,1.238039 0.21562,2.231143 2.32329,4.116212 4.42768,3.960742 11.50215,9.006629 14.22086,4.767509 2.99964,-4.673035 -7.49924,-7.362366 -12.28637,-9.564088 -2.61743,-1.206429 -3.72843,-0.59115 -4.25778,0.680367"
       style="fill:#3d6428;fill-opacity:1;fill-rule:nonzero;stroke:none;stroke-width:0.326765"
       id="path12336" />
    <path
       d="m 189.03912,74.127102 c -0.89856,0.778651 -0.47057,1.575012 0.8855,3.066027 2.29722,2.524584 5.45049,5.172075 9.68855,4.671766 6.7902,-0.796678 -1.79391,-4.604103 -5.56471,-7.266905 -2.36584,-1.669415 -3.95059,-1.38617 -5.00934,-0.470888"
       style="fill:#61992f;fill-opacity:1;fill-rule:nonzero;stroke:none;stroke-width:0.326765"
       id="path12338" />
    <path
       d="m 196.79977,79.591595 -2.61736,1.640064 -0.85613,-0.728733 3.47349,-0.911331 -2.61736,1.640064 -0.85613,-0.728733 3.47349,-0.911331"
       style="fill:#3d6428;fill-opacity:1;fill-rule:nonzero;stroke:none;stroke-width:0.326765"
       id="path12340" />
    <path
       d="m 198.79303,80.580678 2.19915,-2.218443 1.40508,0.63694 -3.60423,1.581503 2.19915,-2.218443 1.40508,0.63694 -3.60423,1.581503"
       style="fill:#3d6428;fill-opacity:1;fill-rule:nonzero;stroke:none;stroke-width:0.326765"
       id="path12342" />
    <path
       d="m 196.30962,79.126881 2.23185,-2.130461 0.52278,0.23495 -2.75463,1.895511 2.23185,-2.130461 0.52278,0.23495 -2.75463,1.895511"
       style="fill:#3d6428;fill-opacity:1;fill-rule:nonzero;stroke:none;stroke-width:0.326765"
       id="path12344" />
    <path
       d="m 195.777,78.741365 1.11749,-2.444256 0.57845,0.127458 -1.69594,2.316798 1.11749,-2.444256 0.57845,0.127458 -1.69594,2.316798"
       style="fill:#3d6428;fill-opacity:1;fill-rule:nonzero;stroke:none;stroke-width:0.326765"
       id="path12346" />
    <path
       d="m 195.02872,78.551182 -3.47349,0.539786 -0.13726,-0.316266 3.61075,-0.22352 -3.47349,0.539786 -0.13726,-0.316266 3.61075,-0.22352"
       style="fill:#3d6428;fill-opacity:1;fill-rule:nonzero;stroke:none;stroke-width:0.326765"
       id="path12348" />
    <path
       d="m 199.48254,81.091112 -13.56734,-7.655772 0.50331,-0.84007 13.06403,8.495842 -13.56734,-7.655772 0.50331,-0.84007 13.06403,8.495842"
       style="fill:#7ec229;fill-opacity:1;fill-rule:nonzero;stroke:none;stroke-width:0.326765"
       id="path12350" />
    <path
       d="m 224.11405,95.687047 c -0.745,0 -1.6371,-0.284586 -2.6991,-0.921421 -0.31038,-0.188912 -0.59472,-0.391865 -0.85281,-0.607554 2.82321,-2.090914 5.1792,-4.777599 6.88167,-7.875658 0.25817,4.993323 -0.40523,9.404633 -3.32976,9.404633 M 240.8281,79.101445 c -2.40831,0 -5.38837,-1.105394 -8.28351,-2.582404 l -0.0327,0.02674 -0.39211,-0.24504 c -0.57182,-0.301272 -1.13715,-0.615244 -1.69591,-0.935531 0.01,-0.260421 0.0131,-0.522182 0.0131,-0.783625 0,-2.59775 -0.40855,-5.096828 -1.16007,-7.444282 6.56473,1.775636 18.66805,3.399331 15.91349,9.402269 -0.84311,1.839383 -2.4148,2.561872 -4.36231,2.561872 M 228.18884,64.347043 c -1.15026,-2.476253 -2.70566,-4.731562 -4.58124,-6.671875 0.40189,-0.565362 0.82342,-1.101549 1.26132,-1.597872 v 0 l 0.0424,-0.05006 0.13726,-0.149295 0.12418,-0.137901 v 0.0039 c 0.49996,-0.536187 1.02605,-1.013248 1.56845,-1.415485 2.64026,-2.800386 5.40801,-4.992018 7.49928,-4.992018 1.40176,0 2.49978,0.98298 3.05192,3.427095 1.21563,5.398171 -4.62369,8.646584 -9.10358,11.58353 m -7.45677,-9.21445 c -3.37223,-2.542505 -7.43063,-4.228642 -11.84529,-4.731527 -0.65352,-2.85302 -0.0556,-4.874719 2.90171,-4.874719 0.45748,0 0.97049,0.0484 1.54234,0.149331 4.49954,0.791104 6.22159,5.062221 7.40124,9.456915"
       style="fill:#677461;fill-opacity:1;fill-rule:nonzero;stroke:none;stroke-width:0.326765"
       id="path12352" />
    <path
       d="m 220.56214,94.158072 c -0.83982,-0.712329 -1.40187,-1.575258 -1.75796,-2.545115 3.87212,-2.895142 6.72479,-7.078028 7.92074,-11.914188 0.14051,0.529696 0.26469,1.062037 0.37575,1.591663 h 0.003 l 0.0751,0.375143 h -0.003 c 0.13067,0.693032 0.23198,1.378586 0.29079,2.046218 h 0.003 l 0.004,0.06502 0.0163,0.196709 0.0131,0.182316 -0.007,-0.0037 c 0.0425,0.719843 0.0262,1.41157 -0.0555,2.069042 0,0.01898 0.003,0.04216 0.003,0.0611 -1.7024,3.098059 -4.05839,5.784674 -6.88163,7.875659 m 9.86176,-18.792862 c -1.0849,-0.622794 -2.13378,-1.27635 -3.10751,-1.91456 -0.13078,-2.463448 -0.67974,-4.816123 -1.57833,-6.985847 0.0686,-0.0025 0.1373,-0.0065 0.20588,-0.0065 0.66005,0 1.46392,0.13395 2.44746,0.427743 0.28103,0.08523 0.57838,0.16697 0.88551,0.251284 0.75156,2.347489 1.16004,4.846532 1.16004,7.444282 0,0.261443 -0.003,0.523204 -0.013,0.783625 m -4.83609,-9.260523 C 222.8133,59.74054 217.01318,54.99455 210.00736,53.691424 c -0.49992,-1.166495 -0.88882,-2.281132 -1.12081,-3.2905 4.41467,0.50292 8.47302,2.189057 11.84526,4.731562 0.46397,1.715523 0.843,3.453871 1.27109,5.006058 l 0.10785,-0.160831 c 0.38886,-0.656132 0.80059,-1.303126 1.22862,-1.927261 v 0 l 0.22221,-0.320498 0.003,0.0039 c 0.0131,-0.02057 0.0261,-0.03955 0.0425,-0.05877 1.87561,1.940313 3.43104,4.195622 4.58124,6.671875 -0.60452,0.395711 -1.18293,0.785213 -1.71556,1.173057 -0.31041,0.228424 -0.60448,0.421252 -0.88554,0.584588"
       style="fill:#4a2d1b;fill-opacity:1;fill-rule:nonzero;stroke:none;stroke-width:0.326765"
       id="path12354" />
    <path
       d="m 218.80418,91.612957 c -0.14055,-0.389467 -0.25164,-0.794032 -0.33006,-1.212603 4.06164,-3.182373 6.86855,-7.897284 7.54825,-13.273582 0.20916,0.552591 0.38558,1.210027 0.54243,1.989666 0.0555,0.192829 0.10781,0.389502 0.16012,0.582331 -1.19595,4.83616 -4.04862,9.019046 -7.92074,11.914188 m 8.51217,-18.162307 c -0.16012,-0.10481 -0.32018,-0.211984 -0.47713,-0.316618 -0.26462,-0.176106 -0.51622,-0.345969 -0.75148,-0.512974 -0.19932,-2.074298 -0.71893,-4.061742 -1.50316,-5.904936 0.31698,-0.142839 0.69928,-0.23241 1.15345,-0.251319 0.89866,2.169725 1.44758,4.5224 1.57832,6.985847 m -2.78405,-6.855813 c -2.50952,-5.783439 -7.66261,-10.155167 -13.93327,-11.592313 -0.006,-0.01044 -0.01,-0.02057 -0.0163,-0.02935 l -0.13723,-0.229764 0.0261,-0.0091 c -0.16341,-0.349709 -0.32025,-0.699347 -0.46405,-1.042776 7.00589,1.303161 12.80594,6.049081 15.58019,12.413157 -0.37582,0.215653 -0.7287,0.379024 -1.05548,0.490149"
       style="fill:#6c6940;fill-opacity:1;fill-rule:nonzero;stroke:none;stroke-width:0.326765"
       id="path12356" />
    <path
       d="m 218.47412,90.400354 c -0.70256,-3.640561 0.72863,-8.313562 1.209,-11.939694 0.24504,-1.856035 0.81365,-2.879831 1.59791,-3.376154 l -0.75487,-5.335729 -0.41169,0.444429 -1.21557,1.535465 c 1.04563,1.470414 0.50645,3.095449 -1.35276,6.153609 -2.83313,4.656385 -6.75104,9.759457 -9.65271,9.759457 -1.05219,0 -1.97033,-0.668866 -2.65659,-2.276828 0.11437,-0.123895 0.21897,-0.268322 0.32021,-0.421534 0.85941,-1.340097 0.42154,-2.486378 -0.69596,-3.493488 0.8267,-3.192145 4.30347,-5.80002 7.18556,-8.169099 l 0.16993,-0.232339 c 1.09785,-1.573707 2.1468,-2.24783 3.14346,-2.369045 0.47375,-0.230998 0.90516,-0.339513 1.30377,-0.339513 0.415,0 0.79406,0.117334 1.1437,0.326813 l 1.64038,-1.856034 -4.55185,-1.594309 -0.18955,0.408446 c -0.55224,1.039143 -1.34955,1.336464 -3.05192,1.336464 -0.2517,0 -0.52617,-0.0062 -0.82345,-0.0163 -0.64051,-0.02586 -1.3529,-0.07549 -2.10446,-0.144497 l -0.098,0.03337 -0.01,-0.04212 c -1.3626,-0.131692 -2.84942,-0.339584 -4.28716,-0.644702 l -0.44768,-0.0611 0.0131,-0.03598 c -0.49999,-0.114688 -0.99339,-0.2425 -1.46717,-0.383011 -0.22228,-1.621085 -0.97381,-2.266738 -2.02272,-2.266738 -0.0686,0 -0.14051,0.0028 -0.21562,0.0062 0.36594,-0.751558 0.54236,-1.597907 0.46077,-2.565471 -0.17975,-2.222324 -1.09803,-3.094108 -2.41484,-3.094108 -0.4542,0 -0.95744,0.104563 -1.49659,0.293758 0.43462,-0.771172 1.32341,-1.055829 2.48014,-1.055829 0.5915,0 1.25154,0.07549 1.95735,0.19678 0.61753,-0.232375 1.24823,-0.337256 1.8887,-0.337256 1.98014,0 4.02569,0.99307 5.88176,2.189304 l 0.0947,-0.143122 0.33662,0.264407 c 1.92458,0.523134 2.87877,1.407689 3.21536,2.486342 0.40513,0.294711 0.78747,0.569172 1.12737,0.781227 0.87566,0.555237 1.258,1.127054 1.3299,1.715523 l 4.55182,1.195987 -0.4705,-1.340379 c -1.66331,-0.15942 -2.97032,-1.594309 -4.92111,-4.616838 -1.30711,-2.029602 -2.6011,-4.250232 -3.61406,-6.374236 6.27066,1.437146 11.42375,5.808874 13.93327,11.592313 -0.39207,0.133985 -0.75156,0.196674 -1.08486,0.196674 -0.20588,0 -0.40517,-0.02314 -0.5914,-0.06893 l -0.68947,0.869209 1.19264,0.555237 c 0.22225,-0.636905 0.60127,-1.143705 1.22537,-1.430902 0.78423,1.843194 1.30384,3.830638 1.50316,5.904936 -1.9116,-1.336463 -2.82,-2.277251 -2.89194,-3.37252 l -1.307,-0.51308 0.5032,5.914778 0.5751,-0.14672 c 0.17318,-0.02939 0.3333,-0.04346 0.48362,-0.04346 0.92149,0 1.52273,0.540138 2.05207,1.625 0.19604,0.293793 0.36601,0.639516 0.51958,1.041718 -0.6797,5.376298 -3.48661,10.091209 -7.54825,13.273582 m 2.57489,-24.693952 -0.49015,0.163371 0.49992,1.12081 0.69279,-0.783625 -0.51308,-0.324414 -0.18948,-0.176142"
       style="fill:#1d1410;fill-opacity:1;fill-rule:nonzero;stroke:none;stroke-width:0.326765"
       id="path12358" />
    <path
       d="m 205.23684,85.364909 c -0.0784,-0.186584 -0.15681,-0.385656 -0.22871,-0.595065 -0.40516,-1.175385 -0.41825,-2.280885 -0.14704,-3.319957 1.1175,1.00711 1.55537,2.153391 0.69596,3.493488 -0.10124,0.153212 -0.20584,0.297639 -0.32021,0.421534 m -2.80688,-17.69798 c -1.10126,-0.320181 -2.11095,-0.711941 -2.93112,-1.179266 0.27449,-0.339513 0.50976,-0.695713 0.69278,-1.081228 0.0751,-0.0037 0.14704,-0.0062 0.21562,-0.0062 1.04891,0 1.80044,0.645653 2.02272,2.266738"
       style="fill:#181311;fill-opacity:1;fill-rule:nonzero;stroke:none;stroke-width:0.326765"
       id="path12360" />
    <path
       d="m 199.49884,66.487663 c -0.3888,-0.222214 -0.73519,-0.464679 -1.03255,-0.722418 l 0.9476,0.196638 0.0948,-0.712293 -1.61096,-0.09842 c -0.0816,-0.114653 -0.15684,-0.232269 -0.21889,-0.353519 0.11105,-0.53848 -0.0458,-1.054171 -0.57186,-1.538076 l 2.79386,-2.666436 -2.96051,2.52596 c -0.0686,-0.05228 -0.14376,-0.10855 -0.22225,-0.163442 -0.10121,-0.30353 -0.17642,-0.630308 -0.22214,-0.977653 -0.10781,-0.846314 -0.0131,-1.476693 0.24507,-1.937385 0.53915,-0.189195 1.04239,-0.293758 1.49659,-0.293758 1.31681,0 2.23509,0.871784 2.41484,3.094108 0.0816,0.967564 -0.0948,1.813913 -0.46077,2.565471 -0.18302,0.385515 -0.41829,0.741715 -0.69278,1.081228"
       style="fill:#2c421c;fill-opacity:1;fill-rule:nonzero;stroke:none;stroke-width:0.326765"
       id="path12362" />
    <path
       d="m 197.67879,64.797646 c -0.0621,-0.1137 -0.11113,-0.231034 -0.15364,-0.352284 -0.24172,-0.303847 -0.44764,-0.634224 -0.61426,-0.996915 l 0.19604,-0.188877 c 0.5261,0.483905 0.68291,0.999596 0.57186,1.538076 M 196.8161,63.22655 c -0.036,-0.08819 -0.0686,-0.180022 -0.0981,-0.270898 0.0785,0.05489 0.15364,0.11116 0.22225,0.163442 l -0.12418,0.107456"
       style="fill:#3f6628;fill-opacity:1;fill-rule:nonzero;stroke:none;stroke-width:0.326765"
       id="path12364" />
    <path
       d="m 199.41389,65.961883 -0.9476,-0.196638 c -0.21893,-0.195474 -0.41176,-0.398427 -0.56861,-0.61408 l 1.61096,0.09842 -0.0948,0.712293"
       style="fill:#2c421c;fill-opacity:1;fill-rule:nonzero;stroke:none;stroke-width:0.326765"
       id="path12366" />
    <path
       d="m 196.91089,63.448447 c -0.0327,-0.07161 -0.0654,-0.146755 -0.0948,-0.221897 l 0.12418,-0.107456 2.96051,-2.52596 -2.79386,2.666436 -0.19604,0.188877"
       style="fill:#4e842f;fill-opacity:1;fill-rule:nonzero;stroke:none;stroke-width:0.326765"
       id="path12368" />
    <path
       d="m 207.15168,63.040001 c -0.74178,1.39887 -1.86584,1.654387 -4.54201,1.549506 -6.9699,-0.282046 -21.01752,-2.66379 -13.6784,-9.894782 5.60402,-5.529475 13.26671,2.186728 17.06693,4.597577 1.86585,1.183534 1.85928,2.417762 1.15348,3.747699"
       style="fill:#3d6428;fill-opacity:1;fill-rule:nonzero;stroke:none;stroke-width:0.326765"
       id="path12370" />
    <path
       d="m 204.83495,60.197459 c -0.2353,2.107283 -1.86256,2.54254 -5.45373,2.588613 -6.11374,0.07158 -12.86147,-0.869174 -13.56402,-6.359138 -0.81365,-6.352681 8.13978,-2.375605 14.2143,-1.187167 4.03228,0.78747 5.05506,2.729159 4.80345,4.957692"
       style="fill:#61992f;fill-opacity:1;fill-rule:nonzero;stroke:none;stroke-width:0.326765"
       id="path12372" />
    <path
       d="m 196.06458,58.628621 -1.59142,4.953811 1.83971,0.24504 -0.24829,-5.198851 -1.59142,4.953811 1.83971,0.24504 -0.24829,-5.198851"
       style="fill:#3d6428;fill-opacity:1;fill-rule:nonzero;stroke:none;stroke-width:0.326765"
       id="path12374" />
    <path
       d="m 193.51252,57.534974 2.50302,-3.813986 -1.49658,-0.637258 -1.00644,4.451244 2.50302,-3.813986 -1.49658,-0.637258 -1.00644,4.451244"
       style="fill:#3d6428;fill-opacity:1;fill-rule:nonzero;stroke:none;stroke-width:0.326765"
       id="path12376" />
    <path
       d="m 197.07423,58.693673 2.05867,-4.002864 -0.60124,-0.253859 -1.45743,4.256723 2.05867,-4.002864 -0.60124,-0.253859 -1.45743,4.256723"
       style="fill:#3d6428;fill-opacity:1;fill-rule:nonzero;stroke:none;stroke-width:0.326765"
       id="path12378" />
    <path
       d="m 197.99248,58.877611 3.03889,-3.319851 -0.51301,-0.405906 -2.52588,3.725757 3.03889,-3.319851 -0.51301,-0.405906 -2.52588,3.725757"
       style="fill:#3d6428;fill-opacity:1;fill-rule:nonzero;stroke:none;stroke-width:0.326765"
       id="path12380" />
    <path
       d="m 198.72438,59.495537 1.30712,4.962596 0.66329,-0.222144 -1.97041,-4.740452 1.30712,4.962596 0.66329,-0.222144 -1.97041,-4.740452"
       style="fill:#3d6428;fill-opacity:1;fill-rule:nonzero;stroke:none;stroke-width:0.326765"
       id="path12382" />
    <path
       d="m 192.37537,57.318968 21.92923,7.668861 0.5424,-1.774332 -22.47163,-5.894529 21.92923,7.668861 0.5424,-1.774332 -22.47163,-5.894529"
       style="fill:#7ec229;fill-opacity:1;fill-rule:nonzero;stroke:none;stroke-width:0.326765"
       id="path12384" />
    <path
       d="m 214.61177,60.348095 c -1.39859,-2.104708 -0.52942,-4.071867 2.36897,-7.836183 5.8753,-7.630266 14.55745,-16.073862 16.62914,-6.884917 1.62066,7.176065 -7.40456,11.110066 -12.67203,14.952099 -3.22181,2.349818 -5.03209,1.708961 -6.32608,-0.230999"
       style="fill:#3d6428;fill-opacity:1;fill-rule:nonzero;stroke:none;stroke-width:0.326765"
       id="path12386" />
    <path
       d="m 214.80456,61.001581 c -1.70247,-1.264885 -1.2646,-2.88858 0.49989,-6.015744 3.00302,-5.326592 7.20848,-10.692695 12.30598,-8.54583 5.90141,2.484049 -2.02921,8.231893 -6.10397,12.892123 -2.70556,3.093861 -4.89818,3.005985 -6.7019,1.669451"
       style="fill:#61992f;fill-opacity:1;fill-rule:nonzero;stroke:none;stroke-width:0.326765"
       id="path12388" />
    <path
       d="m 223.10761,53.720988 3.96042,2.130142 0.26794,-0.594642 -4.22836,-1.5355 3.96042,2.130142 0.26794,-0.594642 -4.22836,-1.5355"
       style="fill:#3d6428;fill-opacity:1;fill-rule:nonzero;stroke:none;stroke-width:0.326765"
       id="path12390" />
    <path
       d="m 223.87554,52.966502 3.96363,2.13046 0.26794,-0.598629 -4.23157,-1.531831 3.96363,2.13046 0.26794,-0.598629 -4.23157,-1.531831"
       style="fill:#3d6428;fill-opacity:1;fill-rule:nonzero;stroke:none;stroke-width:0.326765"
       id="path12392" />
    <path
       d="m 225.22833,49.910882 7.22803,0.477096 -0.007,-1.05156 -7.22147,0.574464 7.22803,0.477096 -0.007,-1.05156 -7.22147,0.574464"
       style="fill:#3d6428;fill-opacity:1;fill-rule:nonzero;stroke:none;stroke-width:0.326765"
       id="path12394" />
    <path
       d="m 225.03882,50.622928 -0.73198,-5.29717 -1.01949,0.245075 1.75147,5.052095 -0.73198,-5.29717 -1.01949,0.245075 1.75147,5.052095"
       style="fill:#3d6428;fill-opacity:1;fill-rule:nonzero;stroke:none;stroke-width:0.326765"
       id="path12396" />
    <path
       d="m 217.52645,51.449945 -0.26137,0.375497 3.57149,3.564961 z"
       style="fill:#3d6428;fill-opacity:1;fill-rule:nonzero;stroke:none;stroke-width:0.326765"
       id="path12398" />
    <path
       d="m 219.41191,49.116885 -0.35617,0.391759 2.52914,4.842652 z"
       style="fill:#3d6428;fill-opacity:1;fill-rule:nonzero;stroke:none;stroke-width:0.326765"
       id="path12400" />
    <path
       d="m 232.0675,42.535462 -22.24942,25.160924 1.42473,1.193659 20.82469,-26.354583 -22.24942,25.160924 1.42473,1.193659 20.82469,-26.354583"
       style="fill:#7ec229;fill-opacity:1;fill-rule:nonzero;stroke:none;stroke-width:0.326765"
       id="path12402" />
    <path
       d="m 217.42521,71.40842 c 2.44094,0.431306 3.24474,2.379169 3.95382,6.979391 1.43778,9.329421 1.55212,21.201452 -6.36862,16.453239 -6.18243,-3.705507 -2.86904,-12.767064 -2.02925,-19.103024 0.51297,-3.87544 2.19258,-4.724012 4.44405,-4.329606"
       style="fill:#3d6428;fill-opacity:1;fill-rule:nonzero;stroke:none;stroke-width:0.326765"
       id="path12404" />
    <path
       d="m 216.83049,71.101891 c 2.0488,-0.353554 2.90164,1.058087 3.92765,4.426691 1.74827,5.732393 2.70891,12.342919 -2.26444,14.505412 -5.75434,2.506592 -4.46359,-7.009095 -5.01259,-13.050309 -0.36269,-4.009073 1.18294,-5.506332 3.34938,-5.881794"
       style="fill:#61992f;fill-opacity:1;fill-rule:nonzero;stroke:none;stroke-width:0.326765"
       id="path12406" />
    <path
       d="m 216.37957,81.917141 -4.19241,1.369484 0.23851,0.591149 3.9539,-1.960633 -4.19241,1.369484 0.23851,0.591149 3.9539,-1.960633"
       style="fill:#3d6428;fill-opacity:1;fill-rule:nonzero;stroke:none;stroke-width:0.326765"
       id="path12408" />
    <path
       d="m 216.39259,82.972617 -4.19241,1.372094 0.24183,0.59242 3.95058,-1.964514 -4.19241,1.372094 0.24183,0.59242 3.95058,-1.964514"
       style="fill:#3d6428;fill-opacity:1;fill-rule:nonzero;stroke:none;stroke-width:0.326765"
       id="path12410" />
    <path
       d="m 217.64739,85.999133 -5.22824,4.80307 0.74827,0.705838 4.47997,-5.508908 -5.22824,4.80307 0.74827,0.705838 4.47997,-5.508908"
       style="fill:#3d6428;fill-opacity:1;fill-rule:nonzero;stroke:none;stroke-width:0.326765"
       id="path12412" />
    <path
       d="m 217.26836,85.381208 4.25122,3.068637 0.51626,-0.892351 -4.76748,-2.176286 4.25122,3.068637 0.51626,-0.892351 -4.76748,-2.176286"
       style="fill:#3d6428;fill-opacity:1;fill-rule:nonzero;stroke:none;stroke-width:0.326765"
       id="path12414" />
    <path
       d="m 221.76134,79.495851 -0.0849,-0.440478 -4.94393,0.119838 z"
       style="fill:#3d6428;fill-opacity:1;fill-rule:nonzero;stroke:none;stroke-width:0.326765"
       id="path12416" />
    <path
       d="m 222.1404,82.407291 -0.0359,-0.515585 -5.14333,-1.483184 z"
       style="fill:#3d6428;fill-opacity:1;fill-rule:nonzero;stroke:none;stroke-width:0.326765"
       id="path12418" />
    <path
       d="m 218.24538,95.837718 -2.79058,-32.800327 -1.80703,0.201894 4.59761,32.598433 -2.79058,-32.800327 -1.80703,0.201894 4.59761,32.598433"
       style="fill:#7ec229;fill-opacity:1;fill-rule:nonzero;stroke:none;stroke-width:0.326765"
       id="path12420" />
    <path
       d="m 211.86691,67.568927 c 1.50964,1.80079 0.90844,3.709106 -1.38882,7.489791 -4.65963,7.666249 -11.83213,16.364056 -14.68804,8.071097 -2.23174,-6.476824 5.71839,-11.03877 10.19831,-15.132157 2.74486,-2.503064 4.48328,-2.094583 5.87855,-0.428731"
       style="fill:#3d6428;fill-opacity:1;fill-rule:nonzero;stroke:none;stroke-width:0.326765"
       id="path12422" />
    <path
       d="m 210.26576,67.16669 c 1.70247,0.99695 1.46064,2.546491 0.15035,5.621373 -2.23513,5.234729 -5.57791,10.628948 -10.5186,9.162098 -5.71186,-1.696226 1.03907,-7.823059 4.3362,-12.551022 2.18603,-3.139935 4.22505,-3.284291 6.03205,-2.232449"
       style="fill:#61992f;fill-opacity:1;fill-rule:nonzero;stroke:none;stroke-width:0.326765"
       id="path12424" />
    <path
       d="m 202.41691,77.907786 3.62049,3.219274 0.90187,-1.480573 -4.52236,-1.738701 3.62049,3.219274 0.90187,-1.480573 -4.52236,-1.738701"
       style="fill:#3d6428;fill-opacity:1;fill-rule:nonzero;stroke:none;stroke-width:0.326765"
       id="path12426" />
    <path
       d="m 201.50515,78.525677 1.99659,4.411345 1.42465,-0.98425 -3.42124,-3.427095 1.99659,4.411345 1.42465,-0.98425 -3.42124,-3.427095"
       style="fill:#3d6428;fill-opacity:1;fill-rule:nonzero;stroke:none;stroke-width:0.326765"
       id="path12428" />
    <path
       d="m 200.52161,79.669418 -2.30367,-3.568948 -1.10776,1.036462 3.41143,2.532486 -2.30367,-3.568948 -1.10776,1.036462 3.41143,2.532486"
       style="fill:#3d6428;fill-opacity:1;fill-rule:nonzero;stroke:none;stroke-width:0.326765"
       id="path12430" />
    <path
       d="m 204.15529,75.967755 4.71844,0.750606 0.0588,-0.647348 -4.77728,-0.103258 4.71844,0.750606 0.0588,-0.647348 -4.77728,-0.103258"
       style="fill:#3d6428;fill-opacity:1;fill-rule:nonzero;stroke:none;stroke-width:0.326765"
       id="path12432" />
    <path
       d="M 199.91381,80.555172 214.6934,64.759405 213.38308,63.62847 199.91381,80.555172 214.6934,64.759405 213.38308,63.62847 199.91381,80.555172"
       style="fill:#7ec229;fill-opacity:1;fill-rule:nonzero;stroke:none;stroke-width:0.326765"
       id="path12434" />
    <path
       d="m 213.53668,61.092139 c -2.58145,0.474803 -4.23164,-1.133229 -6.96334,-5.368397 -5.53216,-8.584142 -10.89438,-20.134616 -1.03262,-18.395915 7.69857,1.351491 8.45672,11.416171 10.43686,17.909329 1.20908,3.973442 -0.0588,5.417115 -2.4409,5.854983"
       style="fill:#3d6428;fill-opacity:1;fill-rule:nonzero;stroke:none;stroke-width:0.326765"
       id="path12436" />
    <path
       d="m 213.36022,58.896908 c -1.79723,1.133264 -3.15003,0.133985 -5.42756,-2.639907 -3.88197,-4.728951 -7.36198,-10.587814 -3.51599,-14.563937 4.45057,-4.601493 6.94051,4.868439 9.80944,10.354557 1.90507,3.640173 1.02937,5.652947 -0.86589,6.849287"
       style="fill:#61992f;fill-opacity:1;fill-rule:nonzero;stroke:none;stroke-width:0.326765"
       id="path12438" />
    <path
       d="m 207.02098,46.0982 -4.86227,1.852084 0.96072,1.591662 3.90155,-3.443746 -4.86227,1.852084 0.96072,1.591662 3.90155,-3.443746"
       style="fill:#3d6428;fill-opacity:1;fill-rule:nonzero;stroke:none;stroke-width:0.326765"
       id="path12440" />
    <path
       d="m 206.28251,43.421357 4.54208,-0.427425 -0.44122,-1.568803 -4.10086,1.996228 4.54208,-0.427425 -0.44122,-1.568803 -4.10086,1.996228"
       style="fill:#3d6428;fill-opacity:1;fill-rule:nonzero;stroke:none;stroke-width:0.326765"
       id="path12442" />
    <path
       d="m 207.60267,46.927863 4.41124,-0.896338 -0.17646,-0.630308 -4.23478,1.526646 4.41124,-0.896338 -0.17646,-0.630308 -4.23478,1.526646"
       style="fill:#3d6428;fill-opacity:1;fill-rule:nonzero;stroke:none;stroke-width:0.326765"
       id="path12444" />
    <path
       d="m 208.03394,47.757491 4.48981,0.297427 -0.003,-0.653592 -4.48648,0.356165 4.4898,0.297427 -0.003,-0.653592 -4.48652,0.356165"
       style="fill:#3d6428;fill-opacity:1;fill-rule:nonzero;stroke:none;stroke-width:0.326765"
       id="path12446" />
    <path
       d="m 208.0078,48.714612 -3.05523,4.124114 0.58487,0.375426 2.47036,-4.49954 -3.05523,4.124114 0.58487,0.375426 2.47036,-4.49954"
       style="fill:#3d6428;fill-opacity:1;fill-rule:nonzero;stroke:none;stroke-width:0.326765"
       id="path12448" />
    <path
       d="m 205.74008,42.398866 7.71817,21.912511 1.72533,-0.686823 -9.4435,-21.225688 7.71817,21.912511 1.72533,-0.686823 -9.4435,-21.225688"
       style="fill:#7ec229;fill-opacity:1;fill-rule:nonzero;stroke:none;stroke-width:0.326765"
       id="path12450" />
    <path
       d="m 217.17685,64.026791 c -0.49671,1.892971 0.76458,3.183361 4.1891,5.473277 7.2052,4.817181 18.44265,10.655548 21.50441,3.986213 3.37549,-7.360991 -12.32556,-9.103325 -19.68433,-11.308998 -4.02248,-1.205054 -5.50277,-0.09084 -6.00918,1.849508"
       style="fill:#3d6428;fill-opacity:1;fill-rule:nonzero;stroke:none;stroke-width:0.326765"
       id="path12452" />
    <path
       d="m 219.14397,64.288552 c -1.14046,1.307042 -0.35616,2.372643 1.89855,4.245328 3.83286,3.178176 8.9239,6.355222 14.94293,4.773684 9.63951,-2.536331 -3.53237,-6.281421 -9.51541,-9.358878 -3.75454,-1.931176 -5.98636,-1.199515 -7.32607,0.339866"
       style="fill:#61992f;fill-opacity:1;fill-rule:nonzero;stroke:none;stroke-width:0.326765"
       id="path12454" />
    <path
       d="m 231.45976,70.595126 -3.44734,2.90128 -1.38225,-0.875348 4.82959,-2.025932 -3.44734,2.90128 -1.38225,-0.875348 4.82959,-2.025932"
       style="fill:#3d6428;fill-opacity:1;fill-rule:nonzero;stroke:none;stroke-width:0.326765"
       id="path12456" />
    <path
       d="m 234.53786,71.617582 2.72192,-3.652944 2.15989,0.636905 -4.88181,3.016039 2.72192,-3.652944 2.15989,0.636905 -4.88181,3.016039"
       style="fill:#3d6428;fill-opacity:1;fill-rule:nonzero;stroke:none;stroke-width:0.326765"
       id="path12458" />
    <path
       d="m 230.65589,70.025848 2.79058,-3.531658 0.80056,0.231986 -3.59114,3.299672 2.79058,-3.531658 0.80056,0.231986 -3.59114,3.299672"
       style="fill:#3d6428;fill-opacity:1;fill-rule:nonzero;stroke:none;stroke-width:0.326765"
       id="path12460" />
    <path
       d="m 229.80958,69.579161 1.11424,-3.761705 0.86272,0.06897 -1.97696,3.692737 1.11424,-3.761705 0.86272,0.06897 -1.97696,3.692737"
       style="fill:#3d6428;fill-opacity:1;fill-rule:nonzero;stroke:none;stroke-width:0.326765"
       id="path12462" />
    <path
       d="m 228.69205,69.454031 -4.90478,1.487135 -0.26137,-0.431342 5.16615,-1.055793 -4.90478,1.487135 -0.26137,-0.431342 5.16615,-1.055793"
       style="fill:#3d6428;fill-opacity:1;fill-rule:nonzero;stroke:none;stroke-width:0.326765"
       id="path12464" />
    <path
       d="m 235.63909,72.216175 -21.14822,-8.294265 0.55541,-1.309334 20.59281,9.603599 -21.14822,-8.294265 0.55541,-1.309334 20.59281,9.603599"
       style="fill:#7ec229;fill-opacity:1;fill-rule:nonzero;stroke:none;stroke-width:0.326765"
       id="path12466" />
  </g>
</svg>
