<svg id="svg46573" xmlns="http://www.w3.org/2000/svg" viewBox="0 0 171.04 171.81"><defs><style>.cls-1{fill:#4a4648;}.cls-2{fill:#8a8a92;}.cls-3{fill:#a89681;}.cls-4{fill:#c0c6ba;}.cls-5{fill:#7e8577;}.cls-6{fill:#d1dbd5;}.cls-7{fill:#b1b7ad;}.cls-8{fill:#878d90;}.cls-9{fill:#5c5d58;}.cls-10{fill:#4f504f;}.cls-11{fill:#666d6a;}.cls-12{fill:#454742;}.cls-13{fill:#5a5248;}.cls-14{fill:#4b4a51;}.cls-15{fill:#494c51;}.cls-16{fill:#6f787a;}.cls-17{fill:#2d2b2d;}.cls-18{fill:#dededd;}.cls-19{fill:#81c32d;}.cls-20{fill:#62962f;}.cls-21{fill:#4b6a2a;}.cls-22{fill:#cce5a2;}.cls-23{fill:#e5f2ce;}.cls-24{fill:#dfefc3;}.cls-25{fill:#f4fae7;}.cls-26{fill:#ebf5d7;}.cls-27{fill:#eef7de;}.cls-28{fill:#f1f8e3;}.cls-29{fill:#ddeebf;}.cls-30{fill:#bedd89;}</style></defs><title>plant11</title><path id="path12474" class="cls-1" d="M85.2,43.15a42.62,42.62,0,1,0,42.62,42.61A42.65,42.65,0,0,0,85.2,43.15m0,124.76a82.15,82.15,0,1,1,82.14-82.15A82.24,82.24,0,0,1,85.2,167.91" transform="translate(0 0)"/><path id="path12480" class="cls-2" d="M19.47,30.35a3.5,3.5,0,0,0,.81,2.75l2.1.58,1.33-.13,1.18-1.11A10.58,10.58,0,0,0,26.83,29,3.6,3.6,0,0,0,26,25.37c-1.1-.94-4.62-1.92-5.86-.88s-.63,4.42-.64,5.86" transform="translate(0 0)"/><path id="path12482" class="cls-2" d="M15.65,40.89l.2,1.19a2.2,2.2,0,0,0,2.27.83A6.64,6.64,0,0,0,23,39.76l.38-1.34-1.09-1.48L20.73,35.7c-1.16-1-3.39-2.81-4.7-1.14-1.06,1.35-.38,4.71-.38,6.33" transform="translate(0 0)"/><path id="path12484" class="cls-3" d="M12.9,49.2l-.08,2.27,1,.41A12,12,0,0,0,20.94,51c.84-.38,1.73-1,1.83-1.92s-.74-1.77-1.54-2.33a18.65,18.65,0,0,0-2.55-1.52l-.9-.32c-2.31-.31-4,2.68-4.88,4.33" transform="translate(0 0)"/><path id="path12486" class="cls-3" d="M25,35.43l-.12,1.12a3.88,3.88,0,0,0,2.36,3.05l1.09.18a2.74,2.74,0,0,0,1.85-1.7,10.38,10.38,0,0,0,.93-2.82c.9-5.07-4.85-2.48-6.11.17" transform="translate(0 0)"/><path id="path12488" class="cls-4" d="M29.77,24.13l1.72-.66a5.24,5.24,0,0,0,2.44-2.75l-.16-1.41-.6-.42-.88-.33-2,.83L28.85,21l-1.47,1.37c-.81,1.41,1.37,1.81,2.39,1.77" transform="translate(0 0)"/><path id="path12490" class="cls-2" d="M42.62,15.27l.07.27.21.13a29.12,29.12,0,0,0,5.27,1.76l2.1-.28.5-1.26c.08-1.9-2.08-4.61-4.07-4.66-1.67-.06-4.07,2.4-4.08,4" transform="translate(0 0)"/><path id="path12492" class="cls-2" d="M33.25,30.64a17.69,17.69,0,0,0,7.15-.85l1-.58.1-1.74L40,26.39c-1.23-.36-3.76-.67-5,0l-1.82,4.28" transform="translate(0 0)"/><path id="path12494" class="cls-3" d="M44.31,23.32l-.24.91.68.83,1.09.22,3.32.29,1.14-.12.58-1.35-.6-1.44L48.7,19.93c-1.34-2.32-3.77,2.19-4.39,3.39" transform="translate(0 0)"/><path id="path12496" class="cls-4" d="M50.14,35.09l2,1.29c.55,1,0,2.24-.58,3.24l-1.29,2.3a3.84,3.84,0,0,1-2,2.06,3.23,3.23,0,0,1-2.85-1,9.61,9.61,0,0,1-3.27-7.63c.14-1.62,1.5-1.33,2.83-1.24a21,21,0,0,1,5.19,1" transform="translate(0 0)"/><path id="path12498" class="cls-5" d="M49,30.71l-.53,1.82a10,10,0,0,0,7.46.44l.81-.84-.17-.38a13.17,13.17,0,0,0-3.88-3.88c-1-.68-1.26-.82-2,.21A17.56,17.56,0,0,0,49,30.71" transform="translate(0 0)"/><path id="path12500" class="cls-5" d="M56.55,17.66l2,.08L59.48,20a9.08,9.08,0,0,1-.28,4.28l-.32.55-.63.33-2.14-.36-1.72-1.38-1.75-1.65c-.69-.65-2.48-2.25-1.24-3l2.45-.52,2.7-.56" transform="translate(0 0)"/><path id="path12502" class="cls-5" d="M52.78,14.26,54,16.14l.69,0c1.71-.39,2.91-1.87,3.92-3.3l.72-2.08c-.2-.89-1.17-1.37-2.05-1.62-1.36-.38-4.82-1.23-5.87.21l.34,2.07a12.83,12.83,0,0,1,1.05,2.87" transform="translate(0 0)"/><path id="path12504" class="cls-5" d="M35,43.68l-.16,1.86,1,.93a5.38,5.38,0,0,0,4,.4L41,46.15l.32-.84a3.84,3.84,0,0,0-1.1-3c-.6-.67-2.42-2.75-3.38-2.57-1.17.23-1.57,3-1.9,3.92" transform="translate(0 0)"/><path id="path12506" class="cls-5" d="M21.83,43.43l-.54.85.35.46,3.64,3.16.63.32.6-.29.72-.73.35-2-.34-2-.71-1c-.59-.65-1.47-1.85-2.39-1.17s-1.44,1.63-2.31,2.29" transform="translate(0 0)"/><path id="path12508" class="cls-3" d="M50,53.62l.13.54,1.41.71a4.71,4.71,0,0,0,4-2.47,9.55,9.55,0,0,0,1.07-4.77,20.24,20.24,0,0,0-.5-4.45l-1.25-1.49-1,.65a20.82,20.82,0,0,1-2.48,2.22l-2.41,1.81c-.27.82.4,2.72.53,3.59L50,53.62" transform="translate(0 0)"/><path id="path12510" class="cls-3" d="M60.14,31.64,62,33l1.57-.34.32-.95a31.54,31.54,0,0,0,.28-3.5l-.06-.49-.32-.32-2-.38c-1.06,0-3.29-.53-3.64.91-.28,1.13,1.29,2.92,1.94,3.73" transform="translate(0 0)"/><path id="path12512" class="cls-3" d="M54.45,37.53l-.87,1.77a42.51,42.51,0,0,0,6.29,1.37L62,40.24l.21-1.52-.85-1.34c-.76-.91-2-3-3.35-2.94s-2.73,2.15-3.54,3.09" transform="translate(0 0)"/><path id="path12514" class="cls-3" d="M36.18,19.3c-.39,1.45-1.24,2.83-1.09,4.32a71.08,71.08,0,0,1,7.43.75l-.42-1.81-1-1.55a20.62,20.62,0,0,0-3.42-4.29l-.38-.22c-1-.15-.94,2.29-1.08,2.8" transform="translate(0 0)"/><path id="path12516" class="cls-4" d="M37.39,33.23a3.13,3.13,0,0,1,2.53.77l.36,2.29-.53,1.28-.91.17H37.42l-1.7.24-1.46,1.35-1.42,1.11-.56.17L31.72,40l.1-.89.37-1.37c.31-1.17.61-3.12,1.51-4s2.53-.5,3.69-.51" transform="translate(0 0)"/><path id="path12518" class="cls-6" d="M42.12,31.7V32l.36.28,1.94.5,1.84-.65.66-1.75c.21-1.21,0-4.07-1.94-3.5-1.33.4-2.59,3.63-2.85,4.83" transform="translate(0 0)"/><path id="path12520" class="cls-6" d="M24.78,62.75v.31l.37.27,1.94.5,1.83-.64.66-1.75c.22-1.21,0-4.08-1.94-3.51-1.33.4-2.58,3.64-2.85,4.82" transform="translate(0 0)"/><path id="path12522" class="cls-6" d="M143.31,120.33v.31l.36.27,1.94.51,1.84-.66.66-1.74c.21-1.23,0-4.08-1.94-3.52-1.33.4-2.59,3.64-2.86,4.83" transform="translate(0 0)"/><path id="path12524" class="cls-4" d="M28.84,29.51l.09.49.26.29,1.22.78.32,0,.14-.13a10.35,10.35,0,0,0,1.69-3.77V26.16l-1.13-.84c-3.05-.86-2.6,2.28-2.59,4.19" transform="translate(0 0)"/><path id="path12526" class="cls-3" d="M30.12,49.07l.68.17a2.54,2.54,0,0,0,2.57-1c.86-1.65-1.37-5.57-3.46-4.89-1.67.56-1.22,5.07.21,5.75" transform="translate(0 0)"/><path id="path12528" class="cls-2" d="M41.54,47.12a5.41,5.41,0,0,0-1.47,3.23l.4,1.57.45.43a2.87,2.87,0,0,0,3,0,4.42,4.42,0,0,0,1.85-2.54c.37-1.17.57-3.76-.49-4.7s-3,1.13-3.79,2" transform="translate(0 0)"/><path id="path12530" class="cls-5" d="M59.65,47.78,60.41,49l1.56.44.72-.07.36-.31a6.61,6.61,0,0,0,1.74-3.87l-.35-1.45c-.74-1-3.83-1.85-4.94-1.11-1.27.85-.24,4,.15,5.18" transform="translate(0 0)"/><path id="path12532" class="cls-2" d="M18.63,53.94l-.58.92.95,1a15.8,15.8,0,0,0,5.22.76c1.14,0,2.48-.08,3.07-1L27,53.15A5.94,5.94,0,0,0,22.69,51c-1.57.17-3,2-4.06,2.93" transform="translate(0 0)"/><path id="path12534" class="cls-3" d="M29.06,52.28l-.54.62.59,2.43a5.81,5.81,0,0,0,2.47,1.05l1.27.18a2.59,2.59,0,0,0,2.07-2,7.81,7.81,0,0,0,0-3l-.21-1.74-.11-.28-.26-.12c-2.6-.45-3.56,1.17-5.32,2.83" transform="translate(0 0)"/><path id="path12536" class="cls-3" d="M47.28,57.74l1.13-.16.75-1.84-.59-2-.76-.39c-1.48-.49-5.45-.23-6,1.73s4.22,2.61,5.47,2.68" transform="translate(0 0)"/><path id="path12538" class="cls-5" d="M10.62,51.17l1.06,1.59c.43.84.86,1.69,1.3,2.53l.22,2.58-1.33.6c-2.78.43-6.13-.95-6.74-4-.27-1.3.36-2.14,1.29-3,1.45-1.34,2.57-1.82,4.2-.34" transform="translate(0 0)"/><path id="path12540" class="cls-3" d="M18.23,52.45l.91,1.9-.81,1.79-2.16-.61c-1.06-.83-4.13-3-2.73-4.37l2.81-.85c1,.17,1.43,1.34,2,2.14" transform="translate(0 0)"/><path id="path12542" class="cls-3" d="M59.57,15.15l.46.67a9.87,9.87,0,0,1,2.12,2.35l.71,1,1.09.45L65,18.68l.19-2-.4-1c-.47-1-1-2.74-2.35-2.69l-2.91,2.19" transform="translate(0 0)"/><path id="path12544" class="cls-7" d="M61,23.65l-.15.57.45.64,1.83.65,2.56.52A4.34,4.34,0,0,0,65,22.3l-2.59-1.92L61,23.65" transform="translate(0 0)"/><path id="path12546" class="cls-4" d="M147.92,50.3l-.17-1.16-1.17-.48a59.32,59.32,0,0,0-16.35.52c-1,.17-2.36.75-2.21,1.79l1,1.27a53.26,53.26,0,0,0,8.33,4.69,11.37,11.37,0,0,0,5,1.28c4.78-.22,5.12-4.23,5.5-7.91" transform="translate(0 0)"/><path id="path12548" class="cls-2" d="M126.71,45.6l-1.52-1.36A3.34,3.34,0,0,1,124,41.46l.87-1.3a7.36,7.36,0,0,1,3.91-1.38,7.21,7.21,0,0,1,3.52.22,18.23,18.23,0,0,1,4.37,2.75c1,1,.57,1.78-.48,2.67-2.16,1.85-7,2.7-9.48,1.18" transform="translate(0 0)"/><path id="path12550" class="cls-4" d="M125.82,48.13a26.1,26.1,0,0,0-7.54-1.19l-1.4.27-.74,1.89.2,1.21c1,2.26,4,4.8,6.51,3.66,1.47-.69,6.25-4.81,3-5.84" transform="translate(0 0)"/><path id="path12552" class="cls-5" d="M118.48,35.57a3.39,3.39,0,0,0-4.18.57,5.87,5.87,0,0,0-1.53,4.17l.37,1.88,1.45,1.41c1.89,1.19,5.77,2.64,6.65-.43.57-2-1.08-6.4-2.76-7.6" transform="translate(0 0)"/><path id="path12554" class="cls-2" d="M125.1,32.34l-.5-2.42a4,4,0,0,0-2.3-2.67l-1.65-.09-2.23.94L118,30.35l1.07,2.09a20.29,20.29,0,0,0,3.81,4c.92.74,3.17,1.66,3.38-.26l-.89-1.78-.26-2.1" transform="translate(0 0)"/><path id="path12556" class="cls-4" d="M129.37,20.06l1.27-1.92L130,16.09l-.9-.22c-2.3-.18-4.53.75-6.6,1.75a9,9,0,0,0-3,2.06,3.33,3.33,0,0,0-.7,3.44l1.9,1.63,1.76.34c3.49.06,4.83-2.63,7-5" transform="translate(0 0)"/><path id="path12558" class="cls-3" d="M128.61,54.18l-.84-.5-2.13.82c-.72.6-1.52,1.38-1.35,2.31l1.52,1.54a13.3,13.3,0,0,0,6.07,1.35l2-.89,0-.34-2.47-1.65c-1-.89-1.84-1.81-2.85-2.64" transform="translate(0 0)"/><path id="path12560" class="cls-3" d="M109.14,44.82l-2.33.53c-1.2.76-1.56,2.32-1.74,3.72a4,4,0,0,0,.38,2.88c.78,1.09,2.37,1.18,3.67.87,2.09-.52,5.2-2.39,5.7-4.69.64-2.9-3.68-3.31-5.68-3.31" transform="translate(0 0)"/><path id="path12562" class="cls-3" d="M117.11,54.6l-1.93-1.5-2.38.62-1.6,2-.54.85-.36.87L112,58.71c1.71.31,6.46,1.27,8,.29,2.14-1.39-2-3.51-2.82-4.4" transform="translate(0 0)"/><path id="path12564" class="cls-5" d="M111.39,36.39a3.51,3.51,0,0,0-.8-2.74l-2.11-.59-1.33.14L106,34.3A10.88,10.88,0,0,0,104,37.72a3.61,3.61,0,0,0,.86,3.65c1.1,1,4.62,1.92,5.86.89s.63-4.42.64-5.87" transform="translate(0 0)"/><path id="path12566" class="cls-3" d="M115.71,25.86l-.2-1.2a2.18,2.18,0,0,0-2.26-.82A6.66,6.66,0,0,0,108.41,27L108,28.33l1.09,1.48L110.63,31c1.17,1,3.39,2.82,4.7,1.15,1.06-1.36.38-4.72.38-6.33" transform="translate(0 0)"/><path id="path12568" class="cls-2" d="M118.47,17.55l.07-2.28-1-.41a12.19,12.19,0,0,0-7.12.92c-.84.38-1.74,1-1.83,1.93s.74,1.76,1.54,2.32a17.33,17.33,0,0,0,2.55,1.52l.9.33c2.31.3,4-2.69,4.89-4.33" transform="translate(0 0)"/><path id="path12570" class="cls-3" d="M106.41,31.31l.12-1.12a3.88,3.88,0,0,0-2.36-3L103.08,27a2.76,2.76,0,0,0-1.85,1.71,10.74,10.74,0,0,0-.93,2.82c-.9,5.07,4.85,2.48,6.11-.18" transform="translate(0 0)"/><path id="path12572" class="cls-5" d="M101.59,42.62l-1.72.66A5.22,5.22,0,0,0,97.43,46l.16,1.41.6.43.88.32,2-.82,1.41-1.61L104,44.38c.81-1.4-1.37-1.81-2.4-1.76" transform="translate(0 0)"/><path id="path12574" class="cls-3" d="M98.11,36.11A17.52,17.52,0,0,0,91,37l-1,.57-.1,1.75,1.49,1.07c1.23.37,3.76.68,5,0l1.82-4.27" transform="translate(0 0)"/><path id="path12576" class="cls-5" d="M87.05,43.43l.25-.91-.69-.83-1.09-.22-3.32-.3-1.13.12-.58,1.35.59,1.44c.53.91,1,1.83,1.58,2.73,1.35,2.33,3.77-2.18,4.39-3.38" transform="translate(0 0)"/><path id="path12578" class="cls-3" d="M81.22,31.65l-2-1.29c-.55-1,0-2.24.58-3.24l1.29-2.3a3.83,3.83,0,0,1,2-2.05,3.23,3.23,0,0,1,2.85,1,9.55,9.55,0,0,1,3.27,7.63c-.15,1.61-1.5,1.33-2.83,1.24a20.88,20.88,0,0,1-5.19-1" transform="translate(0 0)"/><path id="path12580" class="cls-7" d="M82.38,36l.52-1.81a10,10,0,0,0-7.46-.44l-.81.84.17.38a13.25,13.25,0,0,0,3.88,3.87c1,.69,1.26.82,2-.21A16.65,16.65,0,0,0,82.38,36" transform="translate(0 0)"/><path id="path12582" class="cls-3" d="M74.82,49.09l-2-.08-.94-2.22a9,9,0,0,1,.26-4.27l.33-.55.64-.34,2.12.37L77,43.38,78.72,45c.69.65,2.48,2.24,1.23,3l-2.44.52-2.69.56" transform="translate(0 0)"/><path id="path12584" class="cls-8" d="M96.41,23.07l.15-1.86-1-.94a5.4,5.4,0,0,0-4-.39l-1.19.72-.33.83a3.8,3.8,0,0,0,1.1,3c.6.67,2.42,2.74,3.38,2.56,1.17-.22,1.57-3,1.91-3.91" transform="translate(0 0)"/><path id="path12586" class="cls-3" d="M109.53,23.32l.54-.86-.35-.45-3.64-3.17-.63-.32-.6.3-.71.71-.36,2,.34,2,.71.95c.59.66,1.47,1.86,2.39,1.18s1.44-1.64,2.31-2.29" transform="translate(0 0)"/><path id="path12588" class="cls-5" d="M80.86,13.13l-.13-.54-1.41-.71a4.69,4.69,0,0,0-4,2.47,9.42,9.42,0,0,0-1.06,4.76,19.73,19.73,0,0,0,.49,4.46L76,25.06l1-.65a21.72,21.72,0,0,1,2.47-2.23l2.41-1.8c.27-.83-.4-2.72-.52-3.6-.19-1.22-.37-2.43-.55-3.65" transform="translate(0 0)"/><path id="path12590" class="cls-3" d="M71.22,35.1l-1.88-1.35-1.57.35-.32.95a31.72,31.72,0,0,0-.28,3.51l.06.49.32.32,2,.38c1.06,0,3.3.51,3.65-.91.27-1.13-1.3-2.92-2-3.74" transform="translate(0 0)"/><path id="path12592" class="cls-2" d="M76.91,29.21l.87-1.77a42.48,42.48,0,0,0-6.29-1.36l-2.11.43L69.17,28,70,29.36c.76.92,2,3,3.35,3s2.73-2.15,3.54-3.1" transform="translate(0 0)"/><path id="path12594" class="cls-4" d="M95.18,47.45c.39-1.45,1.24-2.83,1.09-4.32q-3.73-.2-7.44-.75l.43,1.8,1,1.56A21.22,21.22,0,0,0,93.72,50l.39.22c1,.15.93-2.29,1.07-2.8" transform="translate(0 0)"/><path id="path12596" class="cls-4" d="M94,33.5a3.14,3.14,0,0,1-2.52-.75l-.36-2.3.53-1.27.9-.17h1.43l1.7-.25,1.46-1.34,1.42-1.11.56-.17.57.61-.11.88L99.18,29c-.32,1.17-.62,3.11-1.52,4s-2.53.51-3.7.51" transform="translate(0 0)"/><path id="path12598" class="cls-3" d="M89.25,35.05v-.3l-.37-.28L86.94,34l-1.83.64-.66,1.75c-.22,1.22,0,4.07,1.94,3.51,1.33-.4,2.59-3.64,2.86-4.83" transform="translate(0 0)"/><path id="path12600" class="cls-3" d="M102.51,37.23l-.07-.49-.26-.28-1.24-.78-.31,0-.14.14a10.3,10.3,0,0,0-1.69,3.76v1.06l1.12.84c3.06.86,2.6-2.28,2.6-4.2" transform="translate(0 0)"/><path id="path12602" class="cls-5" d="M101.24,17.68l-.68-.17a2.49,2.49,0,0,0-2.56,1c-.87,1.64,1.36,5.57,3.45,4.88,1.67-.55,1.22-5.06-.21-5.74" transform="translate(0 0)"/><path id="path12604" class="cls-5" d="M89.32,19.63a5.41,5.41,0,0,0,1.47-3.24l-.39-1.57-.46-.43a2.89,2.89,0,0,0-3,0A4.42,4.42,0,0,0,85,16.91c-.36,1.18-.57,3.76.49,4.71s3-1.13,3.79-2" transform="translate(0 0)"/><path id="path12606" class="cls-3" d="M71.71,19,71,17.78l-1.55-.45-.73.07-.35.32a6.62,6.62,0,0,0-1.75,3.86L66.92,23c.74,1,3.84,1.85,5,1.11s.24-4-.16-5.18" transform="translate(0 0)"/><path id="path12608" class="cls-3" d="M110.12,13.31l.57-.92-1-1a15.84,15.84,0,0,0-5.22-.76c-1.13,0-2.48.07-3.07,1.05l.26,2.37a6,6,0,0,0,4.35,2.14c1.56-.17,3-2,4.06-2.93" transform="translate(0 0)"/><path id="path12610" class="cls-3" d="M99,15.06l.54-.62L99,12a5.83,5.83,0,0,0-2.46-1l-1.27-.19a2.6,2.6,0,0,0-2.07,2,7.57,7.57,0,0,0,0,3l.21,1.74.1.29.27.12c2.59.44,3.55-1.17,5.32-2.84" transform="translate(0 0)"/><path id="path12612" class="cls-4" d="M84.79,9l-1.13.16L82.91,11l.59,2,.76.39c1.48.47,5.45.22,6-1.74S86,9.07,84.79,9" transform="translate(0 0)"/><path id="path12614" class="cls-5" d="M121.07,14.14,120,12.54q-.65-1.24-1.29-2.52l-.23-2.58,1.33-.6c2.78-.43,6.14,1,6.74,4,.27,1.31-.36,2.14-1.28,3-1.45,1.36-2.58,1.84-4.2.35" transform="translate(0 0)"/><path id="path12616" class="cls-4" d="M112.4,10.81l-.91-1.89.81-1.8,2.16.62c1.06.83,4.13,3,2.73,4.38l-2.82.84c-1-.17-1.42-1.33-2-2.15" transform="translate(0 0)"/><path id="path12618" class="cls-3" d="M141.38,46.66l-1.75-.17-.39-2,.33-2.09,1-2,2.1.25c1.24.53,4.27,1.57,3.94,3.35s-3.78,2.34-5.21,2.67" transform="translate(0 0)"/><path id="path12620" class="cls-3" d="M138,61l-1.43-.19-1.05-.92-.08-.92.17-.63.34-.18a3.7,3.7,0,0,1,2.88.29l2.14,2c-.1,1-2.27.56-3,.55" transform="translate(0 0)"/><path id="path12622" class="cls-4" d="M145.3,39l-.76-.32-1.1-1.63.06-.4.39-.32,4.28-2.25.91-.2.58.65a7.69,7.69,0,0,1,.75,3.81c-.07,1.18-.73,2.73-2.18,2.67-1.22-.07-2-1.47-2.93-2" transform="translate(0 0)"/><path id="path12624" class="cls-3" d="M71.79,51.59l-.46-.66a9.59,9.59,0,0,1-2.12-2.37l-.71-1-1.09-.45-1.09.93-.19,2,.4,1c.47,1,1,2.75,2.35,2.7l2.91-2.2" transform="translate(0 0)"/><path id="path12626" class="cls-3" d="M70.41,43.1l.15-.58-.45-.64-1.83-.64-2.56-.53a4.33,4.33,0,0,0,.62,3.73l2.58,1.92,1.49-3.26" transform="translate(0 0)"/><path id="path12628" class="cls-5" d="M134.33,21l-.55.42c-1.86,1.74-4.89,2.09-6.23,4.25l-.2.58.78.76,1.16-.18,3.61-1.18c1-.33,6.42-.78,6.59-1.22C140,23,135.3,20.54,134.33,21" transform="translate(0 0)"/><path id="path12630" class="cls-3" d="M143.09,25.62l-1-1.11-.38.22a16.71,16.71,0,0,0-4.42,4.69l-.15,1.06.46.41a8.07,8.07,0,0,0,2.68,1.24c1.21.24,3.53-.22,4.09-1.53s-1-3.63-1.31-5" transform="translate(0 0)"/><path id="path12632" class="cls-4" d="M136.29,33.39l-1-.16-1,.87-.71,2.27.86,1A9.68,9.68,0,0,0,137,39.06a3.28,3.28,0,0,0,3-.16c3.82-2.57-1.46-4.7-3.64-5.51" transform="translate(0 0)"/><path id="path12634" class="cls-8" d="M135,30.07l.37-1a21.69,21.69,0,0,0-7.62.37,10.4,10.4,0,0,0,.44,5.44l.67,1c1.65,1,5.31-4.74,6.14-5.75" transform="translate(0 0)"/><path id="path12636" class="cls-2" d="M66.12,12.14l-.23-1.38,1.34-1.65,2.17-.32a6.33,6.33,0,0,1,3,.66A3,3,0,0,1,74,11.89l-.15.65-.48.49c-1.24,1-3.53,3-5.28,2.65-1.43-.28-1.57-2.34-1.95-3.54" transform="translate(0 0)"/><path id="path12638" class="cls-3" d="M76.29,9.84l.46.41.48.06A3.39,3.39,0,0,0,79.77,8.9l.7-2.32c-.18-1.61-7.18-.44-4.18,3.26" transform="translate(0 0)"/><path id="path12640" class="cls-3" d="M61,10.51l1.45.7,1,.17,1-.78a10.23,10.23,0,0,0,1.69-3.42l0-.78c-.51-1.16-3-1.78-4-1.06-1.37,1-1.24,3.75-1.14,5.18" transform="translate(0 0)"/><path id="path12642" class="cls-3" d="M68.3,5.62,69,6.68l.88.43c1.81.5,3.66-.47,5.28-1.39l.77-1L75.19,4a12.81,12.81,0,0,0-5.85-1.41c-2.57,0-1.87,1.17-1,3" transform="translate(0 0)"/><path id="path12644" class="cls-3" d="M85.1,3.4l1.59-.14a10.73,10.73,0,0,1,4.12,1.17L92,5.31l.21,1.39c-1.62,1-3.63.75-5.51.8-.91,0-3.62.28-4.07-.87S84.28,3.7,85.1,3.4" transform="translate(0 0)"/><path id="path12646" class="cls-5" d="M96.93,4c1.14,0,1.88,1.16,2.4,2.18l.79,1.56,0,1.17-.6.14c-1.48,0-4.45.61-5.14-1.16C93.85,6.46,95.37,4,96.93,4" transform="translate(0 0)"/><path id="path12648" class="cls-3" d="M108.39,8.62l.21-.25.33-1.71c-.22-2.75-4.17-4.71-5.69-1.85a2.44,2.44,0,0,0,.08,2.78l5.07,1" transform="translate(0 0)"/><path id="path12650" class="cls-3" d="M81.26,0l.22,0,.15.15a4,4,0,0,1,.2,3.94l-.45.58-1.65,0C79.08,4.37,76.64,3,76.87,2.1L81.26,0" transform="translate(0 0)"/><path id="path12652" class="cls-7" d="M151.74,42.52a5.26,5.26,0,0,0,6.16-.85,5.75,5.75,0,0,0,2.26-3.15l-.3-1.53-.84-.45c-1.33-.37-4.83-.43-5.89.62l-1.39,5.36" transform="translate(0 0)"/><path id="path12654" class="cls-3" d="M151.43,50.25l2-.29,1.53-1,.35-1.77c-.56-1.46-4-2.46-5.24-1.48-1.63,1.27-.51,4.3,1.4,4.56" transform="translate(0 0)"/><path id="path12656" class="cls-3" d="M162.72,53.91c1,.09,2.16.06,2.67-.77,1.2-2-2.25-3.41-3.57-3.9a4.73,4.73,0,0,0-4.33.2c-1.42.76-4.39,2.54-1.71,3.39a33.11,33.11,0,0,0,6.94,1.08" transform="translate(0 0)"/><path id="path12658" class="cls-3" d="M148,57.13l0,.53.81.61a9.63,9.63,0,0,0,3.25.42l2-.47,1.18-1.56c.24-1.76-2.41-3.83-4.07-3.5s-2.75,2.61-3.1,4" transform="translate(0 0)"/><path id="path12660" class="cls-4" d="M162.36,57.19l.38,1.69-.09.48-.25.24a3.73,3.73,0,0,1-2.42.9c-1.53-.15-3.16-2.5-2.19-3.91s3.79-.67,4.57.6" transform="translate(0 0)"/><path id="path12662" class="cls-3" d="M55.85,56.06A2.79,2.79,0,0,0,58,57.51a6.26,6.26,0,0,0,5.77-1.6,2.6,2.6,0,0,0,.83-2.4L62.9,51.92c-1.3-.61-3.25-1.4-4.58-.58s-3.06,3.24-2.47,4.72" transform="translate(0 0)"/><path id="path12664" class="cls-6" d="M5.54,101.36a26.47,26.47,0,0,1,7.55-1.2l1.39.29.74,1.88-.19,1.2c-1,2.27-4,4.81-6.52,3.66-1.47-.68-6.25-4.81-3-5.83" transform="translate(0 0)"/><path id="path12666" class="cls-2" d="M12.38,88.8a3.4,3.4,0,0,1,4.18.56,5.86,5.86,0,0,1,1.53,4.19l-.36,1.87-1.46,1.4c-1.89,1.2-5.77,2.64-6.64-.42-.58-2,1.07-6.41,2.75-7.6" transform="translate(0 0)"/><path id="path12668" class="cls-3" d="M6.26,85.56l.5-2.41a4,4,0,0,1,2.3-2.67l1.66-.1,2.22,1,.43,2.24L12.3,85.67a20.85,20.85,0,0,1-3.81,4c-.92.74-3.16,1.67-3.37-.26L6,87.66l.26-2.1" transform="translate(0 0)"/><path id="path12670" class="cls-4" d="M1.27,73.17,0,71.25l.66-2L1.57,69c2.3-.18,4.52.75,6.6,1.75a9.14,9.14,0,0,1,3.05,2.06,3.34,3.34,0,0,1,.7,3.44L10,77.86l-1.75.34c-3.5.06-4.83-2.61-7-5" transform="translate(0 0)"/><path id="path12672" class="cls-3" d="M22.22,98.05l2.33.52c1.2.77,1.57,2.33,1.75,3.73a4.06,4.06,0,0,1-.39,2.88c-.77,1.08-2.37,1.17-3.67.86-2.09-.51-5.19-2.38-5.71-4.68-.64-2.9,3.7-3.31,5.69-3.31" transform="translate(0 0)"/><path id="path12674" class="cls-4" d="M14.26,107.82l1.92-1.5,2.38.64,1.6,2,.54.84.36.88-1.65,1.29c-1.71.3-6.46,1.26-8,.28-2.14-1.38,2-3.5,2.83-4.4" transform="translate(0 0)"/><path id="path12676" class="cls-2" d="M19.47,89.62a3.51,3.51,0,0,1,.81-2.75l2.1-.58,1.33.13,1.18,1.11A10.69,10.69,0,0,1,26.83,91,3.59,3.59,0,0,1,26,94.6c-1.1,1-4.62,1.92-5.86.89s-.63-4.43-.64-5.87" transform="translate(0 0)"/><path id="path12678" class="cls-2" d="M15.65,79.08l.2-1.19a2.17,2.17,0,0,1,2.27-.81A6.6,6.6,0,0,1,23,80.22l.38,1.34L22.24,83l-1.51,1.24c-1.16,1-3.39,2.81-4.7,1.15-1.06-1.36-.38-4.72-.38-6.34" transform="translate(0 0)"/><path id="path12680" class="cls-3" d="M12.9,70.78l-.08-2.28,1-.41a12.11,12.11,0,0,1,7.12.92c.84.39,1.73,1,1.83,1.93S22,72.7,21.23,73.27a19.66,19.66,0,0,1-2.55,1.51l-.9.32c-2.31.32-4-2.67-4.88-4.32" transform="translate(0 0)"/><path id="path12682" class="cls-3" d="M25,84.54l-.12-1.12a3.91,3.91,0,0,1,2.36-3l1.09-.17a2.73,2.73,0,0,1,1.85,1.69,10.45,10.45,0,0,1,.93,2.83c.9,5.07-4.85,2.48-6.11-.18" transform="translate(0 0)"/><path id="path12684" class="cls-4" d="M29.77,95.84l1.72.66a5.31,5.31,0,0,1,2.44,2.75l-.16,1.41-.6.42-.88.33-2-.83L28.85,99l-1.47-1.37c-.81-1.41,1.37-1.81,2.39-1.77" transform="translate(0 0)"/><path id="path12686" class="cls-4" d="M4.65,93.14l1.71.66A5.25,5.25,0,0,1,8.8,96.54L8.64,98l-.59.43-.89.33-2-.83-1.41-1.6L2.25,94.91c-.81-1.41,1.37-1.81,2.4-1.77" transform="translate(0 0)"/><path id="path12688" class="cls-2" d="M28.1,102.34l.32-.87,1.19.45a11.89,11.89,0,0,1,2.62,3.66c.83,2.16-1.71,3.43-3.53,2.54-2-1-.69-4.12-.6-5.78" transform="translate(0 0)"/><path id="path12690" class="cls-4" d="M21.86,108v-.2l.15-.08,1.21.19,1.92.74,2.08,1.47.85,1.26-1.18,1-2.21.28c-1.34-.71-2.46-3.32-2.83-4.68" transform="translate(0 0)"/><path id="path12692" class="cls-2" d="M42.62,104.7l.07-.27.21-.13a29.92,29.92,0,0,1,5.27-1.76l2.1.29.5,1.25c.08,1.91-2.08,4.61-4.07,4.67-1.67,0-4.07-2.4-4.08-4" transform="translate(0 0)"/><path id="path12694" class="cls-2" d="M33.25,89.33a17.69,17.69,0,0,1,7.15.86l1,.57.1,1.75L40,93.58c-1.23.36-3.76.68-5,0l-1.82-4.28" transform="translate(0 0)"/><path id="path12696" class="cls-3" d="M44.31,96.66l-.24-.92.68-.82,1.09-.23,3.32-.29,1.14.11.58,1.37-.6,1.44c-.53.9-1.05,1.81-1.58,2.72-1.34,2.32-3.77-2.19-4.39-3.38" transform="translate(0 0)"/><path id="path12698" class="cls-3" d="M43.55,109.17l1.49.39A10.38,10.38,0,0,1,49,112.08l.54,1.21c-.05,2-3.92,2.76-5.28,1.7-1.05-.81-2.39-5.76-.69-5.82" transform="translate(0 0)"/><path id="path12700" class="cls-4" d="M50.14,84.88l2-1.29c.55-1,0-2.23-.58-3.24l-1.29-2.3a3.76,3.76,0,0,0-2-2,3.19,3.19,0,0,0-2.85,1,9.63,9.63,0,0,0-3.27,7.64c.14,1.62,1.5,1.32,2.83,1.24a20.88,20.88,0,0,0,5.19-1" transform="translate(0 0)"/><path id="path12702" class="cls-5" d="M35,76.29l-.16-1.86,1-.93a5.38,5.38,0,0,1,4-.4l1.19.72.32.84a3.83,3.83,0,0,1-1.1,3c-.6.68-2.42,2.75-3.38,2.57-1.17-.23-1.57-3-1.9-3.92" transform="translate(0 0)"/><path id="path12704" class="cls-5" d="M36.06,59.21l-.15-1.86,1-.94a5.4,5.4,0,0,1,4-.4l1.19.73.33.84a3.75,3.75,0,0,1-1.1,3c-.6.68-2.42,2.75-3.38,2.57-1.17-.22-1.57-3-1.91-3.91" transform="translate(0 0)"/><path id="path12706" class="cls-5" d="M21.83,76.55l-.54-.85.35-.47,3.64-3.15.63-.33.6.3.72.72.35,2-.34,2-.71,1c-.59.66-1.47,1.85-2.39,1.17s-1.44-1.64-2.31-2.28" transform="translate(0 0)"/><path id="path12708" class="cls-3" d="M36.18,100.67c-.39-1.45-1.24-2.83-1.09-4.31a73.91,73.91,0,0,0,7.43-.76l-.42,1.81-1,1.55a20.62,20.62,0,0,1-3.42,4.29l-.38.22c-1,.15-.94-2.28-1.08-2.8" transform="translate(0 0)"/><path id="path12710" class="cls-4" d="M37.39,86.74A3.13,3.13,0,0,0,39.92,86l.36-2.29-.53-1.28-.91-.17H37.42L35.72,82l-1.46-1.35-1.42-1.1-.56-.18-.56.62.1.88.37,1.37c.31,1.17.61,3.12,1.51,4s2.53.49,3.69.49" transform="translate(0 0)"/><path id="path12712" class="cls-6" d="M34,104.7l.73-.26c.73,1,2.19.92,3.39,1.17l1.85.81.78.77.07,2.44-.34,1.5-.73,2.12c-1.62,2.63-4.22.13-4.83-1.9l-.28-2.48c-.1-1.1-1-3.17-.64-4.17" transform="translate(0 0)"/><path id="path12714" class="cls-6" d="M42.12,88.27V88l.36-.27,1.94-.51,1.84.65.66,1.75c.21,1.21,0,4.07-1.94,3.51-1.33-.4-2.59-3.64-2.85-4.84" transform="translate(0 0)"/><path id="path12716" class="cls-4" d="M28.84,90.46l.09-.49.26-.29,1.22-.78.32,0,.14.14a10.2,10.2,0,0,1,1.69,3.77v1l-1.13.85c-3.05.86-2.6-2.29-2.59-4.2" transform="translate(0 0)"/><path id="path12718" class="cls-3" d="M30.12,70.9l.68-.17a2.56,2.56,0,0,1,2.57,1c.86,1.66-1.37,5.58-3.46,4.89-1.67-.55-1.22-5.07.21-5.75" transform="translate(0 0)"/><path id="path12720" class="cls-2" d="M41.54,72.86a5.46,5.46,0,0,1-1.47-3.24l.4-1.57.45-.43a2.85,2.85,0,0,1,3,0,4.4,4.4,0,0,1,1.85,2.53c.37,1.18.57,3.76-.49,4.72s-3-1.14-3.79-2" transform="translate(0 0)"/><path id="path12722" class="cls-2" d="M18.63,66l-.58-.92.95-1a16.06,16.06,0,0,1,5.22-.76c1.14,0,2.48.08,3.07,1.05L27,66.82A5.94,5.94,0,0,1,22.69,69c-1.57-.17-3-1.95-4.06-2.93" transform="translate(0 0)"/><path id="path12724" class="cls-3" d="M29.06,67.69l-.54-.62.59-2.43a5.81,5.81,0,0,1,2.47-1l1.27-.18a2.6,2.6,0,0,1,2.07,2,7.81,7.81,0,0,1,0,3l-.21,1.74-.11.29-.26.11c-2.6.45-3.56-1.17-5.32-2.83" transform="translate(0 0)"/><path id="path12726" class="cls-3" d="M47.28,62.24l1.13.16.75,1.83-.59,2-.76.39c-1.48.48-5.45.22-6-1.74S46,62.3,47.28,62.24" transform="translate(0 0)"/><path id="path12728" class="cls-5" d="M10.62,68.8l1.06-1.59L13,64.68l.22-2.58-1.33-.6c-2.78-.43-6.13,1-6.74,4-.27,1.31.36,2.14,1.29,3,1.45,1.34,2.57,1.82,4.2.34" transform="translate(0 0)"/><path id="path12730" class="cls-3" d="M18.23,67.52l.91-1.9-.81-1.79-2.16.61c-1.06.84-4.13,3-2.73,4.37l2.81.86c1-.18,1.43-1.34,2-2.15" transform="translate(0 0)"/><path id="path12732" class="cls-3" d="M9.48,111.45l.7-.13.35.37,1.92,1.92,1,1-.6,1.34-1.52.4-1.09.13-1.6.11a11.22,11.22,0,0,1-3.57-.89c-2.91-1.06,3.42-3.68,4.42-4.2" transform="translate(0 0)"/><path id="path12734" class="cls-2" d="M22,116.51l1.52-.48.07-.5A3,3,0,0,0,21,113.12c-1.18-.2-7.81.76-6.34,2.48.61.7,2.46,1,3.31,1.37l2.17.48,1.85-.94" transform="translate(0 0)"/><path id="path12736" class="cls-3" d="M31,111.16l.3-.25,1,.81,1.3,1.87c.65.67,1.51,1.34,1.44,2.27l-1.17,1.51c-1.25.66-6.4,1.13-6.75-.79-.21-1.13,1.19-1.56,1.83-2.14,1-.9,1.23-2.26,2.05-3.28" transform="translate(0 0)"/><path id="path12738" class="cls-3" d="M42,117.07l1.91-.13.78-1.92-.83-2-.36-.47-.62-.17c-1.35-.1-5.19.41-5.39,2.16-.24,2,3.21,2.32,4.51,2.57" transform="translate(0 0)"/><path id="path12740" class="cls-3" d="M45.24,117.52l.08-.3.31-.14a19.33,19.33,0,0,1,3.93-.45,10,10,0,0,1,3.78.82l.44.3.12.6v.9l-.08.45-.34.33a10.88,10.88,0,0,1-4.4,1.47l-1.9,0c-1.88-.4-2-2.46-1.93-4" transform="translate(0 0)"/><path id="path12742" class="cls-4" d="M147.92,69.67l-.17,1.17-1.17.46a58.93,58.93,0,0,1-16.35-.51c-1-.17-2.36-.74-2.21-1.78l1-1.27a52.52,52.52,0,0,1,8.33-4.7,11.37,11.37,0,0,1,5-1.28c4.78.22,5.12,4.23,5.5,7.91" transform="translate(0 0)"/><path id="path12744" class="cls-2" d="M148.48,105.11a6.67,6.67,0,0,1,1.34,3.19l-.11.53-.49.33c-2.05.78-4.32-.07-6.34-.92A20.68,20.68,0,0,1,137,105a3.34,3.34,0,0,1-1.38-2.82,3.52,3.52,0,0,1,2.12-2.25c1.65-.86,4.3-2.21,6.13-1.2,2,1.11,3.38,4.56,4.58,6.4" transform="translate(0 0)"/><path id="path12746" class="cls-2" d="M126.71,74.38l-1.52,1.35A3.34,3.34,0,0,0,124,78.51l.87,1.3a7.36,7.36,0,0,0,3.91,1.38A6.87,6.87,0,0,0,132.3,81a17.6,17.6,0,0,0,4.37-2.74c1-1,.57-1.78-.48-2.67-2.16-1.84-7-2.7-9.48-1.17" transform="translate(0 0)"/><path id="path12748" class="cls-2" d="M125.1,87.63l-.5,2.42a4,4,0,0,1-2.3,2.67l-1.65.09-2.23-.94L118,89.63l1.07-2.1a20.85,20.85,0,0,1,3.81-4c.92-.74,3.17-1.66,3.38.26l-.89,1.78-.26,2.1" transform="translate(0 0)"/><path id="path12750" class="cls-4" d="M129.37,99.91l1.27,1.93-.67,2-.9.22c-2.3.18-4.53-.75-6.6-1.74a9.18,9.18,0,0,1-3-2.06,3.36,3.36,0,0,1-.7-3.45l1.9-1.62,1.76-.34c3.49-.07,4.83,2.62,7,5" transform="translate(0 0)"/><path id="path12752" class="cls-3" d="M128.61,65.79l-.84.5-2.13-.82c-.72-.6-1.52-1.38-1.35-2.31l1.52-1.53a13.44,13.44,0,0,1,6.07-1.36l2,.89,0,.35-2.47,1.64c-1,.89-1.84,1.82-2.85,2.64" transform="translate(0 0)"/><path id="path12754" class="cls-5" d="M121.07,105.84,120,107.43c-.43.84-.86,1.67-1.29,2.52l-.23,2.58,1.33.6c2.78.43,6.14-.95,6.74-4,.27-1.31-.36-2.14-1.28-3-1.45-1.35-2.58-1.83-4.2-.34" transform="translate(0 0)"/><path id="path12756" class="cls-3" d="M141.38,73.32l-1.75.16-.39,2,.33,2.09,1,2,2.1-.25c1.24-.54,4.27-1.58,3.94-3.36s-3.78-2.34-5.21-2.66" transform="translate(0 0)"/><path id="path12758" class="cls-3" d="M138,59l-1.43.18-1.05.93-.08.92.17.62.34.18a3.62,3.62,0,0,0,2.88-.29l2.14-2c-.1-1.05-2.27-.56-3-.54" transform="translate(0 0)"/><path id="path12760" class="cls-5" d="M138.16,107.58l1,1.84A14.41,14.41,0,0,1,134,111l-2.42-.35-1.31-.73-.55-1.34,1.49-1.62,2-1c1-.94,1-1.4,2.21-.54.94.69,1.83,1.49,2.74,2.22" transform="translate(0 0)"/><path id="path12762" class="cls-5" d="M146.49,92.89a6.68,6.68,0,0,0-1.69,2.63l0,1.12.46.6,3,3.17.62.26.21-.22.81-1.54.16-1.18c.06-.86.11-1.72.17-2.58l0-2.26L149.56,91l-1.35,0-1.72,1.92" transform="translate(0 0)"/><path id="path12764" class="cls-4" d="M145.3,80.93l-.76.32-1.1,1.63.06.4.39.32,4.28,2.25.91.2.58-.65a7.69,7.69,0,0,0,.75-3.81c-.07-1.18-.73-2.73-2.18-2.66-1.22.06-2,1.46-2.93,2" transform="translate(0 0)"/><path id="path12766" class="cls-5" d="M134.33,99l-.55-.42c-1.86-1.74-4.89-2.09-6.23-4.24l-.2-.59.78-.76,1.16.19,3.61,1.17c1,.34,6.41.78,6.59,1.23.55,1.39-4.19,3.88-5.16,3.42" transform="translate(0 0)"/><path id="path12768" class="cls-3" d="M143.09,94.35l-1,1.11-.38-.22a16.57,16.57,0,0,1-4.42-4.69l-.15-1.06.46-.41a8.28,8.28,0,0,1,2.68-1.24c1.21-.24,3.53.22,4.09,1.54s-1,3.62-1.31,5" transform="translate(0 0)"/><path id="path12770" class="cls-4" d="M136.29,86.58l-1,.17-1-.88-.71-2.26.86-1A10,10,0,0,1,137,80.91a3.25,3.25,0,0,1,3,.17c3.82,2.56-1.46,4.69-3.64,5.5" transform="translate(0 0)"/><path id="path12772" class="cls-8" d="M135,89.91l.37,1a21.46,21.46,0,0,1-7.62-.37,10.36,10.36,0,0,1,.44-5.43l.67-1c1.65-1,5.31,4.74,6.14,5.76" transform="translate(0 0)"/><path id="path12774" class="cls-3" d="M35.37,118.89l1.45-.71,1-.15,1,.76a10,10,0,0,1,1.69,3.42l0,.78c-.51,1.18-3,1.79-4,1.06-1.37-1-1.24-3.74-1.13-5.16" transform="translate(0 0)"/><path id="path12776" class="cls-2" d="M151.72,105.67c.7.84,1.57,1.76,2.66,1.71a2.93,2.93,0,0,0,2.11-1.4,7.75,7.75,0,0,0,1.34-3v-.65l-.5-.43a5.56,5.56,0,0,0-3.89-.32l-2.78,1.49c-.6,1,.41,1.75,1.07,2.55" transform="translate(0 0)"/><path id="path12778" class="cls-2" d="M155.86,94.39l.64-.61,1.65-.13,1.49.82a8.82,8.82,0,0,1,2.42,2.17l.35,1L161.27,99a6.42,6.42,0,0,1-2.65.42c-1.3,0-4.26.42-5.07-1s1.51-3.1,2.31-4" transform="translate(0 0)"/><path id="path12780" class="cls-3" d="M159.7,102.66l-.1-.78,1.52-.83,2.13-.22,2.32.16,1.07,1.85-.93,1.06a11.73,11.73,0,0,1-2.52,1.34c-2.66,1.05-2.83-.37-3.49-2.58" transform="translate(0 0)"/><path id="path12782" class="cls-4" d="M157.48,107.24l.19-.79,1-.31,2.26,1,2,1.43a3.23,3.23,0,0,1,1.44,2.86c-.24,1.22-5,.58-5.72.25-1.78-.81-1.22-2.78-1.16-4.44" transform="translate(0 0)"/><path id="path12784" class="cls-4" d="M152.54,85.93a2.66,2.66,0,0,1,2.72-.64,6.08,6.08,0,0,1,3.53,2.39l.22,1-.29.31c-1.14.94-3.52,3.61-5.19,2.71-1.33-.71-1.86-4.59-1-5.75" transform="translate(0 0)"/><path id="path12786" class="cls-4" d="M13.42,57.78a2.62,2.62,0,0,1,2.72-.64,6,6,0,0,1,3.53,2.39l.22,1-.29.31c-1.14.92-3.52,3.61-5.19,2.71-1.33-.71-1.86-4.6-1-5.75" transform="translate(0 0)"/><path id="path12788" class="cls-2" d="M163,94.27a5.81,5.81,0,0,0,2.81,1.09l.42-.07.37-.66a17.39,17.39,0,0,0,.29-3.46,3.54,3.54,0,0,0-.59-2.46L164.1,88a5.1,5.1,0,0,0-4.17,2.62c-.79,1.92,1.68,2.79,3,3.64" transform="translate(0 0)"/><path id="path12790" class="cls-3" d="M151.68,108.62l.76-.06.58.54a30.43,30.43,0,0,1,2,2.68l.89,1.65,0,1.08-.55.27c-3.39.76-6.61-3.45-3.73-6.16" transform="translate(0 0)"/><path id="path12792" class="cls-3" d="M157.84,114a11.15,11.15,0,0,1,5.08-.68l2,.57-.14,2.4a4,4,0,0,1-2.37,1.07c-1,.14-2.5.4-3.33-.24L157.84,114" transform="translate(0 0)"/><path id="path12794" class="cls-7" d="M151.74,77.44a6.35,6.35,0,0,1,3.58-.5,6.27,6.27,0,0,1,2.58,1.37,5.73,5.73,0,0,1,2.26,3.14l-.3,1.53-.84.45c-1.33.37-4.83.43-5.89-.61l-1.39-5.38" transform="translate(0 0)"/><path id="path12796" class="cls-4" d="M162.81,83.05A5.54,5.54,0,0,1,165,81a3.77,3.77,0,0,1,2.89.16,11.31,11.31,0,0,1,2.46,1.66l.67,1-.57.83-1.28.85-1,.18c-1.59.12-4.17.84-5.69.43-1.93-.53-.41-2,.35-3.07" transform="translate(0 0)"/><path id="path12798" class="cls-7" d="M158.36,74.24l0-.32.26-.22a6.49,6.49,0,0,1,3.9-.75,13.08,13.08,0,0,1,3.86,1.13l1.24.76.35,1.35c-.71,1.82-4,3-5.79,2.58-1.62-.42-3.79-2.87-3.87-4.53" transform="translate(0 0)"/><path id="path12800" class="cls-3" d="M141.22,109.34l1.93.4,3.59,1.64,1.46,1L148,114l-.77.15c-2,.06-4.84.17-6.59-1a2.1,2.1,0,0,1,.59-3.77" transform="translate(0 0)"/><path id="path12802" class="cls-6" d="M128.56,112l2.44.56,2.63,1.47,1.16.86.21,1.35-1.61.71c-1.85.15-4.59.5-6.2-.7-1.42-1.05-.14-3.68,1.37-4.25" transform="translate(0 0)"/><path id="path12804" class="cls-5" d="M115.06,114a3.64,3.64,0,0,1,2.64,1.46l.63.89-.21,1-.55.22c-1.37.33-4.73,1.38-5.59-.34-.76-1.53,1.81-3.16,3.08-3.24" transform="translate(0 0)"/><path id="path12806" class="cls-3" d="M120,115.85c.93-.33,1.87-.64,2.8-1l.86-.1.67.75.35,2.08a2.93,2.93,0,0,1-3.54,1.56l-1-1-.13-2.33" transform="translate(0 0)"/><path id="path12808" class="cls-3" d="M151.43,69.72l2,.29,1.53,1,.35,1.75c-.56,1.47-4,2.47-5.24,1.49-1.63-1.27-.51-4.3,1.4-4.56" transform="translate(0 0)"/><path id="path12810" class="cls-3" d="M162.72,66.06c1-.08,2.16-.06,2.67.77,1.2,2-2.25,3.41-3.57,3.91a4.76,4.76,0,0,1-4.33-.21c-1.42-.76-4.39-2.54-1.71-3.38a33.79,33.79,0,0,1,6.94-1.09" transform="translate(0 0)"/><path id="path12812" class="cls-3" d="M148,62.84l0-.53.81-.61a9.88,9.88,0,0,1,3.25-.42l2,.46,1.18,1.58c.24,1.75-2.41,3.82-4.07,3.49s-2.75-2.61-3.1-4" transform="translate(0 0)"/><path id="path12814" class="cls-4" d="M162.36,62.78l.38-1.68-.09-.48-.25-.25a3.72,3.72,0,0,0-2.42-.89c-1.53.14-3.16,2.49-2.19,3.9s3.79.67,4.57-.6" transform="translate(0 0)"/><path id="path12816" class="cls-3" d="M12.9,131.41l-.08-2.28,1-.41a12.27,12.27,0,0,1,7.12.92c.84.39,1.73,1,1.83,1.94s-.74,1.75-1.54,2.32a18.59,18.59,0,0,1-2.55,1.51l-.9.32c-2.31.32-4-2.67-4.88-4.32" transform="translate(0 0)"/><path id="path12818" class="cls-3" d="M25,145.17l-.12-1.12a3.88,3.88,0,0,1,2.36-3l1.09-.18a2.74,2.74,0,0,1,1.85,1.7,10.49,10.49,0,0,1,.93,2.82c.9,5.08-4.85,2.48-6.11-.18" transform="translate(0 0)"/><path id="path12820" class="cls-2" d="M33.25,150a17.7,17.7,0,0,1,7.15.87l1,.57.1,1.75L40,154.22c-1.23.35-3.76.67-5,0L33.25,150" transform="translate(0 0)"/><path id="path12822" class="cls-3" d="M44.31,157.29l-.24-.92.68-.81,1.09-.23,3.32-.3,1.14.13.58,1.35-.6,1.44c-.53.9-1.05,1.81-1.58,2.72-1.34,2.32-3.77-2.18-4.39-3.38" transform="translate(0 0)"/><path id="path12824" class="cls-4" d="M50.14,145.52l2-1.3c.55-1,0-2.23-.58-3.23l-1.29-2.31a3.79,3.79,0,0,0-2-2.05,3.23,3.23,0,0,0-2.85,1,9.6,9.6,0,0,0-3.27,7.64c.14,1.61,1.5,1.31,2.83,1.24a21.92,21.92,0,0,0,5.19-1" transform="translate(0 0)"/><path id="path12826" class="cls-5" d="M49,149.9l-.53-1.83a10,10,0,0,1,7.46-.43l.81.83-.17.39a13,13,0,0,1-3.88,3.87c-1,.7-1.26.83-2-.2A17.06,17.06,0,0,1,49,149.9" transform="translate(0 0)"/><path id="path12828" class="cls-5" d="M56.55,163l2-.09.95-2.21a9.12,9.12,0,0,0-.28-4.29l-.32-.54-.63-.34-2.14.37-1.72,1.37-1.75,1.65c-.69.65-2.48,2.25-1.24,3l2.45.51,2.7.57" transform="translate(0 0)"/><path id="path12830" class="cls-5" d="M35,136.92l-.16-1.85,1-.94a5.47,5.47,0,0,1,4-.4l1.19.73.32.83a3.83,3.83,0,0,1-1.1,3c-.6.68-2.42,2.75-3.38,2.57-1.17-.22-1.57-3-1.9-3.92" transform="translate(0 0)"/><path id="path12832" class="cls-5" d="M21.83,137.18l-.54-.85.35-.47,3.64-3.15.63-.33.6.3.72.72.35,2-.34,2-.71.95c-.59.66-1.47,1.87-2.39,1.19s-1.44-1.65-2.31-2.3" transform="translate(0 0)"/><path id="path12834" class="cls-3" d="M50,127l.13-.53,1.41-.71a4.7,4.7,0,0,1,4,2.48A9.46,9.46,0,0,1,56.61,133a20.24,20.24,0,0,1-.5,4.45l-1.25,1.49-1-.66A23.8,23.8,0,0,0,51.34,136l-2.41-1.8c-.27-.82.4-2.72.53-3.59L50,127" transform="translate(0 0)"/><path id="path12836" class="cls-3" d="M60.14,149,62,147.62l1.57.34.32,1a31.54,31.54,0,0,1,.28,3.5l-.06.49-.32.31-2,.38c-1.06,0-3.29.53-3.64-.9-.28-1.14,1.29-2.92,1.94-3.74" transform="translate(0 0)"/><path id="path12838" class="cls-3" d="M54.45,143.08l-.87-1.77a42.51,42.51,0,0,1,6.29-1.37l2.11.44.21,1.5-.85,1.35c-.76.91-2,3-3.35,3s-2.73-2.16-3.54-3.1" transform="translate(0 0)"/><path id="path12840" class="cls-4" d="M37.39,147.37a3.13,3.13,0,0,0,2.53-.77l.36-2.29L39.75,143l-.91-.17H37.42l-1.7-.24-1.46-1.36-1.42-1.1-.56-.16-.56.61.1.88.37,1.37c.31,1.17.61,3.11,1.51,4s2.53.5,3.69.5" transform="translate(0 0)"/><path id="path12842" class="cls-6" d="M42.12,148.91v-.3l.36-.27,1.94-.51,1.84.65.66,1.75c.21,1.21,0,4.08-1.94,3.51-1.33-.4-2.59-3.64-2.85-4.83" transform="translate(0 0)"/><path id="path12844" class="cls-3" d="M30.12,131.53l.68-.17a2.54,2.54,0,0,1,2.57,1c.86,1.65-1.37,5.58-3.46,4.88-1.67-.54-1.22-5.06.21-5.75" transform="translate(0 0)"/><path id="path12846" class="cls-2" d="M41.54,133.49a5.41,5.41,0,0,1-1.47-3.24l.4-1.56.45-.44a2.87,2.87,0,0,1,3,0,4.39,4.39,0,0,1,1.85,2.54c.37,1.18.57,3.76-.49,4.7s-3-1.14-3.79-2" transform="translate(0 0)"/><path id="path12848" class="cls-5" d="M59.65,132.84l.76-1.2L62,131.2l.72.06.36.33a6.53,6.53,0,0,1,1.74,3.86l-.35,1.45c-.74,1-3.83,1.86-4.94,1.11-1.27-.86-.24-4,.15-5.17" transform="translate(0 0)"/><path id="path12850" class="cls-2" d="M18.63,126.67l-.58-.93.95-.94a15.8,15.8,0,0,1,5.22-.76c1.14,0,2.48.08,3.07,1L27,127.46a5.9,5.9,0,0,1-4.34,2.13c-1.57-.16-3-2-4.06-2.92" transform="translate(0 0)"/><path id="path12852" class="cls-3" d="M29.06,128.32l-.54-.62.59-2.41a5.84,5.84,0,0,1,2.47-1.07l1.27-.17a2.6,2.6,0,0,1,2.07,2,7.76,7.76,0,0,1,0,3l-.21,1.74-.11.3-.26.1c-2.6.46-3.56-1.17-5.32-2.83" transform="translate(0 0)"/><path id="path12854" class="cls-3" d="M47.28,122.87l1.13.17.75,1.82-.59,2-.76.4c-1.48.47-5.45.21-6-1.75s4.22-2.61,5.47-2.67" transform="translate(0 0)"/><path id="path12856" class="cls-5" d="M10.62,129.44l1.06-1.6,1.3-2.53.22-2.58-1.33-.6c-2.78-.43-6.13,1-6.74,4a3,3,0,0,0,1.29,3c1.45,1.35,2.57,1.83,4.2.35" transform="translate(0 0)"/><path id="path12858" class="cls-3" d="M18.23,128.15l.91-1.89-.81-1.8-2.16.61c-1.06.84-4.13,3-2.73,4.39l2.81.84c1-.18,1.43-1.34,2-2.15" transform="translate(0 0)"/><path id="path12860" class="cls-3" d="M59.57,165.45l.46-.67a9.5,9.5,0,0,0,2.12-2.35l.71-1L64,161l1.09.92.19,2-.4,1c-.47,1-1,2.73-2.35,2.69l-2.91-2.2" transform="translate(0 0)"/><path id="path12862" class="cls-7" d="M61,157l-.15-.59.45-.64,1.83-.64,2.56-.53a4.36,4.36,0,0,1-.61,3.74l-2.59,1.92L61,157" transform="translate(0 0)"/><path id="path12864" class="cls-4" d="M147.92,130.32l-.17,1.16-1.17.46a59.71,59.71,0,0,1-16.35-.5c-1-.19-2.36-.75-2.21-1.8l1-1.27a52.52,52.52,0,0,1,8.33-4.7,11.23,11.23,0,0,1,5-1.27c4.78.21,5.12,4.22,5.5,7.92" transform="translate(0 0)"/><path id="path12866" class="cls-2" d="M126.71,135l-1.52,1.35c-.71.79-1.42,1.77-1.19,2.78l.87,1.3a7.28,7.28,0,0,0,3.91,1.38,7,7,0,0,0,3.52-.22,17.89,17.89,0,0,0,4.37-2.74c1-1,.57-1.79-.48-2.68-2.16-1.84-7-2.7-9.48-1.17" transform="translate(0 0)"/><path id="path12868" class="cls-4" d="M125.82,132.47a26.46,26.46,0,0,1-7.54,1.2l-1.4-.28-.74-1.89.2-1.2c1-2.26,4-4.8,6.51-3.66,1.47.69,6.25,4.81,3,5.83" transform="translate(0 0)"/><path id="path12870" class="cls-5" d="M118.48,145a3.41,3.41,0,0,1-4.18-.56,5.92,5.92,0,0,1-1.53-4.19l.37-1.88,1.45-1.41c1.89-1.19,5.77-2.63,6.65.44.57,2-1.08,6.41-2.76,7.6" transform="translate(0 0)"/><path id="path12872" class="cls-2" d="M125.1,148.28l-.5,2.4a4,4,0,0,1-2.3,2.67l-1.65.11-2.23-1-.43-2.24,1.07-2.09a20.57,20.57,0,0,1,3.81-4c.92-.74,3.17-1.67,3.38.25l-.89,1.8-.26,2.1" transform="translate(0 0)"/><path id="path12874" class="cls-3" d="M128.61,126.43l-.84.5-2.13-.83c-.72-.59-1.52-1.38-1.35-2.3l1.52-1.54a13.3,13.3,0,0,1,6.07-1.35l2,.89,0,.34-2.47,1.65c-1,.89-1.84,1.81-2.85,2.64" transform="translate(0 0)"/><path id="path12876" class="cls-3" d="M109.14,135.78l-2.33-.53c-1.2-.76-1.56-2.31-1.74-3.72a4,4,0,0,1,.38-2.87c.78-1.1,2.37-1.19,3.67-.86,2.09.51,5.2,2.38,5.7,4.67.64,2.91-3.68,3.31-5.68,3.31" transform="translate(0 0)"/><path id="path12878" class="cls-3" d="M117.11,126l-1.93,1.49-2.38-.63-1.6-2-.54-.84-.36-.88L112,121.9c1.71-.32,6.46-1.27,8-.28,2.14,1.38-2,3.5-2.82,4.4" transform="translate(0 0)"/><path id="path12880" class="cls-5" d="M111.39,144.22a3.53,3.53,0,0,1-.8,2.74l-2.11.58-1.33-.13L106,146.3a10.83,10.83,0,0,1-1.94-3.41,3.61,3.61,0,0,1,.86-3.65c1.1-1,4.62-1.92,5.86-.89s.63,4.43.64,5.87" transform="translate(0 0)"/><path id="path12882" class="cls-3" d="M115.71,154.74l-.2,1.21a2.18,2.18,0,0,1-2.26.81,6.6,6.6,0,0,1-4.84-3.15l-.38-1.33,1.09-1.48,1.51-1.24c1.17-1,3.39-2.81,4.7-1.14,1.06,1.35.38,4.71.38,6.32" transform="translate(0 0)"/><path id="path12884" class="cls-2" d="M118.47,163.06l.07,2.28-1,.41a12.27,12.27,0,0,1-7.12-.92c-.84-.39-1.74-1-1.83-1.94s.74-1.76,1.54-2.32a18.19,18.19,0,0,1,2.55-1.51l.9-.33c2.31-.31,4,2.68,4.89,4.33" transform="translate(0 0)"/><path id="path12886" class="cls-3" d="M106.41,149.3l.12,1.12a3.9,3.9,0,0,1-2.36,3l-1.09.18a2.72,2.72,0,0,1-1.85-1.7,10.8,10.8,0,0,1-.93-2.83c-.9-5.07,4.85-2.47,6.11.19" transform="translate(0 0)"/><path id="path12888" class="cls-5" d="M101.59,138l-1.72-.66a5.31,5.31,0,0,1-2.44-2.75l.16-1.41.6-.43.88-.33,2,.83,1.41,1.6,1.47,1.38c.81,1.4-1.37,1.8-2.4,1.77" transform="translate(0 0)"/><path id="path12890" class="cls-3" d="M103.27,131.49l-.32.86-1.2-.44a11.73,11.73,0,0,1-2.62-3.65c-.83-2.17,1.71-3.45,3.53-2.54,2,1,.69,4.12.61,5.77" transform="translate(0 0)"/><path id="path12892" class="cls-2" d="M88.74,129.12l-.07.29-.21.13a30.76,30.76,0,0,1-5.27,1.76l-2.1-.3-.5-1.25c-.08-1.91,2.08-4.6,4.07-4.67,1.67,0,4.07,2.41,4.08,4" transform="translate(0 0)"/><path id="path12894" class="cls-3" d="M98.11,144.51a18.05,18.05,0,0,1-7.15-.86l-1-.58-.1-1.75,1.49-1.06c1.23-.38,3.76-.68,5,0l1.82,4.28" transform="translate(0 0)"/><path id="path12896" class="cls-5" d="M87.05,137.18l.25.92-.69.81-1.09.22-3.32.31-1.13-.13L80.49,138l.59-1.44,1.58-2.73c1.35-2.31,3.77,2.19,4.39,3.39" transform="translate(0 0)"/><path id="path12898" class="cls-3" d="M81.22,149l-2,1.28c-.55,1,0,2.24.58,3.24l1.29,2.31a3.83,3.83,0,0,0,2,2.05,3.23,3.23,0,0,0,2.85-1,9.57,9.57,0,0,0,3.27-7.64c-.15-1.61-1.5-1.32-2.83-1.24a21.36,21.36,0,0,0-5.19,1" transform="translate(0 0)"/><path id="path12900" class="cls-7" d="M82.37,144.57l.53,1.83a10.08,10.08,0,0,1-7.46.43l-.81-.83.17-.39a13,13,0,0,1,3.88-3.87c1-.7,1.26-.83,2,.2a16.33,16.33,0,0,1,1.65,2.63" transform="translate(0 0)"/><path id="path12902" class="cls-3" d="M74.82,131.51l-2,.09-.94,2.21a9.13,9.13,0,0,0,.26,4.29l.33.54.64.34,2.12-.37L77,137.24l1.75-1.65c.69-.65,2.48-2.26,1.23-3l-2.44-.52-2.69-.57" transform="translate(0 0)"/><path id="path12904" class="cls-2" d="M78.58,128.11,77.38,130l-.69,0c-1.7-.39-2.92-1.87-3.92-3.29l-.71-2.09c.19-.9,1.16-1.36,2-1.61,1.36-.39,4.82-1.23,5.87.2l-.34,2.08a12.68,12.68,0,0,0-1,2.85" transform="translate(0 0)"/><path id="path12906" class="cls-2" d="M27.27,123.54l-1.19,1.89-.69,0c-1.71-.39-2.91-1.86-3.92-3.3L20.75,120c.2-.9,1.17-1.36,2.05-1.61,1.36-.39,4.81-1.24,5.87.19l-.34,2.08a13.29,13.29,0,0,0-1.06,2.86" transform="translate(0 0)"/><path id="path12908" class="cls-8" d="M96.41,157.54l.15,1.86-1,.94a5.45,5.45,0,0,1-4,.4L90.35,160l-.33-.83a3.77,3.77,0,0,1,1.1-3c.6-.67,2.42-2.75,3.38-2.56,1.17.22,1.57,3,1.91,3.91" transform="translate(0 0)"/><path id="path12910" class="cls-3" d="M109.53,157.29l.54.85-.35.46-3.64,3.16-.63.33-.6-.3-.71-.72-.36-2,.34-2,.71-.95c.59-.66,1.47-1.86,2.39-1.19s1.44,1.65,2.31,2.3" transform="translate(0 0)"/><path id="path12912" class="cls-5" d="M80.86,167.49l-.13.53-1.41.71a4.71,4.71,0,0,1-4-2.47,9.4,9.4,0,0,1-1.06-4.76,19.6,19.6,0,0,1,.49-4.46L76,155.55l1,.66a24.88,24.88,0,0,0,2.47,2.22l2.41,1.8c.27.82-.4,2.72-.52,3.59-.19,1.22-.37,2.44-.55,3.67" transform="translate(0 0)"/><path id="path12914" class="cls-3" d="M71.22,145.51l-1.88,1.34-1.57-.34-.32-1a31.72,31.72,0,0,1-.28-3.51l.06-.49.32-.3,2-.38c1.06,0,3.3-.53,3.65.91.27,1.12-1.3,2.91-2,3.73" transform="translate(0 0)"/><path id="path12916" class="cls-2" d="M76.91,151.39l.87,1.77a42.51,42.51,0,0,1-6.29,1.37l-2.11-.44-.21-1.51.85-1.34c.76-.91,2-3,3.35-2.94s2.73,2.15,3.54,3.09" transform="translate(0 0)"/><path id="path12918" class="cls-4" d="M95.18,133.17c.39,1.45,1.24,2.82,1.09,4.31a74.4,74.4,0,0,0-7.44.76l.43-1.81,1-1.56a21.85,21.85,0,0,1,3.42-4.3l.39-.21c1-.14.93,2.29,1.07,2.81" transform="translate(0 0)"/><path id="path12920" class="cls-4" d="M94,147.1a3.12,3.12,0,0,0-2.52.77l-.36,2.29.53,1.27.9.17h1.43l1.7.25,1.46,1.36,1.42,1.1.56.17.57-.62-.11-.87-.36-1.38c-.32-1.17-.62-3.11-1.52-4s-2.53-.5-3.7-.5" transform="translate(0 0)"/><path id="path12922" class="cls-3" d="M89.25,145.57v.29l-.37.27-1.94.51L85.11,146l-.66-1.75c-.22-1.22,0-4.08,1.94-3.51,1.33.4,2.59,3.64,2.86,4.83" transform="translate(0 0)"/><path id="path12924" class="cls-3" d="M102.51,143.38l-.07.49-.26.28-1.24.78-.31,0-.14-.14a10.35,10.35,0,0,1-1.69-3.77v-1l1.12-.86c3.06-.86,2.6,2.29,2.6,4.21" transform="translate(0 0)"/><path id="path12926" class="cls-5" d="M101.24,162.94l-.68.17a2.53,2.53,0,0,1-2.56-1c-.87-1.65,1.36-5.58,3.45-4.88,1.67.54,1.22,5.07-.21,5.75" transform="translate(0 0)"/><path id="path12928" class="cls-5" d="M89.32,161a5.46,5.46,0,0,1,1.47,3.25l-.39,1.56-.46.44a2.89,2.89,0,0,1-3,0A4.39,4.39,0,0,1,85,163.69c-.36-1.18-.57-3.76.49-4.71s3,1.14,3.79,2" transform="translate(0 0)"/><path id="path12930" class="cls-3" d="M71.71,161.63l-.76,1.2-1.55.44-.73-.06-.35-.32A6.62,6.62,0,0,1,66.57,159l.35-1.45c.74-1,3.84-1.86,5-1.1s.24,4-.16,5.16" transform="translate(0 0)"/><path id="path12932" class="cls-3" d="M110.12,167.3l.57.92-1,.94a15.09,15.09,0,0,1-5.22.76c-1.13,0-2.48-.07-3.07-1l.26-2.38a5.9,5.9,0,0,1,4.35-2.13c1.56.16,3,2,4.06,2.92" transform="translate(0 0)"/><path id="path12934" class="cls-3" d="M99,165.54l.54.62-.6,2.42a6,6,0,0,1-2.46,1.07l-1.27.17a2.59,2.59,0,0,1-2.07-1.95,7.62,7.62,0,0,1,0-3l.21-1.74.1-.3.27-.1c2.59-.46,3.55,1.16,5.32,2.82" transform="translate(0 0)"/><path id="path12936" class="cls-4" d="M84.79,171.59l-1.13-.16-.75-1.82.59-2,.76-.39c1.48-.47,5.45-.21,6,1.74.59,2.12-4.23,2.62-5.47,2.67" transform="translate(0 0)"/><path id="path12938" class="cls-3" d="M141.38,134l-1.75.15-.39,2,.33,2.1,1,2,2.1-.24c1.24-.54,4.27-1.59,3.94-3.36s-3.78-2.35-5.21-2.66" transform="translate(0 0)"/><path id="path12940" class="cls-3" d="M138,119.62l-1.43.18-1.05.92-.08.93.17.62.34.18a3.66,3.66,0,0,0,2.88-.3l2.14-2c-.1-1-2.27-.55-3-.53" transform="translate(0 0)"/><path id="path12942" class="cls-4" d="M145.3,141.56l-.76.32-1.1,1.64.06.39.39.32,4.28,2.25.91.2.58-.63a7.71,7.71,0,0,0,.75-3.81c-.07-1.2-.73-2.74-2.18-2.67-1.22.06-2,1.45-2.93,2" transform="translate(0 0)"/><path id="path12944" class="cls-3" d="M71.79,129l-.46.67A9.5,9.5,0,0,0,69.21,132l-.71,1-1.09.45-1.09-.93-.19-2,.4-1c.47-1,1-2.73,2.35-2.68L71.79,129" transform="translate(0 0)"/><path id="path12946" class="cls-3" d="M70.41,137.5l.15.59-.45.64-1.83.64-2.56.52a4.35,4.35,0,0,1,.62-3.73l2.58-1.92,1.49,3.26" transform="translate(0 0)"/><path id="path12948" class="cls-5" d="M134.33,159.61l-.55-.43c-1.86-1.73-4.89-2.08-6.23-4.24l-.2-.59.78-.76,1.16.19L132.9,155c1,.34,6.42.78,6.59,1.23.55,1.4-4.19,3.88-5.16,3.43" transform="translate(0 0)"/><path id="path12950" class="cls-3" d="M143.09,155l-1,1.11-.38-.22a16.44,16.44,0,0,1-4.42-4.69l-.15-1.06.46-.41a8.49,8.49,0,0,1,2.68-1.24c1.21-.24,3.53.22,4.09,1.54s-1,3.62-1.31,5" transform="translate(0 0)"/><path id="path12952" class="cls-4" d="M136.29,147.22l-1,.16-1-.87-.71-2.27.86-1a9.68,9.68,0,0,1,2.56-1.68,3.25,3.25,0,0,1,3,.16c3.82,2.57-1.46,4.7-3.64,5.51" transform="translate(0 0)"/><path id="path12954" class="cls-8" d="M135,150.55l.37,1a21.69,21.69,0,0,1-7.62-.38,10.31,10.31,0,0,1,.44-5.42l.67-1c1.65-1,5.31,4.75,6.14,5.76" transform="translate(0 0)"/><path id="path12956" class="cls-2" d="M66.12,168.46l-.23,1.39,1.34,1.64,2.17.32a6.2,6.2,0,0,0,3-.65A3,3,0,0,0,74,168.72l-.15-.66-.48-.49c-1.24-1-3.53-3-5.28-2.65-1.43.29-1.57,2.35-1.95,3.54" transform="translate(0 0)"/><path id="path12958" class="cls-3" d="M151.43,130.35l2,.29,1.53,1,.35,1.75c-.56,1.46-4,2.46-5.24,1.48-1.63-1.27-.51-4.3,1.4-4.56" transform="translate(0 0)"/><path id="path12960" class="cls-3" d="M148,123.47l0-.52.81-.61a9.63,9.63,0,0,1,3.25-.42l2,.46,1.18,1.57c.24,1.75-2.41,3.82-4.07,3.49s-2.75-2.61-3.1-4" transform="translate(0 0)"/><path id="path12962" class="cls-4" d="M162.36,123.42l.38-1.69-.09-.48-.25-.24a3.78,3.78,0,0,0-2.42-.9c-1.53.15-3.16,2.49-2.19,3.92s3.79.65,4.57-.61" transform="translate(0 0)"/><path id="path12964" class="cls-5" d="M96.5,124l0-.54-.32-.4a3.87,3.87,0,0,0-6.43,2.83c0,2.06,1.45,4,3.49,3A6.16,6.16,0,0,0,96.5,124" transform="translate(0 0)"/><path id="path12966" class="cls-3" d="M100.89,122.15l.85-1.25,1.57-.19,1.49.31c1.49.48,4,2.6,1.54,3.62-1.4.59-5.38-.8-5.45-2.49" transform="translate(0 0)"/><path id="path12968" class="cls-3" d="M55.85,124.55A2.83,2.83,0,0,1,58,123.09a6.29,6.29,0,0,1,5.77,1.61,2.58,2.58,0,0,1,.83,2.39L62.9,128.7c-1.3.6-3.25,1.39-4.58.56s-3.06-3.23-2.47-4.71" transform="translate(0 0)"/><path id="path12970" class="cls-3" d="M64,123.56l-1.14-1.33,1-1.24a7.93,7.93,0,0,1,3.68-.61l1.9.62.22,1.56c-1.09,3.34-3.42,2.29-5.66,1" transform="translate(0 0)"/><path id="path12972" class="cls-9" d="M88.55,128.25c-.59-1.49-2.45-3.17-3.84-3.17h0c-1.48,0-3,1.55-3.73,3.1-.77-.09-1.54-.18-2.3-.3a12.76,12.76,0,0,1,1-2.62l.34-2.08a2.7,2.7,0,0,0-2.27-.8,14.51,14.51,0,0,0-3.6.6c-.88.25-1.85.71-2,1.61l.66,1.93c-.5-.15-1-.32-1.48-.48-.66-.4-1.3-.81-1.93-1.24a3.88,3.88,0,0,1,1.44.49l-.07-2.21a2,2,0,0,1-1.25.55l-.21,0a6,6,0,0,0,.46-1L69.46,121l-1.9-.62H67.2a10.83,10.83,0,0,0-1.8.13c.27-2.55-5.71-3-5.4-6.32l2.35,1.8a2.13,2.13,0,0,0-.05-3.06,1.45,1.45,0,0,0-1-.43,3.51,3.51,0,0,0-.84.14,3,3,0,0,1-.81.15,1,1,0,0,1-.56-.14c-2-1.15-.92-1.94.57-1.94a4.17,4.17,0,0,1,1.79.4c.91-3.75-3.41-2.48-3.51-4.71a2.33,2.33,0,0,1,2,1.23c-.45-1-.59-2-1.07-3a2,2,0,0,1,1-.33,2.09,2.09,0,0,1,1.61.91l1.21-.77a10.61,10.61,0,0,0-.88-2.8,3.79,3.79,0,0,1,2.61-1.32l.3-.82-.51-.08c-.57-1.49-.09-2.9-.09-4.41a3.44,3.44,0,0,0-1.54-.58c-1.66,0-.22,3.7-.5,4.41a1.84,1.84,0,0,1-1.72,1.38,3.23,3.23,0,0,1-2.79-3.16c-.13-3.16,3.81-3,1.56-5.76a2.66,2.66,0,0,0-2.18-1.08c-1.64,0-3.51,1.2-5.09,1.71-1.2-2.55,1.13-6.22,3.89-6.22h.31c.86.09,1.75,1.12,2.6,1.32-1.56-.72-1.21-2.26.58-2.26a3.9,3.9,0,0,1,.73.07l-.3-1c-1.22-2-4.74-.53-4.82-3.29a2.31,2.31,0,0,1,2.55-2.33,2.91,2.91,0,0,1,2.29,1A9.82,9.82,0,0,0,58.49,74c2.36-1.36,8.28-.62,3.27-4-1.22-.82-3.22-.1-2.66-2.33.25-1,.77-1.33,1.34-1.33a3.23,3.23,0,0,1,2.23,1.37c1.8-1.69-.91-4.66-.57-6.89h.15c0-.56.56-1.06,1.58-1.06a3.32,3.32,0,0,1,.53,0A6.39,6.39,0,0,1,64,58.6a42.56,42.56,0,0,1,6.07-4.78,1.37,1.37,0,0,1,.4,0c1.8.39,1.1,1.64,2.09,2.11a2.12,2.12,0,0,0,.91.16A8.87,8.87,0,0,0,74.78,56a12.9,12.9,0,0,1,1.3-.11,2.19,2.19,0,0,1,.59.06l-.27-1.45-.56,0a3.13,3.13,0,0,1-3.27-2.25c1.22-.68,2.47-1.3,3.76-1.86a8.6,8.6,0,0,1,1,.7,3.35,3.35,0,0,1,0-1.1,36,36,0,0,1,3.57-1.27q.2.15.39.33a3.55,3.55,0,0,0,.41-.57A42.3,42.3,0,0,1,91.14,47a17.08,17.08,0,0,0,2.58,3l.39.22h.08c.9,0,.86-2.31,1-2.8,0-.16.09-.31.14-.46.75,0,1.5.08,2.24.17l0,.27.6.43.88.32,1.52-.62a40.47,40.47,0,0,1,4.54,1.06c0,.15,0,.31-.06.45a4,4,0,0,0,.38,2.88,2.79,2.79,0,0,0,2.39,1,5.47,5.47,0,0,0,1.28-.16,9.51,9.51,0,0,0,2.07-.8c.67.52,1.33,1.05,2,1.62l-.36.09-1.6,2-.54.86-.36.87L112,58.7a33.57,33.57,0,0,0,5.7.73,7.63,7.63,0,0,0,1-.06,42.45,42.45,0,0,1,7.72,15.32l-1.17,1A3.34,3.34,0,0,0,124,78.51l.87,1.3A6,6,0,0,0,127.55,81a41.84,41.84,0,0,1,.27,4.77c0,.28,0,.55,0,.83a10.26,10.26,0,0,0-.16,3,44.1,44.1,0,0,1-1.21,6.92,5.42,5.42,0,0,0-4-1.66h-.11l-1.76.34-1.9,1.62a3.36,3.36,0,0,0,.7,3.45,9.08,9.08,0,0,0,3,2.06c.54.26,1.09.51,1.66.75-.28.62-.57,1.24-.88,1.84a1.55,1.55,0,0,0-.31,0,2.86,2.86,0,0,0-1.88.92L120,107.43,118.7,110l-.2,2.39c-.6.74-1.22,1.47-1.86,2.17a2.63,2.63,0,0,0-1.45-.51h-.13c-1.27.08-3.84,1.71-3.08,3.24a1.64,1.64,0,0,0,1,.81,41.87,41.87,0,0,1-6.1,4.38A5,5,0,0,0,104.8,121l-1.49-.31-1.57.19-.85,1.25c0,.89,1.17,1.71,2.44,2.18a42.3,42.3,0,0,1-8.1,2.86A6.08,6.08,0,0,0,96.5,124l0-.54-.32-.4a3.92,3.92,0,0,0-2.59-1,3.84,3.84,0,0,0-1.53.31,3.92,3.92,0,0,0-1.72,5.67c-.57.07-1.15.12-1.74.17M60.14,108.13h0m36.65-1.78h-.33l.07.28.27,0,0-.26m-13.37-.91.15.63.2.34.13.07-.48-1m19.86-2.91-.11.79.29.3.35-.43-.42-.36-.11-.3m-.4-.38,0,0,0,0h0m5.09-.27-.13.25.12,0,.09,0-.08-.27m-4.9,0h0v0m14.68-1.69-.45.23.24.48.78.23.16-.38-.73-.56m-52.81-.66-.17.51,1.09-.2,0-.06,0,0c.94-.39,2-1.22,3-1.74l-.71-.72L68.1,95.9c-3,.44-2.79,1.39-2.27,3.89l-.9-.25m2.94-6.2.38,2,1.56-.08c.32-1.48-.75-1.75-1.94-1.87M125.06,82.6a4.08,4.08,0,0,0-2.19.89,20.85,20.85,0,0,0-3.81,4L118,89.63l.43,2.24,2.22.94,1.66-.09a4,4,0,0,0,2.3-2.67l.5-2.42.26-2.1.88-1.78a1.11,1.11,0,0,0-1.18-1.15M104,90.09l-1.18.14.35.34.83-.48m-13.72.07-.28.08.12.31.16-.39M78.63,84.5l0,0,.5.5-.12-.3-.36-.22m-.15.21-.08.11.27,0-.19-.14M98,82.2l-1.92.15.09.86,1.22.55L98,82.2m-26.17-.1-.9.4.65.44.25-.84m21.1-7-.18.28.39.16-.21-.44m11.46-6.27c-.36,0-.53.26-.35,1l1.73-.43a3.4,3.4,0,0,0-1.38-.54m10.25-2.91-.15.13h-.15l0,1.34.45,0-.17-1.45m-3.72-1,.14.33.6.54-.09-.71-.65-.16m.35-.75.29.82,0-.5-.27-.32m5.41.66,0,0v0l0,0m-17-2.42-.51.24a7.64,7.64,0,0,0,3.29.85l-.2-1.37-.87.53-.51-.07-.47.39-.73-.57M84,60.94l-2.21,1.13.09.45a2.87,2.87,0,0,0,.39,0c1,0,1.37-.85,1.73-1.62m18.94.52-.41.37.66-.35-.25,0m-7.92-1-1.11.15h0a3.45,3.45,0,0,0,2.14,1.08h.19l.66-.34-.3-.05L95,60.48M75.63,58.86c-.48.85-.29,1.93,1.06,2.6l2.13-.18a5.82,5.82,0,0,0-.62-2.57,3.44,3.44,0,0,1-1.53.41,2.25,2.25,0,0,1-1-.26" transform="translate(0 0)"/><path id="path12976" class="cls-10" d="M71.24,126q-1.42-.5-2.79-1.08a1.26,1.26,0,0,1,.67-.17h.19c.63.43,1.27.84,1.93,1.24M64,58.6c-.39-2,.46-3.71,3.09-4.19l-.12.07a19.12,19.12,0,0,1,3-.66h.09A42.56,42.56,0,0,0,64,58.6m8.58-6.3s0-.1,0-.16a1.86,1.86,0,0,1,1.75-2.4,4,4,0,0,1,2,.71,39.7,39.7,0,0,0-3.76,1.85M77.31,50a2.12,2.12,0,0,1,1.28-1.74l.57-.12h.12a2.65,2.65,0,0,1,1.6.59c-1.22.37-2.41.79-3.57,1.27m27.82-1.42a38.35,38.35,0,0,0-4.54-1l.51-.21.73-.83c1.16.49,2.28,1,3.39,1.62l-.09.47m-23.45-.09c.3-.45.65-1.05,1-1.63a1,1,0,0,0,.85.57c.73,0,1.54-.91,2.22-1.9a2.91,2.91,0,0,1,.27.41,4.79,4.79,0,0,1,3-2.54l.17.74,1,1.56c.27.42.56.83.84,1.25a42.3,42.3,0,0,0-9.46,1.54m15.88-1.37c-.74-.09-1.49-.14-2.24-.17,0-.11.07-.21.11-.33a2.17,2.17,0,0,0,1.09.28l.28,0,.31-2c-.31,0-.62,0-.93,0H96c0-.13.07-.26.11-.39l1.73.5a4,4,0,0,0-.45,1l.13,1.14" transform="translate(0 0)"/><path id="path12982" class="cls-11" d="M121.54,54.25c-2.16,0-4.42-2.07-5.2-3.94l-.2-1.21.74-1.89,1.4-.27A25.63,25.63,0,0,1,125.5,48a2.5,2.5,0,0,0,.23.39l.19-.26c3.08,1.07-1.62,5.12-3.07,5.8a3.18,3.18,0,0,1-1.31.28" transform="translate(0 0)"/><path id="path12984" class="cls-12" d="M118.73,45a8.6,8.6,0,0,1-4.14-1.41,3.45,3.45,0,0,0,1.08-.28c1.62-.73,3.37-2.25,5.22-2.25a2.17,2.17,0,0,1,.36,0,5.14,5.14,0,0,1,0,2.08A2.38,2.38,0,0,1,118.73,45" transform="translate(0 0)"/><path id="path12988" class="cls-13" d="M107.84,53a2.79,2.79,0,0,1-2.39-1,4,4,0,0,1-.38-2.88c0-.14,0-.3.06-.45l.09-.47a4.09,4.09,0,0,1,1.59-2.8l2.33-.53c2,0,6.32.41,5.68,3.31a5.79,5.79,0,0,1-2.61,3.26c-.33.23-.68.43-1,.62a10.12,10.12,0,0,1-2.07.81,6.05,6.05,0,0,1-1.28.15" transform="translate(0 0)"/><path id="path12990" class="cls-13" d="M117.65,59.43a34.75,34.75,0,0,1-5.7-.72l-1.65-1.29.36-.87.54-.85,1.6-2,.36-.09,2-.53,1.93,1.5c.85.89,5,3,2.82,4.4a3.08,3.08,0,0,1-1.29.38c-.3,0-.64,0-1,0" transform="translate(0 0)"/><path id="path12992" class="cls-12" d="M109.11,42.7a7.42,7.42,0,0,1-1.94-.29,2.35,2.35,0,0,1,1-.22,6.5,6.5,0,0,1,1.91.39,3.47,3.47,0,0,1-1,.12" transform="translate(0 0)"/><path id="path12994" class="cls-12" d="M99.07,48.18l-.88-.32-.6-.43,0-.27L97.43,46a4,4,0,0,1,.45-1,6.57,6.57,0,0,1,2-1.79l.68-.26a27.55,27.55,0,0,1,3.27,1.33,1,1,0,0,1,.28-.22,1.87,1.87,0,0,1-.12.25l-1.47,1.37-.68.78-.73.83-.51.21-1.52.61" transform="translate(0 0)"/><path id="path12996" class="cls-12" d="M83.57,47.47a1,1,0,0,1-.85-.57c.65-1,1.4-1.88,2.15-1.88a1.19,1.19,0,0,1,.92.54c-.67,1-1.49,1.91-2.22,1.91" transform="translate(0 0)"/><path id="path12998" class="cls-13" d="M78.59,48.3a1.57,1.57,0,0,1,.57-.12l-.57.12" transform="translate(0 0)"/><path id="path13000" class="cls-11" d="M94.19,50.25h-.08L93.72,50a17.08,17.08,0,0,1-2.58-3c-.28-.42-.57-.83-.84-1.25l-1-1.56-.17-.74a5.55,5.55,0,0,1,1.77-.31,3.48,3.48,0,0,1,1.43.28c1.36.63,1.81,2.55,3.14,3.25,0,.12-.08.22-.11.33s-.1.3-.14.46c-.13.5-.09,2.81-1,2.8M96,45c-1.21,0-2.22-.42-1.93-2l.33,0,1.53.63a1.9,1.9,0,0,1,.31-.42,4.66,4.66,0,0,1-.13,1.34c0,.13-.07.26-.11.39" transform="translate(0 0)"/><path id="path13002" class="cls-13" d="M139.7,61.13l-.39,0,1.2-1.11.49.46c0,.53-.64.67-1.3.67m-4-1.13-.12-.11-.08-.92.17-.62.34-.18a3.72,3.72,0,0,1,1.1-.17h.29l0,.23.06.4.08.41-.94.12-.93.82m3-1.06c.08-.14.17-.27.25-.4l.37.34c-.22,0-.43,0-.62.06" transform="translate(0 0)"/><path id="path13008" class="cls-14" d="M130.34,81.31a13.48,13.48,0,0,1-1.56-.12c-.41-.06-.82-.11-1.23-.2a6,6,0,0,1-2.68-1.18l-.87-1.3a3.34,3.34,0,0,1,1.19-2.78l1.17-1,.35-.31a6.43,6.43,0,0,1,3.34-.79,11.74,11.74,0,0,1,2.88.38,8.56,8.56,0,0,1,3.26,1.58c1.05.89,1.5,1.66.48,2.67a12.46,12.46,0,0,1-1.95,1.45A16.94,16.94,0,0,1,132.3,81a5,5,0,0,1-2,.35" transform="translate(0 0)"/><path id="path13010" class="cls-14" d="M120.65,92.81l-2.23-.94L118,89.63l1.07-2.1a20.85,20.85,0,0,1,3.81-4,4.08,4.08,0,0,1,2.2-.89,1.12,1.12,0,0,1,1.18,1.15l-.89,1.78-.26,2.1-.5,2.42a4,4,0,0,1-2.3,2.67l-1.65.09" transform="translate(0 0)"/><path id="path13012" class="cls-11" d="M128.5,104.12a11.56,11.56,0,0,1-4.37-1c-.56-.24-1.12-.49-1.66-.75a9.18,9.18,0,0,1-3-2.06,3.36,3.36,0,0,1-.7-3.45l1.9-1.62,1.76-.34h.11a5.42,5.42,0,0,1,4,1.66c1,.95,1.87,2.19,2.93,3.37l1.27,1.93-.67,2-.9.22a5.43,5.43,0,0,1-.57,0m-5.44-5.56,0,.12.06-.09v0m.21-.55-.15.38.06,0,.21-.31-.12-.11" transform="translate(0 0)"/><path id="path13018" class="cls-13" d="M140.55,79.59l-1-2-.33-2.09.39-2,1.75-.16c1.06.23,3.2.56,4.39,1.46a2.54,2.54,0,0,0,0,1.47,6.5,6.5,0,0,1,.81-.24c.28,1.76-2.71,2.8-3.95,3.33l-2.1.25" transform="translate(0 0)"/><path id="path13036" class="cls-15" d="M132.64,91.11a22.08,22.08,0,0,1-4.86-.55c-.06-.31-.1-.63-.13-.94a10.26,10.26,0,0,1,.16-3,10.54,10.54,0,0,1,.41-1.46l.67-1a.88.88,0,0,1,.42-.11c1.78,0,4.95,4.94,5.72,5.87l.37,1a21.32,21.32,0,0,1-2.76.18" transform="translate(0 0)"/><path id="path13040" class="cls-16" d="M130.69,117.15a5.86,5.86,0,0,1-3.5-.86,1.41,1.41,0,0,1-.4-.45c-.7-1.22.44-3.31,1.77-3.8l.78.18,1.66.38,2.62,1.47.17.16v0l1,.73.21,1.35-1.61.71c-.79.06-1.74.17-2.7.17" transform="translate(0 0)"/><path id="path13060" class="cls-12" d="M104,140.77a2.94,2.94,0,0,1,.79-1.43,2.32,2.32,0,0,1-.49,1.15,2.56,2.56,0,0,1-.3.28m7.35-1.45a2.62,2.62,0,0,1-1.17-1.27,1.6,1.6,0,0,1,.58.3,2.1,2.1,0,0,1,.59,1" transform="translate(0 0)"/><path id="path13068" class="cls-13" d="M94.87,140c-.46,0-1,0-1.53-.08.3,0,.61,0,.91,0a6.58,6.58,0,0,1,1.21.1l-.59,0" transform="translate(0 0)"/><path id="path13070" class="cls-12" d="M82.38,134.27c.1-.16.19-.31.28-.48a1.08,1.08,0,0,1,.91-.65,1.34,1.34,0,0,1,.78.3,2.81,2.81,0,0,1-2,.83" transform="translate(0 0)"/><path id="path13072" class="cls-13" d="M80.32,133.63a5.28,5.28,0,0,1-1.41-1.26l1,.23a.78.78,0,0,1,.37,1" transform="translate(0 0)"/><path id="path13076" class="cls-11" d="M89.28,138.16l-.21-.78h0l.22-.94,1-1.56a1.74,1.74,0,0,0,.13-.2l.36.45-.21-.67c.52-.78,1-1.56,1.64-2.29a15,15,0,0,1,1.5-1.59l.08,0,0,.42.1.76V130.5l.25-.14h.08c.58,0,.77,1,.87,1.78,0,.45.07.86.12,1,.39,1.45,1.24,2.83,1.09,4.31-2.34.12-4.68.35-7,.68" transform="translate(0 0)"/><path id="path13078" class="cls-13" d="M102.51,141.13a4.28,4.28,0,0,1-2.62-1.94l0,0a3.44,3.44,0,0,1,.93-.15c1.22,0,1.58,1,1.67,2.1" transform="translate(0 0)"/><path id="path13086" class="cls-13" d="M105.5,124.78a6.48,6.48,0,0,1-2.17-.45c-1.27-.47-2.4-1.29-2.44-2.18l.85-1.25,1.57-.19,1.49.31a5.1,5.1,0,0,1,2.1,1.41c.63.77.76,1.65-.56,2.21a2.27,2.27,0,0,1-.84.14" transform="translate(0 0)"/><path id="path13088" class="cls-10" d="M63,122.12c-.4-.25-.8-.5-1.19-.76a.94.94,0,0,1,1-.83,2.81,2.81,0,0,1,1.26.39l-.14.07L63,122.12" transform="translate(0 0)"/><path id="path13090" class="cls-17" d="M64.22,124.4a2.58,2.58,0,0,1-2.34-1.93,2.18,2.18,0,0,1-.1-1.11c.39.26.79.51,1.19.76l-.08.11L64,123.56c.39.23.79.44,1.17.64l-.21.08a2.61,2.61,0,0,1-.76.12" transform="translate(0 0)"/><path id="path13094" class="cls-18" d="M67.76,54.17l-.68.24,1-.24Z" transform="translate(0 0)"/><path id="path13096" class="cls-19" d="M79.71,94c1.66-3.11-2.84-2.55-3.57-4.81l.91-.91c-1-1.27-4.69-2.32-2.17-4a3.32,3.32,0,0,0-1.72-2.71l1.42-.88c.38-1.69-.67-3.19-1.11-4.67,1.64-.09,5.41-3.94,3.58-5.4a17.18,17.18,0,0,1,2.63-.41l-.13-2.07a3.54,3.54,0,0,1,2.58,0c1.52-2.12,3.75,1.26,3.9-1.77.15-2.8-2.54-2.31-3.9-3.29C80.48,61.92,81,60,79.68,59c-1.69-1.3-4.54.24-3.06,2.37a4.44,4.44,0,0,0-2.88-.64c-1.58.51-.74,1.47-1.55,2s-2.45,0-2.91,1c-.61,1.32.51,2.17,1.71,2.08a1.81,1.81,0,0,1-1.76,2c-2.24.33-1.25-1.4-2.46-2-2.58-1.23-5.22,1.89-2.69,3l.6,2c-1.68.09-9.08.92-4.8,4-3.37,2.92-.39,5,2.4,6,.93,3.83-3.36,2.78-4.18,4.75S59.87,91.3,62,89.5c-.13,1.51-1.06,2.93,0,4.17a2.73,2.73,0,0,0,3.87-.06c-4.22-3.4,3.78-4.53,1,1.21l1.7.3.11-.51c1.73.87-.14,2.66,1.06,3.65s3-.29,3.13-1.55c2.35.77,4.65,2.26,7.1.82-.23-1.58-.4-2.92.66-4.14" transform="translate(0 0)"/><path id="path13098" class="cls-19" d="M62.93,71.17c-2.21-.59-3.63-4.54-3.55-6.85,3.31.44.34-3.38.61-5.09l1.4-.4c-.12-1.75,3.54-10,5.21-6h2.6c.44-2.12-2.35-5.29,1.55-5,1.27.08.6,1.89,2.09,1.51s.66-2.12.06-3.24c3.39-2.71,4.41,1.7,6.85,1.47,1.31-.12.87-2,2.4-2.12s2.27.82,2,2.35l-1.5.65a7.51,7.51,0,0,0,3.3.85l-.22-1.45a4,4,0,0,1,2.61-.86c.09,2.7,3.59,1.35,5.15,2.6,1.19,1,2.17,3.87,1.5,5.46-.83,1.94-2.19,2-4,1.28-.59-.24-5-3.78-3.25.16-1.92.52-6.12-5.1-6,.3-1.26.53-6.22,0-3.59,3.28-3.51.7-1.41,2.86-3,4.5-.88.9-2.23,0-3.19,1-.8.77-.34,2.46-1.19,3.31-1,1.06-1.81.24-2.78.88L66.3,71.55c-2.29.81-2.25-.32-4.27-1.27" transform="translate(0 0)"/><path id="path13100" class="cls-19" d="M91.14,55.6a4.71,4.71,0,0,0,.65,2.95c1.57.05,3.38-.35,4.18,1.26l-.89.65c-.79,4.37,4.32,2,5,5.59l-.83.11c-.15,1.41,2.17,3.16,3.15,4.47l-2.55,0c-1.53,5,6.4-2,5.3,3.51-2-.43-3,.89-2.08,2.66a4.39,4.39,0,0,0-2,2.42c3.23,1,.88,3.29.3,4.81l.81.09v1.11l-1.73.1c1.72,2.65,4.46,1.11,3.93-1.8,2.4-1.42,2.37,1.78,4.14.79,2.11-1.17-.47-5.13,1.51-5.65,2.19-.6,2.5,4,5.1,2.73,2.09-1.07,1.32-4.27-.17-5.42,1.62-1,3.5-.42,5.22-.33,1.57-2.81-2.41-3.58-4.4-3.9-.82-3.3,3.92-1,4.16-3.55.16-1.65-4.64-4.73-5.11-1.6-.47-2.39,0-3.46,2.69-3.25-.48-1.17-2.08-2-2.14-.88a8.44,8.44,0,0,0,.32-2.93h-1.11l0,1.06c-.1-1.49.91-2.22,2.35-2.05-.16-3.46-4.93-7-4.14-1.26-.69-1.12-2.72-2.42-3.09-3.49-.63-1.85.8-1.25.69-2.7-.28-3.84-4.33-4.64-3.9.21.84-4.53-7.29-5.05-6.24,0,.47-2.42-3-1-1.9,1.78-2.87.74-3-3.67-6-2.38-2.26,1-1.51,4.06-.59,5.42" transform="translate(0 0)"/><path id="path13102" class="cls-19" d="M75.2,95.78c0,.39.76-1,1.81-1.13,1.44-.14,1.08.6,2.39.77,3.16.43,2.82-1.49,5.42-1.69,1.07,3,3.76-.3,5.61,0,1.07.18,0,2.8,2.11,1.15.84-.66.71-2.55,1.25-3.35a34.78,34.78,0,0,1,2.47,2.7c1.64-.23,2-2.39,1.49-3.81,1-.3,1.54-.45,2.29.53.24-1.37-1.3-2.81-.54-3.82,1-1.31,3.24.18,3.85,1,.08-1.21,0-2.52.1-3.75,2.18-.59,3.75-.22,4.52,2,1.58-1,.33-2.77,0-4.13.9.47,1.35,2.93,2.65,2.9,1.86,0,1.14-2.57.34-3.48,2.41-1.35,7.41,2,4.18,3.79,1.29.29,4.51-.18,3.31-1.4a5.74,5.74,0,0,1,1.33,3l-2.81,1c-1,2.09,1.42,1.42,2,2,2.51,2.5,1.2,2.19-1.76,1.84l.8,2.6c-1.46-2.64-2,2.86-2,3-.09,2,.61,4.74-1.45,6.11-4.07,2.69-6.42-5.52-10,.32-.9,1.5.16,4.32-1.64,5.25-2.3,1.19-3.86-1.19-3.57-3.19-3.49-.2-4.51,2-6.24,4.22-2.61,3.27-5.36,2-4.78-2.12a4.4,4.4,0,0,1,3.21-.09c.62-2.34-1.35-3.78-3.5-3.22.24,1.85-.57,3.06-2.45,3-3.1-.18-.79-1.54-1.56-3.31-1-2.16-3.14-.57-5.28-1.87-1.22-.74-2.39-2.93-2.75-2.63l-.9-4.2" transform="translate(0 0)"/><path id="path13104" class="cls-19" d="M84.24,47.8A3.92,3.92,0,0,1,87.79,47c1,2,2.23.11,3.11,0,2.24-.23,1.7,0,3.32,1.08.77.5,0,1.11,1.12,1.57.89.37,1.73-.56,2.17-.54,1.75,0,3.2,0,3.88,2,1.56,0,6.77-4.35,6.29.91,2.82.68,3.32-1.45,3.9-3.51,1.58-.15,3.26,2.76,4.54.87s-1.25-3.27-2.73-3.35l.31-1.4,2.3-.1c.43-4.94-5.59-1.67-5.67-4.76,0-1.14,2-.89,2.13-2.7.07-1.16-1.8-3.21-2.64-3.56l-.59.83c-1.2-1.87-.89-5.14-2.54-6.49-2.72-2.23-5.24.34-7.5,1.37C95.43,30.86,90.4,24.43,89.07,31c-2.34-1-8-4.27-9.59-1.51l-1.84-.76c-.45,2.11,1.34,2.18,3,2l-.3,2c-2.51.24-2.77-2.69-4.5-3.5-2-.94-5.54.57-6.24,2.56-1.71-3.07-3.85,2.08-4.8,3.12-1.95-1.92-4.33-.71-4,2-5.73-4.7-6.71,4-.9,3.38l.31,1.7c-3.34-.12-2,4.26,1.48,2.49C63,46.79,61.06,49.22,65,48c1.63-.5,4.69-3.52,4.25.64,2.12.44,2.29-1.44,3.79-2.11,1.66-.75,2.37-.25,3.9,0l1.56-.22,1.57.82c1.35.32,3.07.66,4.36.1.25,1.12.63.4,1,.57" transform="translate(0 0)"/><path id="path13106" class="cls-19" d="M115.75,38.52c-3.44-.28-1.64,4.15-1,5.66-2.55-.41-1.74,2.09-.89,3.37-2.11,1-5,1.31-2.77,4.49-5.23-.85,1.58,6.1,3,6.91l-.84-.52c.79,1,5.62,7.21,1,6.84a3.55,3.55,0,0,0,4.7,3v2.6c-3.52-.81-1.75,1.6-2.42,3.28s-3.82,2.17-.94,4.28l-1.35,0a2.57,2.57,0,0,0,2,3.31c-.11,1,.16,1.52-.59,2.34,2.36,1.2,4.59,4.8-.22,4.26,0,1.44,1.09,2.42,2.28,3.25L120.89,93c1.38,2.61-2.85,3.13-3,4.83,2.57.81,2.48,3.29,5.59,2.37s1.34-2.2,2.1-4c.87-2.11,3.66-.6,4.82-2.77.5-.93-.57-1.87-.32-2.63.31-.92,1.21-.94,1.58-1.79,1.31-3-1.64-2.54-1.51-5.47.07-1.67,1.94-2.57,2.11-4.5l-.38-2.61,1.22-1.65c.49-2.24.29-3.89-2.29-4.8,0-1.36.48-2.72,2-2.67.14-2.55.42-6.64-3.5-5.17-.59-2.24,1.38-2.62,1.45-4.39s-2.32-4.15-2.69-1.6c-.64-2.62,2.09-2.22,2.11-4.09,0-2.91-3.55-1.9-5-1.57-.84-1.71,1.23-2.35.63-3.86s-3.46-1.71-4.53-.91a6.62,6.62,0,0,1-.09-4.1c-1.92-.31-2.76-3.63-4.75-3.08" transform="translate(0 0)"/><path id="path13108" class="cls-19" d="M51.26,40l-.79.32c1-.19,2.42-.85,3.49-.62,1.8.4,1.1,1.64,2.09,2.12,1.55.75,5.57-1.53,4.75,1.74-2.16.33-2.83,2.65-.62,3.74,1.17.57,4.38-1.73,3.62,1.37l-1.43,0c2.09-1.11,4.93,4,.64,4.25l-.11-1.43c-1.23-.7-2.51-.14-2.38,1.45.15,1.8,2,1.18,2.73,2,3.07,3.52-3.4,4.71-2.75.71-4.25,0-.75,4.15.83,5.14-4,1.84-1.89,5.41-2,8.57-2.24.69-2.48-1.67-3.86-1.46-2.2.32-2,2.48-.85,3.85l3.19.12c1.51,1.86-1,2.13-1.45,2.26-1,.27-2.24-2.24-2.39.37-.09,1.61,1.53,2.3,2.94,2.16.45.76.7,2.14-.17,2.72C55,80.51,55.06,78,54.16,77.82c-2.53-.37-4.33,2.45-1.76,3.77-4.26.42-3.59,1.43-2.94,4.82h.83a2.94,2.94,0,0,0-2.62-1.18c-.58-1.49-.09-2.9-.1-4.41-3.89-2.3-1.7,3-2,3.83-1.09,2.79-4.41.9-4.52-1.78-.12-3.16,3.81-3,1.57-5.76-1.93-2.41-4.91-.14-7.27.62-1.24-2.65,1.32-6.51,4.21-6.2,1.12.11,2.31,1.87,3.38,1.22.87-.51.64-2.43.23-3.08-1.22-2-4.74-.54-4.81-3.3-.07-2.58,3.48-3,4.83-1.31A9.63,9.63,0,0,0,42,59.75c2.37-1.36,8.29-.62,3.28-4C44,55,42,55.68,42.59,53.46s2.74-1.1,3.57,0c1.8-1.68-.9-4.66-.56-6.89l2.62-.08c-1.75-3-1.28-6.4,3.34-6.56" transform="translate(0 0)"/><path id="path13110" class="cls-19" d="M48.22,85.86c2.24.38,6.26-5.57,7.25,0,1.68-.22,2.26-2,4.08-.27s.09,3.52.41,5.37c1.56.84,4.73,1.87,5.44,3.34.61,1.29-.21,2.53.73,3.59s2.62,1.44,3.13-.53c1.91-.56,1.46,1,2.72,1.45a11.35,11.35,0,0,0,3.52.36c.75.05.84,1.17,1.8,1.09l1.49-.91c1.45-.22,2.72-1.29,3.86.38.59.87-.55,2.78.1,3.61,1,1.25,2.61-.15,3.56.57,3.48,2.65-1.53,3.5-2.51,4.75-1.81,2.3,1.21,3.86.69,6.06-.27,1.17-.76,2-2.11,1.81-1.8-.23-1-2-1.78-2.72-2.7-2.56-3.31.46-3.4,3-.07,2,1.22,1.2-.5,2.4-1,.67-4.73,1.12-5.36,0-.72-1.29,1.44-3.54,2-4.5a3.89,3.89,0,0,0-4.78.29c-1.08,1.17.19,3.2-.66,4.15-2.46,2.73-6.86-.8-6.57-3.8-2.26-.5-5.35-1-5.72,2-4.11-.19-6.54-8.87-1.44-6.23,1.21-1.16-.29-3-1.78-3.35-2.33-.5-2.6,1.89-4,2.34-3.63,1.17-4.94-6.4,0-2.74,2.22-3.52-5.34-3.58-5-7.35l2.34,1.8a2.13,2.13,0,0,0,0-3.06c-1.12-1.08-2.25.28-3.24-.29-2.83-1.6.45-2.51,2.36-1.53.92-3.76-3.41-2.49-3.51-4.72a2.55,2.55,0,0,1,2.24,1.74c-.68-1.14-.77-2.39-1.33-3.5a1.89,1.89,0,0,1,2.66.57l1.21-.76a11,11,0,0,0-.88-2.8,3.81,3.81,0,0,1,2.62-1.32L48.52,85" transform="translate(0 0)"/><path id="path13112" class="cls-19" d="M82.69,115.28c0-2.33,1-5.65,3.59-2.66.74-.67.69-1.65.12-2.69,1.53-.22,3.47-.39,3.84,1.41H91c1.09-5.85,4.85.94,7.2-1.8-.23-4.66,8.35,2.92,5.8-2.9,1.68-.36,7.09,3.23,5.69-1,2-1,2.23,1.88,4.16,1.53,3-.54-.46-2.91.06-4.21s2-.57,2.65-1.19l1-2.42c1.79-1.45,3.66-.74,3.89,1.47,1.51.35,2.29-1,2.41-2.29.87-.5,1.84-.61,2.37.23,1.19,1.9-1.41,1.77-1.84,2.33-2.27,3,.16.78.86,3.44.88,3.39-2.9,1.5-4.16,2.31-3.39,2.21.77,3.31,1,4.14,1.78,6.62-8-2-6.95,3.91.42,2.41,3.53,4-1.48,5.09-3.26.72-3.25-1.42-2.2-4-3.34-1.41-4,.58-2.67,3.24.66,1.31,2.46,1.31,1.51,3.21-.62,1.24-3.27,1.36-4.44,1.27s-2.75,0-3.3-1.5c-.44-1.16,1.21-2.61.86-3.3-1.35-2.74-4.12-.39-3.56,2.1.39,1.71,2.12,1.74.84,3.54-.76,1-4,1.28-5.1,1-3.64-1.07-1.12-4.84-4.5-4.81-4.48,0-1.84,3.89-3.37,5.63-1.86,2.15-5.43-1.37-5-3.49l1.12-.87c-2.85-1.55-4.79,1.08-4.52,3.77-1.3.22-5.64-.12-6.48-1.22-1.42-1.85,1-2.85,1.7-.9-2.1-.17-5.69-1.27-5-4.09,2-.68,3.7-.48,4.69,1.43,0-1.66-2.47-2.92-2-4.47.91-2.93,4.57-.09,5,1.41.46-1.36-.06-2.12-.23-3.46,1.35-.74,2.61.13,3.55,1.18a2.74,2.74,0,0,1,3-.86L83,115" transform="translate(0 0)"/><path id="path13114" class="cls-20" d="M67.75,46.29c-.53-.64-2-.29-2.69.93-1-1-.39-1.87-.06-3l-1.68-.09c-.48-1.56.18-1.67,1.37-.89l-.57-1.48c1.3-1.35,2.68-.09,3.63.93.19-.65.81-1,.65-2.07A3.15,3.15,0,0,1,72,42.06c.83-1.55-1.28-2.56-.33-3.82s3.06-.23,3.85.51c.24-2.39,3.56-2.39,3.12.3,1.93.22,1.27-2,3-1.76s1,2.08.34,3C85.42,42,84.29,39,84.3,37l2.33.59,1.51-1.54c2.25-.35,1.92.47,1,2.68,3,.91,2.11-3,5.05-2.07s-.57,4.95,3.25,4.17c-.94-4.79,4.54-.86,5.69.31.24-1.08-1.15-7.44,1.51-3.67-.07-.89.17-1.94.1-2.85,2.13.07,2.68,4.12,0,4.21.24,1.82,2.86,1.77,3.34,3.47.93,3.33-2.39,1.35-3.7,2.76-2,2.17,1.63,3.2.55,5-1.38,2.34-4.37.24-3.36-2.06a4.13,4.13,0,0,0-2.33,2.68c-2.38.56-3.23-1.9-3-3.8-3.09-2.05-3.42.47-2.69,2.9-3.91.09-5.78-5-9.56-1.13-2-1.18-4.48-6.29-7-1.65-2.08-1.34-2.77-3-5.1-2-1.1.48-.4,1.88-2,2.06l-2.46-1.45" transform="translate(0 0)"/><path id="path13116" class="cls-20" d="M61.72,83.47c-.95-2.89-2.16.36-2.91,1-1.15.92-3.23,2.27-3.07-.57-1.54,1.77-3,.56-4.1-.69l-.09-2.07L53.28,81c.73-3.39-5.76-.49-4.4-3.86.64-1.57,2.32.56,3.19-.89.55-.94-.75-2.52-1.1-3.26,1.14-.2,1.71-.43,2.58.22.55-1.37-.93-2.57-2-3.31-.57-2.29,2.35-2.58,3.47-1.17,1.43-2.37-1.31-1.81-1.44-3.21a1.9,1.9,0,0,1,2.74-2c1-2.26-2.62-2.49-1.23-4.9l2.13,1.68c1-1.85-.86-2.72-1.78-3.81,1.4-.56,2.93-.31,4.43-.4.25-2.3-3.11-1.78-3-3.27.16-1.85,3.09-1.15,3.55,0,.2-.93-.67-3.54-.17-4.12,1.12-1.27,2.14.7,2.34,1.49l.28-3.65c1.19-1.56,2.46.26,2.46,1.75,1.58.29,1.85-1.14,2.37-2.08,1.1.85,2.34,1.54,2.95,2.69-1-.53-.55-2.22-.22-3.5,2.33-.37,3.86,1.94,3.64,3.85-.11,1-1.45,1.59-1.53,2.64L74,54.35c-1.57,0-3.81-1-4.77.62-1.27,2.2,1.55,3.85,3.28,4-2.24.84-6.46.76-5.61,4.13.11.43,4.35,2.93.51,2.72-1.63-.1-2.2-2.21-2.74-3.58-1.42.42-1.76,1.35-1.74,2.72.06,2.76,2.32,1.74,3.31,3,2.59,3.3-3.47,5.56-4,2.12-1.63,1.53-2.42,5,.26,5.9a4.74,4.74,0,0,0-2.27,3.26c2.89-.12,3.91,4.43,1.15,3.34" transform="translate(0 0)"/><path id="path13118" class="cls-20" d="M55.12,85.86c-.37-1.62,5.06.49,1.83,2.35,1-.54,1.13-2.4,2.67-2,2.12.57.67,3.13.64,4.41a2.89,2.89,0,0,0,2.61-.92l-.23-.78c3.23-1.8,4.7,2.27,4.51,4.7,2.5,1,2.54-.95,4.68,1.25l1,2.1c.84.74,1.82.31,2.62.91,1.57,1.19,1.3,3.6,2.7,4.5s4.58-.86,4.12,2.14l.28-.33c-2.37,5.28-3.47-.44-5.22-1.31-2.93-1.46-3.46,2.19-2.51,4-2.36.82-4,.18-4.52-2.36-1.14-.07-2.34-.06-3.49,0,.28,4.18-3,4.22-4,.56-.38-1.56,1.74-2.42-.3-3.84a2.71,2.71,0,0,0-3.51.79c-2.1-2.21-1.29-7.78-5.12-7.5a23.35,23.35,0,0,1-1.19-4.16l.56-1.5-.91-1.5c-.67-3.86,0-4.1,2.46-7.15l2.36,1.42,1-1.71,1.72,1.48.66-.59c2.42,1.17,1.94,3.53,5,1.81a11.79,11.79,0,0,1,.3,2.91l-1.46-.6-1.19,2c-1-2.1-2.59-2-4.49-1.69-1.45.23-3.95,1.12-3.91,1.51" transform="translate(0 0)"/><path id="path13120" class="cls-20" d="M82.69,109.88c-1-1.46-.36-2.7,1.21-3.33,2.82,2.88,2.52-2.71,4.5-3.28l3.84,0a4.35,4.35,0,0,1,3,.3c2.38.88,1.28.78,3.31.32l3.39-1.12c.91-1.11-.88-2.43.51-3.1,1-.51,1.9,1.32,3,1.47-.09-.9.18-1.54-.28-2.35,2.57-2.68,1.41,2.83,3.63,1.76,2.59-1.26-1.63-3.91,2.1-4.75.93-.22,2.21,1.19,3,.55,1-.77-.2-2.85.28-3.85,1.32-2.74,3.84-.26,3.64,2.35l2.31-.21c.38,2.61-.6,5-3.26,2.63-2.44,2,.74,2.48,1.5,3.92,1.37,2.59-.84,3.49-3.32,2.88-.24,1.91.32,5-1.18,6.43s-4.42,1.22-4.57-1.18c-1.48,1-4.87,2.36-3.87,4.27-1.77-1-4.91-4.24-6.86-3.35-3.49,1.59-.19,7-5.4,4.5-2.93-1.38-4.26-2.92-6.9.53-2.17,2.83-1.7,3-4.8.25-2.88,3.73-5,.49-4.45-3.22,1.57.32,3,1.4,4.7,1.12.08-1.89,1.75-2.52,1.55-4.45" transform="translate(0 0)"/><path id="path13122" class="cls-20" d="M107.93,52c1.2,1.06,2.31-1.44,4.46-.9.88.23,3.53,2,3.9,3.24l-1.41.41c-1.09,4.29,2.64,2.13,4.09,3.62,1.76,1.81-.52,3.88-2.27,1.47-1.2,2.6.06,4.56,2.88,4.21.31,1.71-1,2.67-2.61,2.4-.18.8,4.63,11-.88,6.59-1.7,3.08,1.48,3.42,2.32,5.43,1.73,4.17-1.87.91-2.94,2.09-2.68,3,8.24,4.49,3.53,9.42l-.55-1.34c1.22,1.37.18,4.08-1.85,4.39-4,.63-1.15-2.13-1.18-3.22-.09-3.13-2.24-2.07-3.68-3.88-1.75-2.2-.87-5.06,2.14-4-.54-1.9-4.65-4.71-2.89-6.78,1.06-1.24,2.54.47,3.23-1.27.4-1-.78-2.75-1.25-3.55-2-.39-3.64,2.4-5.27.47-2-2.33,1-2.71,2.57-2.07,1.71-3.53-4.43-3.49-3.8-6.81,2.39-1.14,2.49,1.85,3.84,1.78,2.78-.15-.54-3.54-1.48-4.09-1.12-.65-4.73-1-3-3.07,1.45-1.76,3.41.44,4.19,1.09-1.18-1.42-4.08-1.08-4.7-3.32-.81-2.93,3.1-4.61,2.93-1.43" transform="translate(0 0)"/><path id="path13124" class="cls-21" d="M78.24,60.09c-3.44-.93-.21-2.37.3-3,.84-1,1.26-3.49,3.3-1.49,1.64-3.34,3.3-.24,5.11,0,1.65.22,5.71-2.69,4.83,2,1.37.28,2.75-.22,2.7-1.71a3.1,3.1,0,0,1,3.21,3.81,1.9,1.9,0,0,0-2.08,2.45c.49,1.6,2.62.85,3.41,1.71,2.16,2.37-.58,8.49-1.56,4.93,2-.44,6.82,3.32,6,5.1l-.37-.61c-3.43,2.21-3-.88-4.12-2.74-.88-1.49-5.35-3.74-4.55,0-2.08-.77-3.78-1.68-3.9-4.12-1.37-.54-2.5-.06-3.86-.13a6.69,6.69,0,0,1-4.2-1.43c-2.37-1.6-2.86-3.17-4.48-5.1" transform="translate(0 0)"/><path id="path13126" class="cls-19" d="M89.91,88l-2.63-.67c-1.21.19-1.12,1.53-1.94,1.81-2.33.8-2.91-1.61-3.5-3.78l1.13-.1c-.28-1.72-5-3.23-2.66-5.4l.92.83-.88-1.93,2.07.21c1.5-2.64-2-1.75-1.45-4.13,2.75-.53,5.07,3.29,6.81.79-.9-2.26-3.44.21-4.23-1.66s3.11-3.13,4-1.06l-.58-2c2.24-.6,2.63.9,4.15,1.39a15.92,15.92,0,0,0,5.06.12l.08,2.31a2.27,2.27,0,0,1,2,1.84c-3.68,1.58,3.34,10.65-2.93,9l0-1.72c2.35,4.54-3.53,8.18-4,3.89a4.3,4.3,0,0,0-.66,1.75c-1-.24-.67-.72-.85-1.48" transform="translate(0 0)"/><path id="path13128" class="cls-21" d="M85.41,86.49l-.58.53,1.52,1c-2.54,1.83-.7-2-3.29-2.15a19,19,0,0,1,0-3.2c2.54-1.25-1.16-2-1.21-2.81-.09-1.67,1.25-2.16,2.61-1.48A6.5,6.5,0,0,0,84,75.16c1.15-.72,2.53-.22,3.52.19l.39-1.71,1.71-.09c.38-1.92-1.88-3-3.5-3.3l-.32-1.11,1.43-.1c-.62-2.79-6.26-2.9-6.32.55-1.33-2-5.25,1.48-5.39,3-.87-.13-2.16.06-2.58,1-.75,1.68,1.11,1.15.84,2.32-.47,2.1-3.55,3-.14,5.19-1,1.33-.11,2.43-.4,3.45S71.7,86,71.6,87.38,73.38,89.93,74,91c1.21,2.33-1.1,1.91,2.09,1.73l1.25-.89,2.41.32c.93,0,3-.17,3.88-.29,3-.47,4.89-5.57.92-4.52" transform="translate(0 0)"/><path id="path13130" class="cls-20" d="M87.81,86.49c-2.53-1-1.1,1.58-1,2.18l1.29,1.11L87.8,91.9c1.17,1.95,5.09,2.15,6.62.11,0,.88.59,2.46,1.8,1.94s.27-2.55,1.1-3.33c1.4-1.32,6-.52,3.43-4.34,1.65-.88,5.16-2.41,2.4-4.57,1.66-1.38,2.69-4.1.9-5.94,3.17-.51.89-3.22,0-4.56a15.49,15.49,0,0,0-1.5-2.32c-.67-.75-2-1.36-2.69-2.23-.29.64-.87.85-1,1.82-1.12-1.08-3.1-3.58-4.5-1.58a2,2,0,0,0-2.72,0c-.82-1.35-4.48-2-5.91-1.4-1.18.49-2.49,1.16-1.76,3,.84,2.09,2.45.69,3.56,1.5.82.6.59,1.63,1.48,2.19s2.46.6,3.39,1c1.51.74,3.52,2.36,2,4.27,2.47,2.79,1.43,4.72,0,7.8-.65,1.42-.79,2.68-3,2.71-1.51,0-2.38-1.75-3.9-1.22" transform="translate(0 0)"/><path id="path13132" class="cls-19" d="M81.5,98.18a9.92,9.92,0,0,0-2.64-1.85v-1.1l.51-.09-1.12-2.37,2-.33-.21-2,2,.2.09-2c1.38,0,2.46-.34,3.81-.29l1,1.1.66-.81c1.56,1.85,7.4,3.24,9.24,1.2,1.08,0,1.31.29,2.16-.9,2.89,3.07,2-3.87,4.69-4.28.49-1.12-.37-3,.57-3.63,1.63-1,2.16,1.53,2.74,2.22-.45,1.94-2.18,3.58-3,5.36-.72,1.49-.53,2.47-2,3.6-1,.79-2.33.62-3.38,1.72-1.33,1.37-1.17,3-3.22,4.21-5.2,2.94-12,3.7-15-1.75" transform="translate(0 0)"/><path id="path13134" class="cls-21" d="M116,87.12l-.29-.64a14.15,14.15,0,0,1-4.15,1.18c-.7-2.12-1.58-.47-2.75-.93-1.39-.54-1.86-.33-2.37-2.57l1.12.75a8.68,8.68,0,0,0-2.09-3.51,3,3,0,0,1,3.29-.63l-.2-2.31,2-.39.09-1.41c1.51.2,3.36,3.72,4.39,5.13,1.15,1.59,2.48,3.73,1,5.33" transform="translate(0 0)"/><path id="path13136" class="cls-21" d="M63.62,64.24,64,62l-.08-2.21-.79-.54,1.08-1,1.6-.56-.63-2.45,1.93,0L67,52.78l1.41.28L68.91,52l-.52-.36L69,49.82l2,.77.21-1.38.58-1.16,1.51,1.62.42-2.35A10.81,10.81,0,0,0,76,50l-2,1.24-.49.47.47,1,1.21.13-1.07,1.53L73,55.84l.5,1.09-1.66,1-.28,1.34.77,1.23.27.69-1.35,1.4.33,1,.38,1-.81.23-.23,1.38-1.25-.14V65l1.25-.1-.24-1.17c-.93-.37-2.32,1.21-3.47,1.36-.83.1-3.09,0-3.59-.86" transform="translate(0 0)"/><path id="path13138" class="cls-21" d="M84.93,48.41l1.62-1.2,1.71.22-.1.83L88.72,50l1.71-.21.43-1.24,1.85-.2.29,2,2.08.51-.32-.91c.78,1.09,1.95,2.32,3.22,1.91l1-2-2-1c1.47-.28,2.34,1.9,3.83,2.06a1.87,1.87,0,0,0,1.9-2,2.7,2.7,0,0,0-1.91-2.26l.82.37-1.06-1.82L98.29,45l.15.79a2.09,2.09,0,0,0-1.72-2.87,2.71,2.71,0,0,0-2.67,2.4l0,1.4c-.71-.64-1.78-.57-2.73-.72s-2-.82-1.87-1.76l.07-1.05L89,43a8.6,8.6,0,0,0-2.68.07l-1.54.86.51,1.43c-.6-1.42-2.84-.75-4.16-1.53l-1.38-1.05-1.35.48c-1.35-1.56-3,1.68-.28,2.62,1.08.37,2.67-.28,3.75.27s1.45,2.71,3.05,2.31" transform="translate(0 0)"/><path id="path13140" class="cls-21" d="M77,82.16a2.75,2.75,0,0,1,2.57-.66,4.22,4.22,0,0,0-1.15-2.79,5.92,5.92,0,0,1,3.17-.4c.2-1.07-1.38-1.74-1.39-2.83l1.38-1.31,2,.46-.18-2.2,2.11.41a4.63,4.63,0,0,0-1.95-3.64c.5-1.19,2.45.66,3.55,0L87,67l-1.7-1.85A1.71,1.71,0,0,1,87.21,63a5,5,0,0,0-3.06-2.79c.23-1.18,2-1.35,2.91-.54A5.11,5.11,0,0,1,88.24,63l1.33-.25,1.1-1c1.08-.38,1.84,1.17,1.71,2.32-1-.62-2.28.6-2.1,1.71A3.16,3.16,0,0,0,92.63,68c.93.29,2.16.71,2.07,1.67L93,70.87,94.78,72l2.42.06,0,2.3a1.44,1.44,0,0,1-2.1-.94c-.39,1.26.75,2.45,1.86,3.16s2.43,1.46,2.65,2.75a2.8,2.8,0,0,1-3.59-.43c-1.41,1.83,2.49,4.34,1.38,6.37L94.79,85c1,.33.94,2,.06,2.59a3.67,3.67,0,0,1-3.1.15l-1.47-1.45,1.16-.73,1.2,0a2.23,2.23,0,0,0,1.09-3.73,9.3,9.3,0,0,0-1.42-6.92,1.83,1.83,0,0,0-2.26-2.28l-.63,1.12L88,74,88,76a2.51,2.51,0,0,0-3.11,1.32l-.47,1.17-1,.8a3,3,0,0,0-.76,3.7,1.74,1.74,0,0,0-1.52,1.89c.11,1.74,2.28,1.87,2.55,3.18.38,1.8-1.39,2-2.62,1.75-4.45-1-1.57-5.6-4-7.67" transform="translate(0 0)"/><path id="path13142" class="cls-21" d="M60.69,73.1l-1,.25,1,2a3.13,3.13,0,0,0-.21,5c-1.46.13-2.27,2.06-1.62,3.37a3.7,3.7,0,0,0,3.73,1.77C63,86.81,61.85,88,60.91,89s-1.68,2.73-.59,3.54c.74.57,1.8.2,2.71,0s2.19,0,2.32.93c-.89-.51-2,.79-1.59,1.74a2.72,2.72,0,0,0,2.53,1.44,22.46,22.46,0,0,1,3.07,0l.41,1.24-1.41.93.79,1.5c1.22.42,3-.93,3.64.17l1,1.58,1.39-1.49L74,98.74l1.85,1.4.43,1.22c.62.88,2.23.33,2.43-.73A2.25,2.25,0,0,0,77,98.24c.18-.89-.93-1.48-1.83-1.56s-2,0-2.57-.65l-1.12-2.54L69.38,93l-2.16-.77-.44-2.12,2-.2a1.75,1.75,0,0,0-.47-2.68L66,86.9l-.81-1.7,1.7-.12A2.53,2.53,0,0,0,64,81.73c-.17-1.07-.35-2.16-.52-3.23l1.7-.23a3.63,3.63,0,0,0-3-3.52l2.23-.27c-.56-.31-.36-3.18-2.06-3.81-1.87-.7-3.68,1-1.67,2.43" transform="translate(0 0)"/><path id="path13144" class="cls-21" d="M97.17,106.79l.59-2.3,1.93.61,1.66,1.41c1.2.23,2.07-1.23,3.27-1.47,1-.21,2.26.51,3.11-.13l1.17-2.16c.71-.85,2-.68,3.1-.93s2-1.88,1-2.34c.91.78,2.34-.24,2.7-1.39s.25-2.45.87-3.48l.7-1.15a1.41,1.41,0,0,0-2.16-1.39,2.25,2.25,0,0,0-.83-2.43,6.58,6.58,0,0,0-2.5-1.08l-1.66-.46c-.72-.63-1.5-1.48-1.3-2.4l.33-1a1.35,1.35,0,0,0-2-1.18l-.52,2.5A3,3,0,0,0,109,87.39c-1.15.19-1,2-.15,2.82s2,1.6,1.91,2.77a4.31,4.31,0,0,0-3-.19c-.94.4-1.42,1.86-.58,2.45l1.48.66c.72.76-.39,2-1.43,2s-2.13-.39-3.09,0a8.21,8.21,0,0,0-.62,3.28c-2.07-1.23-5.15.87-4.77,3.25l-2.08-.9-.07-2a2.39,2.39,0,0,0-3.43,3.3,5.23,5.23,0,0,0-2.88-.85c-1,.11-2,1.08-1.71,2.05-4.17-3.18-8.35,1.32-2.67,2.08,2.19.3,4.12,1.6,5.86.47,1-.62,1-1.73,2.36-2.16l3,.39" transform="translate(0 0)"/><path id="path13146" class="cls-21" d="M110.82,54.7l1,1.6-1.4,1,.7,1.58,2.06.19,1,1.4-1.38,1.14L113.86,63l1,.05c1,.23,1.09,1.55,1,2.54l-.25.75-2,.16L113.17,68l1,1.38a11,11,0,0,1,2.49,3.9,18.63,18.63,0,0,1-3.16.44l.19,2,1.7,1.6a1.37,1.37,0,0,1-2,1.46c-.55,1,.35,2,1.09,2.85s1.31,2.25.4,2.85l-1.1.24-2.24-.47a3.5,3.5,0,0,1-.91-2.66,2,2,0,0,0-2.38,2.54c-.74-.85-1.4-2.33-.44-2.91s2.35.48,3-.36-1.15-2.49-.33-3.38l1-.45a2,2,0,0,0,.63-3L111,72.86l.4-2.49c-.26-1-1.7-1-2.4-1.71s-.41-2.16.11-3.16,1.13-2.19.64-3.21l-1.89-1.73-.05-2.18a6.29,6.29,0,0,1-2.77-1.61c-1.55-1.78-.37-3.74,1.65-3.2l1.09,1.32c1,.36,2-.39,3-.19" transform="translate(0 0)"/><path id="path13148" class="cls-22" d="M62.07,54.05c-5.37,9.27-10.34.63.37.64-10.71,0-5.72-8.64-.37.64-5.35-9.28,4.63-9.28-.74,0,5.37-9.28,10.35-.63-.37-.64,10.72,0,5.72,8.64.37-.64,5.35,9.28-4.63,9.27.74,0" transform="translate(0 0)"/><path id="path13150" class="cls-23" d="M82.65,59.82c-5.37,9.27-10.35.63.37.64-10.72,0-5.72-8.64-.38.64-5.34-9.28,4.63-9.28-.73,0,5.36-9.28,10.34-.63-.37-.64,10.71,0,5.72,8.64.37-.64,5.35,9.28-4.63,9.27.74,0" transform="translate(0 0)"/><path id="path13152" class="cls-24" d="M74.05,86.22c-5.36,9.27-10.34.63.37.64-10.71,0-5.71-8.64-.37.64-5.34-9.28,4.63-9.28-.73,0,5.36-9.28,10.34-.63-.37-.64,10.71,0,5.72,8.64.37-.64,5.35,9.28-4.63,9.27.73,0" transform="translate(0 0)"/><path id="path13154" class="cls-24" d="M104.71,90.1c-5.36,9.28-10.34.63.37.64-10.71,0-5.72-8.65-.37.64-5.35-9.29,4.63-9.28-.74,0,5.37-9.28,10.35-.63-.37-.64,10.72,0,5.72,8.65.37-.64,5.35,9.29-4.62,9.28.74,0" transform="translate(0 0)"/><path id="path13156" class="cls-25" d="M89.05,78.67c-6.25,8.7-10.35-.4.31.67-10.66-1.07-4.84-9.16-.43.6-4.41-9.76,5.52-8.77-.74-.07,6.26-8.7,10.36.39-.3-.67,10.66,1.06,4.84,9.17.43-.6,4.41,9.77-5.52,8.77.73.07" transform="translate(0 0)"/><path id="path13158" class="cls-26" d="M89,93.76c-5.36,9.28-10.35.63.37.64-10.72,0-5.72-8.64-.37.64-5.35-9.28,4.63-9.28-.74,0,5.37-9.28,10.35-.63-.37-.64,10.72,0,5.72,8.65.37-.64,5.35,9.29-4.62,9.28.74,0" transform="translate(0 0)"/><path id="path13160" class="cls-27" d="M107.46,75.92c-5.37,9.28-10.35.63.37.64-10.72,0-5.72-8.65-.37.63-5.35-9.28,4.63-9.27-.74,0,5.37-9.27,10.34-.62-.37-.63,10.71,0,5.72,8.65.37-.64,5.35,9.29-4.63,9.28.74,0" transform="translate(0 0)"/><path id="path13162" class="cls-28" d="M95.06,67.51c-5.37,9.27-10.35.63.37.64-10.72,0-5.72-8.64-.37.64-5.35-9.28,4.62-9.28-.74,0,5.36-9.28,10.34-.63-.37-.64,10.71,0,5.72,8.64.37-.64,5.35,9.28-4.63,9.27.74,0" transform="translate(0 0)"/><path id="path13164" class="cls-29" d="M105.35,57.76c-5.36,9.27-10.34.63.37.64-10.71,0-5.71-8.64-.37.64-5.34-9.28,4.63-9.28-.73,0,5.36-9.28,10.34-.63-.37-.64,10.71,0,5.72,8.64.37-.64,5.34,9.28-4.63,9.27.73,0" transform="translate(0 0)"/><path id="path13166" class="cls-28" d="M74.57,68.67c-4.76,9.6-10.29,1.3.41.62-10.7.68-6.26-8.26-.33.66-5.93-8.92,4-9.55-.74,0,4.76-9.6,10.29-1.29-.41-.61,10.7-.68,6.26,8.25.33-.67,5.93,8.92-4,9.55.74,0" transform="translate(0 0)"/><path id="path13168" class="cls-22" d="M58.41,84.69c-5.36,9.27-10.35.63.37.64-10.72,0-5.72-8.65-.37.64-5.35-9.29,4.63-9.27-.74,0C63,76.7,68,85.34,57.3,85.33c10.72,0,5.72,8.64.37-.64,5.35,9.28-4.62,9.27.74,0" transform="translate(0 0)"/><path id="path13170" class="cls-22" d="M100.16,106c-2,10.53-9.57,4,.56.49-10.13,3.51-8.24-6.29-.14.73-8.1-7,1.33-10.28-.7.24,2-10.52,9.56-4-.56-.48,10.12-3.5,8.23,6.29.14-.73,8.09,7-1.33,10.28.7-.25" transform="translate(0 0)"/><path id="path13172" class="cls-22" d="M126.81,77.55c-2,10.52-9.57,4,.56.49-10.13,3.5-8.23-6.3-.14.72-8.09-7,1.33-10.28-.69.24,2-10.52,9.56-4-.56-.48,10.12-3.5,8.23,6.29.14-.73,8.09,7-1.33,10.28.69-.24" transform="translate(0 0)"/><path id="path13174" class="cls-22" d="M121.09,47.28c-2,10.52-9.57,4,.56.49-10.13,3.5-8.24-6.3-.14.72-8.1-7,1.33-10.28-.7.24,2-10.52,9.57-4-.56-.48,10.13-3.5,8.24,6.29.14-.72,8.1,7-1.33,10.27.7-.25" transform="translate(0 0)"/><path id="path13176" class="cls-22" d="M89.93,35.15c-2,10.52-9.57,4,.56.48-10.13,3.5-8.24-6.29-.14.73-8.1-7,1.33-10.28-.7.24,2-10.52,9.56-4-.56-.48,10.12-3.51,8.24,6.29.14-.74,8.1,7-1.33,10.29.7-.23" transform="translate(0 0)"/><path id="path13178" class="cls-22" d="M52.09,46.92c-2,10.52-9.57,4,.56.48-10.13,3.51-8.24-6.29-.15.73-8.09-7,1.34-10.28-.69.24,2-10.52,9.57-4-.56-.48,10.13-3.5,8.23,6.29.14-.73,8.09,7-1.33,10.28.7-.24" transform="translate(0 0)"/><path id="path13180" class="cls-22" d="M118.78,88.06c-2,10.52-9.56,4,.56.48-10.12,3.5-8.24-6.29-.14.73-8.1-7,1.34-10.28-.7.24,2-10.52,9.57-4-.55-.49,10.12-3.5,8.23,6.3.14-.72,8.09,7-1.33,10.28.69-.24" transform="translate(0 0)"/><path id="path13182" class="cls-22" d="M119.14,64c-2,10.53-9.57,4,.55.49-10.12,3.5-8.23-6.3-.13.72-8.1-7,1.33-10.28-.7.24,2-10.52,9.56-4-.56-.48,10.12-3.5,8.24,6.29.14-.73,8.1,7-1.33,10.29.7-.24" transform="translate(0 0)"/><path id="path13184" class="cls-22" d="M95.3,47.23c-2,10.51-9.57,4,.56.48-10.13,3.5-8.24-6.29-.14.72-8.1-7,1.33-10.28-.7.25,2-10.53,9.57-4-.56-.49,10.13-3.5,8.24,6.3.15-.72,8.09,7-1.34,10.27.69-.24" transform="translate(0 0)"/><path id="path13186" class="cls-22" d="M73.62,105.94c-2,10.52-9.57,4,.56.48-10.13,3.5-8.24-6.29-.14.73-8.1-7,1.33-10.28-.7.24,2-10.52,9.56-4-.56-.49,10.12-3.5,8.24,6.3.14-.72,8.1,7-1.33,10.28.7-.24" transform="translate(0 0)"/><path id="path13188" class="cls-22" d="M95.57,115.7c-4.52,9.71-10.25,1.54.43.6-10.68.94-6.47-8.1-.32.67-6.15-8.77,3.79-9.64-.73.07,4.52-9.71,10.25-1.54-.43-.61,10.68-.93,6.46,8.11.31-.66,6.15,8.77-3.78,9.64.74-.07" transform="translate(0 0)"/><path id="path13190" class="cls-30" d="M56.52,103.72c-2,10.53-9.57,4,.56.5-10.13,3.49-8.24-6.3-.14.72-8.1-7,1.33-10.28-.7.24,2-10.52,9.57-4-.56-.48,10.13-3.51,8.24,6.29.14-.73,8.1,7-1.33,10.28.7-.25" transform="translate(0 0)"/><path id="path13192" class="cls-30" d="M47.47,71.94c-2,10.53-9.57,4,.55.49-10.12,3.49-8.23-6.29-.13.72-8.1-7,1.33-10.28-.7.24,2-10.52,9.56-4-.56-.48,10.12-3.51,8.24,6.3.14-.73,8.1,7-1.33,10.29.7-.24" transform="translate(0 0)"/></svg>