<?xml version="1.0" encoding="UTF-8" standalone="no"?>
<svg
   xmlns:dc="http://purl.org/dc/elements/1.1/"
   xmlns:cc="http://creativecommons.org/ns#"
   xmlns:rdf="http://www.w3.org/1999/02/22-rdf-syntax-ns#"
   xmlns:svg="http://www.w3.org/2000/svg"
   xmlns="http://www.w3.org/2000/svg"
   xmlns:sodipodi="http://sodipodi.sourceforge.net/DTD/sodipodi-0.dtd"
   xmlns:inkscape="http://www.inkscape.org/namespaces/inkscape"
   width="91.102242mm"
   height="84.242561mm"
   viewBox="0 0 91.102242 84.242561"
   version="1.1"
   id="svg12291"
   inkscape:version="1.0.2 (e86c870879, 2021-01-15, custom)"
   sodipodi:docname="plant4.svg">
  <defs
     id="defs12285" />
  <sodipodi:namedview
     id="base"
     pagecolor="#ffffff"
     bordercolor="#666666"
     borderopacity="1.0"
     inkscape:pageopacity="0.0"
     inkscape:pageshadow="2"
     inkscape:zoom="0.35"
     inkscape:cx="146.44752"
     inkscape:cy="427.76999"
     inkscape:document-units="mm"
     inkscape:current-layer="layer1"
     inkscape:document-rotation="0"
     showgrid="false"
     inkscape:window-width="1267"
     inkscape:window-height="1030"
     inkscape:window-x="91"
     inkscape:window-y="0"
     inkscape:window-maximized="0" />
  <metadata
     id="metadata12288">
    <rdf:RDF>
      <cc:Work
         rdf:about="">
        <dc:format>image/svg+xml</dc:format>
        <dc:type
           rdf:resource="http://purl.org/dc/dcmitype/StillImage" />
        <dc:title></dc:title>
      </cc:Work>
    </rdf:RDF>
  </metadata>
  <g
     inkscape:label="Layer 1"
     inkscape:groupmode="layer"
     id="layer1"
     transform="translate(-67.08576,-34.985858)">
    <path
       d="m 132.10242,88.822675 c 0,15.789595 -12.79934,28.589575 -28.58862,28.589575 -15.789311,0 -28.591899,-12.79998 -28.591899,-28.589575 0,-15.789347 12.802588,-28.58802 28.591899,-28.58802 15.78928,0 28.58862,12.798673 28.58862,28.58802"
       style="fill:#7a4122;fill-opacity:1;fill-rule:nonzero;stroke:none;stroke-width:0.326765"
       id="path4456" />
    <path
       d="m 128.47212,88.822675 c 0,13.782925 -11.1754,24.957975 -24.95832,24.957975 -13.786133,0 -24.958288,-11.17505 -24.958288,-24.957975 0,-13.782641 11.172155,-24.957971 24.958288,-24.957971 13.78292,0 24.95832,11.17533 24.95832,24.957971"
       style="fill:#b59a63;fill-opacity:1;fill-rule:nonzero;stroke:none;stroke-width:0.326765"
       id="path4458" />
    <path
       d="m 127.10296,88.822675 c 0,13.028365 -10.56104,23.592365 -23.58916,23.592365 -13.031365,0 -23.592403,-10.564 -23.592403,-23.592365 0,-13.031083 10.561038,-23.592157 23.592403,-23.592157 13.02812,0 23.58916,10.561074 23.58916,23.592157"
       style="fill:#4a2816;fill-opacity:1;fill-rule:nonzero;stroke:none;stroke-width:0.326765"
       id="path4460" />
    <path
       d="m 113.07824,119.22842 c -0.58169,0 -1.16656,-0.19019 -1.68289,-0.64075 l -0.4542,-0.53594 c -0.5261,-0.47999 -0.68619,-0.97011 -0.62082,-1.45634 2.22853,-0.54278 4.35575,-1.3505 6.34573,-2.38312 0.003,0.91496 -0.0947,1.79723 -0.29739,2.47364 -0.40516,1.35929 -1.84288,2.54251 -3.29043,2.54251 m 8.72783,-1.18946 c -0.19272,0 -0.41169,-0.0333 -0.66657,-0.1009 -0.0817,0.0167 -0.16987,0.0228 -0.26794,0.0228 -0.22549,0 -0.49339,-0.0457 -0.81364,-0.14799 -1.70248,-0.54896 -1.69588,-2.67921 -1.94423,-4.40743 0.91164,-0.54243 1.79063,-1.13358 2.63038,-1.77169 0.40527,0.55252 0.84307,1.09273 1.14046,1.61223 0.61104,1.0747 1.97693,4.79295 -0.0785,4.79295 m 5.66939,-4.54167 c -0.21894,0 -0.46729,-0.0395 -0.72539,-0.10459 -0.0654,0.006 -0.13402,0.0128 -0.20588,0.0128 -0.91493,0 -2.29721,-0.68295 -2.8788,-1.04924 -0.47382,-0.29114 -0.82018,-0.66234 -1.12406,-1.062 l -0.72542,0.23238 c -0.21565,0.0356 -0.42806,0.0523 -0.64378,0.0523 -0.11106,0 -0.22215,-0.004 -0.33327,-0.0128 0.93126,-0.70968 1.81684,-1.47698 2.65338,-2.29387 0.16334,0.12644 0.32667,0.231 0.48359,0.30646 0.66657,0.31796 6.7117,2.66026 3.95065,3.83949 -0.12749,0.0562 -0.28106,0.0791 -0.45102,0.0791 m 6.56473,-6.75093 c -0.59806,0 -1.15023,-0.2516 -1.54887,-0.66368 l -0.3006,-0.17607 c -0.33659,0.48359 -0.8823,0.66985 -1.54238,0.66985 -0.2679,0 -0.55548,-0.0331 -0.85609,-0.0853 -0.0196,0 -0.0392,0 -0.0556,0 -0.76464,0 -1.6861,-0.24772 -2.62717,-0.57189 -0.30716,0.19897 -0.63729,0.33687 -0.94763,0.35355 3.72508,-4.83027 5.94053,-10.881604 5.94053,-17.450185 0,-10.887817 -6.08757,-20.353868 -15.04421,-25.18382 -0.0882,-0.15942 -0.17649,-0.320216 -0.26797,-0.479989 -0.50317,-0.865294 -1.90828,-2.189022 -2.04551,-3.173201 -0.10456,-0.751593 0.0229,-1.026054 0.26144,-1.026054 0.15353,0 0.34961,0.114688 0.5587,0.284585 0.47709,0.06897 1.30379,1.061967 1.6305,1.587747 0.28109,0.454555 0.70912,1.133581 1.18297,1.522766 0.0588,0.01665 0.11758,0.02318 0.1797,0.02318 0.25157,0 0.50649,-0.140511 0.74504,-0.496711 1.75471,-2.617999 -3.47352,-4.065235 -4.52904,-5.433766 -0.55213,-0.719808 -1.37886,-2.663754 -0.24825,-2.663754 0.12418,0 0.27122,0.02286 0.4444,0.07288 l 0.41822,0.25781 0.0948,0.01894 c 0.7843,0.232339 1.40184,1.87265 2.21552,2.555628 l 0.48038,-0.0193 c 1.37893,-0.451908 0.33323,-2.873234 -0.30068,-3.487209 l -0.49671,-0.375143 c -0.85936,-0.406154 -1.87561,-0.628051 -2.71868,-1.003477 -0.33983,-0.152964 -0.83972,-0.389149 -1.35608,-0.686541 -1.10772,-0.571817 -2.53894,-1.502484 -2.55527,-2.5746 -0.01,-0.643368 0.20584,-0.875704 0.51953,-0.875704 0.26797,0 0.60773,0.167294 0.94767,0.389484 0.63715,0.266623 1.41817,0.972464 1.77758,1.269817 0.38234,0.324114 0.76464,0.609113 1.13061,0.833564 0.33003,0.154552 0.63719,0.238866 0.91493,0.238866 0.70252,0 1.19274,-0.565626 1.26461,-2.065482 0.0882,-1.740966 -0.64372,-4.025731 0.29411,-5.666091 0.27118,-0.473471 0.68287,-0.976369 1.19916,-0.976369 0.21569,0 0.45424,0.09049 0.70912,0.310088 l 0.52934,0.293768 c 0.60777,0.546372 0.22222,2.121359 0.0817,2.806884 -0.42478,2.079251 -0.43134,3.72581 -0.16668,5.751404 1.01303,-0.494066 3.38525,-1.996201 4.41138,-1.996201 0.24176,0 0.40841,0.08172 0.46722,0.280702 0.0164,-0.0039 0.0294,-0.0039 0.0457,-0.0039 0.46408,0 0.65352,0.307791 0.32029,1.15414 -0.69603,1.761279 -3.45719,2.048475 -4.17283,4.05123 -0.18627,0.516925 -0.26141,0.863 -0.25489,1.088778 0.78095,-0.274496 2.29387,-1.587747 3.32652,-1.947862 0.0882,-0.747925 0.39208,-1.447201 1.01942,-2.01288 0.37582,-0.332916 0.68295,-0.477379 0.94111,-0.477379 0.0359,0 0.0686,0.0039 0.1046,0.01013 0.33658,-0.284621 0.62085,-0.408446 0.85936,-0.408446 1.28419,0 1.25808,3.558787 1.44431,4.519824 0.2255,1.162967 0.56857,1.646555 0.97049,1.72205 0.78755,-0.674123 1.64035,-1.993936 2.28413,-2.699738 0.50645,-0.559118 1.40829,-1.084863 2.25133,-1.338792 0.65355,-0.340783 1.37572,-0.569524 1.95079,-0.569524 0.91496,0 1.44766,0.578379 0.70262,2.203379 l -0.10787,0.201613 c 0.11433,-0.032 0.22553,-0.04607 0.33002,-0.04607 1.89526,0 2.12725,4.800847 1.81684,6.231396 -0.28751,1.336499 -0.5359,3.853569 0.46076,4.392366 0.23852,-0.722489 0.60117,-1.342954 1.16329,-1.562206 0.21565,-0.08435 0.39536,-0.123895 0.53583,-0.123895 0.46077,0 0.56205,0.398004 0.50652,0.90872 l 0.0686,-0.0562 c 1.42466,-2.03574 -0.46404,-4.681856 1.16978,-6.849287 l 0.26462,-0.293476 0.26147,-0.411057 c 0.51954,-0.690421 1.6763,-1.37989 2.64354,-1.37989 0.57182,0 1.07502,0.23883 1.34952,0.856438 0.647,1.476975 -0.87902,3.967234 -1.68282,5.094253 -0.17974,0.255235 -0.4379,0.529696 -0.73194,0.812976 -0.57514,0.697019 -1.62077,1.529292 -2.40175,2.301382 -0.81693,0.980334 -0.84631,1.768157 1.62729,1.910962 0.20257,0.01012 0.42806,0.01273 0.66661,0.01273 0.098,0 0.19936,0 0.30385,0 0.10132,-0.0025 0.20913,-0.0025 0.31373,-0.0025 1.54234,0 3.38529,0.09211 3.78721,1.577622 l 0.0522,0.252906 c 0.43459,0.231034 0.70912,0.622759 0.45752,1.293002 l -0.0883,0.601239 c -0.26794,0.680332 -1.58154,0.902264 -2.35268,1.019845 L 146.2021,71.3179 c -1.33318,0.251636 -2.46376,0.617926 -3.61724,1.143706 1.11104,0.666291 2.10436,1.254795 2.40831,1.654386 0.66005,0.865259 1.4606,2.979103 -0.14383,3.338901 l -0.36925,0.218299 c -0.15032,0.07285 -0.37574,0.11497 -0.696,0.11497 -0.0229,0 -0.0457,-0.0039 -0.0686,-0.0039 -1.88221,-0.03203 -3.11735,-2.486308 -5.22174,-2.486308 -0.0131,0 -0.0228,0 -0.0359,0 l -0.30719,0.01009 c 0.40195,0.447992 0.65352,0.892104 0.59799,1.248269 1.01293,0.722489 2.10107,1.519131 1.84291,2.120371 l -0.098,0.137548 0.049,0.163406 c 0.6568,0.879687 0.74507,2.440623 0.0719,3.669912 -0.29408,0.536223 -1.53251,1.447624 -2.37882,2.348478 0.24836,0.594995 0.10132,1.340344 -0.52938,1.990019 0.18299,0.16069 0.46073,0.297321 0.85616,0.405765 0.19272,0.05264 0.38227,0.07811 0.5751,0.07811 0.18626,0 0.37249,-0.02318 0.55876,-0.06766 1.3528,-0.60907 2.59775,-2.098463 3.53561,-2.932042 0.84628,-0.744008 1.55861,-2.192902 2.71865,-2.463482 l 0.1144,-0.01274 0.47703,-0.192793 c 0.16993,-0.03951 0.33006,-0.05881 0.47382,-0.05881 1.00975,0 1.3953,0.907768 1.18939,1.957 -0.43131,2.169724 -2.56505,3.650544 -4.53221,4.258063 l -0.60124,0.209444 c -0.42475,0.172191 -0.91489,0.427426 -1.0946,0.695361 l 0.4934,0.182633 c 0.32346,0.157268 0.57513,0.317994 0.7809,0.483976 0.40845,-0.163407 0.82674,-0.352637 1.1829,-0.448346 0.32675,-0.129998 0.63395,-0.241159 0.88223,-0.264019 0.13077,-0.01277 0.26472,-0.01923 0.40848,-0.01923 1.67961,0 4.13685,0.852805 5.40145,1.812572 1.58807,1.199833 2.13381,4.186802 0.0359,5.323946 l -0.6633,0.238866 c -0.33002,0.169581 -0.62741,0.245075 -0.89856,0.245075 -1.68945,0 -2.31355,-2.899022 -2.98997,-4.036201 -0.41493,-0.701852 -1.33646,-1.552152 -2.28406,-1.552152 -0.0785,0 -0.15688,0.0066 -0.2353,0.0193 -0.73515,0.487574 0.0719,1.394954 0.54899,2.085446 0.88879,1.286792 3.15324,3.38134 1.70244,4.933456 l -0.53262,0.435293 c 0.46404,0.676345 0.59799,1.460288 -0.049,2.090912 -0.513,0.50031 -1.36913,0.66629 -2.27756,0.66629 -1.12731,0 -2.34291,-0.25781 -3.08466,-0.45713 -0.29732,-0.0778 -0.64699,-0.22581 -1.01621,-0.39835 -0.85287,-0.294749 -1.99655,-0.983865 -2.99314,-1.444628 -0.30064,-0.104916 -0.57189,-0.165982 -0.8006,-0.165982 -0.68626,0 -0.97373,0.580672 -0.42153,2.3586 0.46397,1.49359 1.92465,4.13325 0.29076,5.30631 -0.4705,0.34085 -0.96062,0.48757 -1.4181,0.48757"
       style="fill:#72886a;fill-opacity:1;fill-rule:nonzero;stroke:none;stroke-width:0.326765"
       id="path4462" />
    <path
       d="m 110.32033,116.59539 c 0.0621,-0.46112 0.33327,-0.92181 0.68947,-1.35703 -0.0719,-0.93426 0.13398,-1.91848 0.46073,-2.75438 3.93749,-1.3237 7.4404,-3.60483 10.22445,-6.56467 -0.0457,1.12042 0.86921,2.61765 1.79726,3.35294 -0.83654,0.81689 -1.72212,1.58419 -2.65338,2.29387 -0.0523,-0.004 -0.10449,-0.0101 -0.1536,-0.0127 0.0196,0.0255 0.0392,0.0549 0.0588,0.0804 -0.83975,0.63811 -1.71874,1.22926 -2.63038,1.77169 -0.0916,-0.63458 -0.21566,-1.21525 -0.47382,-1.64391 -0.26793,-0.45064 -0.57185,-0.72902 -0.88879,-0.87577 l -0.54246,0.22842 c 0.3006,0.863 0.45423,2.00014 0.45744,3.09806 -1.98998,1.03262 -4.1172,1.84034 -6.34573,2.38312 m 15.77947,-10.32253 c -0.34964,0 -0.67642,-0.15719 -0.93779,-0.55911 l -0.47382,-0.45844 -0.12093,-0.29344 c -0.49015,-0.18006 -0.94431,-0.3333 -1.3365,-0.42771 -0.13391,0.0127 -0.25809,0.032 -0.37246,0.0588 3.50943,-4.30019 5.61382,-9.790188 5.61382,-15.770265 0,-8.008092 -3.77422,-15.138437 -9.63958,-19.70391 -0.0229,-0.323251 -0.0588,-0.643467 -0.10453,-0.960085 -0.44115,-0.78486 -1.12081,-1.415556 -1.41816,-2.274606 -0.16673,-0.477379 -0.21566,-1.258358 -0.01,-1.790665 -0.0784,-0.153246 -0.16009,-0.303918 -0.24179,-0.454554 8.95664,4.829952 15.04421,14.296003 15.04421,25.18382 0,6.568581 -2.21545,12.619915 -5.94053,17.450185 -0.0229,0 -0.0425,0 -0.0621,0"
       style="fill:#564924;fill-opacity:1;fill-rule:nonzero;stroke:none;stroke-width:0.326765"
       id="path4464" />
    <path
       d="m 111.47053,112.48398 c 0.0784,-0.19932 0.1634,-0.39208 0.25156,-0.57179 0.25817,-0.52352 0.51957,-0.93846 0.79075,-1.27409 8.56457,-3.53952 14.59012,-11.972995 14.59012,-21.815425 0,-7.182274 -3.20555,-13.613096 -8.26717,-17.938787 0.0359,-0.594677 0.0359,-1.183181 -0.003,-1.765123 5.86543,4.565473 9.63955,11.695818 9.63955,19.70391 0,5.980077 -2.10439,11.470075 -5.61379,15.770265 -0.80715,0.1863 -1.13721,0.69571 -1.16335,1.32637 -2.78398,2.95984 -6.28689,5.24097 -10.22438,6.56467"
       style="fill:#777e4a;fill-opacity:1;fill-rule:nonzero;stroke:none;stroke-width:0.326765"
       id="path4466" />
    <path
       d="m 108.57539,114.89486 c -0.21566,0 -0.44112,-0.0444 -0.67967,-0.14277 -0.51629,-0.21301 -0.81692,-0.49407 -0.95747,-0.81068 -0.13723,-0.11078 -0.24179,-0.22843 -0.32018,-0.35356 1.5815,-0.19515 3.11407,-0.53851 4.58777,-1.01593 -0.66986,1.10152 -1.50312,2.32294 -2.63045,2.32294"
       style="fill:#564924;fill-opacity:1;fill-rule:nonzero;stroke:none;stroke-width:0.326765"
       id="path4468" />
    <path
       d="m 106.61807,113.58785 c -0.19276,-0.31009 -0.21237,-0.66629 -0.11434,-1.04147 -0.11444,0.0422 -0.23533,0.0651 -0.35299,0.0651 -0.22542,0 -0.44436,-0.0857 -0.63387,-0.28071 2.43114,-0.20556 4.75771,-0.77738 6.92415,-1.66324 -0.18627,0.24504 -0.35945,0.52218 -0.52278,0.75809 -0.21897,0.31277 -0.4542,0.72118 -0.7124,1.14631 -1.4737,0.47742 -3.00627,0.82078 -4.58777,1.01593"
       style="fill:#777e4a;fill-opacity:1;fill-rule:nonzero;stroke:none;stroke-width:0.326765"
       id="path4470" />
    <path
       d="m 99.556657,113.95181 c -0.810366,0 -1.568451,-0.33457 -1.983458,-0.88325 1.094669,0.26801 2.21876,0.46437 3.362391,0.58202 -0.19932,0.0817 -0.41821,0.15324 -0.66004,0.21177 -0.23852,0.0626 -0.480345,0.0895 -0.718893,0.0895"
       style="fill:#564924;fill-opacity:1;fill-rule:nonzero;stroke:none;stroke-width:0.326765"
       id="path4472" />
    <path
       d="m 100.93559,113.65058 c -1.143631,-0.11765 -2.267722,-0.31401 -3.362391,-0.58202 -0.297322,-0.3944 -0.418254,-0.90117 -0.251602,-1.47701 1.806999,0.49019 3.695703,0.77089 5.646523,0.817 -0.366,0.51954 -0.95412,0.91525 -1.84622,1.16032 -0.0588,0.0267 -0.1209,0.0562 -0.18631,0.0817"
       style="fill:#777e4a;fill-opacity:1;fill-rule:nonzero;stroke:none;stroke-width:0.326765"
       id="path4474" />
    <path
       d="m 79.888694,99.788526 c -0.565255,0 -0.99007,-0.362409 -1.0783,-1.357983 -0.143828,-0.2425 -0.235303,-0.585929 -0.258128,-1.062003 -0.03598,-0.797983 0.339796,-1.386134 0.905087,-1.870075 0.382376,1.382572 0.882227,2.716389 1.486817,3.990094 -0.372533,0.182703 -0.735224,0.299967 -1.055476,0.299967"
       style="fill:#564924;fill-opacity:1;fill-rule:nonzero;stroke:none;stroke-width:0.326765"
       id="path4476" />
    <path
       d="m 80.94417,99.488559 c -0.60459,-1.273705 -1.104441,-2.607522 -1.486817,-3.990094 0.346463,-0.293475 0.764611,-0.551215 1.202514,-0.790151 0.359445,1.401515 0.846314,2.750714 1.444343,4.038529 -0.369253,0.284904 -0.771208,0.552838 -1.16004,0.741716"
       style="fill:#777e4a;fill-opacity:1;fill-rule:nonzero;stroke:none;stroke-width:0.326765"
       id="path4478" />
    <path
       d="m 76.771373,92.234742 c -0.522816,0 -0.839787,-0.251637 -0.689469,-0.974126 -0.333304,-0.179705 -0.418253,-0.634259 -0.02289,-1.562276 0.457482,-1.078654 1.437781,-1.694886 2.519328,-2.000074 -0.01626,0.372816 -0.02283,0.749229 -0.02283,1.124409 0,0.967563 0.05556,1.924932 0.163407,2.86572 -0.682978,0.288501 -1.421483,0.546347 -1.947546,0.546347"
       style="fill:#564924;fill-opacity:1;fill-rule:nonzero;stroke:none;stroke-width:0.326765"
       id="path4480" />
    <path
       d="m 78.718919,91.688395 c -0.107845,-0.940788 -0.163407,-1.898157 -0.163407,-2.86572 0,-0.37518 0.0066,-0.751593 0.02283,-1.124409 0.451026,-0.123896 0.921526,-0.199073 1.379008,-0.224825 -0.0229,0.444359 -0.03595,0.895032 -0.03595,1.349234 0,0.762 0.03595,1.51645 0.107809,2.261799 -0.330024,0.157198 -0.803875,0.388267 -1.310287,0.603921"
       style="fill:#777e4a;fill-opacity:1;fill-rule:nonzero;stroke:none;stroke-width:0.326765"
       id="path4482" />
    <path
       d="m 80.081523,80.202937 -0.382341,-0.458188 c -0.996632,-1.449811 -0.539185,-3.571487 1.25476,-3.571487 0.19932,0 0.418254,0.02681 0.650276,0.0817 0.098,0.02674 0.196038,0.0526 0.290794,0.08558 -0.709083,1.225409 -1.316884,2.5158 -1.813489,3.862388"
       style="fill:#564924;fill-opacity:1;fill-rule:nonzero;stroke:none;stroke-width:0.326765"
       id="path4484" />
    <path
       d="m 81.133647,81.330274 c -0.294075,-0.215653 -0.581624,-0.513398 -0.859331,-0.895068 l -0.192793,-0.232269 c 0.496605,-1.346588 1.104406,-2.636979 1.813489,-3.862388 0.359481,0.121215 0.705838,0.293759 1.042459,0.49403 0.06198,0.03207 0.127388,0.0677 0.189477,0.103329 -0.807121,1.382501 -1.476975,2.852949 -1.993301,4.392366"
       style="fill:#777e4a;fill-opacity:1;fill-rule:nonzero;stroke:none;stroke-width:0.326765"
       id="path4486" />
    <path
       d="m 85.21825,66.851603 c -0.633907,-0.04346 -1.231936,-0.219569 -1.476975,-0.781262 L 83.613816,65.456684 83.195528,64.97927 c -0.568537,-1.313604 0.830015,-1.989984 1.820121,-2.101109 0.192758,-0.02286 0.405131,-0.02942 0.637223,-0.02942 0.339831,0 0.718855,0.01538 1.114284,0.03563 0.395323,0.01669 0.80705,0.03203 1.218777,0.03203 1.382254,0 2.738296,-0.199002 3.326483,-1.284182 0.147002,-0.27679 0.166652,-0.571853 0.104563,-0.87182 -1.003159,-1.333853 -3.016038,-2.67656 -3.695806,-3.489537 -0.310374,-0.376731 -0.529308,-0.814281 -0.659977,-1.248551 -0.990141,-1.342672 -0.914929,-3.317311 0.22218,-3.317311 0.35941,0 0.826735,0.196674 1.395307,0.674088 1.411569,1.17281 2.22197,3.541783 3.444134,4.976637 0.529308,0.6205 1.617451,1.963208 2.529134,1.963208 0.01305,0 0.02286,0 0.03598,0 0.323427,-0.01277 0.555413,-0.107209 0.728662,-0.25781 -0.60459,-0.34604 -1.101196,-0.850265 -1.38878,-1.581538 C 93.81869,57.94107 93.81869,57.577074 93.959237,57.332 c -0.392148,-1.116895 0.169898,-1.453798 1.039072,-1.453798 0.356164,0 0.76461,0.0562 1.179618,0.140547 0.147073,-0.676769 0.42478,-1.293001 1.039142,-1.430937 0.104528,-0.02286 0.202565,-0.03591 0.29076,-0.03591 0.630661,0 0.875771,0.561657 0.960755,1.202478 0.287549,0.169898 0.441078,0.51562 0.516255,0.917858 0.199319,0.02286 0.375744,0.03563 0.535869,0.03563 0.575102,0 0.898662,-0.146685 1.045702,-0.391795 -0.35292,-0.97409 -1.290741,-2.235024 -1.725399,-3.087582 -0.343076,-0.666291 -0.519535,-1.686101 -0.467254,-2.561872 -0.166617,-1.340365 0.104564,-2.781385 1.00323,-2.781385 0.372498,0 0.856123,0.249015 1.460573,0.856432 1.73185,1.738757 1.45087,4.865885 2.68277,6.918276 0.40523,0.676381 0.99663,1.274057 1.67961,1.274057 0.31369,0 0.64699,-0.127776 0.99335,-0.431659 0.44111,-0.387879 0.60773,-0.859085 0.65352,-1.368178 -0.0687,-0.58226 -0.1699,-1.164273 -0.12093,-1.683809 v -0.01633 c -0.0392,-0.3562 -0.0686,-0.706156 -0.0392,-1.026372 0.085,-0.917893 0.4444,-2.097194 1.33971,-2.097194 0.2026,0 0.43787,0.06241 0.7026,0.202953 0.80708,0.427708 0.84952,1.355761 0.80708,2.254356 0.10128,0.640469 0.003,1.382184 -0.01,1.993583 -0.0162,0.901206 -0.61429,3.577731 -0.68616,5.440292 0.0294,0.219252 0.0784,0.408446 0.14701,0.555167 -1.77105,-0.343429 -3.60091,-0.522147 -5.47328,-0.522147 -6.960094,0 -13.338528,2.482745 -18.29555,6.616948 m 27.94819,-4.947533 c -0.99988,-0.359762 -2.02597,-0.663645 -3.07161,-0.91133 0.43131,-0.332987 0.85288,-1.065601 1.28419,-1.797192 0.5849,-0.994339 1.19598,-1.987409 1.89526,-1.987409 0.21234,0 0.43134,0.08823 0.66333,0.297674 0.2843,0.25781 0.30713,0.699276 0.17318,1.228972 0.366,0.649958 -0.21569,1.933787 -0.94435,3.169285"
       style="fill:#72886a;fill-opacity:1;fill-rule:nonzero;stroke:none;stroke-width:0.326765"
       id="path4488" />
    <path
       d="m 88.851861,68.622089 c 0.24832,-0.300003 0.591397,-0.506907 0.960685,-0.662446 -0.326743,0.211807 -0.646995,0.433987 -0.960685,0.662446 m -3.29378,-1.761632 c -0.114406,0 -0.225461,-0.0025 -0.339831,-0.0089 4.957022,-4.134203 11.335456,-6.616948 18.29555,-6.616948 1.87237,0 3.70223,0.178718 5.47328,0.522147 0.0425,0.08527 0.0915,0.154234 0.14707,0.206833 0.16665,0.149331 0.32674,0.218264 0.4869,0.218264 0.16009,0 0.3169,-0.06893 0.47378,-0.189159 1.04564,0.247685 2.07173,0.551568 3.07161,0.91133 -0.72542,1.231901 -1.59791,2.415117 -1.82006,2.869671 -0.0392,0.07779 -0.0915,0.178718 -0.14707,0.296016 -2.42136,-0.783554 -5.00602,-1.205053 -7.68551,-1.205053 -3.37224,0 -6.587561,0.666538 -9.521931,1.878894 -0.365936,-0.08791 -0.741715,-0.123578 -1.127372,-0.123578 -2.065126,0 -4.329571,1.087508 -6.313029,1.195987 -0.29083,0.01535 -0.640504,0.04445 -0.993387,0.04445"
       style="fill:#564924;fill-opacity:1;fill-rule:nonzero;stroke:none;stroke-width:0.326765"
       id="path4490" />
    <path
       d="m 88.66884,70.484297 c -0.231987,-0.322862 -0.303848,-0.77089 -0.104528,-1.351492 0.06861,-0.196744 0.166582,-0.366642 0.287549,-0.510716 0.31369,-0.228459 0.633942,-0.450639 0.960685,-0.662446 0.33983,-0.147991 0.705767,-0.255482 1.035896,-0.353519 0.810331,-0.241477 3.2905,-0.846279 4.022443,-1.562594 l -0.630696,-0.230999 c -0.08163,-0.02678 -0.163336,-0.04971 -0.24832,-0.06893 2.93437,-1.212356 6.149691,-1.878894 9.521931,-1.878894 2.67949,0 5.26415,0.421499 7.68551,1.205053 -0.16012,0.336938 -0.37581,0.801582 -0.53262,1.26492 -2.25796,-0.718573 -4.65963,-1.104159 -7.15289,-1.104159 -5.626911,0 -10.789814,1.967124 -14.84496,5.253779"
       style="fill:#777e4a;fill-opacity:1;fill-rule:nonzero;stroke:none;stroke-width:0.326765"
       id="path4492" />
    <path
       d="m 115.12379,66.723862 c -0.77117,-0.405836 -1.56524,-0.770855 -2.38213,-1.097633 0.0653,-0.101917 0.11765,-0.192758 0.16337,-0.261726 0.28102,-0.447957 1.15676,-1.767769 1.89851,-1.767769 0.19607,0 0.38234,0.09183 0.54567,0.314042 0.15357,0.205493 0.12746,0.584589 0.01,1.012261 l 0.0293,0.02942 c 0.24186,0.326743 0.0392,1.078336 -0.26462,1.771403"
       style="fill:#564924;fill-opacity:1;fill-rule:nonzero;stroke:none;stroke-width:0.326765"
       id="path4494" />
    <path
       d="m 114.47679,67.926305 c -0.83654,-0.437797 -1.69922,-0.829592 -2.59125,-1.16646 0.34956,-0.322862 0.65024,-0.794067 0.85612,-1.133616 0.81689,0.326778 1.61096,0.691797 2.38213,1.097633 -0.20592,0.480025 -0.4608,0.934544 -0.647,1.202443"
       style="fill:#777e4a;fill-opacity:1;fill-rule:nonzero;stroke:none;stroke-width:0.326765"
       id="path4496" />
    <path
       d="m 102.96812,112.40855 c -1.95082,-0.0461 -3.839524,-0.32681 -5.646523,-0.817 0.06862,-0.23227 0.183022,-0.47992 0.3562,-0.73123 0.267935,-0.39572 0.614363,-0.72902 0.993352,-1.03908 0.320252,-0.27809 0.676416,-0.52976 1.039142,-0.77477 0.810329,-0.59111 1.594629,-1.21263 1.970409,-2.15963 0.57831,-1.46421 0.013,-2.05895 -0.93458,-2.05895 -0.3464,0 -0.74503,0.0778 -1.153445,0.22584 -0.470641,0.16987 -1.07509,0.29997 -1.663277,0.29997 -0.914999,0 -1.797226,-0.32025 -2.081494,-1.33876 -0.09476,-0.34085 -0.098,-0.62184 -0.03591,-0.85682 -0.0817,-1.03258 0.905122,-1.35936 1.885421,-1.35936 0.267934,0 0.535869,0.0255 0.780909,0.0654 l 0.346463,0.0752 c -0.875806,-0.42514 -1.346342,-1.83674 -1.529327,-2.718651 l -0.104528,-0.326848 -0.405166,-0.0944 c -0.189583,0.133985 -0.398709,0.209162 -0.630696,0.209162 -0.271215,0 -0.571888,-0.108514 -0.885507,-0.370205 -0.699277,-0.57411 -0.611082,-1.567145 -0.555555,-2.369079 0.0164,-0.24504 0.0556,-0.655814 0.08826,-1.123104 -0.496711,0.270616 -0.820138,0.976384 -0.928052,1.708997 -0.04576,0.329389 -0.03263,0.624487 0.0066,0.905122 0.352884,0.825677 0.947667,1.545661 1.310358,2.463476 l 0.179705,0.748 0.06205,0.13786 c 0.382305,0.96623 0.415008,3.50002 -1.091389,3.50002 -0.06858,0 -0.137266,-0.004 -0.212372,-0.0141 -0.921491,-0.13402 -1.356078,-0.9676 -1.561959,-2.08054 -0.17646,-0.45187 -0.277777,-0.99695 -0.336621,-1.59166 -0.22539,0.4186 -0.535834,0.74404 -1.003159,0.77085 l -0.535869,-0.0918 -0.535905,0.20292 c -0.02939,0.004 -0.05881,0.004 -0.08495,0.004 -1.189355,0 -1.307042,-1.33029 -1.094634,-2.167425 0.320252,-1.277656 1.712242,-3.4042 1.287427,-4.914266 -1.251479,0.418606 -2.525854,2.254109 -2.627171,3.42452 -0.05232,0.630626 -0.117616,5.489991 -1.437782,5.489991 -0.222179,0 -0.473815,-0.13402 -0.771172,-0.44411 -0.222179,-0.2323 -0.336515,-0.6447 -0.385551,-1.11199 -0.431341,-0.8002 -0.261443,-2.522286 -0.114406,-3.250983 0.326779,-1.62366 1.656751,-2.486308 2.114198,-3.933896 l 0.0719,-0.271851 c -0.774418,0.431306 -1.483501,0.860319 -1.950755,1.026337 l -0.542467,0.127423 c -0.388796,0.588539 -0.751558,1.2192 -1.146951,1.692628 -0.2679,0.316653 -0.777663,0.816963 -1.369095,1.271199 -0.598029,-1.287815 -1.084898,-2.637014 -1.444343,-4.038529 0.248391,-0.137831 0.503273,-0.2679 0.754803,-0.395711 0.163477,-0.215653 0.42157,-0.437903 0.813717,-0.663646 0.251531,-0.140476 0.535835,-0.251671 0.833191,-0.349638 l 0.31369,-0.316618 c 0.326778,-0.412397 0.480378,-0.791422 0.506518,-1.137497 -0.460798,-0.6852 -1.503115,-1.097597 -2.476923,-1.097597 -0.38227,0 -0.754768,0.06505 -1.078301,0.199037 -0.07518,0.03334 -0.176424,0.08167 -0.297356,0.13783 -0.07186,-0.745349 -0.107809,-1.499799 -0.107809,-2.261799 0,-0.454202 0.01305,-0.904875 0.03595,-1.349234 0.160126,-0.01277 0.316971,-0.01637 0.473816,-0.01637 0.251601,0 0.49343,0.01277 0.728662,0.0356 2.627172,0.265712 3.19899,1.342708 4.911232,3.127164 0.604555,0.630625 1.326727,0.919233 1.908351,0.919233 0.588187,0 1.035827,-0.294781 1.071775,-0.827123 L 88.642772,90.10073 c -0.186266,-0.232304 -0.601274,-0.758437 -0.999948,-1.369801 -0.76133,-0.375108 -1.875614,-0.920185 -1.754682,-1.789359 0.06537,-0.48133 0.330024,-0.680332 0.676381,-0.726405 l -0.10132,-0.411175 c -0.594713,0.34604 -1.248234,0.653486 -1.800472,0.653486 -0.03919,0 -0.07839,0 -0.114371,-0.0039 -0.689434,-0.05489 -1.290708,-0.555131 -1.27762,-1.183216 -0.434622,-0.345723 -0.588222,-0.911367 -0.07193,-1.479304 0.434622,-0.477378 0.977088,-0.565608 1.54887,-0.565608 0.169898,0 0.339831,0.0066 0.51301,0.01312 0.169968,0.01009 0.343147,0.0163 0.513045,0.0163 0.803839,0 1.56524,-0.173531 2.058635,-1.329937 0.215688,-0.509375 0.251601,-0.885825 0.169897,-1.160356 -0.222109,-0.123755 -0.513044,-0.173461 -0.833226,-0.173461 -0.764645,0 -1.692663,0.291112 -2.251463,0.575733 -0.797348,0.408482 -1.548835,0.672501 -2.254673,0.672501 -0.53587,0 -1.045563,-0.152965 -1.529257,-0.509094 0.516326,-1.539417 1.18618,-3.009865 1.993301,-4.392366 0.297356,0.177377 0.584905,0.372816 0.87249,0.575698 0.842998,0.559118 1.702435,1.078689 2.728419,1.101549 0.02942,0 0.05884,0 0.08823,0 2.055354,0 1.931212,-1.37601 0.895386,-2.601348 -0.823454,-0.973773 -1.738419,-2.846459 -0.339902,-3.86895 l 0.787541,-0.336867 c 0.182986,-0.0817 0.352884,-0.119945 0.509729,-0.119945 0.895315,0 1.450869,1.198563 1.637136,2.166197 0.297356,1.528904 -0.05225,2.897399 0.731908,4.185144 0.186267,0.04219 0.388867,0.06534 0.591467,0.06534 0.666609,0 1.307113,-0.268253 1.2319,-1.085145 -0.07186,-0.770855 -1.192671,-1.091389 -1.565169,-1.751154 -0.715645,-1.274021 -0.0066,-2.042266 0.865893,-2.042266 0.04251,0 0.08827,0.0039 0.130669,0.0062 0.0883,-0.01506 0.176495,-0.0255 0.268005,-0.0255 0.637152,0 1.359359,0.437903 1.67633,1.437463 0.274461,0.862648 0.169862,2.735333 0.771137,3.56235 0.114371,0.04875 0.245075,0.07553 0.392148,0.07553 0.215653,0 0.470535,-0.05623 0.767926,-0.186584 2.646751,-1.14367 -0.735294,-2.519715 -0.986895,-3.767984 -0.17646,-0.873055 0.555519,-1.793241 1.444307,-1.793241 0,0 0,0 0.0032,0 h 0.800524 c 0.892069,0.316266 1.225373,1.715524 1.339744,2.501689 0.06861,0.441784 0.343111,2.529875 0.963965,3.399049 0.06209,0.02321 0.124178,0.03334 0.189548,0.03334 0.254885,0 0.545645,-0.180093 0.878985,-0.617926 0.76461,-1.009685 -2.408207,-4.339766 0.15039,-4.760983 l 0.32671,-0.01009 0.0686,-0.0193 c 0.0784,-0.01408 0.15359,-0.02029 0.22553,-0.02029 1.03907,0 1.19595,1.428291 1.24495,2.257954 0.0653,1.094952 -0.14383,1.696226 0.51625,2.280814 0.97378,0.561693 2.06192,0.747995 3.17289,0.747995 1.16656,0 2.35599,-0.207892 3.4605,-0.411057 0.50969,-0.09451 1.31681,-0.366359 2.16641,-0.561445 -2.5618,-2.209518 -6.13011,-4.38972 -7.36205,-4.849213 -1.1502,-0.429014 -2.32001,-0.552803 -3.55847,-0.569172 -0.0163,0 -0.0293,0 -0.0457,0 -0.49339,0 -1.00968,0.100647 -1.512961,0.202953 -0.503167,0.09832 -0.993351,0.198967 -1.424622,0.198967 -0.05888,0 -0.120897,-0.0039 -0.179741,-0.0062 -0.888823,-0.06897 -1.774331,-0.56956 -1.70247,-1.474365 -0.473851,-0.329353 -0.725382,-0.871819 -0.411692,-1.610959 l 0.02614,-0.04837 c -1.480255,1.384829 -2.607592,2.911475 -4.996215,3.0226 -0.04911,0.0025 -0.09811,0.0025 -0.147073,0.0025 -0.964001,0 -1.862526,-0.450603 -1.823332,-1.427339 -0.127494,-0.08784 -0.238549,-0.190182 -0.326814,-0.311361 4.055146,-3.286655 9.218049,-5.253779 14.84493,-5.253779 2.49329,0 4.89497,0.385586 7.15292,1.104195 -0.0556,0.157162 -0.10456,0.313972 -0.14054,0.467254 l 0.0458,0.06241 c 0.19275,0.176142 0.38227,0.251601 0.56853,0.251601 0.26148,0 0.51301,-0.147002 0.74503,-0.356129 0.89207,0.336868 1.75476,0.728663 2.5913,1.166495 -0.0458,0.06509 -0.085,0.117652 -0.12093,0.159491 -0.69275,0.808108 -1.30705,1.258676 -1.5064,1.88281 0.0752,0.241159 0.18951,0.515656 0.35616,0.833579 0.59803,1.13097 1.30708,2.101109 1.74498,3.408116 0.10781,0.320252 0.3398,1.070857 0.56526,1.970758 1.38871,-1.210028 2.58794,-2.621986 3.2023,-4.117905 0.0556,-0.395711 0.0948,-0.787471 0.11762,-1.179301 5.06159,4.325726 8.26717,10.756442 8.26717,17.938787 0,9.84243 -6.02555,18.275892 -14.59011,21.815492 0.14711,-0.18627 0.30067,-0.34706 0.45755,-0.4941 -0.18627,0.11109 -0.36272,0.30392 -0.52938,0.52349 -2.16644,0.88582 -4.49301,1.45767 -6.92414,1.6632 -0.0817,-0.0856 -0.15681,-0.19275 -0.2255,-0.32416 -0.74171,-1.44361 1.05548,-2.67946 0.47382,-4.14592 -0.42154,-0.15071 -0.75484,-0.4379 -0.9476,-0.78754 l -0.44767,-0.57577 -0.22875,-0.0483 c -0.6568,0.55908 -0.80383,2.14291 -0.70252,3.02518 0.13395,1.17273 0.062,2.18242 -0.47057,2.93437"
       style="fill:#3e391a;fill-opacity:1;fill-rule:nonzero;stroke:none;stroke-width:0.326765"
       id="path4498" />
    <path
       d="m 96.710551,79.738576 c 3.13369,-1.225374 8.655999,-5.371395 7.763969,-9.374224 -0.24839,-1.108075 -1.23522,-1.735807 -1.61099,-2.741895 -0.29083,-0.780979 -0.25161,-2.506592 1.04235,-1.993582 0.86924,0.347027 1.8005,5.255013 3.26771,2.735333 0.49339,-0.856439 -0.16344,-1.698837 -0.60128,-2.402311 -0.70912,-1.149914 -1.07502,-2.185141 -1.34955,-3.506223 -0.1797,-0.859049 -0.64371,-2.466129 0.0948,-3.201318 0.89853,-0.895985 1.37566,0.06763 1.68935,0.898596 0.50324,1.323728 0.63719,4.560641 2.29718,5.13641 2.74155,0.946996 1.44756,-3.362079 0.72214,-4.369189 -1.07837,-1.485794 -2.42133,-4.384534 -0.63391,-6.061816 1.91809,-1.803718 1.94751,2.481474 2.16648,3.487244 0.75809,3.466677 2.552,-0.02286 3.65972,-1.296917 1.16,-1.333853 4.76751,-2.513119 3.45712,0.52839 -0.84628,1.974639 -3.47345,2.76472 -4.73802,4.434523 -0.6078,0.804192 -0.95091,1.869758 0.1863,2.444186 1.26125,0.636905 2.37878,-0.607484 3.48329,-0.934226 0.95084,-0.284621 2.35268,-0.360081 2.20236,1.038789 -0.11434,1.085215 -1.45412,1.319848 -2.35275,1.660631 -1.07502,0.408446 -5.60398,1.041718 -5.99277,2.074263 -0.68302,1.813878 5.16936,0.605155 4.36883,2.771352 -0.4869,1.323375 -4.97667,-0.0399 -5.90462,-0.107492 -0.6176,-0.04579 -2.54225,-0.206516 -2.78408,0.423792 -0.42478,1.108005 1.40832,1.300798 1.97693,1.405397 0.57506,0.104563 2.58138,0.523487 1.97693,1.509994 -0.34311,0.561658 -2.37557,0.356165 -2.87553,0.182669 -1.53913,-0.522182 -2.11748,-1.208723 -3.41471,0.324097 -0.72549,0.852558 -1.28087,1.747626 -2.19587,2.528499 -0.82345,0.699629 -5.731471,4.568508 -5.662821,2.281203"
       style="fill:#415a24;fill-opacity:1;fill-rule:nonzero;stroke:none;stroke-width:0.326765"
       id="path4500" />
    <path
       d="m 98.128718,79.931016 c 3.960392,0.801935 9.358562,0.500627 12.609832,-2.218373 0.83986,-0.708448 1.53582,-1.499552 2.2122,-2.358566 0.53915,-0.68954 1.15672,-2.26187 1.90831,-2.693564 1.70897,-0.980264 0.67642,1.078653 0.17322,1.761631 -0.549,0.745313 -1.64035,2.255308 -0.22546,2.55524 2.69575,0.571853 2.16644,-4.142987 2.93433,-5.443855 0.4444,-0.758155 2.0096,-2.283496 2.16645,-0.685201 0.0947,0.972432 -2.05211,2.547409 -1.23522,3.518853 0.81368,0.970174 2.43769,-0.66361 2.72852,-1.382219 0.42807,-1.055723 0.0882,-2.404957 0.13067,-3.558787 0.0392,-0.950877 0.19283,-3.26764 1.31364,-3.734894 1.60112,-0.666256 0.71233,1.665852 0.4771,2.38178 -0.65352,2.00667 -0.66336,3.732318 1.82661,2.871928 1.44424,-0.498969 3.05523,-1.838995 4.6923,-1.610571 0.6797,0.09176 1.5064,0.401884 1.16004,1.352761 -0.24508,0.670208 -1.65019,0.869527 -2.25467,0.980264 -1.9508,0.3562 -3.34279,0.934614 -5.04526,1.925038 -0.0294,0.382976 5.46023,3.868844 2.49647,3.885565 -1.65668,0.0088 -2.79058,-2.134482 -4.64986,-2.065514 -3.62384,0.13395 2.37561,2.166126 1.87565,3.414678 -0.34307,0.856438 -2.03574,0.624169 -2.65003,0.280705 -0.92802,-0.51301 -1.0947,-1.996193 -2.03906,-2.319373 -2.88858,-0.986473 -0.3006,3.894385 -0.71889,4.616909 -1.10775,1.90433 -2.93761,-2.264516 -4.18909,-2.620363 -1.76128,-0.500627 -4.18589,1.101478 -5.84264,1.548201 -2.09123,0.565326 -4.19551,0.376413 -6.38489,0.536222 -1.062,0.07913 -3.849332,0.617573 -3.836209,-1.039107 l 0.11109,0.234915"
       style="fill:#415a24;fill-opacity:1;fill-rule:nonzero;stroke:none;stroke-width:0.326765"
       id="path4502" />
    <path
       d="m 98.109139,80.353538 c 2.231781,1.094035 4.924321,2.221018 6.362101,4.629644 0.90184,1.516451 0.93451,3.29438 0.892,4.993605 -0.0261,0.859049 -0.49012,4.159674 1.21564,3.499944 1.48346,-0.575769 0.58158,-4.088483 0.56857,-5.248769 -0.01,-0.839788 0.16665,-2.058988 1.26128,-1.225409 0.61758,0.470888 0.50977,2.039655 0.46726,2.777525 -0.098,1.574977 -1.80368,4.542685 -1.06197,6.028479 1.54235,3.078762 2.69582,-1.946522 2.72196,-3.005878 0.0229,-0.819574 -0.37249,-2.163516 0.45424,-2.679171 0.98683,-0.6114 1.97033,0.640785 2.22197,1.51257 0.66008,2.28473 -1.34959,4.819791 -2.33317,6.675438 -0.38223,0.722524 -1.29723,2.739284 -0.7482,3.575504 0.79403,1.20605 2.23502,-0.12121 2.71536,-0.92798 0.62414,-1.042774 0.68626,-6.918358 2.3887,-6.679387 1.77761,0.248568 0.44108,5.699055 0.64699,6.764977 0.25481,1.33646 1.78414,2.11349 3.09115,1.1231 1.37573,-1.03516 0.0719,-3.267675 -0.35617,-4.535171 -1.36909,-4.061354 2.62721,-0.849947 4.47016,-0.405835 1.15351,0.278377 3.62052,0.697018 4.58448,-0.289842 1.09146,-1.114284 -0.55223,-2.695823 -1.6861,-3.003304 -2.64026,-0.715998 -4.27408,2.578489 -6.947,0.839788 -2.67289,-1.734467 0.74499,-2.81051 2.35599,-3.084971 1.51617,-0.25781 6.79669,-2.773575 3.23169,-4.39861 -1.50312,-0.682978 -3.01604,0.340818 -4.23813,1.108075 -1.01946,0.638175 -2.80032,2.774844 -4.1336,2.55531 -1.24168,-0.201612 -1.57498,-1.872721 -0.89856,-2.675608 1.21881,-1.4472 3.60422,-1.248233 4.97003,-2.467045 1.30712,-1.166883 0.71893,-2.775233 -1.04238,-2.775233 -1.51289,0.004 -2.68263,1.432243 -3.77737,2.291292 -1.10444,0.869174 -5.92427,2.737944 -3.93753,-0.39176 0.79731,-1.248269 2.14358,-1.036567 3.02588,-1.876354 1.0293,-0.976701 -0.32022,-1.790947 -1.38222,-1.50241 -1.15997,0.310091 -4.21855,4.260709 -5.48964,2.49682 -1.19275,-1.654457 4.72503,-3.294416 2.25791,-4.568508 -1.6959,-0.879334 -3.48985,2.044841 -4.72175,2.421326 -1.99002,0.610411 -3.71524,-0.497699 -5.277238,-1.254408 -0.575064,-0.282363 -1.202479,-0.726404 -1.771051,-0.422592 l 0.516255,0.355847"
       style="fill:#415a24;fill-opacity:1;fill-rule:nonzero;stroke:none;stroke-width:0.326765"
       id="path4504" />
    <path
       d="m 98.422793,80.34994 c 0.05553,0.859084 0.473781,1.698907 0.627416,2.580816 0.156809,0.912636 0.183021,1.775637 0.287584,2.699703 0.212337,1.859633 0.271145,3.799981 0.02607,5.640635 -0.506447,3.760047 -3.640137,6.185359 -7.152887,6.736892 -0.669784,0.104598 -3.035618,0.173566 -2.59454,1.398905 0.3562,0.986789 2.689331,0.613979 3.411503,0.480024 2.30692,-0.431694 3.957144,-2.512201 5.764072,-3.988858 1.290779,0.940752 0.89535,3.341511 -0.124143,4.302863 -1.561888,1.4665 -3.254587,1.0159 -5.03548,1.81356 -2.120688,0.9512 -0.509693,3.34307 1.388781,2.42165 1.163285,-0.56561 2.784087,-2.86964 4.247938,-2.67297 2.695823,0.35881 -1.45736,3.75391 -2.159846,4.31299 -1.039178,0.83355 -3.878722,3.52284 -1.460677,4.46003 1.731822,0.66986 2.692506,-1.84979 3.44738,-2.98961 0.460693,-0.69564 1.012926,-1.83282 1.790666,-0.85648 0.61429,0.77086 0.16341,2.03973 -0.33659,2.68965 -0.823415,1.07834 -3.636889,2.88597 -1.761275,4.43812 1.607715,1.3286 3.852615,-0.0856 4.310025,-1.76551 0.3954,-1.4538 0.23531,-3.99891 -0.43779,-5.29985 -0.31373,-0.59859 -1.48358,-1.41157 -1.51952,-1.97951 -0.10129,-1.55599 1.2319,-0.2003 1.62404,0.29605 1.12406,1.42572 3.05192,2.72267 4.98638,2.36023 1.05223,-0.19671 1.69922,-0.96756 0.99991,-1.96716 -0.59471,-0.85245 -2.00304,-0.95705 -2.8853,-1.40275 -1.3855,-0.69571 -4.04858,-1.44727 -4.25446,-3.25099 -0.33006,-2.928161 3.4212,-0.0127 4.51911,0.11733 2.27426,0.27447 4.65971,-1.983559 2.05867,-3.636252 -2.03252,-1.294342 -3.72515,0.160725 -5.76086,-0.226131 -0.76468,-0.142804 -1.63713,-0.76461 -1.72861,-1.64913 -0.14379,-1.350575 1.01625,-1.218883 1.99651,-1.287816 0.69275,-0.05232 2.07173,-0.0562 2.46708,-0.61789 0.54572,-0.774771 -0.13719,-1.698907 -0.82998,-1.908316 -1.34955,-0.404566 -2.65327,1.104124 -3.17944,-0.708484 -0.36269,-1.268483 -0.003,-2.967673 -0.10125,-4.287414 -0.15035,-1.987409 -0.24511,-5.803724 -2.725243,-6.348801 l -0.01309,0.322862"
       style="fill:#415a24;fill-opacity:1;fill-rule:nonzero;stroke:none;stroke-width:0.326765"
       id="path4506" />
    <path
       d="m 96.622321,79.262467 c 0.098,4.06139 -4.015952,7.874036 -7.267187,9.805282 -2.911546,1.73475 -7.45356,3.722159 -9.848745,0.346005 -0.571853,-0.806732 -0.810401,-4.283569 -2.287341,-4.011683 -1.905,0.349638 0.565292,3.368251 1.088144,3.982296 1.686031,1.968395 -0.522852,2.755901 -2.006354,1.275045 -1.532537,-1.522765 -2.055354,-2.450782 -4.359063,-2.630523 -1.558678,-0.117616 -3.731613,0.326814 -4.414591,2.035775 -1.156723,2.905337 2.744893,0.584588 3.529083,0.234985 1.529221,-0.685553 4.457101,0.477379 2.934335,2.483733 -0.983509,1.300797 -4.270798,1.797191 -4.123796,3.934178 0.209162,2.957265 3.323238,0.167075 4.074796,-0.775018 0.653556,-0.823172 1.173092,-2.138998 2.012879,-2.75075 1.117494,-0.814246 1.620767,0.01933 1.280901,1.192389 -0.369252,1.27501 -1.512888,2.056342 -1.764524,3.483293 -0.124213,0.703192 -0.258198,2.477556 0.297356,3.035366 1.855964,1.85727 1.78742,-3.812712 1.826613,-4.456143 0.101283,-1.608032 2.695822,-4.718791 3.901582,-2.167044 0.728733,1.5367 -0.506519,7.372457 1.908351,7.663567 1.509572,0.18232 1.437676,-2.196851 1.068529,-3.074845 -0.552309,-1.300833 -1.643698,-2.11776 -1.45094,-3.686563 0.133985,-1.095022 0.816963,-2.156989 1.927895,-1.329902 0.98358,0.735119 0.872526,2.257919 1.097986,3.274166 0.232022,1.042706 0.970492,3.038894 2.41808,2.366434 1.509607,-0.699629 0.8267,-2.47135 -0.05232,-3.219274 -1.114248,-0.954793 -3.519276,-3.947972 -0.228741,-3.741173 1.617451,0.100894 3.764351,3.208831 5.623631,2.032176 1.829859,-1.156476 -3.303588,-2.287305 -3.803509,-2.901386 L 89.639367,90.81654 c 1.336463,-0.470853 4.515909,0.356164 5.545208,-0.493995 1.055406,-0.869245 -1.182864,-0.839858 -1.627328,-1.093753 -0.990071,-0.571817 -0.761295,-1.373716 -0.04248,-2.050097 1.316884,-1.24072 3.048741,-2.191632 4.029076,-3.930015 0.395393,-0.693068 0.800558,-4.679563 -0.80063,-3.76167"
       style="fill:#415a24;fill-opacity:1;fill-rule:nonzero;stroke:none;stroke-width:0.326765"
       id="path4508" />
    <path
       d="m 101.05984,81.296901 c 0.74496,-2.101109 -7.162692,-6.985847 -9.018726,-7.626703 -1.012931,-0.348262 -2.039021,-0.437833 -3.120602,-0.423792 -0.934579,0.0091 -1.970405,0.450603 -2.757911,0.411092 -0.914965,-0.04579 -1.846228,-0.620219 -1.411641,-1.711643 0.526098,-1.313568 1.437711,-0.213007 2.50624,-0.555166 0.80391,-0.259115 1.480291,-1.209957 0.73854,-1.889337 -0.748206,-0.682625 -2.123969,0.140511 -2.764402,0.624487 -1.839701,1.37594 -2.692541,3.40159 -5.264221,3.581647 -1.039142,0.0738 -2.065126,-0.441818 -1.663171,-1.709314 0.271145,-0.849912 1.212215,-1.134851 1.963808,-1.379925 1.114284,-0.362374 5.865425,-1.604399 2.431168,-2.580782 -2.107706,-0.597323 -4.577997,0.871785 -6.702002,1.039107 -0.794103,0.06241 -2.08474,0.24504 -2.473607,-0.59503 -0.526098,-1.137144 0.686223,-1.761278 1.54559,-1.87893 1.506397,-0.202882 4.600928,0.502885 5.479874,-1.218812 0.80712,-1.584149 -2.806947,-3.62645 -3.725122,-4.67928 -1.310287,-1.496236 -0.927982,-4.212308 1.251479,-2.480169 1.258077,0.996985 2.019442,3.052022 3.114076,4.277396 0.483623,0.542395 1.483536,1.719086 2.284095,1.666804 1.241672,-0.08167 0.957404,-1.470448 1.061967,-2.391904 0.09158,-0.768526 0.03919,-2.425241 1.029335,-2.670316 1.189461,-0.299967 1.18618,1.28778 1.176302,2.117407 -0.02607,1.918759 -1.022738,3.558788 -1.21225,5.385436 -0.05228,0.506836 -0.114371,1.876249 0.878981,1.575012 0.653556,-0.199038 0.800594,-1.992313 0.96393,-2.492905 0.284339,-0.866598 0.585012,-1.676012 1.388816,-0.559082 0.558729,0.774771 0.07514,1.702753 0.02286,2.516082 -0.08827,1.431854 0.797278,3.598016 2.548714,3.153939 0.268005,-0.581977 0.15688,-2.136775 1.091424,-2.124004 1.016282,0.0089 0.78426,1.568873 0.797313,2.224934 0.05232,2.238728 1.05223,3.0226 2.960476,4.03853 1.405078,0.747924 3.15662,1.405396 4.381957,2.415116 0.84303,0.695325 1.83639,4.05878 0.25485,4.19534"
       style="fill:#415a24;fill-opacity:1;fill-rule:nonzero;stroke:none;stroke-width:0.326765"
       id="path4510" />
    <path
       d="m 101.4781,82.314171 c -0.38238,-1.275045 -2.744827,-2.186446 -3.816672,-2.427605 -3.065074,-0.693067 -8.577615,-1.960527 -9.584055,2.501759 -0.218864,0.958744 -0.496606,2.722633 -1.757927,2.814391 -0.833261,0.06142 -1.49659,-0.75184 -1.248269,-1.608314 0.209162,-0.718538 1.048985,-0.917575 1.251514,-1.63382 0.202601,-0.705803 -0.196109,-1.793275 -0.901911,-1.996193 -0.735154,-0.211737 -1.587994,0.679027 -1.983388,1.284182 -0.718855,1.097632 -0.15688,5.045569 -2.140338,4.875988 -0.695995,-0.06279 -1.326621,-1.118164 -1.222093,-1.811267 0.104563,-0.676698 0.82998,-1.00972 1.251515,-1.523047 1.375621,-1.65668 -0.349638,-3.672205 -1.552152,-2.146829 -0.463938,0.588433 -0.421499,1.840618 -0.715645,2.51968 -0.388797,0.908685 -1.068423,1.41157 -1.859245,1.931141 -0.669925,0.441783 -1.738418,1.235498 -2.545503,1.189778 -0.836507,-0.04868 -1.548871,-0.846349 -0.875701,-1.679928 1.101196,-1.361899 3.140146,0.50031 4.00939,-1.842876 0.86921,-2.348865 -1.839665,-1.692698 -2.921282,-1.10811 -1.604433,0.869174 -3.002986,1.049267 -4.234851,-0.76073 -1.006439,-1.483219 -0.457517,-3.780649 1.584749,-3.303553 1.591381,0.372816 2.813438,2.10499 4.532242,2.097123 1.878859,-0.0062 1.748191,-1.309334 0.80384,-2.450677 -0.741751,-0.894715 -1.584749,-2.622973 -0.385551,-3.609516 1.228619,-1.007075 2.01937,0.427461 2.257919,1.525341 0.31369,1.415591 -0.03588,2.693246 0.865963,3.858471 0.705803,0.226131 1.905001,0.157163 1.784104,-0.940752 -0.07842,-0.714657 -1.065283,-0.993034 -1.405079,-1.604398 -1.133898,-2.03835 1.503045,-2.754666 2.208989,-0.705838 0.385551,1.124373 0.06854,4.254183 2.11081,3.248378 2.287376,-1.124409 -0.69596,-2.339658 -0.944315,-3.502272 -0.199355,-0.935814 0.65024,-1.958235 1.578257,-1.654422 0.787541,0.255234 1.107758,1.474434 1.225374,2.157306 0.107773,0.607484 0.751628,4.803176 2.186058,2.67522 0.64703,-0.959696 -2.202357,-4.011683 0.02621,-4.456077 1.081511,-0.215653 1.267778,1.150197 1.329832,1.923627 0.09154,1.088813 -0.143757,1.625 0.78426,2.190362 1.784103,1.08518 3.980039,0.633271 5.871986,0.212054 1.169812,-0.261725 4.123765,-1.718169 4.855675,0.07909 0.37909,0.927982 0.53918,3.110477 0.0131,3.913294 l -0.55216,-0.574111"
       style="fill:#415a24;fill-opacity:1;fill-rule:nonzero;stroke:none;stroke-width:0.326765"
       id="path4512" />
    <path
       d="m 100.56313,80.360064 c 0.74496,-2.104637 -7.162693,-6.989763 -9.018728,-7.630619 -1.012966,-0.349638 -2.042266,-0.437479 -3.123847,-0.424744 -0.931333,0.01404 -1.970405,0.454201 -2.75463,0.412009 -0.918246,-0.04575 -1.849508,-0.620219 -1.414957,-1.712913 0.526098,-1.313215 1.441098,-0.211737 2.50631,-0.555131 0.80391,-0.253859 1.483537,-1.208687 0.738505,-1.887714 -0.744996,-0.682942 -2.120688,0.142805 -2.764437,0.624099 -1.836385,1.374705 -2.689261,3.40032 -5.260905,3.580342 -1.042352,0.07514 -2.068371,-0.440478 -1.666522,-1.709243 0.271215,-0.848643 1.212356,-1.133264 1.967159,-1.378338 1.110968,-0.362727 5.86539,-1.604751 2.427817,-2.581099 -2.1076,-0.598629 -4.574717,0.871784 -6.701931,1.039071 -0.790717,0.06114 -2.081495,0.24511 -2.470327,-0.594995 -0.526062,-1.137144 0.682943,-1.761278 1.545555,-1.876284 1.503186,-0.205563 4.600928,0.500592 5.476593,-1.221457 0.810436,-1.585419 -2.806841,-3.627756 -3.725157,-4.675682 -1.306971,-1.499553 -0.927912,-4.215906 1.25483,-2.483732 1.258077,0.99695 2.016126,3.051986 3.114111,4.280923 0.480307,0.538868 1.483501,1.715523 2.284095,1.663242 1.241672,-0.0817 0.957404,-1.470449 1.062003,-2.39194 0.08812,-0.768526 0.03916,-2.425241 1.029229,-2.670281 1.186145,-0.297391 1.186145,1.28778 1.173162,2.117725 -0.02621,1.920734 -1.019527,3.561116 -1.20904,5.385118 -0.05556,0.506836 -0.117686,1.874944 0.878946,1.575012 0.653521,-0.199037 0.797313,-1.993618 0.96072,-2.492904 0.284233,-0.866599 0.58487,-1.676965 1.391991,-0.559118 0.558764,0.775124 0.07186,1.702788 0.02293,2.516117 -0.0883,1.434465 0.793962,3.598016 2.545468,3.15655 0.267935,-0.584588 0.160056,-2.136704 1.094635,-2.12792 1.012966,0.01016 0.780979,1.572718 0.797278,2.226239 0.04907,2.237352 1.048949,3.022565 2.957265,4.03853 1.408395,0.74796 3.156515,1.405396 4.385239,2.415082 0.83975,0.695713 1.8331,4.057756 0.25481,4.195374"
       style="fill:#81c32d;fill-opacity:1;fill-rule:nonzero;stroke:none;stroke-width:0.326765"
       id="path4514" />
    <path
       d="m 98.063348,79.937578 c 0.05235,0.860389 0.470535,1.696226 0.62417,2.578523 0.160055,0.914929 0.18295,1.774014 0.290795,2.702031 0.209091,1.859951 0.267934,3.801216 0.02286,5.640635 -0.503238,3.757754 -3.640173,6.185606 -7.149572,6.738197 -0.673206,0.104528 -3.035688,0.172156 -2.594539,1.394954 0.356129,0.98679 2.686015,0.617855 3.408151,0.480025 2.310236,-0.431377 3.957108,-2.511884 5.764142,-3.986213 1.293954,0.940753 0.89856,3.339218 -0.120932,4.300185 -1.565205,1.470515 -3.257833,1.016245 -5.035409,1.813915 -2.124005,0.95345 -0.513045,3.34274 1.388745,2.42129 1.159968,-0.56303 2.784016,-2.86936 4.247903,-2.67293 2.692508,0.35881 -1.460606,3.75779 -2.163163,4.3156 -1.039142,0.83097 -3.878721,3.52319 -1.460676,4.45739 1.735137,0.67412 2.695857,-1.84948 3.450696,-2.98927 0.460727,-0.69567 1.012966,-1.83317 1.790631,-0.8564 0.61433,0.77466 0.16012,2.03966 -0.33655,2.68926 -0.826737,1.07862 -3.64014,2.88466 -1.76449,4.4407 1.60761,1.33 3.85254,-0.0856 4.30999,-1.76777 0.39864,-1.45151 0.23855,-3.99666 -0.43787,-5.29721 -0.31048,-0.60127 -1.48025,-1.41196 -1.51948,-1.98377 -0.10128,-1.55448 1.23197,-0.19516 1.62401,0.29774 1.12416,1.42822 3.05527,2.72489 4.98652,2.36245 1.05216,-0.19897 1.69912,-0.96757 0.99987,-1.96681 -0.59471,-0.85284 -2.00307,-0.95744 -2.88208,-1.4018 -1.38875,-0.69536 -4.0519,-1.45118 -4.2545,-3.25102 -0.32999,-2.93169 3.41802,-0.014 4.51918,0.11765 2.27426,0.27055 4.65639,-1.983775 2.05532,-3.640455 -2.03238,-1.29039 -3.72505,0.163372 -5.75754,-0.22225 -0.76789,-0.146685 -1.64042,-0.764646 -1.73186,-1.652729 -0.14055,-1.350539 1.01949,-1.219235 1.99976,-1.288132 0.6895,-0.04967 2.06844,-0.05228 2.46708,-0.617573 0.54568,-0.771208 -0.14051,-1.696544 -0.83326,-1.904365 -1.34624,-0.406224 -2.65335,1.100172 -3.17617,-0.712365 -0.36597,-1.264884 -0.004,-2.963756 -0.10449,-4.284909 -0.14711,-1.986351 -0.24511,-5.802631 -2.725244,-6.351623 l -0.0098,0.326778"
       style="fill:#81c32d;fill-opacity:1;fill-rule:nonzero;stroke:none;stroke-width:0.326765"
       id="path4516" />
    <path
       d="m 97.543848,79.369641 c 3.133622,-1.22929 8.659212,-5.37524 7.767142,-9.375494 -0.24835,-1.110332 -1.23514,-1.734502 -1.61092,-2.744152 -0.29083,-0.777452 -0.25492,-2.503065 1.03907,-1.993971 0.87249,0.34738 1.80382,5.255049 3.26767,2.735404 0.49675,-0.852558 -0.16333,-1.698908 -0.59795,-2.400759 -0.7124,-1.147621 -1.07838,-2.184118 -1.3528,-3.506541 -0.1765,-0.856438 -0.64047,-2.467398 0.098,-3.202622 0.89531,-0.895985 1.37566,0.07154 1.68942,0.898595 0.49988,1.323728 0.63711,4.564592 2.29711,5.136445 2.73833,0.950877 1.44755,-3.362114 0.71889,-4.365273 -1.07834,-1.489745 -2.41804,-4.38845 -0.63398,-6.064426 1.92141,-1.8034 1.95083,2.482744 2.16976,3.485938 0.75812,3.470558 2.55203,-0.01898 3.65976,-1.294342 1.15675,-1.332547 4.76422,-2.511848 3.45718,0.529696 -0.84959,1.973334 -3.47352,2.764755 -4.73816,4.430607 -0.60769,0.804157 -0.95408,1.870111 0.18631,2.444221 1.26135,0.638458 2.37557,-0.603532 3.48329,-0.934226 0.94767,-0.280705 2.3495,-0.35881 2.20243,1.039107 -0.11762,1.088778 -1.45733,1.321082 -2.35268,1.660631 -1.07509,0.408446 -5.60405,1.0414 -5.99288,2.073981 -0.68623,1.813842 5.16615,0.609071 4.3688,2.771246 -0.49008,1.323763 -4.97985,-0.03821 -5.9079,-0.107174 -0.61422,-0.046 -2.53891,-0.206834 -2.78398,0.425132 -0.4215,1.106453 1.40832,1.29921 1.98021,1.403809 0.57506,0.108479 2.58142,0.523452 1.9769,1.510277 -0.34312,0.561446 -2.37882,0.355847 -2.87881,0.186267 -1.53582,-0.526098 -2.11748,-1.208688 -3.41471,0.320251 -0.72214,0.856439 -1.27762,1.748826 -2.19587,2.528853 -0.82014,0.699241 -5.728159,4.568084 -5.66286,2.280779"
       style="fill:#81c32d;fill-opacity:1;fill-rule:nonzero;stroke:none;stroke-width:0.326765"
       id="path4518" />
    <path
       d="m 98.187491,79.428167 c 3.963709,0.797983 9.358599,0.500627 12.609969,-2.222007 0.843,-0.706155 1.539,-1.496236 2.21213,-2.355003 0.54243,-0.690774 1.15676,-2.26187 1.90828,-2.693529 1.71224,-0.980299 0.67645,1.078653 0.17322,1.76156 -0.549,0.745349 -1.63707,2.254074 -0.22222,2.555346 2.69251,0.571818 2.1632,-4.146938 2.93113,-5.447841 0.44767,-0.754169 2.01284,-2.280815 2.16644,-0.68259 0.0948,0.973737 -2.04886,2.548749 -1.23525,3.518923 0.817,0.97148 2.43773,-0.666291 2.72852,-1.380878 0.4281,-1.05978 0.0882,-2.406333 0.13399,-3.562773 0.0359,-0.950878 0.18958,-3.263689 1.31039,-3.730978 1.6044,-0.670243 0.71229,1.665887 0.48027,2.381779 -0.65352,2.006671 -0.66661,3.728403 1.82665,2.8696 1.44099,-0.497946 3.0552,-1.837055 4.6923,-1.610889 0.67973,0.09444 1.50315,0.40065 1.15679,1.355443 -0.24511,0.670137 -1.65019,0.869209 -2.25467,0.980299 -1.95086,0.356129 -3.34282,0.934473 -5.04529,1.924932 -0.0294,0.37906 5.46354,3.864998 2.4965,3.88553 -1.65671,0.0088 -2.79061,-2.137939 -4.64989,-2.065444 -3.62056,0.133985 2.37889,2.166127 1.8789,3.410762 -0.34308,0.860355 -2.03895,0.628086 -2.65332,0.284621 -0.92801,-0.513045 -1.0947,-1.996546 -2.03574,-2.320713 -2.89186,-0.986473 -0.30067,3.89569 -0.71885,4.618214 -1.11104,1.9044 -2.94093,-2.264446 -4.1892,-2.620328 -1.76125,-0.500627 -4.1891,1.097598 -5.84578,1.548201 -2.0913,0.565326 -4.19569,0.375144 -6.38496,0.535905 -1.06197,0.07803 -3.846053,0.613974 -3.836211,-1.042741 l 0.114371,0.238901"
       style="fill:#81c32d;fill-opacity:1;fill-rule:nonzero;stroke:none;stroke-width:0.326765"
       id="path4520" />
    <path
       d="m 98.259387,80.257794 c 2.277603,1.118165 5.028913,2.272348 6.492803,4.729269 0.9247,1.552152 0.96072,3.364689 0.91176,5.103072 -0.0229,0.875806 -0.49672,4.247974 1.24495,3.575509 1.51289,-0.59115 0.59468,-4.179006 0.57838,-5.364834 -0.01,-0.856473 0.17318,-2.098534 1.29067,-1.252184 0.6307,0.483623 0.52285,2.084458 0.4771,2.839896 -0.098,1.607079 -1.84298,4.639699 -1.08486,6.15622 1.57501,3.146425 2.75138,-1.989914 2.7808,-3.068567 0.0228,-0.839788 -0.3823,-2.211882 0.46397,-2.735369 1.00641,-0.62671 2.00964,0.650875 2.26777,1.541992 0.67641,2.337047 -1.37894,4.921779 -2.38214,6.817325 -0.39207,0.737835 -1.32665,2.800667 -0.76461,3.655767 0.8104,1.23165 2.28406,-0.12767 2.77421,-0.95081 0.63719,-1.06461 0.70256,-7.064021 2.44094,-6.822509 1.81353,0.255164 0.44764,5.822949 0.65677,6.907809 0.26141,1.36582 1.82337,2.15989 3.15987,1.15017 1.40511,-1.05802 0.0719,-3.336612 -0.3628,-4.630884 -1.39848,-4.15223 2.67956,-0.867939 4.56501,-0.415007 1.17631,0.282328 3.6957,0.709683 4.68257,-0.297357 1.11417,-1.135839 -0.5654,-2.754277 -1.72541,-3.06705 -2.6925,-0.728945 -4.36227,2.633098 -7.09404,0.858767 -2.73181,-1.774014 0.76137,-2.871964 2.40824,-3.153975 1.54562,-0.26035 6.94051,-2.832347 3.30041,-4.489027 -1.53582,-0.695713 -3.08148,0.345723 -4.32968,1.126949 -1.04235,0.653556 -2.85923,2.836298 -4.22183,2.614189 -1.26785,-0.209479 -1.60764,-1.91456 -0.91493,-2.735403 1.24499,-1.479268 3.67609,-1.273669 5.07143,-2.51834 1.33646,-1.193377 0.73526,-2.833758 -1.062,-2.833758 -1.54563,0.004 -2.73834,1.461664 -3.85911,2.339693 -1.12737,0.88586 -6.05169,2.798057 -4.01923,-0.398357 0.8104,-1.277655 2.18609,-1.059356 3.08793,-1.918406 1.0522,-0.999278 -0.32674,-1.828941 -1.4116,-1.5355 -1.1829,0.320569 -4.30675,4.352572 -5.60727,2.551712 -1.21884,-1.688712 4.82629,-3.364724 2.30696,-4.669155 -1.73517,-0.895033 -3.56179,2.090632 -4.81986,2.473607 -2.03564,0.624135 -3.79695,-0.506765 -5.39154,-1.281501 -0.588187,-0.287266 -1.231901,-0.737905 -1.810351,-0.430071 l 0.529379,0.362373"
       style="fill:#81c32d;fill-opacity:1;fill-rule:nonzero;stroke:none;stroke-width:0.326765"
       id="path4522" />
    <path
       d="m 96.39358,78.49394 c 0.09804,4.061672 -4.015916,7.871814 -7.267222,9.80687 -2.911511,1.734433 -7.456771,3.720536 -9.848745,0.345687 -0.571818,-0.806485 -0.810331,-4.283498 -2.287341,-4.012988 -1.905035,0.349673 0.562046,3.369945 1.088108,3.983567 1.686137,1.967159 -0.522746,2.7547 -2.009528,1.274057 -1.529292,-1.52266 -2.05539,-2.453288 -4.359064,-2.63077 -1.558678,-0.117334 -3.731648,0.326778 -4.41131,2.036092 -1.156758,2.904949 2.744788,0.585858 3.529048,0.235903 1.529257,-0.686471 4.453785,0.476144 2.934406,2.482815 -0.983686,1.30055 -4.274185,1.797156 -4.123796,3.93386 0.205846,2.957583 3.323167,0.167358 4.074724,-0.773395 0.653557,-0.823524 1.169812,-2.140655 2.009634,-2.752054 1.117495,-0.813012 1.623943,0.02025 1.284147,1.193341 -0.369288,1.274057 -1.512888,2.055036 -1.764595,3.483328 -0.127352,0.702169 -0.258092,2.476571 0.297427,3.035297 1.856035,1.85604 1.787384,-3.813631 1.826649,-4.457062 0.101247,-1.608314 2.692506,-4.719109 3.901546,-2.166126 0.725346,1.5355 -0.506519,7.371468 1.908245,7.662368 1.509713,0.1826 1.437781,-2.195618 1.068564,-3.074881 -0.552203,-1.300515 -1.643627,-2.117443 -1.450834,-3.686281 0.13074,-1.093964 0.816893,-2.156002 1.927931,-1.326339 0.980299,0.729051 0.872455,2.251746 1.09795,3.27025 0.231952,1.042741 0.970457,3.039287 2.4148,2.366434 1.512887,-0.699241 0.829945,-2.469656 -0.04907,-3.218957 -1.114213,-0.953487 -3.519241,-3.946948 -0.22867,-3.741455 1.617415,0.104881 3.76428,3.20922 5.62356,2.032176 1.829894,-1.15644 -3.303588,-2.28734 -3.803544,-2.90135 l -0.36922,-0.846349 c 1.339745,-0.470853 4.515909,0.3562 5.545138,-0.492443 1.058757,-0.873125 -1.182829,-0.84007 -1.623942,-1.095269 -0.990141,-0.571853 -0.7614,-1.372129 -0.04255,-2.052391 1.31692,-1.238109 3.045496,-2.191596 4.02904,-3.927757 0.395393,-0.693032 0.797348,-4.67921 -0.800559,-3.7604"
       style="fill:#81c32d;fill-opacity:1;fill-rule:nonzero;stroke:none;stroke-width:0.326765"
       id="path4524" />
    <path
       d="m 101.1219,81.801126 c -0.38231,-1.193341 -2.744827,-2.03969 -3.813355,-2.264516 -3.068356,-0.64075 -8.577651,-1.820086 -9.590547,2.355004 -0.215688,0.896303 -0.499921,2.546491 -1.761278,2.634721 -0.833262,0.05884 -1.493309,-0.699558 -1.241743,-1.503751 0.209197,-0.669925 1.045669,-0.859084 1.25155,-1.528974 0.2026,-0.657437 -0.196039,-1.675906 -0.898631,-1.866089 -0.735154,-0.195439 -1.59131,0.640715 -1.986704,1.202091 -0.71889,1.030323 -0.163336,4.719144 -2.15011,4.562016 -0.692714,-0.05228 -1.323375,-1.038789 -1.215566,-1.688747 0.104563,-0.630273 0.826699,-0.944351 1.25155,-1.425646 1.378902,-1.552151 -0.343147,-3.433657 -1.548907,-2.005365 -0.463973,0.551533 -0.421498,1.72205 -0.715609,2.358955 -0.395358,0.850194 -1.07181,1.319741 -1.865842,1.80728 -0.669855,0.411092 -1.738383,1.156441 -2.548714,1.116895 -0.833332,-0.04576 -1.545661,-0.790152 -0.869209,-1.571096 1.101196,-1.275362 3.136971,0.463373 4.009355,-1.728294 0.875806,-2.199393 -1.836385,-1.578892 -2.917966,-1.030182 -1.60775,0.814564 -3.006267,0.98672 -4.234886,-0.705908 -1.003159,-1.384794 -0.450886,-3.531694 1.59138,-3.087582 1.587994,0.343394 2.810087,1.960633 4.528927,1.954072 1.878859,-0.01013 1.751471,-1.229008 0.807155,-2.29355 -0.741821,-0.837494 -1.581609,-2.450747 -0.379095,-3.376119 1.228655,-0.944668 2.016125,0.395676 2.257954,1.42173 0.307199,1.323693 -0.04572,2.519645 0.856122,3.607506 0.705802,0.209126 1.908281,0.144074 1.787419,-0.882297 -0.07849,-0.66989 -1.065283,-0.928053 -1.405149,-1.49726 -1.130547,-1.904365 1.509712,-2.580746 2.212234,-0.662305 0.38234,1.047926 0.06205,3.973442 2.1076,3.03142 2.287412,-1.054242 -0.695995,-2.185141 -0.941034,-3.27392 -0.19932,-0.871784 0.653556,-1.829223 1.581538,-1.548553 0.787435,0.238866 1.104406,1.376045 1.222057,2.015525 0.104564,0.569525 0.741786,4.490721 2.179532,2.496821 0.646995,-0.898631 -2.195865,-3.74509 0.0327,-4.162355 1.084827,-0.206869 1.267812,1.070822 1.329937,1.793275 0.08823,1.019846 -0.147038,1.520155 0.777663,2.046253 1.780928,1.011907 3.980039,0.588433 5.871986,0.188842 1.169812,-0.24511 4.127046,-1.610995 4.855706,0.0689 0.37582,0.862754 0.53263,2.901386 0.007,3.65947 l -0.55217,-0.538551"
       style="fill:#81c32d;fill-opacity:1;fill-rule:nonzero;stroke:none;stroke-width:0.326765"
       id="path4526" />
    <path
       d="m 101.21665,82.232468 c -0.049,-3.365712 -1.996579,-9.993137 -6.054935,-10.558428 -1.124091,-0.157198 -2.05867,0.546347 -3.133654,0.546347 -0.833261,-0.0039 -2.437695,-0.640786 -1.503151,-1.673437 0.630661,-0.695607 5.55498,0.153 3.705507,-2.101039 -0.624099,-0.76461 -1.646908,-0.444041 -2.457238,-0.28067 -1.326727,0.261373 -2.424607,0.241159 -3.757825,0.03556 -0.865928,-0.133985 -2.535731,-0.264301 -2.967037,-1.212603 -0.522782,-1.15249 0.548922,-1.264885 1.437746,-1.26753 1.411675,-0.0062 4.496329,1.003194 5.613823,-0.349603 1.849508,-2.235094 -2.64354,-2.536367 -3.836211,-2.209589 -1.774332,0.49015 -4.957022,0.729016 -5.904654,-1.529256 -1.012966,-2.430145 3.009477,-0.953488 4.028969,-0.806485 3.512821,0.506483 0.872526,-2.398431 0.06869,-3.88165 -0.843068,-1.552081 -0.682942,-5.345854 1.708997,-3.055867 1.548871,1.4871 1.369131,4.225043 2.489976,5.992883 0.539151,0.852523 1.414851,1.549506 2.352675,0.682908 1.039037,-0.957404 0.267935,-2.437977 0.346358,-3.590502 0.06865,-0.98679 0.486904,-2.326852 1.744945,-1.696544 0.977018,0.49015 0.728662,1.824002 0.731908,2.784052 0.0032,1.149844 -0.990071,5.613471 -0.160056,6.342486 1.457361,1.275045 2.378816,-4.629573 4.127007,-3.12353 1.06852,0.921773 -1.780823,4.650176 -2.169725,5.49649 -0.258163,0.561375 -1.084897,2.30632 -0.578344,2.754313 0.888824,0.783907 1.712243,-0.862648 2.009599,-1.359324 0.300567,-0.50292 1.39199,-2.235129 2.1076,-1.319847 0.40523,0.51562 -0.50324,2.346184 -0.83648,2.75724 -1.029361,1.254478 -1.875675,1.558396 -0.895341,3.310785 0.545677,0.9767 1.186101,1.809997 1.597871,2.943507 0.366,1.013601 2.271,6.966938 0.15032,6.101398"
       style="fill:#415a24;fill-opacity:1;fill-rule:nonzero;stroke:none;stroke-width:0.326765"
       id="path4528" />
    <path
       d="m 101.89635,80.970158 c 2.13695,-3.431011 3.74795,-8.590351 2.33962,-12.586653 -0.36601,-1.035191 -0.86265,-1.967124 -1.43125,-2.897752 -0.45745,-0.749265 -1.71225,-1.876284 -1.85269,-2.732723 -0.32028,-1.943947 1.24489,-0.253929 1.70897,0.454519 0.50648,0.778651 1.53906,2.326887 2.31669,1.107722 1.47701,-2.322971 -3.12385,-3.479412 -4.07145,-4.656384 -0.55227,-0.682661 -1.434497,-2.683087 0.11762,-2.27069 0.94435,0.2552 1.66649,2.817037 2.86251,2.391904 1.19267,-0.421217 0.23195,-2.515764 -0.33662,-3.038934 -0.83982,-0.771137 -2.22204,-0.924066 -3.29054,-1.372376 -0.875732,-0.368617 -2.989859,-1.323446 -3.035614,-2.536014 -0.06212,-1.738736 1.810244,-0.08431 2.401746,0.385234 1.646868,1.317554 3.257758,1.928883 3.326448,-0.705803 0.0392,-1.52273 -0.65028,-3.504879 0.1372,-4.956373 0.32353,-0.604823 0.90187,-1.267544 1.67308,-0.611353 0.5424,0.464615 0.23851,1.84948 0.12742,2.454631 -0.34964,1.954044 -0.29739,3.456524 0.0359,5.400436 0.34308,0.160761 5.53544,-3.7604 4.51256,-0.976348 -0.57178,1.556032 -2.98006,1.866124 -3.56493,3.630013 -1.1437,3.441489 2.86244,-1.466497 3.85583,-0.561375 0.68287,0.620183 -0.13078,2.126227 -0.66661,2.584732 -0.80388,0.689116 -2.25471,0.322827 -2.88537,1.093647 -1.93767,2.360224 3.54214,1.647895 4.07148,2.291291 1.39527,1.705399 -3.1532,1.960563 -3.9212,3.005914 -1.08807,1.474329 -0.44107,4.306782 -0.6012,6.016061 -0.2026,2.156919 -1.11753,4.061355 -1.73514,6.166344 -0.30064,1.022456 -0.77114,3.818961 -2.32001,3.228129 l 0.26145,-0.02318"
       style="fill:#415a24;fill-opacity:1;fill-rule:nonzero;stroke:none;stroke-width:0.326765"
       id="path4530" />
    <path
       d="m 102.2819,81.13741 c 1.81028,-1.709243 3.80686,-3.835506 6.56798,-4.336097 1.73507,-0.314079 3.4114,0.277106 4.98969,0.917857 0.79403,0.320216 3.72509,1.914525 3.70554,0.08791 -0.0196,-1.593991 -3.62712,-1.979542 -4.71854,-2.375253 -0.79072,-0.28328 -1.86909,-0.878346 -0.7058,-1.61096 0.6568,-0.411092 2.08802,0.234915 2.76447,0.540138 1.44099,0.639481 3.6238,3.28034 5.27724,3.104233 3.4212,-0.363996 -0.88226,-3.206538 -1.86256,-3.602214 -0.76133,-0.310162 -2.15667,-0.408446 -2.3494,-1.365885 -0.22881,-1.137179 1.28743,-1.617133 2.1958,-1.548201 2.37232,0.180058 4.03881,2.953562 5.43077,4.5224 0.5425,0.614045 2.11426,2.176251 3.08804,1.956682 1.40832,-0.318876 0.66985,-2.136704 0.0849,-2.871964 -0.76136,-0.946926 -6.24123,-3.064722 -5.42099,-4.577327 0.85933,-1.574977 5.49286,1.584184 6.56135,1.768158 1.34302,0.228388 2.60431,-0.928018 2.13706,-2.503276 -0.48691,-1.650189 -3.03234,-1.212674 -4.36884,-1.254514 -4.28717,-0.144462 0.12414,-2.758581 1.18618,-4.329641 0.66333,-0.980299 1.91812,-3.147696 1.33325,-4.396282 -0.66011,-1.411605 -2.71875,-0.427426 -3.40497,0.527403 -1.59463,2.221018 0.91824,4.904105 -1.64691,6.801944 -2.5618,1.895545 -2.37229,-1.686102 -2.06513,-3.289265 0.2908,-1.509924 -0.21568,-7.336826 -2.98333,-4.568473 -1.16657,1.169176 -0.74182,2.943472 -0.45096,4.359064 0.23852,1.179301 1.61745,3.594418 0.94435,4.767474 -0.6241,1.091424 -2.30367,0.816893 -2.82,-0.09835 -0.92801,-1.650506 0.0948,-3.813987 -0.56853,-5.519068 -0.63395,-1.63382 -2.34619,-1.646837 -2.96376,0.0036 -0.52613,1.418167 0.39864,3.012476 0.82017,4.338815 0.42482,1.340026 0.49015,6.509491 -1.74498,3.548344 -0.892,-1.1793 -0.2189,-2.369079 -0.69592,-3.489854 -0.55549,-1.307042 -1.7907,-0.326743 -1.89527,0.768527 -0.1144,1.195987 2.51281,5.44389 0.41494,6.015778 -1.96709,0.53848 -1.42794,-5.577911 -3.48982,-3.715702 -1.41492,1.284217 0.69279,3.983602 0.61436,5.271699 -0.12745,2.077967 -1.7678,3.305916 -3.02584,4.501939 -0.46404,0.441748 -1.09795,0.873054 -1.01304,1.509854 l 0.51305,-0.359693"
       style="fill:#415a24;fill-opacity:1;fill-rule:nonzero;stroke:none;stroke-width:0.326765"
       id="path4532" />
    <path
       d="m 101.61205,81.801126 c 0.82338,0.247721 1.75475,0.149296 2.63694,0.316654 0.91172,0.169615 1.72533,0.447957 2.62724,0.676345 1.81674,0.454555 3.65647,1.078689 5.29033,1.954425 3.34606,1.790665 4.51912,5.573995 3.80351,9.057287 -0.1372,0.666221 -0.90184,2.905231 0.3986,2.921883 1.05227,0.0088 1.5228,-2.303992 1.64694,-3.026481 0.40849,-2.312811 -0.96393,-4.587452 -1.7122,-6.797005 1.33314,-0.8781 3.44406,0.330658 3.98321,1.625 0.82677,1.977249 -0.18951,3.4042 -0.0653,5.351992 0.14707,2.320431 2.9507,1.650542 2.75138,-0.454448 -0.11765,-1.2839 -1.70896,-3.613397 -1.01297,-4.914266 1.28419,-2.398395 3.0062,2.683087 3.28722,3.53561 0.41173,1.267601 1.93774,4.868545 3.663,2.930772 1.23522,-1.38871 -0.78754,-3.16932 -1.59131,-4.27736 -0.49339,-0.676381 -1.3626,-1.591628 -0.17649,-1.976896 0.9411,-0.303918 1.96716,0.56268 2.40174,1.258323 0.72221,1.150232 1.42801,4.421505 3.53889,3.205268 1.81028,-1.039142 1.27113,-3.636539 -0.14375,-4.652786 -1.21882,-0.881945 -3.65979,-1.623378 -5.11384,-1.447306 -0.66992,0.08174 -1.84301,0.892069 -2.38869,0.728733 -1.49331,-0.451979 0.24504,-1.225374 0.84635,-1.418167 1.72851,-0.552591 3.62049,-1.90567 3.96039,-3.843091 0.18292,-1.055758 -0.31044,-1.931176 -1.49334,-1.627575 -1.00644,0.261726 -1.59788,1.541956 -2.32329,2.212128 -1.13718,1.055476 -2.77753,3.284361 -4.53553,2.843883 -2.85922,-0.719914 1.18622,-3.206574 1.69263,-4.18913 1.05544,-2.036022 -0.22221,-5.058658 -2.68601,-3.202623 -1.92137,1.447236 -1.15352,3.542136 -2.2285,5.312516 -0.40527,0.667597 -1.29074,1.268554 -2.15339,1.042741 -1.3136,-0.339549 -0.78423,-1.378621 -0.50648,-2.322972 0.19932,-0.666326 0.67638,-1.958304 0.28755,-2.526241 -0.53263,-0.783555 -1.64039,-0.46729 -2.07494,0.111089 -0.85287,1.1182 0.10125,2.869319 -1.78417,2.725244 -1.31029,-0.10093 -2.77421,-1.035226 -4.0453,-1.405467 -1.91488,-0.559047 -5.52239,-1.803365 -6.90464,0.326814 l 0.30067,0.12386"
       style="fill:#415a24;fill-opacity:1;fill-rule:nonzero;stroke:none;stroke-width:0.326765"
       id="path4534" />
    <path
       d="m 100.17755,81.839368 c 3.83621,1.333852 5.96346,6.522544 6.63659,10.244702 0.60124,3.336573 0.86921,8.28643 -3.13044,9.34586 -0.95416,0.2515 -4.29366,-0.74538 -4.558385,0.73159 -0.33976,1.90835 3.352655,0.65352 4.110675,0.37903 2.43448,-0.88844 2.39522,1.45379 0.49025,2.32949 -1.96391,0.89863 -3.01604,1.06201 -3.989878,3.15655 -0.660048,1.42173 -1.003089,3.61111 0.359448,4.84922 2.31027,2.09842 1.50964,-2.36549 1.45739,-3.22418 -0.10784,-1.67369 2.00632,-4.0029 3.35266,-1.87664 0.87242,1.37605 0.1862,4.63092 2.23831,5.23875 2.84286,0.84236 1.32337,-3.04944 0.70248,-4.08457 -0.53908,-0.89863 -1.59127,-1.84982 -1.87233,-2.85037 -0.36918,-1.33262 0.58826,-1.51264 1.56852,-0.78362 1.06521,0.79371 1.39524,2.14033 2.64343,2.87552 0.6144,0.36626 2.23185,1.11072 2.94746,0.78387 2.38866,-1.08743 -2.94414,-3.00848 -3.53229,-3.27017 -1.47045,-0.65744 -3.4768,-4.17908 -0.66336,-4.41527 1.69269,-0.1428 6.7281,3.05852 7.84563,0.90248 0.69928,-1.35311 -1.55208,-2.11769 -2.50303,-2.08181 -1.41485,0.0624 -2.55859,0.79766 -3.9636,0.069 -0.97708,-0.510715 -1.73192,-1.522729 -0.56857,-2.270688 1.03251,-0.664034 2.41805,-0.02681 3.45384,0.117263 1.05551,0.149366 3.18272,0.156845 3.06183,-1.434818 -0.1275,-1.660631 -2.02269,-1.639993 -3.03566,-1.080982 -1.28418,0.712082 -4.93095,1.910645 -3.58136,-1.095234 0.66336,-1.480608 4.32308,-2.402064 3.87544,-4.55549 -0.44436,-2.120371 -3.30027,2.29362 -4.05186,2.542611 -0.30061,0.101 -0.64375,0.137901 -0.92146,0.04833 0.0261,-1.417778 1.91802,-4.103546 1.48347,-5.364797 -0.44436,-1.2966 -1.20248,0.813329 -1.59788,1.137461 -0.88226,0.728663 -1.55211,0.23495 -1.93442,-0.676451 -0.69934,-1.667122 -0.98358,-3.62384 -2.26448,-5.153061 -0.51304,-0.611329 -4.10418,-2.389258 -3.80686,-0.569242"
       style="fill:#415a24;fill-opacity:1;fill-rule:nonzero;stroke:none;stroke-width:0.326765"
       id="path4536" />
    <path
       d="m 100.00437,80.591134 c -1.512926,-1.270141 -8.025416,3.778003 -9.133103,5.117148 -0.607801,0.732578 -0.996597,1.559983 -1.32334,2.460837 -0.281058,0.777345 -0.235303,1.774331 -0.51308,2.415116 -0.326743,0.74796 -1.091389,1.342673 -1.862561,0.640751 -0.927982,-0.843668 0.271216,-1.258606 0.320216,-2.25171 0.03595,-0.745314 -0.545676,-1.608385 -1.339709,-1.199833 -0.800558,0.408446 -0.542431,1.807598 -0.33983,2.487965 0.568572,1.952696 1.986738,3.289195 1.336463,5.479486 -0.261408,0.888471 -1.006475,1.581538 -1.934457,0.852911 -0.624099,-0.490149 -0.568537,-1.359711 -0.535905,-2.062939 0.04251,-1.03512 0.49015,-5.364797 -1.38871,-2.815696 -1.150232,1.564887 -0.696065,4.067846 -1.218882,5.884334 -0.196074,0.676487 -0.444359,1.807387 -1.261251,1.866195 -1.107758,0.08527 -1.248269,-1.114249 -1.078372,-1.866195 0.297357,-1.309617 1.846298,-3.661975 0.689469,-4.924602 -1.065247,-1.162685 -3.881967,1.202444 -5.042006,1.637701 -1.646872,0.624099 -3.787105,-0.53587 -1.669732,-1.809927 1.218812,-0.735224 3.163111,-0.726404 4.519154,-1.254795 0.597958,-0.232304 1.885456,-0.699276 2.091267,-1.379573 0.320251,-1.055758 -0.921491,-1.251232 -1.653435,-1.62373 -0.611011,-0.314008 -1.999756,-0.787506 -1.898438,-1.686137 0.124178,-1.078548 1.441027,-0.582225 2.123934,-0.313937 1.584819,0.617537 2.636979,1.95139 4.09441,2.67649 0.401919,0.202918 1.519449,0.679062 1.578257,-0.238584 0.03919,-0.605155 -1.405114,-1.284182 -1.771086,-1.575258 -0.630625,-0.506484 -1.20904,-1.005805 -0.02942,-1.326022 0.816927,-0.22613 1.4345,0.466937 2.094582,0.76073 1.163285,0.519536 3.234973,0.458082 3.411432,-1.133616 -0.401884,-0.404495 -1.725365,-0.794032 -1.428009,-1.568803 0.326813,-0.835801 1.548906,-0.159455 2.097899,0.03337 1.872333,0.649605 2.836334,0.06502 4.270799,-1.202514 1.058756,-0.934191 2.146864,-2.182459 3.368957,-2.888615 0.836507,-0.483588 3.937497,-0.261338 3.558437,1.093999"
       style="fill:#415a24;fill-opacity:1;fill-rule:nonzero;stroke:none;stroke-width:0.326765"
       id="path4538" />
    <path
       d="m 101.58915,81.323712 c -1.32666,-0.08562 -3.009512,1.807281 -3.61068,2.725209 -1.722085,2.63077 -4.842687,7.345645 -1.016318,9.855271 0.823454,0.538833 2.375641,1.418131 2.019406,2.63338 -0.235267,0.800242 -1.225338,1.134463 -1.944229,0.601204 -0.597958,-0.447004 -0.493465,-1.303443 -1.091389,-1.744909 -0.588151,-0.433917 -1.748225,-0.444359 -2.186058,0.14672 -0.454236,0.611364 0.0817,1.725648 0.506448,2.307661 0.777769,1.058368 4.669508,1.914772 3.816633,3.715912 -0.300673,0.62675 -1.509643,0.84864 -2.12397,0.50525 -0.594713,-0.33306 -0.656837,-1.12705 -0.986825,-1.70152 -1.071774,-1.869755 -3.565031,-0.960999 -2.555346,0.69833 0.388867,0.64078 1.575047,1.04037 2.110916,1.55208 0.712365,0.68298 0.947632,1.49726 1.156794,2.42136 0.176424,0.78126 0.545677,2.05892 0.218934,2.8007 -0.336585,0.76821 -1.336463,1.15376 -1.87893,0.2297 -0.888753,-1.50771 1.568486,-2.76472 -0.320252,-4.39858 -1.895192,-1.64038 -2.228497,1.13097 -2.061845,2.34587 0.251601,1.81028 -0.06861,3.18237 -2.199181,3.69926 -1.741594,0.42513 -3.698911,-0.89598 -2.535696,-2.64351 0.905192,-1.35935 2.957265,-1.89558 3.555224,-3.5101 0.650275,-1.76159 -0.614328,-2.09458 -2.016055,-1.60701 -1.097986,0.37899 -3.012828,0.56166 -3.516066,-0.90872 -0.513009,-1.503819 1.107758,-1.738769 2.218761,-1.581571 1.4345,0.205563 2.509555,0.980301 3.917915,0.546351 0.460728,-0.585933 0.816892,-1.732179 -0.254882,-2.004064 -0.699276,-0.176142 -1.303761,0.65098 -1.993265,0.755508 -2.310236,0.34604 -2.055354,-2.375288 0.11109,-2.316797 1.189425,0.03203 4.00939,1.427374 3.78393,-0.839788 -0.251566,-2.536331 -2.43766,-0.167287 -3.614033,-0.340783 -0.944386,-0.140547 -1.604398,-1.296917 -0.993316,-2.061246 0.513009,-0.647311 1.767805,-0.519535 2.447467,-0.389501 0.607765,0.115005 4.764228,0.980298 3.270849,-1.110333 -0.669783,-0.940753 -4.525645,0.657154 -4.162954,-1.585454 0.179776,-1.091424 1.522765,-0.783626 2.271042,-0.571818 1.05216,0.297251 1.470449,0.703157 2.323324,0.03327 1.640347,-1.288097 1.989985,-3.502519 2.257919,-5.424946 0.166617,-1.185828 -0.163406,-4.462287 1.777648,-4.518449 0.999878,-0.02942 3.09767,0.584588 3.66949,1.359253 l -0.73191,0.316653"
       style="fill:#415a24;fill-opacity:1;fill-rule:nonzero;stroke:none;stroke-width:0.326765"
       id="path4540" />
    <path
       d="m 99.069788,80.716264 c -1.512888,-1.271446 -8.028623,3.774476 -9.133065,5.113267 -0.6078,0.732544 -0.999878,1.558643 -1.32341,2.460837 -0.281023,0.777381 -0.238549,1.778247 -0.516291,2.415082 -0.323462,0.747924 -1.088107,1.342672 -1.859244,0.63948 -0.928088,-0.842363 0.27118,-1.257371 0.3169,-2.250369 0.03598,-0.749301 -0.545712,-1.604469 -1.339709,-1.199621 -0.797313,0.408481 -0.539186,1.807316 -0.339831,2.490329 0.571818,1.950085 1.986704,3.286548 1.339709,5.479486 -0.261373,0.88586 -1.009685,1.577622 -1.937703,0.850229 -0.620818,-0.490114 -0.565291,-1.359323 -0.535869,-2.062833 0.04572,-1.032615 0.49343,-5.364833 -1.3855,-2.817107 -1.150232,1.566263 -0.69924,4.069222 -1.218812,5.885745 -0.196073,0.679027 -0.444394,1.803436 -1.264637,1.866124 -1.107758,0.08435 -1.244989,-1.114249 -1.07502,-1.866124 0.297391,-1.310993 1.846227,-3.663421 0.689469,-4.924355 -1.065248,-1.162896 -3.881932,1.202161 -5.041971,1.640064 -1.646873,0.61782 -3.787211,-0.538515 -1.669768,-1.813913 1.218847,-0.735224 3.159831,-0.724711 4.519154,-1.25476 0.597994,-0.231034 1.885421,-0.69797 2.091302,-1.378302 0.316971,-1.055794 -0.921491,-1.250809 -1.653434,-1.623731 -0.611047,-0.313972 -1.999862,-0.787506 -1.898509,-1.686101 0.120932,-1.078583 1.437746,-0.581978 2.123934,-0.313937 1.584854,0.617537 2.637049,1.950367 4.091164,2.676454 0.405165,0.201683 1.522695,0.679027 1.581503,-0.238548 0.03919,-0.605155 -1.405008,-1.284111 -1.771086,-1.575329 -0.630661,-0.502885 -1.208969,-1.00704 -0.02935,-1.327327 0.816857,-0.224825 1.434501,0.468595 2.094548,0.762106 1.160004,0.519465 3.234972,0.456777 3.408151,-1.133581 -0.401885,-0.405835 -1.72205,-0.79375 -1.424729,-1.568803 0.323533,-0.835907 1.548871,-0.160761 2.097864,0.03203 1.872368,0.653556 2.836334,0.06629 4.270799,-1.202514 1.058721,-0.934226 2.146864,-2.18246 3.365676,-2.888298 0.839823,-0.48006 3.93753,-0.260385 3.561751,1.091071"
       style="fill:#81c32d;fill-opacity:1;fill-rule:nonzero;stroke:none;stroke-width:0.326765"
       id="path4542" />
    <path
       d="m 101.099,81.99392 c 0.82017,0.24765 1.75472,0.153246 2.6337,0.316618 0.91172,0.16958 1.72533,0.450673 2.63056,0.67638 1.81673,0.454555 3.65315,1.078689 5.29022,1.954072 3.34613,1.791053 4.51919,5.578193 3.80358,9.057605 -0.13723,0.670172 -0.90188,2.905267 0.39864,2.921918 1.04888,0.0089 1.52273,-2.300147 1.64687,-3.02253 0.40523,-2.316762 -0.96718,-4.591438 -1.71549,-6.800991 1.33646,-0.877959 3.4441,0.334609 3.98657,1.624965 0.8267,1.977284 -0.18959,3.404305 -0.0654,5.352097 0.14703,2.320396 2.94742,1.650154 2.75131,-0.450603 -0.11758,-1.288097 -1.70896,-3.614949 -1.01289,-4.918075 1.2809,-2.398466 3.00623,2.683052 3.28397,3.535539 0.41494,1.267566 1.94098,4.868475 3.66303,2.930702 1.23843,-1.384794 -0.78754,-3.169285 -1.59134,-4.27729 -0.49022,-0.676381 -1.35936,-1.591663 -0.17322,-1.977284 0.93783,-0.303566 1.96713,0.565644 2.40171,1.258711 0.71889,1.150232 1.4247,4.421505 3.53889,3.208867 1.807,-1.038825 1.27113,-3.640208 -0.14379,-4.65642 -1.22209,-0.879334 -3.663,-1.623378 -5.11387,-1.447236 -0.67313,0.08167 -1.84294,0.894715 -2.3919,0.728698 -1.49003,-0.451908 0.24839,-1.222798 0.84956,-1.415556 1.72861,-0.555167 3.62056,-1.908281 3.96039,-3.845702 0.18306,-1.051842 -0.31037,-1.927578 -1.49327,-1.62373 -1.00644,0.257845 -1.59791,1.539416 -2.32333,2.208354 -1.14042,1.055405 -2.77745,3.283938 -4.53552,2.843812 -2.86247,-0.71628 1.18293,-3.206574 1.69263,-4.189483 1.05223,-2.035775 -0.22215,-5.05834 -2.68591,-3.20227 -1.92144,1.4472 -1.15355,3.544429 -2.22864,5.312199 -0.40517,0.667561 -1.29067,1.268871 -2.15336,1.043022 -1.31356,-0.339478 -0.78422,-1.37862 -0.50644,-2.323288 0.19604,-0.663681 0.67638,-1.957952 0.28748,-2.525889 -0.53259,-0.781262 -1.64028,-0.464679 -2.07815,0.111125 -0.84963,1.12081 0.10128,2.871928 -1.78089,2.725173 -1.31032,-0.10093 -2.77421,-1.035156 -4.04862,-1.405396 -1.91156,-0.559118 -5.51907,-1.803718 -6.90132,0.326813 l 0.29742,0.125095"
       style="fill:#81c32d;fill-opacity:1;fill-rule:nonzero;stroke:none;stroke-width:0.326765"
       id="path4544" />
    <path
       d="m 101.16441,81.319761 c -0.0523,-3.364336 -1.999866,-9.991761 -6.058292,-10.557122 -1.123986,-0.157163 -2.0586,0.546382 -3.13362,0.546382 -0.833296,-0.0039 -2.434449,-0.640821 -1.503186,-1.673366 0.630696,-0.695678 5.555086,0.152893 3.705543,-2.101074 -0.624135,-0.764682 -1.646908,-0.444077 -2.457274,-0.280706 -1.326691,0.260103 -2.42129,0.241124 -3.757789,0.03563 -0.865928,-0.133985 -2.535696,-0.265677 -2.967003,-1.212639 -0.522816,-1.15383 0.548923,-1.264884 1.437711,-1.26753 1.411605,-0.0061 4.496365,1.003194 5.613859,-0.349638 1.849508,-2.235059 -2.64354,-2.536332 -3.836212,-2.209554 -1.774401,0.490115 -4.957022,0.729016 -5.901408,-1.529256 -1.016247,-2.431486 3.006267,-0.957121 4.025795,-0.806485 3.512714,0.50292 0.8757,-2.398466 0.06862,-3.88165 -0.839823,-1.552116 -0.682978,-5.347194 1.708962,-3.055902 1.54887,1.487099 1.369165,4.225078 2.489941,5.992919 0.53915,0.850194 1.414885,1.5482 2.352745,0.682907 1.042353,-0.96132 0.2679,-2.440588 0.346322,-3.590502 0.06865,-0.988131 0.490185,-2.32724 1.74498,-1.696544 0.976983,0.490114 0.725382,1.822662 0.731908,2.784017 0.0028,1.149914 -0.990106,5.613506 -0.16009,6.338605 1.460606,1.277656 2.382132,-4.625728 4.127006,-3.119649 1.068572,0.921808 -1.780893,4.650211 -2.169724,5.496525 -0.258128,0.557742 -1.084863,2.30632 -0.578415,2.754242 0.888824,0.783943 1.712348,-0.862612 2.009634,-1.359323 0.300637,-0.504155 1.392067,-2.235024 2.107667,-1.323728 0.40516,0.519571 -0.50324,2.350135 -0.83654,2.761227 -1.029298,1.254407 -1.875612,1.558325 -0.895383,3.309514 0.545782,0.9779 1.186253,1.811197 1.597913,2.940791 0.36604,1.017588 2.27104,6.970607 0.15039,6.103973"
       style="fill:#81c32d;fill-opacity:1;fill-rule:nonzero;stroke:none;stroke-width:0.326765"
       id="path4546" />
    <path
       d="m 101.44536,80.739159 c 2.13702,-3.431046 3.74798,-8.591656 2.33969,-12.586688 -0.36601,-1.036461 -0.86272,-1.96843 -1.43125,-2.899022 -0.45745,-0.74803 -1.71225,-1.87632 -1.85279,-2.731453 -0.32018,-1.947863 1.24827,-0.255199 1.70903,0.454554 0.50645,0.777381 1.53903,2.325582 2.31673,1.106417 1.47697,-2.325617 -3.12385,-3.483328 -4.07476,-4.65642 -0.548961,-0.685235 -1.431258,-2.68538 0.12093,-2.270689 0.94431,0.251601 1.66652,2.817036 2.8624,2.392221 1.19599,-0.425097 0.2321,-2.516046 -0.33655,-3.039216 -0.8431,-0.77343 -2.22197,-0.927982 -3.290497,-1.372094 -0.875736,-0.3689 -2.989933,-1.326338 -3.035653,-2.538942 -0.06537,-1.73482 1.810279,-0.0817 2.398501,0.38915 1.650119,1.313638 3.261039,1.927648 3.329729,-0.705803 0.0392,-1.526646 -0.65028,-3.506184 0.13719,-4.959946 0.32343,-0.601268 0.90192,-1.268829 1.67305,-0.609082 0.5424,0.464647 0.23531,1.847187 0.12743,2.454632 -0.34968,1.950476 -0.29732,3.45652 0.036,5.401737 0.34308,0.159808 5.53537,-3.761388 4.51256,-0.977653 -0.57182,1.556032 -2.98002,1.862208 -3.56493,3.630013 -1.1437,3.438878 2.86241,-1.466498 3.85579,-0.561376 0.6797,0.620219 -0.13074,2.127568 -0.66657,2.584697 -0.80719,0.689152 -2.25471,0.322863 -2.88537,1.091424 -1.94095,2.362483 3.54214,1.646555 4.07148,2.29355 1.39527,1.706704 -3.15331,1.957987 -3.9212,3.003621 -1.08807,1.472706 -0.44108,4.309039 -0.60124,6.018389 -0.20256,2.156954 -1.12077,4.058744 -1.73506,6.166309 -0.30068,1.022491 -0.77118,3.820231 -2.32005,3.228199 l 0.26145,-0.02325"
       style="fill:#81c32d;fill-opacity:1;fill-rule:nonzero;stroke:none;stroke-width:0.326765"
       id="path4548" />
    <path
       d="m 102.24599,80.963949 c 1.84619,-1.744874 3.88849,-3.914951 6.70846,-4.426655 1.77433,-0.32057 3.48329,0.28328 5.09421,0.936801 0.81368,0.330729 3.80683,1.954072 3.78397,0.08788 -0.0196,-1.623342 -3.70223,-2.021664 -4.81651,-2.423901 -0.80709,-0.29083 -1.90825,-0.898596 -0.72221,-1.64398 0.67321,-0.421181 2.13381,0.238831 2.82328,0.548922 1.47373,0.653592 3.70226,3.353365 5.39165,3.173307 3.49638,-0.372886 -0.90185,-3.274201 -1.90172,-3.682647 -0.77777,-0.314078 -2.20243,-0.41469 -2.3985,-1.392379 -0.23524,-1.159051 1.31356,-1.653117 2.24158,-1.581538 2.42136,0.183656 4.12376,3.016039 5.54517,4.620472 0.55556,0.624417 2.15996,2.222288 3.15662,1.996511 1.43775,-0.329389 0.68291,-2.182778 0.0849,-2.930772 -0.77767,-0.970139 -6.37519,-3.133655 -5.53537,-4.675647 0.8757,-1.610677 5.6073,1.617486 6.70193,1.803753 1.3692,0.230999 2.65988,-0.950877 2.18282,-2.555346 -0.49996,-1.686419 -3.10099,-1.238038 -4.46691,-1.284146 -4.3754,-0.144075 0.12746,-2.813156 1.21235,-4.42147 0.6796,-1.003512 1.96385,-3.211443 1.36582,-4.489415 -0.67638,-1.441027 -2.7807,-0.437515 -3.47998,0.538832 -1.62733,2.268079 0.93776,5.01001 -1.68285,6.947677 -2.61747,1.93742 -2.42133,-1.719439 -2.10767,-3.359821 0.29735,-1.541639 -0.2189,-7.496281 -3.04871,-4.666544 -1.18943,1.193376 -0.75484,3.005949 -0.46076,4.450927 0.24507,1.206394 1.65347,3.67217 0.96724,4.868439 -0.64047,1.114284 -2.35599,0.833226 -2.88209,-0.100965 -0.94759,-1.682221 0.0981,-3.891774 -0.58159,-5.632768 -0.6471,-1.671073 -2.39522,-1.679928 -3.0226,0.0028 -0.54243,1.447271 0.40524,3.074882 0.83655,4.430325 0.43455,1.369766 0.49992,6.650285 -1.78418,3.62772 -0.91168,-1.20904 -0.22546,-2.421326 -0.71236,-3.564996 -0.56854,-1.336499 -1.82986,-0.333304 -1.93442,0.78359 -0.11434,1.218847 2.56508,5.558861 0.42478,6.143484 -2.00964,0.54864 -1.4574,-5.698137 -3.56168,-3.793807 -1.44763,1.307077 0.70576,4.068304 0.62734,5.381519 -0.1307,2.123969 -1.81031,3.376154 -3.09449,4.597612 -0.47382,0.451908 -1.12082,0.892352 -1.03583,1.545908 l 0.5261,-0.3689"
       style="fill:#81c32d;fill-opacity:1;fill-rule:nonzero;stroke:none;stroke-width:0.326765"
       id="path4550" />
    <path
       d="m 99.376987,81.78444 c 3.839493,1.332548 5.966673,6.522544 6.636563,10.243468 0.60452,3.336537 0.86921,8.287742 -3.13045,9.346142 -0.95408,0.25121 -4.293619,-0.74179 -4.558308,0.73515 -0.339831,1.90574 3.352588,0.6536 4.113958,0.37518 2.43113,-0.8885 2.39518,1.45765 0.49011,2.33081 -1.96384,0.89856 -3.01932,1.06454 -3.993022,3.15916 -0.660082,1.41816 -1.003194,3.60845 0.359445,4.84653 2.313447,2.10079 1.509647,-2.3664 1.457357,-3.22189 -0.10784,-1.67333 2.0096,-4.00649 3.35259,-1.87889 0.87246,1.37866 0.18627,4.62964 2.24162,5.24101 2.83955,0.84271 1.32013,-3.05167 0.69924,-4.0882 -0.53915,-0.89856 -1.59131,-1.84588 -1.86905,-2.84512 -0.36925,-1.33389 0.58815,-1.51388 1.56517,-0.78521 1.06525,0.79145 1.39531,2.13677 2.64354,2.87196 0.61433,0.36661 2.23185,1.11196 2.94739,0.78521 2.38869,-1.08525 -2.94407,-3.00595 -3.53226,-3.27159 -1.47045,-0.65616 -3.47684,-4.17509 -0.66336,-4.41395 1.69587,-0.14016 6.72811,3.05854 7.84564,0.9012 0.70252,-1.34916 -1.55216,-2.117405 -2.50307,-2.07789 -1.41157,0.0585 -2.56184,0.79375 -3.96356,0.065 -0.97381,-0.506837 -1.73193,-1.519169 -0.56537,-2.270726 1.0293,-0.663928 2.4148,-0.02551 3.45063,0.117333 1.05548,0.150672 3.18269,0.157163 3.06179,-1.434782 -0.12745,-1.659361 -2.02272,-1.636148 -3.03237,-1.080982 -1.28743,0.712364 -4.93088,1.914561 -3.58457,-1.095304 0.66336,-1.479304 4.32632,-2.400759 3.8754,-4.55408 -0.44115,-2.11776 -3.30034,2.29355 -4.05183,2.541235 -0.30067,0.102235 -0.64382,0.141817 -0.92156,0.04964 0.0294,-1.417814 1.91812,-4.103476 1.4835,-5.365785 -0.44436,-1.293037 -1.20248,0.814281 -1.59459,1.137108 -0.88551,0.729016 -1.55208,0.236291 -1.9377,-0.676381 -0.69928,-1.665852 -0.98358,-3.619923 -2.26452,-5.14918 -0.51301,-0.615315 -4.104144,-2.389646 -3.806752,-0.569171"
       style="fill:#81c32d;fill-opacity:1;fill-rule:nonzero;stroke:none;stroke-width:0.326765"
       id="path4552" />
    <path
       d="m 100.98467,81.480839 c -1.248308,-0.05881 -2.872251,1.855753 -3.457227,2.777526 -1.676223,2.645869 -4.711912,7.391753 -1.156723,9.805247 0.764611,0.519571 2.212199,1.363275 1.849473,2.575913 -0.235232,0.796608 -1.179583,1.150197 -1.842911,0.633272 -0.555555,-0.427743 -0.437903,-1.280302 -0.993387,-1.709315 -0.545712,-0.417301 -1.637136,-0.40453 -2.061881,0.190218 -0.441148,0.617855 0.03919,1.71189 0.431307,2.281097 0.709048,1.035156 4.359098,1.809891 3.51603,3.613363 -0.294146,0.62801 -1.437816,0.87305 -2.006388,0.54635 -0.555484,-0.32026 -0.597959,-1.1078 -0.895315,-1.67334 -0.970562,-1.832852 -3.339465,-0.88201 -2.421326,0.74796 0.352919,0.62802 1.460641,1.00087 1.957352,1.49984 0.656802,0.66368 0.859367,1.4678 1.039108,2.37917 0.150283,0.77117 0.473815,2.03605 0.150283,2.77752 -0.333305,0.76853 -1.280936,1.1731 -1.777577,0.2643 -0.80391,-1.4769 1.535748,-2.77749 -0.212443,-4.36163 -1.751471,-1.59163 -2.120653,1.16917 -1.983458,2.37169 0.196074,1.79098 -0.133949,3.16043 -2.15011,3.71954 -1.646908,0.45322 -3.463678,-0.81428 -2.333096,-2.57591 0.882298,-1.36588 2.823246,-1.94 3.418029,-3.55484 0.65024,-1.76127 -0.53594,-2.06911 -1.865877,-1.55836 -1.042388,0.40192 -2.849351,0.62019 -3.293816,-0.82733 -0.45092,-1.48322 1.078336,-1.751155 2.124005,-1.617205 1.34627,0.176107 2.342903,0.924105 3.679331,0.463375 0.444465,-0.590763 0.800629,-1.737114 -0.199319,-1.982154 -0.656731,-0.163407 -1.241672,0.668867 -1.895228,0.787471 -2.182778,0.391795 -1.888667,-2.318068 0.153599,-2.301382 1.117565,0.0062 3.744772,1.333818 3.578049,-0.911366 -0.183021,-2.513436 -2.290586,-0.11497 -3.395028,-0.264301 -0.885543,-0.12125 -1.483572,-1.254795 -0.895385,-2.026955 0.496746,-0.653521 1.676329,-0.551251 2.313517,-0.437833 0.571817,0.102235 4.466837,0.879581 3.104268,-1.16526 -0.614327,-0.921491 -4.27736,0.741433 -3.888529,-1.491051 0.189513,-1.087437 1.45087,-0.810366 2.150146,-0.617608 0.983544,0.274532 1.369166,0.670207 2.186058,-0.0127 1.571696,-1.313639 1.94751,-3.516701 2.23834,-5.431155 0.179669,-1.182229 -0.06533,-4.430607 1.764488,-4.525046 0.941071,-0.04971 2.904951,0.519571 3.427841,1.277656 l -0.69607,0.329388"
       style="fill:#81c32d;fill-opacity:1;fill-rule:nonzero;stroke:none;stroke-width:0.326765"
       id="path4554" />
    <path
       d="m 133.01089,35.35443 -0.003,-0.07516 h 0.01 l -0.006,0.07516"
       style="fill:#52734d;fill-opacity:1;fill-rule:nonzero;stroke:none;stroke-width:0.326765"
       id="path5202" />
    <path
       d="m 157.19145,35.488725 0.11105,-0.169923 -0.01,0.130391 -0.10132,0.03953"
       style="fill:#52734d;fill-opacity:1;fill-rule:nonzero;stroke:none;stroke-width:0.326765"
       id="path6538" />
    <path
       d="m 157.55089,35.759313 0.29411,-0.159833 -0.003,0.04609 -0.29083,0.113739"
       style="fill:#52734d;fill-opacity:1;fill-rule:nonzero;stroke:none;stroke-width:0.326765"
       id="path6540" />
    <path
       d="m 158.1358,35.528261 0.0522,-0.05618 v 0.03297 l -0.0522,0.02321"
       style="fill:#52734d;fill-opacity:1;fill-rule:nonzero;stroke:none;stroke-width:0.326765"
       id="path6542" />
    <path
       d="m 156.27324,36.043923 0.27449,-1.036525 0.0457,-0.02154 v 0.0062 l -0.32021,1.05186"
       style="fill:#52734d;fill-opacity:1;fill-rule:nonzero;stroke:none;stroke-width:0.326765"
       id="path6544" />
  </g>
</svg>
