<svg id="svg42801" xmlns="http://www.w3.org/2000/svg" viewBox="0 0 187.59 172.6"><defs><style>.cls-1{fill:#7a4122;}.cls-2{fill:#b59a63;}.cls-3{fill:#261512;}.cls-4{fill:#777e4a;}.cls-5{fill:#282718;}.cls-6{fill:#5a3319;}.cls-7{fill:#344a1f;}.cls-8{fill:#527e2d;}.cls-9{fill:#6ea62d;}.cls-10{fill:#48762c;}.cls-11{fill:#6ea82e;}.cls-12{fill:#8bcf30;}.cls-13{fill:#3f6428;}.cls-14{fill:#62972f;}.cls-15{fill:#7cc12c;}.cls-16{fill:#334820;}.cls-17{fill:#527c2f;}.cls-18{fill:#6aa42e;}.cls-19{fill:#375324;}.cls-20{fill:#57852d;}.cls-21{fill:#72ae2d;}.cls-22{fill:#3b5d26;}.cls-23{fill:#5c8d2e;}.cls-24{fill:#76b92c;}.cls-25{fill:#32461f;}.cls-26{fill:#4f792c;}.cls-27{fill:#6aa12e;}.cls-28{fill:#4a7c2e;}.cls-29{fill:#71ad2d;}.cls-30{fill:#8ed030;}</style></defs><title>plant8</title><path id="path4802" class="cls-1" d="M166.28,99.65a68,68,0,1,1-68-68,68,68,0,0,1,68,68" transform="translate(0 0)"/><path id="path4804" class="cls-2" d="M157.64,99.65a59.4,59.4,0,1,1-59.4-59.4,59.41,59.41,0,0,1,59.4,59.4" transform="translate(0 0)"/><path id="path4806" class="cls-3" d="M154.39,99.65A56.15,56.15,0,1,1,98.24,43.5a56.14,56.14,0,0,1,56.15,56.15" transform="translate(0 0)"/><path id="path4812" class="cls-4" d="M98.24,159.06a59.05,59.05,0,0,1-6.82-.4c.81-1.93,2.22-2.9,3.63-2.9s3,1.09,3.78,3.28a5.82,5.82,0,0,1-.59,0m.81,0a4.88,4.88,0,0,1,3.36-1.58,3.31,3.31,0,0,1,1.84.57l-.62-2.16-2.46-.15a56.15,56.15,0,0,0,53.22-56.07,56.77,56.77,0,0,0-1.17-11.44l.75,1,.1-.87-.88-.23A56.16,56.16,0,1,0,46.48,121.45c-.06.61-.17,1.16-.24,1.73a8.06,8.06,0,0,1,1.23.49,56.37,56.37,0,0,0,31.39,28.7,11.89,11.89,0,0,1,4.62,4.83A59.43,59.43,0,0,1,46.89,69.77l.35-.29a4.26,4.26,0,0,1,.15-.54A59.4,59.4,0,1,1,99.05,159m-8.23-.45c-1-.12-1.94-.27-2.89-.43-.31-1.23-.69-2.42-1.08-3.52,1,.21,2,.4,3.05.54a35.2,35.2,0,0,1,.92,3.41" transform="translate(0 0)"/><path id="path4814" class="cls-5" d="M101.17,155.72l-3.86-.23a28.47,28.47,0,0,1-6.15-.82L89.52,154c.13.37.26.75.38,1.14-1-.14-2.05-.33-3.05-.54-.29-.81-.6-1.57-.9-2.25l-.82-.42L83,150.8A13.87,13.87,0,0,1,78.32,152l.54.34a56.37,56.37,0,0,1-31.39-28.7,12.29,12.29,0,0,1,3.67,3l0,0,.68-1a15.37,15.37,0,0,1-5.33-4.94c0,.27,0,.52,0,.76A56.16,56.16,0,1,1,153.19,88.08l-.1,0,.13.16a56.77,56.77,0,0,1,1.17,11.44,56.15,56.15,0,0,1-53.22,56.07m-3.88-10c0,4-1.7,6.17-3.58,6.64,1.24.19,2.51.31,3.77.39l6.8.41,1.28-1.9a7,7,0,0,1-3.66-2.05,7.91,7.91,0,0,1-4.61-3.49M89.11,149l-1.25,1,.19.39a21.47,21.47,0,0,0,2.8,1.23A5.48,5.48,0,0,1,89.11,149m-9-38.08-1.49,2.26-6.43,9.29c1.64,1.91,2.09,5.46,0,10l.4-.21c.57-1.71,2.55-3.3,6.17-3.62-6.1-3.58-4.79-8.87-.18-8.87A6.45,6.45,0,0,1,80,120c-.85-2.88.28-5,2.18-5.47a28.61,28.61,0,0,1-2-3.57m65,17.73-.23.11.19,0,0-.09m-34.87-2.83-.51.77.49.19,0-1m-49.9-8.31.37,1.73a7.36,7.36,0,0,1,3.06,4.17,7.13,7.13,0,0,1,5-2.51,4.42,4.42,0,0,1,1.1.13l6.52-9.41a18.23,18.23,0,0,0,3.13-5.89,18.88,18.88,0,0,0,.13-5.53l-.27-3.68a49.69,49.69,0,0,0-11,6c-1.27.84-2.57,1.66-3.88,2.47,7.22,5.63,4.92,12.81-1.9,12.81a10.92,10.92,0,0,1-2.26-.25m47,2.36c2.39,0,3.88,1.43,3.87,3.33a4.14,4.14,0,0,1,3.4-1.64,7.14,7.14,0,0,1,4.22,1.61,9.67,9.67,0,0,1,.93-3.65,9.4,9.4,0,0,1-4.51,1.37c-3.77,0-5.32-3.56-2.42-6.82-3.29-.78-4.41-3.24-3.33-5.31a26.67,26.67,0,0,1-5.69-.78,28.2,28.2,0,0,1-6-2.71l-3-1.64A60.32,60.32,0,0,0,99,113.28a3.77,3.77,0,0,1,1.37-.26c2.46,0,4.22,2.66,2.85,6.85l.64.86a8.45,8.45,0,0,1,3.45-.83M82.17,96.81l.24,3.22a20.67,20.67,0,0,1-.21,6.36l-.39,1.23c.78,2.8,2.73,5.57,4.51,8A9.76,9.76,0,0,1,88.61,118c0-4.49,2.15-6.71,4.29-6.71a3.55,3.55,0,0,1,2.64,1.29,62.38,62.38,0,0,1-4.29-10.86l-9.08-4.94m38.08-10.45c-2.65,9.21-13.59,15.4-18.7,17.84a18.47,18.47,0,0,0,3,1.18,26.47,26.47,0,0,0,5.57.72l2.62.16a11.51,11.51,0,0,1,2.7-.58c-6.09-3.57-4.79-8.88-.18-8.88a7.09,7.09,0,0,1,1.41.16c-1-3.32.66-5.62,3.09-5.62,1.66,0,3.7,1.09,5.51,3.67a7.86,7.86,0,0,1,1.84-5.55,13.26,13.26,0,0,1,.4-6.12c-2.66,2.14-5.15,3-7.18,3h-.06m-17.52,5.48a35.72,35.72,0,0,0-9.24,1.4,34.73,34.73,0,0,1-4.43,4.22l9.43,5.13a51.73,51.73,0,0,0,12.62-7.76l-.57.28c-1.19-2.49-4.37-3.27-7.81-3.27M72.17,94a5,5,0,0,1,.39,2.73,36.59,36.59,0,0,1,4.25-2.12A29.75,29.75,0,0,0,72.17,94M89,83.82c-1,0-2,.06-2.94.11-.9,1.86-1.73,3.76-2.68,5.58a5.24,5.24,0,0,1-1.64,2l.16,2.08L86.44,96c1-.7,7.59-5.7,9.25-12.22-.93,0-1.88,0-2.81,0a5.6,5.6,0,0,1-2,.39A4.67,4.67,0,0,1,89,83.82m13.59,5.32c4,0,8.09.94,10,4.25a18.68,18.68,0,0,0,5-7.69,4.36,4.36,0,0,1-2.14-2.62A13.67,13.67,0,0,1,111,84.85l-1.51.12a23,23,0,0,1-2.89-.26l-1.54-.16a4.94,4.94,0,0,1-3.76,1.91,4.73,4.73,0,0,1-3.11-1.24A19.32,19.32,0,0,1,96,89.85a34.28,34.28,0,0,1,6.63-.71M68.89,83.81a8,8,0,0,1-2.34,6.11,10.24,10.24,0,0,1,3.12,1.29,34.54,34.54,0,0,1,9.43,1.18l0-.67-1-.53a62.23,62.23,0,0,1-9.18-7.38M71,74.75c-.71,1.86-1.31,3.67-1.81,5.46a60,60,0,0,0,10.35,8.7l.69.35s.24,0,.75-1,1-2.13,1.52-3.18h0c0-.09.1-6.11-3-10.74l-.89-.27a4.28,4.28,0,0,1-3.72,2A7,7,0,0,1,71,74.75m36.38,2.3a14.16,14.16,0,0,1-.89,4.9l.23,0a23.43,23.43,0,0,0,2.77.25,7.49,7.49,0,0,0,1.07-.07l1.88-.6a12.85,12.85,0,0,1-5.06-4.51m-50.59-.5a17.68,17.68,0,0,1-1.45,4.65,18.07,18.07,0,0,1,3.81-1.67,6.76,6.76,0,0,1-2.36-3m30.64-4a14.57,14.57,0,0,1-4.75,1.77,21.4,21.4,0,0,1,2.06,6c.42-.9.88-1.77,1.28-2.68a14.38,14.38,0,0,1,1.41-5.09m-23,6.51-.12.07.25.06-.13-.13m2.91-8a12.8,12.8,0,0,1-1.24,5.72l1,1.12c.52-1.72,1-3.44,1.71-5.09L67.39,71.1" transform="translate(0 0)"/><path id="path4816" class="cls-6" d="M73.78,67.6a3.91,3.91,0,0,1-2.16-.8A62.92,62.92,0,0,1,54.19,49.66l2.26-1.54A59.94,59.94,0,0,0,73.12,64.51l.67.35s.24,0,.75-1a168.29,168.29,0,0,0,9.67-22.22l2.58.91A173,173,0,0,1,77,65.12c-.34.65-1.24,2.37-3,2.47h-.17" transform="translate(0 0)"/><path id="path4818" class="cls-6" d="M103,60.57a21,21,0,0,1-2.89-.26,111.35,111.35,0,0,0-21.46-.73l-.17-2.73a114.79,114.79,0,0,1,21.77.73,13.91,13.91,0,0,0,3.83.19,11.32,11.32,0,0,0,3.57-1.47,59.52,59.52,0,0,0,20.76-19.45l2.29,1.49A62.51,62.51,0,0,1,109,58.69a13.81,13.81,0,0,1-4.48,1.77l-1.51.12" transform="translate(0 0)"/><path id="path4820" class="cls-6" d="M58.37,108.79,56,107.39l.91-1.74.21.1L70,87.26a18.5,18.5,0,0,0,3.12-5.89,18.22,18.22,0,0,0,.14-5.53l-.69-9.1,2.72-.2.68,9.1a20.06,20.06,0,0,1-.2,6.36,20.49,20.49,0,0,1-3.53,6.81l-13.85,20" transform="translate(0 0)"/><path id="path4822" class="cls-6" d="M87.94,107.37,77.66,92.87c-2.07-2.87-4.4-6.13-5.18-9.69l2.67-.57c.65,3,2.81,6,4.72,8.67l10.3,14.51-2.23,1.58" transform="translate(0 0)"/><path id="path4824" class="cls-6" d="M114.16,85.07l-10.67-.63a29.88,29.88,0,0,1-6.15-.83,28.9,28.9,0,0,1-6-2.7L73.25,71.08l1.3-2.4,18.06,9.84A27.27,27.27,0,0,0,98.07,81a27.24,27.24,0,0,0,5.58.72l10.68.64-.17,2.72" transform="translate(0 0)"/><path id="path4826" class="cls-6" d="M101.53,131.74l-10.68-.64a29.08,29.08,0,0,1-6.14-.81,29.35,29.35,0,0,1-6-2.71l-18.06-9.84,1.31-2.4L80,125.18a26.27,26.27,0,0,0,5.46,2.48,28.4,28.4,0,0,0,5.57.72l10.68.64-.17,2.72" transform="translate(0 0)"/><path id="path4828" class="cls-6" d="M97.18,100.56A64.82,64.82,0,0,1,84.49,76.45l2.62-.72A62.26,62.26,0,0,0,99.29,98.84l-2.11,1.72" transform="translate(0 0)"/><path id="path4830" class="cls-6" d="M39.85,85.92c-1.21,0-2.42,0-3.62-.07l.08-2.72a43.23,43.23,0,0,0,11.2-.69c4.64-1.14,8.66-3.79,12.93-6.6,4.47-3,9.09-6,14.48-7.11l.56,2.67c-4.88,1-9.09,3.79-13.54,6.72-4.27,2.8-8.69,5.71-13.79,7a34.42,34.42,0,0,1-8.3.84" transform="translate(0 0)"/><path id="path4832" class="cls-6" d="M73.17,71c-4.7-1.68-9.73-1.5-15.07-1.32C53,69.8,47.71,70,42.71,68.41a44.89,44.89,0,0,1-10.57-5.54l1.47-2.3c3.14,2,6.39,4.12,9.92,5.24,4.57,1.44,9.39,1.28,14.48,1.1,5.35-.2,10.88-.38,16.08,1.47L73.17,71" transform="translate(0 0)"/><path id="path4834" class="cls-6" d="M39.46,110.69l-2.73-.24c.26-3,2.77-4.61,5-6a15.31,15.31,0,0,0,3-2.23c1.72-1.81,2.1-4.52,2.51-7.38.13-.89.25-1.77.42-2.63a24.9,24.9,0,0,1,5.85-11.86l2,1.82a22.08,22.08,0,0,0-5.22,10.56c-.16.81-.27,1.65-.39,2.49-.45,3.16-.91,6.43-3.23,8.88a17.83,17.83,0,0,1-3.51,2.66c-2.23,1.42-3.59,2.39-3.72,4" transform="translate(0 0)"/><path id="path4836" class="cls-6" d="M62.66,56.16,60,55.45a59.38,59.38,0,0,1,2.42-7.18,8.74,8.74,0,0,0,.9-3.13,7.76,7.76,0,0,0-.74-2.67l-3.72-9.22,2.53-1,3.72,9.22a10.19,10.19,0,0,1,.94,3.66,10.06,10.06,0,0,1-1,4,58.25,58.25,0,0,0-2.4,7.1" transform="translate(0 0)"/><path id="path4838" class="cls-7" d="M33.2,74l-.06,0h0l0,0,.08,0Zm-.07.11V74h0l0,0h0l0,0Zm0-.19h0v0l.08-.06v0Zm0,.15v0l-.07.06v0l.06,0h0v0ZM33,74,33,74h0l0,0h0L33,74Zm.09-.09V74h0l0,0h0l.05,0,0-.09ZM60.1,65.52c6.2-7-.38-14.86-11.19-8.72,5.23-11.3-3.17-17.2-9.65-10.4-2.94-8.91-13.07-7.15-13.15,5.3-7.18-10.18-16.49-5.85-13.84,3.15-9.19-1.9-12.73,7.74-2,14C-2.12,70-3,80.24,6.09,82.44c-6.23,7,.34,14.9,11.15,8.77-5.21,11.27,3.2,17.19,9.67,10.39,2.95,8.91,13.07,7.15,13.16-5.3,7.17,10.18,16.48,5.85,13.83-3.15,9.19,1.9,12.72-7.74,2-14C68.29,78,69.22,67.72,60.1,65.52" transform="translate(0 0)"/><path id="path4840" class="cls-8" d="M33.07,74c-29.08,21.14,2.19,35.89,0,0" transform="translate(0 0)"/><path id="path4842" class="cls-8" d="M33.1,74c3.77,35.76,32.18,16,0,0" transform="translate(0 0)"/><path id="path4844" class="cls-8" d="M33.05,74c-32.85-14.62-30,19.84,0,0" transform="translate(0 0)"/><path id="path4846" class="cls-8" d="M34.25,73.19,33.1,74h0L33,72.59,33.07,74h0l-1.27-.58,1.25.62h0l-1.13.8L33.07,74h0l.13,1.38L33.1,74l1.27.58L33.12,74h0l1.13-.8" transform="translate(0 0)"/><path id="path4848" class="cls-8" d="M33.12,74c32.85,14.62,30-19.83,0,0" transform="translate(0 0)"/><path id="path4850" class="cls-8" d="M33.07,74c-3.77-35.76-32.18-16,0,0" transform="translate(0 0)"/><path id="path4852" class="cls-8" d="M33.1,74c29.08-21.14-2.19-35.89,0,0" transform="translate(0 0)"/><path id="path4854" class="cls-9" d="M33.07,74c-20.42,14.85,1.54,25.21,0,0" transform="translate(0 0)"/><path id="path4856" class="cls-9" d="M33.1,74c2.64,25.11,22.59,11.27,0,0" transform="translate(0 0)"/><path id="path4858" class="cls-9" d="M33.06,74C10,63.74,12,87.94,33.06,74" transform="translate(0 0)"/><path id="path4860" class="cls-9" d="M33.9,73.43l-.81.55h0L33,73l.07,1-.88-.4.87.43-.8.56.81-.55h0l.1,1-.07-1h0l.88.4L33.11,74l.79-.56" transform="translate(0 0)"/><path id="path4862" class="cls-9" d="M33.11,74c23.07,10.27,21.06-13.93,0,0" transform="translate(0 0)"/><path id="path4864" class="cls-9" d="M33.07,74c-2.64-25.11-22.6-11.27,0,0" transform="translate(0 0)"/><path id="path4866" class="cls-9" d="M33.09,74c20.43-14.85-1.53-25.2,0,0" transform="translate(0 0)"/><path id="path4868" class="cls-10" d="M154.62,87.11l-.07,0h0l0,0,.09,0Zm-.08.11h0v-.08h.05l-.05,0Zm0-.18h0v0l.08-.06h0Zm0,.14v-.05l-.08.06h0l.07-.05h0v0Zm-.1-.12.07,0h0l0,0h0l0,0-.07,0Zm.08-.1V87h-.05l.05,0,0-.1Zm27.06-8.35c6.19-7-.38-14.86-11.2-8.73,5.23-11.29-3.17-17.2-9.64-10.4-3-8.91-13.07-7.15-13.16,5.3-7.18-10.18-16.48-5.85-13.84,3.15-9.18-1.9-12.72,7.74-2,14-12.39,1.12-13.31,11.35-4.18,13.55-6.24,7,.33,14.89,11.15,8.76-5.22,11.28,3.19,17.19,9.66,10.4,3,8.9,13.07,7.15,13.16-5.3,7.17,10.17,16.49,5.85,13.83-3.15,9.19,1.89,12.73-7.74,2-14,12.4-1.12,13.33-11.39,4.22-13.58" transform="translate(0 0)"/><path id="path4870" class="cls-11" d="M154.48,87.12c-29.08,21.14,2.2,35.88,0,0" transform="translate(0 0)"/><path id="path4872" class="cls-11" d="M154.52,87.11c3.77,35.76,32.18,16,0,0" transform="translate(0 0)"/><path id="path4874" class="cls-11" d="M154.46,87.09c-32.84-14.61-30,19.83,0,0" transform="translate(0 0)"/><path id="path4876" class="cls-11" d="M155.67,86.27l-1.15.78h0l-.14-1.38.1,1.38h0l-1.27-.58,1.25.61h0l-1.13.8,1.15-.77h0l.14,1.38-.1-1.39h0l1.27.58-1.25-.6h0l1.13-.82" transform="translate(0 0)"/><path id="path4878" class="cls-11" d="M154.54,87.09c32.84,14.6,30-19.85,0,0" transform="translate(0 0)"/><path id="path4880" class="cls-11" d="M154.48,87.05c-3.77-35.75-32.18-16,0,0" transform="translate(0 0)"/><path id="path4882" class="cls-11" d="M154.52,87.05c29.07-21.14-2.2-35.89,0,0" transform="translate(0 0)"/><path id="path4884" class="cls-12" d="M154.49,87.11c-20.42,14.84,1.54,25.2,0,0" transform="translate(0 0)"/><path id="path4886" class="cls-12" d="M154.52,87.1c2.64,25.11,22.59,11.27,0,0" transform="translate(0 0)"/><path id="path4888" class="cls-12" d="M154.47,87.09c-23.06-10.27-21.05,13.93,0,0" transform="translate(0 0)"/><path id="path4890" class="cls-12" d="M155.32,86.52l-.81.54-.1-1,.08,1h0l-.88-.41.87.43-.79.56.81-.54h0l.09,1-.06-1h0l.89.41-.88-.42h0l.79-.57" transform="translate(0 0)"/><path id="path4892" class="cls-12" d="M154.53,87.09c23.06,10.26,21.05-13.94,0,0" transform="translate(0 0)"/><path id="path4894" class="cls-12" d="M154.48,87.07c-2.64-25.12-22.59-11.28,0,0" transform="translate(0 0)"/><path id="path4896" class="cls-12" d="M154.51,87.06c20.42-14.84-1.54-25.2,0,0" transform="translate(0 0)"/><path id="path4898" class="cls-13" d="M86.58,107.51l0,0,0,0h0v0l0,0Zm0,.07h0v0h0l0,0Zm0-.12h0v0l0,0h0Zm0,.09v0l0,0h0l0,0h0v0Zm-.06-.08,0,0h0l0,0Zm0,0v0h0v0Zm16.81-5.19c3.85-4.36-.24-9.24-7-5.42,3.25-7-2-10.69-6-6.47-1.84-5.53-8.13-4.44-8.18,3.29-4.46-6.32-10.25-3.63-8.6,2-5.71-1.18-7.91,4.81-1.24,8.73-7.71.7-8.27,7.05-2.6,8.42-3.87,4.35.21,9.25,6.93,5.45-3.25,7,2,10.68,6,6.46,1.84,5.53,8.12,4.44,8.18-3.29,4.45,6.32,10.24,3.63,8.59-2,5.72,1.19,7.91-4.81,1.24-8.73,7.71-.69,8.28-7.07,2.62-8.43" transform="translate(0 0)"/><path id="path4900" class="cls-14" d="M86.49,107.52c-18.07,13.13,1.36,22.29,0,0" transform="translate(0 0)"/><path id="path4902" class="cls-14" d="M86.51,107.52c2.34,22.21,20,10,0,0" transform="translate(0 0)"/><path id="path4904" class="cls-14" d="M86.47,107.5c-20.4-9.09-18.62,12.33,0,0" transform="translate(0 0)"/><path id="path4906" class="cls-14" d="M87.22,107l-.71.48-.08-.85.06.85-.79-.35.77.38h0l-.69.5.71-.48.09.85-.07-.85h0l.79.36-.78-.38h0l.7-.5" transform="translate(0 0)"/><path id="path4908" class="cls-14" d="M86.53,107.49c20.4,9.09,18.63-12.33,0,0" transform="translate(0 0)"/><path id="path4910" class="cls-14" d="M86.49,107.47c-2.34-22.21-20-10,0,0" transform="translate(0 0)"/><path id="path4912" class="cls-14" d="M86.51,107.47c18.07-13.13-1.36-22.3,0,0" transform="translate(0 0)"/><path id="path4914" class="cls-15" d="M86.49,107.51c-12.69,9.22,1,15.66,0,0" transform="translate(0 0)"/><path id="path4916" class="cls-15" d="M86.51,107.51c1.65,15.61,14,7,0,0" transform="translate(0 0)"/><path id="path4918" class="cls-15" d="M86.48,107.5c-14.33-6.38-13.08,8.65,0,0" transform="translate(0 0)"/><path id="path4920" class="cls-15" d="M87,107.14l-.5.34-.05-.6,0,.6-.55-.25.54.27h0l-.49.35.5-.34h0l.07.6,0-.6.56.25-.55-.27h0l.49-.35" transform="translate(0 0)"/><path id="path4922" class="cls-15" d="M86.52,107.49c14.33,6.38,13.08-8.65,0,0" transform="translate(0 0)"/><path id="path4924" class="cls-15" d="M86.49,107.48c-1.65-15.61-14-7,0,0" transform="translate(0 0)"/><path id="path4926" class="cls-15" d="M86.51,107.48c12.69-9.22-1-15.66,0,0" transform="translate(0 0)"/><path id="path4928" class="cls-16" d="M121.11,120.06l-.06,0h0l0,0h0l0,0,.07,0Zm-.07.09h0v-.06h0l0,0Zm0-.15h0v0h0l.07,0h0Zm0,.12v0l0,0h0l0,0h0v0Zm-.07-.1.06,0h0l0,0h0l0,0-.08,0Zm.07-.08V120h0l0,0v-.08Zm21.94-6.78c5-5.68-.31-12-9.08-7.07,4.24-9.17-2.57-14-7.83-8.44-2.39-7.23-10.59-5.8-10.67,4.3-5.81-8.26-13.37-4.75-11.22,2.55-7.45-1.54-10.32,6.29-1.61,11.4-10.06.91-10.8,9.21-3.4,11-5.06,5.68.27,12.07,9,7.1-4.24,9.14,2.59,13.94,7.83,8.43,2.4,7.23,10.61,5.8,10.68-4.3,5.82,8.26,13.37,4.75,11.22-2.56,7.46,1.54,10.33-6.27,1.61-11.39,10.06-.91,10.82-9.23,3.42-11" transform="translate(0 0)"/><path id="path4930" class="cls-17" d="M121,120.07c-23.6,17.14,1.77,29.11,0,0" transform="translate(0 0)"/><path id="path4932" class="cls-17" d="M121,120.07c3.06,29,26.11,13,0,0" transform="translate(0 0)"/><path id="path4934" class="cls-17" d="M121,120c-26.65-11.86-24.33,16.1,0,0" transform="translate(0 0)"/><path id="path4936" class="cls-17" d="M122,119.38,121,120h0l-.11-1.12L121,120h0l-1-.46,1,.49h0l-.92.66.94-.63.11,1.12-.09-1.13h0l1,.47-1-.49h0l.91-.66" transform="translate(0 0)"/><path id="path4938" class="cls-17" d="M121,120c26.64,11.85,24.32-16.1,0,0" transform="translate(0 0)"/><path id="path4940" class="cls-17" d="M121,120c-3.06-29-26.1-13,0,0" transform="translate(0 0)"/><path id="path4942" class="cls-17" d="M121,120c23.59-17.15-1.78-29.11,0,0" transform="translate(0 0)"/><path id="path4944" class="cls-18" d="M121,120.06c-16.57,12,1.25,20.44,0,0" transform="translate(0 0)"/><path id="path4946" class="cls-18" d="M121,120.06c2.14,20.37,18.32,9.13,0,0" transform="translate(0 0)"/><path id="path4948" class="cls-18" d="M121,120c-18.71-8.33-17.08,11.3,0,0" transform="translate(0 0)"/><path id="path4950" class="cls-18" d="M121.67,119.58,121,120l-.07-.78.06.78h0l-.73-.32.72.34-.65.46.66-.44.07.79,0-.79.72.32L121,120h0l.64-.46" transform="translate(0 0)"/><path id="path4952" class="cls-18" d="M121,120c18.71,8.32,17.07-11.31,0,0" transform="translate(0 0)"/><path id="path4954" class="cls-18" d="M121,120c-2.15-20.37-18.34-9.14,0,0" transform="translate(0 0)"/><path id="path4956" class="cls-18" d="M121,120c16.57-12-1.25-20.44,0,0" transform="translate(0 0)"/><path id="path4958" class="cls-19" d="M52,123.21l-.07,0h0l0,0h0l0,0,.06,0Zm-.08.09v-.08h0Zm0-.17h0v0l.07,0h0Zm0,.13v0l-.07,0h0l0,0h0v0Zm-.1-.11.07,0h0l0,0h0l0,0-.07,0Zm.09-.07v.07l0,0h0l0,0v-.07Zm23.65-7.31c5.42-6.12-.33-13-9.79-7.62C70.34,98.27,63,93.1,57.33,99c-2.58-7.79-11.44-6.25-11.51,4.64-6.27-8.9-14.41-5.12-12.1,2.76-8-1.66-11.12,6.77-1.74,12.28-10.85,1-11.64,9.92-3.66,11.85-5.45,6.13.29,13,9.76,7.66-4.57,9.86,2.78,15,8.44,9.09,2.59,7.79,11.43,6.25,11.51-4.63,6.27,8.89,14.41,5.11,12.1-2.76,8,1.66,11.13-6.77,1.74-12.28,10.84-1,11.65-10,3.68-11.88" transform="translate(0 0)"/><path id="path4960" class="cls-20" d="M51.91,123.21c-25.43,18.49,1.92,31.38,0,0" transform="translate(0 0)"/><path id="path4962" class="cls-20" d="M51.94,123.21c3.3,31.26,28.14,14,0,0" transform="translate(0 0)"/><path id="path4964" class="cls-20" d="M51.89,123.19c-28.73-12.78-26.22,17.35,0,0" transform="translate(0 0)"/><path id="path4966" class="cls-20" d="M52.94,122.48l-1,.67h0l-.11-1.21.09,1.21h0l-1.11-.5,1.1.53h0l-1,.7,1-.68h0l.12,1.21-.09-1.21h0l1.1.5L52,123.18l1-.71" transform="translate(0 0)"/><path id="path4968" class="cls-20" d="M52,123.18c28.72,12.77,26.21-17.36,0,0" transform="translate(0 0)"/><path id="path4970" class="cls-20" d="M51.91,123.15c-3.3-31.26-28.14-14,0,0" transform="translate(0 0)"/><path id="path4972" class="cls-20" d="M51.93,123.15c25.44-18.48-1.91-31.38,0,0" transform="translate(0 0)"/><path id="path4974" class="cls-21" d="M51.91,123.2c-17.85,13,1.35,22,0,0" transform="translate(0 0)"/><path id="path4976" class="cls-21" d="M51.93,123.2c2.32,22,19.77,9.85,0,0" transform="translate(0 0)"/><path id="path4978" class="cls-21" d="M51.91,123.18c-20.18-9-18.42,12.19,0,0" transform="translate(0 0)"/><path id="path4980" class="cls-21" d="M52.64,122.68l-.71.48h0l-.08-.85.06.85h0l-.77-.35.77.37h0l-.7.5.7-.48h0l.09.85-.07-.85h0l.78.35-.76-.37h0l.69-.5" transform="translate(0 0)"/><path id="path4982" class="cls-21" d="M52,123.18c20.17,9,18.41-12.19,0,0" transform="translate(0 0)"/><path id="path4984" class="cls-21" d="M51.91,123.16c-2.31-22-19.75-9.85,0,0" transform="translate(0 0)"/><path id="path4986" class="cls-21" d="M51.93,123.16c17.86-13-1.34-22,0,0" transform="translate(0 0)"/><path id="path4988" class="cls-13" d="M123.21,84.48h0l0,0h0Zm0,.08h0v-.06h0Zm0-.12h0v0l0,0h0l0,0Zm0,.09v0l0,0h0l0,0h0v0Zm0-.09,0,0h0l0,0Zm0,0v0h0v-.06Zm16.82-5.19c3.84-4.35-.24-9.23-7-5.41,3.25-7-2-10.7-6-6.47-1.84-5.54-8.13-4.45-8.18,3.29-4.46-6.33-10.25-3.63-8.6,2-5.71-1.18-7.91,4.81-1.24,8.73-7.71.69-8.27,7-2.6,8.42-3.87,4.36.21,9.25,6.93,5.44-3.24,7,2,10.68,6,6.46,1.83,5.54,8.12,4.44,8.18-3.29,4.45,6.32,10.24,3.63,8.59-2,5.72,1.18,7.91-4.81,1.24-8.73,7.71-.7,8.29-7.08,2.63-8.44" transform="translate(0 0)"/><path id="path4990" class="cls-14" d="M123.13,84.49c-18.08,13.14,1.36,22.3,0,0" transform="translate(0 0)"/><path id="path4992" class="cls-14" d="M123.14,84.48c2.35,22.22,20,10,0,0" transform="translate(0 0)"/><path id="path4994" class="cls-14" d="M123.11,84.47c-20.41-9.09-18.63,12.33,0,0" transform="translate(0 0)"/><path id="path4996" class="cls-14" d="M123.86,84l-.72.48h0l-.08-.85.06.85h0l-.78-.35.77.38-.7.5.72-.48h0l.08.85-.07-.86.79.36-.77-.38.7-.5" transform="translate(0 0)"/><path id="path4998" class="cls-14" d="M123.16,84.46c20.41,9.09,18.63-12.33,0,0" transform="translate(0 0)"/><path id="path5000" class="cls-14" d="M123.12,84.44c-2.34-22.21-20-10,0,0" transform="translate(0 0)"/><path id="path5002" class="cls-14" d="M123.14,84.44c18.08-13.13-1.36-22.29,0,0" transform="translate(0 0)"/><path id="path5004" class="cls-15" d="M123.13,84.48c-12.69,9.23,1,15.66,0,0" transform="translate(0 0)"/><path id="path5006" class="cls-15" d="M123.14,84.48c1.64,15.6,14,7,0,0" transform="translate(0 0)"/><path id="path5008" class="cls-15" d="M123.12,84.47c-14.33-6.38-13.08,8.65,0,0" transform="translate(0 0)"/><path id="path5010" class="cls-15" d="M123.64,84.11l-.5.34-.06-.6,0,.6-.56-.24.55.26h0l-.49.35.5-.34.06.6,0-.6h0l.56.25-.55-.27h0l.49-.35" transform="translate(0 0)"/><path id="path5012" class="cls-15" d="M123.15,84.46c14.33,6.39,13.08-8.65,0,0" transform="translate(0 0)"/><path id="path5014" class="cls-15" d="M123.13,84.45c-1.65-15.59-14-7,0,0" transform="translate(0 0)"/><path id="path5016" class="cls-15" d="M123.14,84.45c12.69-9.22-1-15.66,0,0" transform="translate(0 0)"/><path id="path5018" class="cls-22" d="M95,33.19l-.07,0h0l0,0h0l.06,0Zm-.08.09h0V33.2h0v0Zm0-.16h0v0l.07,0h0Zm0,.12v0l-.07,0h0l.06,0h0v0Zm-.09-.1.06,0h0l-.06,0Zm.08-.09v.07h0l0,0V33Zm23.66-7.3c5.41-6.13-.34-13-9.8-7.62,4.58-9.89-2.76-15-8.42-9.1-2.59-7.8-11.43-6.26-11.52,4.63-6.27-8.9-14.41-5.12-12.09,2.75-8-1.66-11.13,6.77-1.75,12.28-10.83,1-11.63,9.93-3.65,11.86-5.46,6.13.29,13,9.75,7.66-4.56,9.86,2.79,15,8.45,9.09,2.58,7.79,11.43,6.25,11.5-4.63,6.27,8.9,14.42,5.11,12.1-2.77,8,1.67,11.13-6.76,1.74-12.28,10.85-1,11.66-9.95,3.69-11.87" transform="translate(0 0)"/><path id="path5020" class="cls-23" d="M94.83,33.19c-25.44,18.48,1.92,31.38,0,0" transform="translate(0 0)"/><path id="path5022" class="cls-23" d="M94.86,33.19c3.29,31.27,28.14,14,0,0" transform="translate(0 0)"/><path id="path5024" class="cls-23" d="M94.81,33.17c-28.72-12.79-26.22,17.35,0,0" transform="translate(0 0)"/><path id="path5026" class="cls-23" d="M95.86,32.45l-1,.68h0l-.12-1.2.08,1.2h0l-1.1-.51,1.09.54h0l-1,.7,1-.69h0l.11,1.22-.08-1.22h0l1.11.5-1.1-.53,1-.7" transform="translate(0 0)"/><path id="path5028" class="cls-23" d="M94.87,33.16c28.73,12.78,26.22-17.35,0,0" transform="translate(0 0)"/><path id="path5030" class="cls-23" d="M94.82,33.13c-3.29-31.26-28.13-14,0,0" transform="translate(0 0)"/><path id="path5032" class="cls-23" d="M94.86,33.13c25.42-18.49-1.92-31.38,0,0" transform="translate(0 0)"/><path id="path5034" class="cls-24" d="M94.83,33.19c-17.86,13,1.35,22,0,0" transform="translate(0 0)"/><path id="path5036" class="cls-24" d="M94.86,33.18c2.31,22,19.75,9.85,0,0" transform="translate(0 0)"/><path id="path5038" class="cls-24" d="M94.82,33.17c-20.17-9-18.41,12.18,0,0" transform="translate(0 0)"/><path id="path5040" class="cls-24" d="M95.56,32.67l-.71.47-.08-.85.06.85-.78-.35.77.38h0l-.7.49.71-.48h0l.08.85,0-.85h0l.76.35-.75-.37h0l.69-.49" transform="translate(0 0)"/><path id="path5042" class="cls-24" d="M94.87,33.16c20.17,9,18.4-12.19,0,0" transform="translate(0 0)"/><path id="path5044" class="cls-24" d="M94.83,33.14c-2.32-22-19.76-9.85,0,0" transform="translate(0 0)"/><path id="path5046" class="cls-24" d="M94.85,33.14c17.86-13-1.35-22,0,0" transform="translate(0 0)"/><path id="path5048" class="cls-25" d="M132.34,42v-.06h0l0,.08Zm-.11,0v0l0,0h0v0h0v0Zm.11-.12h0l0,0h0l0,0,.09,0h-.09Zm-.12.06,0,0-.06,0h0l.07,0,0,0Zm0-.14,0,.06h0l0-.07Zm.11,0-.05.05h0v0h0v0l.06-.06ZM153,55.52c8.17.34,9.86-8.46-.27-12.4,10.54-2.69,9.9-11.65,1.72-12.28,4.41-6.93-2.37-12.81-10.86-6,2.94-10.49-5.14-14.42-9.77-7.65-3.8-7.27-12.28-4.34-10.63,6.41-7.61-7.79-15-2.75-11.5,4.65-8.2-.35-9.9,8.46.23,12.41C101.36,43.36,102,52.33,110.18,53c-4.41,6.92,2.37,12.81,10.86,6-2.94,10.49,5.14,14.4,9.77,7.63,3.79,7.28,12.29,4.36,10.63-6.41C149,68,156.52,62.92,153,55.52" transform="translate(0 0)"/><path id="path5050" class="cls-26" d="M132.27,41.9c-30.4-8-23.11,21.32,0,0" transform="translate(0 0)"/><path id="path5052" class="cls-26" d="M132.3,41.93c-22.16,22.3,6.89,30.68,0,0" transform="translate(0 0)"/><path id="path5054" class="cls-26" d="M132.28,41.87c-8.25-30.33-30-9.35,0,0" transform="translate(0 0)"/><path id="path5056" class="cls-26" d="M133.49,42.24l-1.16-.35.86-.85-.89.83-.3-1.18.28,1.18h0l-1.18-.31,1.17.34-.86.86.89-.83h0l.3,1.18-.28-1.19,1.17.32" transform="translate(0 0)"/><path id="path5058" class="cls-26" d="M132.32,41.92c8.25,30.35,30,9.36,0,0" transform="translate(0 0)"/><path id="path5060" class="cls-26" d="M132.3,41.87c22.16-22.31-6.9-30.67,0,0" transform="translate(0 0)"/><path id="path5062" class="cls-26" d="M132.33,41.89c30.39,8,23.11-21.31,0,0" transform="translate(0 0)"/><path id="path5064" class="cls-27" d="M132.28,41.9c-21.35-5.64-16.23,15,0,0" transform="translate(0 0)"/><path id="path5066" class="cls-27" d="M132.3,41.92c-15.57,15.66,4.84,21.53,0,0" transform="translate(0 0)"/><path id="path5068" class="cls-27" d="M132.29,41.88c-5.79-21.3-21.09-6.57,0,0" transform="translate(0 0)"/><path id="path5070" class="cls-27" d="M133.14,42.14l-.82-.25.61-.6-.63.58-.21-.82.2.83h0l-.83-.22.82.24h0l-.6.6.62-.58.21.82-.2-.82h0l.83.23" transform="translate(0 0)"/><path id="path5072" class="cls-27" d="M132.31,41.92c5.79,21.3,21.09,6.57,0,0" transform="translate(0 0)"/><path id="path5074" class="cls-27" d="M132.3,41.87c15.57-15.66-4.84-21.53,0,0" transform="translate(0 0)"/><path id="path5076" class="cls-27" d="M132.32,41.89c21.34,5.64,16.23-15,0,0" transform="translate(0 0)"/><path id="path5078" class="cls-28" d="M55.17,28l-.06,0,0,0h0l0,0,.07,0ZM55.1,28h0V28h0l0,0Zm0-.15h0v0l.07-.05v0l-.06,0Zm0,.12v0L55,28h0l0,0h0v0Zm-.09-.1.06,0h0l-.07,0Zm.08-.08v.07h0l0,0v-.07Zm22.77-7c5.22-5.9-.32-12.51-9.43-7.34C72.79,3.94,65.72-1,60.27,4.7c-2.48-7.5-11-6-11.08,4.46-6-8.57-13.88-4.93-11.64,2.65-7.75-1.6-10.72,6.52-1.68,11.83-10.44.94-11.21,9.55-3.53,11.41-5.25,5.9.28,12.53,9.4,7.36-4.4,9.5,2.68,14.48,8.12,8.75,2.49,7.51,11,6,11.09-4.45,6,8.57,13.87,4.93,11.64-2.66,7.73,1.6,10.71-6.51,1.68-11.82,10.43-.94,11.21-9.58,3.54-11.43" transform="translate(0 0)"/><path id="path5080" class="cls-29" d="M55.05,28c-24.48,17.79,1.85,30.2,0,0" transform="translate(0 0)"/><path id="path5082" class="cls-29" d="M55.08,28c3.18,30.1,27.09,13.51,0,0" transform="translate(0 0)"/><path id="path5084" class="cls-29" d="M55,27.94c-27.66-12.31-25.24,16.69,0,0" transform="translate(0 0)"/><path id="path5086" class="cls-29" d="M56.05,27.25l-1,.66L55,26.74l.09,1.17L54,27.42l1.06.52h0l-1,.68,1-.66h0l.12,1.17L55.08,28h0l1.07.48-1-.5.95-.69" transform="translate(0 0)"/><path id="path5088" class="cls-29" d="M55.1,27.94c27.65,12.29,25.23-16.72,0,0" transform="translate(0 0)"/><path id="path5090" class="cls-29" d="M55.05,27.91c-3.17-30.1-27.09-13.51,0,0" transform="translate(0 0)"/><path id="path5092" class="cls-29" d="M55.08,27.91c24.48-17.81-1.85-30.22,0,0" transform="translate(0 0)"/><path id="path5094" class="cls-30" d="M55.05,28c-17.19,12.5,1.3,21.21,0,0" transform="translate(0 0)"/><path id="path5096" class="cls-30" d="M55.08,28c2.23,21.14,19,9.49,0,0" transform="translate(0 0)"/><path id="path5098" class="cls-30" d="M55.05,27.94c-19.43-8.65-17.73,11.72,0,0" transform="translate(0 0)"/><path id="path5100" class="cls-30" d="M55.76,27.45l-.69.46h0L55,27.1l0,.81h0l-.75-.34.75.37-.67.48.67-.47h0l.09.82L55.07,28h0l.74.34-.74-.35h0l.68-.49" transform="translate(0 0)"/><path id="path5102" class="cls-30" d="M55.08,27.94c19.43,8.62,17.73-11.74,0,0" transform="translate(0 0)"/><path id="path5104" class="cls-30" d="M55.05,27.91c-2.23-21.13-19-9.48,0,0" transform="translate(0 0)"/><path id="path5106" class="cls-30" d="M55.07,27.91c17.19-12.49-1.29-21.22,0,0" transform="translate(0 0)"/><path id="path5108" class="cls-6" d="M92.46,81l-1-2.54c.18-.07,19.2-7.69,20.16-19.59l2.72.22c-1.1,13.6-21,21.58-21.89,21.91" transform="translate(0 0)"/><path id="path5110" class="cls-6" d="M78.77,60.75,76,60.67c0-.11.21-11-7.6-14.79l1.18-2.45C79,48,78.79,60.23,78.77,60.75" transform="translate(0 0)"/><path id="path5112" class="cls-6" d="M81.31,74.05l-1.53-2.26c.09-.06,9.23-6.38,9.87-14.33l2.71.22c-.74,9.27-10.63,16.08-11,16.37" transform="translate(0 0)"/><path id="path5114" class="cls-6" d="M104.08,70.72c-2.44-5.13-13.49-3-17.55-1.74l-.81-2.6c.69-.21,16.88-5.14,20.83,3.16l-2.47,1.18" transform="translate(0 0)"/><path id="path5116" class="cls-6" d="M81.56,146.28,80,144.05c4.66-3.27.7-13.81-1.21-17.6l2.43-1.23c.33.64,7.88,15.79.35,21.06" transform="translate(0 0)"/><path id="path5118" class="cls-13" d="M88.67,152h0l0,0,.05,0Zm0,.06h0V152h0v0l0,0Zm0-.11h0v0h0v0l0,0h0l0,0Zm0,.08h0l0,0h0l0,0Zm-.07-.07,0,0h0l0,0Zm.06-.05v0h0v0Zm16.81-5.2c3.84-4.36-.24-9.23-7-5.42,3.24-7-2-10.69-6-6.47-1.84-5.52-8.12-4.43-8.18,3.3-4.46-6.32-10.24-3.64-8.6,2-5.71-1.18-7.91,4.81-1.24,8.72-7.7.71-8.27,7.06-2.6,8.43-3.87,4.35.21,9.25,6.93,5.44-3.24,7,2,10.69,6,6.46,1.83,5.53,8.12,4.45,8.18-3.29,4.45,6.32,10.24,3.64,8.6-2,5.71,1.18,7.91-4.81,1.24-8.72,7.7-.71,8.28-7.08,2.62-8.45" transform="translate(0 0)"/><path id="path5120" class="cls-14" d="M88.59,152c-18.08,13.14,1.36,22.3,0,0" transform="translate(0 0)"/><path id="path5122" class="cls-14" d="M88.61,152c2.34,22.22,20,10,0,0" transform="translate(0 0)"/><path id="path5124" class="cls-14" d="M88.57,152c-20.41-9.08-18.63,12.33,0,0" transform="translate(0 0)"/><path id="path5126" class="cls-14" d="M89.32,151.48l-.72.48h0l-.08-.86.07.86h0l-.78-.36.78.38h0l-.71.5.72-.48.08.86-.06-.86.78.36-.77-.38.7-.5" transform="translate(0 0)"/><path id="path5128" class="cls-14" d="M88.62,152c20.41,9.08,18.63-12.33,0,0" transform="translate(0 0)"/><path id="path5130" class="cls-14" d="M88.58,152c-2.34-22.22-20-10,0,0" transform="translate(0 0)"/><path id="path5132" class="cls-14" d="M88.6,152c18.08-13.14-1.36-22.3,0,0" transform="translate(0 0)"/><path id="path5134" class="cls-15" d="M88.59,152c-12.69,9.22,1,15.65,0,0" transform="translate(0 0)"/><path id="path5136" class="cls-15" d="M88.6,152c1.65,15.6,14.05,7,0,0" transform="translate(0 0)"/><path id="path5138" class="cls-15" d="M88.58,152c-14.33-6.37-13.08,8.66,0,0" transform="translate(0 0)"/><path id="path5140" class="cls-15" d="M89.1,151.63l-.5.33h0l-.06-.6,0,.6-.56-.24.55.26h0l-.5.35.51-.33h0l.06.6L88.6,152l.56.26-.55-.27.49-.35" transform="translate(0 0)"/><path id="path5142" class="cls-15" d="M88.61,152c14.33,6.37,13.08-8.66,0,0" transform="translate(0 0)"/><path id="path5144" class="cls-15" d="M88.59,152c-1.65-15.6-14-7,0,0" transform="translate(0 0)"/><path id="path5146" class="cls-15" d="M88.6,152c12.69-9.23-1-15.65,0,0" transform="translate(0 0)"/></svg>