<svg id="svg27666" xmlns="http://www.w3.org/2000/svg" viewBox="0 0 184.91 220.17"><defs><style>.cls-1{fill:#7a4122;}.cls-2{fill:#b59a63;}.cls-3{fill:#261512;}.cls-4{fill:#564924;}.cls-5{fill:#282718;}.cls-6{fill:#72886a;}.cls-7{fill:#72c32d;}.cls-8{fill:#acdd6a;}.cls-9{fill:#62a331;}.cls-10{fill:#55792a;}.cls-11{fill:#6baf2f;}</style></defs><title>plant3</title><path id="path12468" class="cls-1" d="M2.88,125.1a74.74,74.74,0,1,1,74.74,74.74A74.73,74.73,0,0,1,2.88,125.1" transform="translate(0 -12.34)"/><path id="path12470" class="cls-2" d="M12.37,125.1a65.25,65.25,0,1,1,65.25,65.24A65.25,65.25,0,0,1,12.37,125.1" transform="translate(0 -12.34)"/><path id="path12472" class="cls-3" d="M15.94,125.1a61.68,61.68,0,1,1,61.68,61.67A61.67,61.67,0,0,1,15.94,125.1" transform="translate(0 -12.34)"/><path id="path21404" class="cls-4" d="M142.59,160.24h0" transform="translate(0 -12.34)"/><path id="path21406" class="cls-5" d="M135.3,145h0" transform="translate(0 -12.34)"/><path id="path21408" class="cls-5" d="M72.35,71.55h0M62,68.12h0" transform="translate(0 -12.34)"/><path id="path21410" class="cls-6" d="M148.79,52.3h0m3-5.16,0-.09s0,0,0,.09m-49.61-1.63h0m82.69-.06c0-.16,0-.31.07-.46a3.4,3.4,0,0,0-.07.46m-81.19-6.76h0M57.5,37.88l-.69-.24.49,0,.21.21h0m45.29-.8-.09,0h0l.09,0M98.66,29h0m26.52-16.32-.23-.34c.09.12.16.23.23.34" transform="translate(0 -12.34)"/><path id="path21412" class="cls-7" d="M79.9,122.56l-.47,4.26,1.06.12s3.23,1.46,8.45,4.13c10.93,15.31,5.6,41.27,5.6,41.27,7.28-19.49,4.25-31.85,1.91-37.32l1.49.81c8.17,15.55.21,56,.21,56,11.55-30,8.9-45.37,5.87-52.55l2.25,1.31c2.24,5.6,5.07,18.11,2.77,43.72,0,0,10.6-24.49,2.63-40.49l2.64,1.64c3,6,6.31,18.69,2.55,43.75,0,0,8.06-25,2.44-40.55l.3.19c3.22,6.51,10.82,26.16,1.59,52.44l1.15-.69s12-24.79,3.89-47.25l.24.18c11.19,27.55-2,54.85-2,54.85a58.09,58.09,0,0,0,7.39-51q2.1,1.58,4.17,3.21c5.17,16.39-2.95,40.62-2.95,40.62,9.41-14.15,9.45-26.38,8.32-33.26a60.41,60.41,0,0,1,2,37.62c8.78-18.32,4.14-32,1.09-37.85.92.83,1.81,1.66,2.69,2.5,8.72,22.44,2.3,56,2.3,56,9-19.67,4.26-42.18,1.25-52.43,1.62,1.69,3.16,3.38,4.62,5.12,2.25,7.53,6.32,24.67,2.69,40.77,1.94-7.92,4.74-24-.08-37.51a58.68,58.68,0,0,1,7.35,12.39c-5.71-14.39-25.72-51.42-85.37-72" transform="translate(0 -12.34)"/><path id="path21414" class="cls-7" d="M131.86,112.47C144.08,117,152.42,124.78,158,130a73.74,73.74,0,0,0-6-4.49c9.44,10.24,15.08,22.3,17.63,27.85-5.23-11.12-15.66-24-20.82-29.86q-2.6-1.54-5.37-2.88c7.14,8.15,20.49,24.78,24.25,40.52-.08.68-11.36-24.87-28.25-42.26-1-.39-2-.76-3-1.08,5,3.84,14.58,14,18.08,31.69a77.28,77.28,0,0,0-19.85-30.17c4.29,5.49,10.34,15.76,11.72,31.63,0,.17-7-23.71-18.87-35.36q-2.13-.33-4.26-.48c5.4,4.62,19.51,20.53,21.68,46.09-.08.36-5.48-29.47-27-46.19h-.24c16.85,13.92,22.13,41.31,22.16,41.06l-.32,1.2c-7.72-26.64-22.84-39.18-28.11-41.56l-.27,0c11.55,8.34,19.86,34.24,19.82,34-10.73-22.93-19.54-30.89-24.32-32.95l-2.3.74c12.81,5.83,19.72,33,19.64,32.74-12-22.26-20.25-29-24.17-30.87l-1.82.92c5,2,14.67,11.38,23.82,42.46.2.09-17-37.89-28.51-39.59l-1.09.78c3.59.89,11.4,6.61,17.54,25.86-.53-1.25-11.51-23.68-22.73-21.44A51,51,0,0,0,82,134.23l-.45.94-1.35-1.9c14.94-26.42,36.54-26.31,51.67-20.8" transform="translate(0 -12.34)"/><path id="path21416" class="cls-7" d="M82.53,108.51l-3.32,2.71.68.83s1.28,3.31,3.15,8.86c-2.91,18.58-24.89,33.39-24.89,33.39C77,145.49,83.47,134.53,85.63,129l.5,1.62c-5,16.83-39,40.1-39,40.1,29.24-13.33,38.12-26.16,41-33.41.23.83.46,1.67.68,2.52-2.31,5.56-9.06,16.47-28.62,33.16,0,0,24.71-10.08,30.22-27.09.25,1,.5,2,.75,3-2.05,6.44-8.59,17.77-28.82,33,0,0,23.29-12.23,30.14-27.26l.07.35c-2.26,6.9-10.57,26.25-35.56,38.56l1.29.33s25.89-9.34,35.86-31l.05.29C82.85,190.71,54.31,201,54.31,201a58.12,58.12,0,0,0,41-31.24c.27,1.74.51,3.48.73,5.22-7.78,15.32-30.54,26.93-30.54,26.93,16.63-3.5,25.22-12.2,29.22-17.91a60.38,60.38,0,0,1-24.92,28.25c19.1-6.93,25.32-19.93,27.28-26.27.07,1.23.12,2.45.16,3.66-9.47,22.14-37.53,41.6-37.53,41.6,20.18-7.76,32.57-27.15,37.59-36.57q0,3.51-.28,6.88c-3.67,7-12.75,22.05-26.62,31,6.94-4.31,20.2-13.85,26.19-26.86a58.65,58.65,0,0,1-3.41,14c6-14.29,17.61-54.73-10.6-111.16" transform="translate(0 -12.34)"/><path id="path21418" class="cls-8" d="M137.5,148.79c5.55,11.79,6.07,23.18,6.45,30.8-.27-2.44-.64-4.92-1.17-7.43-.42,13.92-4.84,26.48-6.91,32.23,4.06-11.6,5.64-28.12,6-35.89-.52-1.95-1.12-3.9-1.82-5.83-.6,10.82-2.72,32-11,45.92-.53.43,9.29-25.72,9.41-50-.43-1-.87-1.9-1.35-2.83.87,6.23.58,20.22-9.29,35.29a76.84,76.84,0,0,0,7-35.44c-.78,6.92-3.64,18.48-13.76,30.8-.12.11,11.58-21.85,11.26-38.48-.86-1.14-1.76-2.25-2.7-3.31.63,7.08-.43,28.32-16.78,48.08-.3.21,16.71-24.88,13.07-51.85l-.17-.16c2.29,21.74-13.11,45-12.92,44.83l-1,.63c13.12-24.42,11.1-44,9-49.36l-.23-.16c2.41,14.05-9.77,38.36-9.66,38.19,8.39-23.89,7.68-35.75,5.69-40.57l-2.16-1.08c5.06,13.14-9,37.39-8.88,37.14,7-24.33,5.84-34.9,4.34-39l-2-.61c2.25,4.92,2.51,18.39-12.71,47,.09.21,14.36-39,7.37-48.23l-1.33-.21c1.93,3.15,3.51,12.71-5.58,30.75.5-1.27,8.34-25-1.22-31.22a51.14,51.14,0,0,0-7.75.57l-1,.36.36-2.31c29.17-8.4,44.52,6.79,51.46,21.32" transform="translate(0 -12.34)"/><path id="path21420" class="cls-9" d="M10.32,112.82A31,31,0,0,1,14,111.68c-1.73.46-3,.88-3.69,1.14" transform="translate(0 -12.34)"/><path id="path21422" class="cls-9" d="M10.32,112.82l-.71.27.71-.27" transform="translate(0 -12.34)"/><path id="path21424" class="cls-9" d="M93.9,130.85,91.58,133l-.53-.58s-2.28-1.28-6.13-3.21C71.08,129.41,58,143.89,58,143.89c8.36-12.81,17-16.4,21.27-17.41L78.17,126c-12.78,1.94-33.24,24.3-33.24,24.3,12.73-19.93,23-25.07,28.56-26.41l-1.75-.76c-4.3,1.11-12.94,4.9-27.1,17.43,0,0,9.88-17,22.83-19.22l-2.12-.85c-4.9.82-13.83,4.42-27,17.59,0,0,11.31-15.71,23-19.16l-.24-.08c-5.26.93-20.21,5-31.75,21.93l-.1-1s9.46-17.89,26.28-22.92l-.2-.07c-21.2,5.4-31.61,25.14-31.61,25.14a42.72,42.72,0,0,1,27-26.61c-1.23-.38-2.47-.73-3.72-1.07-12,4.09-22.77,19.47-22.77,19.47,4.28-11.75,11.5-17.12,16.07-19.45A44.49,44.49,0,0,0,17,129.49c7-13.2,17.12-16.4,22-17.18l-2.65-.5c-17.1,4.64-34.17,23.07-34.17,23.07C9.9,121,25.3,114,32.68,111.26c-1.7-.23-3.38-.4-5-.5-5.45,1.95-17.38,7-25.32,16.19,3.84-4.6,12.16-13.28,22.24-16.31a42.7,42.7,0,0,0-10.55,1c11-2.89,41.69-7.2,79.89,19.17" transform="translate(0 -12.34)"/><path id="path21426" class="cls-9" d="M2.32,127c-1.13,1.36-1.88,2.36-2.18,2.76.68-1,1.41-1.87,2.18-2.76" transform="translate(0 -12.34)"/><path id="path21428" class="cls-9" d="M.14,129.71,0,129.9l.14-.19" transform="translate(0 -12.34)"/><path id="path21430" class="cls-10" d="M110.16,45.52c.2,1.34.32,2.73.39,4.14-.14-1.91-.28-3.33-.39-4.14" transform="translate(0 -12.34)"/><path id="path21432" class="cls-10" d="M110.16,45.52l-.13-.78.13.78" transform="translate(0 -12.34)"/><path id="path21434" class="cls-8" d="M87.08,127.76l-2-2.46.75-.59s1.83-2.5,5.37-7.21C98.78,98.71,76.44,91,76.54,91c18.73,4.51,21.14,13.82,19.78,19.63l1-1.39C102.88,91.52,63.46,82.92,66,81.06c12.33,5,23.6,7.25,29.09,11,5.92,3.44,6.06,8.38,6.12,11.51l1.35-2C103.44,96,99,88,76.83,80.6c-1.45,1.05,28.59,2.11,28.67,16.16l1.25-2.26c.75-5.84-6.64-11.84-28.81-18.78-1.49,1.07,26.78,3.79,30.79,14.7l.11-.24c-.57-2.47-2.35-7-8.91-10.37-6.16-3.67-17.1-6.22-26.51-11.57l1-.07a75.68,75.68,0,0,0,12.92,4.69c7.84,2.62,19.21,5.17,23.26,12.25l0-.18c-4.93-8.68-18.06-11.67-25.93-15.4a34,34,0,0,1-11.88-7.17c8,4.71,18.48,7.18,25.59,10.28,7.4,2.89,11.39,6.42,13,8.44.13-1,.22-2,.25-2.9-9.31-7.9-32-13.87-30.41-15,14,3.19,24.34,6.82,28.28,10.15C99.09,63.37,86.66,55.83,87.17,55.46c14.66,6.45,22.21,13.15,24.35,16.8l-.19-2C106.25,64,97.67,57.48,93.5,50.34,88.84,43.55,88.56,36.08,88.75,36c5.65,14.14,17.89,25.5,22.3,31.47-.12-1.35-.23-2.75-.3-4.2-3.21-4.41-8.82-15.7-15.61-25.55,3.29,4.89,11.74,13.52,15.51,22.78-.09-3.44,0-7.17-.1-10.79,1.2,2.32.15,7.5,1,12,.57,4.69,3.09,8.64,4,13.87s.18,11.71-5.22,21.07c-5,9.1-14.71,21.07-23.27,31.2" transform="translate(0 -12.34)"/><path id="path21436" class="cls-10" d="M95.14,37.67a26.54,26.54,0,0,1-1.75-3c.53,1,1.14,2,1.75,3" transform="translate(0 -12.34)"/><path id="path21438" class="cls-10" d="M93.39,34.7l-.11-.2.11.2" transform="translate(0 -12.34)"/><path id="path21440" class="cls-7" d="M55.05,114,55,114l.06,0" transform="translate(0 -12.34)"/><path id="path21442" class="cls-7" d="M72.08,74.12C61.17,67,50,64.87,42.48,63.43a74.56,74.56,0,0,1,7.2,2.19C35.83,64.09,22.78,66.71,16.79,68c12.06-2.39,28.63-1.64,36.39-1,1.86.79,3.7,1.66,5.51,2.63-10.8-.92-32.11-1.8-47,4.5-.5.47,26.76-5.6,50.79-2.32.88.56,1.76,1.13,2.61,1.72-6-1.73-19.94-3.4-36.24,4.26A77,77,0,0,1,64.9,75.87c-7-.21-18.81,1-32.43,9.31-.12.11,23.26-8.42,39.68-5.77q1.53,1.52,2.91,3.14C68.15,80.93,47,79,25.1,92.43c-.25.28,27-13.05,53.17-5.68l.14.2C57.2,81.63,32,93.63,32.2,93.46l-.77,1c26-9.59,45.09-4.84,50.14-2l.12.25C68.13,88.29,42.35,97,42.53,96.87c24.83-5,36.47-2.59,41,0l.77,2.3c-12.3-6.87-38.29,3.7-38,3.59,25.06-3.49,35.37-.9,39.19,1.16l.34,2c-4.56-2.92-17.87-5.06-48.31,6-.2-.1,40.6-8.75,48.78-.54l0,1.35c-2.84-2.36-12.08-5.25-31.22,1.22,1.32-.32,25.89-4.77,30.74,5.57a47.91,47.91,0,0,1-1.66,7.6l-.48.92,2.34,0c12.4-27.69-.49-45-13.91-53.93" transform="translate(0 -12.34)"/><path id="path21444" class="cls-7" d="M16.79,68c-.89.18-1.76.4-2.63.63.64-.16,1.53-.38,2.63-.63" transform="translate(0 -12.34)"/><path id="path21446" class="cls-7" d="M14.16,68.58l-.86.23.86-.23" transform="translate(0 -12.34)"/><path id="path21448" class="cls-7" d="M13.3,68.81l-.23.07.23-.07" transform="translate(0 -12.34)"/><path id="path21450" class="cls-9" d="M39.66,52.84a30.38,30.38,0,0,1,3.44,1.78c-1.57-.89-2.75-1.46-3.44-1.78" transform="translate(0 -12.34)"/><path id="path21452" class="cls-9" d="M39.66,52.84l-.69-.3.69.3" transform="translate(0 -12.34)"/><path id="path21454" class="cls-9" d="M86.74,124.23l-3.16-.11,0-.78s-.74-2.5-2.14-6.58c-10-9.54-29.49-8.33-29.49-8.33,14.94-3.3,23.64.19,27.38,2.45l-.43-1.17c-10.49-7.55-40.75-5.91-40.75-5.91,23-5.32,34-1.81,38.89,1.13l-.73-1.77C72.5,101,63.67,97.6,44.79,96.64c0,0,18.93-5.19,29.76,2.25l-.92-2.09C69.55,94,60.66,90.28,42,90.45c0,0,19.07-3.31,29.79,2.39l-.11-.23c-4.42-3-17.94-10.58-38-6.57l.61-.77s19.3-6.15,34.82,2L69,87.11c-18.93-11-40.17-4.18-40.17-4.18a42.73,42.73,0,0,1,37.88-.13c-.62-1.13-1.26-2.25-1.92-3.37-11.4-5.44-29.88-2-29.88-2C46.19,72,55.11,73.23,60,74.76a44.47,44.47,0,0,0-27.2-5.31c14.25-4.51,23.7.28,27.69,3.1l-1.55-2.21c-15.45-8.66-40.53-7.45-40.53-7.45,15.24-4.52,31.16,1.24,38.31,4.49q-1.57-2-3.25-3.89c-5.25-2.41-17.32-7.14-29.42-6.16,6-.59,18-1,27.31,3.93a42.68,42.68,0,0,0-8.26-6.64c9.89,5.65,34.8,24,43.64,69.61" transform="translate(0 -12.34)"/><path id="path21456" class="cls-9" d="M24.05,57.33c-1.75.18-3,.37-3.49.46a32.07,32.07,0,0,1,3.49-.46" transform="translate(0 -12.34)"/><path id="path21458" class="cls-9" d="M20.56,57.79l-.23,0,.23,0" transform="translate(0 -12.34)"/><path id="path21460" class="cls-7" d="M70.78,85l-.06,0,.06,0" transform="translate(0 -12.34)"/><path id="path21462" class="cls-7" d="M110.86,68.43c-2.79-12.74-9.31-22.07-13.66-28.34,1.27,2.08,2.49,4.27,3.61,6.59-8.82-10.78-20-18-25.12-21.35C86,32.07,97.29,44.2,102.34,50.12c.78,1.86,1.49,3.77,2.11,5.72-7.07-8.21-21.68-23.76-36.73-29.69-.69,0,23,14.74,37.89,33.9.25,1,.47,2,.66,3.06-3.1-5.47-11.86-16.39-28.85-22.33a77.16,77.16,0,0,1,27.09,23.88c-4.83-5-14.15-12.45-29.68-16-.16,0,22.49,10.27,32.37,23.65,0,1.44,0,2.87-.11,4.27-3.82-6-17.6-22.18-42.6-27.9-.37,0,28.4,9.56,42,33.16l0,.23C95,63.38,68.59,54.33,68.84,54.33l-1.22.15c25.29,11.37,35.59,28.1,37.21,33.65l-.08.26C98.11,75.78,73.64,63.94,73.82,64,95,77.84,101.69,87.68,103.06,92.7L102,94.87c-4-13.49-29.95-24.14-29.67-24C92.68,85.89,98.22,95,99.51,99.1l-1.16,1.67c-1.22-5.28-9.23-16.12-38.71-29.53C59.58,71,94.77,93.41,94.86,105l-.93,1c-.39-3.68-5-12.22-23.15-21,1.16.69,21.83,14.71,18.06,25.5a51.45,51.45,0,0,1-6.51,4.26l-1,.32L83,116.69c28.25-11.1,31.16-32.5,27.82-48.26" transform="translate(0 -12.34)"/><path id="path21464" class="cls-7" d="M75.69,25.33l-2.32-1.39c.56.32,1.36.8,2.32,1.39" transform="translate(0 -12.34)"/><path id="path21466" class="cls-7" d="M73.37,23.94l-.78-.44.78.44" transform="translate(0 -12.34)"/><path id="path21468" class="cls-7" d="M72.59,23.5l-.2-.11.2.11" transform="translate(0 -12.34)"/><path id="path21470" class="cls-11" d="M84.65,128.6A243,243,0,0,1,118,131.76c4.17,3.49,15.31,14.65,16.93,35.45l.59-.82s.69-20.59-11.62-33.54l.23,0c16,15.49,15.18,38.19,15.18,38.19A43.45,43.45,0,0,0,129,133.94c1.29.3,2.56.6,3.83.94,8.49,9.66,10.25,28.71,10.25,28.71,2.17-12.53-1.49-20.93-4.35-25.29a45.23,45.23,0,0,1,12.72,25.17c.48-15.21-6.81-23.14-10.68-26.26.87.29,1.73.6,2.59.9,12.75,12.74,18.49,37.65,18.49,37.65.22-16.19-9.82-30.18-15-36.3,1.62.67,3.18,1.38,4.7,2.11,3.83,4.49,11.81,15,14.17,27.18-1.05-6-4-17.91-11.37-25.71q2.18,1.22,4.14,2.56c2.82,3.89,9.5,14.06,9.37,22.58a27,27,0,0,0-6.8-20.68l2,1.79c-.77-.76-1.67-1.6-2.73-2.52a29.43,29.43,0,0,0-3.11-2.8l.49.64c-11.56-9.1-35.42-22.13-74.87-18.84l1,3.07.77-.24" transform="translate(0 -12.34)"/><path id="path21472" class="cls-11" d="M85.37,135.29a242,242,0,0,1,26.07-21.11c5.42-.44,21.18-.26,36.89,13.46l-.16-1s-13.9-15.2-31.76-15.83l.19-.13c22.26-.12,37.58,16.65,37.58,16.65A43.55,43.55,0,0,0,120.79,108c1.12-.67,2.25-1.35,3.39-2,12.83,1,27.42,13.33,27.42,13.33-7.22-10.47-15.71-13.9-20.8-15a45.25,45.25,0,0,1,26.7,9.08c-10.3-11.2-21.07-11.76-26-11.28L134,101c18,.17,39.56,14,39.56,14-11.18-11.72-28.15-14.68-36.11-15.44,1.62-.66,3.23-1.26,4.84-1.78,5.87.52,19,2.46,29.15,9.48-4.95-3.53-15.4-10-26.13-10.4,1.6-.43,3.18-.79,4.75-1.07,4.73.81,16.62,3.39,22.49,9.57a27,27,0,0,0-19.33-10c.92-.09,1.82-.14,2.72-.16-1.08,0-2.32,0-3.72.12a28.54,28.54,0,0,0-4.18.17l.79.11c-14.61,1.59-40.78,9-66.64,39L85,136l.38-.7" transform="translate(0 -12.34)"/><path id="path21474" class="cls-10" d="M160.32,86.44a38.45,38.45,0,0,1-2.61,3.23c1.24-1.46,2.14-2.58,2.61-3.23" transform="translate(0 -12.34)"/><path id="path21476" class="cls-10" d="M160.32,86.44l.47-.65-.47.65" transform="translate(0 -12.34)"/><path id="path21478" class="cls-8" d="M86.28,129c.11-1,.21-2.09.29-3.14l1,.1s3-.5,8.88-1.39c18.56-8.12,8-29.24,8.11-29.23,10.21,16.33,5.42,24.67.38,27.88l1.68-.29c16.35-8.74-5.78-42.48-2.64-42,5.3,12.18,11.77,21.69,13.06,28.21,1.81,6.61-1.54,10.23-3.68,12.51l2.39-.52c4.52-3.38,6.9-12.21-3.74-33-1.77-.27,18.94,21.51,9.17,31.61.83-.24,1.65-.48,2.46-.74,4.63-3.65,3.56-13.12-7.42-33.58-1.81-.28,16.47,21.44,11.7,32l.24-.09c1.33-2.16,3.21-6.63.9-13.64-1.83-6.93-7.86-16.42-10.84-26.81l.8.67A75,75,0,0,0,124.92,90c3.77,7.34,10.1,17.13,8,25l.16-.1c2.55-9.64-4.74-21-7.74-29.14a34.07,34.07,0,0,1-3.47-13.43c2.38,8.93,8.17,18.06,11.08,25.24,3.26,7.25,3.65,12.57,3.38,15.14l2.22-1.89c-1.12-12.16-13.16-32.33-11.2-32,7.75,12.06,12.6,21.91,13.09,27.05-.56-14.44-4.15-28.54-3.53-28.44,6,14.87,6.66,24.94,5.63,29.05l1.26-1.57c.79-8.06-.81-18.68,1.21-26.71,1.43-8.12,6.46-13.63,6.69-13.6-5.86,14-5.08,30.74-6.1,38.08.86-1.06,1.76-2.12,2.72-3.21.79-5.39,4.69-17.38,6.73-29.17-1.06,5.8-1.07,17.87-4.87,27.13,2.35-2.53,5.06-5.1,7.49-7.78-.76,2.5-5.15,5.46-7.63,9.28-2.87,3.74-3.84,8.33-6.87,12.69s-8.07,8.47-18.47,11.38c-10,3-25.26,4.75-38.46,6" transform="translate(0 -12.34)"/><path id="path21480" class="cls-10" d="M155.09,70.32a27.66,27.66,0,0,1,.83-3.35c-.33,1.11-.59,2.22-.83,3.35" transform="translate(0 -12.34)"/><path id="path21482" class="cls-10" d="M155.92,67l.06-.22-.06.22" transform="translate(0 -12.34)"/></svg>