<svg id="svg25363" xmlns="http://www.w3.org/2000/svg" viewBox="0 0 215.95 175.09" width="215.95px" height="175.09px"><defs><style>.cls-1{fill:#7a4122;}.cls-2{fill:#b59a63;}.cls-3{fill:#261512;}.cls-4{fill:#6c6940;}.cls-5{fill:#677461;}.cls-6{fill:#3d6428;}.cls-7{fill:#61992f;}.cls-8{fill:#7ec229;}.cls-9{fill:#1d1410;}.cls-10{fill:#181311;}.cls-11{fill:#2c421c;}.cls-12{fill:#3f6628;}.cls-13{fill:#4e842f;}</style></defs><title>plant1</title><path id="path12222" class="cls-1" d="M179.37,106.1a69,69,0,1,1-69-69,69,69,0,0,1,69,69" transform="translate(0 0)"></path><path id="path12224" class="cls-2" d="M170.61,106.1a60.23,60.23,0,1,1-60.23-60.23,60.22,60.22,0,0,1,60.23,60.23" transform="translate(0 0)"></path><path id="path12226" class="cls-3" d="M167.31,106.1a56.93,56.93,0,1,1-56.93-56.93,56.93,56.93,0,0,1,56.93,56.93" transform="translate(0 0)"></path><path id="path12238" class="cls-4" d="M55.3,130.49A59.72,59.72,0,0,1,51,116.4a6,6,0,0,1,1.86-.32H53a7.6,7.6,0,0,1,1.27-.29,57,57,0,0,0,3.34,11.71c-.64.91-1.42,1.9-2.31,3" transform="translate(0 0)"></path><path id="path12246" class="cls-5" d="M46.71,79.48c-1.59-7.32-.88-12.9,4.79-12.9a11.61,11.61,0,0,1,2.16.23,69.46,69.46,0,0,0-6.95,12.67" transform="translate(0 0)"></path><path id="path12254" class="cls-6" d="M39.28,99.15c-1.81,2.49-4,2.68-9.17,1.74C16.77,98.47-9.61,90.07,6.47,78.13,18.76,69,31.42,86,38.08,91.62c3.27,2.78,2.92,5.16,1.2,7.53" transform="translate(0 0)"></path><path id="path12256" class="cls-7" d="M35.6,93.05c-1,4-4.28,4.39-11.21,3.5C12.6,95-.14,91.38,0,80.62c.17-12.44,16.32-2.36,27.69,1.58,7.56,2.61,9,6.62,7.91,10.85" transform="translate(0 0)"></path><path id="path12258" class="cls-6" d="M19.13,87.65l-4.41,9.1,3.48,1,.93-10.08-4.41,9.1,3.48,1,.93-10.08" transform="translate(0 0)"></path><path id="path12260" class="cls-6" d="M14.52,84.84l5.85-6.66-2.71-1.63-3.14,8.29,5.85-6.66-2.71-1.63-3.14,8.29" transform="translate(0 0)"></path><path id="path12262" class="cls-6" d="M21.06,88.05l5.05-7.16L25,80.24l-4,7.81,5.05-7.16L25,80.24l-4,7.81" transform="translate(0 0)"></path><path id="path12264" class="cls-6" d="M22.78,88.65l6.75-5.57-.88-.92-5.87,6.49,6.75-5.57-.88-.92-5.87,6.49" transform="translate(0 0)"></path><path id="path12266" class="cls-6" d="M24,90,25.19,100l1.33-.25L24,90,25.19,100l1.33-.25L24,90" transform="translate(0 0)"></path><path id="path12268" class="cls-8" d="M12.39,84.12l40.13,20.73,1.53-3.27L12.39,84.12l40.13,20.73,1.53-3.27L12.39,84.12" transform="translate(0 0)"></path><path id="path12270" class="cls-6" d="M54.37,96c-2.12-4.43.09-8,6.69-14.44,13.38-13.1,32.39-27,33.88-8.73C96.11,87.07,77.68,92.2,66.49,98.16c-6.84,3.65-10.15,1.92-12.12-2.17" transform="translate(0 0)"></path><path id="path12272" class="cls-7" d="M54.57,97.3c-2.94-2.89-1.65-5.9,2.6-11.44,7.22-9.44,16.77-18.63,26-13.11C93.86,79.14,77,88.05,67.92,95.91c-6,5.22-10.25,4.45-13.35,1.39" transform="translate(0 0)"></path><path id="path12274" class="cls-6" d="M72.53,85.54l7,5.18.67-1.07-7.72-4.11,7,5.18.67-1.07-7.72-4.11" transform="translate(0 0)"></path><path id="path12276" class="cls-6" d="M74.21,84.29l7.06,5.18.67-1.06-7.73-4.12,7.06,5.18.67-1.06-7.73-4.12" transform="translate(0 0)"></path><path id="path12278" class="cls-6" d="M77.64,78.78l13.79,2.88.27-2-14.06-.87,13.79,2.88.27-2-14.06-.87" transform="translate(0 0)"></path><path id="path12280" class="cls-6" d="M77.08,80.11l0-10.4-2,.19,2,10.21,0-10.4-2,.19,2,10.21" transform="translate(0 0)"></path><path id="path12282" class="cls-6" d="M62.4,79.65l-.61.66,5.91,7.83Z" transform="translate(0 0)"></path><path id="path12284" class="cls-6" d="M66.66,75.68l-.78.66,3.54,10Z" transform="translate(0 0)"></path><path id="path12286" class="cls-8" d="M92.81,66.45,43.15,108.84l2.41,2.69L92.81,66.45,43.15,108.84l2.41,2.69L92.81,66.45" transform="translate(0 0)"></path><path id="path12288" class="cls-6" d="M56.78,118.06c4.59,1.49,5.6,5.45,5.73,14.5.23,18.36-2.78,41.24-16.74,29.95-10.9-8.82-2.06-25.36,1.29-37.33,2-7.32,5.5-8.5,9.72-7.12" transform="translate(0 0)"></path><path id="path12290" class="cls-7" d="M55.73,117.3c4-.12,5.29,2.82,6.35,9.59,1.81,11.51,1.86,24.49-8.3,27.31-11.75,3.25-6.69-14.71-6.1-26.48.39-7.83,3.77-10.28,8-10.42" transform="translate(0 0)"></path><path id="path12292" class="cls-6" d="M51.92,138l-8.45,1.5.31,1.21L51.92,138l-8.45,1.5.31,1.21L51.92,138" transform="translate(0 0)"></path><path id="path12294" class="cls-6" d="M51.66,140l-8.45,1.49.31,1.21,8.14-2.7-8.45,1.49.31,1.21,8.14-2.7" transform="translate(0 0)"></path><path id="path12296" class="cls-6" d="M53.24,146.2,41.88,154l1.25,1.56,10.11-9.39L41.88,154l1.25,1.56,10.11-9.39" transform="translate(0 0)"></path><path id="path12298" class="cls-6" d="M52.69,144.91,60,152l1.23-1.58-8.58-5.48L60,152l1.23-1.58-8.58-5.48" transform="translate(0 0)"></path><path id="path12300" class="cls-6" d="M62.94,134.79l0-.87-9.55-1.11Z" transform="translate(0 0)"></path><path id="path12302" class="cls-6" d="M62.88,140.51l.07-1-9.5-4.25Z" transform="translate(0 0)"></path><path id="path12304" class="cls-8" d="M51.73,165.31l3.54-63.92-3.54-.09v64l3.54-63.92-3.54-.09v64" transform="translate(0 0)"></path><path id="path12306" class="cls-6" d="M47.13,109.15c2.42,3.88.74,7.39-4.72,14-11,13.48-27.22,28.29-30.46,11.54-2.54-13.07,14-19.69,23.75-26.36,6-4.08,9.2-2.82,11.43.77" transform="translate(0 0)"></path><path id="path12308" class="cls-7" d="M44.15,107.94c3,2.38,2.13,5.3-1.24,10.87-5.72,9.46-13.62,18.94-22.73,14.78-10.54-4.83,4.13-14.78,11.76-23,5.06-5.46,9-5.17,12.21-2.66" transform="translate(0 0)"></path><path id="path12310" class="cls-6" d="M26.13,126.49l6.1,7.18,2.13-2.61-8.23-4.57,6.1,7.18,2.13-2.61-8.23-4.57" transform="translate(0 0)"></path><path id="path12312" class="cls-6" d="M24.2,127.42l2.64,9,3-1.51-5.65-7.53,2.64,9,3-1.51-5.65-7.53" transform="translate(0 0)"></path><path id="path12314" class="cls-6" d="M22,129.36l-3.46-7.5-2.42,1.7,5.88,5.8-3.46-7.5-2.42,1.7,5.88,5.8" transform="translate(0 0)"></path><path id="path12316" class="cls-6" d="M30,123.22,38.88,126l.29-1.23L30,123.22,38.88,126l.29-1.23L30,123.22" transform="translate(0 0)"></path><path id="path12318" class="cls-8" d="M20.59,130.9l32.74-26.39L51.12,102,20.59,130.9l32.74-26.39L51.12,102,20.59,130.9" transform="translate(0 0)"></path><path id="path12320" class="cls-6" d="M52.1,97.13c-5.09.22-7.83-3.32-12-12.22-8.31-18-15.5-41.72,3-35.7,14.45,4.7,13.19,24.28,15.22,37.32,1.26,8-1.58,10.41-6.28,10.6" transform="translate(0 0)"></path><path id="path12322" class="cls-7" d="M52.35,92.86c-3.76,1.7-6.09-.6-9.72-6.56-6.19-10.15-11.3-22.38-2.82-29,9.82-7.65,12,11.26,16.07,22.6,2.69,7.53.46,11.15-3.53,13" transform="translate(0 0)"></path><path id="path12324" class="cls-6" d="M43.63,66.5l-9.87,2.25,1.43,3.32,8.44-5.57-9.87,2.25,1.43,3.32,8.44-5.57" transform="translate(0 0)"></path><path id="path12326" class="cls-6" d="M42.93,61.14l8.87.41-.43-3.14-8.44,2.73,8.87.41-.43-3.14-8.44,2.73" transform="translate(0 0)"></path><path id="path12328" class="cls-6" d="M44.53,68.25l8.73-.53-.17-1.25-8.56,1.78,8.73-.53-.17-1.25-8.56,1.78" transform="translate(0 0)"></path><path id="path12330" class="cls-6" d="M45.13,70l8.57,1.79.16-1.26L45.13,70l8.57,1.79.16-1.26L45.13,70" transform="translate(0 0)"></path><path id="path12332" class="cls-6" d="M44.81,71.81l-7,7.1,1,.88,6-8-7,7.1,1,.88,6-8" transform="translate(0 0)"></path><path id="path12334" class="cls-8" d="M42.17,59l8.91,44.27,3.51-.85L42.17,59l8.91,44.27,3.51-.85L42.17,59" transform="translate(0 0)"></path><path id="path12336" class="cls-6" d="M58.31,103.78c-1.46,3.51.61,6.32,6.59,11.66C77.45,126.67,97.5,141,105.21,129c8.5-13.25-21.26-20.87-34.83-27.11-7.42-3.42-10.57-1.68-12.07,1.93" transform="translate(0 0)"></path><path id="path12338" class="cls-7" d="M62,104.81c-2.54,2.21-1.33,4.46,2.51,8.69C71.05,120.66,80,128.16,92,126.74c19.25-2.25-5.09-13-15.78-20.59-6.7-4.74-11.2-3.93-14.2-1.34" transform="translate(0 0)"></path><path id="path12340" class="cls-6" d="M84,120.3,76.6,125l-2.42-2.07L84,120.3,76.6,125l-2.42-2.07L84,120.3" transform="translate(0 0)"></path><path id="path12342" class="cls-6" d="M89.67,123.1l6.24-6.28,4,1.8L89.67,123.1l6.24-6.28,4,1.8L89.67,123.1" transform="translate(0 0)"></path><path id="path12344" class="cls-6" d="M82.63,119l6.33-6,1.48.67L82.63,119l6.33-6,1.48.67L82.63,119" transform="translate(0 0)"></path><path id="path12346" class="cls-6" d="M81.12,117.89,84.29,111l1.64.36-4.81,6.57L84.29,111l1.64.36-4.81,6.57" transform="translate(0 0)"></path><path id="path12348" class="cls-6" d="M79,117.35l-9.84,1.53-.39-.9L79,117.35l-9.84,1.53-.39-.9L79,117.35" transform="translate(0 0)"></path><path id="path12350" class="cls-8" d="M91.63,124.55l-38.46-21.7,1.43-2.38,37,24.08-38.46-21.7,1.43-2.38,37,24.08" transform="translate(0 0)"></path><path id="path12358" class="cls-9" d="M145.46,150.94c-2-10.32,2.07-23.57,3.43-33.85.69-5.26,2.3-8.16,4.53-9.57L151.28,92.4l-1.17,1.26L146.67,98c3,4.17,1.43,8.78-3.84,17.44-8,13.2-19.14,27.67-27.36,27.67-3,0-5.59-1.9-7.53-6.45a11.43,11.43,0,0,0,.91-1.2c2.43-3.8,1.19-7.05-2-9.9,2.35-9,12.2-16.44,20.37-23.16l.48-.66c3.12-4.46,6.09-6.37,8.91-6.71a8.43,8.43,0,0,1,3.7-1,6.23,6.23,0,0,1,3.24.93l4.65-5.26-12.9-4.52-.54,1.16c-1.56,2.94-3.82,3.79-8.65,3.79-.71,0-1.49,0-2.33,0-1.82-.07-3.84-.21-6-.41l-.28.1,0-.12a113.93,113.93,0,0,1-12.15-1.83l-1.27-.17,0-.11c-1.42-.32-2.82-.68-4.16-1.08-.63-4.6-2.76-6.43-5.73-6.43l-.61,0a13.72,13.72,0,0,0,1.3-7.27c-.51-6.3-3.11-8.77-6.84-8.77a12.86,12.86,0,0,0-4.24.83c1.23-2.19,3.75-3,7-3a33.77,33.77,0,0,1,5.54.55,15.27,15.27,0,0,1,5.36-.95c5.61,0,11.41,2.81,16.67,6.2l.27-.4,1,.75c5.46,1.48,8.16,4,9.12,7C130,75.92,131,76.7,132,77.3c2.49,1.57,3.57,3.2,3.77,4.86l12.91,3.39-1.34-3.8c-4.71-.45-8.42-4.51-14-13.08A169.26,169.26,0,0,1,123.14,50.6a57,57,0,0,1,39.49,32.86,9.49,9.49,0,0,1-3.07.56,7,7,0,0,1-1.68-.2l-1.95,2.46,3.38,1.58a6.58,6.58,0,0,1,3.47-4.06A56.55,56.55,0,0,1,167,100.54c-5.42-3.79-8-6.45-8.19-9.56l-3.71-1.45,1.43,16.76,1.63-.41a7.53,7.53,0,0,1,1.37-.13c2.61,0,4.31,1.54,5.81,4.61a14.75,14.75,0,0,1,1.48,3,56.91,56.91,0,0,1-21.4,37.63m7.3-70-1.39.46,1.42,3.18,2-2.22-1.45-.92-.54-.5" transform="translate(0 0)"></path><path id="path12360" class="cls-10" d="M107.94,136.67c-.22-.53-.45-1.1-.65-1.69a15.9,15.9,0,0,1-.42-9.41c3.17,2.85,4.41,6.1,2,9.9a11.43,11.43,0,0,1-.91,1.2M100,86.5a39.64,39.64,0,0,1-8.31-3.34,15.69,15.69,0,0,0,2-3.07l.61,0c3,0,5.1,1.83,5.73,6.43" transform="translate(0 0)"></path><path id="path12362" class="cls-11" d="M91.67,83.16a18.37,18.37,0,0,1-2.92-2l2.68.55.27-2-4.57-.28a8.83,8.83,0,0,1-.62-1A4.44,4.44,0,0,0,84.89,74l7.92-7.55-8.39,7.16-.63-.47a14.58,14.58,0,0,1-.63-2.77,8.81,8.81,0,0,1,.7-5.49,12.86,12.86,0,0,1,4.24-.83c3.73,0,6.33,2.47,6.84,8.77a13.72,13.72,0,0,1-1.3,7.27,15.69,15.69,0,0,1-2,3.07" transform="translate(0 0)"></path><path id="path12364" class="cls-12" d="M86.51,78.36a7.22,7.22,0,0,1-.43-1,13.61,13.61,0,0,1-1.74-2.83l.55-.54a4.44,4.44,0,0,1,1.62,4.36m-2.44-4.45c-.1-.25-.2-.51-.28-.77l.63.47-.35.3" transform="translate(0 0)"></path><path id="path12366" class="cls-11" d="M91.43,81.66l-2.68-.55a11.91,11.91,0,0,1-1.62-1.74l4.57.28-.27,2" transform="translate(0 0)"></path><path id="path12368" class="cls-13" d="M84.34,74.54c-.1-.2-.19-.42-.27-.63l.35-.3,8.39-7.16L84.89,74l-.55.54" transform="translate(0 0)"></path><path id="path12370" class="cls-6" d="M113.37,73.38c-2.11,4-5.29,4.69-12.88,4.39-19.76-.79-59.58-7.55-38.77-28,15.88-15.68,37.6,6.19,48.38,13,5.29,3.35,5.27,6.85,3.27,10.62" transform="translate(0 0)"></path><path id="path12372" class="cls-7" d="M106.8,65.32c-.67,6-5.28,7.21-15.46,7.34-17.33.21-36.46-2.46-38.45-18-2.31-18,23.07-6.74,40.29-3.37,11.43,2.23,14.33,7.74,13.62,14" transform="translate(0 0)"></path><path id="path12374" class="cls-6" d="M81.94,60.88l-4.51,14,5.21.69-.7-14.73-4.51,14,5.21.69-.7-14.73" transform="translate(0 0)"></path><path id="path12376" class="cls-6" d="M74.7,57.78,81.8,47l-4.24-1.81L74.7,57.78,81.8,47l-4.24-1.81L74.7,57.78" transform="translate(0 0)"></path><path id="path12378" class="cls-6" d="M84.8,61.06l5.84-11.34L88.93,49,84.8,61.06l5.84-11.34L88.93,49,84.8,61.06" transform="translate(0 0)"></path><path id="path12380" class="cls-6" d="M87.4,61.58,96,52.17,94.56,51,87.4,61.58,96,52.17,94.56,51,87.4,61.58" transform="translate(0 0)"></path><path id="path12382" class="cls-6" d="M89.48,63.33l3.7,14.07,1.88-.63L89.48,63.33l3.7,14.07,1.88-.63L89.48,63.33" transform="translate(0 0)"></path><path id="path12384" class="cls-8" d="M71.48,57.17,133.64,78.9l1.54-5-63.7-16.7L133.64,78.9l1.54-5-63.7-16.7" transform="translate(0 0)"></path><path id="path12386" class="cls-6" d="M134.51,65.75c-4-6-1.5-11.54,6.72-22.21C157.88,21.91,182.49-2,188.37,24c4.59,20.34-21,31.5-35.92,42.39-9.14,6.66-14.27,4.84-17.94-.66" transform="translate(0 0)"></path><path id="path12388" class="cls-7" d="M135.06,67.6c-4.83-3.58-3.59-8.18,1.42-17,8.51-15.1,20.43-30.31,34.88-24.22,16.73,7-5.75,23.33-17.3,36.54-7.67,8.77-13.89,8.52-19,4.73" transform="translate(0 0)"></path><path id="path12390" class="cls-6" d="M158.6,47l11.22,6,.76-1.68L158.6,47l11.22,6,.76-1.68L158.6,47" transform="translate(0 0)"></path><path id="path12392" class="cls-6" d="M160.77,44.83l11.24,6,.76-1.7-12-4.34,11.24,6,.76-1.7-12-4.34" transform="translate(0 0)"></path><path id="path12394" class="cls-6" d="M164.61,36.17l20.49,1.35,0-3-20.47,1.63,20.48,1.35v-3L164.6,36.17" transform="translate(0 0)"></path><path id="path12396" class="cls-6" d="M164.07,38.18l-2.07-15-2.89.69,5,14.32-2.07-15-2.89.69,5,14.32" transform="translate(0 0)"></path><path id="path12398" class="cls-6" d="M142.78,40.53,142,41.59,152.16,51.7Z" transform="translate(0 0)"></path><path id="path12400" class="cls-6" d="M148.12,33.92l-1,1.11,7.17,13.72Z" transform="translate(0 0)"></path><path id="path12402" class="cls-8" d="M184,15.26,120.92,86.58,125,90l59-74.71L120.92,86.58,125,90l59-74.71" transform="translate(0 0)"></path><path id="path12404" class="cls-6" d="M142.49,97.1c6.92,1.23,9.2,6.75,11.21,19.79,4.07,26.44,4.4,60.1-18.06,46.64-17.52-10.51-8.13-36.19-5.75-54.15,1.45-11,6.22-13.39,12.6-12.28" transform="translate(0 0)"></path><path id="path12406" class="cls-7" d="M140.8,96.23c5.81-1,8.23,3,11.14,12.55,4.95,16.25,7.67,35-6.42,41.12-16.31,7.11-12.66-19.87-14.21-37-1-11.37,3.35-15.61,9.49-16.68" transform="translate(0 0)"></path><path id="path12408" class="cls-6" d="M139.52,126.89l-11.88,3.88.68,1.68,11.2-5.56-11.88,3.88.68,1.68,11.2-5.56" transform="translate(0 0)"></path><path id="path12410" class="cls-6" d="M139.56,129.88l-11.88,3.89.68,1.68,11.2-5.57-11.88,3.89.68,1.68,11.2-5.57" transform="translate(0 0)"></path><path id="path12412" class="cls-6" d="M143.12,138.46,128.3,152.08l2.12,2,12.7-15.62L128.3,152.08l2.12,2,12.7-15.62" transform="translate(0 0)"></path><path id="path12414" class="cls-6" d="M142,136.71l12.05,8.7,1.47-2.53L142,136.71l12.05,8.7,1.47-2.53L142,136.71" transform="translate(0 0)"></path><path id="path12416" class="cls-6" d="M154.78,120l-.24-1.25-14,.34Z" transform="translate(0 0)"></path><path id="path12418" class="cls-6" d="M155.85,128.28l-.1-1.46-14.58-4.2Z" transform="translate(0 0)"></path><path id="path12420" class="cls-8" d="M144.81,166.35l-7.91-93-5.12.58,13,92.4-7.91-93-5.12.58,13,92.4" transform="translate(0 0)"></path><path id="path12422" class="cls-6" d="M126.73,86.22c4.28,5.1,2.58,10.51-3.93,21.23-13.21,21.73-33.54,46.39-41.64,22.88C74.83,112,97.37,99,110.07,87.44c7.78-7.1,12.71-5.94,16.66-1.22" transform="translate(0 0)"></path><path id="path12424" class="cls-7" d="M122.19,85.08c4.83,2.83,4.14,7.22.43,15.93-6.34,14.84-15.81,30.13-29.82,26-16.19-4.81,3-22.18,12.29-35.58,6.2-8.9,12-9.31,17.1-6.33" transform="translate(0 0)"></path><path id="path12426" class="cls-6" d="M99.94,115.53l10.27,9.12,2.55-4.19-12.82-4.93,10.27,9.12,2.55-4.19-12.82-4.93" transform="translate(0 0)"></path><path id="path12428" class="cls-6" d="M97.36,117.28l5.66,12.5,4-2.79-9.7-9.71,5.66,12.5,4-2.79-9.7-9.71" transform="translate(0 0)"></path><path id="path12430" class="cls-6" d="M94.57,120.52,88,110.4l-3.14,2.94,9.67,7.18L88,110.4l-3.14,2.94,9.67,7.18" transform="translate(0 0)"></path><path id="path12432" class="cls-6" d="M104.87,110l13.38,2.13.16-1.84L104.87,110l13.38,2.13.16-1.84L104.87,110" transform="translate(0 0)"></path><path id="path12434" class="cls-8" d="M92.85,123l41.89-44.77L131,75.05,92.85,123l41.89-44.77L131,75.05,92.85,123" transform="translate(0 0)"></path><path id="path12436" class="cls-6" d="M131.47,67.86c-7.32,1.35-12-3.21-19.74-15.22C96.05,28.31,80.85-4.43,108.8.5c21.82,3.83,24,32.36,29.58,50.76,3.43,11.27-.16,15.36-6.91,16.6" transform="translate(0 0)"></path><path id="path12438" class="cls-7" d="M131,61.64c-5.1,3.21-8.93.38-15.39-7.49-11-13.4-20.87-30-10-41.28,12.62-13,19.68,13.8,27.81,29.35,5.4,10.32,2.92,16-2.45,19.42" transform="translate(0 0)"></path><path id="path12440" class="cls-6" d="M113,25.36,99.21,30.61l2.73,4.51L113,25.36,99.21,30.61l2.73,4.51L113,25.36" transform="translate(0 0)"></path><path id="path12442" class="cls-6" d="M110.9,17.77l12.88-1.21-1.25-4.45L110.9,17.77l12.88-1.21-1.25-4.45L110.9,17.77" transform="translate(0 0)"></path><path id="path12444" class="cls-6" d="M114.64,27.71l12.51-2.54-.5-1.79-12,4.33,12.51-2.54-.5-1.79-12,4.33" transform="translate(0 0)"></path><path id="path12446" class="cls-6" d="M115.87,30.06l12.72.84V29.05l-12.72,1,12.73.84V29.05l-12.72,1" transform="translate(0 0)"></path><path id="path12448" class="cls-6" d="M115.79,32.77l-8.66,11.7,1.66,1.06,7-12.76-8.66,11.7,1.66,1.06,7-12.76" transform="translate(0 0)"></path><path id="path12450" class="cls-8" d="M109.36,14.87,131.24,77,136.13,75,109.36,14.87,131.24,77,136.13,75,109.36,14.87" transform="translate(0 0)"></path><path id="path12452" class="cls-6" d="M141.78,76.18c-1.4,5.37,2.17,9,11.88,15.51,20.42,13.66,52.28,30.21,61,11.3,9.56-20.86-34.94-25.8-55.8-32-11.4-3.42-15.6-.26-17,5.24" transform="translate(0 0)"></path><path id="path12454" class="cls-7" d="M147.36,76.92c-3.23,3.71-1,6.73,5.38,12,10.87,9,25.3,18,42.36,13.53,27.32-7.19-10-17.81-27-26.53-10.65-5.48-17-3.4-20.77,1" transform="translate(0 0)"></path><path id="path12456" class="cls-6" d="M182.27,94.8,172.5,103l-3.92-2.48,13.69-5.74L172.5,103l-3.92-2.48,13.69-5.74" transform="translate(0 0)"></path><path id="path12458" class="cls-6" d="M191,97.7l7.71-10.36,6.12,1.81L191,97.7l7.71-10.36,6.12,1.81L191,97.7" transform="translate(0 0)"></path><path id="path12460" class="cls-6" d="M180,93.18l7.91-10,2.27.66L180,93.18l7.91-10,2.27.66L180,93.18" transform="translate(0 0)"></path><path id="path12462" class="cls-6" d="M177.59,91.92l3.16-10.66,2.45.19-5.61,10.47,3.16-10.66,2.45.19-5.61,10.47" transform="translate(0 0)"></path><path id="path12464" class="cls-6" d="M174.43,91.56l-13.91,4.22-.74-1.22,14.65-3-13.91,4.22-.74-1.22,14.65-3" transform="translate(0 0)"></path><path id="path12466" class="cls-8" d="M194.12,99.39l-60-23.51,1.57-3.71,58.38,27.22-60-23.51,1.57-3.71,58.38,27.22" transform="translate(0 0)"></path></svg>