<svg id="svg45952" xmlns="http://www.w3.org/2000/svg" viewBox="0 0 177.29 158.77"><defs><style>.cls-1{fill:#7a4122;}.cls-2{fill:#a28b59;}.cls-3{fill:#261512;}.cls-4{fill:#3f6428;}.cls-5{fill:#62972f;}.cls-6{fill:#7cc12c;}.cls-7{fill:#cf498c;}.cls-8{fill:#707824;}.cls-9{fill:#ba2d66;}.cls-10{fill:#f79ed3;}.cls-11{fill:#fbd6ec;}.cls-12{fill:#fff;}.cls-13{fill:#6c291d;}.cls-14{fill:#3a3f21;}.cls-15{fill:#585d26;}.cls-16{fill:#5c4646;}.cls-17{fill:#231411;}</style></defs><title>plant10</title><path id="path21240" class="cls-1" d="M39.88,158.77,0,89.7,39.88,20.63h79.76L159.51,89.7l-39.87,69.07H39.88" transform="translate(0 0)"/><path id="path21242" class="cls-2" d="M44.74,150.37h70l35-60.66L114.77,29h-70l-35,60.67,35,60.66m72.33,4H42.44L5.13,89.71l.57-1L42.44,25.07h74.63l37.32,64.64-.58,1-36.74,63.64" transform="translate(0 0)"/><path id="path21244" class="cls-3" d="M43.59,152.35,7.42,89.7,43.59,27.06h72.34L152.09,89.7l-36.16,62.65H43.59" transform="translate(0 0)"/><path id="path21246" class="cls-4" d="M86.42,0c1.1-.06-2.25,7.54-1.59,8l6.22-4.43,2.09,1.74,2.3.69c.52.36,1.65-.12,2.7-.6s1.85-.88,2.09-.67c.83.67-2.15,4.59-1.2,4.91.31.11.65-.16,1.08-.42a2.3,2.3,0,0,1,1.5-.43c1.31.19,1-.79,1.59-1,.47-.11,1.71,1.68,3,3.45s2.66,3.73,3.15,3.43-1.47-5.46-.3-5.83c.45-.14,1.65,1.52,2.81,3.19s2.3,3.33,2.64,3.19c.85-.37.66-1.57,1.36-1.82s-.4-11.2.51-11.13a23.28,23.28,0,0,1,3.41,1.18c.9.34-2.81,9.22-2.24,9.58L125,8l-4.3,5.56,5.21-.15c.54.91-.34,2.68-.43,3.69s2.2,2.71,1.94,3.68-1.7,1.26-1.68,2.16-3.57,5.35-2.55,6,3.93-6.27,4.73-6.28-.94-3.69,0-4c.41-.17,1.58,1.72,2.78,3.61S133,26,133.49,25.84c.83-.2.72,4.42,1.72,4.54s2.58-6.11,3.46-6.39-.81-6.31,0-6.71a26.3,26.3,0,0,1,5-1.56c.86-.06-1.69,10.44-.85,11.29l8.1-2.73c.35.86-5.26,2.94-5.24,3.86s8.17,1.79,8.14,2.76-2.95,1.35-2.85,2.32c.14,1.18-9.3.8-9.43,1.46-.23,1.08,3.64,3.47,3.74,4.37,0,.26,1,.24,2.12.23,1.5,0,3.33,0,3.73.59.68,1.05,2.5,1.1,2.84,1.69.57,1-1.68,2.5-.84,3.16.25.2,1-.4,1.83-1s1.88-1.28,2.44-.94l1.85-2.11c.88.27-1.7,12.7-1,12.87.41.09,2.18-2.17,4-4.43s3.7-4.69,4-4.4c.5.45-.81,5.08-.43,6.05s2.47,5.41,2.18,6l-10.29-5.19,2.38,7c-.53.58,3.42,2.17,3.13,3.08s.87,3.52.52,4.17l-4.85.35c-.18.35-1.38.25-2.57.16s-2.63-.23-2.71.25c-.11.69,8.15.58,8.31,1.57s-1.83,1.31-1.59,2c.3.91-5.19,3.94-4.74,4.62l2.77,1.22-3.71,5.74,6.79-1.63,3-1.71,2,2.23c.9.22.15,2.67.72,3.13s10.15-.18,10.09.87S171.4,87.4,171,88.05l-3.68,1.09-7.17-5.51,2.49,8.05c-.83.88-2,.44-2.61.77s-2.11-.64-3.72-1.54-3.28-1.84-3.61-1.51,11.23,8.48,10.87,9.76c-.14.48-2.37.27-4.49.06-1.88-.18-3.65-.37-3.8-.08l-5-.17c-.39.69,1.67,3.76,1.57,4.65-.07.65,8.68.38,8.88,1.36s-4.26,1.63-3.72,2.25l.18,3.39,8.54-1.9c.34.66-2.09,7.08-2.67,8.15-.24.43-3.15-1.06-6-2.55s-5.39-2.86-5.6-2.6l7,10.93c-.31.18-1.78-2.08-3.26-4.34s-3-4.5-3.43-4.34c-.65.23,2,10,1.14,10.33-.56.21-1.51-2.57-2.4-5.36s-1.67-5.38-2-5.36c-1.11,0,1.24,14,.38,14.3-.24.09,0-.17.24-.42s.78-.72.27-.16-1.14-.08-1.73-.64-1-1-1.06-.76.63.37,1.47.35,2,0,2,.53-6.68,1.9-7,3c-.17.68-2.48.5-4.59.32-1.75-.13-3.34-.28-3.46.05-.37,1,7.72,6.4,6.91,7.13-.29.25-2.19-1.63-4.19-3.52s-4.15-3.85-4.68-3.49c-1.23.83,2.11,14.81,1.36,14.8a27.56,27.56,0,0,1-5.5-1.42c-.78-.3,1.54-14,.27-14.06-.5-.05-1.13,1.51-1.72,3.08s-1.2,3.24-1.59,3.08-1.76,1.11-3.06,2.41-2.6,2.64-3,2.43c-.81-.47,2.34-8.33,1.43-8.47s-.81,3.49-1.84,3.89c-.52.19-2.81-.66-5.12-1.49-2.52-.92-5-1.84-5.17-1.41-.24.82,6.06,4,6.08,5s5,2.47,4.9,3.39c-.08.45-2.16-.11-4.26-.66s-4.06-1.08-4.39-.72l4.08,6.46-9.91-2.82,4.45,4.94c-.6.44-.69,1.41-1.71,1.55s-2.91,1.54-3.47,1-2.37-1.52-2.72-2.38l-5-.79,3.64-3.45-1.66.68a3.5,3.5,0,0,0-1.73-.14,2.79,2.79,0,0,1-1.4-.09c-.87-.49,1-5.29.24-5.64-.39-.18-.91.44-1.46,1.05s-1.06,1.17-1.52,1.07-.67.57-1,1.22-.7,1.26-1.2,1.23c-1,0-1-3-1.72-2.91-.9.12.22,2.58-.51,2.88l-6-7.27c-.33.16-1-.64-1.68-1.45s-1.44-1.62-1.87-1.45c-1,.39,5.69,11.14,5.14,11.91-.27.39-1.45.12-2.61-.14s-2.4-.56-2.6-.12c-.44,1,3,5.64,2.38,6.26s-5.57-4.2-6.77-4.48a5.52,5.52,0,0,0-2.54.83c-1.13.53-2.21,1.07-2.46.74-.5-.7-.69-2.85-.9-3.8s5.12-3.35,4.79-4.23l.07-5.29L65.73,139l4.92-5.29-6.83,1.65c-.5-.46,3.35-9.08,2.44-9.48s-4.14,9.84-4.86,9.92c-.42.06-1.07-1-1.72-2.12s-1.38-2.32-1.78-2.09c-.69.41,0,3.88-.93,4.21-.72.26-2.28,2.7-3.28,2.69S51.9,133.89,51.2,134c-.93.15-1.39,2.47-2.12,2.57s-.81-4.64-1.68-4.92c-.63-.19.89-2.21,0-2.78-.6-.41-2.37.3-4,1s-3.17,1.45-3.15,1c.07-.92-.35-2.43-.13-3.56.2-.94,5.32-1.88,4.93-3-.23-.67-2,.16-3.6,1-1.39.7-2.71,1.4-3,1.19-.7-.6,3.33-7.76,2.36-8.24-.33-.15-1.66,1-3.06,2.15s-3.1,2.52-3.55,2.09c-.9-.89,6.38-8.53,5.93-9.07s-1.88.05-3.37.56-2.67.91-3.1.64-1.08.72-1.95,1.61-1.87,1.82-2.49,1.59-.68-.07-.87.06a.83.83,0,0,1-.6.17c-.94-.07-1.56-5.77-2.35-5.74s1.23-4.47.46-4.85c-.3-.15-1.21,1-2.14,2.08s-2.1,2.46-2.42,2c-.71-1.07-.33-2-.47-2.81-.15-1,6.18-.28,6.41-1.37.18-.86-10.39-3.86-10.21-5,.14-.91-1.27-5.82-.74-6.44L25.32,101l-5.94-7.66c.19-.31,1.55.33,2.87,1s2.81,1.39,2.6.88c-.36-.93,1.9-3.7,1.44-4.17l-2.1-3.84-4.48,4.43-6.49,3.38,5.33-13.73a4,4,0,0,0-2,.18,4.16,4.16,0,0,1-1.68.23c-.44-.1-1.29,1.26-2.12,2.62s-1.71,2.87-2,2.61c-.55-.46-.58-1.68-.74-2.77S6.06,80,6.4,79.39l8.94,5.43L15,79.63l6.34,1.13c.67-.94-7.45-9-6.92-9.48l-.76-1.54c.13-.26.32,0,.5.18s.42.54.5-.14c.13-1.24,12.35-3.87,12.13-4.49L21.2,63.47c-.43-.55-.72-.42-1.17-1.45L13.5,63.25,15.13,58l-3-.57c-.31-.7,3.83-.14,4.18-1.14s-5.92-7.51-5.25-7.92c.38-.24,1.56,1.11,2.77,2.46s2.29,2.57,2.75,2.5c.84-.12.67-5.29,1.59-5.52l1.6-.14c1-.64.14-3.64.7-4s1.16.49,1.85,1.25,1.47,1.62,1.78,1.2c.17-.23.89-.11,1.71,0,1,.15,2.25.29,2.6-.28.61-1-2.79-2.91-2.68-3.44s-.55-.38-1.25-.36-1.61,0-1.7-.48.92-2.47,1-3.52S26,35.86,26.18,35.2c.21-1-3.35-6.29-2.67-7.05l10.12,5.51c.89-.94-3.68-6.15-3.17-6.81.39-.49,1.6-.16,2.78.17,1,.29,2,.57,2.44.32.69-.38.13-7.16,1.46-7.43,1-.2,1,13.32,1.73,13.51.42.12,1.71-2.28,3-4.67s2.56-4.85,2.92-4.67l.57,8c.7,0,.07-6.61,1-7.25.51-.38,2.25.76,3.89,1.89s3.12,2.19,3.39,1.92c.76-.74-8.63-8.48-8.1-9.43.19-.33,3.36.91,6.66,2.16,3.49,1.31,7.1,2.64,7.41,2.07.57-1.09-.54-5.69-.59-6.66-.08-1.17-8.72-2.14-8.66-3.06s4.21-.71,5.57-1.35c1-.49,4.06-8.42,4.71-8.19L54.39,17.78l7.49-3.54c.62.45-.22,8.63.72,8.79,1.39.25.66-13.7,1.41-14,.44-.21,1.1.44,1.77,1.09s1.46,1.39,1.94,1,1.71,2,3.12,4.29,2.84,4.48,3.46,4.32c.89-.24-.34-6.77.41-6.74.45,0,1.07-1.72,1.66-3.43s1.19-3.47,1.57-3.43c.88.12-.31,3.27.45,2.94.28-.12,1,.45,1.8,1s1.9,1.34,2.21.86c.58-.86.46-2.21.73-3,.33-1,3.87-1.43,4-2.28.11-.59.36-.52.63-.45s.48.12.67-.19c.43-.69-3.31-4.9-2-5" transform="translate(0 0)"/><path id="path21248" class="cls-5" d="M64.49,15.59c3.11-1.55,4.49,2.06,8,2.85s3,1.47,6.38.6,2.22-2,4.94-4.35,2.74-4,6.37-4.14,4.06,1.18,7,3.42.82,7.93,4.33,8.62,4-3,7.42-4,4.12-5.81,7.52-4.31,3.1,4.1,4.93,7.42-.12,3.69,2.9,5.88,2.48,2.41,6.13,3.05a8.24,8.24,0,0,0,3.27-.09c1.54-.29,2.68-.57,4.33,1.22,2.56,2.76-1.34,4.15-.94,7.89s-1.12,5,.86,8.26,3.32,3.39,6.52,5.54c1.42,1,3.15.66,4.74.35,2-.38,3.74-.76,4.48,1.29,1.27,3.52-1.26,4.61-2.44,8s-3,2.42-2.47,6.12-1.17,4.7,1,7.89,6.61,1.3,6.3,5.09-1.24,4.13-3.85,6.62-3.52.6-4.66,4.12.45,2.58,1.07,6.2.66,4-1.2,7.06c-1.23,2-2.13,2-3.47,1.9a8.39,8.39,0,0,0-3.15.37,7.8,7.8,0,0,1-3.88.1c-1.59-.27-3-.54-4.54,1-2.44,2.4,1.91,5.52.88,8.89s.3,5.94-2.59,7.74c-3.22,2-4.66-4.39-8.48-4.72s-4.78-1.13-8.33.13c-3.35,1.18-3.48,2.57-6,5.14s.45,7.8-3.07,8.33-3.45-3.64-6.8-5.31-3.25-3.87-6.92-4-3.1,3.28-6.51,4.69-3.54,3.25-7.23,2.41c-3.33-.74-1.29-3.91-3.58-6.61s-3.2-.86-6.37-2.24c-3.48-1.51-2.88-2.22-6.59-2.14s-4.7,3.08-7.85.88c-2.74-1.91-2.36-3.49-3.23-6.77s3.28-5.35,1-7.81a4.47,4.47,0,0,0-4-1.57,8.61,8.61,0,0,1-3.36-.48,6.94,6.94,0,0,0-3.67-.16c-1.62.25-3,.5-4.08-1.39-1.76-3,1.32-4,2-7.39s2-3.17,1-6.52-2.17-2.22-4.61-4.61-6.16-1.63-6.45-5c-.31-3.68,3.47-3.35,5.46-6.33s2-2.35,2.43-6c.44-3.35-.63-2.39-1.81-5.6s-.87-3.28.19-6.45c1.19-3.52.49-4.45,3.46-6.52a5,5,0,0,1,3.78-.66c1.4.16,2.65.33,3.65-1.42,1.71-3,1.52-3.54,1.75-7.1S42.76,36.08,45,33.48c1.36-1.61,2.54-.88,4-.17a5.23,5.23,0,0,0,3.6.71c3.49-.76,2.28-3.08,5.07-5.31s5.56-.64,6.16-4.3c.76-4.6-2.5-7.24.69-8.82" transform="translate(0 0)"/><path id="path21250" class="cls-6" d="M59.75,27c2.51-1.24,3.62,1.66,6.4,2.29s2.42,1.19,5.13.49,1.78-1.57,4-3.49,2.2-3.26,5.11-3.32,3.27.93,5.61,2.74.65,6.37,3.47,6.92,3.18-2.44,6-3.23,3.31-4.66,6-3.46,2.49,3.3,4,6-.1,3,2.33,4.73,2,1.93,4.93,2.46a6.72,6.72,0,0,0,2.62-.08c1.24-.22,2.16-.46,3.49,1,2,2.22-1.08,3.34-.76,6.35s-.9,4,.69,6.64,2.68,2.72,5.25,4.45c1.15.77,2.53.53,3.81.29,1.59-.31,3-.61,3.6,1,1,2.83-1,3.7-2,6.47s-2.41,2-2,4.92-.94,3.78.76,6.35,5.32,1,5.07,4.09-1,3.31-3.08,5.31-2.84.5-3.76,3.33.37,2.07.87,5,.52,3.27-1,5.69c-1,1.61-1.71,1.58-2.79,1.53a6.73,6.73,0,0,0-2.54.29,6.13,6.13,0,0,1-3.11.08c-1.28-.21-2.4-.42-3.65.8-2,1.93,1.52,4.44.7,7.15s.24,4.78-2.08,6.22c-2.59,1.62-3.75-3.52-6.81-3.79s-3.85-.91-6.72.11c-2.67,1-2.79,2.06-4.77,4.13s.35,6.26-2.46,6.69-2.78-2.92-5.49-4.27-2.61-3.11-5.55-3.23-2.49,2.64-5.25,3.77-2.84,2.61-5.79,2c-2.69-.61-1-3.15-2.89-5.32s-2.57-.69-5.12-1.8c-2.8-1.22-2.32-1.79-5.3-1.72s-3.77,2.48-6.31.71c-2.2-1.54-1.89-2.82-2.6-5.45s2.64-4.3.79-6.28a3.54,3.54,0,0,0-3.22-1.25,6.91,6.91,0,0,1-2.7-.39,5.46,5.46,0,0,0-3-.13c-1.31.2-2.39.41-3.28-1.11C35,96.1,37.5,95.3,38,92.58s1.63-2.55.8-5.23-1.74-1.79-3.7-3.72-5-1.3-5.19-4c-.26-3,2.79-2.71,4.38-5.1s1.59-1.9,2-4.82c.35-2.7-.5-1.92-1.45-4.51S34.1,62.52,35,60c.95-2.84.4-3.59,2.78-5.25a4,4,0,0,1,3-.53c1.14.13,2.14.27,2.94-1.14,1.38-2.44,1.23-2.85,1.41-5.71s-2.84-3.9-1-6c1.1-1.29,2-.7,3.2-.13a4.23,4.23,0,0,0,2.89.56c2.8-.61,1.84-2.47,4.07-4.26s4.47-.53,5-3.47c.61-3.69-2-5.82.54-7.09" transform="translate(0 0)"/><path id="path21252" class="cls-7" d="M66.93,28l1.31,1.16,1.18.62,1.33-.4,1.58-.25,1.07,1.19.1,1.91,1.78-.13,1.82-.19.33,1.75L77.49,35l.93,1,1.38.82-.86,1.36-.53,1.57.79,1.54,1.64,1-1.15,1.28-1,.91-.5,1.52L79,47.51l-1.3.91-1.26.37L76.1,50l-.83,1.19-1.48-.11-1.73-.48-.58,1.7-1.17,1.2L69.07,52l-1.63-.65-1.58.46-1.31,1.28-.87-1.52-1-1.29L61,50.58l-1.6-.13L59.29,49l-1-.92-1.09-.93-1.6-.46,0-1.5.85-1.35-1.25-1-1.37-.91,1-1.19.75-1.11L55,38.42,54.17,37l1.59-.72,1-.9.12-1.17L57.46,33l1.23-.91,1.62.22.93-1.16.39-1.46,1.43.71,1.44-.56,1.55-.3L66.93,28" transform="translate(0 0)"/><path id="path21254" class="cls-8" d="M72.08,59.52,70.84,58l-1.63-.64-1.58.46-1.31,1.27-.87-1.51-1-1.29-1.67.33-1.6-.13L61.06,55,60,54.05l-1.09-.92-1.6-.47,0-1.49.85-1.35-1.25-1L55.5,48l.9-1.05.75.21,1.09.93,1,.92.13,1.49,1.6.13,1.67-.33,1,1.29.87,1.52,1.31-1.28,1.58-.46,1.63.65,1.24,1.54,1.17-1.2.58-1.7,1.73.48,1.48.11L76.1,50l.32-1.22,1.26-.37,1.3-.91-.79-1.43.5-1.52,1-.91,1.11-1.24.77.46-.87,1.36-.53,1.57L81,47.34l1.65,1-1.15,1.28-1,.92L80,52.1l.79,1.43-1.3.9-1.26.38L77.87,56,77,57.22l-1.48-.12-1.73-.48-.58,1.7-1.17,1.2M80,41.83l-.79-.5-.79-1.54.52-1.53.27,1.44L79.26,41l.73.82" transform="translate(0 0)"/><path id="path21256" class="cls-9" d="M70.31,53.51,69.07,52l-1.63-.65-1.58.46-1.31,1.28-.87-1.52-1-1.29L61,50.58l-1.6-.13L59.29,49l-1-.92-1.09-.93-.75-.21.11-.14.75-1.11-.5-1.21L55.94,43l1.32-.59-.07.41-.35,1.25,1.31.29,1.25.36-.18,1.33.52,1.17,1.34-.15,1.12.39,1.07.4.6,1.13,1.23-.39,1.12-.78,1.17.7,1.14.92L69.07,48l1-.86h1.42l1.42.82.47-1.3-.12-1.52L74.71,45l1.14-.36.22-1.21-.16-1,.79-.69.68-1.12-1.06-.88-.14-1.34.06-.16.81,0L78.87,38l.06.31-.52,1.53.79,1.54.79.5.2.23.61.35-1.11,1.24-1,.91-.5,1.52L79,47.51l-1.3.91-1.26.37L76.1,50l-.83,1.2-1.48-.12-1.73-.48-.58,1.7-1.17,1.2" transform="translate(0 0)"/><path id="path21258" class="cls-10" d="M62,29l1.35.5,1.08.12.85-.72,1.1-.69,1.17.6.72,1.48,1.27-.67,1.29-.71.82,1.27.48,1,1,.54,1.28.2-.17,1.34.12,1.41,1.09,1,1.57.31-.44,1.36-.43,1,.14,1.34,1.06.88-.68,1.12-.79.69.16,1-.22,1.21L74.71,45l-1.42.17.12,1.52L72.94,48l-1.42-.82H70.1l-1,.86-.54,1.41-1.14-.92-1.17-.7-1.12.78L63.87,49l-.6-1.13-1.07-.4-1.12-.39-1.34.14-.52-1.16.18-1.33-1.25-.36-1.31-.29.35-1.25.18-1.11-.77-.8L55.52,40,56.46,39l.43-1-.3-1,0-1.09.61-1.1,1.27-.33.32-1.21L58.63,32l1.29.12.88-.89,1.06-.73L62,29" transform="translate(0 0)"/><path id="path21260" class="cls-11" d="M68.52,46.46l-.78-.63-.81-.49-.78.54-.84.27-.42-.78-.74-.28-.77-.26-.92.09-.36-.8.13-.92L61.36,43l-.9-.19.24-.86.13-.77-.53-.55-.75-.6.65-.73.29-.71-.2-.65,0-.76.41-.76.87-.23.23-.83-.14-.88.89.08.6-.61.73-.5.09-1,.93.35.75.08.58-.5.76-.47.81.41.49,1,.88-.45.89-.5.56.88.34.7.71.37.89.15-.13.92.09,1,.76.67,1.08.2-.31,1-.29.71.1.93.72.61-.46.77-.55.47.11.73-.16.83-.77.25-1,.12.1,1-.32.9-1-.56h-1l-.7.59-.38,1" transform="translate(0 0)"/><path id="path21262" class="cls-12" d="M65.51,32.22l.76.28.61.08.48-.41.61-.39.66.34L69,33l.72-.38.72-.4.46.71.27.57.58.29.72.13-.1.75.07.79.61.53.88.18-.24.76-.25.58.08.75.6.49-.38.63-.45.38.1.59-.13.68-.63.2-.81.1.07.85-.25.73-.81-.46h-.79l-.58.48-.3.79-.64-.51-.65-.4-.63.44-.69.22-.33-.63-.61-.23L65,42.35l-.75.06L64,41.77l.1-.75-.69-.2-.75-.15.21-.71.1-.62-.44-.44-.61-.5.54-.59.24-.57-.17-.53,0-.62.34-.61.71-.2.17-.66-.11-.72.73.07.49-.5.59-.41.07-.84" transform="translate(0 0)"/><path id="path21264" class="cls-7" d="M81.38,67.72l1.3,1.16,1.18.62,1.33-.4,1.59-.24L87.84,70l.1,1.93,1.78-.14,1.83-.18.33,1.75.05,1.3.93,1,1.38.82-.85,1.36-.54,1.57L93.64,81l1.64,1-1.15,1.28-1,.92-.49,1.51.79,1.43-1.31.91-1.25.37-.33,1.22-.83,1.19-1.47-.12-1.74-.47L85.92,92l-1.16,1.2-1.24-1.55L81.89,91l-1.59.46L79,92.76l-.86-1.52-1-1.28-1.66.33-1.61-.15-.13-1.49-1-.91-1.09-.92L70,86.35l-.06-1.5.86-1.35-1.26-1-1.36-.91,1-1.18.74-1.11-.5-1.22-.82-1.44,1.6-.72,1-.9.13-1.16.59-1.17,1.22-.91,1.62.22.94-1.16.38-1.46,1.43.71,1.44-.57,1.56-.29.88-1.55" transform="translate(0 0)"/><path id="path21266" class="cls-8" d="M86.52,99.22l-1.23-1.53L83.66,97l-1.59.46-1.31,1.27-.86-1.51L78.9,96l-1.67.34-1.6-.14-.13-1.51-1-.91-1.1-.92-1.59-.47-.06-1.49.86-1.35-1.26-1L70,87.66l.89-1.06.75.22,1.09.92,1,.91.13,1.49,1.61.15L77.13,90l1,1.28L79,92.76l1.31-1.28L81.89,91l1.63.64,1.24,1.55L85.92,92l.58-1.7,1.74.48,1.47.11.83-1.19.33-1.22,1.25-.37,1.31-.91-.79-1.43.49-1.51,1-.92,1.12-1.23.76.45-.86,1.36-.53,1.58L95.4,87l1.65,1L95.9,89.36l-1,.91-.5,1.52.79,1.44-1.3.9-1.25.38-.33,1.21-.83,1.2L90,96.79l-1.73-.47L87.69,98l-1.17,1.2m7.91-17.69-.79-.5-.79-1.54L93.37,78l.27,1.45.06,1.31.73.82" transform="translate(0 0)"/><path id="path21268" class="cls-9" d="M84.76,93.21l-1.24-1.55L81.89,91l-1.59.46L79,92.76l-.86-1.52-1-1.28-1.66.33-1.61-.15-.13-1.49-1-.91-1.09-.92-.75-.22.11-.14.75-1.11-.5-1.22-.82-1.43,1.32-.59-.06.41-.36,1.25,1.31.29,1.25.36-.18,1.34.52,1.15,1.35-.13,1.11.38,1.07.4.6,1.13,1.24-.39,1.12-.77,1.17.69,1.13.93.55-1.42,1-.86H86l1.42.82.47-1.3-.13-1.52,1.43-.16,1.13-.37.22-1.21-.16-1,.8-.69.67-1.12-1.06-.88-.14-1.34.06-.15.82-.06,1.81-.19.06.31-.52,1.53L93.64,81l.79.5.2.23.62.36-1.12,1.23-1,.92-.49,1.51.79,1.43-1.31.91-1.25.38-.33,1.21-.83,1.2-1.47-.12-1.74-.48L85.92,92l-1.16,1.2" transform="translate(0 0)"/><path id="path21270" class="cls-10" d="M76.44,68.71l1.35.5,1.08.12.85-.72,1.09-.68,1.17.59L82.71,70,84,69.33l1.29-.71.83,1.27.48,1,1,.54,1.28.21L88.71,73l.12,1.41,1.1,1,1.57.3L91.05,77l-.43,1,.14,1.34,1.06.88-.67,1.12-.8.69.16,1-.22,1.21-1.13.37-1.43.16.13,1.52-.47,1.3L86,86.87H84.54l-1,.86L83,89.14l-1.13-.92-1.17-.7-1.12.78-1.24.39-.6-1.13-1.07-.4-1.11-.38-1.35.13-.52-1.16.18-1.33-1.25-.36-1.31-.29.36-1.25.17-1.1L71,80.61,70,79.74l1-1.06.42-1-.3-1,.06-1.1.6-1.1L73,74.18,73.28,73l-.2-1.27,1.29.11.87-.89,1.06-.71.14-1.5" transform="translate(0 0)"/><path id="path21272" class="cls-11" d="M83,86.16l-.79-.64L81.37,85l-.77.54-.85.28-.41-.79-.75-.27-.77-.27-.91.09-.37-.8.13-.91-.86-.26-.9-.19.24-.86.12-.76-.53-.56-.75-.6.65-.73.29-.7-.19-.66,0-.76.41-.75.88-.24.22-.83-.14-.87.89.07.6-.61.73-.5.09-1,.94.34.74.08.59-.5.75-.47.82.4.49,1,.87-.46.89-.49.57.88.33.69.71.37.89.14-.12.93L87,76l.76.66,1.08.21-.3.94-.3.71.1.93.73.61-.46.77-.56.47.11.73-.15.83-.77.26-1,.11.09,1-.32.89-1-.56h-1l-.71.59-.38,1" transform="translate(0 0)"/><path id="path21274" class="cls-12" d="M80,71.93l.75.27.62.08.47-.41.61-.39.66.33.4.84.71-.38.72-.4.46.71.27.57.59.3.72.12-.1.75.06.78.62.55.87.17-.24.76-.25.58.09.75.59.49L88.2,79l-.45.39.1.58-.12.68-.64.2-.81.1.08.85-.26.73-.8-.47h-.8l-.57.49-.31.79L83,82.85l-.65-.38-.62.43-.7.21-.33-.63-.6-.22-.63-.21-.75.07-.3-.65.11-.74-.7-.21-.74-.16.2-.7.1-.62-.43-.45-.61-.49.53-.59.24-.57-.16-.53,0-.61.35-.62L78,75l.18-.68-.12-.71.73.07.49-.5.59-.4.08-.84" transform="translate(0 0)"/><path id="path21276" class="cls-7" d="M39.85,67.72l.67.6.62.32.69-.2.83-.13.55.61.06,1,.92-.08,1-.09.17.9,0,.68.48.55.72.42L46.1,73l-.29.81.42.8.86.55-.61.65-.52.49-.25.78.41.75-.68.47-.66.19-.16.64-.44.62-.77-.06-.89-.25-.3.88-.61.63-.64-.8-.85-.34-.83.24-.67.67L38.16,80l-.52-.67-.87.17-.83-.08-.07-.77-.54-.48-.57-.48-.83-.24,0-.78.45-.7-.65-.5L33,75l.53-.63.39-.57-.26-.63-.43-.75L34,72l.51-.47.06-.6.31-.61.64-.48.84.11.49-.6.21-.76.74.37.74-.3.81-.14.46-.81" transform="translate(0 0)"/><path id="path21278" class="cls-8" d="M42.53,84.11l-.64-.81L41,83l-.82.24-.68.66-.45-.78-.52-.68-.86.18-.84-.08-.07-.77-.54-.48-.57-.48-.83-.24,0-.78.44-.7-.66-.5-.71-.47.46-.55.4.11.57.48.54.48.07.77.83.08.87-.17.52.67.46.78.67-.67.83-.23.85.34.64.8.61-.63.3-.88.89.25.77.06.44-.62.16-.64.66-.19.68-.47-.41-.75.25-.78.52-.49.58-.64.4.24-.44.71-.28.82.41.8.86.54-.6.67-.52.48-.26.78L47,81l-.68.48-.66.19-.17.63-.42.63-.77-.06-.9-.25-.3.88-.61.63m4.11-9.21-.41-.26-.42-.8.28-.8.14.76,0,.67.37.43" transform="translate(0 0)"/><path id="path21280" class="cls-9" d="M41.61,81l-.64-.8-.85-.34-.83.23-.67.67L38.16,80l-.52-.67-.87.17-.83-.08-.07-.77-.54-.48-.57-.48-.4-.11.07-.08.39-.57-.26-.63-.43-.75.69-.31,0,.22-.18.65.68.14.65.2-.09.69.27.61.7-.08.57.21L38,78l.3.59.64-.2.59-.41.61.36.59.48.29-.73.53-.45h.74l.74.43.24-.68-.07-.79.75-.08.59-.2.11-.62-.08-.55.41-.36.35-.58-.55-.46-.08-.7,0-.08.42,0,1-.1,0,.16-.28.8.42.8.41.26.11.12.31.18-.58.64-.52.49-.25.78.41.75-.68.47-.66.19-.16.64-.44.62-.77-.06-.89-.25-.3.88-.61.63" transform="translate(0 0)"/><path id="path21282" class="cls-10" d="M37.28,68.23l.7.27.56.06.45-.38.57-.36.6.32.38.77.66-.35.68-.38.42.67.25.52.54.28.67.11-.1.69.07.74.56.5.82.15-.22.72-.24.53.08.7.55.46-.35.58-.41.36.08.55-.11.62-.59.2-.75.08.07.79-.24.68-.74-.43H41.5l-.53.45-.29.73-.59-.48L39.48,78l-.59.41-.64.2L38,78l-.57-.2-.57-.21-.7.08-.27-.61.09-.69-.65-.2-.68-.14.18-.65.09-.58-.39-.41L33.91,74l.49-.54.22-.54-.14-.49v-.58l.32-.57.67-.18.15-.61-.1-.66.68,0,.45-.46.55-.37.07-.79" transform="translate(0 0)"/><path id="path21284" class="cls-11" d="M40.68,77.31,40.26,77l-.41-.25-.4.28-.45.14-.21-.41-.39-.14-.4-.14-.48.05-.18-.42.06-.47L37,75.49l-.46-.1.12-.45.06-.4-.28-.29L36,74l.35-.39.15-.37-.11-.34,0-.39.22-.4.46-.11.11-.44-.08-.45.47,0,.31-.31.38-.26,0-.54.49.19.38,0,.31-.26.39-.24.42.22.26.52L41,70.2,41.5,70l.29.46.18.36.37.19.46.08-.06.48,0,.5.4.34.56.11-.16.49-.15.37,0,.49.38.31-.24.4-.29.25.07.38-.09.43-.4.13-.52.06,0,.55-.16.47-.51-.3h-.51l-.36.31-.2.5" transform="translate(0 0)"/><path id="path21286" class="cls-12" d="M39.12,69.91l.39.14.31,0,.25-.21.31-.2.35.17.21.43.37-.2.37-.2.24.37.14.29.31.16.37.06-.05.39,0,.42.31.27.46.09-.12.39-.13.31,0,.39.31.26-.2.32-.24.2.06.31-.07.35-.33.1-.42,0,0,.45-.14.38-.41-.25h-.41l-.3.25-.17.42-.33-.27-.33-.2-.33.22-.36.12-.17-.33-.32-.12-.32-.11-.39,0-.16-.34.06-.39-.36-.1-.39-.08.1-.37,0-.32-.22-.23-.31-.26.27-.31.12-.29-.08-.28v-.32l.18-.32.37-.1.09-.35-.06-.37.37,0,.26-.25.31-.22,0-.43" transform="translate(0 0)"/><path id="path21288" class="cls-7" d="M104.23,52.87l.68.6.62.33.68-.21.83-.12.55.61,0,1,.94-.08.94-.09.17.92,0,.67.49.55.71.43-.44.7-.28.82.41.8.86.54-.61.66-.51.48-.26.79.41.74-.68.48-.65.19-.17.63-.43.62-.77-.06-.9-.24-.31.88-.6.63-.65-.81L104.5,65l-.83.24-.68.67-.45-.79-.52-.68-.86.18-.84-.08-.07-.78-.54-.48-.57-.47-.83-.25,0-.78.44-.69-.66-.5-.7-.47.52-.62.39-.59L98,58.28l-.43-.74.83-.38.51-.46.07-.61.3-.6.64-.48.85.11.48-.6.2-.76.74.36.75-.28.81-.15.46-.82" transform="translate(0 0)"/><path id="path21290" class="cls-8" d="M106.91,69.27l-.65-.81-.84-.33-.83.24-.67.66-.46-.79-.52-.67-.87.18-.83-.07-.06-.78-.55-.49-.57-.47-.83-.25,0-.77.45-.71-.65-.5-.72-.46.47-.56.39.12.57.47.54.48.07.78.84.08.86-.18.52.68.45.79.68-.67.83-.24.84.33.65.81.6-.63.31-.88.9.24.77.06.43-.62.17-.63.65-.19.68-.48-.41-.74.25-.79.52-.48.59-.63.39.23-.45.71-.28.83.42.79.85.54-.6.67-.52.47-.25.79.41.74-.68.47-.65.2-.17.63-.44.62-.77,0-.89-.25-.31.88-.6.63M111,60.06l-.42-.26-.4-.8.27-.8.14.75,0,.68.38.43" transform="translate(0 0)"/><path id="path21292" class="cls-9" d="M106,66.14l-.65-.81L104.5,65l-.83.24-.68.67-.45-.79-.52-.68-.86.18-.84-.08-.07-.78-.54-.48-.57-.47-.39-.12.06-.07.38-.58-.26-.63-.42-.75.68-.3,0,.22-.18.65.69.15.64.18-.1.7.28.6.69-.07.59.2.55.21.32.58.64-.2.58-.41.6.37.61.47.27-.73.53-.44h.74l.75.43.23-.68-.06-.79.75-.09.59-.19.11-.63-.08-.54.42-.36.34-.59-.55-.45-.07-.7,0-.08.41,0,1-.09,0,.16-.27.8.4.8.42.26.1.11.33.2-.59.63-.51.48-.26.79.41.75-.68.47-.65.19-.17.63-.43.62-.77-.05-.9-.25-.31.88-.6.63" transform="translate(0 0)"/><path id="path21294" class="cls-10" d="M101.66,53.39l.7.26.57.07.44-.38.57-.36.61.31.37.77.66-.34.67-.38.43.66.25.53.53.28.68.11-.1.69.07.74.57.5.81.15-.23.71-.22.54.07.7.55.45-.34.59-.42.36.08.55-.11.62-.59.19-.75.09.06.79-.23.68-.75-.43h-.74l-.53.44-.27.73-.61-.47-.6-.37-.58.41-.64.2-.32-.58-.55-.21-.59-.2-.69.07-.28-.6.1-.7-.64-.18L99,61.23l.18-.65.1-.59-.4-.4-.57-.46.5-.55.22-.53-.16-.5,0-.57.31-.57.66-.17.17-.63-.1-.66.66,0,.46-.46.55-.37.07-.78" transform="translate(0 0)"/><path id="path21296" class="cls-11" d="M105.06,62.47l-.41-.33-.43-.25-.4.27-.44.15-.21-.41-.38-.14-.4-.13-.48,0-.2-.42.07-.48-.45-.12-.47-.11.13-.44.07-.4-.28-.29-.39-.31.34-.38.15-.36-.1-.34,0-.41.21-.39.45-.12.12-.43-.07-.45.46,0,.31-.31.38-.26,0-.54.49.18.39,0,.3-.25.39-.25.43.21.26.53.45-.24.46-.25.3.45.17.36.37.19.46.08-.07.48,0,.51.39.34.56.12-.15.48-.16.37.06.49.38.31-.25.4-.28.25.05.37-.07.44-.41.13-.52.06,0,.54-.17.47-.51-.29h-.51l-.37.3-.19.51" transform="translate(0 0)"/><path id="path21298" class="cls-12" d="M103.49,55.06l.4.15.31,0,.25-.21.32-.2.34.17.21.44.37-.2.38-.21.24.38.14.29.29.15.38.07-.05.39,0,.41.33.27.45.09-.13.41-.13.29,0,.4.3.25-.19.33-.23.2,0,.3-.06.35-.33.12-.42,0,0,.45-.13.38-.42-.24h-.42l-.29.25-.16.4-.33-.26-.35-.21-.32.23-.36.11-.18-.32-.3-.12-.33-.11-.4,0-.14-.34,0-.39-.37-.11-.38-.08.1-.36.06-.33-.22-.23-.33-.25.28-.31.13-.3-.09-.28,0-.31.17-.33.37-.1.1-.34-.06-.37.37,0,.26-.26.31-.21,0-.44" transform="translate(0 0)"/><path id="path21300" class="cls-7" d="M115.63,81.18l.43.4.41.2.44-.13.54-.08.35.4,0,.64.6,0,.61-.07.11.6,0,.43.32.36.46.27-.29.46-.17.53.27.52.54.35-.39.44-.33.31-.17.51.27.48-.44.3-.42.13-.11.41-.29.4-.49,0-.58-.17-.21.58-.38.4-.42-.51L115.8,89l-.53.16-.45.43-.29-.51-.34-.44-.56.12-.54,0,0-.5-.35-.31-.36-.31-.55-.16V87l.29-.47-.42-.32-.47-.29.34-.41.25-.38-.16-.4-.28-.49.54-.24.33-.31,0-.39.19-.39.42-.31.54.07.32-.39.13-.49.48.23.48-.18.53-.1.3-.53" transform="translate(0 0)"/><path id="path21302" class="cls-8" d="M117.36,91.81l-.42-.51-.55-.23-.53.16-.44.43-.3-.51-.33-.44-.56.12-.54,0,0-.52-.35-.3-.37-.32-.54-.15,0-.5.29-.47-.42-.32-.46-.3.3-.36.26.08.36.31.35.31,0,.5.54,0,.56-.12.34.44.29.51.44-.43.54-.16.55.23.41.51.39-.4.21-.58.58.17.49,0,.29-.41.11-.41.42-.13.44-.3-.27-.48.17-.51.33-.31.38-.42.26.15-.29.46-.18.54.27.51.55.35-.39.44-.34.3-.16.51.26.49-.43.3-.43.13-.11.42L119,91l-.5,0-.58-.17-.2.57-.39.41m2.66-6-.26-.18-.26-.52.17-.52.09.5,0,.43.24.29" transform="translate(0 0)"/><path id="path21304" class="cls-9" d="M116.76,89.78l-.41-.51L115.8,89l-.54.16-.44.43-.29-.51-.34-.44-.56.12-.54,0,0-.5-.35-.31-.36-.31-.26-.08,0,0,.25-.38-.17-.41-.28-.48.45-.2,0,.14-.12.42.44.1.43.12-.07.44.18.4.45,0,.37.13.37.13.2.38.42-.13.38-.27.38.24.39.31.19-.48.34-.29h.48l.49.28.15-.44,0-.51.48-.06.39-.12.07-.4,0-.36.26-.23.23-.38-.36-.29,0-.46,0,0,.27,0,.62-.07,0,.1-.18.52.27.52.26.18.07.07.21.12-.38.42-.34.3-.16.51.27.49-.45.3-.42.13-.11.41-.28.4-.5,0-.58-.17-.2.58-.39.4" transform="translate(0 0)"/><path id="path21306" class="cls-10" d="M114,81.52l.45.17.37,0,.29-.24.36-.23.4.2.24.5.43-.23.43-.24.28.43.17.33.34.19.43.07-.05.45,0,.48.37.32.52.1-.14.46-.14.35,0,.46.36.29-.23.38-.27.23.06.36-.07.4-.39.12-.48.06,0,.51-.16.44-.48-.27h-.48l-.34.28-.19.48-.39-.31-.39-.23-.37.26-.42.13-.2-.38-.37-.13-.37-.13-.45,0-.18-.39.07-.45-.43-.12-.44-.1.12-.42.06-.38-.27-.27-.36-.28.32-.37.15-.34-.11-.32,0-.37.21-.37.42-.12.11-.4-.06-.43.43,0,.29-.3.36-.25,0-.5" transform="translate(0 0)"/><path id="path21308" class="cls-11" d="M116.16,87.4l-.27-.21-.26-.17-.26.19-.29.09-.14-.26-.25-.09-.26-.09-.31,0-.12-.26,0-.31-.28-.08-.31-.08.08-.29,0-.25-.19-.19-.25-.2.23-.24.09-.24-.07-.23v-.26l.14-.25.3-.08.07-.28,0-.29.3,0,.2-.21.25-.17,0-.35.31.12.26,0,.19-.17.26-.16.27.13.17.35.29-.15.3-.17.19.3.12.23.24.12.29.06,0,.3,0,.34.25.22.37.06-.1.33-.1.24,0,.3.25.22-.16.26-.18.15,0,.25,0,.28-.27.08-.33,0,0,.36-.1.3-.33-.2h-.33l-.25.21-.12.32" transform="translate(0 0)"/><path id="path21310" class="cls-12" d="M115.14,82.6l.26.1.21,0,.15-.14.22-.13.22.11.13.28.24-.13.24-.13.16.24.09.18.2.1.24,0,0,.25v.27l.22.18.28,0-.07.26-.08.2,0,.25.19.17-.13.21-.15.13,0,.2,0,.23-.21.06-.27,0,0,.28-.08.25L117,86h-.27l-.19.17-.11.27-.22-.18-.22-.13-.2.14-.24.07-.12-.21-.2-.07L115,86l-.26,0-.1-.22,0-.25-.23-.06-.25-.06.07-.23,0-.22-.15-.15-.2-.16.18-.2.08-.19-.06-.18v-.21l.11-.21.25-.07.06-.22,0-.24.24,0,.17-.17.2-.14,0-.28" transform="translate(0 0)"/><path id="path21312" class="cls-7" d="M139.58,77.29l1.15,1,1,.54,1.17-.35,1.41-.21.92,1,.1,1.69,1.57-.12,1.61-.16.29,1.55.06,1.15.81.92,1.21.73-.75,1.2-.47,1.39.7,1.35,1.45.92-1,1.13-.88.81-.43,1.34.69,1.27-1.15.78-1.11.34-.29,1.07-.73,1.06-1.3-.1-1.52-.42-.52,1.49-1,1.07-1.09-1.37L140,97.87l-1.4.41-1.14,1.12-.77-1.34-.88-1.13-1.48.29-1.41-.13-.11-1.31L131.9,95l-1-.8-1.41-.42-.05-1.33.75-1.18-1.1-.85-1.2-.8.89-1.06.65-1L129,86.48l-.72-1.27,1.4-.64.87-.79.12-1,.51-1,1.08-.81,1.43.19.84-1,.33-1.3,1.26.63,1.27-.5,1.38-.26.78-1.37" transform="translate(0 0)"/><path id="path21314" class="cls-13" d="M150.67,100.58c-.33-.72-.54-1.34-.39-1.61l1.05,0,.45.81-1.11.76" transform="translate(0 0)"/><path id="path21316" class="cls-14" d="M148.85,102.56a14.1,14.1,0,0,0-.37-3.4,7.47,7.47,0,0,0-.81-2.48l.28-1.05,1.11-.34,1.15-.78-.69-1.27L150,91.9l.88-.81,1-1.08.68.4-.75,1.2L151.27,93l.69,1.36,1.46.91-1,1.13-.89.81-.43,1.34.25.46-1.05,0c-.15.27.06.89.39,1.61l0,0-1.1.34-.29,1.07-.38.54" transform="translate(0 0)"/><path id="path21318" class="cls-15" d="M144.12,105.11l-1.1-1.37-1.43-.56-1.41.41L139,104.7l-.77-1.33-.88-1.14-1.46.3-1.42-.12-.12-1.33-.92-.8-1-.82-1.41-.41,0-1.32.75-1.19-1.1-.86-1.22-.79.79-.93.67.2,1,.8.93.82.11,1.31,1.41.13,1.48-.29.88,1.13.77,1.34,1.14-1.12,1.4-.41,1.45.56,1.09,1.37,1-1.07.52-1.49,1.52.42,1.3.1.73-1.06v0a7.47,7.47,0,0,1,.81,2.48,14.63,14.63,0,0,1,.37,3.4l-.36.52-1.31-.12-1.52-.41-.52,1.49-1,1.07m7-15.62-.7-.45-.7-1.35.47-1.36.24,1.28,0,1.14.65.74" transform="translate(0 0)"/><path id="path21320" class="cls-9" d="M142.56,99.8l-1.09-1.37L140,97.87l-1.4.41-1.14,1.12-.77-1.34-.88-1.13-1.48.29-1.41-.13-.11-1.31L131.9,95l-1-.8-.67-.2.1-.12.66-1-.44-1.08-.73-1.26L131,90l-.06.37-.31,1.11,1.16.25,1.11.32-.17,1.17.46,1,1.19-.12,1,.34,1,.35.51,1,1.1-.34,1-.68,1,.61,1,.81.48-1.24.9-.76h1.26l1.26.74.4-1.16-.11-1.35,1.26-.14,1-.33.2-1L147.5,90l.7-.6.59-1-.93-.78-.12-1.19,0-.14.72,0,1.61-.16,0,.27-.47,1.36.7,1.35.7.45.18.19.53.33-1,1.08-.88.81-.43,1.34.69,1.27-1.15.78-1.11.34-.28,1.05v0l-.74,1.06-1.3-.1-1.52-.42-.52,1.49-1,1.07" transform="translate(0 0)"/><path id="path21322" class="cls-10" d="M135.22,78.17l1.18.44,1,.11.75-.65,1-.6,1,.53.63,1.31,1.12-.59,1.14-.63.72,1.12.42.89.92.47,1.13.18L146,81.94l.11,1.24,1,.85,1.39.27-.39,1.21-.38.9.12,1.19.93.78-.59,1-.7.6.14.93-.2,1.06-1,.33-1.26.14.11,1.35-.4,1.16-1.26-.74h-1.26l-.9.76L141,96.2l-1-.81-1-.61-1,.68-1.1.34-.51-1-1-.35-1-.34-1.19.12-.46-1,.17-1.17-1.11-.32-1.16-.25.31-1.11.16-1-.68-.7-1-.77.83-.93.38-.9-.25-.85,0-1,.53-1,1.12-.29.29-1.07-.18-1.12,1.13.1.78-.79.94-.63.12-1.32" transform="translate(0 0)"/><path id="path21324" class="cls-11" d="M141,93.57l-.7-.55-.71-.43-.68.48-.76.23-.36-.69-.65-.24-.68-.23-.82.08-.31-.71.11-.81-.76-.22-.81-.17.22-.77.12-.67-.48-.48-.65-.53.57-.65.26-.62-.18-.58,0-.67.36-.67.78-.2.2-.73L135,83l.78.06.54-.53.64-.44.08-.92.83.32.66.06.52-.43.66-.43.72.37.43.9.78-.41.79-.43.5.78.28.61.63.32.79.13-.11.82.07.86.67.58.95.18-.26.83-.26.63.08.83.65.53-.42.68-.48.42.1.64-.14.74-.68.22-.88.09.08.93-.29.79-.87-.5h-.86l-.62.53-.33.85" transform="translate(0 0)"/><path id="path21326" class="cls-12" d="M138.33,81l.66.25.53.07L140,81l.54-.35.58.3.35.73.63-.33.64-.35.41.63.23.5.52.26.63.11-.08.67,0,.69.55.47.77.15-.22.68-.21.5.07.67.52.44-.33.55-.4.34.08.52-.11.6-.55.17-.72.09.07.75-.22.64L143,90h-.7l-.5.42-.27.7-.56-.46-.59-.34-.54.38-.62.2-.29-.56-.54-.19-.55-.2-.66.07-.26-.58.09-.66-.62-.17-.65-.14.18-.62.09-.55-.38-.39-.54-.43.47-.53.21-.5-.15-.48,0-.54.3-.55.63-.16.15-.6-.1-.63.64.06.44-.44.52-.36.07-.74" transform="translate(0 0)"/><path id="path21328" class="cls-7" d="M143.67,44.22l1.19,1.05,1.06.56,1.21-.36,1.43-.22,1,1.07.09,1.73,1.62-.12,1.65-.16.3,1.58,0,1.18.83.95,1.26.75-.78,1.23-.48,1.42.71,1.39,1.49.94-1,1.16-.9.83-.44,1.37.71,1.29-1.18.82-1.14.34L152,64.13l-.75,1.07-1.34-.1-1.57-.43-.53,1.53-1,1.1-1.12-1.4-1.48-.59-1.44.42-1.18,1.16-.78-1.38-.91-1.16-1.5.29-1.46-.12-.12-1.35-.94-.83-1-.83-1.45-.43,0-1.35.76-1.22L133,57.63l-1.24-.81.91-1.08.68-1-.46-1.09-.74-1.31,1.45-.64.89-.82.12-1,.52-1.06,1.12-.83,1.46.2.85-1.05.35-1.32,1.29.64,1.3-.5,1.41-.27.79-1.41" transform="translate(0 0)"/><path id="path21330" class="cls-16" d="M156.11,67.17c-1.42-.13-2.53-.27-2.49-.53s.48-.35,1.09-.35c.29,0,.61,0,.93,0l.47.84" transform="translate(0 0)"/><path id="path21332" class="cls-14" d="M148.67,72.39a11.31,11.31,0,0,0,0-3.15c-.38-2.7.48-2.88,1.43-4.12l1.12.08.75-1.07.29-1.11,1.14-.34,1.18-.82-.71-1.29.44-1.37.9-.83,1-1.11.7.4-.78,1.23-.48,1.44.71,1.38,1.49.94-1,1.15-.91.84L155.46,66l.18.31c-.32,0-.64,0-.93,0-.61,0-1.05.08-1.09.35s1.07.39,2.49.53l.07.13-1.18.82-1.14.34-.29,1.1-.76,1.09-1.33-.11-1.56-.43-.53,1.53-.72.75" transform="translate(0 0)"/><path id="path21334" class="cls-15" d="M148.33,72.73l-1.12-1.39-1.47-.58-1.44.41-1.18,1.15L142.34,71l-.91-1.16-1.5.3L138.48,70l-.12-1.35-1-.83-1-.84L135,66.52l0-1.35.78-1.22-1.14-.87-1.23-.81.8-1,.68.21,1,.83.94.83.12,1.35,1.46.12,1.5-.29.91,1.16.78,1.38,1.18-1.16,1.44-.42,1.48.59,1.12,1.4,1-1.1.52-1.53,1.57.43.22,0c-.95,1.24-1.81,1.42-1.43,4.12a11.31,11.31,0,0,1,0,3.15l-.34.34" transform="translate(0 0)"/><path id="path21336" class="cls-14" d="M155.49,56.73l-.72-.46-.71-1.39.47-1.4.24,1.31.06,1.18.66.76" transform="translate(0 0)"/><path id="path21338" class="cls-9" d="M146.74,67.3l-1.12-1.4-1.48-.59-1.44.42-1.18,1.16-.78-1.38-.91-1.16-1.5.29-1.46-.12-.12-1.35-.94-.83-1-.83-.68-.21.1-.12.68-1-.45-1.09-.75-1.3,1.2-.54-.07.37-.31,1.14,1.19.26,1.13.33-.17,1.2.48,1.05,1.2-.12,1,.35,1,.36.53,1,1.11-.35,1-.71,1.06.63,1,.84.49-1.28.91-.77h1.29l1.3.75.42-1.18-.12-1.38,1.3-.14,1-.34.2-1.08-.14-1,.72-.62.61-1-1-.8L152,53.58l.06-.15.73-.06,1.65-.16.05.27-.47,1.4.71,1.39.72.46.18.19.55.34-1,1.11-.9.83-.44,1.37.71,1.29-1.18.82-1.14.34L152,64.13l-.75,1.07-1.12-.08-.22,0-1.57-.44-.52,1.54-1,1.09" transform="translate(0 0)"/><path id="path21340" class="cls-10" d="M139.21,45.12l1.21.45,1,.11.77-.66,1-.61,1.07.53.65,1.35,1.15-.61,1.16-.64.74,1.14.44.92.93.48,1.17.2L150.3,49l.12,1.27,1,.87,1.41.27-.4,1.24-.39.94.13,1.21,1,.8-.61,1-.72.62.14,1-.2,1.08-1,.34-1.31.14.13,1.38-.42,1.18-1.3-.75h-1.29l-.91.77-.49,1.28-1-.84L143,62.14l-1,.71-1.11.35-.53-1-1-.36-1-.35-1.2.12-.48-1.05.16-1.2L135.72,59l-1.18-.26.31-1.14.17-1-.69-.71-1-.79.86-1,.39-.93-.27-.86,0-1,.55-1,1.15-.3.29-1.09-.19-1.16,1.17.11.79-.8,1-.66.13-1.35" transform="translate(0 0)"/><path id="path21342" class="cls-11" d="M145.12,60.91l-.73-.57-.72-.44-.7.48-.77.25-.37-.71-.67-.24-.69-.24-.85.08-.32-.72.11-.83-.78-.23-.81-.17.21-.79.12-.68-.48-.5-.68-.55.59-.67.27-.63-.19-.6,0-.67.37-.7.8-.2.19-.75-.12-.8.8.07.54-.55.67-.46.08-.92.85.3.67.09.53-.46.68-.43.74.38.44.91.8-.41.8-.45.51.8.3.63.65.33.8.13-.11.84.08.87.68.61,1,.18-.26.85-.27.65.08.84.67.55-.42.7-.51.42.11.66-.15.75-.7.23-.9.1.09.95-.29.82L147,59.5h-.89l-.64.53-.33.88" transform="translate(0 0)"/><path id="path21344" class="cls-12" d="M142.39,48l.69.26.55.05.43-.36.55-.35.6.3.36.76.64-.35.66-.36.41.65.25.51.52.27.65.11-.08.68,0,.71.56.49.8.15-.23.69-.22.52.08.68.53.45-.34.56-.41.36.09.53-.12.62-.57.18-.72.08.06.77-.24.66-.72-.42h-.71l-.52.44-.28.71-.58-.46-.6-.35L144,58l-.63.2-.3-.57-.54-.21-.57-.19-.68.07-.26-.59.09-.68-.64-.18-.66-.14L140,55l.09-.56-.39-.4-.55-.45.48-.53.21-.52-.14-.49,0-.55L140,51l.65-.17.15-.6-.1-.65.65.05.44-.45.54-.36.08-.76" transform="translate(0 0)"/><path id="path21346" class="cls-7" d="M109.9,17.81l.85.76.78.41.87-.26,1-.16.69.77.07,1.26,1.17-.09,1.19-.12.21,1.15,0,.85.6.69.9.53-.56.9-.35,1,.52,1,1.09.67-.76.84-.66.6-.33,1,.52.95-.85.58-.82.25-.22.8-.54.78-1-.08-1.13-.3-.39,1.1-.76.8-.8-1-1.08-.43-1,.3-.86.84-.57-1-.65-.84L106,32.6l-1-.1-.08-1-.69-.6-.72-.61-1-.31,0-1,.55-.89-.81-.63-.9-.59.66-.78.49-.73-.33-.79-.53-.94,1-.47.64-.59.08-.77.38-.76.81-.59,1.07.14.61-.76.25-1,.93.47,1-.37,1-.2.57-1" transform="translate(0 0)"/><path id="path21348" class="cls-15" d="M113.27,38.45l-.8-1L111.39,37l-1,.31-.72.7-.37-.28-.32-.58-.66-.84-.7.14c-2-1.47-1-1.91-1.8-3.88l.25,0,1.09-.22.65.83.57,1,.86-.84,1-.3,1.08.42.8,1,.76-.79.39-1.11,1.13.31,1,.08.54-.78.22-.8.82-.25.85-.58-.52-.95.33-1,.66-.6.73-.81.5.3-.57.9-.35,1,.52,1,1.08.67-.76.83-.65.61-.32,1,.51.93-.85.59-.83.25-.21.79-.55.79-1-.08-1.13-.31-.39,1.1-.76.8" transform="translate(0 0)"/><path id="path21350" class="cls-8" d="M109.5,38.15l-.24-.41.37.28-.13.13m-2.3-1.62-1.06-.09-.08-1-.69-.6-.72-.61-1-.3,0-1,.56-.89-.82-.63-.89-.59.58-.69.49.14.72.61.69.6.08,1,.8.08c.84,2-.15,2.41,1.8,3.88l-.38.07" transform="translate(0 0)"/><path id="path21352" class="cls-15" d="M118.45,26.86l-.52-.32-.52-1,.35-1,.17.95,0,.86.47.53" transform="translate(0 0)"/><path id="path21354" class="cls-9" d="M112.11,34.51l-.8-1-1.08-.43-1,.3-.86.84-.57-1-.65-.84L106,32.6l-.25,0-.8-.08-.08-1-.69-.6-.72-.61-.49-.14.07-.09.5-.73-.33-.79-.54-.95.87-.38,0,.27-.23.83.86.18.82.23-.13.87.36.76.87-.08.73.25.7.26.39.74.82-.26.73-.51.76.46.75.61.36-.93.67-.56h.92l.94.55.3-.86-.08-1,.94-.11.74-.24.14-.79-.11-.69.53-.45.45-.73-.7-.58-.09-.88,0-.1.52,0,1.2-.13,0,.21-.35,1,.52,1,.52.32.13.15.41.23-.73.81-.66.6-.33,1,.52.95-.85.58-.82.25-.22.8-.54.78-1-.08-1.13-.31-.39,1.11-.76.79" transform="translate(0 0)"/><path id="path21356" class="cls-10" d="M106.67,18.46l.88.33.71.09.56-.48.71-.45.77.39.47,1,.84-.43.84-.46.54.83.31.66.68.35.84.14-.12.88.08.91.72.64,1,.19-.27.9-.29.67.09.89.7.57-.45.73-.53.45.11.69-.14.79-.74.24-.94.11.08,1-.3.86-.94-.55H112l-.67.56-.36.92-.75-.6-.76-.46-.73.51-.82.26-.39-.74-.7-.26-.73-.25-.87.08-.36-.76.13-.87-.82-.23-.86-.19.23-.82.12-.72-.5-.53-.71-.56.62-.7.27-.67-.19-.63,0-.71.4-.72.82-.22.2-.79-.12-.84.85.08.56-.59.7-.47.09-1" transform="translate(0 0)"/><path id="path21358" class="cls-11" d="M111,29.89l-.52-.42-.53-.31-.51.35-.55.18-.27-.51-.48-.18-.51-.17-.61.05-.24-.52.09-.6-.57-.17-.59-.12.17-.56.08-.5-.35-.36-.49-.4.42-.48.2-.46-.13-.43,0-.49.26-.5.58-.15.15-.55-.1-.57.59,0,.39-.39.48-.33.06-.67.62.23.48,0,.39-.32.49-.31.52.27.33.67.57-.31.59-.32.37.58.22.46.46.24.59.09-.09.6.06.64.5.44.7.13-.19.62-.21.46.07.61.48.4-.3.5-.37.32.08.47-.1.54-.51.17-.65.08,0,.68-.2.59-.65-.38h-.64l-.46.38-.24.64" transform="translate(0 0)"/><path id="path21360" class="cls-12" d="M109,20.57l.5.19.39,0,.32-.27.4-.26.43.22.26.55.47-.26.48-.25.29.46.18.37.38.2.47.08-.06.49,0,.52.4.35.57.11-.15.5-.16.38.06.49.38.32-.25.41-.29.25,0,.39-.07.45-.42.12-.53.07,0,.56-.17.48-.52-.31H112l-.38.32-.2.52-.41-.35-.44-.25-.41.29-.45.14-.21-.42-.4-.14-.41-.15-.49.06-.2-.42.07-.5-.45-.13-.49-.11.13-.45.07-.41-.29-.29-.4-.32.36-.39.15-.38L107,23.5l0-.4.22-.4.47-.13.12-.43-.08-.47.48,0,.32-.33.38-.26.06-.55" transform="translate(0 0)"/><path id="path21362" class="cls-7" d="M116.56,100l1.37,1.22,1.25.65,1.4-.42,1.68-.26,1.11,1.25.11,2,1.88-.15,1.92-.2.34,1.84.07,1.38,1,1.1,1.45.87-.91,1.44-.55,1.66.83,1.62,1.73,1.09L130,116.5l-1.06,1-.5,1.6.83,1.51-1.38,1-1.33.4-.34,1.28-.88,1.26-1.55-.13-1.82-.49-.62,1.78-1.23,1.28c-.84.11-.56-1.24-1.31-1.63s-.87-.62-1.71-.68l-1.68.48L114,126.43l-.92-1.6-1-1.36-1.76.35-1.7-.14-.14-1.58-1.09-1-1.16-1-1.68-.49,0-1.58.9-1.42-1.33-1-1.44-1,1.06-1.26.79-1.18L104,111l-.86-1.52,1.68-.76,1-1,.13-1.22.61-1.23,1.29-1,1.72.23,1-1.23.41-1.53,1.5.74L114,102l1.65-.31.93-1.64" transform="translate(0 0)"/><path id="path21364" class="cls-17" d="M121.53,133.1a3.47,3.47,0,0,1-.37-.86.29.29,0,0,1,.23-.12h0c.2,0,.21.4.11,1" transform="translate(0 0)"/><path id="path21366" class="cls-14" d="M121.89,133.25a.45.45,0,0,1-.36-.15c.1-.58.09-.95-.11-1h0a.29.29,0,0,0-.23.12,1.1,1.1,0,0,0-.48-.62c-.75-.39-.88-.62-1.72-.67l-1.68.48-1.37,1.34-.91-1.59-1.06-1.36-1.75.35-1.7-.15-.14-1.57-1.1-1-1.16-1,0,0c1-1.07,1.6-1.93,2.25-2.66h0l1.76-.35,1,1.36.91,1.6,1.38-1.35,1.68-.48c.84.06,1,.29,1.71.68s.49,1.63,1.22,1.63h.09l1.23-1.28.62-1.78,1.82.49,1.55.13.42-.59c1.2,1.33,2.24,2.73,3.56,2.73a2.29,2.29,0,0,0,1.21-.39l.16-.1.44.81-1.38.94-1.32.4-.34,1.29-.88,1.26-1.56-.13-1.82-.5-.62,1.79L122,133.25h-.1M132.6,122c0-.26,0-.54.06-.81l.44.27-.5.54" transform="translate(0 0)"/><path id="path21368" class="cls-15" d="M129.32,126.61c-1.32,0-2.36-1.4-3.56-2.73l.46-.67.34-1.28,1.33-.4,1.38-1-.83-1.51.5-1.6,1.06-1,1.18-1.3.8.48-.9,1.44-.56,1.67.83,1.62,1.31.82c0,.27,0,.55-.06.81l-.73.8-1.05,1-.52,1.6.39.7-.16.1a2.29,2.29,0,0,1-1.21.39M108,126.48l-1.62-.47-.06-1.58.9-1.42L106,122l-1.45-1,.94-1.11.79.23,1.16,1,1.09,1,.14,1.58,1.67.14c-.65.73-1.25,1.59-2.25,2.66m22.28-11.89-.83-.53-.83-1.62.54-1.63.29,1.53.07,1.38.76.87" transform="translate(0 0)"/><path id="path21370" class="cls-9" d="M120,126.91c-.72,0-.49-1.26-1.21-1.63s-.87-.62-1.71-.68l-1.68.48L114,126.43l-.92-1.6-1-1.36-1.76.35h0l-1.67-.14-.14-1.58-1.09-1-1.16-1-.79-.23.13-.15.78-1.17-.53-1.28-.87-1.51,1.4-.63-.07.45-.37,1.31,1.38.31,1.31.38-.19,1.4.55,1.22,1.42-.14,1.18.41,1.13.41.63,1.2,1.3-.41,1.18-.82,1.23.73,1.21,1,.57-1.48,1.08-.91h1.5l1.51.87.49-1.38-.14-1.6,1.51-.18,1.2-.38.23-1.27-.17-1.12.84-.72.71-1.18-1.12-.93-.15-1.42.07-.16.85-.06,1.93-.2,0,.32-.54,1.63.83,1.62.83.53.22.23.64.38L130,116.5l-1.06,1-.51,1.6.84,1.51-1.38,1-1.33.4-.34,1.28-.46.67-.42.59-1.56-.13-1.81-.49-.62,1.78-1.23,1.28H120" transform="translate(0 0)"/><path id="path21372" class="cls-10" d="M111.35,101.06l1.41.53,1.15.13.9-.76,1.15-.73,1.24.63.75,1.56,1.34-.7,1.36-.76.87,1.35.51,1.06,1.09.57,1.36.22-.19,1.41.13,1.49,1.15,1,1.65.31-.45,1.44-.47,1.09.15,1.42,1.12.93-.71,1.18-.84.72.17,1.12-.23,1.27-1.2.38-1.51.18.14,1.6-.49,1.38-1.51-.87H119.9l-1.09.91-.57,1.48-1.21-1-1.23-.73-1.18.82-1.3.41-.63-1.2-1.13-.41-1.18-.41-1.41.14-.56-1.22.19-1.4-1.31-.38-1.38-.31.37-1.31.18-1.17-.8-.84-1.15-.93,1-1.12.45-1.06-.31-1,.06-1.16.62-1.16,1.35-.36.33-1.27-.21-1.34,1.36.12.93-.94,1.11-.76.15-1.58" transform="translate(0 0)"/><path id="path21374" class="cls-11" d="M118.23,119.47l-.83-.67-.85-.51-.81.57-.9.28-.44-.82-.78-.29-.81-.27-1,.09-.38-.84.13-1-.91-.26-1-.21.26-.92.13-.8-.56-.58-.79-.63.69-.78.31-.73-.21-.7,0-.8.43-.8.93-.24.23-.88-.15-.92.94.07.64-.64.76-.52.11-1.09,1,.37.79.08.62-.53.79-.5.85.43.52,1.08.93-.48.93-.52.61.92.34.74.75.39.94.15-.13,1,.09,1,.79.69,1.14.22-.31,1-.32.75.11,1,.77.63-.5.81-.58.51.12.76-.16.88-.82.27-1,.12.1,1.1-.34.94-1-.59h-1l-.74.62-.4,1" transform="translate(0 0)"/><path id="path21376" class="cls-12" d="M115.06,104.46l.8.29.64.08.5-.44.64-.41.7.36.43.87.75-.39.75-.42.5.75.27.59.62.33.75.12-.1.79.08.83.65.56.91.19-.25.8-.26.62.09.79.62.52-.39.66-.47.41.09.62-.13.71-.68.22-.84.1.07.88-.27.78-.84-.49h-.84l-.6.5-.33.83-.67-.54-.69-.41-.67.46-.73.23-.34-.67-.64-.23-.66-.23-.79.08-.31-.69.1-.79-.73-.21-.78-.17.21-.73.11-.66-.46-.47-.64-.51.56-.64.25-.6-.17-.56,0-.65.35-.65.75-.19.19-.71-.11-.76.76.07.52-.53.62-.42.08-.89" transform="translate(0 0)"/><path id="path21378" class="cls-7" d="M63.15,98.09l1.38,1.23,1.26.66,1.41-.41,1.69-.26L70,100.56l.1,2,1.9-.15,1.93-.2.35,1.86.06,1.38,1,1.11,1.47.88-.91,1.44-.58,1.68.85,1.63,1.75,1.1-1.23,1.35-1.06,1-.52,1.62.83,1.52-1.39.95-1.33.41-.33,1.29L72,122.71l-1.57-.14-1.83-.5-.62,1.8-1.23,1.28c-.85.12-.57-1.24-1.32-1.63s-.88-.63-1.73-.69l-1.69.49-1.39,1.36-.91-1.62-1.06-1.36-1.77.35-1.7-.14-.14-1.6-1.1-1-1.17-1-1.7-.5,0-1.59.91-1.43-1.33-1-1.45-1,1.07-1.27.79-1.18-.53-1.29-.87-1.52,1.69-.76,1-1,.14-1.24.62-1.23,1.3-1,1.72.23,1-1.22.41-1.56,1.51.75,1.52-.59,1.66-.32.93-1.65" transform="translate(0 0)"/><path id="path21380" class="cls-17" d="M64.12,129.64c.82-2,1.62-3.82,2.07-3.82a.1.1,0,0,1,.07,0c.36.16,0,1.63-.62,3.39,0,0,0,0-.06,0l-1.46.43" transform="translate(0 0)"/><path id="path21382" class="cls-14" d="M68.52,131.54c-.72,0-.5-1.27-1.22-1.64s-.87-.61-1.66-.67c.59-1.76,1-3.23.62-3.39a.1.1,0,0,0-.07,0c-.45,0-1.25,1.77-2.07,3.82l-.23.06-1.39,1.36-.91-1.62-1.07-1.37-1.76.36-1.7-.14-.14-1.59-1.11-1-1.16-1-1.7-.5,0-1.46a3.58,3.58,0,0,0,2.09.77c1.32,0,2.35-1,4-1.42l.72.92.91,1.62L62,123.32l1.69-.49c.85.06,1,.29,1.73.69s.49,1.64,1.21,1.64h.11l.93-1c2.85,1.07,3.77-.5,6,2.08a5,5,0,0,1,1,1.76l-.74,1.06L72.3,129c-.69-.07-1-.57-1.48-.57a1.16,1.16,0,0,0-.34.06l-.62,1.8-1.24,1.28h-.1" transform="translate(0 0)"/><path id="path21384" class="cls-15" d="M74.62,128a5,5,0,0,0-1-1.76c-2.21-2.57-3.13-1-6-2.08l.3-.31.62-1.8,1.83.5,1.57.14.89-1.27L73,121a18.23,18.23,0,0,1,2.8-1.64,4.49,4.49,0,0,0,1.87-1.43l.37.71,1.75,1.1-1.23,1.35-1.07,1L77,123.65l.83,1.52-1.39,1-1.33.41-.34,1.29-.14.2M55,123.57a3.65,3.65,0,0,1-2.09-.77v-.13l.91-1.44-1.34-1-1.44-1,.94-1.12.8.24,1.17,1,1.1,1,.14,1.59,1.7.15,1.77-.35.34.44c-1.63.47-2.67,1.43-4,1.43" transform="translate(0 0)"/><path id="path21386" class="cls-8" d="M73,121l.21-.82,1.33-.41,1.39-.95-.83-1.52.52-1.62,1.06-1,1.18-1.3.82.48-.91,1.44L77.2,117l.48.92a4.49,4.49,0,0,1-1.87,1.43A18.23,18.23,0,0,0,73,121m4-8.21-.84-.53-.85-1.63.57-1.64.28,1.53.07,1.39.77.88" transform="translate(0 0)"/><path id="path21388" class="cls-9" d="M66.64,125.16c-.72,0-.49-1.27-1.21-1.64s-.88-.63-1.73-.69l-1.69.49-1.39,1.36-.91-1.62-.72-.92-.34-.44-1.77.35-1.7-.14-.14-1.6-1.1-1-1.17-1-.8-.24.12-.15.8-1.18-.54-1.27L51.48,114l1.41-.63-.07.44-.38,1.33,1.39.3,1.33.39-.2,1.41.56,1.22,1.42-.13,1.19.4,1.14.43.63,1.2,1.31-.42,1.19-.83,1.23.75,1.23,1,.57-1.5,1.08-.9H68l1.51.86.5-1.39-.13-1.59,1.51-.18,1.21-.39.23-1.28-.18-1.12.86-.73.71-1.19-1.12-.93L73,109.06l.08-.17.85-.06,1.93-.2.07.33-.57,1.64.85,1.63.84.53.21.24.65.38-1.18,1.3-1.06,1-.52,1.62.83,1.52-1.39.95-1.33.41L73,121l-.12.47L72,122.71l-1.57-.13-1.83-.51-.62,1.8-.3.31-.93,1h-.11" transform="translate(0 0)"/><path id="path21390" class="cls-10" d="M57.91,99.15l1.44.54,1.14.13.9-.78,1.17-.74,1.24.64.76,1.57,1.35-.7,1.37-.76.87,1.35.51,1.07,1.1.57,1.37.22-.2,1.43.14,1.49,1.16,1,1.66.32L73.42,108,73,109.06l.16,1.43,1.12.93-.71,1.19-.86.73.18,1.12-.23,1.28-1.21.39-1.51.17.13,1.6-.5,1.39L68,118.43H66.51l-1.08.9-.57,1.5-1.23-1-1.23-.75-1.19.83-1.31.42-.63-1.2-1.14-.43-1.19-.4-1.42.13L55,117.24l.2-1.41-1.33-.39-1.39-.3.38-1.33.19-1.17-.82-.86L51,110.86l1-1.12.45-1.09-.3-1,0-1.17.65-1.16,1.34-.36.34-1.27-.22-1.35,1.37.12.93-1,1.12-.76.15-1.59" transform="translate(0 0)"/><path id="path21392" class="cls-11" d="M64.85,117.67,64,117l-.85-.52-.82.57-.9.29-.44-.83-.78-.29-.82-.28-1,.09-.39-.84.14-1-.92-.27-1-.2.26-.92.14-.82-.57-.58-.79-.64L56,110l.32-.74-.22-.7,0-.8.45-.8.92-.25.23-.88-.15-.93.95.07.64-.64.78-.52.1-1.11,1,.37.8.09.62-.53.8-.5.86.44.52,1.08.93-.49.94-.52.61.92.35.75.76.38.94.16-.14,1,.1,1,.8.71,1.14.22-.31,1-.32.76.1,1,.77.65-.49.81-.58.52.12.76-.16.88-.83.27-1.05.12.09,1.11-.34,1-1-.6H66l-.75.63-.39,1" transform="translate(0 0)"/><path id="path21394" class="cls-12" d="M61.65,102.56l.8.3.65.07.51-.43.64-.4.7.35.43.88.76-.4.75-.43.5.76.28.61.61.31.77.13-.1.8.07.83.65.57.93.18-.25.8-.27.63.09.79.62.53-.38.65-.49.43.1.61-.13.73-.68.21-.84.1.07.9-.28.78-.85-.49h-.84l-.6.51-.33.84-.68-.55-.7-.41-.66.46-.74.23-.35-.68-.64-.23-.66-.23-.79.08-.33-.69.12-.78-.75-.22-.77-.18.21-.74.1-.65-.45-.48-.65-.51.56-.64.25-.6-.16-.57,0-.65.36-.66.76-.2.18-.71-.12-.76.77.07.52-.54.63-.42.08-.89" transform="translate(0 0)"/></svg>