<svg id="svg47704" xmlns="http://www.w3.org/2000/svg" viewBox="0 0 422.5 214.07" width="422.5px" height="214.07px"><defs><style>.cls-1{fill:#947549;}.cls-2{fill:#bf905a;}.cls-3{fill:#d3d2d2;}.cls-4{fill:#fff;}.cls-5{fill:#e5e4e4;}.cls-6{fill:#7b613d;}</style></defs><title>sofa-2p</title><path id="path846" class="cls-1" d="M264.33,60.39A43.41,43.41,0,1,1,220.92,17a43.41,43.41,0,0,1,43.41,43.41" transform="translate(0 0)"></path><path id="path848" class="cls-2" d="M263.18,56.18a43.42,43.42,0,1,1-43.42-43.4,43.43,43.43,0,0,1,43.42,43.4" transform="translate(0 0)"></path><path id="path1416" class="cls-3" d="M310.79,71.41V69l.1,1Z" transform="translate(0 0)"></path><path id="path1418" class="cls-3" d="M402.9,69v2.4L402.8,70Z" transform="translate(0 0)"></path><path id="path1420" class="cls-4" d="M310.89,21.85V144.08l-.1,1v28.23l.1,1-.1,1.37c0,16.91,20.62,30.62,46.06,30.62s46-13.71,46-30.62l-.1-1.37.1-1V21.85h-92" transform="translate(0 0)"></path><path id="path1422" class="cls-5" d="M312.3,44.59h93.48V33.05H312.3V44.59" transform="translate(0 0)"></path><path id="path1424" class="cls-5" d="M356.85,200.22c25.43,0,46-13.72,46-30.63v3.74l-.1,1,.1,1.37c0,16.91-20.62,30.62-46,30.62s-46.06-13.71-46.06-30.62l.1-1.37-.1-1v-3.74c0,16.91,20.62,30.63,46.06,30.63" transform="translate(0 0)"></path><path id="path1426" class="cls-6" d="M309.42,37.93H402.9V30.17H309.42v7.76" transform="translate(0 0)"></path><path id="path1428" class="cls-2" d="M416.17,5c3.48-2.13,6.33.65,6.33,6.17V96.78c0,5.52-2.85,8.3-6.33,6.17l-1.5-.92V5.9l1.5-.91" transform="translate(0 0)"></path><path id="path1430" class="cls-2" d="M298.08,5c-3.48-2.13-6.33.65-6.33,6.17V96.78c0,5.52,2.85,8.3,6.33,6.17l1.51-.92V5.9L298.08,5" transform="translate(0 0)"></path><path id="path1432" class="cls-1" d="M405.57,11.47l9.1-5.57V102l-9.1-5.56c-3.48-2.13-6.33-8.4-6.33-13.93V25.38c0-5.52,2.85-11.78,6.33-13.91" transform="translate(0 0)"></path><path id="path1434" class="cls-1" d="M308.68,11.47,299.59,5.9V102l9.09-5.56c3.48-2.13,6.33-8.4,6.33-13.93V25.38c0-5.52-2.85-11.78-6.33-13.91" transform="translate(0 0)"></path><path id="path1436" class="cls-2" d="M306.12,23.62c2.55,4.81,10,8.75,16.62,8.75H391c6.6,0,14.07-3.94,16.61-8.75L415.32,9c2.53-4.81-.78-8.74-7.38-8.74H305.75c-6.6,0-9.91,3.93-7.37,8.74l7.74,14.65" transform="translate(0 0)"></path><path id="path1440" class="cls-3" d="M31.45,90.15,31,87.81l.32,1Z" transform="translate(0 0)"></path><path id="path1442" class="cls-3" d="M121.06,68.65l.5,2.34-.39-1.31Z" transform="translate(0 0)"></path><path id="path1444" class="cls-4" d="M21.25,41.65,46.66,161.2l.12,1,5.87,27.61.31,1,.19,1.36c3.52,16.54,26.53,25.66,51.41,20.37s42.2-23,38.69-39.53l-.39-1.31-.11-1L139,153.17l-2.15-10.09L111.25,22.51l-90,19.14" transform="translate(0 0)"></path><path id="path1446" class="cls-5" d="M27.36,63.6,118.8,44.17l-2.4-11.29L25,52.31l2.4,11.29" transform="translate(0 0)"></path><path id="path1448" class="cls-5" d="M103.29,206.56c24.88-5.29,42.21-23,38.69-39.53l.77,3.66.11,1,.39,1.31c3.51,16.54-13.81,34.24-38.69,39.53s-47.89-3.83-51.41-20.37L53,190.83l-.31-1-.78-3.66c3.52,16.55,26.54,25.67,51.42,20.38" transform="translate(0 0)"></path><path id="path1450" class="cls-6" d="M23.15,57.68l91.44-19.43L113,30.65,21.54,50.1l1.61,7.58" transform="translate(0 0)"></path><path id="path1452" class="cls-2" d="M120.73,3.27c3-2.81,6.32-.69,7.47,4.71L146,91.73c1.15,5.41-1.06,8.72-4.9,7.36l-1.67-.59-20-94,1.29-1.21" transform="translate(0 0)"></path><path id="path1454" class="cls-2" d="M5.21,27.82C1.37,26.46-.85,29.77.3,35.17l17.81,83.76c1.14,5.4,4.51,7.52,7.47,4.71l1.29-1.21-20-94-1.67-.58" transform="translate(0 0)"></path><path id="path1456" class="cls-1" d="M111.7,11.81l7.74-7.33,20,94L129.38,95c-3.85-1.36-7.94-6.89-9.09-12.29L108.41,26.74c-1.15-5.4.33-12.12,3.29-14.93" transform="translate(0 0)"></path><path id="path1458" class="cls-1" d="M16.93,32l-10-3.56,20,94,7.73-7.34c3-2.8,4.45-9.52,3.3-14.92L26,44.25c-1.15-5.4-5.25-10.93-9.09-12.29" transform="translate(0 0)"></path><path id="path1460" class="cls-2" d="M17,44.37c3.48,4.18,11.61,6.48,18.06,5.11l66.74-14.19c6.44-1.37,12.94-6.77,14.43-12l4.52-15.93c1.49-5.23-2.57-8.4-9-7l-100,21.26C5.28,23,2.85,27.49,6.34,31.66L17,44.37" transform="translate(0 0)"></path></svg>