<svg id="svg25029" xmlns="http://www.w3.org/2000/svg" viewBox="0 0 683.5 480.61"><defs><style>.cls-1{fill:#7b613e;}.cls-2{fill:#d3d2d2;}.cls-3{fill:#947549;}.cls-4{fill:#bf905a;}.cls-5{fill:#fff;}.cls-6{fill:#e5e4e4;}.cls-7{fill:#715a39;}.cls-8{fill:#424143;}.cls-9{fill:#535355;}</style></defs><title>sofa-8p</title><path id="path800" class="cls-1" d="M47.48,163.49V272.83H38.41V163.49h9.07" transform="translate(-3.39 0)"/><path id="path802" class="cls-2" d="M86.65,165.08h-2.8l1.2.13Z" transform="translate(-3.39 0)"/><path id="path804" class="cls-2" d="M83.85,272.83h2.8l-1.6-.12Z" transform="translate(-3.39 0)"/><path id="path806" class="cls-3" d="M16.53,276,10,286.59H122.47L116,276c-2.49-4.06-9.82-7.4-16.28-7.4H32.81c-6.46,0-13.78,3.34-16.28,7.4" transform="translate(-3.39 0)"/><path id="path808" class="cls-4" d="M9,288.35c-2.49,4.07.76,7.41,7.22,7.41H116.33c6.46,0,9.71-3.34,7.21-7.41l-1.07-1.76H10L9,288.35" transform="translate(-3.39 0)"/><path id="path810" class="cls-3" d="M16.53,162.61,10,152H122.47L116,162.61c-2.49,4.08-9.82,7.41-16.28,7.41H32.81c-6.46,0-13.78-3.33-16.28-7.41" transform="translate(-3.39 0)"/><path id="path812" class="cls-4" d="M9,150.22c-2.49-4.07.76-7.4,7.22-7.4H116.33c6.46,0,9.71,3.33,7.21,7.4L122.47,152H10L9,150.22" transform="translate(-3.39 0)"/><path id="path814" class="cls-4" d="M30.75,159.62c5.63,3,10.23,11.72,10.23,19.44v79.8c0,7.71-4.6,16.46-10.23,19.44l-17.13,9.05c-5.63,3-10.23-.91-10.23-8.62V159.19c0-7.72,4.6-11.59,10.23-8.62l17.13,9.05" transform="translate(-3.39 0)"/><path id="path816" class="cls-5" d="M58,165.08a17,17,0,0,0-17,17v73.72a17,17,0,0,0,17,17H91l1.2-.12,1.6.12c19.78,0,35.82-24.12,35.82-53.87s-16-53.88-35.82-53.88l-1.6.13-1.2-.13H58" transform="translate(-3.39 0)"/><path id="path818" class="cls-6" d="M122.47,219c0,29.75-16,53.87-35.82,53.87H91l1.2-.12,1.6.12c19.78,0,35.82-24.12,35.82-53.87s-16-53.88-35.82-53.88l-1.6.13-1.2-.13H86.65c19.78,0,35.82,24.13,35.82,53.88" transform="translate(-3.39 0)"/><path id="path822" class="cls-1" d="M642.79,163.49V272.83h9.07V163.49h-9.07" transform="translate(-3.39 0)"/><path id="path824" class="cls-2" d="M603.63,165.08h2.8l-1.2.13Z" transform="translate(-3.39 0)"/><path id="path826" class="cls-2" d="M606.43,272.83h-2.8l1.6-.12Z" transform="translate(-3.39 0)"/><path id="path828" class="cls-3" d="M673.74,276l6.51,10.64H567.81L574.32,276c2.49-4.06,9.82-7.4,16.28-7.4h66.86c6.47,0,13.79,3.34,16.28,7.4" transform="translate(-3.39 0)"/><path id="path830" class="cls-4" d="M681.33,288.35c2.49,4.07-.76,7.41-7.22,7.41H574c-6.46,0-9.7-3.34-7.22-7.41l1.08-1.76H680.25l1.08,1.76" transform="translate(-3.39 0)"/><path id="path832" class="cls-3" d="M673.74,162.61,680.25,152H567.81l6.51,10.63c2.49,4.08,9.82,7.41,16.28,7.41h66.86c6.47,0,13.79-3.33,16.28-7.41" transform="translate(-3.39 0)"/><path id="path834" class="cls-4" d="M681.33,150.22c2.49-4.07-.76-7.4-7.22-7.4H574c-6.46,0-9.7,3.33-7.22,7.4l1.08,1.76H680.25l1.08-1.76" transform="translate(-3.39 0)"/><path id="path836" class="cls-4" d="M659.53,159.62c-5.63,3-10.23,11.72-10.23,19.44v79.8c0,7.71,4.6,16.46,10.23,19.44l17.13,9.05c5.63,3,10.23-.91,10.23-8.62V159.19c0-7.72-4.6-11.59-10.23-8.62l-17.13,9.05" transform="translate(-3.39 0)"/><path id="path838" class="cls-5" d="M632.28,165.08a17,17,0,0,1,17,17v73.72a17,17,0,0,1-17,17h-33l-1.21-.12-1.59.12c-19.79,0-35.82-24.12-35.82-53.87s16-53.88,35.82-53.88l1.59.13,1.21-.13h33" transform="translate(-3.39 0)"/><path id="path840" class="cls-6" d="M567.81,219c0,29.75,16,53.87,35.82,53.87h-4.37l-1.21-.12-1.59.12c-19.79,0-35.82-24.12-35.82-53.87s16-53.88,35.82-53.88l1.59.13,1.21-.13h4.37c-19.78,0-35.82,24.13-35.82,53.88" transform="translate(-3.39 0)"/><path id="path852" class="cls-2" d="M283.15,83V80.23l-.12,1.2Z" transform="translate(-3.39 0)"/><path id="path854" class="cls-2" d="M390.48,83V80.23l-.12,1.2Z" transform="translate(-3.39 0)"/><path id="path856" class="cls-7" d="M515.67,114.88H171V18.74H515.67v96.14" transform="translate(-3.39 0)"/><path id="path858" class="cls-2" d="M175.71,80.23V83l.12-1.59Z" transform="translate(-3.39 0)"/><path id="path860" class="cls-3" d="M172.59,13.11,162,6.61V118.74l10.61-6.49c4.06-2.49,7.39-9.79,7.39-16.23V29.34c0-6.44-3.33-13.75-7.39-16.23" transform="translate(-3.39 0)"/><path id="path862" class="cls-4" d="M160.23,5.55c-4.06-2.49-7.38.75-7.38,7.2v99.86c0,6.45,3.32,9.68,7.38,7.2l1.75-1.07V6.61l-1.75-1.06" transform="translate(-3.39 0)"/><path id="path864" class="cls-3" d="M505.07,13.11l10.6-6.5V118.74l-10.6-6.49c-4.07-2.49-7.39-9.79-7.39-16.23V29.34c0-6.44,3.32-13.75,7.39-16.23" transform="translate(-3.39 0)"/><path id="path866" class="cls-4" d="M517.43,5.55c4.06-2.49,7.38.75,7.38,7.2v99.86c0,6.45-3.32,9.68-7.38,7.2l-1.76-1.07V6.61l1.76-1.06" transform="translate(-3.39 0)"/><path id="path868" class="cls-4" d="M516.53,0H169.83c-7.69,0-11.56,4.58-8.6,10.2l9,17.08c3,5.61,11.68,10.21,19.38,10.21H496.71c7.7,0,16.42-4.6,19.38-10.21l9-17.08c3-5.61-.9-10.2-8.59-10.2" transform="translate(-3.39 0)"/><path id="path870" class="cls-2" d="M497.8,83V80.23l-.12,1.2Z" transform="translate(-3.39 0)"/><path id="path872" class="cls-5" d="M283.15,54.45a17,17,0,0,0-17-17h-73.5a17,17,0,0,0-17,17V87.38l.12,1.2-.12,1.59c0,19.73,24,35.73,53.72,35.73s53.72-16,53.72-35.73L283,88.58l.12-1.2V54.45" transform="translate(-3.39 0)"/><path id="path874" class="cls-6" d="M229.43,118.74c-29.67,0-53.72-16-53.72-35.72v4.36l.12,1.2-.12,1.59c0,19.73,24,35.73,53.72,35.73s53.72-16,53.72-35.73L283,88.58l.12-1.2V83c0,19.73-24,35.72-53.72,35.72" transform="translate(-3.39 0)"/><path id="path876" class="cls-5" d="M390.48,54.45a17,17,0,0,0-17-17H300a17,17,0,0,0-17,17V87.38l.12,1.2L283,90.17c0,19.73,24.05,35.73,53.72,35.73s53.73-16,53.73-35.73l-.12-1.59.12-1.2V54.45" transform="translate(-3.39 0)"/><path id="path878" class="cls-6" d="M336.75,118.74c-29.67,0-53.72-16-53.72-35.72v4.36l.12,1.2L283,90.17c0,19.73,24.05,35.73,53.72,35.73s53.73-16,53.73-35.73l-.12-1.59.12-1.2V83c0,19.73-24.06,35.72-53.73,35.72" transform="translate(-3.39 0)"/><path id="path880" class="cls-5" d="M497.8,54.45a17,17,0,0,0-17-17h-73.5a17,17,0,0,0-17,17V87.38l.12,1.2-.12,1.59c0,19.73,24.05,35.73,53.72,35.73s53.72-16,53.72-35.73l-.12-1.59.12-1.2V54.45" transform="translate(-3.39 0)"/><path id="path882" class="cls-6" d="M444.08,118.74c-29.67,0-53.72-16-53.72-35.72v4.36l.12,1.2-.12,1.59c0,19.73,24.05,35.73,53.72,35.73s53.72-16,53.72-35.73l-.12-1.59.12-1.2V83c0,19.73-24.05,35.72-53.72,35.72" transform="translate(-3.39 0)"/><path id="path886" class="cls-2" d="M283.15,397.59v2.79l-.12-1.21Z" transform="translate(-3.39 0)"/><path id="path888" class="cls-2" d="M390.48,397.59v2.79l-.12-1.21Z" transform="translate(-3.39 0)"/><path id="path890" class="cls-7" d="M515.67,365.73H171v96.13H515.67V365.73" transform="translate(-3.39 0)"/><path id="path892" class="cls-2" d="M175.71,400.38v-2.79l.12,1.58Z" transform="translate(-3.39 0)"/><path id="path894" class="cls-3" d="M172.59,467.5,162,474V361.86l10.61,6.5c4.06,2.49,7.39,9.79,7.39,16.22v66.69c0,6.44-3.33,13.74-7.39,16.23" transform="translate(-3.39 0)"/><path id="path896" class="cls-4" d="M160.23,475.06c-4.06,2.48-7.38-.75-7.38-7.2V368c0-6.44,3.32-9.68,7.38-7.19l1.75,1.06V474l-1.75,1.07" transform="translate(-3.39 0)"/><path id="path898" class="cls-3" d="M505.07,467.5l10.6,6.49V361.86l-10.6,6.5c-4.07,2.49-7.39,9.79-7.39,16.22v66.69c0,6.44,3.32,13.74,7.39,16.23" transform="translate(-3.39 0)"/><path id="path900" class="cls-4" d="M517.43,475.06c4.06,2.48,7.38-.75,7.38-7.2V368c0-6.44-3.32-9.68-7.38-7.19l-1.76,1.06V474l1.76,1.07" transform="translate(-3.39 0)"/><path id="path902" class="cls-4" d="M516.53,480.61H169.83c-7.69,0-11.56-4.59-8.6-10.21l9-17.08c3-5.61,11.68-10.2,19.38-10.2H496.71c7.7,0,16.42,4.59,19.38,10.2l9,17.08c3,5.62-.9,10.21-8.59,10.21" transform="translate(-3.39 0)"/><path id="path904" class="cls-2" d="M497.8,397.59v2.79l-.12-1.21Z" transform="translate(-3.39 0)"/><path id="path906" class="cls-5" d="M283.15,426.15a17,17,0,0,1-17,17h-73.5a17,17,0,0,1-17-17V393.23l.12-1.21-.12-1.59c0-19.72,24-35.72,53.72-35.72s53.72,16,53.72,35.72L283,392l.12,1.21v32.92" transform="translate(-3.39 0)"/><path id="path908" class="cls-6" d="M229.43,361.86c-29.67,0-53.72,16-53.72,35.73v-4.36l.12-1.21-.12-1.59c0-19.72,24-35.72,53.72-35.72s53.72,16,53.72,35.72L283,392l.12,1.21v4.36c0-19.73-24-35.73-53.72-35.73" transform="translate(-3.39 0)"/><path id="path910" class="cls-5" d="M390.48,426.15a17,17,0,0,1-17,17H300a17,17,0,0,1-17-17V393.23l.12-1.21-.12-1.59c0-19.72,24.05-35.72,53.72-35.72s53.73,16,53.73,35.72l-.12,1.59.12,1.21v32.92" transform="translate(-3.39 0)"/><path id="path912" class="cls-6" d="M336.75,361.86c-29.67,0-53.72,16-53.72,35.73v-4.36l.12-1.21-.12-1.59c0-19.72,24.05-35.72,53.72-35.72s53.73,16,53.73,35.72l-.12,1.59.12,1.21v4.36c0-19.73-24.06-35.73-53.73-35.73" transform="translate(-3.39 0)"/><path id="path914" class="cls-5" d="M497.8,426.15a17,17,0,0,1-17,17h-73.5a17,17,0,0,1-17-17V393.23l.12-1.21-.12-1.59c0-19.72,24.05-35.72,53.72-35.72s53.72,16,53.72,35.72l-.12,1.59.12,1.21v32.92" transform="translate(-3.39 0)"/><path id="path916" class="cls-6" d="M444.08,361.86c-29.67,0-53.72,16-53.72,35.73v-4.36l.12-1.21-.12-1.59c0-19.72,24.05-35.72,53.72-35.72s53.72,16,53.72,35.72l-.12,1.59.12,1.21v4.36c0-19.73-24.05-35.73-53.72-35.73" transform="translate(-3.39 0)"/><path id="path920" class="cls-8" d="M180,293.88V160.11H482V293.88H180" transform="translate(-3.39 0)"/><path id="path922" class="cls-9" d="M472.75,288.35H189.64V166.06H472.75V288.35" transform="translate(-3.39 0)"/></svg>