<svg id="svg26706" xmlns="http://www.w3.org/2000/svg" viewBox="0 0 342.64 133.76"><defs><style>.cls-1{fill:#748593;}.cls-2{fill:#7e9599;}.cls-3{fill:#678282;}.cls-4{fill:#b0cbd6;}.cls-5{fill:#c7e4ea;}.cls-6{fill:#f1f1f2;}</style></defs><title>Sofa 02</title><rect class="cls-1" y="16.31" width="342.64" height="117.45" rx="13.53"/><rect class="cls-2" x="2.98" y="19.69" width="336.68" height="111.43" rx="12.55"/><rect class="cls-3" y="16.31" width="62.3" height="89.87" rx="7.4"/><rect class="cls-3" x="280.34" y="16.31" width="62.3" height="89.87" rx="7.4"/><rect class="cls-4" x="2.21" y="88.35" width="26.81" height="41.45" rx="7.4"/><rect class="cls-4" x="30.81" y="88.35" width="26.81" height="41.45" rx="7.4"/><rect class="cls-4" x="58.96" y="88.35" width="26.81" height="41.45" rx="7.4"/><rect class="cls-4" x="87.38" y="88.35" width="26.81" height="41.45" rx="7.4"/><rect class="cls-4" x="115.81" y="88.35" width="26.81" height="41.45" rx="7.4"/><rect class="cls-4" x="144.22" y="88.35" width="26.81" height="41.45" rx="7.4"/><rect class="cls-4" x="172.48" y="88.35" width="26.81" height="41.45" rx="7.4"/><rect class="cls-4" x="200.66" y="88.35" width="26.81" height="41.45" rx="7.4"/><rect class="cls-4" x="228.92" y="88.35" width="26.81" height="41.45" rx="7.4"/><rect class="cls-4" x="257.34" y="88.35" width="26.81" height="41.45" rx="7.4"/><rect class="cls-4" x="58.36" y="50.01" width="26.81" height="37.52" rx="7.4"/><rect class="cls-4" x="86.79" y="50.01" width="26.81" height="37.52" rx="7.4"/><rect class="cls-4" x="115.21" y="50.01" width="26.81" height="37.52" rx="7.4"/><rect class="cls-4" x="144.09" y="50.01" width="26.81" height="37.52" rx="7.4"/><rect class="cls-4" x="172.35" y="50.01" width="26.81" height="37.52" rx="7.4"/><rect class="cls-4" x="200.06" y="50.01" width="26.81" height="37.52" rx="7.4"/><rect class="cls-4" x="228.32" y="50.01" width="26.81" height="37.52" rx="7.4"/><rect class="cls-4" x="256.75" y="50.01" width="26.81" height="37.52" rx="7.4"/><rect class="cls-4" x="285.76" y="88.35" width="26.81" height="41.45" rx="7.4"/><rect class="cls-4" x="314.01" y="88.35" width="26.81" height="41.45" rx="7.4"/><rect class="cls-1" x="281.87" y="18.52" width="59.23" height="85.45" rx="7.4"/><rect class="cls-5" x="287.74" y="20.54" width="51.96" height="81.4" rx="7.4"/><rect class="cls-1" x="2.21" y="18.56" width="59.23" height="85.45" rx="7.4"/><rect class="cls-5" x="3.62" y="20.59" width="51.02" height="81.4" rx="7.4"/><rect class="cls-6" x="174.38" y="1.81" width="139.14" height="37.74" rx="7.4"/><path class="cls-2" d="M340.4-126h21.27c3.46.12,3.4-4.2,3.4-4.58v-31a7.41,7.41,0,0,0-7.41-7.4h-128a7.41,7.41,0,0,0-7.41,7.4v34.44a7.41,7.41,0,0,0,7.41,7.41H333.09A7.4,7.4,0,0,1,340.4-126Z" transform="translate(-50.32 168.99)"/><rect class="cls-5" x="173.74" y="1.81" width="139.14" height="37.74" rx="7.4"/><path class="cls-2" d="M103.74-126H83.22c-4.35.15-4.14-4.29-4.14-4.67v-30.88a7.41,7.41,0,0,1,7.41-7.4H214.54a7.4,7.4,0,0,1,7.4,7.4v34.44a7.4,7.4,0,0,1-7.4,7.41H111.05A7.39,7.39,0,0,0,103.74-126Z" transform="translate(-50.32 168.99)"/><rect class="cls-5" x="80.94" y="-167.18" width="139.14" height="37.74" rx="7.4" transform="translate(250.7 -127.64) rotate(-180)"/></svg>