<svg id="svg26706" xmlns="http://www.w3.org/2000/svg" viewBox="0 0 342.64 133.76"><defs><style>.cls-1{fill:#808184;}.cls-2{fill:#929497;}.cls-3{fill:#d0d2d3;}.cls-4{fill:#bbbdbf;}.cls-5{fill:#f1f1f2;}.cls-6{fill:#b3b3b3;}</style></defs><title>Sofa 01</title><rect class="cls-1" y="16.31" width="342.64" height="117.45" rx="13.53"/><rect class="cls-2" x="2.98" y="19.69" width="336.68" height="111.43" rx="12.55"/><rect class="cls-2" y="16.31" width="62.3" height="89.87" rx="7.4"/><rect class="cls-2" x="280.34" y="16.31" width="62.3" height="89.87" rx="7.4"/><rect class="cls-3" x="2.21" y="88.35" width="26.81" height="41.45" rx="7.4"/><rect class="cls-3" x="30.81" y="88.35" width="26.81" height="41.45" rx="7.4"/><rect class="cls-3" x="58.96" y="88.35" width="26.81" height="41.45" rx="7.4"/><rect class="cls-3" x="87.38" y="88.35" width="26.81" height="41.45" rx="7.4"/><rect class="cls-3" x="115.81" y="88.35" width="26.81" height="41.45" rx="7.4"/><rect class="cls-3" x="144.22" y="88.35" width="26.81" height="41.45" rx="7.4"/><rect class="cls-3" x="172.48" y="88.35" width="26.81" height="41.45" rx="7.4"/><rect class="cls-3" x="200.66" y="88.35" width="26.81" height="41.45" rx="7.4"/><rect class="cls-3" x="228.92" y="88.35" width="26.81" height="41.45" rx="7.4"/><rect class="cls-3" x="257.34" y="88.35" width="26.81" height="41.45" rx="7.4"/><rect class="cls-3" x="58.36" y="50.01" width="26.81" height="37.52" rx="7.4"/><rect class="cls-3" x="86.79" y="50.01" width="26.81" height="37.52" rx="7.4"/><rect class="cls-3" x="115.21" y="50.01" width="26.81" height="37.52" rx="7.4"/><rect class="cls-3" x="143.63" y="50.01" width="26.81" height="37.52" rx="7.4"/><rect class="cls-3" x="171.88" y="50.01" width="26.81" height="37.52" rx="7.4"/><rect class="cls-3" x="200.06" y="50.01" width="26.81" height="37.52" rx="7.4"/><rect class="cls-3" x="228.32" y="46.08" width="26.81" height="41.45" rx="7.4"/><rect class="cls-3" x="256.75" y="50.01" width="26.81" height="37.52" rx="7.4"/><rect class="cls-3" x="285.76" y="88.35" width="26.81" height="41.45" rx="7.4"/><rect class="cls-3" x="314.01" y="88.35" width="26.81" height="41.45" rx="7.4"/><rect class="cls-4" x="281.87" y="18.52" width="59.23" height="85.45" rx="7.4"/><rect class="cls-5" x="287.74" y="20.54" width="51.96" height="81.4" rx="7.4"/><rect class="cls-4" x="2.21" y="18.56" width="59.23" height="85.45" rx="7.4"/><rect class="cls-5" x="3.62" y="20.59" width="51.02" height="81.4" rx="7.4"/><rect class="cls-5" x="174.38" y="1.81" width="139.14" height="37.74" rx="7.4"/><path class="cls-6" d="M351.45,74.89h21.26c3.46.13,3.4-4.19,3.4-4.57v-31A7.4,7.4,0,0,0,368.7,32h-128a7.4,7.4,0,0,0-7.4,7.4V73.79a7.4,7.4,0,0,0,7.4,7.4H344.13A7.41,7.41,0,0,1,351.45,74.89Z" transform="translate(-61.36 -31.95)"/><rect class="cls-5" x="173.74" y="1.81" width="139.14" height="37.74" rx="7.4"/><path class="cls-6" d="M114.78,74.89H94.27c-4.36.16-4.15-4.28-4.15-4.66V39.35A7.4,7.4,0,0,1,97.53,32H225.58a7.4,7.4,0,0,1,7.41,7.4V73.79a7.4,7.4,0,0,1-7.41,7.4H122.1A7.41,7.41,0,0,0,114.78,74.89Z" transform="translate(-61.36 -31.95)"/><rect class="cls-5" x="91.98" y="33.75" width="139.14" height="37.74" rx="7.4" transform="translate(261.75 73.29) rotate(-180)"/></svg>