<svg id="svg26706" xmlns="http://www.w3.org/2000/svg" viewBox="0 0 305.38 298.3"><defs><style>.cls-1{fill:#748593;}.cls-2{fill:#7e9599;}.cls-3{fill:#b0cbd6;}.cls-4{fill:#c7e4ea;}</style></defs><title>Sofa 03</title><rect class="cls-1" x="183.88" y="114.39" width="281.99" height="117.45" rx="13.53" transform="translate(57.23 482.19) rotate(-90)"/><rect class="cls-1" y="16.31" width="186.72" height="117.45" rx="13.53"/><rect class="cls-2" x="1.51" y="19.69" width="189.64" height="111.43" rx="12.55"/><rect class="cls-1" y="16.31" width="62.3" height="89.87" rx="7.4"/><rect class="cls-3" x="2.21" y="88.35" width="26.81" height="41.45" rx="7.4"/><rect class="cls-3" x="30.81" y="88.35" width="26.81" height="41.45" rx="7.4"/><rect class="cls-3" x="58.96" y="88.35" width="26.81" height="41.45" rx="7.4"/><rect class="cls-3" x="87.98" y="88.35" width="26.81" height="41.45" rx="7.4"/><rect class="cls-3" x="117.14" y="88.35" width="26.81" height="41.45" rx="7.4"/><rect class="cls-3" x="146.9" y="88.35" width="26.81" height="41.45" rx="7.4"/><rect class="cls-3" x="58.36" y="50.01" width="26.81" height="37.52" rx="7.4"/><rect class="cls-3" x="87.38" y="50.01" width="26.81" height="37.52" rx="7.4"/><rect class="cls-3" x="116.55" y="50.01" width="26.81" height="37.52" rx="7.4"/><rect class="cls-3" x="146.31" y="50.01" width="26.81" height="37.52" rx="7.4"/><rect class="cls-1" x="2.21" y="18.56" width="59.23" height="85.45" rx="7.4"/><rect class="cls-4" x="3.62" y="20.59" width="51.02" height="81.4" rx="7.4"/><rect class="cls-2" x="188.42" y="120.8" width="272.17" height="111.43" rx="12.55" transform="translate(53.46 485.21) rotate(-90)"/><rect class="cls-1" x="307.52" y="238.02" width="62.3" height="89.87" rx="7.4" transform="translate(-38.83 605.82) rotate(-90)"/><rect class="cls-3" x="277.43" y="277.77" width="26.81" height="41.45" rx="7.4" transform="translate(-102.19 573.52) rotate(-90)"/><rect class="cls-3" x="277.43" y="249.17" width="26.81" height="41.45" rx="7.4" transform="translate(-73.59 544.93) rotate(-90)"/><rect class="cls-3" x="277.43" y="221.02" width="26.81" height="41.45" rx="7.4" transform="translate(-45.44 516.78) rotate(-90)"/><rect class="cls-3" x="277.43" y="192.6" width="26.81" height="41.45" rx="7.4" transform="translate(-17.02 488.35) rotate(-90)"/><rect class="cls-3" x="277.43" y="164.17" width="26.81" height="41.45" rx="7.4" transform="translate(11.41 459.93) rotate(-90)"/><rect class="cls-3" x="277.43" y="135.76" width="26.81" height="41.45" rx="7.4" transform="translate(39.82 431.51) rotate(-90)"/><rect class="cls-3" x="317.74" y="223.58" width="26.81" height="37.52" rx="7.4" transform="translate(-5.74 557.67) rotate(-90)"/><rect class="cls-3" x="317.74" y="195.16" width="26.81" height="37.52" rx="7.4" transform="translate(22.69 529.25) rotate(-90)"/><rect class="cls-3" x="317.74" y="166.73" width="26.81" height="37.52" rx="7.4" transform="translate(51.11 500.82) rotate(-90)"/><rect class="cls-3" x="317.74" y="138.32" width="26.81" height="37.52" rx="7.4" transform="translate(79.53 472.41) rotate(-90)"/><rect class="cls-3" x="277.43" y="106.75" width="26.81" height="41.45" rx="7.4" transform="translate(68.84 402.5) rotate(-90)"/><rect class="cls-3" x="277.43" y="78.32" width="26.81" height="41.45" rx="7.4" transform="translate(97.26 374.08) rotate(-90)"/><rect class="cls-3" x="277.43" y="49.9" width="26.81" height="41.45" rx="7.4" transform="translate(125.68 345.66) rotate(-90)"/><rect class="cls-3" x="317.74" y="109.3" width="26.81" height="37.52" rx="7.4" transform="translate(108.54 443.4) rotate(-90)"/><rect class="cls-3" x="317.74" y="80.88" width="26.81" height="37.52" rx="7.4" transform="translate(136.97 414.97) rotate(-90)"/><rect class="cls-3" x="317.74" y="52.46" width="26.81" height="37.52" rx="7.4" transform="translate(165.38 386.56) rotate(-90)"/><rect class="cls-1" x="309.01" y="239.55" width="59.23" height="85.45" rx="7.4" transform="translate(-38.19 605.1) rotate(-90)"/><rect class="cls-4" x="313.11" y="244.28" width="51.02" height="81.4" rx="7.4" transform="translate(-40.89 607.8) rotate(-90)"/><path class="cls-2" d="M357,238.82v38.71c-.16,8.22,4.28,7.82,4.66,7.82h30.88c4.09,0,7.4-6.26,7.4-14V29.78c0-7.72-3.31-14-7.4-14H358.07c-4.09,0-7.4,6.25-7.4,14V225C354.23,226,357,231.81,357,238.82Z" transform="translate(-94.53 -15.81)"/><path class="cls-2" d="M170.73,58.75H131.27c-8.38.16-8-4.28-8-4.66V23.21c0-4.09,6.37-7.4,14.24-7.4H383.86c7.87,0,14.25,3.31,14.25,7.4V57.65c0,4.09-6.38,7.4-14.25,7.4H184.8C183.77,61.49,177.88,58.75,170.73,58.75Z" transform="translate(-94.53 -15.81)"/><rect class="cls-4" x="126.87" y="19.32" width="267.66" height="37.74" rx="7.4" transform="translate(426.87 60.56) rotate(-180)"/><rect class="cls-4" x="247.98" y="131.71" width="262.52" height="37.74" rx="7.4" transform="translate(435.28 -244.47) rotate(90)"/></svg>