<svg id="svg26706" xmlns="http://www.w3.org/2000/svg" viewBox="0 0 305.38 298.3"><defs><style>.cls-1{fill:#808184;}.cls-2{fill:#929497;}.cls-3{fill:#d0d2d3;}.cls-4{fill:#bbbdbf;}.cls-5{fill:#f1f1f2;}.cls-6{fill:#b3b3b3;}</style></defs><title>Sofa 04</title><rect class="cls-1" x="158.1" y="137.66" width="281.99" height="117.45" rx="13.53" transform="translate(33.97 456.4) rotate(-90)"/><rect class="cls-1" y="16.31" width="186.72" height="117.45" rx="13.53"/><rect class="cls-2" x="1.51" y="19.69" width="189.64" height="111.43" rx="12.55"/><rect class="cls-2" y="16.31" width="62.3" height="89.87" rx="7.4"/><rect class="cls-3" x="2.21" y="88.35" width="26.81" height="41.45" rx="7.4"/><rect class="cls-3" x="30.81" y="88.35" width="26.81" height="41.45" rx="7.4"/><rect class="cls-3" x="58.96" y="88.35" width="26.81" height="41.45" rx="7.4"/><rect class="cls-3" x="87.98" y="88.35" width="26.81" height="41.45" rx="7.4"/><rect class="cls-3" x="117.14" y="88.35" width="26.81" height="41.45" rx="7.4"/><rect class="cls-3" x="146.9" y="88.35" width="26.81" height="41.45" rx="7.4"/><rect class="cls-3" x="58.36" y="50.01" width="26.81" height="37.52" rx="7.4"/><rect class="cls-3" x="87.38" y="50.01" width="26.81" height="37.52" rx="7.4"/><rect class="cls-3" x="116.55" y="50.01" width="26.81" height="37.52" rx="7.4"/><rect class="cls-3" x="146.31" y="50.01" width="26.81" height="37.52" rx="7.4"/><rect class="cls-4" x="2.21" y="18.56" width="59.23" height="85.45" rx="7.4"/><rect class="cls-5" x="3.62" y="20.59" width="51.02" height="81.4" rx="7.4"/><rect class="cls-2" x="162.64" y="144.07" width="272.17" height="111.43" rx="12.55" transform="translate(30.19 459.43) rotate(-90)"/><rect class="cls-2" x="281.74" y="261.29" width="62.3" height="89.87" rx="7.4" transform="translate(-62.09 580.04) rotate(-90)"/><rect class="cls-3" x="251.65" y="301.03" width="26.81" height="41.45" rx="7.4" transform="translate(-125.45 547.74) rotate(-90)"/><rect class="cls-3" x="251.65" y="272.44" width="26.81" height="41.45" rx="7.4" transform="translate(-96.86 519.14) rotate(-90)"/><rect class="cls-3" x="251.65" y="244.29" width="26.81" height="41.45" rx="7.4" transform="translate(-68.71 490.99) rotate(-90)"/><rect class="cls-3" x="251.65" y="215.86" width="26.81" height="41.45" rx="7.4" transform="translate(-40.28 462.57) rotate(-90)"/><rect class="cls-3" x="251.65" y="187.44" width="26.81" height="41.45" rx="7.4" transform="translate(-11.86 434.14) rotate(-90)"/><rect class="cls-3" x="251.65" y="159.02" width="26.81" height="41.45" rx="7.4" transform="translate(16.56 405.73) rotate(-90)"/><rect class="cls-3" x="291.95" y="246.85" width="26.81" height="37.52" rx="7.4" transform="translate(-29 531.89) rotate(-90)"/><rect class="cls-3" x="291.95" y="218.42" width="26.81" height="37.52" rx="7.4" transform="translate(-0.58 503.47) rotate(-90)"/><rect class="cls-3" x="291.95" y="190" width="26.81" height="37.52" rx="7.4" transform="translate(27.85 475.04) rotate(-90)"/><rect class="cls-3" x="291.95" y="161.58" width="26.81" height="37.52" rx="7.4" transform="translate(56.26 446.62) rotate(-90)"/><rect class="cls-3" x="251.65" y="130.01" width="26.81" height="41.45" rx="7.4" transform="translate(45.57 376.72) rotate(-90)"/><rect class="cls-3" x="251.65" y="101.59" width="26.81" height="41.45" rx="7.4" transform="translate(73.99 348.29) rotate(-90)"/><rect class="cls-3" x="251.65" y="73.17" width="26.81" height="41.45" rx="7.4" transform="translate(102.41 319.88) rotate(-90)"/><rect class="cls-3" x="291.95" y="132.57" width="26.81" height="37.52" rx="7.4" transform="translate(85.27 417.61) rotate(-90)"/><rect class="cls-3" x="291.95" y="104.15" width="26.81" height="37.52" rx="7.4" transform="translate(113.7 389.19) rotate(-90)"/><rect class="cls-3" x="291.95" y="75.73" width="26.81" height="37.52" rx="7.4" transform="translate(142.11 360.77) rotate(-90)"/><rect class="cls-4" x="283.22" y="262.82" width="59.23" height="85.45" rx="7.4" transform="translate(-61.45 579.31) rotate(-90)"/><rect class="cls-5" x="287.33" y="267.55" width="51.02" height="81.4" rx="7.4" transform="translate(-64.16 582.01) rotate(-90)"/><path class="cls-6" d="M331.18,262.09V300.8c-.15,8.22,4.29,7.81,4.67,7.81h30.87c4.09,0,7.41-6.25,7.41-14V53c0-7.71-3.32-14-7.41-14H332.29c-4.09,0-7.41,6.25-7.41,14V248.29C328.45,249.3,331.18,255.08,331.18,262.09Z" transform="translate(-68.75 -39.08)"/><path class="cls-6" d="M145,82H105.48c-8.38.16-8-4.29-8-4.66V46.48c0-4.09,6.38-7.4,14.25-7.4H358.08c7.87,0,14.24,3.31,14.24,7.4V80.92c0,4.08-6.37,7.4-14.24,7.4H159C158,84.76,152.09,82,145,82Z" transform="translate(-68.75 -39.08)"/><rect class="cls-5" x="101.09" y="42.58" width="267.66" height="37.74" rx="7.4" transform="translate(401.09 83.83) rotate(-180)"/><rect class="cls-5" x="222.19" y="154.98" width="262.52" height="37.74" rx="7.4" transform="translate(458.55 -218.69) rotate(90)"/></svg>