<svg id="svg27272" xmlns="http://www.w3.org/2000/svg" xmlns:xlink="http://www.w3.org/1999/xlink" viewBox="0 0 344.74 347.4" width="344.74px" height="347.4px"><defs><style>.cls-1{fill:none;}.cls-2{fill:#211c1d;}.cls-3{fill:#414042;}.cls-4{fill:#947549;}.cls-5{clip-path:url(#clip-path);}.cls-6{fill:url(#linear-gradient);}.cls-7{clip-path:url(#clip-path-2);}.cls-8{fill:url(#linear-gradient-2);}.cls-9{clip-path:url(#clip-path-3);}.cls-10{fill:url(#linear-gradient-3);}.cls-11{clip-path:url(#clip-path-4);}.cls-12{fill:url(#linear-gradient-4);}.cls-13{clip-path:url(#clip-path-5);}.cls-14{fill:url(#linear-gradient-5);}.cls-15{clip-path:url(#clip-path-6);}.cls-16{fill:url(#linear-gradient-6);}.cls-17{clip-path:url(#clip-path-7);}.cls-18{fill:url(#linear-gradient-7);}.cls-19{clip-path:url(#clip-path-8);}.cls-20{fill:url(#linear-gradient-8);}.cls-21{clip-path:url(#clip-path-9);}.cls-22{fill:url(#linear-gradient-9);}.cls-23{clip-path:url(#clip-path-10);}.cls-24{fill:url(#linear-gradient-10);}.cls-25{fill:#c36a39;}.cls-26{fill:#8f8e7f;}.cls-27{fill:#dddddc;}.cls-28{clip-path:url(#clip-path-11);}.cls-29{fill:url(#linear-gradient-11);}</style><clipPath id="clip-path" transform="translate(-18.37 0)"><path class="cls-1" d="M336.49,193.43v31.51a95,95,0,0,1-11.87,46.11l-55.79-31a31.82,31.82,0,0,0,3.78-15.07V193.43Z"></path></clipPath><linearGradient id="linear-gradient" x1="-112.88" y1="592.37" x2="-111.88" y2="592.37" gradientTransform="matrix(54.16, 0, 0, -54.16, 6385.21, 32314.01)" gradientUnits="userSpaceOnUse"><stop offset="0" stop-color="#fff"></stop><stop offset="0.01" stop-color="#fff"></stop><stop offset="0.73" stop-color="#b9babb"></stop><stop offset="1" stop-color="#b0b0b3"></stop><stop offset="1" stop-color="#b0b0b3"></stop></linearGradient><clipPath id="clip-path-2" transform="translate(-18.37 0)"><rect class="cls-1" x="272.61" y="126.87" width="63.89" height="66.56"></rect></clipPath><linearGradient id="linear-gradient-2" x1="-116.83" y1="600.78" x2="-115.83" y2="600.78" gradientTransform="matrix(-63.01, 0, 0, 63.01, -7021.69, -37694.63)" gradientUnits="userSpaceOnUse"><stop offset="0" stop-color="#b0b0b3"></stop><stop offset="0" stop-color="#b0b0b3"></stop><stop offset="0.27" stop-color="#b9babb"></stop><stop offset="0.99" stop-color="#fff"></stop><stop offset="1" stop-color="#fff"></stop></linearGradient><clipPath id="clip-path-3" transform="translate(-18.37 0)"><path class="cls-1" d="M336.49,122.45v4.42H272.61v-4.42A31.9,31.9,0,0,0,258.55,96l38.17-51.16a95.57,95.57,0,0,1,39.77,77.62Z"></path></clipPath><linearGradient id="linear-gradient-3" x1="-114.52" y1="601.28" x2="-113.52" y2="601.28" gradientTransform="matrix(-52.35, 31.95, 31.95, 52.35, -24879.45, -27740.16)" xlink:href="#linear-gradient-2"></linearGradient><clipPath id="clip-path-4" transform="translate(-18.37 0)"><path class="cls-1" d="M268.83,240l55.79,31a95.87,95.87,0,0,1-74.91,49.3l-6.12-63.62A31.87,31.87,0,0,0,268.83,240Z"></path></clipPath><linearGradient id="linear-gradient-4" x1="-110.78" y1="595.65" x2="-109.78" y2="595.65" gradientTransform="matrix(40.82, 46.14, 46.14, -40.82, -22707.97, 29685.59)" xlink:href="#linear-gradient"></linearGradient><clipPath id="clip-path-5" transform="translate(-18.37 0)"><path class="cls-1" d="M296.72,44.78v0L258.55,96a31.86,31.86,0,0,0-17.89-5.48H218.72V26.62h21.94a95.36,95.36,0,0,1,56.06,18.16Z"></path></clipPath><linearGradient id="linear-gradient-5" x1="-111.4" y1="598.58" x2="-110.4" y2="598.58" gradientTransform="matrix(0, 68, 68, 0, -40446.51, 7603.08)" xlink:href="#linear-gradient"></linearGradient><clipPath id="clip-path-6" transform="translate(-18.37 0)"><path class="cls-1" d="M243.59,256.73l6.12,63.62c-3,.27-6,.43-9.05.43H181.93V256.89h58.73A25.52,25.52,0,0,0,243.59,256.73Z"></path></clipPath><linearGradient id="linear-gradient-6" x1="-110.92" y1="598.81" x2="-109.92" y2="598.81" gradientTransform="matrix(0, 59.99, 59.99, 0, -35705.31, 6912.26)" xlink:href="#linear-gradient"></linearGradient><clipPath id="clip-path-7" transform="translate(-18.37 0)"><rect class="cls-1" x="151.53" y="26.62" width="67.19" height="63.89"></rect></clipPath><linearGradient id="linear-gradient-7" x1="-111.4" y1="598.58" x2="-110.4" y2="598.58" gradientTransform="matrix(0, 68, 68, 0, -40519.1, 7603.08)" xlink:href="#linear-gradient"></linearGradient><clipPath id="clip-path-8" transform="translate(-18.37 0)"><path class="cls-1" d="M181.93,256.89v63.89H115.59a44.64,44.64,0,0,1-4-18.63,45.29,45.29,0,0,1,45.25-45.26Z"></path></clipPath><linearGradient id="linear-gradient-8" x1="-111.28" y1="598.64" x2="-110.28" y2="598.64" gradientTransform="matrix(0, 65.88, 65.88, 0, -39291.9, 7593.52)" xlink:href="#linear-gradient"></linearGradient><clipPath id="clip-path-9" transform="translate(-18.37 0)"><rect class="cls-1" x="87.64" y="26.62" width="63.89" height="63.89"></rect></clipPath><linearGradient id="linear-gradient-9" x1="-111.4" y1="598.58" x2="-110.4" y2="598.58" gradientTransform="matrix(0, 68, 68, 0, -40584.64, 7603.08)" xlink:href="#linear-gradient"></linearGradient><clipPath id="clip-path-10" transform="translate(-18.37 0)"><path class="cls-1" d="M87.64,26.62V90.51h-24A45.29,45.29,0,0,1,18.37,45.26a44.54,44.54,0,0,1,4.05-18.64Z"></path></clipPath><linearGradient id="linear-gradient-10" x1="-111.4" y1="598.58" x2="-110.4" y2="598.58" gradientTransform="matrix(0, 68, 68, 0, -40651.22, 7603.08)" xlink:href="#linear-gradient"></linearGradient><clipPath id="clip-path-11" transform="translate(-18.37 0)"><path class="cls-1" d="M240.67,267.54a42.65,42.65,0,0,0,42.6-42.6V122.45a42.65,42.65,0,0,0-42.6-42.59H34.51A45.07,45.07,0,0,0,63.64,90.51h177a32,32,0,0,1,32,31.94V224.94a32,32,0,0,1-32,31.95H156.81a45,45,0,0,0-29.13,10.65h113Z"></path></clipPath><linearGradient id="linear-gradient-11" x1="-114.54" y1="595.91" x2="-113.54" y2="595.91" gradientTransform="matrix(248.76, 0, 0, -248.76, 28526.46, 148408.75)" xlink:href="#linear-gradient"></linearGradient></defs><title>sofa-10p</title><path id="path360" class="cls-2" d="M212.83,180.3c0,28-23.94,50.78-53.49,50.78s-53.49-22.74-53.49-50.78,24-50.8,53.49-50.8,53.49,22.74,53.49,50.8" transform="translate(-18.37 0)"></path><path id="path362" class="cls-3" d="M207.43,180.3a50.79,50.79,0,1,1-50.79-50.8,50.79,50.79,0,0,1,50.79,50.8" transform="translate(-18.37 0)"></path><path id="path926" class="cls-4" d="M336.49,126.87v-4.42a95.57,95.57,0,0,0-39.77-77.62v0a95.36,95.36,0,0,0-56.06-18.16H22.42A45.19,45.19,0,0,1,63.63,0h177A122.62,122.62,0,0,1,363.12,122.45V224.94A122.61,122.61,0,0,1,240.66,347.4H156.8a45.21,45.21,0,0,1-41.21-26.62H240.66c3,0,6.07-.16,9.05-.43a96,96,0,0,0,86.78-95.41V126.87" transform="translate(-18.37 0)"></path><g id="g928"><g class="cls-5"><g id="g930"><path id="path948" class="cls-6" d="M336.49,193.43v31.51a95,95,0,0,1-11.87,46.11l-55.79-31a31.82,31.82,0,0,0,3.78-15.07V193.43h63.88" transform="translate(-18.37 0)"></path></g></g></g><g id="g950"><g class="cls-7"><g id="g952"><path id="path970" class="cls-8" d="M336.49,126.87v66.56H272.61V126.87h63.88" transform="translate(-18.37 0)"></path></g></g></g><g id="g972"><g class="cls-9"><g id="g974"><path id="path992" class="cls-10" d="M336.49,122.45v4.42H272.61v-4.42A31.9,31.9,0,0,0,258.55,96l38.17-51.16a95.57,95.57,0,0,1,39.77,77.62" transform="translate(-18.37 0)"></path></g></g></g><g id="g994"><g class="cls-11"><g id="g996"><path id="path1014" class="cls-12" d="M268.83,240l55.79,31a95.87,95.87,0,0,1-74.91,49.3l-6.12-63.62A31.87,31.87,0,0,0,268.83,240" transform="translate(-18.37 0)"></path></g></g></g><g id="g1016"><g class="cls-13"><g id="g1018"><path id="path1036" class="cls-14" d="M296.72,44.78v0L258.55,96a31.86,31.86,0,0,0-17.89-5.48H218.72V26.62h21.94a95.36,95.36,0,0,1,56.06,18.16" transform="translate(-18.37 0)"></path></g></g></g><g id="g1038"><g class="cls-15"><g id="g1040"><path id="path1058" class="cls-16" d="M243.59,256.73l6.12,63.62c-3,.27-6,.43-9.05.43H181.93V256.89h58.73a25.52,25.52,0,0,0,2.93-.16" transform="translate(-18.37 0)"></path></g></g></g><g id="g1060"><g class="cls-17"><g id="g1062"><path id="path1080" class="cls-18" d="M218.72,26.62V90.51H151.53V26.62h67.19" transform="translate(-18.37 0)"></path></g></g></g><g id="g1082"><g class="cls-19"><g id="g1084"><path id="path1102" class="cls-20" d="M181.93,256.89v63.89H115.59a44.64,44.64,0,0,1-4-18.63,45.29,45.29,0,0,1,45.25-45.26h25.13" transform="translate(-18.37 0)"></path></g></g></g><g id="g1104"><g class="cls-21"><g id="g1106"><path id="path1124" class="cls-22" d="M151.53,26.62V90.51H87.64V26.62h63.89" transform="translate(-18.37 0)"></path></g></g></g><g id="g1126"><g class="cls-23"><g id="g1128"><path id="path1146" class="cls-24" d="M87.64,26.62V90.51h-24A45.29,45.29,0,0,1,18.37,45.26a44.54,44.54,0,0,1,4.05-18.64H87.64" transform="translate(-18.37 0)"></path></g></g></g><path id="path1148" class="cls-25" d="M240.66,322.76H115.59v-4H240.66c2.79,0,5.78-.14,8.87-.42a94,94,0,0,0,85-93.44V122.45a94,94,0,0,0-39-76l2.32-3.21a98,98,0,0,1,40.6,79.23V224.94a98,98,0,0,1-88.59,97.39c-3.22.29-6.32.43-9.23.43" transform="translate(-18.37 0)"></path><path id="path1150" class="cls-26" d="M182.6,320.78h-1.33V256.89h1.33v63.89" transform="translate(-18.37 0)"></path><path id="path1152" class="cls-26" d="M249.1,320.86l0-.43-6.12-63.64,1.32-.12,6.17,64-1.32.16" transform="translate(-18.37 0)"></path><path id="path1154" class="cls-26" d="M324.68,271.72h-.17l-.21-.08-55.8-31,.65-1.17,55.79,31-.29.54,0,.71" transform="translate(-18.37 0)"></path><path id="path1156" class="cls-26" d="M336.5,194.09H272.61v-1.33H336.5v1.33" transform="translate(-18.37 0)"></path><path id="path1158" class="cls-26" d="M338.52,127.54H272.61V126.2h65.91v1.34" transform="translate(-18.37 0)"></path><path id="path1160" class="cls-26" d="M259.09,96.4,258,95.59l38.17-51.17.5.38.7,0V45l-.13.23L259.09,96.4" transform="translate(-18.37 0)"></path><path id="path1162" class="cls-26" d="M219.39,90.51h-1.33V26.62h1.33V90.51" transform="translate(-18.37 0)"></path><path id="path1164" class="cls-26" d="M152.2,90.51h-1.33V26.62h1.33V90.51" transform="translate(-18.37 0)"></path><path id="path1166" class="cls-26" d="M88.31,90.51H87V24h1.34V90.51" transform="translate(-18.37 0)"></path><path id="path1168" class="cls-27" d="M344.49,224.94V122.45A103.94,103.94,0,0,0,240.67,18.63H27.1a44.9,44.9,0,0,0-7.37,15.85l1.27.13H240.67a88,88,0,0,1,87.85,87.84V224.94a88,88,0,0,1-87.85,87.86H115.61a7.8,7.8,0,0,0-2.62.47,45.08,45.08,0,0,0,7.28,15.5h120.4A103.94,103.94,0,0,0,344.49,224.94" transform="translate(-18.37 0)"></path><g id="g1170"><g class="cls-28"><g id="g1172"><path id="path1190" class="cls-29" d="M240.67,267.54a42.65,42.65,0,0,0,42.6-42.6V122.45a42.65,42.65,0,0,0-42.6-42.59H34.51A45.07,45.07,0,0,0,63.64,90.51h177a32,32,0,0,1,32,31.94V224.94a32,32,0,0,1-32,31.95H156.81a45,45,0,0,0-29.13,10.65h113" transform="translate(-18.37 0)"></path></g></g></g></svg>