<svg id="svg26904" xmlns="http://www.w3.org/2000/svg" viewBox="0 0 388.56 127.41"><defs><style>.cls-1{fill:#f8a980;}.cls-2{fill:#a1613b;}.cls-3{fill:#414042;}</style></defs><title>table-6p</title><path id="path608" class="cls-1" d="M225.47,99.4H159.52c-6.65,0-11.62-5.13-12.55-12.15-1.14,9.35,4.45,16.94,12.55,16.94h65.95c8.1,0,13.69-7.59,12.55-16.94-.93,7-5.9,12.15-12.55,12.15" transform="translate(-74.44 -78.25)"/><path id="path630" class="cls-1" d="M363.72,99.4h-66c-6.65,0-11.62-5.13-12.55-12.15-1.14,9.35,4.45,16.94,12.55,16.94h66c8.1,0,13.69-7.59,12.55-16.94-.93,7-5.9,12.15-12.55,12.15" transform="translate(-74.44 -78.25)"/><path id="path652" class="cls-1" d="M225.47,186.46H159.52c-6.65,0-11.62,5.14-12.55,12.15-1.14-9.35,4.45-17,12.55-17h65.95c8.1,0,13.69,7.6,12.55,17-.93-7-5.9-12.15-12.55-12.15" transform="translate(-74.44 -78.25)"/><path id="path674" class="cls-1" d="M99.39,178.19v-66c0-6.65-5.13-11.61-12.14-12.54,9.34-1.14,17,4.45,17,12.54v66c0,8.09-7.61,13.68-17,12.54,7-.93,12.14-5.89,12.14-12.54" transform="translate(-74.44 -78.25)"/><path id="path696" class="cls-1" d="M430.61,178.19v-66c0-6.65,5.13-11.61,12.15-12.54-9.35-1.14-16.95,4.45-16.95,12.54v66c0,8.09,7.6,13.68,16.95,12.54-7-.93-12.15-5.89-12.15-12.54" transform="translate(-74.44 -78.25)"/><path id="path718" class="cls-1" d="M363.72,186.46h-66c-6.65,0-11.62,5.14-12.55,12.15-1.14-9.35,4.45-17,12.55-17h66c8.1,0,13.69,7.6,12.55,17-.93-7-5.9-12.15-12.55-12.15" transform="translate(-74.44 -78.25)"/><path id="path842" class="cls-2" d="M74.44,205.67V78.25H463V205.67H74.44" transform="translate(-74.44 -78.25)"/><path id="path844" class="cls-3" d="M455,197.64H82.41V86.28H455V197.64" transform="translate(-74.44 -78.25)"/></svg>