<svg id="svg29932" xmlns="http://www.w3.org/2000/svg" viewBox="0 0 110.51 110.51" width="110.51px" height="110.51px"><defs><style>.cls-1{fill:#4e473c;}.cls-2{fill:#695e50;}</style></defs><title>table-4p-2</title><path id="path572" class="cls-1" d="M90.24,74.23H85.91v93.86h4.33V74.23" transform="translate(-60.45 -64.08)"></path><path id="path574" class="cls-1" d="M145.49,74.23h-4.33v93.86h4.33V74.23" transform="translate(-60.45 -64.08)"></path><path id="path576" class="cls-2" d="M60.45,107.78H171V95.86H60.45v11.92" transform="translate(-60.45 -64.08)"></path><path id="path578" class="cls-2" d="M60.45,174.59H171V159.42H60.45v15.17" transform="translate(-60.45 -64.08)"></path><path id="path580" class="cls-2" d="M60.45,80V91.88H171V80H60.45" transform="translate(-60.45 -64.08)"></path><path id="path582" class="cls-2" d="M60.45,155.44H171V143.53H60.45v11.91" transform="translate(-60.45 -64.08)"></path><path id="path584" class="cls-2" d="M60.45,139.56H171V127.64H60.45v11.92" transform="translate(-60.45 -64.08)"></path><path id="path586" class="cls-2" d="M60.45,123.67H171V111.75H60.45v11.92" transform="translate(-60.45 -64.08)"></path><path id="path588" class="cls-2" d="M171,64.08H60.45V76H171V64.08" transform="translate(-60.45 -64.08)"></path></svg>