<svg xmlns:dc="http://purl.org/dc/elements/1.1/" xmlns:cc="http://creativecommons.org/ns#" xmlns:rdf="http://www.w3.org/1999/02/22-rdf-syntax-ns#" xmlns:svg="http://www.w3.org/2000/svg" xmlns="http://www.w3.org/2000/svg" xmlns:sodipodi="http://sodipodi.sourceforge.net/DTD/sodipodi-0.dtd" xmlns:inkscape="http://www.inkscape.org/namespaces/inkscape" width="196.99083mm" height="89.975014mm" viewBox="0 0 196.99083 89.975014" version="1.1" id="svg26706" inkscape:version="1.0.2 (e86c870879, 2021-01-15, custom)" sodipodi:docname="table-8people.svg">
  <defs id="defs26700"></defs>
  <sodipodi:namedview id="base" pagecolor="#ffffff" bordercolor="#666666" borderopacity="1.0" inkscape:pageopacity="0.0" inkscape:pageshadow="2" inkscape:zoom="0.35" inkscape:cx="-19.162419" inkscape:cy="58.602961" inkscape:document-units="mm" inkscape:current-layer="layer1" inkscape:document-rotation="0" showgrid="false" inkscape:window-width="1267" inkscape:window-height="1030" inkscape:window-x="30" inkscape:window-y="0" inkscape:window-maximized="0"></sodipodi:namedview>
  <metadata id="metadata26703">
    <rdf:rdf>
      <cc:work rdf:about="">
        <dc:format>image/svg+xml</dc:format>
        <dc:type rdf:resource="http://purl.org/dc/dcmitype/StillImage"></dc:type>
        <dc:title></dc:title>
      </cc:work>
    </rdf:rdf>
  </metadata>
  <g inkscape:label="Layer 1" inkscape:groupmode="layer" id="layer1" transform="translate(-110.90339,-132.6613)">
    <path d="m 244.55542,222.63631 -3.21045,-0.94209 1.24332,-4.23124 0.63558,-4.09338 0.60384,-3.88949 h -20.50447 l 0.60385,3.88949 0.63689,4.09959 1.23678,4.2097 -3.20882,0.94335 -1.01984,-3.46923 c -3.17715,1.326 -6.91207,2.1073 -10.97471,2.1073 -4.06303,0 -7.79891,-0.7813 -10.97603,-2.1073 l -1.02376,3.4833 -3.21015,-0.94209 1.24334,-4.23124 0.63557,-4.09338 0.60385,-3.88949 H 177.3667 l 0.60387,3.88949 0.63555,4.09959 1.23812,4.2097 -3.21014,0.94335 -1.01983,-3.46923 c -3.17714,1.326 -6.91173,2.1073 -10.97472,2.1073 -4.06267,0 -7.7976,-0.7813 -10.97473,-2.1073 l -1.02376,3.4833 -3.21014,-0.94209 1.24335,-4.23124 0.63556,-4.09338 0.60385,-3.88949 h -18.1789 v -4.81587 h -0.0101 v -9.28341 l -8.99127,1.395 -4.09991,0.63457 -4.20938,1.2381 -0.94338,-3.20913 3.46926,-1.01985 c -1.32633,-3.17941 -2.1073,-6.91433 -2.1073,-10.97572 0,-4.06167 0.78097,-7.7966 2.1073,-10.97603 l -3.48461,-1.02247 0.94336,-3.20912 4.22997,1.24204 4.09469,0.63687 8.99127,1.39527 v -8.76023 h 0.0101 v -5.34685 h 19.18992 l -1.61487,-10.40421 -0.63556,-4.096 -1.24335,-4.22867 3.21014,-0.94336 1.02376,3.48463 c 3.17713,-1.32632 6.91206,-2.1073 10.97473,-2.1073 4.06299,0 7.79758,0.78098 10.97472,2.1073 l 1.01983,-3.46926 3.21014,0.94337 -1.23812,4.20937 -0.63555,4.09992 -1.61455,10.40421 h 22.52488 l -1.61454,-10.40421 -0.63557,-4.096 -1.24334,-4.22867 3.21015,-0.94336 1.02376,3.48463 c 3.17712,-1.32632 6.913,-2.1073 10.97603,-2.1073 4.06264,0 7.79756,0.78098 10.97471,2.1073 l 1.01984,-3.46926 3.20882,0.94337 -1.23678,4.20937 -0.63689,4.09992 -1.61486,10.40421 h 22.52649 l -1.61485,-10.40421 -0.63558,-4.096 -1.24332,-4.22867 3.21045,-0.94336 1.02345,3.48463 c 3.17715,-1.32632 6.91206,-2.1073 10.97473,-2.1073 4.06301,0 7.7992,0.78098 10.97537,2.1073 l 1.01952,-3.46926 3.2088,0.94337 -1.23518,4.20937 -0.63719,4.09992 -1.61419,10.40421 h 24.25903 v 5.34685 h 0.12415 v 8.28936 l 5.97326,-0.9244 4.09436,-0.63687 4.22834,-1.24204 0.94435,3.20912 -3.48329,1.02247 c 1.32665,3.17943 2.1076,6.91436 2.1076,10.97603 0,4.06139 -0.78095,7.79631 -2.1076,10.97572 l 3.46696,1.01985 -0.94107,3.20913 -4.21202,-1.2381 -4.09763,-0.63457 -5.97326,-0.92803 v 8.81644 h -0.12415 v 4.81587 h -23.24935 l 0.60451,3.88949 0.63719,4.09959 1.23518,4.2097 -3.2088,0.94335 -1.01952,-3.46923 c -3.17617,1.326 -6.91236,2.1073 -10.97537,2.1073 -4.06267,0 -7.79758,-0.7813 -10.97473,-2.1073 l -1.02345,3.4833" style="fill:#9f9c8e;fill-opacity:1;fill-rule:nonzero;stroke:none;stroke-width:0.326765" id="path36"></path>
    <path d="m 149.62241,137.91469 -3.20883,0.94337 -1.54462,-5.25242 3.21047,-0.94434 1.54298,5.25339" style="fill:#4e473c;fill-opacity:1;fill-rule:nonzero;stroke:none;stroke-width:0.326765" id="path722"></path>
    <path d="m 170.52915,137.93005 3.20883,0.94335 1.54462,-5.25143 -3.21047,-0.94434 -1.54298,5.25242" style="fill:#4e473c;fill-opacity:1;fill-rule:nonzero;stroke:none;stroke-width:0.326765" id="path724"></path>
    <path d="m 146.74786,141.93062 2.24291,14.44889 c 3.00853,1.61095 6.89899,2.60009 11.0868,2.60009 4.18946,0 8.07993,-0.98914 11.08845,-2.60009 l 2.24258,-14.44889 c -3.16177,-2.4432 -8.00573,-4.04142 -13.33103,-4.04142 -5.32397,0 -10.16924,1.59822 -13.32971,4.04142" style="fill:#947c72;fill-opacity:1;fill-rule:nonzero;stroke:none;stroke-width:0.326765" id="path726"></path>
    <path d="m 171.6395,136.37039 c -3.29313,-1.47696 -7.25386,-2.33016 -11.56193,-2.33016 -4.30642,0 -8.26747,0.8532 -11.56191,2.33016 -0.85776,0.3856 -1.67206,0.8117 -2.43276,1.27767 l 0.66496,4.28256 c 3.16047,-2.4432 8.00574,-4.04142 13.32971,-4.04142 5.3253,0 10.16926,1.59822 13.33103,4.04142 l 0.66498,-4.28256 c -0.76202,-0.46597 -1.57502,-0.89207 -2.43408,-1.27767" style="fill:#695e50;fill-opacity:1;fill-rule:nonzero;stroke:none;stroke-width:0.326765" id="path728"></path>
    <path d="m 195.58024,137.91469 -3.21047,0.94337 -1.54297,-5.25242 3.20884,-0.94434 1.5446,5.25339" style="fill:#4e473c;fill-opacity:1;fill-rule:nonzero;stroke:none;stroke-width:0.326765" id="path730"></path>
    <path d="m 216.48534,137.93005 3.21017,0.94335 1.54332,-5.25143 -3.20886,-0.94434 -1.54463,5.25242" style="fill:#4e473c;fill-opacity:1;fill-rule:nonzero;stroke:none;stroke-width:0.326765" id="path732"></path>
    <path d="m 192.7057,141.93062 2.24128,14.44889 c 3.00983,1.61095 6.90029,2.60009 11.08843,2.60009 4.18783,0 8.07829,-0.98914 11.08814,-2.60009 l 2.24288,-14.44889 c -3.16175,-2.4432 -8.00703,-4.04142 -13.33102,-4.04142 -5.32397,0 -10.17055,1.59822 -13.32971,4.04142" style="fill:#947c72;fill-opacity:1;fill-rule:nonzero;stroke:none;stroke-width:0.326765" id="path734"></path>
    <path d="m 217.59732,136.37039 c -3.29345,-1.47696 -7.25545,-2.33016 -11.56191,-2.33016 -4.30674,0 -8.26879,0.8532 -11.56192,2.33016 -0.85906,0.3856 -1.67203,0.8117 -2.43276,1.27767 l 0.66497,4.28256 c 3.15916,-2.4432 8.00574,-4.04142 13.32971,-4.04142 5.32399,0 10.16927,1.59822 13.33102,4.04142 l 0.66366,-4.28256 c -0.762,-0.46597 -1.57368,-0.89207 -2.43277,-1.27767" style="fill:#695e50;fill-opacity:1;fill-rule:nonzero;stroke:none;stroke-width:0.326765" id="path736"></path>
    <path d="m 241.53646,137.91469 -3.20884,0.94337 -1.54461,-5.25242 3.21043,-0.94434 1.54302,5.25339" style="fill:#4e473c;fill-opacity:1;fill-rule:nonzero;stroke:none;stroke-width:0.326765" id="path738"></path>
    <path d="m 262.44323,137.93005 3.21011,0.94335 1.54232,-5.25143 -3.20883,-0.94434 -1.5436,5.25242" style="fill:#4e473c;fill-opacity:1;fill-rule:nonzero;stroke:none;stroke-width:0.326765" id="path740"></path>
    <path d="m 238.66192,141.93062 2.2429,14.44889 c 3.00854,1.61095 6.90028,2.60009 11.08683,2.60009 4.18941,0 8.0799,-0.98914 11.08841,-2.60009 l 2.24324,-14.44889 c -3.1611,-2.4432 -8.00638,-4.04142 -13.33165,-4.04142 -5.32401,0 -10.1693,1.59822 -13.32973,4.04142" style="fill:#947c72;fill-opacity:1;fill-rule:nonzero;stroke:none;stroke-width:0.326765" id="path742"></path>
    <path d="m 263.55357,136.37039 c -3.29315,-1.47696 -7.25388,-2.33016 -11.56192,-2.33016 -4.30646,0 -8.26718,0.8532 -11.56031,2.33016 -0.85908,0.3856 -1.67234,0.8117 -2.4344,1.27767 l 0.66498,4.28256 c 3.16043,-2.4432 8.00572,-4.04142 13.32973,-4.04142 5.32527,0 10.17055,1.59822 13.33165,4.04142 l 0.66332,-4.28256 c -0.76134,-0.46597 -1.57498,-0.89207 -2.43305,-1.27767" style="fill:#695e50;fill-opacity:1;fill-rule:nonzero;stroke:none;stroke-width:0.326765" id="path744"></path>
    <path d="m 149.62241,212.31644 -3.20883,-0.94469 -1.54462,5.25502 3.21047,0.94078 1.54298,-5.25111" style="fill:#4e473c;fill-opacity:1;fill-rule:nonzero;stroke:none;stroke-width:0.326765" id="path746"></path>
    <path d="m 170.52915,212.29976 3.20883,-0.94076 1.54462,5.25142 -3.21047,0.94437 -1.54298,-5.25503" style="fill:#4e473c;fill-opacity:1;fill-rule:nonzero;stroke:none;stroke-width:0.326765" id="path748"></path>
    <path d="m 146.74786,208.30079 2.24291,-14.44918 c 3.00853,-1.61097 6.89899,-2.60136 11.0868,-2.60136 4.18946,0 8.07993,0.99039 11.08845,2.60136 l 2.24258,14.44918 c -3.16177,2.44424 -8.00573,4.04244 -13.33103,4.04244 -5.32397,0 -10.16924,-1.5982 -13.32971,-4.04244" style="fill:#947c72;fill-opacity:1;fill-rule:nonzero;stroke:none;stroke-width:0.326765" id="path750"></path>
    <path d="m 171.6395,213.86206 c -3.29313,1.47434 -7.25386,2.32946 -11.56193,2.32946 -4.30642,0 -8.26747,-0.85512 -11.56191,-2.32946 -0.85776,-0.38528 -1.67206,-0.81302 -2.43276,-1.27769 l 0.66496,-4.28358 c 3.16047,2.44424 8.00574,4.04244 13.32971,4.04244 5.3253,0 10.16926,-1.5982 13.33103,-4.04244 l 0.66498,4.28358 c -0.76202,0.46467 -1.57502,0.89241 -2.43408,1.27769" style="fill:#695e50;fill-opacity:1;fill-rule:nonzero;stroke:none;stroke-width:0.326765" id="path752"></path>
    <path d="m 116.15581,167.91986 0.94337,-3.20915 -5.25242,-1.54562 -0.94337,3.21149 5.25242,1.54328" style="fill:#4e473c;fill-opacity:1;fill-rule:nonzero;stroke:none;stroke-width:0.326765" id="path754"></path>
    <path d="m 116.17117,188.82495 0.94336,3.20919 -5.25241,1.54557 -0.94337,-3.20881 5.25242,-1.54595" style="fill:#4e473c;fill-opacity:1;fill-rule:nonzero;stroke:none;stroke-width:0.326765" id="path756"></path>
    <path d="m 120.17142,165.044 14.44921,2.24392 c 1.61096,3.00983 2.60007,6.89897 2.60007,11.08843 0,4.18781 -0.98911,8.07698 -2.60007,11.08683 l -14.44921,2.24157 c -2.44289,-3.16044 -4.0411,-8.00572 -4.0411,-13.3284 0,-5.32399 1.59821,-10.16925 4.0411,-13.33235" style="fill:#947c72;fill-opacity:1;fill-rule:nonzero;stroke:none;stroke-width:0.326765" id="path758"></path>
    <path d="m 114.61152,189.93693 c -1.47698,-3.29441 -2.32951,-7.25414 -2.32951,-11.56058 0,-4.30807 0.85253,-8.26747 2.32951,-11.56192 0.38526,-0.85907 0.81168,-1.67205 1.27765,-2.43406 l 4.28225,0.66363 c -2.44289,3.1631 -4.0411,8.00836 -4.0411,13.33235 0,5.32268 1.59821,10.16796 4.0411,13.3284 l -4.28225,0.66628 c -0.46597,-0.76071 -0.89239,-1.57499 -1.27765,-2.4341" style="fill:#695e50;fill-opacity:1;fill-rule:nonzero;stroke:none;stroke-width:0.326765" id="path760"></path>
    <path d="m 298.08149,167.91986 -0.94436,-3.20915 5.25109,-1.54562 0.94436,3.21149 -5.25109,1.54328" style="fill:#4e473c;fill-opacity:1;fill-rule:nonzero;stroke:none;stroke-width:0.326765" id="path762"></path>
    <path d="m 298.06513,188.82495 -0.9411,3.20919 5.25115,1.54557 0.94108,-3.20881 -5.25113,-1.54595" style="fill:#4e473c;fill-opacity:1;fill-rule:nonzero;stroke:none;stroke-width:0.326765" id="path764"></path>
    <path d="m 294.06554,165.044 -14.44953,2.24392 c -1.61097,3.00983 -2.60106,6.89897 -2.60106,11.08843 0,4.18781 0.99009,8.07698 2.60106,11.08683 l 14.44953,2.24157 c 2.44422,-3.16044 4.04208,-8.00572 4.04208,-13.3284 0,-5.32399 -1.59786,-10.16925 -4.04208,-13.33235" style="fill:#947c72;fill-opacity:1;fill-rule:nonzero;stroke:none;stroke-width:0.326765" id="path766"></path>
    <path d="m 299.62383,189.93693 c 1.47694,-3.29441 2.33307,-7.25414 2.33307,-11.56058 0,-4.30807 -0.85613,-8.26747 -2.33307,-11.56192 -0.38236,-0.85907 -0.81042,-1.67205 -1.27441,-2.43406 l -4.28388,0.66363 c 2.44422,3.1631 4.04208,8.00836 4.04208,13.33235 0,5.32268 -1.59786,10.16796 -4.04208,13.3284 l 4.28388,0.66628 c 0.46399,-0.76071 0.89205,-1.57499 1.27441,-2.4341" style="fill:#695e50;fill-opacity:1;fill-rule:nonzero;stroke:none;stroke-width:0.326765" id="path768"></path>
    <path d="m 195.58024,212.31644 -3.21047,-0.94469 -1.54297,5.25502 3.20884,0.94078 1.5446,-5.25111" style="fill:#4e473c;fill-opacity:1;fill-rule:nonzero;stroke:none;stroke-width:0.326765" id="path770"></path>
    <path d="m 216.48534,212.29976 3.21017,-0.94076 1.54332,5.25142 -3.20886,0.94437 -1.54463,-5.25503" style="fill:#4e473c;fill-opacity:1;fill-rule:nonzero;stroke:none;stroke-width:0.326765" id="path772"></path>
    <path d="m 192.7057,208.30079 2.24128,-14.44918 c 3.00983,-1.61097 6.90029,-2.60136 11.08843,-2.60136 4.18783,0 8.07829,0.99039 11.08814,2.60136 l 2.24288,14.44918 c -3.16175,2.44424 -8.00703,4.04244 -13.33102,4.04244 -5.32397,0 -10.17055,-1.5982 -13.32971,-4.04244" style="fill:#947c72;fill-opacity:1;fill-rule:nonzero;stroke:none;stroke-width:0.326765" id="path774"></path>
    <path d="m 217.59732,213.86206 c -3.29345,1.47434 -7.25545,2.32946 -11.56191,2.32946 -4.30674,0 -8.26879,-0.85512 -11.56192,-2.32946 -0.85906,-0.38528 -1.67203,-0.81302 -2.43276,-1.27769 l 0.66497,-4.28358 c 3.15916,2.44424 8.00574,4.04244 13.32971,4.04244 5.32399,0 10.16927,-1.5982 13.33102,-4.04244 l 0.66366,4.28358 c -0.762,0.46467 -1.57368,0.89241 -2.43277,1.27769" style="fill:#695e50;fill-opacity:1;fill-rule:nonzero;stroke:none;stroke-width:0.326765" id="path776"></path>
    <path d="m 241.53646,212.31644 -3.20884,-0.94469 -1.54461,5.25502 3.21043,0.94078 1.54302,-5.25111" style="fill:#4e473c;fill-opacity:1;fill-rule:nonzero;stroke:none;stroke-width:0.326765" id="path778"></path>
    <path d="m 262.44323,212.29976 3.21011,-0.94076 1.54232,5.25142 -3.20883,0.94437 -1.5436,-5.25503" style="fill:#4e473c;fill-opacity:1;fill-rule:nonzero;stroke:none;stroke-width:0.326765" id="path780"></path>
    <path d="m 238.66192,208.30079 2.2429,-14.44918 c 3.00854,-1.61097 6.90028,-2.60136 11.08683,-2.60136 4.18941,0 8.0799,0.99039 11.08841,2.60136 l 2.24324,14.44918 c -3.1611,2.44424 -8.00638,4.04244 -13.33165,4.04244 -5.32401,0 -10.1693,-1.5982 -13.32973,-4.04244" style="fill:#947c72;fill-opacity:1;fill-rule:nonzero;stroke:none;stroke-width:0.326765" id="path782"></path>
    <path d="m 263.55357,213.86206 c -3.29315,1.47434 -7.25388,2.32946 -11.56192,2.32946 -4.30646,0 -8.26718,-0.85512 -11.56031,-2.32946 -0.85908,-0.38528 -1.67234,-0.81302 -2.4344,-1.27769 l 0.66498,-4.28358 c 3.16043,2.44424 8.00572,4.04244 13.32973,4.04244 5.32527,0 10.17055,-1.5982 13.33165,-4.04244 l 0.66332,4.28358 c -0.76134,0.46467 -1.57498,0.89241 -2.43305,1.27769" style="fill:#695e50;fill-opacity:1;fill-rule:nonzero;stroke:none;stroke-width:0.326765" id="path784"></path>
    <path d="M 129.17281,204.40905 V 152.33577 H 287.9681 v 52.07328 H 129.17281" style="fill:#424143;fill-opacity:1;fill-rule:nonzero;stroke:none;stroke-width:0.326765" id="path786"></path>
    <path d="m 288.09228,199.59545 h -158.9296 v -41.91506 h 158.9296 v 41.91506" style="fill:#535355;fill-opacity:1;fill-rule:nonzero;stroke:none;stroke-width:0.326765" id="path788"></path>
  </g>
</svg>