<svg id="svg26706" xmlns="http://www.w3.org/2000/svg" xmlns:xlink="http://www.w3.org/1999/xlink" viewBox="0 0 149.8 158.82"><defs><style>.cls-1{fill:#434243;}.cls-2{fill:#58595b;}.cls-3{fill:#25a9e0;}.cls-4{fill:#44c7f4;}.cls-5{fill:url(#radial-gradient);}.cls-6{fill:#ba4750;}.cls-7{fill:#00a551;}</style><radialGradient id="radial-gradient" cx="74.9" cy="74.9" r="60.26" gradientUnits="userSpaceOnUse"><stop offset="0.69" stop-color="#25a9e0" stop-opacity="0"/><stop offset="0.69" stop-color="#24a7de" stop-opacity="0.03"/><stop offset="0.71" stop-color="#1d9acc" stop-opacity="0.25"/><stop offset="0.74" stop-color="#1790bf" stop-opacity="0.42"/><stop offset="0.76" stop-color="#1389b5" stop-opacity="0.55"/><stop offset="0.78" stop-color="#1184af" stop-opacity="0.62"/><stop offset="0.8" stop-color="#1083ad" stop-opacity="0.65"/><stop offset="0.85" stop-color="#1186b0" stop-opacity="0.79"/><stop offset="0.9" stop-color="#1188b3" stop-opacity="0.91"/><stop offset="0.95" stop-color="#128ab4" stop-opacity="0.98"/><stop offset="1" stop-color="#128ab5"/></radialGradient></defs><title>Watercooler</title><rect class="cls-1" x="32.22" y="124.35" width="34.47" height="34.47" rx="14.3"/><rect class="cls-1" x="82.9" y="124.35" width="34.47" height="34.47" rx="14.3"/><rect class="cls-1" width="149.8" height="149.8" rx="22.44"/><rect class="cls-2" x="3.75" y="3.75" width="142.31" height="142.31" rx="22.73"/><circle class="cls-3" cx="74.9" cy="74.9" r="67.4"/><circle class="cls-4" cx="74.9" cy="74.9" r="64.34"/><circle class="cls-5" cx="74.9" cy="74.9" r="60.26"/><path class="cls-6" d="M43.14,149.8H53.48a0,0,0,0,1,0,0v3.68a1.92,1.92,0,0,1-1.92,1.92H45.06a1.92,1.92,0,0,1-1.92-1.92V149.8A0,0,0,0,1,43.14,149.8Z"/><path class="cls-7" d="M95.35,149.8h10.34a0,0,0,0,1,0,0v3.72a1.88,1.88,0,0,1-1.88,1.88H97.23a1.88,1.88,0,0,1-1.88-1.88V149.8A0,0,0,0,1,95.35,149.8Z"/></svg>