<?xml version="1.0" encoding="UTF-8" standalone="no"?>
<svg
   xmlns:dc="http://purl.org/dc/elements/1.1/"
   xmlns:cc="http://creativecommons.org/ns#"
   xmlns:rdf="http://www.w3.org/1999/02/22-rdf-syntax-ns#"
   xmlns:svg="http://www.w3.org/2000/svg"
   xmlns="http://www.w3.org/2000/svg"
   xmlns:sodipodi="http://sodipodi.sourceforge.net/DTD/sodipodi-0.dtd"
   xmlns:inkscape="http://www.inkscape.org/namespaces/inkscape"
   width="68.455643mm"
   height="69.491928mm"
   viewBox="0 0 68.455643 69.491928"
   version="1.1"
   id="svg42801"
   inkscape:version="1.0.2 (e86c870879, 2021-01-15, custom)"
   sodipodi:docname="plant8.svg">
  <defs
     id="defs42795" />
  <sodipodi:namedview
     id="base"
     pagecolor="#ffffff"
     bordercolor="#666666"
     borderopacity="1.0"
     inkscape:pageopacity="0.0"
     inkscape:pageshadow="2"
     inkscape:zoom="0.35"
     inkscape:cx="129.36499"
     inkscape:cy="131.32317"
     inkscape:document-units="mm"
     inkscape:current-layer="layer1"
     inkscape:document-rotation="0"
     showgrid="false"
     inkscape:window-width="1267"
     inkscape:window-height="1030"
     inkscape:window-x="213"
     inkscape:window-y="0"
     inkscape:window-maximized="0" />
  <metadata
     id="metadata42798">
    <rdf:RDF>
      <cc:Work
         rdf:about="">
        <dc:format>image/svg+xml</dc:format>
        <dc:type
           rdf:resource="http://purl.org/dc/dcmitype/StillImage" />
        <dc:title></dc:title>
      </cc:Work>
    </rdf:RDF>
  </metadata>
  <g
     inkscape:label="Layer 1"
     inkscape:groupmode="layer"
     id="layer1"
     transform="translate(-71.605513,-113.42074)">
    <path
       d="m 130.26548,148.57673 c 0,13.25718 -10.74734,24.00332 -24.00413,24.00332 -13.256865,0 -24.004135,-10.74614 -24.004135,-24.00332 0,-13.25682 10.74727,-24.00445 24.004135,-24.00445 13.25679,0 24.00413,10.74763 24.00413,24.00445"
       style="fill:#7a4122;fill-opacity:1;fill-rule:nonzero;stroke:none;stroke-width:0.326765"
       id="path4802" />
    <path
       d="m 127.21677,148.57673 c 0,11.57334 -9.38467,20.95514 -20.95542,20.95514 -11.574009,0 -20.955394,-9.3818 -20.955394,-20.95514 0,-11.57464 9.381385,-20.95637 20.955394,-20.95637 11.57075,0 20.95542,9.38173 20.95542,20.95637"
       style="fill:#b59a63;fill-opacity:1;fill-rule:nonzero;stroke:none;stroke-width:0.326765"
       id="path4804" />
    <path
       d="m 126.06989,148.57673 c 0,10.94045 -8.86845,19.80752 -19.80854,19.80752 -10.940103,0 -19.808478,-8.86707 -19.808478,-19.80752 0,-10.9401 8.868375,-19.80875 19.808478,-19.80875 10.94009,0 19.80854,8.86865 19.80854,19.80875"
       style="fill:#261512;fill-opacity:1;fill-rule:nonzero;stroke:none;stroke-width:0.326765"
       id="path4806" />
    <path
       d="m 105.13729,182.91267 c -0.54243,0 -1.08486,-0.40845 -1.35608,-1.22153 -0.41497,0.43399 -0.86268,0.63309 -1.26457,0.63309 -0.9738,0 -1.66327,-1.16289 -0.85287,-2.91412 -0.60124,0.33955 -1.14043,0.4838 -1.59131,0.4838 -1.329938,0 -1.875721,-1.25476 -0.852912,-2.4022 -1.999792,-0.48377 -1.800402,-2.72518 0.918282,-2.97025 -0.892106,-0.52331 -1.329974,-1.15013 -1.428011,-1.70536 -0.179705,0.84246 -0.813682,1.35939 -1.624013,1.35939 -0.823453,0 -1.833174,-0.53605 -2.731805,-1.81377 -0.0163,2.23753 -1.084792,3.35573 -2.150075,3.35573 -0.76461,0 -1.532502,-0.57567 -1.911597,-1.72191 -0.581625,0.61143 -1.215566,0.88843 -1.780858,0.88843 -1.369095,0 -2.336341,-1.63385 -1.199162,-4.09353 -0.843103,0.47611 -1.601223,0.67907 -2.235094,0.67907 -1.872404,0 -2.643576,-1.76791 -1.205795,-3.38261 -2.813403,-0.67903 -2.53245,-3.83558 1.293989,-4.18162 -2.800385,-1.64401 -2.447501,-4.01694 -0.558694,-4.35645 -0.513115,-0.30748 -0.96072,-0.85902 -1.235251,-1.68215 -0.666574,0.70185 -1.38871,1.01843 -2.035705,1.01843 -1.565239,0 -2.672997,-1.86873 -1.369201,-4.68577 -0.967246,0.54638 -1.836385,0.77876 -2.558556,0.77876 -2.143584,0 -3.019319,-2.01948 -1.375657,-3.86638 -3.218639,-0.77734 -2.898387,-4.38446 1.47701,-4.78412 -3.460468,-2.02823 -2.718717,-5.03799 -0.09811,-5.03799 0.248356,0 0.516361,0.0258 0.800594,0.0842 -0.555448,-1.88151 0.372534,-3.18598 1.748156,-3.18598 0.944421,0 2.101144,0.61532 3.130444,2.07564 0.01309,-1.96063 0.741786,-3.12356 1.627329,-3.58429 -0.28762,-0.62808 -0.150354,-1.47666 0.575098,-2.29126 -2.712191,-0.65355 -2.44094,-3.69249 1.241743,-4.02579 -2.911546,-1.70896 -2.287412,-4.24402 -0.08174,-4.24402 0.212407,0 0.437832,0.0255 0.673171,0.0752 -0.467325,-1.58771 0.3169,-2.68305 1.473694,-2.68305 0.797242,0 1.767769,0.51566 2.633662,1.74495 0.0164,-2.15346 1.042459,-3.22817 2.071723,-3.22817 0.735224,0 1.470413,0.55161 1.836385,1.65704 0.562116,-0.59246 1.173127,-0.86032 1.718804,-0.86032 1.150267,0 2.006353,1.20216 1.470448,3.08754 -9.361841,3.2778 -16.073544,12.18611 -16.073544,22.66541 0,10.70155 7.002604,19.76561 16.674819,22.86343 -0.101283,-0.0128 -0.205917,-0.0294 -0.310445,-0.0486 0.08823,0.2974 0.124178,0.57824 0.13395,0.8399 0.08823,-0.28462 0.281058,-0.52331 0.565327,-0.67014 2.195867,0.66252 4.525717,1.01868 6.940487,1.01868 1.77761,0 3.51271,-0.19537 5.18248,-0.56169 0.25816,0.46715 0.17321,1.1309 -0.38555,1.76403 1.99979,0.48119 1.79394,2.73283 -0.92146,2.97787 2.14683,1.26118 1.68931,3.13365 0.0588,3.13365 -0.15688,0 -0.32349,-0.0205 -0.49667,-0.0562 0.34311,1.17309 -0.23199,1.98095 -1.08815,1.98095 -0.58815,0 -1.30372,-0.3829 -1.94422,-1.29169 -0.0131,1.59173 -0.7679,2.38566 -1.52926,2.38566 m 11.43681,-9.04473 c -0.70908,0 -1.42148,-0.53231 -1.77112,-1.59812 -0.54247,0.56924 -1.13062,0.82716 -1.65344,0.82716 -0.66332,0 -1.22533,-0.41233 -1.46064,-1.13351 10.64271,-2.46091 18.57658,-11.99572 18.57658,-23.38674 0,-9.0945 -5.05834,-17.00579 -12.5118,-21.07992 0.35945,-0.53626 0.87249,-0.81333 1.40833,-0.81333 0.6895,0 1.41816,0.45713 1.91487,1.41425 0.55552,-0.8104 1.24824,-1.18582 1.88218,-1.18582 1.23843,0 2.25464,1.43485 1.56848,3.87932 0.93779,-0.75579 1.81681,-1.06984 2.53567,-1.06984 1.56845,0 2.36251,1.50746 1.29723,3.18337 2.88537,0.22217 3.1108,3.38268 -0.61101,4.33616 2.8461,1.10413 3.04218,3.28659 1.5554,4.07801 0.52281,0.30395 0.98351,0.85287 1.26128,1.69263 0.66658,-0.70185 1.39203,-1.01978 2.03906,-1.01978 1.56517,0 2.66636,1.86613 1.3626,4.68937 0.96718,-0.54857 1.83639,-0.78101 2.5618,-0.78101 2.14034,0 3.01932,2.01291 1.38875,3.85621 3.21536,0.77742 2.88533,4.39861 -1.48678,4.79034 3.45722,2.03217 2.71868,5.04172 0.0947,5.04172 -0.24829,0 -0.51622,-0.0268 -0.80052,-0.0853 0.55555,1.88257 -0.37254,3.18597 -1.7482,3.18597 -0.94431,0 -2.10107,-0.61394 -3.13037,-2.07433 -0.0164,2.55796 -1.23514,3.83565 -2.45731,3.83565 -0.87577,0 -1.74819,-0.65585 -2.18602,-1.96684 l -0.4379,0.40195 c 0.73522,1.10409 -0.0882,2.71505 -2.66961,2.94739 2.80684,1.64655 2.20567,4.09092 0.0784,4.09092 -0.20267,0 -0.41826,-0.023 -0.65031,-0.0715 0.45095,1.52915 -0.3006,2.58731 -1.41813,2.58731 -0.7679,0 -1.70251,-0.49908 -2.53895,-1.68614 -0.0131,2.07931 -1.00319,3.1145 -1.99326,3.1145 m -4.02255,-48.46204 c -0.93451,-0.25527 -1.88867,-0.45195 -2.86572,-0.59217 0.45424,-0.33945 0.91821,-0.49664 1.34299,-0.49664 0.67317,0 1.24827,0.39567 1.52273,1.08881 m -3.49963,-0.67384 c -0.91496,-0.10492 -1.84622,-0.15978 -2.79057,-0.15978 -0.18627,0 -0.37247,0.002 -0.55549,0.006 0.41173,-0.72894 1.01949,-1.09132 1.63058,-1.09132 0.65024,0 1.30055,0.41497 1.71548,1.24464"
       style="fill:#72886a;fill-opacity:1;fill-rule:nonzero;stroke:none;stroke-width:0.326765"
       id="path4808" />
    <path
       d="m 106.26135,172.58005 c -2.41477,0 -4.74462,-0.35616 -6.940484,-1.01868 0.09804,-0.0523 0.209091,-0.0957 0.330023,-0.12502 -0.117616,0.0166 -0.235267,0.023 -0.362691,0.023 -0.114406,0 -0.231986,-0.006 -0.356164,-0.0191 -9.672215,-3.09782 -16.674819,-12.16188 -16.674819,-22.86343 0,-10.4793 6.711703,-19.38761 16.073544,-22.66541 -0.07842,0.27577 -0.186231,0.563 -0.323497,0.86036 0.810401,-0.46069 1.539134,-0.65352 2.146828,-0.65352 0.26469,0 0.50656,0.0383 0.72545,0.1046 0.22218,-0.74147 0.82342,-1.18971 1.57826,-1.18971 0.82349,0 1.82989,0.53618 2.72849,1.81024 0.007,-0.96135 0.2092,-1.71552 0.51957,-2.26455 0.18302,-0.004 0.36922,-0.006 0.55549,-0.006 0.94435,0 1.87561,0.0549 2.79057,0.15978 0.0719,0.14806 0.13723,0.30356 0.1928,0.47734 0.14379,-0.15056 0.29407,-0.2849 0.44111,-0.39567 0.97705,0.14022 1.93121,0.3369 2.86572,0.59217 0.28434,0.7185 0.2516,1.75761 -0.33002,3.01237 0.8431,-0.47999 1.60443,-0.68291 2.23837,-0.68291 1.27113,0 2.02918,0.81686 1.94098,1.84559 0.30389,0.2032 0.61758,0.45449 0.93123,0.77869 -0.19928,-1.27769 0.01,-2.24134 0.42157,-2.86283 7.45346,4.07413 12.5118,11.98542 12.5118,21.07992 0,11.39102 -7.93387,20.92583 -18.57658,23.38674 -0.21562,-0.66118 -0.15681,-1.57512 0.34964,-2.66647 -0.78094,0.44044 -1.48022,0.62678 -2.06513,0.62678 -0.51629,0 -0.94435,-0.14299 -1.25479,-0.3881 0.30713,0.50554 0.35948,1.30966 -0.11434,2.33589 0.60121,-0.34329 1.14367,-0.48761 1.59456,-0.48761 0.59471,0 1.03262,0.25276 1.24499,0.6344 -1.66977,0.36632 -3.40487,0.56169 -5.18248,0.56169 m -5.73144,-1.44367 -0.646999,0.26165 0.689469,0.0421 -0.0425,-0.30378 m 1.10772,-1.66324 c 0.34311,0 0.73526,0.13663 1.13054,0.4276 -0.0391,-0.22846 -0.0882,-0.45692 -0.14372,-0.68538 0.33659,0.0587 0.67642,0.11099 1.01953,0.15314 0.0294,0.14429 0.0555,0.2872 0.0785,0.43145 0.0392,-0.14683 0.0816,-0.28081 0.13391,-0.40587 0.79079,0.0918 1.59138,0.13779 2.405,0.13779 0.0687,0 0.14047,0 0.20909,-0.004 0.007,0.0204 0.0131,0.0396 0.0196,0.0625 0.0196,-0.023 0.0392,-0.0422 0.0588,-0.0625 11.43998,-0.15311 20.66784,-9.47625 20.66784,-20.9513 0,-11.57464 -9.38467,-20.95637 -20.95542,-20.95637 -7.607058,0 -14.269867,4.05278 -17.93932,10.12087 0.07183,-0.2425 0.16009,-0.49015 0.280917,-0.75191 -0.463974,0.26176 -0.898596,0.43163 -1.303726,0.53231 0.166582,0.2552 0.320181,0.53231 0.434622,0.87312 l 0.411727,-0.35979 c -1.807033,3.09774 -2.839614,6.69868 -2.839614,10.54177 0,9.77618 6.69537,17.9874 15.750044,20.30155 0.10453,0.22599 0.16666,0.44807 0.19604,0.66002 0.12093,-0.0422 0.24832,-0.0652 0.38559,-0.0652"
       style="fill:#564924;fill-opacity:1;fill-rule:nonzero;stroke:none;stroke-width:0.326765"
       id="path4810" />
    <path
       d="m 106.26135,169.53187 c -0.81362,0 -1.61421,-0.046 -2.405,-0.13779 0.28755,-0.68308 0.78426,-1.02489 1.28094,-1.02489 0.52934,0 1.05544,0.38527 1.33315,1.15884 -0.0686,0.004 -0.14041,0.004 -0.20909,0.004 m 0.28758,-0.004 c 0.39208,-0.38548 0.80708,-0.55788 1.18283,-0.55788 0.23862,0 0.46076,0.0715 0.65031,0.19928 l -0.21893,-0.762 -0.86593,-0.0523 c 10.45972,-0.5389 18.77268,-9.18795 18.77268,-19.77845 0,-1.38218 -0.14383,-2.7354 -0.4118,-4.03592 l 0.26473,0.33959 0.0359,-0.3065 -0.31041,-0.0817 c -1.88542,-8.97951 -9.84871,-15.72419 -19.38697,-15.72419 -10.940103,0 -19.808478,8.86865 -19.808478,19.80875 0,2.72786 0.552238,5.32532 1.548906,7.68816 -0.01961,0.21562 -0.05884,0.40838 -0.08505,0.61136 0.140547,0.0421 0.28762,0.098 0.434623,0.17346 2.212234,4.66267 6.192273,8.32863 11.074083,10.12318 0.839786,0.53234 1.365856,1.12962 1.630566,1.70539 -9.054669,-2.31415 -15.750039,-10.52537 -15.750039,-20.30155 0,-3.84309 1.032581,-7.44403 2.839614,-10.54177 l 0.124072,-0.10485 c 0.0164,-0.0651 0.0327,-0.12749 0.05239,-0.18888 3.669453,-6.06809 10.332262,-10.12087 17.939323,-10.12087 11.57075,0 20.95542,9.38173 20.95542,20.95637 0,11.47505 -9.22786,20.79819 -20.66784,20.9513 m -2.90495,-0.15953 c -0.34311,-0.0422 -0.68294,-0.0944 -1.01953,-0.15314 -0.10781,-0.43148 -0.24179,-0.85397 -0.37902,-1.23962 0.35292,0.0729 0.71233,0.13793 1.07509,0.19018 0.1209,0.3755 0.23527,0.7813 0.32346,1.20258"
       style="fill:#777e4a;fill-opacity:1;fill-rule:nonzero;stroke:none;stroke-width:0.326765"
       id="path4812" />
    <path
       d="m 107.29721,168.35518 -1.36264,-0.0817 c -0.71233,-0.0422 -1.44756,-0.0843 -2.16973,-0.2872 L 103.1865,167.764 c 0.0457,0.1301 0.0915,0.26437 0.13402,0.40192 -0.36276,-0.0522 -0.72217,-0.11723 -1.07509,-0.19018 -0.10456,-0.28685 -0.21241,-0.55513 -0.31694,-0.79365 l -0.29086,-0.14933 -0.75484,-0.41236 c -0.45417,0.20546 -0.977054,0.37507 -1.646909,0.43388 0.06537,0.0396 0.127459,0.0791 0.189548,0.11861 -4.88181,-1.79455 -8.861849,-5.46051 -11.074083,-10.12318 0.42485,0.20948 0.865928,0.549 1.294024,1.03915 l 0.0098,-0.0105 0.238548,-0.33951 c -0.624134,-0.32022 -1.271199,-0.88191 -1.878894,-1.7423 0,0.0957 -0.0065,0.1839 -0.01305,0.26832 -0.996668,-2.36284 -1.548906,-4.9603 -1.548906,-7.68816 0,-10.9401 8.868375,-19.80875 19.808482,-19.80875 9.53826,0 17.50155,6.74468 19.38697,15.72419 l -0.0359,-0.0102 0.0457,0.0588 c 0.26797,1.30052 0.4118,2.65374 0.4118,4.03592 0,10.5905 -8.31296,19.23955 -18.77268,19.77845 m -1.3691,-3.51927 c -0.01,1.40536 -0.60131,2.17621 -1.26464,2.33962 0.43794,0.0689 0.88555,0.11113 1.32991,0.1379 l 2.39843,0.14672 0.45423,-0.66989 c -0.5849,-0.14051 -1.00316,-0.40844 -1.29395,-0.7251 -0.51961,-0.11105 -1.09467,-0.47741 -1.62398,-1.22925 m -2.8854,1.16032 -0.44108,0.34964 0.0653,0.13656 c 0.32678,0.17127 0.6568,0.31411 0.98679,0.43529 -0.24832,-0.20553 -0.4705,-0.49636 -0.61104,-0.92149 m -3.159803,-13.43328 -0.522781,0.79406 -2.271078,3.27773 c 0.578344,0.6767 0.738505,1.92758 -0.0065,3.5421 l 0.140511,-0.0725 c 0.202565,-0.60385 0.901912,-1.16294 2.176251,-1.27798 -2.150145,-1.26097 -1.689347,-3.12977 -0.06205,-3.12977 0.156775,0 0.323462,0.0166 0.496676,0.0523 -0.297356,-1.01593 0.101247,-1.75116 0.771174,-1.9286 -0.26797,-0.40062 -0.51308,-0.82311 -0.722173,-1.25737 m 22.916023,6.2546 -0.0784,0.0382 0.0653,-0.006 0.0131,-0.032 m -12.29945,-1.00054 -0.17974,0.27185 0.17321,0.0689 0.007,-0.34078 m -17.602808,-2.93081 0.127459,0.61143 c 0.447569,0.26797 0.843033,0.74793 1.081546,1.47038 0.58166,-0.6114 1.212285,-0.88582 1.774331,-0.88582 0.133985,0 0.264689,0.0128 0.388867,0.0461 l 2.300429,-3.32028 c 0.454166,-0.65352 0.92142,-1.32729 1.10116,-2.07786 0.147109,-0.61531 0.09479,-1.29173 0.04579,-1.95174 l -0.09479,-1.2966 c -1.356042,0.46073 -2.597749,1.25211 -3.891738,2.10072 -0.447675,0.29771 -0.905087,0.58851 -1.36585,0.87313 2.545468,1.9861 1.735067,4.51852 -0.669855,4.51852 -0.248355,0 -0.516325,-0.0291 -0.797348,-0.088 m 16.573577,0.83358 c 0.843,0 1.36578,0.50292 1.3625,1.17277 0.28109,-0.36858 0.70262,-0.57806 1.1993,-0.57806 0.45417,0 0.97046,0.17614 1.49003,0.5679 0.0196,-0.38163 0.10128,-0.80412 0.3267,-1.28644 -0.60116,0.33955 -1.14035,0.48232 -1.58806,0.48232 -1.33318,0 -1.87886,-1.2548 -0.85609,-2.40464 -1.16,-0.27707 -1.55539,-1.14367 -1.17305,-1.87501 -0.66005,-0.0395 -1.33978,-0.0882 -2.00964,-0.27446 -0.7777,-0.21566 -1.46395,-0.59242 -2.12725,-0.95483 l -1.06521,-0.58067 c 0.40189,1.15873 0.89532,2.29358 1.50636,3.39379 0.16665,-0.0611 0.32678,-0.0905 0.48359,-0.0905 0.86921,0 1.49006,0.93684 1.00644,2.41515 l 0.22549,0.3035 c 0.45417,-0.20289 0.86265,-0.29083 1.21889,-0.29083 m -8.87826,-8.14624 0.0849,1.13714 c 0.0523,0.72771 0.10791,1.48326 -0.0718,2.24162 l -0.14054,0.43392 c 0.2777,0.98654 0.96396,1.96681 1.59134,2.83993 0.27446,0.2056 0.54899,0.45717 0.8104,0.83354 0.013,-1.58506 0.75812,-2.36639 1.51289,-2.36639 0.33006,0 0.66012,0.15067 0.9313,0.45194 -0.63063,-1.23941 -1.13715,-2.51968 -1.51617,-3.83064 l -3.20231,-1.74106 m 13.43325,-3.68618 c -0.9345,3.24831 -4.79361,5.43112 -6.59736,6.29377 0.34311,0.16602 0.69271,0.31267 1.05219,0.41501 0.62742,0.17614 1.30711,0.21562 1.96713,0.25386 l 0.92145,0.0562 c 0.27778,-0.0945 0.58819,-0.16954 0.95419,-0.20288 -2.15011,-1.26108 -1.68938,-3.13373 -0.0621,-3.13373 0.15688,0 0.32353,0.0206 0.49675,0.0562 -0.34315,-1.17041 0.23198,-1.98078 1.08807,-1.98078 0.58826,0 1.30708,0.38259 1.9443,1.29166 0.006,-0.93581 0.28099,-1.57275 0.65027,-1.95798 -0.1144,-0.58851 -0.0981,-1.30345 0.14044,-2.15601 -0.93778,0.75421 -1.81677,1.06465 -2.53238,1.06465 -0.007,0 -0.0164,0 -0.0229,0 m -6.17908,1.93121 c -1.20575,0 -2.49646,0.27443 -3.26114,0.49633 -0.59468,0.6767 -1.16978,1.17701 -1.56193,1.48706 l 3.32649,1.80989 c 0.63394,-0.27051 2.72524,-1.23542 4.45385,-2.73791 l -0.20271,0.0984 c -0.41821,-0.8757 -1.54227,-1.15373 -2.75456,-1.15373 m -10.779971,0.75805 c 0.137266,0.30784 0.179776,0.63454 0.137266,0.96365 0.483552,-0.27679 0.980299,-0.53234 1.496624,-0.74538 -0.53594,-0.11374 -1.078406,-0.18895 -1.63389,-0.21827 m 5.947171,-3.58785 c -0.3464,0.0101 -0.69279,0.0228 -1.03918,0.0394 -0.31697,0.6562 -0.60773,1.32612 -0.94439,1.96952 -0.0817,0.16076 -0.2679,0.49008 -0.57831,0.69695 l 0.0555,0.73522 1.59135,0.86918 c 0.34635,-0.24899 2.67948,-2.01027 3.26439,-4.31031 -0.33002,-0.0105 -0.66333,-0.007 -0.99332,-0.0105 -0.24511,0.0958 -0.48369,0.14052 -0.71243,0.14052 -0.22864,0 -0.4444,-0.0447 -0.64364,-0.13 m 4.79361,1.87886 c 1.41485,0 2.8526,0.33298 3.54214,1.49722 0.79403,-0.7875 1.44427,-1.69654 1.74487,-2.7124 -0.36922,-0.19907 -0.63391,-0.51961 -0.75477,-0.92153 -0.44764,0.25129 -0.97702,0.52575 -1.57497,0.6241 l -0.53266,0.0395 c -0.34632,0 -0.68626,-0.0461 -1.01953,-0.0895 l -0.54575,-0.0585 c -0.38223,0.45191 -0.85284,0.67642 -1.32662,0.67642 -0.37906,0 -0.75812,-0.14672 -1.0947,-0.43787 -0.17967,0.58847 -0.46073,1.12698 -0.7777,1.63117 0.66333,-0.1313 1.49659,-0.24863 2.33969,-0.24863 m -11.897539,-1.88154 c 0.0719,0.65359 -0.173179,1.4182 -0.826735,2.156 0.434622,0.10453 0.797313,0.26148 1.101196,0.45427 1.120881,0.006 2.238375,0.10714 3.326518,0.4185 l -0.0164,-0.23851 -0.346357,-0.18623 c -1.153443,-0.75587 -2.238305,-1.63386 -3.238218,-2.60403 m 0.751557,-3.19374 c -0.251601,0.65352 -0.464008,1.29195 -0.640432,1.9249 1.107651,1.15383 2.326569,2.19953 3.653155,3.06867 l 0.241864,0.12383 c 0,0 0.08502,-0.0153 0.264651,-0.35617 0.18955,-0.36897 0.34968,-0.7506 0.53594,-1.12342 h -0.01 c 0.003,-0.0294 0.0359,-2.15335 -1.065287,-3.78721 l -0.31369,-0.0957 c -0.284304,0.4457 -0.754839,0.6996 -1.313674,0.6996 -0.414831,0 -0.878911,-0.14281 -1.352727,-0.45449 m 12.832048,0.81065 c -0.007,0.69963 -0.13723,1.24827 -0.31369,1.7283 l 0.0817,0.0101 c 0.36929,0.0461 0.68298,0.0882 0.97709,0.0882 0.13063,0 0.25481,-0.006 0.37571,-0.0254 l 0.66336,-0.20948 c -0.58819,-0.26437 -1.20907,-0.77481 -1.78417,-1.5917 m -17.847878,-0.1761 c -0.07839,0.50027 -0.235267,1.04531 -0.509728,1.63773 0.473816,-0.26829 0.921455,-0.46108 1.342954,-0.58586 -0.333269,-0.20948 -0.610976,-0.57838 -0.833226,-1.05187 m 10.809398,-1.39528 c -0.60773,0.3434 -1.16985,0.54247 -1.67305,0.62671 0.38234,0.72246 0.6012,1.47045 0.72545,2.11512 0.14704,-0.31793 0.31041,-0.6241 0.45092,-0.94464 0.0359,-0.52966 0.18627,-1.13093 0.49668,-1.79719 m -8.100558,2.29782 -0.04572,0.0229 0.09151,0.0216 -0.04579,-0.0444 m 1.026054,-2.82748 c -0.0065,0.84632 -0.179705,1.50633 -0.437797,2.0193 l 0.339796,0.39575 c 0.186266,-0.6078 0.369323,-1.21525 0.60452,-1.79719 l -0.506519,-0.61786"
       style="fill:#282718;fill-opacity:1;fill-rule:nonzero;stroke:none;stroke-width:0.326765"
       id="path4814" />
    <path
       d="m 97.634764,137.26773 c -0.333269,0 -0.601274,-0.17349 -0.764611,-0.28201 -2.405027,-1.57794 -4.532242,-3.66603 -6.146482,-6.04509 l 0.797313,-0.54278 c 1.542344,2.27848 3.574838,4.27475 5.878548,5.78111 l 0.238513,0.12382 c 0,0 0.08495,-0.0128 0.264654,-0.35616 1.316849,-2.51841 2.467081,-5.15927 3.411471,-7.83848 l 0.90836,0.32025 c -0.96065,2.72133 -2.12721,5.40047 -3.466991,7.96618 -0.120897,0.22846 -0.437832,0.83358 -1.061932,0.86925 l -0.05884,0.004"
       style="fill:#5a3319;fill-opacity:1;fill-rule:nonzero;stroke:none;stroke-width:0.326765"
       id="path4816" />
    <path
       d="m 107.95725,134.79021 c -0.34963,0 -0.68943,-0.0461 -1.01952,-0.0918 -2.55524,-0.3333 -5.07792,-0.41762 -7.571039,-0.26045 l -0.06216,-0.96136 c 2.558559,-0.16076 5.140009,-0.0712 7.682269,0.25785 0.52606,0.069 0.94763,0.12777 1.34951,0.0654 0.4444,-0.0716 0.88223,-0.30392 1.26133,-0.51598 2.94738,-1.65406 5.47983,-4.02575 7.32278,-6.86205 l 0.80712,0.52606 c -1.92793,2.96372 -4.578,5.44784 -7.6594,7.17606 -0.45093,0.25132 -0.98027,0.5297 -1.57826,0.62414 l -0.53263,0.0422"
       style="fill:#5a3319;fill-opacity:1;fill-rule:nonzero;stroke:none;stroke-width:0.326765"
       id="path4818" />
    <path
       d="m 92.197435,151.80091 -0.823489,-0.49632 0.323462,-0.61405 0.07193,0.0357 4.522435,-6.52258 c 0.454237,-0.65352 0.921421,-1.32997 1.101161,-2.07786 0.147073,-0.61401 0.09804,-1.29434 0.04904,-1.95051 l -0.241794,-3.2088 0.960649,-0.0716 0.238584,3.20915 c 0.05553,0.73131 0.111054,1.48551 -0.0719,2.24385 -0.218934,0.92808 -0.764681,1.71298 -1.244988,2.40471 l -4.885091,7.04832"
       style="fill:#5a3319;fill-opacity:1;fill-rule:nonzero;stroke:none;stroke-width:0.326765"
       id="path4820" />
    <path
       d="m 102.6277,151.29799 -3.627086,-5.1132 c -0.728663,-1.0136 -1.552152,-2.16351 -1.826613,-3.41831 l 0.941105,-0.20288 c 0.232022,1.05936 0.993352,2.124 1.666487,3.0582 l 3.633647,5.12102 -0.78754,0.55517"
       style="fill:#5a3319;fill-opacity:1;fill-rule:nonzero;stroke:none;stroke-width:0.326765"
       id="path4822" />
    <path
       d="m 111.87845,143.43281 -3.76439,-0.22447 c -0.70901,-0.0434 -1.44423,-0.0896 -2.16969,-0.29119 -0.77445,-0.21565 -1.46388,-0.59242 -2.12725,-0.95482 l -6.371868,-3.46665 0.460728,-0.84635 6.37187,3.4706 c 0.61765,0.33559 1.2548,0.68562 1.92472,0.87185 0.62738,0.1735 1.31029,0.21566 1.96713,0.25517 l 3.76752,0.22613 -0.0588,0.95973"
       style="fill:#5a3319;fill-opacity:1;fill-rule:nonzero;stroke:none;stroke-width:0.326765"
       id="path4824" />
    <path
       d="m 107.42463,159.8949 -3.76763,-0.22482 c -0.70905,-0.0418 -1.44427,-0.0853 -2.16637,-0.28692 -0.76797,-0.21593 -1.46068,-0.59242 -2.12729,-0.95479 l -6.371908,-3.47056 0.460728,-0.84631 6.371943,3.47056 c 0.650237,0.35359 1.261247,0.68915 1.924617,0.87309 0.62417,0.17219 1.30704,0.21438 1.96712,0.25385 l 3.76763,0.22585 -0.0588,0.96005"
       style="fill:#5a3319;fill-opacity:1;fill-rule:nonzero;stroke:none;stroke-width:0.326765"
       id="path4826" />
    <path
       d="m 105.88888,148.8973 c -2.14683,-2.61415 -3.65329,-5.47726 -4.47671,-8.50635 l 0.92473,-0.2552 c 0.79079,2.89874 2.23503,5.6406 4.29698,8.15241 l -0.745,0.60914"
       style="fill:#5a3319;fill-opacity:1;fill-rule:nonzero;stroke:none;stroke-width:0.326765"
       id="path4828" />
    <path
       d="m 85.66212,143.73013 c -0.424815,0 -0.85291,-0.0127 -1.274409,-0.0229 l 0.02614,-0.96001 c 1.316813,0.032 2.676172,0.0676 3.950617,-0.24511 1.637065,-0.40189 3.055197,-1.33611 4.561629,-2.32689 1.578292,-1.03876 3.208796,-2.11116 5.110586,-2.50691 l 0.196074,0.94209 c -1.722085,0.35878 -3.205586,1.33643 -4.777317,2.36908 -1.506362,0.9894 -3.06504,2.01546 -4.862231,2.4572 -0.973808,0.23855 -1.957388,0.29341 -2.93109,0.29341"
       style="fill:#5a3319;fill-opacity:1;fill-rule:nonzero;stroke:none;stroke-width:0.326765"
       id="path4830" />
    <path
       d="m 97.419146,138.44961 c -1.660031,-0.59104 -3.434362,-0.52832 -5.316467,-0.4633 -1.803788,0.0588 -3.666349,0.12774 -5.430873,-0.43138 -1.369166,-0.43526 -2.568399,-1.20869 -3.728368,-1.95439 l 0.519572,-0.81033 c 1.107687,0.71229 2.254638,1.45115 3.499661,1.84552 1.610889,0.51075 3.313395,0.45195 5.107305,0.38954 1.888632,-0.069 3.839458,-0.13398 5.672597,0.51689 l -0.323427,0.90745"
       style="fill:#5a3319;fill-opacity:1;fill-rule:nonzero;stroke:none;stroke-width:0.326765"
       id="path4832" />
    <path
       d="m 85.52489,152.47112 -0.96072,-0.0843 c 0.09151,-1.06196 0.977018,-1.62729 1.757962,-2.12393 0.401991,-0.25524 0.781015,-0.49375 1.055476,-0.78751 0.607801,-0.64082 0.741751,-1.59561 0.885543,-2.60498 0.04569,-0.31267 0.0882,-0.62449 0.147003,-0.92805 0.297391,-1.55212 1.013001,-2.99971 2.065161,-4.18158 l 0.718891,0.63944 c -0.93786,1.05319 -1.574942,2.33966 -1.839666,3.72583 -0.05556,0.2872 -0.09472,0.58455 -0.137266,0.87831 -0.160126,1.11425 -0.323462,2.26808 -1.140389,3.13369 -0.356165,0.37642 -0.803805,0.66361 -1.238427,0.93811 -0.787506,0.50031 -1.267848,0.84374 -1.313568,1.39499"
       style="fill:#5a3319;fill-opacity:1;fill-rule:nonzero;stroke:none;stroke-width:0.326765"
       id="path4834" />
    <path
       d="m 93.710323,133.23157 -0.931298,-0.24875 c 0.228741,-0.86292 0.519535,-1.71548 0.85284,-2.53509 0.183021,-0.44171 0.320252,-0.78119 0.317006,-1.10402 -0.0028,-0.30522 -0.133985,-0.62809 -0.258128,-0.94206 l -1.313568,-3.25102 0.892034,-0.36008 1.313639,3.25229 c 0.143686,0.35881 0.323391,0.80285 0.329953,1.29071 0.0065,0.51558 -0.186267,0.98259 -0.356164,1.39495 -0.352884,0.86565 -0.62738,1.67993 -0.846314,2.50307"
       style="fill:#5a3319;fill-opacity:1;fill-rule:nonzero;stroke:none;stroke-width:0.326765"
       id="path4836" />
    <path
       d="m 83.319217,139.53842 -0.02289,-0.014 v 0 0 l 0.0066,-0.006 0.0065,-0.002 -0.01305,0.009 0.02942,0.014 z m -0.02614,0.0357 -0.0032,-0.006 -0.0028,-0.0268 v 0 l 0.01305,0.006 h 0.0032 l -0.01637,-0.006 z m -0.0066,-0.0651 h -0.0028 v -0.014 l 0.0028,0.014 0.02614,-0.0202 -0.0032,0.004 z m -0.01637,0.0523 -0.0028,-0.0164 -0.02286,0.019 0.0028,-0.006 0.01958,-0.0128 v 0 h 0.0032 v 0.0128 z m -0.03595,-0.0458 0.02289,0.0127 v 0 l -0.0098,0.0101 h -0.0028 l 0.0097,-0.006 -0.02604,-0.0166 z m 0.02946,-0.0333 0.0028,0.0294 v 0 l -0.01309,-0.006 -0.0028,-0.002 0.01637,0.009 -0.0065,-0.032 z m 9.544826,-2.94714 c 2.186059,-2.46994 -0.13402,-5.24098 -3.947371,-3.07485 1.842946,-3.9865 -1.120811,-6.06834 -3.404906,-3.66988 -1.039036,-3.14244 -4.610665,-2.52225 -4.640016,1.87008 -2.532415,-3.59181 -5.816424,-2.06548 -4.881915,1.11037 -3.241464,-0.67021 -4.489698,2.73169 -0.702522,4.95374 -4.375362,0.39571 -4.695578,4.00286 -1.47694,4.78024 -2.199181,2.47393 0.117617,5.25501 3.934249,3.09157 -1.839666,3.97605 1.127372,6.06436 3.408151,3.66589 1.042353,3.14381 4.6107,2.52367 4.643332,-1.86877 2.529099,3.5905 5.813143,2.0652 4.878564,-1.11033 3.241534,0.66893 4.489803,-2.73304 0.702557,-4.95371 4.375397,-0.39574 4.70214,-4.01697 1.486817,-4.79435"
       style="fill:#344a1f;fill-opacity:1;fill-rule:nonzero;stroke:none;stroke-width:0.326765"
       id="path4838" />
    <path
       d="m 83.270146,139.53842 c -10.25712,7.45677 0.774453,12.6582 0,0"
       style="fill:#527e2d;fill-opacity:1;fill-rule:nonzero;stroke:none;stroke-width:0.326765"
       id="path4840" />
    <path
       d="m 83.283269,139.53842 c 1.329902,12.61252 11.35179,5.65955 0,0"
       style="fill:#527e2d;fill-opacity:1;fill-rule:nonzero;stroke:none;stroke-width:0.326765"
       id="path4842" />
    <path
       d="m 83.263655,139.5283 c -11.587128,-5.15669 -10.577372,6.99992 0,0"
       style="fill:#527e2d;fill-opacity:1;fill-rule:nonzero;stroke:none;stroke-width:0.326765"
       id="path4844" />
    <path
       d="m 83.688399,139.24107 -0.40513,0.27449 v 0 0 l -0.04907,-0.48753 0.03595,0.48753 v 0 l -0.44764,-0.20291 0.441149,0.21565 v 0 l -0.398639,0.28459 0.40513,-0.27447 v 0 0 l 0.04907,0.48624 -0.03595,-0.48624 0.44764,0.20165 -0.441113,-0.21569 v 0 l 0.398603,-0.28331"
       style="fill:#527e2d;fill-opacity:1;fill-rule:nonzero;stroke:none;stroke-width:0.326765"
       id="path4846" />
    <path
       d="m 83.289796,139.52438 c 11.587092,5.1567 10.577372,-6.99861 0,0"
       style="fill:#527e2d;fill-opacity:1;fill-rule:nonzero;stroke:none;stroke-width:0.326765"
       id="path4848" />
    <path
       d="m 83.270146,139.51556 c -1.329867,-12.61381 -11.35179,-5.65993 0,0"
       style="fill:#527e2d;fill-opacity:1;fill-rule:nonzero;stroke:none;stroke-width:0.326765"
       id="path4850" />
    <path
       d="m 83.283269,139.51556 c 10.257121,-7.45712 -0.774453,-12.65953 0,0"
       style="fill:#527e2d;fill-opacity:1;fill-rule:nonzero;stroke:none;stroke-width:0.326765"
       id="path4852" />
    <path
       d="m 83.273427,139.53447 c -7.205134,5.23875 0.542466,8.89166 0,0"
       style="fill:#6ea62d;fill-opacity:1;fill-rule:nonzero;stroke:none;stroke-width:0.326765"
       id="path4854" />
    <path
       d="m 83.283269,139.53447 c 0.931193,8.856 7.96978,3.97383 0,0"
       style="fill:#6ea62d;fill-opacity:1;fill-rule:nonzero;stroke:none;stroke-width:0.326765"
       id="path4856" />
    <path
       d="m 83.2669,139.5283 c -8.136432,-3.61992 -7.427348,4.91419 0,0"
       style="fill:#6ea62d;fill-opacity:1;fill-rule:nonzero;stroke:none;stroke-width:0.326765"
       id="path4858" />
    <path
       d="m 83.564221,139.32538 -0.284197,0.19276 v 0 0 l -0.0327,-0.34212 0.02282,0.34212 -0.310374,-0.14048 0.307128,0.15064 -0.281022,0.199 0.287549,-0.19283 v 0 l 0.03274,0.34343 -0.0229,-0.34343 v 0 0 l 0.310409,0.14055 -0.307163,-0.15064 0.277706,-0.199"
       style="fill:#6ea62d;fill-opacity:1;fill-rule:nonzero;stroke:none;stroke-width:0.326765"
       id="path4860" />
    <path
       d="m 83.286515,139.52438 c 8.136467,3.62116 7.427384,-4.91423 0,0"
       style="fill:#6ea62d;fill-opacity:1;fill-rule:nonzero;stroke:none;stroke-width:0.326765"
       id="path4862" />
    <path
       d="m 83.270146,139.51814 c -0.931192,-8.85857 -7.96978,-3.97373 0,0"
       style="fill:#6ea62d;fill-opacity:1;fill-rule:nonzero;stroke:none;stroke-width:0.326765"
       id="path4864" />
    <path
       d="m 83.280024,139.51814 c 7.205098,-5.23738 -0.542467,-8.89028 0,0"
       style="fill:#6ea62d;fill-opacity:1;fill-rule:nonzero;stroke:none;stroke-width:0.326765"
       id="path4866" />
    <path
       d="m 126.15152,144.15138 -0.0228,-0.009 0.006,-0.007 0.007,-0.003 -0.0131,0.0101 0.0294,0.009 z m -0.0261,0.0395 -0.003,-0.006 -0.003,-0.0254 v 0 l 0.01,0.002 0.007,0.004 -0.0164,-0.006 z m -0.007,-0.0651 h -0.003 v -0.0166 l 0.003,0.0166 0.0262,-0.0189 -0.003,0.002 z m -0.0163,0.0488 v -0.0154 l -0.0262,0.019 0.003,-0.003 0.0229,-0.0154 v 0 0.0128 z m -0.0359,-0.0422 0.0261,0.0101 h -0.003 l 0.003,0.002 -0.0131,0.006 h -0.003 l 0.01,-0.006 -0.0261,-0.0166 z m 0.0294,-0.0333 0.003,0.0267 v 0 l -0.0131,-0.004 -0.003,-0.002 0.0163,0.006 -0.007,-0.033 z m 9.54479,-2.9471 c 2.18606,-2.47001 -0.13391,-5.24094 -3.95058,-3.07746 1.84623,-3.98392 -1.1175,-6.06834 -3.40159,-3.66991 -1.03911,-3.14378 -4.61063,-2.52222 -4.64002,1.86877 -2.53248,-3.5905 -5.81646,-2.06513 -4.88195,1.11167 -3.24146,-0.67024 -4.48969,2.73174 -0.70252,4.95639 -4.37208,0.39568 -4.69558,4.00283 -1.47697,4.78025 -2.19911,2.4736 0.11765,5.25109 3.93424,3.08888 -1.83966,3.98001 1.12734,6.06443 3.40819,3.66995 1.04232,3.13979 4.61067,2.52194 4.6433,-1.87008 2.52913,3.58814 5.81646,2.06513 4.87863,-1.1104 3.24147,0.66633 4.48974,-2.73177 0.70256,-4.95769 4.3754,-0.39437 4.7021,-4.0156 1.48671,-4.79037"
       style="fill:#48762c;fill-opacity:1;fill-rule:nonzero;stroke:none;stroke-width:0.326765"
       id="path4868" />
    <path
       d="m 126.10252,144.15526 c -10.25712,7.45677 0.77445,12.6582 0,0"
       style="fill:#6ea82e;fill-opacity:1;fill-rule:nonzero;stroke:none;stroke-width:0.326765"
       id="path4870" />
    <path
       d="m 126.11557,144.15138 c 1.32998,12.61368 11.35186,5.65983 0,0"
       style="fill:#6ea82e;fill-opacity:1;fill-rule:nonzero;stroke:none;stroke-width:0.326765"
       id="path4872" />
    <path
       d="m 126.09596,144.14253 c -11.58709,-5.15303 -10.57737,6.99869 0,0"
       style="fill:#6ea82e;fill-opacity:1;fill-rule:nonzero;stroke:none;stroke-width:0.326765"
       id="path4874" />
    <path
       d="m 126.52081,143.85399 -0.40524,0.2745 v 0 0 l -0.049,-0.4862 0.0359,0.4862 v 0 0.004 l -0.44764,-0.20292 0.44108,0.21305 v 0 0 l -0.39864,0.28331 0.4052,-0.27058 v 0 0 l 0.049,0.48631 -0.0359,-0.49019 v 0 l 0.44768,0.20295 -0.44111,-0.2118 v 0 0 l 0.39867,-0.28854"
       style="fill:#6ea82e;fill-opacity:1;fill-rule:nonzero;stroke:none;stroke-width:0.326765"
       id="path4876" />
    <path
       d="m 126.12214,144.14253 c 11.58705,5.15274 10.5774,-7.00257 0,0"
       style="fill:#6ea82e;fill-opacity:1;fill-rule:nonzero;stroke:none;stroke-width:0.326765"
       id="path4878" />
    <path
       d="m 126.10252,144.12849 c -1.32997,-12.6099 -11.35182,-5.65602 0,0"
       style="fill:#6ea82e;fill-opacity:1;fill-rule:nonzero;stroke:none;stroke-width:0.326765"
       id="path4880" />
    <path
       d="m 126.11557,144.12849 c 10.25716,-7.45547 -0.77441,-12.65824 0,0"
       style="fill:#6ea82e;fill-opacity:1;fill-rule:nonzero;stroke:none;stroke-width:0.326765"
       id="path4882" />
    <path
       d="m 126.10584,144.15138 c -7.20517,5.23604 0.54236,8.88898 0,0"
       style="fill:#8bcf30;fill-opacity:1;fill-rule:nonzero;stroke:none;stroke-width:0.326765"
       id="path4884" />
    <path
       d="m 126.11557,144.14877 c 0.9313,8.85857 7.96978,3.97605 0,0"
       style="fill:#8bcf30;fill-opacity:1;fill-rule:nonzero;stroke:none;stroke-width:0.326765"
       id="path4886" />
    <path
       d="m 126.09921,144.14253 c -8.1364,-3.62127 -7.42732,4.91423 0,0"
       style="fill:#8bcf30;fill-opacity:1;fill-rule:nonzero;stroke:none;stroke-width:0.326765"
       id="path4888" />
    <path
       d="m 126.39984,143.94353 -0.28751,0.18887 -0.0327,-0.33948 0.0263,0.34305 h -0.003 v 0 l -0.31041,-0.14408 0.30713,0.15064 -0.27774,0.19896 0.28434,-0.19011 v 0 l 0.0326,0.34079 -0.0229,-0.3434 v 0 l 0.31365,0.14305 -0.31037,-0.14929 v 0 0 l 0.28102,-0.199"
       style="fill:#8bcf30;fill-opacity:1;fill-rule:nonzero;stroke:none;stroke-width:0.326765"
       id="path4890" />
    <path
       d="m 126.11885,144.14253 c 8.13644,3.61985 7.42735,-4.9155 0,0"
       style="fill:#8bcf30;fill-opacity:1;fill-rule:nonzero;stroke:none;stroke-width:0.326765"
       id="path4892" />
    <path
       d="m 126.10252,144.13597 c -0.93126,-8.85956 -7.96978,-3.97701 0,0"
       style="fill:#8bcf30;fill-opacity:1;fill-rule:nonzero;stroke:none;stroke-width:0.326765"
       id="path4894" />
    <path
       d="m 126.11233,144.1324 c 7.20513,-5.23476 -0.54243,-8.88799 0,0"
       style="fill:#8bcf30;fill-opacity:1;fill-rule:nonzero;stroke:none;stroke-width:0.326765"
       id="path4896" />
    <path
       d="m 102.14743,151.34798 -0.0131,-0.008 0.007,-0.006 v 0 l -0.004,0.006 0.013,0.0104 z m -0.0164,0.0255 v -0.004 l -0.003,-0.019 0.007,0.003 0.003,0.002 -0.01,-0.006 z m -0.006,-0.0422 v 0 -0.0102 0.006 l 0.0163,-0.01 v 0.004 z m -0.007,0.0321 v -0.007 l -0.0164,0.007 v -0.002 l 0.0132,-0.006 v 0 h 0.003 v 0.006 z m -0.0229,-0.0295 0.01,0.006 0.003,0.004 h 0.003 l -0.01,0.004 v 0 l 0.007,-0.004 -0.0164,-0.0101 z m 0.0196,-0.0193 v 0.0193 l -0.007,-0.002 -0.004,-0.004 0.01,0.004 -0.003,-0.0206 z m 5.93076,-1.83021 c 1.35608,-1.53575 -0.085,-3.25748 -2.45399,-1.91093 1.14695,-2.47752 -0.69599,-3.77056 -2.1142,-2.28113 -0.64696,-1.95404 -2.86568,-1.56845 -2.8853,1.16039 -1.571762,-2.23249 -3.614028,-1.28161 -3.032403,0.69173 -2.016125,-0.41727 -2.790578,1.69657 -0.437832,3.07876 -2.718647,0.24507 -2.918002,2.48666 -0.918246,2.97032 -1.365814,1.53546 0.07518,3.26365 2.444186,1.92101 -1.14367,2.47132 0.699347,3.76795 2.117515,2.27856 0.65024,1.95277 2.86568,1.5675 2.88526,-1.16032 1.57177,2.23118 3.61407,1.28026 3.03244,-0.69311 2.01613,0.41861 2.79051,-1.69657 0.43784,-3.07879 2.71864,-0.24374 2.92128,-2.49548 0.92473,-2.97649"
       style="fill:#3f6428;fill-opacity:1;fill-rule:nonzero;stroke:none;stroke-width:0.326765"
       id="path4898" />
    <path
       d="m 102.11797,151.35059 c -6.375153,4.63328 0.48038,7.86532 0,0"
       style="fill:#62972f;fill-opacity:1;fill-rule:nonzero;stroke:none;stroke-width:0.326765"
       id="path4900" />
    <path
       d="m 102.12453,151.35059 c 0.8267,7.83583 7.05482,3.51638 0,0"
       style="fill:#62972f;fill-opacity:1;fill-rule:nonzero;stroke:none;stroke-width:0.326765"
       id="path4902" />
    <path
       d="m 102.11141,151.3441 c -7.198609,-3.20524 -6.571264,4.3489 0,0"
       style="fill:#62972f;fill-opacity:1;fill-rule:nonzero;stroke:none;stroke-width:0.326765"
       id="path4904" />
    <path
       d="m 102.37613,151.16408 -0.2516,0.16989 -0.0294,-0.29996 0.0229,0.29996 -0.27774,-0.12382 0.27118,0.13395 v 0 l -0.24504,0.17614 0.2516,-0.16965 0.0295,0.30095 -0.0229,-0.30095 v -0.002 l 0.27771,0.12619 -0.27443,-0.13392 h 0.003 -0.003 l 0.24832,-0.17617"
       style="fill:#62972f;fill-opacity:1;fill-rule:nonzero;stroke:none;stroke-width:0.326765"
       id="path4906" />
    <path
       d="m 102.13102,151.34018 c 7.19865,3.20651 6.5713,-4.34858 0,0"
       style="fill:#62972f;fill-opacity:1;fill-rule:nonzero;stroke:none;stroke-width:0.326765"
       id="path4908" />
    <path
       d="m 102.11797,151.33397 c -0.8267,-7.83614 -7.05485,-3.51536 0,0"
       style="fill:#62972f;fill-opacity:1;fill-rule:nonzero;stroke:none;stroke-width:0.326765"
       id="path4910" />
    <path
       d="m 102.12453,151.33397 c 6.37516,-4.63352 -0.48034,-7.86557 0,0"
       style="fill:#62972f;fill-opacity:1;fill-rule:nonzero;stroke:none;stroke-width:0.326765"
       id="path4912" />
    <path
       d="m 102.11797,151.34798 c -4.47668,3.25363 0.33983,5.52563 0,0"
       style="fill:#7cc12c;fill-opacity:1;fill-rule:nonzero;stroke:none;stroke-width:0.326765"
       id="path4914" />
    <path
       d="m 102.12453,151.34798 c 0.58163,5.50506 4.95374,2.46969 0,0"
       style="fill:#7cc12c;fill-opacity:1;fill-rule:nonzero;stroke:none;stroke-width:0.326765"
       id="path4916" />
    <path
       d="m 102.11472,151.3441 c -5.055054,-2.25178 -4.613941,3.05198 0,0"
       style="fill:#7cc12c;fill-opacity:1;fill-rule:nonzero;stroke:none;stroke-width:0.326765"
       id="path4918" />
    <path
       d="m 102.30099,151.21632 -0.17646,0.12122 -0.0196,-0.21305 0.0131,0.21305 -0.19611,-0.0879 0.19286,0.0944 v 0 0 l -0.17317,0.12382 0.17642,-0.11994 v 0 0 l 0.0229,0.21181 -0.0163,-0.21181 0.19604,0.088 -0.19276,-0.0958 v 0 l 0.17318,-0.12386"
       style="fill:#7cc12c;fill-opacity:1;fill-rule:nonzero;stroke:none;stroke-width:0.326765"
       id="path4920" />
    <path
       d="m 102.12781,151.34018 c 5.05503,2.25168 4.61388,-3.05202 0,0"
       style="fill:#7cc12c;fill-opacity:1;fill-rule:nonzero;stroke:none;stroke-width:0.326765"
       id="path4922" />
    <path
       d="m 102.11797,151.33754 c -0.58162,-5.50623 -4.953706,-2.471 0,0"
       style="fill:#7cc12c;fill-opacity:1;fill-rule:nonzero;stroke:none;stroke-width:0.326765"
       id="path4924" />
    <path
       d="m 102.12453,151.33754 c 4.47665,-3.25459 -0.33983,-5.5256 0,0"
       style="fill:#7cc12c;fill-opacity:1;fill-rule:nonzero;stroke:none;stroke-width:0.326765"
       id="path4926" />
    <path
       d="m 114.3292,155.77467 -0.0196,-0.006 v 0 -0.002 l 0.01,-0.006 v 0 l -0.01,0.009 0.0261,0.0101 z m -0.0229,0.0331 -0.004,-0.006 v -0.0206 l 0.01,0.004 v 0.004 l -0.01,-0.008 z m -0.007,-0.0523 v 0 -0.0128 0.006 l 0.0228,-0.0101 h -0.003 z m -0.0131,0.0395 v -0.014 l -0.0196,0.0166 0.003,-0.002 0.0163,-0.014 v 0 l 0.003,0.014 z m -0.0262,-0.0356 0.0196,0.009 v 0 0 l -0.01,0.006 h -0.003 l 0.0131,-0.006 -0.0261,-0.009 z m 0.0229,-0.0268 0.003,0.0229 h -0.003 v 0 l -0.01,-0.004 v -0.002 l 0.01,0.007 -0.003,-0.0268 z m 7.74107,-2.39226 c 1.77433,-2.00275 -0.10781,-4.25016 -3.20227,-2.49283 1.49659,-3.23565 -0.90837,-4.92439 -2.76123,-2.97653 -0.84299,-2.5527 -3.73814,-2.04851 -3.76428,1.51649 -2.05207,-2.91536 -4.71847,-1.67729 -3.96039,0.89863 -2.62717,-0.54243 -3.6402,2.2184 -0.56857,4.0218 -3.5487,0.32057 -3.81007,3.24874 -1.1992,3.87911 -1.78413,2.00526 0.098,4.26061 3.19247,2.50557 -1.49331,3.22549 0.91493,4.91811 2.76443,2.9742 0.84628,2.5491 3.74146,2.04488 3.76757,-1.51652 2.05214,2.91409 4.71526,1.67601 3.95714,-0.90223 2.63042,0.54247 3.64345,-2.21474 0.56854,-4.01817 3.54866,-0.32061 3.81666,-3.25882 1.20579,-3.88952"
       style="fill:#334820;fill-opacity:1;fill-rule:nonzero;stroke:none;stroke-width:0.326765"
       id="path4928" />
    <path
       d="m 114.28997,155.7783 c -8.3227,6.04778 0.62738,10.27021 0,0"
       style="fill:#527c2f;fill-opacity:1;fill-rule:nonzero;stroke:none;stroke-width:0.326765"
       id="path4930" />
    <path
       d="m 114.29978,155.7783 c 1.07837,10.2307 9.20824,4.59141 0,0"
       style="fill:#527c2f;fill-opacity:1;fill-rule:nonzero;stroke:none;stroke-width:0.326765"
       id="path4932" />
    <path
       d="m 114.28341,155.76818 c -9.401,-4.18292 -8.58083,5.67884 0,0"
       style="fill:#527c2f;fill-opacity:1;fill-rule:nonzero;stroke:none;stroke-width:0.326765"
       id="path4934" />
    <path
       d="m 114.62655,155.53584 -0.32677,0.22348 v 0 l -0.0393,-0.39571 0.0262,0.39571 v 0 0 l -0.35948,-0.16337 0.35617,0.17223 v 0 l -0.32343,0.2323 0.32999,-0.22218 0.0392,0.39571 -0.0294,-0.39934 v 0.004 -0.004 l 0.36269,0.167 -0.35613,-0.17349 v 0 l 0.32021,-0.23234"
       style="fill:#527c2f;fill-opacity:1;fill-rule:nonzero;stroke:none;stroke-width:0.326765"
       id="path4936" />
    <path
       d="m 114.30634,155.76818 c 9.39775,4.17897 8.57754,-5.67881 0,0"
       style="fill:#527c2f;fill-opacity:1;fill-rule:nonzero;stroke:none;stroke-width:0.326765"
       id="path4938" />
    <path
       d="m 114.28672,155.75932 c -1.07833,-10.23196 -9.20496,-4.59136 0,0"
       style="fill:#527c2f;fill-opacity:1;fill-rule:nonzero;stroke:none;stroke-width:0.326765"
       id="path4940" />
    <path
       d="m 114.29978,155.75932 c 8.32269,-6.05296 -0.62742,-10.27151 0,0"
       style="fill:#527c2f;fill-opacity:1;fill-rule:nonzero;stroke:none;stroke-width:0.326765"
       id="path4942" />
    <path
       d="m 114.28997,155.77467 c -5.84257,4.24797 0.44111,7.21177 0,0"
       style="fill:#6aa42e;fill-opacity:1;fill-rule:nonzero;stroke:none;stroke-width:0.326765"
       id="path4944" />
    <path
       d="m 114.29978,155.77467 c 0.7548,7.18626 6.46341,3.22167 0,0"
       style="fill:#6aa42e;fill-opacity:1;fill-rule:nonzero;stroke:none;stroke-width:0.326765"
       id="path4946" />
    <path
       d="m 114.28672,155.76818 c -6.60068,-2.93695 -6.02558,3.98621 0,0"
       style="fill:#6aa42e;fill-opacity:1;fill-rule:nonzero;stroke:none;stroke-width:0.326765"
       id="path4948" />
    <path
       d="m 114.52852,155.60477 -0.23199,0.1572 -0.0262,-0.27711 0.0196,0.27711 v 0 0 l -0.25492,-0.1137 0.25167,0.11991 -0.22874,0.16341 0.23199,-0.15692 0.0262,0.27816 -0.0164,-0.27816 0.25163,0.11476 -0.24839,-0.12125 v 0 0 l 0.2255,-0.16341"
       style="fill:#6aa42e;fill-opacity:1;fill-rule:nonzero;stroke:none;stroke-width:0.326765"
       id="path4950" />
    <path
       d="m 114.30302,155.76818 c 6.60065,2.93465 6.02227,-3.99013 0,0"
       style="fill:#6aa42e;fill-opacity:1;fill-rule:nonzero;stroke:none;stroke-width:0.326765"
       id="path4952" />
    <path
       d="m 114.28997,155.76197 c -0.75812,-7.18524 -6.4667,-3.2258 0,0"
       style="fill:#6aa42e;fill-opacity:1;fill-rule:nonzero;stroke:none;stroke-width:0.326765"
       id="path4954" />
    <path
       d="m 114.29653,155.76197 c 5.84581,-4.24794 -0.44122,-7.21208 0,0"
       style="fill:#6aa42e;fill-opacity:1;fill-rule:nonzero;stroke:none;stroke-width:0.326765"
       id="path4956" />
    <path
       d="m 89.962341,156.88641 -0.02286,-0.0102 v 0 0 l 0.0098,-0.0104 h 0.0028 l -0.0098,0.008 0.02293,0.0128 z m -0.02614,0.032 -0.0028,-0.007 v -0.0229 l 0.01305,0.006 v 0 l -0.01305,-0.006 z m -0.0065,-0.0588 v 0 -0.0128 0.0128 l 0.02282,-0.0166 -0.0028,0.004 z m -0.01309,0.0461 v -0.0105 l -0.02286,0.014 0.0028,-0.003 0.01965,-0.0167 v 0.003 0 0.007 z m -0.0327,-0.0398 0.0229,0.014 v 0 0 l -0.0098,0.007 v 0 l 0.0065,-0.007 -0.02282,-0.014 z m 0.02946,-0.0255 v 0.0232 l -0.0066,-0.004 -0.0065,-0.002 0.01305,0.007 -0.0037,-0.0293 z m 8.345559,-2.57814 c 1.91156,-2.15998 -0.117652,-4.58519 -3.453872,-2.68964 1.6141,-3.48584 -0.980334,-5.30991 -2.973599,-3.21141 -0.911684,-2.7481 -4.035602,-2.20564 -4.061707,1.63382 -2.212199,-3.13729 -5.08441,-1.8034 -4.267518,0.97405 -2.836369,-0.58589 -3.924441,2.38806 -0.614327,4.33197 -3.82644,0.34735 -4.107463,3.50256 -1.290779,4.18289 -1.924614,2.15995 0.101353,4.59137 3.440889,2.69977 -1.61103,3.47935 0.98358,5.30204 2.98009,3.20749 0.911649,2.74807 4.032286,2.20564 4.058427,-1.63378 2.212199,3.13754 5.084445,1.80502 4.267553,-0.9725 2.836333,0.58459 3.927683,-2.38965 0.614292,-4.33356 3.826471,-0.346 4.110671,-3.51275 1.300551,-4.1891"
       style="fill:#375324;fill-opacity:1;fill-rule:nonzero;stroke:none;stroke-width:0.326765"
       id="path4958" />
    <path
       d="m 89.919902,156.88641 c -8.973045,6.52251 0.676345,11.07042 0,0"
       style="fill:#57852d;fill-opacity:1;fill-rule:nonzero;stroke:none;stroke-width:0.326765"
       id="path4960" />
    <path
       d="m 89.929674,156.88641 c 1.163249,11.02823 9.927096,4.94979 0,0"
       style="fill:#57852d;fill-opacity:1;fill-rule:nonzero;stroke:none;stroke-width:0.326765"
       id="path4962" />
    <path
       d="m 89.910024,156.87985 c -10.132943,-4.50938 -9.247435,6.12056 0,0"
       style="fill:#57852d;fill-opacity:1;fill-rule:nonzero;stroke:none;stroke-width:0.326765"
       id="path4964" />
    <path
       d="m 90.282557,156.62726 -0.3562,0.23855 v 0 l -0.03919,-0.42746 0.02942,0.42746 v 0 l -0.388866,-0.17614 0.385621,0.18658 -0.0037,0.003 h 0.0037 l -0.349673,0.24765 0.356235,-0.24116 v 0 l 0.03916,0.42778 -0.02939,-0.42778 v 0 0 l 0.388831,0.17618 -0.382305,-0.18627 0.346357,-0.24896"
       style="fill:#57852d;fill-opacity:1;fill-rule:nonzero;stroke:none;stroke-width:0.326765"
       id="path4966" />
    <path
       d="m 89.9362,156.87625 c 10.13294,4.50575 9.247435,-6.12327 0,0"
       style="fill:#57852d;fill-opacity:1;fill-rule:nonzero;stroke:none;stroke-width:0.326765"
       id="path4968" />
    <path
       d="m 89.916585,156.86581 c -1.16332,-11.02833 -9.923851,-4.94986 0,0"
       style="fill:#57852d;fill-opacity:1;fill-rule:nonzero;stroke:none;stroke-width:0.326765"
       id="path4970" />
    <path
       d="m 89.926357,156.86581 c 8.97301,-6.52127 -0.673135,-11.07017 0,0"
       style="fill:#57852d;fill-opacity:1;fill-rule:nonzero;stroke:none;stroke-width:0.326765"
       id="path4972" />
    <path
       d="m 89.919902,156.88239 c -6.300047,4.58124 0.47378,7.77346 0,0"
       style="fill:#72ae2d;fill-opacity:1;fill-rule:nonzero;stroke:none;stroke-width:0.326765"
       id="path4974" />
    <path
       d="m 89.926357,156.88239 c 0.816893,7.74407 6.973148,3.47716 0,0"
       style="fill:#72ae2d;fill-opacity:1;fill-rule:nonzero;stroke:none;stroke-width:0.326765"
       id="path4976" />
    <path
       d="m 89.916585,156.87625 c -7.116939,-3.16706 -6.496085,4.30019 0,0"
       style="fill:#72ae2d;fill-opacity:1;fill-rule:nonzero;stroke:none;stroke-width:0.326765"
       id="path4978" />
    <path
       d="m 90.174748,156.70008 -0.248391,0.16965 v 0 0 l -0.02939,-0.30131 0.02293,0.30131 v 0 0 l -0.274532,-0.12383 0.271215,0.13035 v 0 0 l -0.24511,0.17615 0.248427,-0.17001 v 0 0 l 0.02935,0.30138 -0.0229,-0.30138 v 0 0 l 0.274497,0.1239 -0.267935,-0.13004 v 0 l 0.241829,-0.17617"
       style="fill:#72ae2d;fill-opacity:1;fill-rule:nonzero;stroke:none;stroke-width:0.326765"
       id="path4980" />
    <path
       d="m 89.932919,156.87625 c 7.113659,3.16664 6.492805,-4.30029 0,0"
       style="fill:#72ae2d;fill-opacity:1;fill-rule:nonzero;stroke:none;stroke-width:0.326765"
       id="path4982" />
    <path
       d="m 89.919902,156.86973 c -0.816999,-7.74404 -6.969902,-3.4768 0,0"
       style="fill:#72ae2d;fill-opacity:1;fill-rule:nonzero;stroke:none;stroke-width:0.326765"
       id="path4984" />
    <path
       d="m 89.926357,156.86973 c 6.300047,-4.58096 -0.473815,-7.77343 0,0"
       style="fill:#72ae2d;fill-opacity:1;fill-rule:nonzero;stroke:none;stroke-width:0.326765"
       id="path4986" />
    <path
       d="m 115.07095,143.22336 -0.01,-0.002 -0.003,-0.004 v 0 l 0.007,-0.002 v -0.004 l -0.007,0.007 0.0163,0.006 z m -0.0164,0.0268 v -0.003 l -0.003,-0.0193 v 0 0 l 0.01,0.004 v 0.002 l -0.007,-0.002 z m -0.007,-0.0418 v 0 -0.0105 0.0105 l 0.0164,-0.0141 v 0.004 l -0.01,0.007 z m -0.01,0.0317 v -0.009 l -0.0131,0.009 v 0 l 0.0131,-0.009 v 0 l 0.003,0.006 z m -0.0196,-0.0294 0.0162,0.0104 h -0.003 0.003 l -0.01,0.002 v 0 l 0.007,-0.002 -0.0163,-0.0104 z m 0.0196,-0.019 v 0.019 -0.002 0.002 l -0.007,-0.002 -0.003,-0.004 0.01,0.004 -0.003,-0.0206 z m 5.9308,-1.83052 c 1.35604,-1.53547 -0.085,-3.25755 -2.45407,-1.91061 1.14699,-2.47746 -0.69596,-3.77183 -2.11413,-2.28114 -0.64702,-1.95403 -2.86575,-1.5688 -2.88536,1.16036 -1.5717,-2.23248 -3.61404,-1.28157 -3.03238,0.69176 -2.01609,-0.4173 -2.79058,1.69627 -0.43783,3.0788 -2.71868,0.24508 -2.918,2.48638 -0.91824,2.97032 -1.36589,1.53938 0.0751,3.26365 2.44425,1.92102 -1.14046,2.4736 0.70249,3.76791 2.11737,2.27686 0.64696,1.95442 2.86579,1.56887 2.88541,-1.15866 1.57169,2.22856 3.61396,1.28026 3.03234,-0.69342 2.01616,0.41892 2.79061,-1.69623 0.43786,-3.07845 2.71865,-0.24504 2.92129,-2.49678 0.92478,-2.97684"
       style="fill:#3f6428;fill-opacity:1;fill-rule:nonzero;stroke:none;stroke-width:0.326765"
       id="path4988" />
    <path
       d="m 115.04153,143.22728 c -6.37523,4.63349 0.4803,7.86525 0,0"
       style="fill:#62972f;fill-opacity:1;fill-rule:nonzero;stroke:none;stroke-width:0.326765"
       id="path4990" />
    <path
       d="m 115.04802,143.22336 c 0.82673,7.84007 7.05488,3.51925 0,0"
       style="fill:#62972f;fill-opacity:1;fill-rule:nonzero;stroke:none;stroke-width:0.326765"
       id="path4992" />
    <path
       d="m 115.03493,143.22104 c -7.19854,-3.20651 -6.57116,4.34858 0,0"
       style="fill:#62972f;fill-opacity:1;fill-rule:nonzero;stroke:none;stroke-width:0.326765"
       id="path4994" />
    <path
       d="m 115.29969,143.04101 -0.25167,0.16958 v 0 0 l -0.0293,-0.3 0.0196,0.3 v 0 l -0.2745,-0.12386 0.27115,0.13431 -0.24504,0.17614 0.25164,-0.1699 v 0 0 l 0.0294,0.29997 -0.0229,-0.30389 0.27781,0.12771 -0.27125,-0.13395 0.24511,-0.17611"
       style="fill:#62972f;fill-opacity:1;fill-rule:nonzero;stroke:none;stroke-width:0.326765"
       id="path4996" />
    <path
       d="m 115.05458,143.21712 c 7.19864,3.20622 6.57126,-4.34883 0,0"
       style="fill:#62972f;fill-opacity:1;fill-rule:nonzero;stroke:none;stroke-width:0.326765"
       id="path4998" />
    <path
       d="m 115.03828,143.21059 c -0.82349,-7.83576 -7.0516,-3.51497 0,0"
       style="fill:#62972f;fill-opacity:1;fill-rule:nonzero;stroke:none;stroke-width:0.326765"
       id="path5000" />
    <path
       d="m 115.04802,143.21059 c 6.37526,-4.63324 -0.48031,-7.86525 0,0"
       style="fill:#62972f;fill-opacity:1;fill-rule:nonzero;stroke:none;stroke-width:0.326765"
       id="path5002" />
    <path
       d="m 115.04153,143.22336 c -4.47668,3.25491 0.33979,5.52592 0,0"
       style="fill:#7cc12c;fill-opacity:1;fill-rule:nonzero;stroke:none;stroke-width:0.326765"
       id="path5004" />
    <path
       d="m 115.04802,143.22336 c 0.57841,5.5027 4.95381,2.47132 0,0"
       style="fill:#7cc12c;fill-opacity:1;fill-rule:nonzero;stroke:none;stroke-width:0.326765"
       id="path5006" />
    <path
       d="m 115.03828,143.22104 c -5.05506,-2.25171 -4.61394,3.05163 0,0"
       style="fill:#7cc12c;fill-opacity:1;fill-rule:nonzero;stroke:none;stroke-width:0.326765"
       id="path5008" />
    <path
       d="m 115.22448,143.0933 -0.17646,0.12121 -0.0229,-0.21311 0.0164,0.21311 -0.19604,-0.0879 0.19279,0.0944 v 0 0 l -0.17321,0.12386 0.17646,-0.12154 0.0229,0.21336 -0.0164,-0.21336 v 0 l 0.19607,0.0882 -0.19279,-0.0944 v 0 l 0.17318,-0.12382"
       style="fill:#7cc12c;fill-opacity:1;fill-rule:nonzero;stroke:none;stroke-width:0.326765"
       id="path5010" />
    <path
       d="m 115.0513,143.21712 c 5.05502,2.25178 4.61394,-3.05199 0,0"
       style="fill:#7cc12c;fill-opacity:1;fill-rule:nonzero;stroke:none;stroke-width:0.326765"
       id="path5012" />
    <path
       d="m 115.04153,143.21451 c -0.58163,-5.5027 -4.95378,-2.47096 0,0"
       style="fill:#7cc12c;fill-opacity:1;fill-rule:nonzero;stroke:none;stroke-width:0.326765"
       id="path5014" />
    <path
       d="m 115.04802,143.21451 c 4.47671,-3.25487 -0.33976,-5.52556 0,0"
       style="fill:#7cc12c;fill-opacity:1;fill-rule:nonzero;stroke:none;stroke-width:0.326765"
       id="path5016" />
    <path
       d="m 105.10141,125.12777 -0.0229,-0.0105 v 0 0 l 0.01,-0.006 h 0.004 l -0.007,0.003 0.0197,0.0131 z m -0.0262,0.033 -0.003,-0.004 v -0.0255 l 0.01,0.002 0.003,0.006 -0.006,-0.006 z m -0.007,-0.0562 v 0 -0.0167 0.0167 l 0.0229,-0.019 v 0.006 z m -0.013,0.0421 v -0.0127 l -0.0229,0.0167 0.003,-0.004 0.0196,-0.0127 v 0 0 0.007 z m -0.0295,-0.0356 0.0196,0.0102 v 0 0 l -0.006,0.004 -0.003,0.002 0.007,-0.002 -0.0229,-0.0166 z m 0.0262,-0.0294 v 0.0229 l -0.01,-0.002 v -0.004 l 0.006,0.006 v -0.0294 z m 8.34559,-2.57849 c 1.9116,-2.15953 -0.11765,-4.5835 -3.45387,-2.68795 1.6142,-3.48725 -0.97709,-5.3073 -2.97357,-3.20912 -0.91171,-2.75173 -4.03232,-2.20927 -4.06174,1.63382 -2.21216,-3.14124 -5.084408,-1.80738 -4.267516,0.97014 -2.833053,-0.58459 -3.924442,2.38827 -0.614363,4.33222 -3.823088,0.34699 -4.104146,3.50393 -1.290708,4.18296 -1.924614,2.16351 0.104599,4.59493 3.440887,2.70199 -1.607712,3.48107 0.98351,5.30363 2.98002,3.20654 0.91172,2.74814 4.03232,2.20567 4.05846,-1.63382 2.2122,3.13993 5.08776,1.80344 4.26752,-0.97409 2.83633,0.5885 3.92776,-2.38799 0.61433,-4.3332 3.82644,-0.34213 4.11399,-3.50919 1.30055,-4.18949"
       style="fill:#3b5d26;fill-opacity:1;fill-rule:nonzero;stroke:none;stroke-width:0.326765"
       id="path5018" />
    <path
       d="m 105.05887,125.12777 c -8.972942,6.52219 0.67638,11.07017 0,0"
       style="fill:#5c8d2e;fill-opacity:1;fill-rule:nonzero;stroke:none;stroke-width:0.326765"
       id="path5020" />
    <path
       d="m 105.06867,125.12777 c 1.16325,11.03185 9.92714,4.94982 0,0"
       style="fill:#5c8d2e;fill-opacity:1;fill-rule:nonzero;stroke:none;stroke-width:0.326765"
       id="path5022" />
    <path
       d="m 105.05231,125.12124 c -10.132983,-4.50977 -9.250685,6.12031 0,0"
       style="fill:#5c8d2e;fill-opacity:1;fill-rule:nonzero;stroke:none;stroke-width:0.326765"
       id="path5024" />
    <path
       d="m 105.42156,124.86954 -0.35289,0.23897 v 0 0 l -0.0425,-0.42514 0.0295,0.42514 v 0 0.002 l -0.38887,-0.1801 0.38556,0.19026 v 0 l -0.34961,0.24895 0.35617,-0.24246 v 0 l 0.0392,0.42746 -0.0294,-0.42746 v 0 l 0.39208,0.17614 -0.38555,-0.18662 0.34636,-0.24769"
       style="fill:#5c8d2e;fill-opacity:1;fill-rule:nonzero;stroke:none;stroke-width:0.326765"
       id="path5026" />
    <path
       d="m 105.0752,125.11726 c 10.13291,4.50977 9.2474,-6.11897 0,0"
       style="fill:#5c8d2e;fill-opacity:1;fill-rule:nonzero;stroke:none;stroke-width:0.326765"
       id="path5028" />
    <path
       d="m 105.05562,125.10851 c -1.16,-11.02833 -9.92392,-4.94761 0,0"
       style="fill:#5c8d2e;fill-opacity:1;fill-rule:nonzero;stroke:none;stroke-width:0.326765"
       id="path5030" />
    <path
       d="m 105.06867,125.10851 c 8.9697,-6.52255 -0.67638,-11.07176 0,0"
       style="fill:#5c8d2e;fill-opacity:1;fill-rule:nonzero;stroke:none;stroke-width:0.326765"
       id="path5032" />
    <path
       d="m 105.05887,125.12777 c -6.300015,4.57828 0.47706,7.77339 0,0"
       style="fill:#76b92c;fill-opacity:1;fill-rule:nonzero;stroke:none;stroke-width:0.326765"
       id="path5034" />
    <path
       d="m 105.06867,125.12512 c 0.8169,7.74665 6.96987,3.4755 0,0"
       style="fill:#76b92c;fill-opacity:1;fill-rule:nonzero;stroke:none;stroke-width:0.326765"
       id="path5036" />
    <path
       d="m 105.05562,125.12124 c -7.116973,-3.16667 -6.496084,4.29631 0,0"
       style="fill:#76b92c;fill-opacity:1;fill-rule:nonzero;stroke:none;stroke-width:0.326765"
       id="path5038" />
    <path
       d="m 105.31699,124.9451 -0.25163,0.16598 -0.0261,-0.29989 0.0196,0.29989 -0.27446,-0.12379 0.27121,0.13395 v 0 0 l -0.24514,0.17346 0.24839,-0.16958 v 0.002 -0.002 l 0.0294,0.29997 -0.0196,-0.29997 v 0 l 0.27118,0.1239 -0.26789,-0.13176 v 0 0 l 0.24503,-0.17216"
       style="fill:#76b92c;fill-opacity:1;fill-rule:nonzero;stroke:none;stroke-width:0.326765"
       id="path5040" />
    <path
       d="m 105.07196,125.11726 c 7.11693,3.16702 6.4928,-4.30015 0,0"
       style="fill:#76b92c;fill-opacity:1;fill-rule:nonzero;stroke:none;stroke-width:0.326765"
       id="path5042" />
    <path
       d="m 105.05887,125.11108 c -0.8169,-7.74396 -6.969905,-3.47313 0,0"
       style="fill:#76b92c;fill-opacity:1;fill-rule:nonzero;stroke:none;stroke-width:0.326765"
       id="path5044" />
    <path
       d="m 105.06536,125.11108 c 6.30005,-4.58121 -0.47382,-7.77339 0,0"
       style="fill:#76b92c;fill-opacity:1;fill-rule:nonzero;stroke:none;stroke-width:0.326765"
       id="path5046" />
    <path
       d="m 118.29283,128.23564 -0.003,-0.0229 v 0 l 0.0131,0.002 v 0.003 l -0.0131,-0.006 0.007,0.0294 z m -0.0392,0.002 0.003,-0.006 0.0163,-0.0166 v 0.003 l 0.003,0.0105 v 0.002 l -0.003,-0.0131 z m 0.0392,-0.0422 v 0 l 0.01,-0.006 h 0.003 l -0.0131,0.006 0.0294,0.007 h -0.003 l -0.0262,-0.004 z m -0.0425,0.0193 0.007,-0.007 -0.0228,-0.0101 h 0.006 l 0.0229,0.008 -0.01,0.009 z m 0.01,-0.0487 0.007,0.0232 h -0.007 l -0.007,-0.004 0.0131,0.004 -0.01,-0.0267 z m 0.0392,0.002 -0.0163,0.0166 v 0 0 l -0.003,-0.0127 v 0 l 0.003,0.0127 0.0196,-0.0228 z m 7.27054,4.8404 c 2.88209,0.1173 3.48001,-2.98697 -0.0948,-4.37572 3.7186,-0.95088 3.49307,-4.11138 0.60777,-4.33359 1.55539,-2.44281 -0.83658,-4.51845 -3.8329,-2.11349 1.03579,-3.69934 -1.81356,-5.08413 -3.44741,-2.69582 -1.33975,-2.56572 -4.33289,-1.53318 -3.74802,2.26155 -2.68605,-2.74807 -5.30987,-0.97116 -4.05839,1.64031 -2.8919,-0.1251 -3.4931,2.98309 0.0817,4.37585 -3.71535,0.95078 -3.48989,4.11357 -0.60452,4.33575 -1.5554,2.44062 0.83647,4.51852 3.83297,2.11381 -1.03918,3.69898 1.81352,5.08155 3.44734,2.69194 1.33647,2.56932 4.33292,1.53681 3.74798,-2.26056 2.68274,2.7481 5.31975,0.97017 4.06824,-1.64003"
       style="fill:#32461f;fill-opacity:1;fill-rule:nonzero;stroke:none;stroke-width:0.326765"
       id="path5048" />
    <path
       d="m 118.26673,128.20262 c -10.72445,-2.83242 -8.1528,7.51921 0,0"
       style="fill:#4f792c;fill-opacity:1;fill-rule:nonzero;stroke:none;stroke-width:0.326765"
       id="path5050" />
    <path
       d="m 118.27646,128.21278 c -7.81621,7.86782 2.43114,10.82142 0,0"
       style="fill:#4f792c;fill-opacity:1;fill-rule:nonzero;stroke:none;stroke-width:0.326765"
       id="path5052" />
    <path
       d="m 118.26997,128.19214 c -2.90826,-10.70155 -10.58718,-3.29936 0,0"
       style="fill:#4f792c;fill-opacity:1;fill-rule:nonzero;stroke:none;stroke-width:0.326765"
       id="path5054" />
    <path
       d="m 118.698,128.32383 -0.40848,-0.12513 0.30395,-0.29997 -0.31373,0.29111 -0.10777,-0.41497 0.098,0.41727 v 0 0 l -0.41493,-0.11077 0.41169,0.12125 -0.30392,0.30356 0.31365,-0.2934 v 0 l 0.10788,0.41465 -0.0981,-0.41861 0.41173,0.11501"
       style="fill:#4f792c;fill-opacity:1;fill-rule:nonzero;stroke:none;stroke-width:0.326765"
       id="path5056" />
    <path
       d="m 118.28627,128.20882 c 2.90823,10.70543 10.58722,3.30359 0,0"
       style="fill:#4f792c;fill-opacity:1;fill-rule:nonzero;stroke:none;stroke-width:0.326765"
       id="path5058" />
    <path
       d="m 118.27974,128.18984 c 7.81622,-7.86916 -2.43434,-10.81913 0,0"
       style="fill:#4f792c;fill-opacity:1;fill-rule:nonzero;stroke:none;stroke-width:0.326765"
       id="path5060" />
    <path
       d="m 118.28952,128.1987 c 10.72123,2.83365 8.15283,-7.51819 0,0"
       style="fill:#4f792c;fill-opacity:1;fill-rule:nonzero;stroke:none;stroke-width:0.326765"
       id="path5062" />
    <path
       d="m 118.26997,128.20262 c -7.53194,-1.98999 -5.72495,5.28055 0,0"
       style="fill:#6aa12e;fill-opacity:1;fill-rule:nonzero;stroke:none;stroke-width:0.326765"
       id="path5064" />
    <path
       d="m 118.27646,128.20882 c -5.48968,5.5256 1.70907,7.59729 0,0"
       style="fill:#6aa12e;fill-opacity:1;fill-rule:nonzero;stroke:none;stroke-width:0.326765"
       id="path5066" />
    <path
       d="m 118.27329,128.19609 c -2.04237,-7.51558 -7.43726,-2.32036 0,0"
       style="fill:#6aa12e;fill-opacity:1;fill-rule:nonzero;stroke:none;stroke-width:0.326765"
       id="path5068" />
    <path
       d="m 118.57386,128.28788 -0.28759,-0.0892 0.21241,-0.21174 -0.21894,0.20518 -0.0751,-0.28949 0.0687,0.29344 v 0 0 l -0.29094,-0.0778 0.28762,0.0843 v 0 l -0.21244,0.21173 0.21893,-0.20553 0.0752,0.29112 -0.0687,-0.29112 v -0.002 l 0.29083,0.0817"
       style="fill:#6aa12e;fill-opacity:1;fill-rule:nonzero;stroke:none;stroke-width:0.326765"
       id="path5070" />
    <path
       d="m 118.28303,128.20882 c 2.04226,7.51562 7.43715,2.3168 0,0"
       style="fill:#6aa12e;fill-opacity:1;fill-rule:nonzero;stroke:none;stroke-width:0.326765"
       id="path5072" />
    <path
       d="m 118.27974,128.19214 c 5.48969,-5.52556 -1.70899,-7.59725 0,0"
       style="fill:#6aa12e;fill-opacity:1;fill-rule:nonzero;stroke:none;stroke-width:0.326765"
       id="path5074" />
    <path
       d="m 118.28627,128.1987 c 7.5287,1.99132 5.72495,-5.27921 0,0"
       style="fill:#6aa12e;fill-opacity:1;fill-rule:nonzero;stroke:none;stroke-width:0.326765"
       id="path5076" />
    <path
       d="m 91.066747,123.28447 -0.01958,-0.0127 0.0098,-0.007 v 0 l -0.0098,0.007 0.02618,0.0127 z m -0.02283,0.0294 -0.0028,-0.002 v -0.0229 l 0.0098,0.002 v 0.004 l -0.0098,-0.006 z m -0.0065,-0.0549 v 0.002 -0.0154 0.0128 l 0.02286,-0.0167 -0.0028,0.007 -0.01954,0.0127 z m -0.01305,0.0422 v -0.0127 l -0.0229,0.0163 0.0028,-0.003 0.01965,-0.0127 v 0 l 0.0028,0.0127 z m -0.02946,-0.0359 0.01962,0.0104 v 0 0 l -0.0065,0.006 h -0.0028 l 0.0098,-0.006 -0.02282,-0.0104 z m 0.02618,-0.0268 0.0028,0.0232 h -0.0028 l -0.0066,-0.002 -0.0028,-0.004 0.0098,0.007 -0.0028,-0.0295 z m 8.03515,-2.48014 c 1.839673,-2.08054 -0.114406,-4.4136 -3.326483,-2.5909 1.555432,-3.35587 -0.941106,-5.10706 -2.862439,-3.09027 -0.875807,-2.64477 -3.882003,-2.12397 -3.908143,1.57371 -2.130496,-3.02253 -4.898214,-1.73704 -4.107463,0.93557 -2.7317,-0.56272 -3.780614,2.30011 -0.591397,4.17276 -3.682647,0.33302 -3.953898,3.36864 -1.245023,4.02576 -1.852719,2.08054 0.09804,4.42044 3.31343,2.59747 -1.5488,3.34934 0.947632,5.10698 2.86572,3.08789 0.879016,2.64711 3.882002,2.12397 3.911389,-1.57141 2.12725,3.0226 4.894968,1.73838 4.107392,-0.93811 2.728524,0.5653 3.77741,-2.29753 0.591502,-4.17018 3.682648,-0.33299 3.957078,-3.3788 1.251515,-4.03229"
       style="fill:#4a7c2e;fill-opacity:1;fill-rule:nonzero;stroke:none;stroke-width:0.326765"
       id="path5078" />
    <path
       d="m 91.027589,123.28447 c -8.636389,6.2775 0.65024,10.65548 0,0"
       style="fill:#71ad2d;fill-opacity:1;fill-rule:nonzero;stroke:none;stroke-width:0.326765"
       id="path5080" />
    <path
       d="m 91.037396,123.28447 c 1.12081,10.61727 9.554594,4.7649 0,0"
       style="fill:#71ad2d;fill-opacity:1;fill-rule:nonzero;stroke:none;stroke-width:0.326765"
       id="path5082" />
    <path
       d="m 91.021062,123.27565 c -9.757234,-4.34008 -8.904358,5.89061 0,0"
       style="fill:#71ad2d;fill-opacity:1;fill-rule:nonzero;stroke:none;stroke-width:0.326765"
       id="path5084" />
    <path
       d="m 91.377227,123.03283 -0.339831,0.23241 -0.04251,-0.41204 0.02946,0.41204 -0.375814,-0.16961 0.372533,0.18002 v 0 0 l -0.336585,0.24116 0.343112,-0.23234 v 0 0 l 0.03916,0.41236 -0.02935,-0.41236 v 0 l 0.375743,0.16961 -0.369217,-0.17843 0.333305,-0.24282"
       style="fill:#71ad2d;fill-opacity:1;fill-rule:nonzero;stroke:none;stroke-width:0.326765"
       id="path5086" />
    <path
       d="m 91.043922,123.27565 c 9.753918,4.3385 8.901043,-5.8958 0,0"
       style="fill:#71ad2d;fill-opacity:1;fill-rule:nonzero;stroke:none;stroke-width:0.326765"
       id="path5088" />
    <path
       d="m 91.024343,123.26524 c -1.117565,-10.61727 -9.554599,-4.76497 0,0"
       style="fill:#71ad2d;fill-opacity:1;fill-rule:nonzero;stroke:none;stroke-width:0.326765"
       id="path5090" />
    <path
       d="m 91.037396,123.26524 c 8.636318,-6.27976 -0.653556,-10.65943 0,0"
       style="fill:#71ad2d;fill-opacity:1;fill-rule:nonzero;stroke:none;stroke-width:0.326765"
       id="path5092" />
    <path
       d="m 91.027589,123.28182 c -6.06478,4.40747 0.457411,7.48267 0,0"
       style="fill:#8ed030;fill-opacity:1;fill-rule:nonzero;stroke:none;stroke-width:0.326765"
       id="path5094" />
    <path
       d="m 91.037396,123.28182 c 0.784225,7.45684 6.708458,3.34547 0,0"
       style="fill:#8ed030;fill-opacity:1;fill-rule:nonzero;stroke:none;stroke-width:0.326765"
       id="path5096" />
    <path
       d="m 91.024343,123.27565 c -6.85225,-3.04934 -6.254327,4.13685 0,0"
       style="fill:#8ed030;fill-opacity:1;fill-rule:nonzero;stroke:none;stroke-width:0.326765"
       id="path5098" />
    <path
       d="m 91.275944,123.10445 -0.241829,0.16337 v 0 l -0.02614,-0.28723 0.01962,0.28723 v 0 l -0.264654,-0.11995 0.261408,0.12778 -0.235303,0.16958 0.238549,-0.16341 v 0 0 l 0.02935,0.28727 -0.02282,-0.28727 h 0.0028 v 0 l 0.261373,0.11991 -0.261373,-0.12608 v 0 l 0.238443,-0.1712"
       style="fill:#8ed030;fill-opacity:1;fill-rule:nonzero;stroke:none;stroke-width:0.326765"
       id="path5100" />
    <path
       d="m 91.037396,123.27565 c 6.85225,3.04419 6.254292,-4.14076 0,0"
       style="fill:#8ed030;fill-opacity:1;fill-rule:nonzero;stroke:none;stroke-width:0.326765"
       id="path5102" />
    <path
       d="m 91.027589,123.26782 c -0.787506,-7.4555 -6.71181,-3.34543 0,0"
       style="fill:#8ed030;fill-opacity:1;fill-rule:nonzero;stroke:none;stroke-width:0.326765"
       id="path5104" />
    <path
       d="m 91.034115,123.26782 c 6.06478,-4.4074 -0.457518,-7.48623 0,0"
       style="fill:#8ed030;fill-opacity:1;fill-rule:nonzero;stroke:none;stroke-width:0.326765"
       id="path5106" />
    <path
       d="m 104.22236,141.98914 -0.34967,-0.89599 c 0.0654,-0.0255 6.77386,-2.7124 7.11369,-6.91074 l 0.96069,0.0781 c -0.38884,4.79658 -7.42414,7.61139 -7.72471,7.72866"
       style="fill:#5a3319;fill-opacity:1;fill-rule:nonzero;stroke:none;stroke-width:0.326765"
       id="path5108" />
    <path
       d="m 99.392726,134.85262 -0.960684,-0.0294 c 0,-0.0369 0.0719,-3.89177 -2.682699,-5.2155 l 0.418218,-0.8666 c 3.319957,1.59558 3.231727,5.92783 3.225165,6.11149"
       style="fill:#5a3319;fill-opacity:1;fill-rule:nonzero;stroke:none;stroke-width:0.326765"
       id="path5110" />
    <path
       d="m 100.29136,139.54492 -0.542469,-0.79799 c 0.0327,-0.0228 3.257899,-2.25128 3.483329,-5.05467 l 0.95744,0.0755 c -0.26141,3.27028 -3.75126,5.67492 -3.8983,5.77716"
       style="fill:#5a3319;fill-opacity:1;fill-rule:nonzero;stroke:none;stroke-width:0.326765"
       id="path5112" />
    <path
       d="m 108.32323,138.36794 c -0.86262,-1.80992 -4.76095,-1.05547 -6.19221,-0.6114 l -0.28419,-0.91785 c 0.24175,-0.0752 5.95358,-1.81356 7.34557,1.1146 l -0.86917,0.41465"
       style="fill:#5a3319;fill-opacity:1;fill-rule:nonzero;stroke:none;stroke-width:0.326765"
       id="path5114" />
    <path
       d="m 100.37634,165.02609 -0.552237,-0.78754 c 1.643627,-1.15372 0.248357,-4.872 -0.428096,-6.20857 l 0.859433,-0.43519 c 0.11434,0.22581 2.77753,5.57163 0.1209,7.4313"
       style="fill:#5a3319;fill-opacity:1;fill-rule:nonzero;stroke:none;stroke-width:0.326765"
       id="path5116" />
    <path
       d="m 102.8859,167.04155 -0.01,-0.002 -0.003,-0.004 h -0.003 l 0.007,-0.002 0.003,-0.004 -0.007,0.007 0.0164,0.006 z m -0.0164,0.0229 v -0.002 l -0.003,-0.0166 v 0 l 0.007,0.002 0.003,0.004 -0.01,-0.006 z m -0.003,-0.0395 v 0 l -0.003,-0.009 v 0 l 0.003,0.006 0.0164,-0.0101 -0.003,0.004 -0.01,0.006 z m -0.01,0.0294 -0.003,-0.006 -0.0131,0.0102 v -0.004 l 0.0131,-0.009 z m -0.0229,-0.0254 0.013,0.006 v 0 0 l -0.003,0.004 -0.004,0.002 0.007,-0.006 -0.0163,-0.007 z m 0.0196,-0.0193 v 0.0154 l -0.01,-0.002 v 0 l 0.01,0.002 -0.003,-0.0189 z m 5.9308,-1.83412 c 1.35608,-1.53543 -0.085,-3.25357 -2.454,-1.91089 1.1436,-2.47753 -0.69603,-3.77056 -2.11419,-2.28082 -0.64696,-1.95044 -2.86576,-1.56489 -2.88537,1.16293 -1.571698,-2.23149 -3.613964,-1.28421 -3.032339,0.69049 -2.016125,-0.41631 -2.790579,1.69884 -0.437868,3.07746 -2.718717,0.24903 -2.918002,2.4903 -0.918245,2.97388 -1.36585,1.53565 0.07514,3.26394 2.444221,1.91735 -1.143671,2.47368 0.699311,3.77176 2.117481,2.28096 0.64696,1.9516 2.86572,1.56873 2.88533,-1.16283 1.5717,2.23118 3.61396,1.28404 3.0323,-0.68926 2.0162,0.41483 2.79062,-1.69898 0.43791,-3.07879 2.71868,-0.24773 2.92121,-2.49654 0.92477,-2.98048"
       style="fill:#3f6428;fill-opacity:1;fill-rule:nonzero;stroke:none;stroke-width:0.326765"
       id="path5118" />
    <path
       d="m 102.85648,167.04155 c -6.375194,4.63726 0.4803,7.86916 0,0"
       style="fill:#62972f;fill-opacity:1;fill-rule:nonzero;stroke:none;stroke-width:0.326765"
       id="path5120" />
    <path
       d="m 102.86628,167.04155 c 0.82339,7.83985 7.05161,3.51913 0,0"
       style="fill:#62972f;fill-opacity:1;fill-rule:nonzero;stroke:none;stroke-width:0.326765"
       id="path5122" />
    <path
       d="m 102.84991,167.03534 c -7.198533,-3.20263 -6.571224,4.34862 0,0"
       style="fill:#62972f;fill-opacity:1;fill-rule:nonzero;stroke:none;stroke-width:0.326765"
       id="path5124" />
    <path
       d="m 103.1146,166.85895 -0.25163,0.1699 v 0 l -0.0294,-0.30389 0.0229,0.30389 h -0.003 l -0.27449,-0.12778 0.27449,0.13427 h -0.003 0.003 l -0.24832,0.17621 0.2516,-0.17 0.0294,0.30391 -0.0196,-0.30391 0.27449,0.12777 -0.27121,-0.13398 0.24507,-0.17639"
       style="fill:#62972f;fill-opacity:1;fill-rule:nonzero;stroke:none;stroke-width:0.326765"
       id="path5126" />
    <path
       d="m 102.86953,167.03534 c 7.19861,3.20234 6.57123,-4.34891 0,0"
       style="fill:#62972f;fill-opacity:1;fill-rule:nonzero;stroke:none;stroke-width:0.326765"
       id="path5128" />
    <path
       d="m 102.85323,167.02885 c -0.82345,-7.83844 -7.051605,-3.51667 0,0"
       style="fill:#62972f;fill-opacity:1;fill-rule:nonzero;stroke:none;stroke-width:0.326765"
       id="path5130" />
    <path
       d="m 102.86297,167.02885 c 6.37515,-4.63716 -0.48031,-7.86787 0,0"
       style="fill:#62972f;fill-opacity:1;fill-rule:nonzero;stroke:none;stroke-width:0.326765"
       id="path5132" />
    <path
       d="m 102.85648,167.04155 c -4.476685,3.25486 0.33979,5.52312 0,0"
       style="fill:#7cc12c;fill-opacity:1;fill-rule:nonzero;stroke:none;stroke-width:0.326765"
       id="path5134" />
    <path
       d="m 102.86297,167.03894 c 0.58173,5.5053 4.95384,2.46993 0,0"
       style="fill:#7cc12c;fill-opacity:1;fill-rule:nonzero;stroke:none;stroke-width:0.326765"
       id="path5136" />
    <path
       d="m 102.85323,167.03534 c -5.055095,-2.24783 -4.613911,3.05562 0,0"
       style="fill:#7cc12c;fill-opacity:1;fill-rule:nonzero;stroke:none;stroke-width:0.326765"
       id="path5138" />
    <path
       d="m 103.03943,166.91148 -0.17646,0.11737 v 0 0 l -0.0229,-0.21174 0.0164,0.21174 -0.19611,-0.0857 0.19286,0.0922 v 0 l -0.17328,0.12354 0.17653,-0.11733 v 0 l 0.0228,0.21304 -0.0163,-0.21565 0.19607,0.0909 -0.19276,-0.0945 0.17315,-0.12386"
       style="fill:#7cc12c;fill-opacity:1;fill-rule:nonzero;stroke:none;stroke-width:0.326765"
       id="path5140" />
    <path
       d="m 102.86628,167.03534 c 5.05503,2.24765 4.61391,-3.05591 0,0"
       style="fill:#7cc12c;fill-opacity:1;fill-rule:nonzero;stroke:none;stroke-width:0.326765"
       id="path5142" />
    <path
       d="m 102.85648,167.02885 c -0.58166,-5.50274 -4.953781,-2.46744 0,0"
       style="fill:#7cc12c;fill-opacity:1;fill-rule:nonzero;stroke:none;stroke-width:0.326765"
       id="path5144" />
    <path
       d="m 102.86297,167.02885 c 4.47671,-3.25494 -0.33983,-5.52172 0,0"
       style="fill:#7cc12c;fill-opacity:1;fill-rule:nonzero;stroke:none;stroke-width:0.326765"
       id="path5146" />
  </g>
</svg>
