<svg xmlns:dc="http://purl.org/dc/elements/1.1/" xmlns:cc="http://creativecommons.org/ns#" xmlns:rdf="http://www.w3.org/1999/02/22-rdf-syntax-ns#" xmlns:svg="http://www.w3.org/2000/svg" xmlns="http://www.w3.org/2000/svg" xmlns:sodipodi="http://sodipodi.sourceforge.net/DTD/sodipodi-0.dtd" xmlns:inkscape="http://www.inkscape.org/namespaces/inkscape" width="71.734612mm" height="82.027031mm" viewBox="0 0 71.734612 82.027031" version="1.1" id="svg27666" inkscape:version="1.0.2 (e86c870879, 2021-01-15, custom)" sodipodi:docname="plant3.svg">
  <defs id="defs27660"></defs>
  <sodipodi:namedview id="base" pagecolor="#ffffff" bordercolor="#666666" borderopacity="1.0" inkscape:pageopacity="0.0" inkscape:pageshadow="2" inkscape:zoom="0.35" inkscape:cx="-713.0096" inkscape:cy="-156.41599" inkscape:document-units="mm" inkscape:current-layer="layer1" inkscape:document-rotation="0" showgrid="false" inkscape:window-width="1267" inkscape:window-height="1030" inkscape:window-x="122" inkscape:window-y="0" inkscape:window-maximized="0"></sodipodi:namedview>
  <metadata id="metadata27663">
    <rdf:rdf>
      <cc:work rdf:about="">
        <dc:format>image/svg+xml</dc:format>
        <dc:type rdf:resource="http://purl.org/dc/dcmitype/StillImage"></dc:type>
        <dc:title></dc:title>
      </cc:work>
    </rdf:rdf>
  </metadata>
  <g inkscape:label="Layer 1" inkscape:groupmode="layer" id="layer1" transform="translate(-294.48379,-189.55173)">
    <path d="m 295.5,233.68298 c 0,-14.56394 11.80282,-26.36566 26.36669,-26.36566 14.56065,0 26.36668,11.80172 26.36668,26.36566 0,14.56161 -11.80603,26.3671 -26.36668,26.3671 -14.56387,0 -26.36669,-11.80549 -26.36669,-26.3671" style="fill:#7a4122;fill-opacity:1;fill-rule:nonzero;stroke:none;stroke-width:0.326765" id="path12468"></path>
    <path d="m 298.84935,233.68298 c 0,-12.71443 10.30294,-23.02027 23.01734,-23.02027 12.71118,0 23.01734,10.30584 23.01734,23.02027 0,12.71178 -10.30616,23.0178 -23.01734,23.0178 -12.7144,0 -23.01734,-10.30602 -23.01734,-23.0178" style="fill:#b59a63;fill-opacity:1;fill-rule:nonzero;stroke:none;stroke-width:0.326765" id="path12470"></path>
    <path d="m 300.10742,233.68298 c 0,-12.01745 9.7409,-21.75927 21.75927,-21.75927 12.01515,0 21.75926,9.74182 21.75926,21.75927 0,12.01519 -9.74411,21.75665 -21.75926,21.75665 -12.01837,0 -21.75927,-9.74146 -21.75927,-21.75665" style="fill:#261512;fill-opacity:1;fill-rule:nonzero;stroke:none;stroke-width:0.326765" id="path12472"></path>
    <path d="m 329.82017,262.64124 c 3.14339,-2.02953 5.59089,-4.95382 7.28024,-7.43783 0.52289,-0.36862 1.02937,-0.75812 1.5228,-1.16265 -2.27108,4.14327 -6.51574,7.18234 -8.80304,8.60048 m -3.77088,-0.46465 c 0,0 1.97041,-1.36574 4.44723,-3.57395 0.9248,-0.31782 1.82336,-0.68672 2.69585,-1.10533 -1.9606,1.88648 -4.33945,3.60197 -7.14308,4.67928 m 31.67331,-1.76399 c 0,0 2.2612,-11.82847 -0.81368,-19.74639 -0.31041,-0.29732 -0.62735,-0.58847 -0.94763,-0.87923 1.07512,2.07787 2.71222,6.88489 -0.38555,13.3512 0,0 1.58157,-4.85179 0.11765,-10.73097 0.0359,0.5565 0.0654,1.08528 0.0915,1.56266 -0.0947,-0.85686 -0.22542,-1.73224 -0.41172,-2.61673 -0.15032,4.91028 -1.70897,9.34223 -2.43766,11.36777 0.65676,-1.87886 1.12081,-4.11787 1.45411,-6.25849 -0.47057,1.58154 -1.23514,3.3111 -2.44747,5.1338 0,0 0.26797,-0.80423 0.58819,-2.07401 -0.51957,1.67206 -1.16328,3.28665 -2.00307,4.68196 h -0.003 c -0.10785,0 2.2286,-6.33244 3.04221,-13.34509 -0.0261,-0.60131 -0.0883,-1.19207 -0.1797,-1.77433 -0.12422,1.16028 -0.4052,2.49678 -0.87249,3.91756 -0.0785,3.21892 -0.9313,7.12738 -3.60751,11.11359 0,0 1.50636,-3.12713 2.07825,-7.61005 -0.27453,0.50557 -0.55227,1.00972 -0.88879,1.52277 v 0 c -0.0164,0 0.4542,-0.91268 0.99011,-2.471 0.13395,-1.46033 0.15349,-3.03922 -0.004,-4.68849 -0.18295,0.42383 -0.38559,0.85517 -0.61429,1.29695 -0.33659,5.11715 -2.30696,9.20433 -2.30696,9.20433 l -0.4052,0.24243 c 0.93779,-2.67646 1.37241,-5.15042 1.50315,-7.37895 -0.46408,0.70975 -0.97053,1.42565 -1.57176,2.15731 v 0 c -0.007,0 0.75476,-1.44364 1.61748,-3.55883 0,-0.67017 -0.0197,-1.32372 -0.0686,-1.93996 -0.6241,1.70142 -1.49335,3.50877 -2.68277,5.31869 -0.18952,0.70972 -0.32675,1.14371 -0.32675,1.14371 l 0.11437,-0.82963 c -0.47057,0.69564 -0.97701,1.39492 -1.54883,2.08442 v 0.003 c -0.0196,0 0.75145,-1.17277 1.68282,-3.11048 0.1307,-1.10151 0.21893,-2.12393 0.27443,-3.08141 0.96068,-2.73529 1.48357,-5.67619 1.48357,-8.73827 0,-11.58744 -7.47318,-21.42864 -17.86432,-24.96813 l -0.15025,-0.11112 c -0.10456,-0.0127 -0.20916,-0.0294 -0.31372,-0.0421 -2.5357,-0.81044 -5.23473,-1.24432 -8.0384,-1.24432 -1.28093,0 -2.54225,0.0905 -3.77415,0.26794 0.36925,-0.15067 0.73197,-0.27845 1.08817,-0.39571 -2.42464,0.33295 -3.95386,0.86522 -4.00289,0.86522 h -0.003 c 3.30035,-1.54824 6.3033,-2.00632 8.67894,-2.00632 0.10777,0 0.21565,0 0.32018,0.003 -0.42478,-0.16701 -0.84635,-0.30752 -1.26129,-0.42485 -0.46073,-0.0127 -0.92152,-0.0192 -1.37569,-0.0192 -3.16308,0 -6.15957,0.29115 -8.41746,0.5806 -2.2547,0.29507 -3.77091,0.58593 -3.97675,0.58593 -0.0196,0 -0.0261,-0.003 -0.0196,-0.0101 2.81989,-1.19208 6.28367,-1.64659 9.4827,-1.77172 -0.0555,0 -0.11441,0 -0.16665,0 -1.1502,0 -1.86913,0.12513 -1.86913,0.12513 1.48351,-0.47089 2.81672,-0.65353 3.99631,-0.65353 1.38557,0 2.56187,0.2539 3.51606,0.59472 0.41166,0.0232 0.77117,0.0526 1.13383,0.0817 -0.75805,-0.37906 -1.55868,-0.69674 -2.39187,-0.96496 -1.26785,-0.0879 -2.91472,-0.16598 -4.6858,-0.16598 -2.39522,0 -5.01262,0.14048 -7.2117,0.57835 1.65343,-0.34604 4.8459,-0.98422 8.5024,-0.98422 0.46401,0 0.93455,0.0104 1.41161,0.0333 -2.20896,-0.50031 -4.4244,-0.71237 -6.14317,-0.80024 l -0.42481,-0.40848 -0.0555,0.2934 0.30713,0.10852 c -0.76133,-0.0356 -1.41813,-0.0461 -1.92465,-0.0461 -0.69603,0 -1.10772,0.0193 -1.10772,0.0193 1.41813,-0.4173 2.8461,-0.5885 4.22836,-0.5885 2.97684,0 5.74452,0.78129 7.71489,1.52661 0.4444,0.11768 0.90188,0.24772 1.36913,0.39835 -0.30712,-0.38558 -0.61757,-0.76729 -0.93775,-1.12345 -1.68289,-0.77477 -5.34592,-2.22204 -9.20175,-2.22204 -0.39211,0 -0.78423,0.0164 -1.17962,0.0484 0.6405,-0.065 1.47369,-0.12122 2.41808,-0.12122 2.17297,0 4.92764,0.30131 7.21822,1.50735 -0.92801,-0.93415 -1.89851,-1.7321 -2.91472,-2.34354 1.35608,0.77474 3.51928,2.24162 5.83597,4.67956 1.42476,0.52974 2.91151,1.23159 4.38524,2.19919 1.08811,0.72245 2.15992,1.60708 3.1206,2.65006 0.60442,0.10845 1.34955,0.25129 2.14683,0.43752 -0.745,-0.69303 -1.60764,-1.44724 -2.61087,-2.26053 -0.43787,-0.11077 -0.67638,-0.19643 -0.58491,-0.26145 l 0.4379,0.1402 c -0.73201,-0.58815 -1.53581,-1.20865 -2.41811,-1.86221 0.0556,0.0228 2.3331,0.97406 4.76751,2.50296 0.79735,0.19286 1.6927,0.44443 2.59126,0.73526 l 0.18626,-0.18362 c -0.51297,-0.50687 -1.0783,-1.02898 -1.74494,-1.59431 -1.73514,-0.64961 -3.64987,-1.37206 -5.4145,-2.37557 l 0.366,-0.0295 c -0.003,0.007 1.40508,0.71237 3.88522,1.46033 -1.15997,-0.9113 -2.51277,-1.88147 -4.10743,-2.92422 0.0359,0.0193 0.54571,0.27059 1.33643,0.70193 -1.00965,-0.63687 -1.51286,-1.16262 -1.64035,-1.26718 1.99002,1.17274 4.42443,1.95015 6.56802,2.69314 -0.51954,-0.48129 -1.0783,-0.96488 -1.69591,-1.44879 -1.29399,-0.49904 -2.12069,-0.84247 -1.9279,-0.98301 0.31369,0.0716 0.60445,0.14449 0.90841,0.21572 -1.60772,-1.1473 -3.50947,-2.27072 -5.74125,-3.2778 l 0.4313,-0.0523 c -0.0261,0.0128 3.62705,1.28161 7.34237,3.84969 0.51961,0.14051 1.013,0.28102 1.48682,0.42513 -4.84594,-4.40485 -10.46304,-6.27754 -10.36504,-6.28371 5.93408,1.35936 10.022,4.36915 12.50534,6.84929 0.049,-0.32054 0.085,-0.64079 0.10456,-0.96524 -2.58145,-2.02565 -4.73484,-3.38102 -4.60738,-3.47285 l 0.19932,0.0918 c -2.49979,-1.55607 -4.57796,-2.50702 -4.5551,-2.50702 v 0 c 4.19565,0.97152 7.09732,2.73146 8.99587,4.30026 v -0.55517 c -3.84274,-4.54166 -8.11361,-6.49312 -8.08087,-6.50981 2.11088,0.73918 3.84273,1.69623 5.27392,2.70987 -0.31694,-0.55908 -0.56198,-1.10804 -0.745,-1.63118 -4.17608,-3.75786 -8.11357,-6.23799 -7.95016,-6.23799 v 0 c 2.67945,1.05544 5.31318,2.97032 7.59075,4.98715 -0.19286,-0.89242 -0.20267,-1.51 -0.16993,-1.53324 0.35288,0.88589 0.79728,1.72825 1.26778,2.54913 1.15026,1.08123 2.16976,2.14327 3.03565,3.09154 l 0.20267,-0.71858 c 0.0555,0.40848 0.14376,0.80906 0.245,1.20474 0.28106,0.31669 0.54903,0.61796 0.7843,0.89246 -0.21565,-0.68947 -0.46729,-1.36197 -0.74175,-2.01944 -1.78417,-2.0906 -5.77402,-6.368 -9.40107,-8.74491 1.81356,1.16424 5.74788,3.72848 8.85864,7.5323 l -0.28106,-0.51562 c -0.51957,-0.8503 -1.06528,-1.70935 -1.6371,-2.54656 0.23527,0.33694 0.53919,0.72641 0.87249,1.14501 l -0.2255,-0.41236 c 0.20592,0.29739 0.42482,0.61796 0.65356,0.95091 1.3691,1.70537 3.14346,3.90839 4.09106,6.23796 -0.0327,-1.21888 0.0131,-2.53249 -0.0392,-3.81014 0.4281,0.82088 0.0556,2.64975 0.37247,4.22116 0.15039,1.24562 0.69278,2.34361 1.08161,3.59837 0.29415,0.26402 0.56537,0.55252 0.75809,0.89464 0.36276,0.65748 0.39218,1.44107 0.42157,2.19294 0.0556,1.40547 0.16665,2.84643 0.7287,4.12807 0.23526,0.37503 0.47709,0.77964 0.72869,1.20868 0.49996,0.58851 1.14692,1.0479 1.85925,1.26097 -0.9084,-2.22856 -2.41148,-4.93444 -3.25455,-7.87534 l 0.28098,0.23852 v 0 c -0.007,0 0.59147,1.75503 2.09459,4.37176 0.52281,1.02376 1.17965,2.18408 1.74822,3.3801 l 0.1862,0.002 0.2843,-0.0334 c -0.66001,-1.74491 -1.53906,-3.42318 -2.05539,-4.83521 -1.23842,-2.69935 -1.18607,-4.44817 -1.21221,-4.70598 0.843,3.14381 2.87549,6.34636 3.8983,8.8749 l 0.17318,0.4124 0.60448,-0.18655 c -1.32337,-3.48693 -3.19246,-6.85162 -2.77096,-6.85162 0.007,0 0.01,0 0.0163,0 1.6371,2.54515 2.89842,4.80304 3.68921,6.6003 l 0.68943,-0.17353 c -0.41825,-3.81265 -1.17305,-6.92087 -1.00968,-6.92087 0.003,0 0.003,0 0.003,0 1.09139,2.71872 1.67302,4.97043 1.94099,6.72155 l 0.56532,-0.10061 c -0.0327,-2.16352 -0.12086,-4.45739 0.35289,-6.34644 0.49995,-2.85528 2.26448,-4.80085 2.35599,-4.80085 v 0 c -1.56196,3.75783 -1.78411,8.03914 -1.95732,11.02212 0.32022,-0.0461 0.63063,-0.0882 0.9247,-0.11994 l -0.28099,-0.0395 0.42478,-0.0166 c 0.51305,-2.15734 1.47042,-5.41711 2.04883,-8.67205 -0.32674,1.93742 -0.39536,5.59065 -1.42469,8.64655 l 0.42806,-0.0206 h 0.0653 c 0.62414,-0.64079 1.2711,-1.2904 1.87893,-1.96325 -0.17321,0.57185 -0.87901,1.21137 -1.59462,1.95312 0.33655,-0.0128 0.67641,-0.0294 0.95412,-0.0294 0.003,0 0.003,0 0.007,0 -0.31701,0.008 -0.63398,0.0268 -0.95744,0.0601 4.50934,0.28335 6.81633,3.53169 6.81633,3.53169 -1.79073,-1.88902 -5.17274,-2.82335 -7.13334,-3.22816 l -0.43783,0.51604 c 3.01932,0.66358 5.75105,2.35853 7.17899,3.38226 -2.40496,-1.65665 -5.24782,-2.503 -7.49924,-2.94474 l -0.0229,0.0333 c -0.21241,0.27718 -0.38559,0.57186 -0.55221,0.87186 2.85267,0.71236 6.26407,2.08573 8.82259,4.76483 0,0 -4.30675,-2.75195 -9.14608,-4.13682 l -0.33334,0.68919 c 1.2319,0.60777 2.53573,1.51913 3.82644,2.92188 0,0 -1.56849,-1.2943 -4.14666,-2.23897 -0.20585,0.43391 -0.44111,0.86921 -0.71557,1.30051 0.93454,0.75844 1.88542,1.73486 2.78073,3.03569 0,0 -1.35611,-1.14632 -3.28073,-2.31059 l -0.51301,0.58198 c 1.39199,0.86296 2.80039,2.05274 4.07145,3.68656 0.74506,0.63296 1.41171,1.24429 1.98677,1.77398 -0.47057,-0.38527 -0.98682,-0.74926 -1.4999,-1.11425 l 0.14051,0.19276 -0.32343,-0.33062 -0.44443,-0.32907 c 3.32973,3.60948 5.31975,7.86525 6.21831,9.82454 -1.84619,-3.92776 -5.52228,-8.47566 -7.3424,-10.5343 -0.61101,-0.36629 -1.24495,-0.70584 -1.89519,-1.01624 2.13046,2.43176 5.81314,7.01276 7.70509,11.72795 0.39864,0.83358 0.64699,1.63382 0.78419,2.34844 l 0.0654,0.21954 -0.0262,-0.0329 c 0.25491,1.47401 0.0981,2.5298 0.0981,2.5298 0.049,-3.00591 -2.31027,-6.59412 -3.30362,-7.97013 -0.46073,-0.31626 -0.95085,-0.61397 -1.46061,-0.89863 2.60431,2.75071 3.64014,6.95653 4.01271,9.07038 -0.73858,-3.81008 -3.04222,-7.16206 -4.49633,-8.97199 0.20909,0.68294 0.39536,1.40151 0.54567,2.16221 v 0 c -0.0163,0 -0.36593,-1.14991 -1.21556,-2.8514 -0.48356,-0.23622 -0.98027,-0.46069 -1.49328,-0.67013 1.82009,2.15335 5.35898,7.09305 5.2838,12.80265 0,0 -1.9214,-8.30347 -6.16609,-12.89088 l 0.19607,0.80934 c 1.20904,1.54337 2.42129,4.01048 2.30368,7.74795 0,0 -0.26794,-2.58106 -1.90825,-5.48996 0.0457,0.34967 0.10125,0.69049 0.13391,1.05939 v 0 c -0.003,0 -0.23526,-0.76204 -0.66329,-1.93118 -0.46408,-0.71236 -1.01953,-1.43093 -1.67633,-2.12788 0.12418,0.30388 0.23859,0.61789 0.35289,0.93581 0.36928,0.80642 0.69603,1.80996 0.88229,3.002 0.2679,1.17306 0.48038,2.4112 0.59143,3.73232 0,0.002 0,0.002 0,0.002 -0.0131,0 -0.14379,-0.66005 -0.45092,-1.72826 0,0.57573 -0.0425,1.18579 -0.12417,1.82658 4.51259,4.72764 6.74119,9.17233 7.73451,11.67536 -0.62742,-1.48322 -1.51621,-2.94715 -2.59451,-4.37184 1.69919,4.75735 0.71233,10.43626 0.0295,13.23407 1.28094,-5.68018 -0.15688,-11.72767 -0.95095,-14.38395 -0.51301,-0.61133 -1.05544,-1.2126 -1.62726,-1.80495 1.06201,3.61491 2.72849,11.55792 -0.44114,18.49547 m -9.06773,-23.17352 c -0.28752,1.06822 -0.63387,2.08446 -0.99664,3.02878 -0.15028,1.49627 -0.39867,2.91183 -0.65024,4.07836 0.70249,-1.61484 1.4247,-3.60225 1.92458,-5.80793 -0.0816,-0.46069 -0.17639,-0.88815 -0.2777,-1.29921 m 6.22483,2.62693 c 0.0524,0.32932 0.0981,0.69952 0.12742,1.09393 l 0.0393,-0.6205 -0.16669,-0.47343 m -2.60424,-2.71875 c -0.0621,0.30353 -0.14051,0.61757 -0.2255,0.95091 0.1209,0.55905 0.23199,1.18939 0.31369,1.87889 0.0523,-0.415 0.0948,-0.8401 0.12746,-1.27765 -0.0621,-0.52613 -0.12093,-1.06197 -0.21565,-1.55215 m -1.93449,-0.25164 -0.10128,0.52843 c 0.12417,0.72644 0.2026,1.44882 0.24179,2.16118 0.098,-0.31171 0.19283,-0.62441 0.28106,-0.94467 -0.11116,-0.57837 -0.25496,-1.16035 -0.42157,-1.74494 m 1.52925,-8.68864 0.0327,0.32061 c 1.10116,2.3422 1.78742,4.52466 2.14027,5.84447 0.33002,0.83746 0.58819,1.657 0.79728,2.46119 l 0.50976,0.50024 c -0.29728,-1.9939 -1.19267,-6.52255 -3.48005,-9.12651 m 8.62334,3.19515 0.68622,0.61757 c -1.34623,-2.27457 -3.09442,-4.94986 -5.14985,-7.41722 -0.37906,-0.28462 -0.75484,-0.5425 -1.1273,-0.78363 1.27434,1.41034 2.69903,3.52154 3.72512,6.3614 0.76786,0.49674 1.45408,0.98686 2.03899,1.44766 l -0.17318,-0.22578 m -7.85873,-8.593 -0.01,0.0295 c 0.93776,1.22139 2.08139,3.06077 2.93102,5.60334 0.85933,0.42119 1.64688,0.85641 2.36248,1.2904 -1.07177,-2.00015 -2.76764,-4.55154 -5.2838,-6.9232 m 2.0325,6.21471 0.26476,0.23111 -0.0752,-0.16602 -0.18955,-0.0651 m -2.45071,-4.81316 c -0.0948,0.37511 -0.16341,0.75417 -0.2255,1.13708 0.41501,0.63073 0.8267,1.31628 1.22541,2.07172 0.36594,0.14312 0.72866,0.28723 1.07502,0.4379 -0.58491,-1.22283 -1.29727,-2.46352 -2.07493,-3.6467 m 1.4508,-1.86224 c 0.3333,0.21565 0.65027,0.43 0.9411,0.64301 l -0.41825,-0.4542 -0.52285,-0.18881 m 0.0851,-2.73932 -0.10463,0.32681 0.24504,-0.20944 -0.01,-0.051 -0.13063,-0.0664 m 1.5717,-1.56482 -0.0262,0.14013 0.098,-0.11723 -0.0719,-0.0229 m -0.78755,-0.19935 0.0229,0.12774 -0.007,-0.12122 -0.0163,-0.007 m 0.8986,-1.22538 -0.0163,0.5388 0.34632,0.13402 0.0392,-0.59732 -0.36925,-0.0755 m -1.25804,-0.21953 0.13723,0.45184 0.1863,0.0487 -0.0327,-0.46069 -0.29079,-0.0398 m 2.20239,0.4378 v 0.0104 l 0.007,-0.007 -0.007,-0.004 m 0.14055,-1.59428 c -0.0229,0.33726 -0.049,0.6434 -0.0752,0.93194 l 0.4215,0.0983 0.47385,-0.55647 0.062,-0.33591 c -0.31369,-0.0523 -0.60123,-0.0983 -0.88222,-0.13791 m -1.20908,-0.14672 c 0.0392,0.3101 0.0719,0.60784 0.0883,0.88195 l 0.42153,0.0689 c 0.003,-0.2934 0.006,-0.59076 0.006,-0.89595 l -0.51629,-0.0549 m -0.93451,0.2872 -0.51632,0.19022 0.0784,0.19283 0.4771,0.0588 -0.0392,-0.44182 m 3.21861,-0.92403 c -0.34636,0.065 -0.68947,0.14277 -1.03911,0.23495 l -0.006,0.098 c 0.3169,0.0232 0.63063,0.0526 0.94435,0.0984 l 0.10125,-0.43131 m -23.82767,-4.81362 0.49343,0.60128 0.5751,0.41892 0.67966,-0.2951 c -0.53915,-0.24112 -1.11753,-0.48359 -1.74819,-0.7251 m 2.09126,-1.16388 c 0.44115,0.29107 0.87253,0.60875 1.29731,0.93549 l 0.34639,-0.26532 c -0.51308,-0.22222 -1.04246,-0.44439 -1.6437,-0.67017 m 2.60432,-0.57842 0.18298,0.16112 0.0458,-0.0589 -0.22881,-0.10227 m -5.10406,-3.45387 c 0.99338,0.57175 2.19914,1.31491 3.41467,2.17361 0.76137,0.23886 1.57173,0.49671 2.37564,0.78394 l 0.0817,-0.1046 -0.54243,-0.61041 c -1.35608,-0.56261 -2.71219,-1.03611 -3.78717,-1.54559 -0.59147,-0.22578 -1.0915,-0.46464 -1.54238,-0.69695 m -5.80662,1.83674 0.17646,0.2134 0.23206,0.0548 -0.40852,-0.26825 m 10.85846,-1.30969 c 0.47703,0.39211 0.94432,0.80673 1.39528,1.24467 l 0.11761,-0.33686 -0.39539,-0.43794 c -0.37575,-0.16334 -0.74831,-0.32054 -1.1175,-0.46987 m -12.72427,0.81689 0.65028,0.41501 -0.25813,-0.37281 -0.39215,-0.0422 m 17.28587,-4.62043 c 0.3725,0.90741 0.69927,1.88514 0.96393,2.92809 l 0.24186,0.30004 c -0.0425,-0.48006 -0.0817,-0.97409 -0.1046,-1.48093 -0.30713,-0.42115 -0.67966,-1.02863 -1.10119,-1.7472 m -1.38222,-0.18002 0.33983,0.73515 0.42157,0.49413 -0.0915,-0.42252 -0.66985,-0.80676 m -2.4311,-2.70239 c 0.42803,0.59112 0.86261,1.13351 1.29399,1.66585 l 0.0359,-0.24768 c -0.43779,-0.48362 -0.87573,-0.95705 -1.3299,-1.41817 m -1.30383,59.81736 c 0.5261,-1.33654 0.8921,-2.80705 1.12737,-4.36799 0.13395,-0.11864 0.27115,-0.23626 0.40517,-0.35352 -0.49015,2.00893 -1.05872,3.59816 -1.53254,4.72151" style="fill:#72886a;fill-opacity:1;fill-rule:nonzero;stroke:none;stroke-width:0.326765" id="path21396"></path>
    <path d="m 330.49652,258.60264 c 2.41155,-2.14436 5.30337,-5.0854 7.33259,-8.33639 0.91828,-0.88187 1.76131,-1.84323 2.52264,-2.86537 -0.19272,2.28078 -0.5522,4.28354 -0.96393,5.98629 -0.13402,0.11737 -0.27121,0.23498 -0.40516,0.35359 0.0261,-0.19018 0.0555,-0.37903 0.0784,-0.56928 -0.13723,0.29351 -0.28431,0.58462 -0.43787,0.86928 -0.49343,0.40453 -0.99991,0.79403 -1.5228,1.16265 0.94118,-1.37834 1.64698,-2.62297 2.11099,-3.49874 0.0588,-0.79368 0.0914,-1.60437 0.098,-2.42747 -1.07178,2.01542 -3.10095,5.31873 -6.11703,8.22011 -0.87249,0.41861 -1.77105,0.78751 -2.69585,1.10533 m -0.88876,-3.12484 c 0,0 0.19604,-0.10061 0.53263,-0.30999 1.20247,-0.46337 2.35923,-1.02644 3.45387,-1.67604 -1.11097,0.73783 -2.42454,1.42208 -3.9865,1.98603 m 14.80573,-9.17487 c 1.06525,-1.98342 1.83642,-3.86888 2.40171,-5.63016 0.0262,-1.70927 -0.0719,-3.15034 -0.23858,-4.36551 h -0.0915 c -0.45745,1.45146 -0.97709,2.80066 -1.41814,3.84598 -0.57188,3.08137 -1.5979,5.4694 -1.5979,5.4694 0.16012,-1.77042 0.24832,-3.35817 0.28102,-4.79041 0.73522,-2.2504 1.1339,-4.65247 1.1339,-7.14925 0,-12.32264 -9.68206,-22.3834 -21.85078,-22.99089 -0.0131,0 -0.0262,-0.002 -0.0392,-0.002 -0.003,0 -0.01,0 -0.013,0.002 -0.36929,-0.0193 -0.74182,-0.0294 -1.11432,-0.0294 -1.06528,0 -2.11092,0.0752 -3.13701,0.2117 0.25167,-0.0905 0.50003,-0.17611 0.75163,-0.25777 -0.83002,0.0588 -1.69594,0.17353 -2.60103,0.35355 l 0.21558,-0.27189 c 0,0 2.10764,-0.67017 4.92115,-0.7669 0.84952,-0.18655 1.66652,-0.32057 2.44418,-0.41628 -0.87898,-0.17614 -1.73838,-0.28727 -2.55855,-0.33563 -3.05852,0.64343 -5.41451,1.48943 -5.44389,1.48943 v 0 c 0.9835,-0.60096 1.93445,-1.07471 2.85594,-1.48322 -2.46387,0.15984 -4.14337,0.68947 -4.14337,0.68947 2.33306,-1.13094 4.53545,-1.54584 6.46987,-1.58147 0.89539,-0.28102 1.73189,-0.47741 2.51944,-0.61793 -0.79735,-0.0879 -1.59463,-0.12121 -2.34954,-0.12121 -2.48013,0 -4.48966,0.3702 -4.48966,0.3702 0.26137,-0.12777 0.51625,-0.23893 0.7711,-0.33951 1.2319,-0.17748 2.49322,-0.26793 3.77416,-0.26793 2.80366,0 5.5027,0.43388 8.03839,1.24431 -0.22546,-0.0268 -0.4542,-0.0484 -0.6829,-0.065 0.21237,0.31009 0.42153,0.64696 0.63062,0.9737 0.66333,0.0742 1.22209,0.17 1.62737,0.26437 l -0.58177,-0.62413 -0.52934,-0.39571 c 10.39114,3.53956 17.86431,13.38072 17.86431,24.96813 0,3.06214 -0.52289,6.00297 -1.48357,8.73837 0,-0.006 0,-0.0141 0.003,-0.0203 -1.03907,2.23249 -1.9801,3.67965 -1.96712,3.67965 v 0 l -0.3725,0.22225 m 1.44756,-9.98922 -0.42807,0.0753 c 0,0.67899 -0.0326,1.35932 -0.10459,2.02325 0.20591,-0.74302 0.38241,-1.44103 0.53266,-2.0985 m 1.85931,0.0944 0.0425,0.44154 0.062,-0.43138 -0.10453,-0.0102 m -17.07018,-25.62811 0.0947,0.16986 c 0.57179,0.069 1.14043,0.16341 1.70248,0.29475 h 0.01 l -0.28424,-0.12774 c -0.50655,-0.13137 -1.01628,-0.24508 -1.52273,-0.33687 m -3.78396,-0.33298 c 0.38883,0.10847 0.7777,0.22838 1.16653,0.3751 l 0.28102,-0.009 -0.81689,-0.36276 -0.63066,-0.003 m 0.5849,-1.97989 c -0.77117,0.0229 -1.54887,0.0817 -2.32,0.17219 0.9084,0.20062 1.68282,0.45455 2.30695,0.69959 l 0.83326,0.0166 -0.40848,-0.71624 -0.41173,-0.17219" style="fill:#564924;fill-opacity:1;fill-rule:nonzero;stroke:none;stroke-width:0.326765" id="path21398"></path>
    <path d="m 330.14039,255.16781 c 0.8921,-0.55523 2.78398,-1.85836 4.6695,-3.99637 1.49984,-1.11068 2.84932,-2.40764 4.01917,-3.86277 -0.73847,1.76166 -2.23506,4.1869 -5.2348,6.1831 -1.09464,0.6496 -2.2514,1.21267 -3.45387,1.67604 m 7.68872,-4.90156 c 0.56215,-0.90117 1.05875,-1.82259 1.46067,-2.7608 -0.01,-0.24903 -0.0196,-0.49672 -0.0327,-0.74535 0.71557,-0.95123 1.35607,-1.9606 1.90831,-3.0226 -0.20912,0.72608 -0.45095,1.48449 -0.71896,2.27467 -0.0261,0.47347 -0.0588,0.93814 -0.0947,1.38871 -0.76133,1.02214 -1.60436,1.9835 -2.52264,2.86537 m 5.92102,-9.43402 c 0.0294,-1.16522 0.0229,-2.22719 -0.0131,-3.1925 -0.33651,0.76856 -0.66329,1.43881 -0.92473,1.95439 0.5293,-1.88147 0.81364,-3.86228 0.81364,-5.91114 0,-12.01745 -9.74411,-21.75927 -21.75926,-21.75927 -0.28102,0 -0.55873,0.007 -0.83647,0.0166 0.98679,-0.2745 2.08142,-0.53622 3.24474,-0.73911 l 0.1765,-0.25389 c -0.4608,-0.0945 -0.91172,-0.19276 -1.41821,-0.25524 12.16872,0.60749 21.85078,10.66825 21.85078,22.99089 0,2.49678 -0.39868,4.89885 -1.1339,7.14925 m -29.89245,-27.60765 c -0.003,0 -0.003,0 0,0 1.65019,-1.01364 3.29053,-1.77828 4.872,-2.35017 1.02609,-0.13649 2.07173,-0.2117 3.13701,-0.2117 0.3725,0 0.74503,0.0101 1.11432,0.0294 -5.17271,0.68295 -9.05468,2.53249 -9.12333,2.53249" style="fill:#777e4a;fill-opacity:1;fill-rule:nonzero;stroke:none;stroke-width:0.326765" id="path21400"></path>
    <path d="m 328.09156,251.83509 c 0,0 3.82316,-1.95439 7.09732,-4.94101 0.0458,-0.52835 0.0816,-1.0584 0.0915,-1.58813 -2.31027,2.50077 -5.85897,5.11489 -11.11976,6.20239 0,0 6.45682,-2.32956 11.07725,-8.24466 l -0.062,-0.72245 c -4.11071,4.48423 -9.62649,6.48698 -9.62649,6.48698 l -0.45745,-0.11119 c 4.85574,-2.39579 7.92074,-5.5383 9.83558,-8.29028 -0.0816,-0.4735 -0.1797,-0.94467 -0.29075,-1.41164 -3.30038,3.29441 -7.65616,5.59064 -7.65616,5.59064 3.4539,-2.60635 5.77066,-4.88742 7.32931,-6.80589 -0.13388,-0.46073 -0.2679,-0.92149 -0.43131,-1.37206 -3.24474,3.20262 -7.65609,5.01255 -7.65609,5.01255 3.17285,-2.7063 5.38184,-4.97696 6.92739,-6.83659 -0.14707,-0.33323 -0.32349,-0.64992 -0.49011,-0.97666 -2.18602,2.11772 -5.61054,4.53908 -11.0381,7.01527 0,0 5.99285,-4.12408 10.12966,-8.63865 l -0.49668,-0.79537 c -1.40832,1.2254 -3.2676,2.48771 -5.74124,3.64412 0,0 2.64678,-1.79465 5.05178,-4.59109 -0.51954,-0.69959 -1.07174,-1.36588 -1.66649,-2.00272 -2.04555,1.39496 -3.42452,2.92026 -3.42452,2.92026 0.97705,-1.4998 1.96388,-2.61669 2.90495,-3.48593 l -0.55877,-0.5195 c -3.58133,2.54906 -6.96658,6.24441 -6.96658,6.24441 2.2546,-3.52933 4.29038,-5.74386 6.00593,-7.1326 l -0.63394,-0.49802 c -1.48022,0.932 -3.2808,2.25573 -5.47659,4.19964 0,0 1.75147,-2.99579 4.39498,-5.03181 l -0.82346,-0.53985 c -1.57501,0.93814 -3.50294,2.40238 -5.80005,4.69201 0,0 2.22853,-3.09382 5.07135,-5.16548 l -0.75152,-0.415 c -2.29062,1.0724 -5.10738,3.00979 -7.50905,6.53527 l -0.036,-0.34572 c 0,0 2.27753,-4.29401 6.40786,-6.79443 l -0.32018,-0.14308 c -5.37856,2.68174 -8.03843,7.69433 -8.03843,7.69433 1.59459,-4.44331 4.52564,-6.89413 6.83916,-8.20477 l -0.49019,-0.20549 c 0.8267,-0.39183 1.65672,-0.78391 2.48342,-1.17309 l -0.63387,-0.18267 c -4.21856,1.44134 -8.03187,6.86855 -8.03187,6.86855 1.50964,-4.14334 4.05835,-6.03892 5.66935,-6.85945 -5.32303,1.40282 -8.16593,5.37887 -8.16593,5.37887 2.47696,-4.65638 6.03871,-5.78372 7.74111,-6.05557 -0.31369,-0.0611 -0.6241,-0.11998 -0.9345,-0.1761 -6.03212,1.63381 -12.05439,8.13346 -12.05439,8.13346 2.72846,-4.90541 8.15933,-7.38159 10.76364,-8.3325 -0.60127,-0.0777 -1.1927,-0.1379 -1.77761,-0.17614 -1.9214,0.68918 -6.13008,2.47625 -8.93378,5.71443 1.35608,-1.62366 4.29041,-4.68803 7.84885,-5.7579 -0.0914,0 -0.18292,0 -0.27115,0 -1.21885,0 -2.3756,0.11508 -3.45066,0.37028 1.34627,-0.35355 3.52905,-0.76204 6.36207,-0.76204 1.14374,0 2.39201,0.065 3.73172,0.22846 2.59446,-0.86794 4.76751,-1.4309 6.62675,-1.78939 v -0.19276 c -2.11085,-0.25298 -4.2545,-0.31408 -5.82288,-0.31408 -1.42473,0 -2.37232,0.0484 -2.37232,0.0484 1.38214,-0.31662 2.63369,-0.54243 3.78068,-0.69568 0.79724,-0.28067 2.05204,-0.68033 3.48978,-1.02997 l -0.27121,-0.35228 c -1.32006,-0.19671 -2.85267,-0.35222 -4.66947,-0.44793 0,0 1.7025,-0.46337 3.87872,-0.58458 l -0.049,-0.0716 c -1.37901,0.16341 -2.89842,0.39448 -4.62054,0.74151 0.0687,-0.019 1.94105,-0.63694 4.40154,-1.16396 -0.1372,-0.29344 -0.23852,-0.60127 -0.30389,-0.90516 -0.96068,-0.10064 -2.02589,-0.1657 -3.22185,-0.18235 -1.50646,0.31397 -3.11079,0.76207 -4.79693,1.38226 l 0.27125,-0.33955 c 0,0.002 0,0.002 0,0.002 0.0327,0 1.91806,-0.87796 4.66948,-1.64656 0.27774,-0.0101 0.55545,-0.0166 0.83647,-0.0166 12.01515,0 21.75926,9.74185 21.75926,21.7593 0,2.04886 -0.28434,4.02968 -0.81364,5.91111 -0.34633,0.6804 -0.58491,1.09506 -0.59468,1.1182 0.31372,-1.10539 0.58162,-2.12393 0.80708,-3.07255 -0.26465,0.27453 -0.49992,0.57181 -0.69927,0.89859 -0.22222,1.52672 -0.59151,3.25265 -1.16001,5.19917 -0.55224,1.06197 -1.19274,2.07137 -1.90831,3.0226 -0.007,-0.1343 -0.0131,-0.27086 -0.0196,-0.40481 l -0.10784,0.15974 c -0.0817,0.24507 -0.18299,0.51301 -0.3006,0.79364 -1.16985,1.45514 -2.51933,2.75209 -4.01917,3.86274 0.68619,-0.77378 1.37234,-1.66324 2.00953,-2.66277 -0.62085,0.34957 -1.26781,0.6434 -1.9606,0.80021 l 0.0523,-0.34304 c -1.66977,1.17274 -3.89177,2.25136 -6.81958,2.86928 m -2.32333,-32.91762 c -1.8168,0.18496 -3.53882,0.44668 -4.89165,0.67895 0.98686,0.14676 2.03578,0.37264 3.11076,0.63691 l 0.66989,-0.31401 c 0.53591,-0.25389 1.09799,-0.54113 1.49659,-0.96361 l -0.38559,-0.0382 m -1.72208,-6.83663 c -0.49008,0.0484 -0.95733,0.0752 -1.47694,0.15293 0.45748,-0.0254 0.95744,-0.0382 1.47694,-0.0418 v -0.11113" style="fill:#282718;fill-opacity:1;fill-rule:nonzero;stroke:none;stroke-width:0.326765" id="path21402"></path>
    <path d="m 344.78596,246.08068 v 0 0" style="fill:#564924;fill-opacity:1;fill-rule:nonzero;stroke:none;stroke-width:0.326765" id="path21404"></path>
    <path d="m 342.21435,240.71232 c 0,0 0,0 0.003,0 -0.003,0 -0.003,0 -0.003,0 v 0" style="fill:#282718;fill-opacity:1;fill-rule:nonzero;stroke:none;stroke-width:0.326765" id="path21406"></path>
    <path d="m 320.00741,214.79307 v 0 h 0.003 c -0.003,0 -0.003,0 -0.003,0 m -3.64667,-1.20876 v 0 0" style="fill:#282718;fill-opacity:1;fill-rule:nonzero;stroke:none;stroke-width:0.326765" id="path21408"></path>
    <path d="m 346.9753,208.00248 v 0 0 m 1.0457,-1.82001 c -0.003,-0.0128 -0.007,-0.0229 -0.01,-0.032 0.003,0 0.007,0.009 0.01,0.032 m -17.50159,-0.5745 v -0.004 0.004 0 m 29.17031,-0.0229 c 0.007,-0.0562 0.0163,-0.10844 0.0262,-0.16069 -0.01,0.0522 -0.0196,0.10453 -0.0262,0.16069 m -28.64097,-2.38569 c -0.003,0 -0.003,0 -0.003,0 v 0 c 0.003,0 0.003,0 0.003,0 m -16.27939,-0.28455 -0.24507,-0.0844 c 0.0556,0.002 0.11437,0.007 0.17318,0.007 l 0.0751,0.0751 -0.003,0.002 m 15.97547,-0.28067 c -0.01,-0.007 -0.0228,-0.0131 -0.0326,-0.0167 0,-0.002 0.003,-0.002 0.003,-0.002 0.003,0 0.013,0.006 0.0294,0.0193 m -1.45739,-2.85298 v 0 0 m 9.35856,-5.75793 c -0.0261,-0.0382 -0.0555,-0.0804 -0.0817,-0.11734 0.0294,0.0396 0.0556,0.0791 0.0817,0.11734" style="fill:#72886a;fill-opacity:1;fill-rule:nonzero;stroke:none;stroke-width:0.326765" id="path21410"></path>
    <path d="m 322.67053,232.78833 -0.16662,1.50209 0.37574,0.0434 c 0,0 1.14043,0.51569 2.98009,1.45634 3.8558,5.39951 1.97694,14.55776 1.97694,14.55776 2.5684,-6.87479 1.49662,-11.23385 0.67313,-13.16506 l 0.5261,0.28726 c 2.88205,5.4834 0.0719,19.7399 0.0719,19.7399 4.0748,-10.58038 3.14029,-16.00497 2.07172,-18.53738 l 0.79407,0.46076 c 0.79075,1.97725 1.78738,6.38852 0.97698,15.42422 0,0 3.73818,-8.64027 0.92802,-14.28313 0.30713,0.18878 0.61764,0.3816 0.93133,0.57796 1.07499,2.124 2.22526,6.59412 0.89856,15.4359 0,0 2.84607,-8.83162 0.86262,-14.30849 l 0.10463,0.0689 c 1.13711,2.29747 3.8166,9.22719 0.56201,18.49791 l 0.4052,-0.2413 c 0,0 4.21855,-8.74476 1.37238,-16.66882 l 0.085,0.0624 c 3.9473,9.72125 -0.71233,19.35071 -0.71233,19.35071 5.28701,-7.8692 3.4604,-15.44976 2.60431,-17.9783 0.49664,0.37247 0.98683,0.748 1.47373,1.1332 1.8233,5.78114 -1.04245,14.3293 -1.04245,14.3293 3.31995,-4.99328 3.33632,-9.30659 2.93765,-11.73152 2.75791,6.95001 0.69599,13.26967 0.69599,13.26967 3.09778,-6.4625 1.46064,-11.27347 0.38562,-13.35134 0.32347,0.29083 0.63716,0.58586 0.9476,0.87934 3.07813,7.91764 0.81361,19.74631 0.81361,19.74631 3.16964,-6.93737 1.50315,-14.88045 0.44115,-18.49554 0.57185,0.59475 1.11428,1.19338 1.62729,1.80513 0.79407,2.65589 2.23189,8.70381 0.95092,14.38388 0.68294,-2.79411 1.66976,-8.47676 -0.0295,-13.23139 1.07837,1.42434 1.96712,2.88597 2.59454,4.36915 -2.01616,-5.07756 -9.07426,-18.13937 -30.11791,-25.38924" style="fill:#72c32d;fill-opacity:1;fill-rule:nonzero;stroke:none;stroke-width:0.326765" id="path21412"></path>
    <path d="m 341.00199,229.22947 c 4.31006,1.60084 7.25096,4.34235 9.22786,6.16903 -0.66665,-0.54896 -1.37566,-1.08126 -2.12718,-1.58418 3.32969,3.61371 5.31971,7.86818 6.21831,9.82613 -1.84302,-3.92508 -5.52239,-8.47429 -7.3424,-10.53554 -0.61102,-0.36269 -1.24499,-0.70223 -1.89523,-1.01624 2.51933,2.87588 7.22806,8.74356 8.55468,14.29597 -0.0294,0.23886 -4.00939,-8.77398 -9.96632,-14.90995 -0.34311,-0.13786 -0.68947,-0.26536 -1.03914,-0.37906 1.75799,1.35308 5.14004,4.95018 6.37525,11.17766 -0.0229,0.0369 -1.71876,-5.73116 -7.0026,-10.6414 1.51613,1.93735 3.64995,5.55763 4.13678,11.15836 0,0.0588 -2.47357,-8.36552 -6.65942,-12.4733 -0.49992,-0.0778 -0.99988,-0.1366 -1.4998,-0.17223 1.90496,1.62998 6.88163,7.24376 7.64624,16.25925 -0.0261,0.12739 -1.93445,-10.39414 -9.51212,-16.29255 l -0.0817,0.004 c 5.94388,4.91024 7.80641,14.57307 7.81621,14.48481 l -0.11109,0.42118 c -2.72521,-9.39712 -8.05804,-13.8212 -9.91729,-14.66095 l -0.0947,0.0154 c 4.07473,2.9422 7.00578,12.07755 6.98948,12.00598 -3.78396,-8.09132 -6.89148,-10.90052 -8.57765,-11.62693 l -0.81361,0.26177 c 4.51915,2.05891 6.95681,11.65239 6.93071,11.55146 -4.25119,-7.85248 -7.14636,-10.23426 -8.52862,-10.89177 l -0.64046,0.32449 c 1.78089,0.68918 5.17595,4.01563 8.40119,14.9812 0.0719,0.0295 -6.00594,-13.36795 -10.05459,-13.96912 l -0.38555,0.27446 c 1.26456,0.31401 4.02247,2.33334 6.18564,9.12389 -0.18627,-0.44178 -4.05843,-8.35183 -8.0155,-7.56394 -1.19927,1.17926 -1.80379,2.06781 -1.81035,2.05729 l -0.16013,0.3307 -0.47706,-0.67021 c 5.27068,-9.31905 12.89089,-9.27947 18.23018,-7.33556" style="fill:#72c32d;fill-opacity:1;fill-rule:nonzero;stroke:none;stroke-width:0.326765" id="path21414"></path>
    <path d="m 323.59851,227.8306 -1.16978,0.95741 0.23852,0.29086 c 0,0 0.45092,1.17048 1.111,3.12745 -1.02605,6.55422 -8.78015,11.77985 -8.78015,11.77985 6.64637,-3.11044 8.93043,-6.97671 9.69511,-8.9311 l 0.1765,0.57182 c -1.78089,5.93802 -13.76663,14.14925 -13.76663,14.14925 10.31593,-4.70476 13.44638,-9.23111 14.45603,-11.78642 0.0817,0.29076 0.1634,0.5859 0.24183,0.88586 -0.8169,1.96416 -3.19575,5.81286 -10.09703,11.69819 0,0 8.71809,-3.55456 10.65907,-9.55524 0.0882,0.35352 0.17646,0.70577 0.26466,1.06585 -0.72214,2.27072 -3.02913,6.26738 -10.16565,11.65638 0,0 8.21486,-4.31684 10.63294,-9.61799 l 0.0261,0.12516 c -0.79732,2.43406 -3.73165,9.26052 -12.54771,13.6029 l 0.45741,0.11483 c 0,0 9.13307,-3.29427 12.6491,-10.94645 l 0.0196,0.10068 c -3.9866,9.70856 -14.05745,13.3259 -14.05745,13.3259 9.28659,-1.92228 13.28624,-8.61465 14.44625,-11.01929 0.0947,0.61133 0.17974,1.22537 0.2582,1.84069 -2.7449,5.4042 -10.77349,9.50154 -10.77349,9.50154 5.86546,-1.23818 8.8978,-4.30668 10.30948,-6.31952 -2.89843,6.89521 -8.79331,9.96625 -8.79331,9.96625 6.73792,-2.44687 8.93375,-7.03185 9.62322,-9.26698 0.0262,0.43166 0.0425,0.86297 0.0588,1.2906 -3.34278,7.8092 -13.24045,14.67507 -13.24045,14.67507 7.12018,-2.73798 11.48902,-9.577 13.26007,-12.90084 -0.006,0.82331 -0.0392,1.63135 -0.098,2.42514 -1.29399,2.45335 -4.49957,7.77988 -9.39126,10.94031 2.44747,-1.52023 7.12671,-4.88619 9.24091,-9.47364 -0.22546,1.77423 -0.61433,3.44124 -1.20576,4.94108 2.11416,-5.03933 6.2151,-19.30849 -3.73821,-39.2156" style="fill:#72c32d;fill-opacity:1;fill-rule:nonzero;stroke:none;stroke-width:0.326765" id="path21416"></path>
    <path d="m 342.99205,242.04226 c 1.95731,4.16006 2.1403,8.17569 2.27428,10.86488 -0.0947,-0.86032 -0.22546,-1.7357 -0.41179,-2.62029 -0.15025,4.91032 -1.70893,9.34202 -2.43766,11.37028 1.43129,-4.09353 1.98677,-9.9204 2.13053,-12.66233 -0.18299,-0.68911 -0.3954,-1.3747 -0.64372,-2.055 -0.21237,3.81663 -0.9574,11.30286 -3.89502,16.19797 -0.18626,0.15314 3.27745,-9.07415 3.31993,-17.62622 -0.15029,-0.3356 -0.30717,-0.66884 -0.4771,-0.99568 0.3072,2.19815 0.20595,7.13295 -3.27413,12.44653 -0.0392,0.009 2.78726,-5.2946 2.45071,-12.50241 -0.2745,2.44425 -1.28418,6.52219 -4.85574,10.86852 -0.0425,0.0382 4.08781,-7.70841 3.97348,-13.57475 -0.30392,-0.4045 -0.62089,-0.79636 -0.95095,-1.16918 0.22225,2.49679 -0.15349,9.98919 -5.92092,16.9624 -0.10788,0.0716 5.89489,-8.77665 4.61067,-18.29234 l -0.0588,-0.0562 c 0.80715,7.67017 -4.62697,15.87098 -4.55835,15.81609 l -0.37254,0.22218 c 4.63028,-8.61709 3.91792,-15.51118 3.17945,-17.41297 l -0.0817,-0.0562 c 0.85284,4.95381 -3.44734,13.53136 -3.40811,13.47026 2.96051,-8.42822 2.70883,-12.60987 2.00959,-14.31004 l -0.76461,-0.38164 c 1.78742,4.63321 -3.18597,13.19054 -3.13037,13.10002 2.45724,-8.5815 2.05856,-12.3099 1.52922,-13.7473 l -0.68622,-0.21576 c 0.79406,1.73846 0.88558,6.48963 -4.48317,16.5795 0.0294,0.0729 5.06479,-13.75322 2.59775,-17.01465 l -0.46733,-0.0739 c 0.6797,1.11033 1.23846,4.48257 -1.97037,10.84831 0.1765,-0.44807 2.94414,-8.80992 -0.42806,-11.0156 -1.68278,0.004 -2.73833,0.21171 -2.73501,0.20292 l -0.34636,0.12383 0.12742,-0.81301 c 10.28986,-2.96404 15.70433,2.39462 18.15508,7.52182" style="fill:#acdd6a;fill-opacity:1;fill-rule:nonzero;stroke:none;stroke-width:0.326765" id="path21418"></path>
    <path d="m 298.12393,229.35069 c 0.41825,-0.15685 0.85288,-0.29076 1.3038,-0.39928 -0.61105,0.1608 -1.0522,0.30749 -1.3038,0.39928" style="fill:#62a331;fill-opacity:1;fill-rule:nonzero;stroke:none;stroke-width:0.326765" id="path21420"></path>
    <path d="m 298.12393,229.35069 -0.24832,0.0971 0.24832,-0.0971" style="fill:#62a331;fill-opacity:1;fill-rule:nonzero;stroke:none;stroke-width:0.326765" id="path21422"></path>
    <path d="m 327.61122,235.71251 -0.82021,0.75445 -0.18627,-0.2055 c 0,0 -0.8038,-0.4506 -2.16316,-1.13093 -4.88188,0.0726 -9.48599,5.18216 -9.48599,5.18216 2.95067,-4.51848 6.0027,-5.78601 7.50249,-6.14217 l -0.39863,-0.18627 c -4.50607,0.68559 -11.72429,8.57105 -11.72429,8.57105 4.48977,-7.02909 8.11029,-8.84294 10.07417,-9.31636 l -0.61765,-0.26829 c -1.51616,0.39207 -4.56483,1.72826 -9.56109,6.15001 0,0 3.48654,-5.98269 8.05473,-6.78036 l -0.74827,-0.29996 c -1.72858,0.28949 -4.8786,1.55829 -9.53502,6.20458 0,0 3.98988,-5.54221 8.09727,-6.75749 l -0.085,-0.0294 c -1.85596,0.32671 -7.12999,1.76417 -11.20147,7.73776 l -0.0359,-0.34572 c 0,0 3.3395,-6.31335 9.27361,-8.08511 l -0.0719,-0.0255 c -7.47966,1.9044 -11.1525,8.86742 -11.1525,8.86742 2.35599,-6.56731 7.64303,-8.79196 9.51212,-9.38699 -0.43462,-0.13399 -0.87245,-0.25912 -1.31357,-0.37899 -4.21859,1.4436 -8.0319,6.86858 -8.0319,6.86858 1.50968,-4.14341 4.05839,-6.03634 5.66938,-6.85951 -5.32302,1.40285 -8.16588,5.3825 -8.16588,5.3825 2.47688,-4.65642 6.03863,-5.78471 7.74107,-6.05927 -0.31369,-0.061 -0.6241,-0.11981 -0.93451,-0.17604 -6.03215,1.63382 -12.05438,8.13742 -12.05438,8.13742 2.72845,-4.90929 8.15933,-7.38554 10.7636,-8.33251 -0.59792,-0.0817 -1.19267,-0.14051 -1.77754,-0.17741 -1.92144,0.68908 -6.13015,2.47749 -8.93381,5.71183 1.35611,-1.6237 4.29048,-4.68577 7.84891,-5.75402 -1.31367,-0.0193 -2.56836,0.0918 -3.72187,0.36893 3.88849,-1.02245 14.70445,-2.54158 28.18349,6.7611" style="fill:#62a331;fill-opacity:1;fill-rule:nonzero;stroke:none;stroke-width:0.326765" id="path21424"></path>
    <path d="m 295.30069,234.3365 c -0.39861,0.48133 -0.66333,0.83358 -0.7679,0.97409 0.2418,-0.33722 0.49672,-0.66005 0.7679,-0.97409" style="fill:#62a331;fill-opacity:1;fill-rule:nonzero;stroke:none;stroke-width:0.326765" id="path21426"></path>
    <path d="m 294.53279,235.31059 -0.049,0.0687 0.049,-0.0687" style="fill:#62a331;fill-opacity:1;fill-rule:nonzero;stroke:none;stroke-width:0.326765" id="path21428"></path>
    <path d="m 333.3459,205.61065 c 0.0719,0.47085 0.11441,0.96096 0.13727,1.46152 -0.049,-0.6767 -0.098,-1.17697 -0.13727,-1.46152" style="fill:#55792a;fill-opacity:1;fill-rule:nonzero;stroke:none;stroke-width:0.326765" id="path21430"></path>
    <path d="m 333.3459,205.61065 -0.0457,-0.27718 0.0457,0.27718" style="fill:#55792a;fill-opacity:1;fill-rule:nonzero;stroke:none;stroke-width:0.326765" id="path21432"></path>
    <path d="m 325.20294,234.62108 -0.70252,-0.86525 0.26466,-0.20945 c 0.003,-0.004 0.64703,-0.88325 1.89522,-2.54254 2.66968,-6.62982 -5.21187,-9.33831 -5.17592,-9.36512 6.60718,1.59166 7.46005,4.87599 6.97971,6.92711 l 0.35617,-0.49019 c 1.95735,-6.23792 -11.94979,-9.27322 -11.04138,-9.92674 4.34922,1.75757 8.32269,2.55796 10.2604,3.88168 2.08809,1.21652 2.13702,2.95752 2.15988,4.06161 l 0.4771,-0.72112 c 0.3006,-1.96843 -1.27762,-4.78158 -9.08731,-7.38558 -0.51301,0.36894 10.08394,0.74539 10.11336,5.70167 l 0.44111,-0.79626 c 0.26473,-2.06286 -2.34286,-4.18031 -10.1624,-6.62742 -0.52606,0.37938 9.44679,1.33646 10.86171,5.18636 l 0.0359,-0.0855 c -0.19935,-0.86921 -0.82673,-2.46351 -3.14021,-3.65717 -2.17297,-1.29664 -6.03536,-2.1952 -9.35207,-4.08062 l 0.366,-0.0269 c -0.003,0.004 1.65019,0.83982 4.55839,1.65675 2.7644,0.92181 6.77711,1.824 8.20504,4.32082 l 0.0164,-0.0625 c -1.73838,-3.06207 -6.37194,-4.11783 -9.14618,-5.43373 -3.0062,-1.15019 -4.14663,-2.56183 -4.19238,-2.5298 2.80695,1.66289 6.51895,2.53241 9.02854,3.62747 2.61087,1.01974 4.01919,2.26445 4.58769,2.97674 0.0491,-0.346 0.0785,-0.68682 0.0916,-1.02242 -3.28726,-2.78793 -11.29627,-4.89525 -10.73098,-5.30373 4.93085,1.12476 8.58739,2.40503 9.9761,3.58168 -3.70554,-3.50386 -8.09067,-6.16246 -7.91097,-6.29412 5.17268,2.27457 7.83587,4.64005 8.5907,5.92783 l -0.0686,-0.70192 c -1.7907,-2.22624 -4.81651,-4.51362 -6.2902,-7.0333 -1.64366,-2.39451 -1.7417,-5.02789 -1.67305,-5.07361 1.99323,4.98574 6.30982,8.99481 7.86522,11.09987 -0.0425,-0.47745 -0.0817,-0.97021 -0.1046,-1.48093 -1.13379,-1.55472 -3.11401,-5.53829 -5.50923,-9.01544 1.16329,1.72593 4.14345,4.77142 5.47332,8.03906 -0.0327,-1.21525 0.0131,-2.53241 -0.036,-3.80619 0.42485,0.81696 0.0523,2.64587 0.36921,4.21862 0.20264,1.65273 1.09143,3.04807 1.40187,4.89356 0.31694,1.84072 0.0621,4.12803 -1.83966,7.4313 -1.77437,3.20918 -5.19236,7.43391 -8.21165,11.00543" style="fill:#acdd6a;fill-opacity:1;fill-rule:nonzero;stroke:none;stroke-width:0.326765" id="path21434"></path>
    <path d="m 328.0458,202.8393 c -0.33976,-0.50522 -0.53911,-0.89211 -0.61757,-1.04532 0.18951,0.3562 0.40192,0.70354 0.61757,1.04532" style="fill:#55792a;fill-opacity:1;fill-rule:nonzero;stroke:none;stroke-width:0.326765" id="path21436"></path>
    <path d="m 327.42823,201.79398 -0.0359,-0.0716 0.0359,0.0716" style="fill:#55792a;fill-opacity:1;fill-rule:nonzero;stroke:none;stroke-width:0.326765" id="path21438"></path>
    <path d="m 313.90343,229.76838 -0.0196,0.01 0.0196,-0.01" style="fill:#72c32d;fill-opacity:1;fill-rule:nonzero;stroke:none;stroke-width:0.326765" id="path21440"></path>
    <path d="m 319.91262,215.69815 c -3.84927,-2.51971 -7.7966,-3.26111 -10.44339,-3.77056 0.83647,0.21178 1.6861,0.46338 2.53898,0.77347 -4.88509,-0.53848 -9.48923,0.38297 -11.60018,0.82084 4.2545,-0.84247 10.10034,-0.57838 12.83532,-0.3369 0.6568,0.27809 1.30704,0.58593 1.94427,0.92537 -3.81007,-0.32441 -11.32569,-0.63458 -16.58328,1.58778 -0.17649,0.16733 9.4402,-1.97337 17.91653,-0.81692 0.31041,0.19677 0.62082,0.39839 0.92138,0.60748 -2.13377,-0.61133 -7.0352,-1.1986 -12.783,1.50375 -0.013,0.0382 5.6334,-2.01941 12.72095,-0.67642 -2.45727,-0.0729 -6.6366,0.35585 -11.44002,3.28666 -0.0425,0.0359 8.20505,-2.97036 13.99533,-2.03581 0.35945,0.3562 0.70256,0.72608 1.02606,1.1055 -2.4377,-0.56956 -9.91084,-1.24605 -17.62245,3.48586 -0.0882,0.098 9.51212,-4.60406 18.75627,-2.00275 l 0.0491,0.069 c -7.48295,-1.87657 -16.36445,2.35864 -16.30233,2.29619 l -0.27121,0.33948 c 9.1821,-3.38127 15.90689,-1.70794 17.68775,-0.71233 l 0.0425,0.0895 c -4.7838,-1.53938 -13.87764,1.51881 -13.81231,1.48943 8.75729,-1.75112 12.86472,-0.915 14.44954,0.0128 l 0.27125,0.81071 c -4.33952,-2.42136 -13.50854,1.30705 -13.41043,1.26743 8.84224,-1.23183 12.47906,-0.31658 13.8254,0.40855 l 0.12093,0.70968 c -1.61096,-1.03032 -6.30333,-1.78706 -17.04407,2.11748 -0.0686,-0.0356 14.32535,-3.08765 17.21069,-0.19021 l 0.007,0.47349 c -1.00323,-0.82966 -4.26427,-1.85212 -11.01528,0.4317 0.46722,-0.11123 9.1331,-1.68261 10.84535,1.9667 -0.23855,1.66328 -0.59475,2.68047 -0.58494,2.68047 l -0.16994,0.32315 0.82346,-0.013 c 4.37539,-9.77089 -0.17318,-15.88107 -4.90474,-19.0275" style="fill:#72c32d;fill-opacity:1;fill-rule:nonzero;stroke:none;stroke-width:0.326765" id="path21442"></path>
    <path d="m 300.40803,213.5219 c -0.31366,0.065 -0.62082,0.14048 -0.92802,0.22222 0.22549,-0.0549 0.53918,-0.13434 0.92802,-0.22222" style="fill:#72c32d;fill-opacity:1;fill-rule:nonzero;stroke:none;stroke-width:0.326765" id="path21444"></path>
    <path d="m 299.48001,213.74412 -0.30385,0.0817 0.30385,-0.0817" style="fill:#72c32d;fill-opacity:1;fill-rule:nonzero;stroke:none;stroke-width:0.326765" id="path21446"></path>
    <path d="m 299.17616,213.82586 -0.0817,0.0267 0.0817,-0.0267" style="fill:#72c32d;fill-opacity:1;fill-rule:nonzero;stroke:none;stroke-width:0.326765" id="path21448"></path>
    <path d="m 308.47584,208.1927 c 0.40845,0.17875 0.81368,0.3882 1.21236,0.62674 -0.55224,-0.31404 -0.97049,-0.51565 -1.21236,-0.62674" style="fill:#62a331;fill-opacity:1;fill-rule:nonzero;stroke:none;stroke-width:0.326765" id="path21450"></path>
    <path d="m 308.47584,208.1927 -0.24504,-0.10456 0.24504,0.10456" style="fill:#62a331;fill-opacity:1;fill-rule:nonzero;stroke:none;stroke-width:0.326765" id="path21452"></path>
    <path d="m 325.08208,233.37677 -1.11432,-0.0372 0.01,-0.27676 c 0,0 -0.25816,-0.88229 -0.75483,-2.32071 -3.53561,-3.36599 -10.40099,-2.93698 -10.40099,-2.93698 5.27075,-1.16427 8.33907,0.065 9.65924,0.86268 l -0.15357,-0.41204 c -3.69898,-2.66284 -14.37442,-2.08443 -14.37442,-2.08443 8.1299,-1.87893 11.98248,-0.64082 13.71762,0.39829 l -0.25488,-0.62667 c -1.35608,-0.77876 -4.47016,-1.95838 -11.13293,-2.29786 0,0 6.67911,-1.83282 10.49899,0.79403 l -0.3235,-0.7391 c -1.43775,-0.99931 -4.57472,-2.30011 -11.15251,-2.2413 0,0 6.72811,-1.16657 10.51208,0.8437 l -0.0392,-0.0817 c -1.55868,-1.06595 -6.32944,-3.73228 -13.41695,-2.31426 l 0.21561,-0.27442 c 0,0 6.80657,-2.17001 12.28313,0.71861 l -0.0327,-0.0677 c -6.67579,-3.87512 -14.17179,-1.47404 -14.17179,-1.47404 6.27712,-3.04183 11.60995,-0.92802 13.36463,-0.046 -0.21889,-0.39836 -0.44439,-0.7941 -0.67638,-1.18974 -4.02251,-1.92109 -10.54142,-0.7147 -10.54142,-0.7147 3.97676,-1.9057 7.1235,-1.47436 8.84883,-0.93189 -4.78384,-2.72521 -9.59711,-1.87502 -9.59711,-1.87502 5.02888,-1.59166 8.36193,0.0984 9.76704,1.094 l -0.54574,-0.77992 c -5.45042,-3.05597 -14.29925,-2.62823 -14.29925,-2.62823 5.37855,-1.59424 10.99569,0.43787 13.51827,1.58517 -0.37254,-0.47713 -0.75481,-0.93422 -1.14692,-1.37213 -1.85279,-0.84987 -6.11053,-2.51964 -10.38133,-2.1736 2.10763,-0.20952 6.34576,-0.34343 9.63626,1.38613 -0.9247,-0.93419 -1.8985,-1.73217 -2.91468,-2.34354 3.48978,1.99394 12.27649,8.47923 15.39388,24.55733" style="fill:#62a331;fill-opacity:1;fill-rule:nonzero;stroke:none;stroke-width:0.326765" id="path21454"></path>
    <path d="m 302.96662,209.77685 c -0.61761,0.0624 -1.05544,0.13134 -1.22869,0.16072 0.40848,-0.0751 0.82021,-0.12767 1.22869,-0.16072" style="fill:#62a331;fill-opacity:1;fill-rule:nonzero;stroke:none;stroke-width:0.326765" id="path21456"></path>
    <path d="m 301.73793,209.93757 -0.0817,0.0128 0.0817,-0.0128" style="fill:#62a331;fill-opacity:1;fill-rule:nonzero;stroke:none;stroke-width:0.326765" id="path21458"></path>
    <path d="m 319.45189,219.53768 -0.0196,-0.0102 0.0196,0.0102" style="fill:#72c32d;fill-opacity:1;fill-rule:nonzero;stroke:none;stroke-width:0.326765" id="path21460"></path>
    <path d="m 333.59101,213.69148 c -0.98351,-4.49298 -3.28401,-7.78612 -4.81654,-9.998 0.44771,0.73522 0.87908,1.50865 1.27116,2.32558 -3.11083,-3.80386 -7.04504,-6.36799 -8.8586,-7.5323 3.62705,2.37695 7.61689,6.65653 9.40103,8.7449 0.27446,0.65747 0.52606,1.33251 0.74168,2.01941 -2.49322,-2.89507 -7.64621,-8.38116 -12.95612,-10.47313 -0.24183,-0.002 8.12659,5.19885 13.36792,11.95635 0.0882,0.35976 0.16333,0.71984 0.23202,1.08221 -1.09474,-1.93117 -4.18264,-5.78471 -10.17873,-7.87798 -0.0392,0.019 5.43408,2.50168 9.55784,8.42306 -1.70568,-1.77049 -4.993,-4.39074 -10.46953,-5.65961 -0.0588,-0.002 7.93384,3.62119 11.41716,8.34266 0.01,0.50677 -0.003,1.00969 -0.0392,1.50605 -1.34627,-2.11353 -6.20857,-7.82571 -15.02791,-9.84247 -0.13067,0.008 10.01865,3.36991 14.79917,11.6985 l -0.0131,0.0791 c -4.03222,-6.57479 -13.33853,-9.76701 -13.25027,-9.76701 l -0.43138,0.0523 c 8.92398,4.01168 12.55762,9.91401 13.12948,11.87069 l -0.0295,0.0919 c -2.34287,-4.44694 -10.97602,-8.62594 -10.91065,-8.60051 7.48291,4.87867 9.83242,8.34919 10.31269,10.11961 l -0.37247,0.76824 c -1.40511,-4.76098 -10.56432,-8.5188 -10.46628,-8.47919 7.17903,5.30994 9.13307,8.50854 9.58727,9.96894 l -0.40841,0.59207 c -0.43138,-1.86359 -3.25459,-5.68901 -13.65557,-10.41827 -0.0229,-0.0751 12.39093,7.81946 12.42356,11.91193 l -0.32674,0.34177 c -0.13723,-1.29657 -1.74816,-4.30904 -8.1691,-7.40054 0.41169,0.245 7.70184,5.18869 6.37191,8.99615 -1.33971,1.01851 -2.30371,1.49585 -2.29715,1.50245 l -0.34636,0.11465 0.59468,0.56568 c 9.96636,-3.91499 10.99241,-11.4662 9.81604,-17.02513" style="fill:#72c32d;fill-opacity:1;fill-rule:nonzero;stroke:none;stroke-width:0.326765" id="path21462"></path>
    <path d="m 321.18703,198.48676 -0.82021,-0.49012 c 0.19932,0.11508 0.48038,0.28202 0.82021,0.49012" style="fill:#72c32d;fill-opacity:1;fill-rule:nonzero;stroke:none;stroke-width:0.326765" id="path21464"></path>
    <path d="m 320.36682,197.99664 -0.2745,-0.15324 0.2745,0.15324" style="fill:#72c32d;fill-opacity:1;fill-rule:nonzero;stroke:none;stroke-width:0.326765" id="path21466"></path>
    <path d="m 320.09232,197.8434 -0.0718,-0.0395 0.0718,0.0395" style="fill:#72c32d;fill-opacity:1;fill-rule:nonzero;stroke:none;stroke-width:0.326765" id="path21468"></path>
    <path d="m 324.34679,234.91844 c 0,0 5.47338,0.0588 11.77995,1.11693 1.47042,1.22929 5.40135,5.16707 5.97324,12.50269 l 0.20584,-0.28727 c 0,0 0.24511,-7.26397 -4.09762,-11.83248 l 0.0784,0.0128 c 5.64003,5.4671 5.3557,13.47283 5.3557,13.47283 1.24502,-6.98983 -2.29712,-11.62565 -3.64674,-13.09998 0.45424,0.10453 0.90188,0.21174 1.35287,0.33066 2.99318,3.4078 3.614,10.1297 3.614,10.1297 0.76461,-4.42179 -0.5261,-7.38558 -1.53254,-8.92493 3.98984,3.93132 4.48645,8.88146 4.48645,8.88146 0.16993,-5.36486 -2.40496,-8.16292 -3.7676,-9.26313 0.3072,0.10097 0.61112,0.20948 0.91172,0.31665 4.49958,4.49302 6.52226,13.28234 6.52226,13.28234 0.0784,-5.71052 -3.46371,-10.64924 -5.2838,-12.80492 0.57182,0.23495 1.12403,0.48355 1.65997,0.74404 1.34955,1.58281 4.1662,5.3037 4.99946,9.58854 -0.3725,-2.11124 -1.40836,-6.32093 -4.01264,-9.07158 0.50976,0.28455 0.99991,0.58456 1.46064,0.90248 0.99332,1.37209 3.35252,4.96027 3.30362,7.96618 0,0 0.62407,-3.93386 -2.3985,-7.29365 l 0.72546,0.63067 c -0.27129,-0.26801 -0.59144,-0.5654 -0.96397,-0.88855 -0.32681,-0.34081 -0.68947,-0.66985 -1.09795,-0.99038 l 0.17325,0.22606 c -4.07808,-3.20912 -12.49557,-7.80673 -26.41247,-6.64376 l 0.33983,1.08094 0.27118,-0.0843" style="fill:#6baf2f;fill-opacity:1;fill-rule:nonzero;stroke:none;stroke-width:0.326765" id="path21470"></path>
    <path d="m 324.6017,237.27736 c 0,0 3.95062,-3.78714 9.19516,-7.44661 1.91159,-0.15328 7.47317,-0.0918 13.01506,4.74818 l -0.0556,-0.34964 c 0,0 -4.90471,-5.36219 -11.20472,-5.5844 l 0.0654,-0.0434 c 7.85213,-0.0422 13.25679,5.8729 13.25679,5.8729 -4.00608,-5.86246 -9.78331,-6.69868 -11.77654,-6.80716 0.39533,-0.23883 0.794,-0.47608 1.19592,-0.7058 4.52572,0.33693 9.67218,4.70214 9.67218,4.70214 -2.54871,-3.69503 -5.54186,-4.90376 -7.33912,-5.29943 5.59753,0.0127 9.42069,3.20223 9.42069,3.20223 -3.63362,-3.95023 -7.43391,-4.14694 -9.17551,-3.97704 l 0.87242,-0.41497 c 6.35886,0.0624 13.95614,4.92079 13.95614,4.92079 -3.94406,-4.13329 -9.93041,-5.1786 -12.73733,-5.44657 0.57186,-0.23231 1.14043,-0.44175 1.70568,-0.62802 2.07173,0.18627 6.68892,0.86918 10.28334,3.3467 -1.74495,-1.2482 -5.43081,-3.5294 -9.21805,-3.66991 0.56532,-0.1529 1.12409,-0.28064 1.67629,-0.37899 1.66981,0.28723 5.86546,1.19856 7.93387,3.37876 0,0 -2.30696,-3.24478 -6.8163,-3.53169 0.32349,-0.0333 0.64047,-0.05 0.95737,-0.0562 -0.37899,0 -0.81686,0.0101 -1.31029,0.0395 -0.47054,-0.0127 -0.96065,0.002 -1.47698,0.0611 l 0.28103,0.0395 c -5.15635,0.56169 -14.38748,3.1732 -23.51077,13.74475 l 0.99991,0.53227 0.13398,-0.24902" style="fill:#6baf2f;fill-opacity:1;fill-rule:nonzero;stroke:none;stroke-width:0.326765" id="path21472"></path>
    <path d="m 351.04021,220.04702 c -0.27446,0.38527 -0.58815,0.76433 -0.92145,1.13722 0.4379,-0.5157 0.75484,-0.90742 0.92145,-1.13722" style="fill:#55792a;fill-opacity:1;fill-rule:nonzero;stroke:none;stroke-width:0.326765" id="path21474"></path>
    <path d="m 351.04021,220.04702 0.16669,-0.231 -0.16669,0.231" style="fill:#55792a;fill-opacity:1;fill-rule:nonzero;stroke:none;stroke-width:0.326765" id="path21476"></path>
    <path d="m 324.92196,235.06287 c 0.0392,-0.36629 0.0719,-0.73516 0.10128,-1.10804 l 0.33983,0.0356 c 0.003,0 1.07509,-0.1761 3.13044,-0.49011 6.54834,-2.86279 2.81665,-10.316 2.86241,-10.30947 3.60094,5.76057 1.91159,8.70144 0.13398,9.83241 l 0.59471,-0.101 c 5.76743,-3.08501 -2.04226,-14.98512 -0.93454,-14.81554 1.87244,4.29662 4.15322,7.6496 4.60739,9.95232 0.64043,2.33077 -0.54244,3.60849 -1.29727,4.41131 l 0.8431,-0.18235 c 1.59455,-1.19236 2.43441,-4.30675 -1.3202,-11.63218 -0.6241,-0.0957 6.68235,7.58948 3.23497,11.15222 0.29408,-0.0857 0.58498,-0.16997 0.86925,-0.26172 1.63378,-1.28782 1.25479,-4.62704 -2.6174,-11.84529 -0.64044,-0.0983 5.80986,7.56398 4.12704,11.30282 l 0.0849,-0.0334 c 0.46732,-0.7607 1.13389,-2.33959 0.31697,-4.81193 -0.64372,-2.44453 -2.771,-5.79123 -3.82316,-9.45719 l 0.28102,0.23491 c -0.007,0 0.59143,1.75507 2.09462,4.37568 1.32987,2.59091 3.565,6.04517 2.83951,8.82625 l 0.0556,-0.0329 c 0.8986,-3.40159 -1.67308,-7.39835 -2.7318,-10.28034 -1.33975,-2.92431 -1.16978,-4.73424 -1.22213,-4.74077 0.83982,3.15299 2.88205,6.37191 3.90814,8.90697 1.15023,2.55531 1.28746,4.4316 1.19267,5.33936 l 0.78098,-0.66629 c -0.39536,-4.29016 -4.64009,-11.40382 -3.95058,-11.29887 2.73501,4.25415 4.44722,7.72732 4.61715,9.54123 -0.19603,-5.09429 -1.46388,-10.06867 -1.24495,-10.03141 2.10436,5.2433 2.34943,8.79591 1.98671,10.2471 l 0.44446,-0.55263 c 0.27774,-2.84282 -0.2843,-6.59014 0.42803,-9.42389 0.5032,-2.86311 2.27753,-4.80964 2.35927,-4.79687 -2.06844,4.95632 -1.79395,10.842 -2.15339,13.4329 0.30388,-0.3725 0.62089,-0.74792 0.96072,-1.1309 0.27767,-1.90175 1.6534,-6.133 2.37553,-10.2931 -0.37578,2.04625 -0.37906,6.30431 -1.71877,9.57199 0.82998,-0.89207 1.78418,-1.79723 2.64023,-2.74549 -0.26794,0.88194 -1.81356,1.92856 -2.68923,3.27413 -1.01303,1.32111 -1.35608,2.94093 -2.4246,4.4777 -1.06197,1.53543 -2.84615,2.98919 -6.5157,4.0156 -3.51272,1.05184 -8.91092,1.67597 -13.56727,2.1112" style="fill:#acdd6a;fill-opacity:1;fill-rule:nonzero;stroke:none;stroke-width:0.326765" id="path21478"></path>
    <path d="m 349.1973,214.35774 c 0.11113,-0.60089 0.23859,-1.01586 0.29083,-1.1793 -0.11437,0.38922 -0.20588,0.78129 -0.29083,1.1793" style="fill:#55792a;fill-opacity:1;fill-rule:nonzero;stroke:none;stroke-width:0.326765" id="path21480"></path>
    <path d="m 349.48813,213.17844 0.0228,-0.0777 -0.0228,0.0777" style="fill:#55792a;fill-opacity:1;fill-rule:nonzero;stroke:none;stroke-width:0.326765" id="path21482"></path>
  </g>
</svg>