<?xml version="1.0" encoding="UTF-8" standalone="no"?>
<svg
   xmlns:dc="http://purl.org/dc/elements/1.1/"
   xmlns:cc="http://creativecommons.org/ns#"
   xmlns:rdf="http://www.w3.org/1999/02/22-rdf-syntax-ns#"
   xmlns:svg="http://www.w3.org/2000/svg"
   xmlns="http://www.w3.org/2000/svg"
   xmlns:sodipodi="http://sodipodi.sourceforge.net/DTD/sodipodi-0.dtd"
   xmlns:inkscape="http://www.inkscape.org/namespaces/inkscape"
   width="153.59505mm"
   height="78.676834mm"
   viewBox="0 0 153.59505 78.676834"
   version="1.1"
   id="svg47704"
   inkscape:version="1.0.2 (e86c870879, 2021-01-15, custom)"
   sodipodi:docname="sofa-2p.svg">
  <defs
     id="defs47698" />
  <sodipodi:namedview
     id="base"
     pagecolor="#ffffff"
     bordercolor="#666666"
     borderopacity="1.0"
     inkscape:pageopacity="0.0"
     inkscape:pageshadow="2"
     inkscape:zoom="0.35"
     inkscape:cx="233.11539"
     inkscape:cy="445.82347"
     inkscape:document-units="mm"
     inkscape:current-layer="layer1"
     inkscape:document-rotation="0"
     showgrid="false"
     inkscape:window-width="1267"
     inkscape:window-height="1030"
     inkscape:window-x="91"
     inkscape:window-y="0"
     inkscape:window-maximized="0" />
  <metadata
     id="metadata47701">
    <rdf:RDF>
      <cc:Work
         rdf:about="">
        <dc:format>image/svg+xml</dc:format>
        <dc:type
           rdf:resource="http://purl.org/dc/dcmitype/StillImage" />
        <dc:title></dc:title>
      </cc:Work>
    </rdf:RDF>
  </metadata>
  <g
     inkscape:label="Layer 1"
     inkscape:groupmode="layer"
     id="layer1"
     transform="translate(-44.154885,-30.209208)">
    <path
       d="m 125.35514,71.023794 c -7.31622,0 -13.42347,-5.130204 -14.94292,-11.985732 -0.5,-1.516189 -0.78095,-3.127142 -0.78095,-4.809973 0,-8.459947 6.8555,-15.315474 15.31539,-15.315474 7.31309,0 13.4203,5.130207 14.93972,11.989001 0.50324,1.512923 0.78429,3.127139 0.78429,4.809974 0,8.456677 -6.85884,15.312204 -15.31553,15.312204"
       style="fill:#949183;fill-opacity:1;fill-rule:nonzero;stroke:none;stroke-width:0.326765"
       id="path38" />
    <path
       d="m 137.40624,51.512666 c 0,8.459944 -6.85877,15.315468 -15.31546,15.315468 -8.45992,0 -15.31549,-6.855524 -15.31549,-15.315468 0,-8.456676 6.85557,-15.312197 15.31549,-15.312197 8.45669,0 15.31546,6.855521 15.31546,15.312197"
       style="fill:#947549;fill-opacity:1;fill-rule:nonzero;stroke:none;stroke-width:0.326765"
       id="path846" />
    <path
       d="m 136.99783,50.029151 c 0,8.459943 -6.85884,15.315467 -15.31549,15.315467 -8.45997,0 -15.3155,-6.855524 -15.3155,-15.315467 0,-8.456669 6.85553,-15.312193 15.3155,-15.312193 8.45665,0 15.31549,6.855524 15.31549,15.312193"
       style="fill:#bf905a;fill-opacity:1;fill-rule:nonzero;stroke:none;stroke-width:0.326765"
       id="path848" />
    <path
       d="m 174.58881,107.19993 c -8.97294,0 -16.24676,-4.83611 -16.24676,-10.802847 l 0.036,-0.480345 -0.036,-0.362702 v -1.320133 -8.63967 l 0.036,-0.362698 V 67.72347 c -0.24508,0.294089 -0.50652,0.545694 -0.78098,0.712346 l -3.20883,1.963858 -0.52942,0.323497 c -0.28095,0.173186 -0.55216,0.254878 -0.79724,0.254878 -0.83979,0 -1.43774,-0.928013 -1.43774,-2.431129 V 38.340776 c 0,-1.499849 0.59795,-2.414796 1.43121,-2.414796 0.21238,0 0.43456,0.05555 0.66993,0.176456 0.21234,-0.954155 1.24488,-1.617486 2.83623,-1.617486 h 36.05519 c 1.64367,0 2.68933,0.702546 2.85595,1.705716 l 0.0458,-0.02614 c 0.28106,-0.173189 0.54899,-0.251615 0.79731,-0.251615 0.83651,0 1.43447,0.924747 1.43447,2.427866 V 68.54692 c 0,1.503116 -0.59796,2.431129 -1.43447,2.431129 -0.24832,0 -0.51625,-0.08169 -0.79731,-0.254878 l -0.52935,-0.323497 -3.20883,-1.963858 c -0.33983,-0.205863 -0.65352,-0.529357 -0.9411,-0.918206 v 18.076623 3.640166 4.999504 1.320133 l -0.0392,0.362702 0.0392,0.480345 c 0,5.966737 -7.27703,10.802847 -16.25001,10.802847"
       style="fill:#949183;fill-opacity:1;fill-rule:nonzero;stroke:none;stroke-width:0.326765"
       id="path1414" />
    <path
       d="m 153.79348,55.40117 v -0.846321 l 0.036,0.362705 z"
       style="fill:#d3d2d2;fill-opacity:1;fill-rule:nonzero;stroke:none;stroke-width:0.326765"
       id="path1416" />
    <path
       d="m 186.29024,54.554849 v 0.846321 l -0.036,-0.483616 z"
       style="fill:#d3d2d2;fill-opacity:1;fill-rule:nonzero;stroke:none;stroke-width:0.326765"
       id="path1418" />
    <path
       d="m 153.82943,37.915982 v 43.119889 l -0.036,0.362702 v 9.956529 l 0.036,0.365975 -0.036,0.480342 c 0,5.966729 7.27706,10.802851 16.25004,10.802851 8.97297,0 16.24672,-4.836122 16.24672,-10.802851 l -0.036,-0.480342 0.036,-0.365975 V 85.038735 81.398573 37.915982 h -32.46081"
       style="fill:#ffffff;fill-opacity:1;fill-rule:nonzero;stroke:none;stroke-width:0.326765"
       id="path1420" />
    <path
       d="m 154.3261,45.941328 h 32.98046 V 41.869842 H 154.3261 v 4.071486"
       style="fill:#e5e4e4;fill-opacity:1;fill-rule:nonzero;stroke:none;stroke-width:0.326765"
       id="path1422" />
    <path
       d="m 170.04352,100.84109 c 8.97297,0 16.24672,-4.839397 16.24672,-10.802851 v 1.316863 l -0.036,0.365975 0.036,0.480342 c 0,5.966729 -7.27375,10.802851 -16.24672,10.802851 -8.97298,0 -16.25004,-4.836122 -16.25004,-10.802851 l 0.036,-0.480342 -0.036,-0.365975 v -1.316863 c 0,5.963454 7.27706,10.802851 16.25004,10.802851"
       style="fill:#e5e4e4;fill-opacity:1;fill-rule:nonzero;stroke:none;stroke-width:0.326765"
       id="path1424" />
    <path
       d="m 153.3131,43.588624 h 32.97714 V 40.853595 H 153.3131 v 2.735029"
       style="fill:#7b613d;fill-opacity:1;fill-rule:nonzero;stroke:none;stroke-width:0.326765"
       id="path1426" />
    <path
       d="m 190.96952,31.968857 c 1.22862,-0.751554 2.23506,0.228734 2.23506,2.176258 v 30.206144 c 0,1.947521 -1.00644,2.927813 -2.23506,2.176255 l -0.52931,-0.323501 V 32.292355 l 0.52931,-0.323498"
       style="fill:#bf905a;fill-opacity:1;fill-rule:nonzero;stroke:none;stroke-width:0.326765"
       id="path1428" />
    <path
       d="m 149.31027,31.968857 c -1.22858,-0.751554 -2.23181,0.228734 -2.23181,2.176258 v 30.206144 c 0,1.947521 1.00323,2.927813 2.23181,2.176255 l 0.53266,-0.323501 V 32.292355 l -0.53266,-0.323498"
       style="fill:#bf905a;fill-opacity:1;fill-rule:nonzero;stroke:none;stroke-width:0.326765"
       id="path1430" />
    <path
       d="m 187.23135,34.256219 3.20886,-1.963864 v 33.911658 l -3.20886,-1.963861 c -1.22862,-0.751551 -2.23182,-2.960483 -2.23182,-4.91127 V 39.164223 c 0,-1.947517 1.0032,-4.156446 2.23182,-4.908004"
       style="fill:#947549;fill-opacity:1;fill-rule:nonzero;stroke:none;stroke-width:0.326765"
       id="path1432" />
    <path
       d="m 153.0518,34.256219 -3.20887,-1.963864 v 33.911658 l 3.20887,-1.963861 c 1.22527,-0.751551 2.23174,-2.960483 2.23174,-4.91127 V 39.164223 c 0,-1.947517 -1.00647,-4.156446 -2.23174,-4.908004"
       style="fill:#947549;fill-opacity:1;fill-rule:nonzero;stroke:none;stroke-width:0.326765"
       id="path1434" />
    <path
       d="m 152.14661,38.540106 c 0.89859,1.699175 3.53557,3.087924 5.86218,3.087924 h 24.06943 c 2.32664,0 4.96358,-1.388749 5.85893,-3.087924 l 2.73177,-5.166156 c 0.89531,-1.695912 -0.27446,-3.084661 -2.60107,-3.084661 h -36.05198 c -2.3265,0 -3.49631,1.388749 -2.59775,3.084661 l 2.72849,5.166156"
       style="fill:#bf905a;fill-opacity:1;fill-rule:nonzero;stroke:none;stroke-width:0.326765"
       id="path1436" />
    <path
       d="m 81.411835,108.88603 c -6.698686,0 -12.185086,-3.00623 -13.188245,-7.71818 l -0.06533,-0.48034 -0.111161,-0.34638 -0.27439,-1.290717 -1.793981,-8.450136 -0.04247,-0.362708 -3.640173,-17.125747 c -0.176494,0.339838 -0.378989,0.637195 -0.614292,0.862658 l -2.728524,2.584708 -0.454202,0.428064 c -0.31369,0.297353 -0.637116,0.437868 -0.950842,0.437868 -0.735224,0 -1.401797,-0.767898 -1.686172,-2.101099 L 49.581682,45.777946 c -0.343182,-1.614227 0.166653,-2.689282 1.156723,-2.689282 0.133985,0 0.280988,0.02288 0.431342,0.06209 0.0098,-0.980288 0.882297,-1.83969 2.440905,-2.172984 l 35.26448,-7.495985 c 0.356164,-0.07516 0.689434,-0.111101 0.999949,-0.111101 1.084791,0 1.859244,0.447665 2.150039,1.186156 l 0.03919,-0.03594 c 0.31048,-0.297356 0.637293,-0.43786 0.950948,-0.43786 0.735259,0 1.401833,0.767891 1.686101,2.101088 L 100.9818,65.73021 c 0.34307,1.617487 -0.16669,2.702345 -1.156767,2.702345 -0.176459,0 -0.369287,-0.03594 -0.575133,-0.10783 L 98.661713,68.118862 95.116332,66.864084 C 94.743798,66.73338 94.368019,66.481768 94.005329,66.161538 l 3.757789,17.681251 0.758049,3.561733 1.039212,4.8884 0.274462,1.290722 0.03923,0.362712 0.137269,0.464005 c 1.23839,5.836019 -4.872147,12.077229 -13.649047,13.946319 -1.689312,0.35945 -3.35587,0.52936 -4.950461,0.52936"
       style="fill:#949183;fill-opacity:1;fill-rule:nonzero;stroke:none;stroke-width:0.326765"
       id="path1438" />
    <path
       d="m 55.251068,62.011619 -0.176459,-0.82671 0.11109,0.349638 z"
       style="fill:#d3d2d2;fill-opacity:1;fill-rule:nonzero;stroke:none;stroke-width:0.326765"
       id="path1440" />
    <path
       d="m 86.862288,54.427412 0.176459,0.82671 -0.13723,-0.464002 z"
       style="fill:#d3d2d2;fill-opacity:1;fill-rule:nonzero;stroke:none;stroke-width:0.326765"
       id="path1442" />
    <path
       d="m 51.650089,44.90221 8.966412,42.175539 0.04248,0.362712 2.068407,9.740854 0.111125,0.349642 0.06537,0.477076 c 1.241672,5.836017 9.361771,9.054657 18.138706,7.188827 8.776865,-1.86583 14.887399,-8.110304 13.649008,-13.946325 L 94.554325,90.78653 94.515132,90.423821 93.201493,84.244703 92.443409,80.682963 83.401784,38.15125 51.650089,44.90221"
       style="fill:#ffffff;fill-opacity:1;fill-rule:nonzero;stroke:none;stroke-width:0.326765"
       id="path1444" />
    <path
       d="m 53.806796,52.646537 32.258143,-6.855524 -0.846314,-3.983264 -32.258249,6.855531 0.84642,3.983257"
       style="fill:#e5e4e4;fill-opacity:1;fill-rule:nonzero;stroke:none;stroke-width:0.326765"
       id="path1446" />
    <path
       d="m 80.591662,103.07943 c 8.780146,-1.86583 14.890681,-8.11031 13.649009,-13.946327 l 0.274461,1.290718 0.03919,0.362709 0.137266,0.464005 c 1.238391,5.836021 -4.872143,12.080495 -13.649008,13.946325 -8.776935,1.86583 -16.897034,-1.35281 -18.138706,-7.188827 l -0.06537,-0.477076 -0.111125,-0.349642 -0.274462,-1.290711 c 1.241743,5.836016 9.361771,9.054646 18.138741,7.188826"
       style="fill:#e5e4e4;fill-opacity:1;fill-rule:nonzero;stroke:none;stroke-width:0.326765"
       id="path1448" />
    <path
       d="m 52.323224,50.558512 32.258214,-6.855528 -0.568537,-2.679474 -32.258249,6.858801 0.568572,2.676201"
       style="fill:#7b613d;fill-opacity:1;fill-rule:nonzero;stroke:none;stroke-width:0.326765"
       id="path1450" />
    <path
       d="m 86.744672,31.361078 c 1.042352,-0.990092 2.231742,-0.241805 2.636978,1.663231 l 6.280433,29.546079 c 0.405165,1.908305 -0.37585,3.074857 -1.731822,2.594515 l -0.588257,-0.205864 -7.051569,-33.169894 0.454237,-0.428067"
       style="fill:#bf905a;fill-opacity:1;fill-rule:nonzero;stroke:none;stroke-width:0.326765"
       id="path1452" />
    <path
       d="m 45.993791,40.023614 c -1.356113,-0.480342 -2.137022,0.686209 -1.731822,2.594512 l 6.280363,29.546079 c 0.405235,1.905035 1.59131,2.65333 2.637014,1.663231 l 0.454236,-0.428057 -7.05164,-33.169901 -0.588151,-0.205864"
       style="fill:#bf905a;fill-opacity:1;fill-rule:nonzero;stroke:none;stroke-width:0.326765"
       id="path1454" />
    <path
       d="m 83.56191,34.377116 2.728525,-2.587971 7.051569,33.169894 -3.545381,-1.254774 C 88.440545,63.227186 86.996237,61.273132 86.591037,59.368093 L 82.398696,39.641298 c -0.405236,-1.905039 0.117581,-4.274086 1.163214,-5.264182"
       style="fill:#947549;fill-opacity:1;fill-rule:nonzero;stroke:none;stroke-width:0.326765"
       id="path1456" />
    <path
       d="m 50.127324,41.484252 -3.545382,-1.254774 7.05164,33.169901 2.728454,-2.587978 c 1.045669,-0.990099 1.568486,-3.359144 1.163285,-5.26419 L 53.332945,45.82042 c -0.405236,-1.905032 -1.849543,-3.855826 -3.205621,-4.336168"
       style="fill:#947549;fill-opacity:1;fill-rule:nonzero;stroke:none;stroke-width:0.326765"
       id="path1458" />
    <path
       d="m 50.137201,45.862902 c 1.228549,1.473708 4.097585,2.284088 6.371838,1.800475 l 23.543438,-5.006033 c 2.274288,-0.483616 4.564944,-2.388655 5.091042,-4.234882 l 1.594591,-5.62035 c 0.526062,-1.846221 -0.905122,-2.963761 -3.182656,-2.480141 l -35.264445,7.499248 c -2.274323,0.483612 -3.130444,2.084758 -1.898544,3.55847 l 3.744736,4.483213"
       style="fill:#bf905a;fill-opacity:1;fill-rule:nonzero;stroke:none;stroke-width:0.326765"
       id="path1460" />
  </g>
</svg>
