<?xml version="1.0" encoding="UTF-8" standalone="no"?>
<svg
   xmlns:dc="http://purl.org/dc/elements/1.1/"
   xmlns:cc="http://creativecommons.org/ns#"
   xmlns:rdf="http://www.w3.org/1999/02/22-rdf-syntax-ns#"
   xmlns:svg="http://www.w3.org/2000/svg"
   xmlns="http://www.w3.org/2000/svg"
   xmlns:sodipodi="http://sodipodi.sourceforge.net/DTD/sodipodi-0.dtd"
   xmlns:inkscape="http://www.inkscape.org/namespaces/inkscape"
   width="128.09935mm"
   height="124.08273mm"
   viewBox="0 0 128.09935 124.08273"
   version="1.1"
   id="svg27272"
   inkscape:version="1.0.2 (e86c870879, 2021-01-15, custom)"
   sodipodi:docname="sofa-10p.svg">
  <defs
     id="defs27266">
    <clipPath
       clipPathUnits="userSpaceOnUse"
       id="clipPath934">
      <path
         d="m 419.199,1062.96 v -34.02 c 0,-18.05 -4.652,-35.01 -12.816,-49.78 l -60.238,33.51 c 2.585,4.83 4.082,10.35 4.082,16.27 v 34.02 z"
         id="path932" />
    </clipPath>
    <linearGradient
       x1="0"
       y1="0"
       x2="1"
       y2="0"
       gradientUnits="userSpaceOnUse"
       gradientTransform="matrix(58.4701,0,0,-58.4701,349.535,1021.06)"
       spreadMethod="pad"
       id="linearGradient946">
      <stop
         style="stop-opacity:1;stop-color:#ffffff"
         offset="0"
         id="stop936" />
      <stop
         style="stop-opacity:1;stop-color:#ffffff"
         offset="0.0148148"
         id="stop938" />
      <stop
         style="stop-opacity:1;stop-color:#b9babb"
         offset="0.72963"
         id="stop940" />
      <stop
         style="stop-opacity:1;stop-color:#b0b0b3"
         offset="0.996296"
         id="stop942" />
      <stop
         style="stop-opacity:1;stop-color:#b0b0b3"
         offset="1"
         id="stop944" />
    </linearGradient>
    <clipPath
       clipPathUnits="userSpaceOnUse"
       id="clipPath956">
      <path
         d="m 419.199,1134.82 v -71.86 h -68.972 v 71.86 z"
         id="path954" />
    </clipPath>
    <linearGradient
       x1="0"
       y1="0"
       x2="1"
       y2="0"
       gradientUnits="userSpaceOnUse"
       gradientTransform="matrix(-68.0256,0,0,68.0256,422.344,1098.89)"
       spreadMethod="pad"
       id="linearGradient968">
      <stop
         style="stop-opacity:1;stop-color:#b0b0b3"
         offset="0"
         id="stop958" />
      <stop
         style="stop-opacity:1;stop-color:#b0b0b3"
         offset="0.0037037"
         id="stop960" />
      <stop
         style="stop-opacity:1;stop-color:#b9babb"
         offset="0.27037"
         id="stop962" />
      <stop
         style="stop-opacity:1;stop-color:#ffffff"
         offset="0.985185"
         id="stop964" />
      <stop
         style="stop-opacity:1;stop-color:#ffffff"
         offset="1"
         id="stop966" />
    </linearGradient>
    <clipPath
       clipPathUnits="userSpaceOnUse"
       id="clipPath978">
      <path
         d="m 419.199,1139.59 v -4.77 h -68.972 v 4.77 c 0,11.89 -6.039,22.41 -15.176,28.57 l 41.211,55.23 c 26.039,-18.79 42.937,-49.37 42.937,-83.8 z"
         id="path976" />
    </clipPath>
    <linearGradient
       x1="0"
       y1="0"
       x2="1"
       y2="0"
       gradientUnits="userSpaceOnUse"
       gradientTransform="matrix(-56.5227,-34.4884,-34.4884,56.5227,405.917,1184.1)"
       spreadMethod="pad"
       id="linearGradient990">
      <stop
         style="stop-opacity:1;stop-color:#b0b0b3"
         offset="0"
         id="stop980" />
      <stop
         style="stop-opacity:1;stop-color:#b0b0b3"
         offset="0.0037037"
         id="stop982" />
      <stop
         style="stop-opacity:1;stop-color:#b9babb"
         offset="0.27037"
         id="stop984" />
      <stop
         style="stop-opacity:1;stop-color:#ffffff"
         offset="0.985185"
         id="stop986" />
      <stop
         style="stop-opacity:1;stop-color:#ffffff"
         offset="1"
         id="stop988" />
    </linearGradient>
    <clipPath
       clipPathUnits="userSpaceOnUse"
       id="clipPath1000">
      <path
         d="m 346.145,1012.67 60.238,-33.51 c -16.094,-29.258 -45.985,-49.953 -80.875,-53.226 l -6.61,68.687 c 11.84,1.035 21.899,8.109 27.247,18.049 z"
         id="path998" />
    </clipPath>
    <linearGradient
       x1="0"
       y1="0"
       x2="1"
       y2="0"
       gradientUnits="userSpaceOnUse"
       gradientTransform="matrix(44.0685,-49.8166,-49.8166,-44.0685,331.528,991.452)"
       spreadMethod="pad"
       id="linearGradient1012">
      <stop
         style="stop-opacity:1;stop-color:#ffffff"
         offset="0"
         id="stop1002" />
      <stop
         style="stop-opacity:1;stop-color:#ffffff"
         offset="0.0148148"
         id="stop1004" />
      <stop
         style="stop-opacity:1;stop-color:#b9babb"
         offset="0.72963"
         id="stop1006" />
      <stop
         style="stop-opacity:1;stop-color:#b0b0b3"
         offset="0.996296"
         id="stop1008" />
      <stop
         style="stop-opacity:1;stop-color:#b0b0b3"
         offset="1"
         id="stop1010" />
    </linearGradient>
    <clipPath
       clipPathUnits="userSpaceOnUse"
       id="clipPath1022">
      <path
         d="m 376.262,1223.45 v -0.06 l -41.211,-55.23 c -5.52,3.73 -12.188,5.91 -19.317,5.91 h -23.679 v 68.98 h 23.679 c 22.59,0 43.516,-7.3 60.528,-19.6 z"
         id="path1020" />
    </clipPath>
    <linearGradient
       x1="0"
       y1="0"
       x2="1"
       y2="0"
       gradientUnits="userSpaceOnUse"
       gradientTransform="matrix(0,-73.4146,-73.4146,0,334.159,1241.62)"
       spreadMethod="pad"
       id="linearGradient1034">
      <stop
         style="stop-opacity:1;stop-color:#ffffff"
         offset="0"
         id="stop1024" />
      <stop
         style="stop-opacity:1;stop-color:#ffffff"
         offset="0.0148148"
         id="stop1026" />
      <stop
         style="stop-opacity:1;stop-color:#b9babb"
         offset="0.72963"
         id="stop1028" />
      <stop
         style="stop-opacity:1;stop-color:#b0b0b3"
         offset="0.996296"
         id="stop1030" />
      <stop
         style="stop-opacity:1;stop-color:#b0b0b3"
         offset="1"
         id="stop1032" />
    </linearGradient>
    <clipPath
       clipPathUnits="userSpaceOnUse"
       id="clipPath1044">
      <path
         d="m 318.898,994.621 6.61,-68.687 c -3.219,-0.289 -6.496,-0.461 -9.774,-0.461 h -63.398 v 68.976 h 63.398 c 1.094,0 2.129,0.059 3.164,0.172 z"
         id="path1042" />
    </clipPath>
    <linearGradient
       x1="0"
       y1="0"
       x2="1"
       y2="0"
       gradientUnits="userSpaceOnUse"
       gradientTransform="matrix(0,-64.7633,-64.7633,0,288.921,992.533)"
       spreadMethod="pad"
       id="linearGradient1056">
      <stop
         style="stop-opacity:1;stop-color:#ffffff"
         offset="0"
         id="stop1046" />
      <stop
         style="stop-opacity:1;stop-color:#ffffff"
         offset="0.0148148"
         id="stop1048" />
      <stop
         style="stop-opacity:1;stop-color:#b9babb"
         offset="0.72963"
         id="stop1050" />
      <stop
         style="stop-opacity:1;stop-color:#b0b0b3"
         offset="0.996296"
         id="stop1052" />
      <stop
         style="stop-opacity:1;stop-color:#b0b0b3"
         offset="1"
         id="stop1054" />
    </linearGradient>
    <clipPath
       clipPathUnits="userSpaceOnUse"
       id="clipPath1066">
      <path
         d="m 292.055,1243.05 v -68.98 h -72.539 v 68.98 z"
         id="path1064" />
    </clipPath>
    <linearGradient
       x1="0"
       y1="0"
       x2="1"
       y2="0"
       gradientUnits="userSpaceOnUse"
       gradientTransform="matrix(0,-73.4146,-73.4146,0,255.784,1241.62)"
       spreadMethod="pad"
       id="linearGradient1078">
      <stop
         style="stop-opacity:1;stop-color:#ffffff"
         offset="0"
         id="stop1068" />
      <stop
         style="stop-opacity:1;stop-color:#ffffff"
         offset="0.0148148"
         id="stop1070" />
      <stop
         style="stop-opacity:1;stop-color:#b9babb"
         offset="0.72963"
         id="stop1072" />
      <stop
         style="stop-opacity:1;stop-color:#b0b0b3"
         offset="0.996296"
         id="stop1074" />
      <stop
         style="stop-opacity:1;stop-color:#b0b0b3"
         offset="1"
         id="stop1076" />
    </linearGradient>
    <clipPath
       clipPathUnits="userSpaceOnUse"
       id="clipPath1088">
      <path
         d="m 252.336,994.449 v -68.976 h -71.621 c -2.817,6.148 -4.367,12.933 -4.367,20.117 0,26.957 21.898,48.859 48.855,48.859 z"
         id="path1086" />
    </clipPath>
    <linearGradient
       x1="0"
       y1="0"
       x2="1"
       y2="0"
       gradientUnits="userSpaceOnUse"
       gradientTransform="matrix(0,-71.1255,-71.1255,0,214.34,988.7)"
       spreadMethod="pad"
       id="linearGradient1100">
      <stop
         style="stop-opacity:1;stop-color:#ffffff"
         offset="0"
         id="stop1090" />
      <stop
         style="stop-opacity:1;stop-color:#ffffff"
         offset="0.0148148"
         id="stop1092" />
      <stop
         style="stop-opacity:1;stop-color:#b9babb"
         offset="0.72963"
         id="stop1094" />
      <stop
         style="stop-opacity:1;stop-color:#b0b0b3"
         offset="0.996296"
         id="stop1096" />
      <stop
         style="stop-opacity:1;stop-color:#b0b0b3"
         offset="1"
         id="stop1098" />
    </linearGradient>
    <clipPath
       clipPathUnits="userSpaceOnUse"
       id="clipPath1110">
      <path
         d="m 219.516,1243.05 v -68.98 h -68.981 v 68.98 z"
         id="path1108" />
    </clipPath>
    <linearGradient
       x1="0"
       y1="0"
       x2="1"
       y2="0"
       gradientUnits="userSpaceOnUse"
       gradientTransform="matrix(0,-73.4146,-73.4146,0,185.025,1241.62)"
       spreadMethod="pad"
       id="linearGradient1122">
      <stop
         style="stop-opacity:1;stop-color:#ffffff"
         offset="0"
         id="stop1112" />
      <stop
         style="stop-opacity:1;stop-color:#ffffff"
         offset="0.0148148"
         id="stop1114" />
      <stop
         style="stop-opacity:1;stop-color:#b9babb"
         offset="0.72963"
         id="stop1116" />
      <stop
         style="stop-opacity:1;stop-color:#b0b0b3"
         offset="0.996296"
         id="stop1118" />
      <stop
         style="stop-opacity:1;stop-color:#b0b0b3"
         offset="1"
         id="stop1120" />
    </linearGradient>
    <clipPath
       clipPathUnits="userSpaceOnUse"
       id="clipPath1132">
      <path
         d="m 150.535,1243.05 v -68.98 h -25.922 c -26.9567,0 -48.8591,21.91 -48.8591,48.86 0,7.19 1.5508,13.97 4.3672,20.12 z"
         id="path1130" />
    </clipPath>
    <linearGradient
       x1="0"
       y1="0"
       x2="1"
       y2="0"
       gradientUnits="userSpaceOnUse"
       gradientTransform="matrix(0,-73.4146,-73.4146,0,113.146,1241.62)"
       spreadMethod="pad"
       id="linearGradient1144">
      <stop
         style="stop-opacity:1;stop-color:#ffffff"
         offset="0"
         id="stop1134" />
      <stop
         style="stop-opacity:1;stop-color:#ffffff"
         offset="0.0148148"
         id="stop1136" />
      <stop
         style="stop-opacity:1;stop-color:#b9babb"
         offset="0.72963"
         id="stop1138" />
      <stop
         style="stop-opacity:1;stop-color:#b0b0b3"
         offset="0.996296"
         id="stop1140" />
      <stop
         style="stop-opacity:1;stop-color:#b0b0b3"
         offset="1"
         id="stop1142" />
    </linearGradient>
    <clipPath
       clipPathUnits="userSpaceOnUse"
       id="clipPath1176">
      <path
         d="m 315.746,982.953 c 25.359,0 45.988,20.627 45.988,45.987 v 110.65 c 0,25.35 -20.629,45.98 -45.988,45.98 H 124.625 93.1719 c 8.5041,-7.16 19.4651,-11.5 31.4531,-11.5 h 191.121 c 19.02,0 34.492,-15.46 34.492,-34.48 v -110.65 c 0,-19.02 -15.472,-34.491 -34.492,-34.491 h -90.531 c -11.985,0 -22.949,-4.332 -31.449,-11.496 h 31.449 z"
         id="path1174" />
    </clipPath>
    <linearGradient
       x1="0"
       y1="0"
       x2="1"
       y2="0"
       gradientUnits="userSpaceOnUse"
       gradientTransform="matrix(268.559,0,0,-268.559,93.1736,1084.26)"
       spreadMethod="pad"
       id="linearGradient1188">
      <stop
         style="stop-opacity:1;stop-color:#ffffff"
         offset="0"
         id="stop1178" />
      <stop
         style="stop-opacity:1;stop-color:#ffffff"
         offset="0.0148148"
         id="stop1180" />
      <stop
         style="stop-opacity:1;stop-color:#b9babb"
         offset="0.72963"
         id="stop1182" />
      <stop
         style="stop-opacity:1;stop-color:#b0b0b3"
         offset="0.996296"
         id="stop1184" />
      <stop
         style="stop-opacity:1;stop-color:#b0b0b3"
         offset="1"
         id="stop1186" />
    </linearGradient>
  </defs>
  <sodipodi:namedview
     id="base"
     pagecolor="#ffffff"
     bordercolor="#666666"
     borderopacity="1.0"
     inkscape:pageopacity="0.0"
     inkscape:pageshadow="2"
     inkscape:zoom="0.35"
     inkscape:cx="536.36324"
     inkscape:cy="177.34419"
     inkscape:document-units="mm"
     inkscape:current-layer="layer1"
     inkscape:document-rotation="0"
     showgrid="false"
     inkscape:window-width="1267"
     inkscape:window-height="1030"
     inkscape:window-x="91"
     inkscape:window-y="0"
     inkscape:window-maximized="0" />
  <metadata
     id="metadata27269">
    <rdf:RDF>
      <cc:Work
         rdf:about="">
        <dc:format>image/svg+xml</dc:format>
        <dc:type
           rdf:resource="http://purl.org/dc/dcmitype/StillImage" />
        <dc:title></dc:title>
      </cc:Work>
    </rdf:RDF>
  </metadata>
  <g
     inkscape:label="Layer 1"
     inkscape:groupmode="layer"
     id="layer1"
     transform="translate(36.07944,-101.24435)">
    <path
       d="m 21.656995,186.95802 -0.488837,-0.0229 -0.464661,0.0229 c -9.896077,0 -17.9184771,-8.02207 -17.9184771,-17.9165 0,-9.89772 8.0224001,-17.9198 17.9184771,-17.9198 l 0.464661,0.0229 0.488837,-0.0229 c 10.42347,0 18.871976,8.02208 18.871976,17.9198 0,9.89443 -8.448506,17.9165 -18.871976,17.9165"
       style="fill:#949183;fill-opacity:1;fill-rule:nonzero;stroke:none;stroke-width:0.326765"
       id="path358" />
    <path
       d="m 39.003634,164.84911 c 0,9.89445 -8.448503,17.91652 -18.871979,17.91652 -10.4218362,0 -18.8706669,-8.02207 -18.8706669,-17.91652 0,-9.8977 8.4488307,-17.91978 18.8706669,-17.91978 10.423476,0 18.871979,8.02208 18.871979,17.91978"
       style="fill:#211c1d;fill-opacity:1;fill-rule:nonzero;stroke:none;stroke-width:0.326765"
       id="path360" />
    <path
       d="m 37.097942,164.84911 c 0,9.89445 -8.022079,17.91652 -17.91848,17.91652 -9.8960704,0 -17.9184739,-8.02207 -17.9184739,-17.91652 0,-9.8977 8.0224035,-17.91978 17.9184739,-17.91978 9.896401,0 17.91848,8.02208 17.91848,17.91978"
       style="fill:#414042;fill-opacity:1;fill-rule:nonzero;stroke:none;stroke-width:0.326765"
       id="path362" />
    <path
       d="M 42.338922,225.32708 H 12.756574 c -5.8307929,0 -10.9338755,-3.14379 -13.71138327,-7.82699 l -0.008819,-0.0128 -0.44048193,-0.79141 H -1.781847 v -0.76334 c -0.1594627,-0.34835 -0.2898423,-0.71072 -0.4238132,-1.07082 l -0.050973,-0.12874 c -0.1712313,-0.47249 -0.3153305,-0.95611 -0.4417872,-1.44624 l -0.00131,-0.003 v 0 c -0.3215386,-1.25738 -0.5091003,-2.56574 -0.5091003,-3.92378 0,-4.89757 2.21579703,-9.27951 5.6942074,-12.20894 h -0.00265 l 0.016341,-0.0127 0.6881672,-0.53231 0.4633524,-0.34604 0.685546,-0.44276 0.5525664,-0.33591 0.6855531,-0.3624 0.6342416,-0.30617 0.680332,-0.28854 0.7159378,-0.26173 0.668888,-0.21698 0.8054729,-0.20815 0.6394838,-0.14542 c 0.3127091,-0.0614 0.6319591,-0.10358 0.9508841,-0.1454 l 0.545046,-0.0742 c 0.497984,-0.0474 1.000876,-0.0751 1.509977,-0.0765 l 0.03203,-0.001 h 0.0039 8.625936 0.234947 0.234946 20.482597 c 0.352252,0 0.686865,-0.0193 1.019831,-0.0562 l 0.0219,-10e-4 c 0.47087,-0.0422 0.934223,-0.11374 1.386131,-0.21174 l 0.119927,-0.0307 c 0.377737,-0.0869 0.745352,-0.19541 1.106752,-0.31926 l 0.349645,-0.12744 0.854156,-0.3676 0.345715,-0.16731 c 0.346047,-0.18136 0.682939,-0.37644 1.005788,-0.59112 l 0.08038,-0.0484 c 0.34736,-0.23494 0.678046,-0.49276 0.996968,-0.76333 l 0.256508,-0.23362 0.672804,-0.65974 0.246387,-0.26795 0.632947,-0.79404 0.150633,-0.19932 c 0.250303,-0.35945 0.482631,-0.72869 0.689472,-1.11428 0.197697,-0.36923 0.369905,-0.75156 0.527075,-1.14368 l 0.09443,-0.25487 c 0.116,-0.31368 0.220892,-0.6372 0.310102,-0.96396 l 0.08169,-0.31696 c 0.08169,-0.33657 0.145408,-0.68292 0.196709,-1.03259 l 0.03954,-0.25487 c 0.05229,-0.44112 0.0843,-0.89207 0.0843,-1.34953 v -11.11981 -23.47805 -1.55867 c 0,-0.45747 -0.03201,-0.9084 -0.08561,-1.35281 l -0.04216,-0.27121 c -0.04967,-0.34637 -0.113707,-0.68294 -0.194091,-1.01624 l -0.09052,-0.35291 c -0.08562,-0.31042 -0.184947,-0.61105 -0.294738,-0.9084 l -0.120252,-0.33004 c -0.151624,-0.37251 -0.318921,-0.73521 -0.507799,-1.08812 l -0.08169,-0.14378 c -0.178738,-0.3235 -0.374146,-0.63392 -0.583276,-0.93454 l -0.298982,-0.40192 -0.454205,-0.56531 -0.366304,-0.40192 -0.516946,-0.50322 -0.368914,-0.33656 c -0.299974,-0.25162 -0.610069,-0.49342 -0.935531,-0.71562 l -0.01928,-0.0131 c -0.404538,-0.27448 -0.834888,-0.51302 -1.275042,-0.73522 l -0.296372,-0.14378 c -0.893371,-0.41499 -1.850795,-0.71562 -2.851351,-0.88553 l -0.347345,-0.0523 c -0.505516,-0.0686 -1.015912,-0.11763 -1.539395,-0.11763 h -7.503827 -0.234943 -0.234943 -23.233639 -0.234612 -0.234946 -22.06937 -0.234945 -0.234945 -8.232839 -0.0039 -0.03039 c -0.510734,-0.003 -1.012318,-0.0294 -1.50998,-0.0784 l -0.546482,-0.0752 c -0.319086,-0.0392 -0.636931,-0.0817 -0.949644,-0.14379 l -0.639512,-0.14704 -0.806684,-0.20586 -0.66758,-0.21567 -0.716073,-0.26468 -0.680324,-0.28755 -0.635656,-0.30389 -0.68418,-0.36597 -0.55269,-0.33331 -0.685422,-0.4444 -0.463353,-0.34637 -0.689277,-0.53262 -0.01533,-0.0131 h 0.0026 c -3.478281,-2.92781 -5.695413,-7.30974 -5.695413,-12.20794 0,-2.34617 0.508022,-4.56164 1.428322,-6.57451 0.23612,-0.52282 0.509296,-1.02931 0.799038,-1.51945 l 0.01402,-0.0262 c 2.774953,-4.69234 7.885784,-7.84562 13.724025,-7.84562 h 62.452982 c 23.815606,0 43.199293,19.38696 43.199293,43.20158 v 36.15651 c 0,23.81689 -19.383687,43.2019 -43.199293,43.2019"
       style="fill:#949183;fill-opacity:1;fill-rule:nonzero;stroke:none;stroke-width:0.326765"
       id="path924" />
    <path
       d="m 82.628041,146.00132 v -1.55867 c 0,-11.25051 -5.521667,-21.24298 -14.030294,-27.38289 v -0.0196 C 63.038819,113.02094 56.200938,110.63557 48.81932,110.63557 H 41.081855 17.378658 -5.1619001 -28.17069 c 2.499228,-5.54194 8.077268,-9.39122 14.538389,-9.39122 H 48.81932 c 23.816907,0 43.200597,19.38368 43.200597,43.1983 v 36.15654 c 0,23.81755 -19.38369,43.20159 -43.200597,43.20159 H 19.236975 c -6.461125,0 -12.0393257,-3.84997 -14.537116,-9.39221 H 28.103082 48.81932 c 1.071139,0 2.141943,-0.0562 3.193803,-0.15065 11.400822,-1.06951 21.16815,-7.83189 26.427096,-17.39238 2.667717,-4.82631 4.187822,-10.36825 4.187822,-16.26635 v -11.11654 -23.48133"
       style="fill:#947549;fill-opacity:1;fill-rule:nonzero;stroke:none;stroke-width:0.326765"
       id="path926" />
    <g
       id="g928"
       transform="matrix(0.32676483,0,0,-0.32676483,-54.351448,516.82059)">
      <g
         id="g930"
         clip-path="url(#clipPath934)">
        <path
           d="m 419.199,1062.96 v -34.02 c 0,-18.05 -4.652,-35.01 -12.816,-49.78 l -60.238,33.51 c 2.585,4.83 4.082,10.35 4.082,16.27 v 34.02 h 68.972"
           style="fill:url(#linearGradient946);fill-opacity:1;fill-rule:nonzero;stroke:none"
           id="path948" />
      </g>
    </g>
    <g
       id="g950"
       transform="matrix(0.32676483,0,0,-0.32676483,-54.351448,516.82059)">
      <g
         id="g952"
         clip-path="url(#clipPath956)">
        <path
           d="m 419.199,1134.82 v -71.86 h -68.972 v 71.86 h 68.972"
           style="fill:url(#linearGradient968);fill-opacity:1;fill-rule:nonzero;stroke:none"
           id="path970" />
      </g>
    </g>
    <g
       id="g972"
       transform="matrix(0.32676483,0,0,-0.32676483,-54.351448,516.82059)">
      <g
         id="g974"
         clip-path="url(#clipPath978)">
        <path
           d="m 419.199,1139.59 v -4.77 h -68.972 v 4.77 c 0,11.89 -6.039,22.41 -15.176,28.57 l 41.211,55.23 c 26.039,-18.79 42.937,-49.37 42.937,-83.8"
           style="fill:url(#linearGradient990);fill-opacity:1;fill-rule:nonzero;stroke:none"
           id="path992" />
      </g>
    </g>
    <g
       id="g994"
       transform="matrix(0.32676483,0,0,-0.32676483,-54.351448,516.82059)">
      <g
         id="g996"
         clip-path="url(#clipPath1000)">
        <path
           d="m 346.145,1012.67 60.238,-33.51 c -16.094,-29.258 -45.985,-49.953 -80.875,-53.226 l -6.61,68.687 c 11.84,1.035 21.899,8.109 27.247,18.049"
           style="fill:url(#linearGradient1012);fill-opacity:1;fill-rule:nonzero;stroke:none"
           id="path1014" />
      </g>
    </g>
    <g
       id="g1016"
       transform="matrix(0.32676483,0,0,-0.32676483,-54.351448,516.82059)">
      <g
         id="g1018"
         clip-path="url(#clipPath1022)">
        <path
           d="m 376.262,1223.45 v -0.06 l -41.211,-55.23 c -5.52,3.73 -12.188,5.91 -19.317,5.91 h -23.679 v 68.98 h 23.679 c 22.59,0 43.516,-7.3 60.528,-19.6"
           style="fill:url(#linearGradient1034);fill-opacity:1;fill-rule:nonzero;stroke:none"
           id="path1036" />
      </g>
    </g>
    <g
       id="g1038"
       transform="matrix(0.32676483,0,0,-0.32676483,-54.351448,516.82059)">
      <g
         id="g1040"
         clip-path="url(#clipPath1044)">
        <path
           d="m 318.898,994.621 6.61,-68.687 c -3.219,-0.289 -6.496,-0.461 -9.774,-0.461 h -63.398 v 68.976 h 63.398 c 1.094,0 2.129,0.059 3.164,0.172"
           style="fill:url(#linearGradient1056);fill-opacity:1;fill-rule:nonzero;stroke:none"
           id="path1058" />
      </g>
    </g>
    <g
       id="g1060"
       transform="matrix(0.32676483,0,0,-0.32676483,-54.351448,516.82059)">
      <g
         id="g1062"
         clip-path="url(#clipPath1066)">
        <path
           d="m 292.055,1243.05 v -68.98 h -72.539 v 68.98 h 72.539"
           style="fill:url(#linearGradient1078);fill-opacity:1;fill-rule:nonzero;stroke:none"
           id="path1080" />
      </g>
    </g>
    <g
       id="g1082"
       transform="matrix(0.32676483,0,0,-0.32676483,-54.351448,516.82059)">
      <g
         id="g1084"
         clip-path="url(#clipPath1088)">
        <path
           d="m 252.336,994.449 v -68.976 h -71.621 c -2.817,6.148 -4.367,12.933 -4.367,20.117 0,26.957 21.898,48.859 48.855,48.859 h 27.133"
           style="fill:url(#linearGradient1100);fill-opacity:1;fill-rule:nonzero;stroke:none"
           id="path1102" />
      </g>
    </g>
    <g
       id="g1104"
       transform="matrix(0.32676483,0,0,-0.32676483,-54.351448,516.82059)">
      <g
         id="g1106"
         clip-path="url(#clipPath1110)">
        <path
           d="m 219.516,1243.05 v -68.98 h -68.981 v 68.98 h 68.981"
           style="fill:url(#linearGradient1122);fill-opacity:1;fill-rule:nonzero;stroke:none"
           id="path1124" />
      </g>
    </g>
    <g
       id="g1126"
       transform="matrix(0.32676483,0,0,-0.32676483,-54.351448,516.82059)">
      <g
         id="g1128"
         clip-path="url(#clipPath1132)">
        <path
           d="m 150.535,1243.05 v -68.98 h -25.922 c -26.9567,0 -48.8591,21.91 -48.8591,48.86 0,7.19 1.5508,13.97 4.3672,20.12 h 70.4139"
           style="fill:url(#linearGradient1144);fill-opacity:1;fill-rule:nonzero;stroke:none"
           id="path1146" />
      </g>
    </g>
    <path
       d="M 48.81932,215.10686 H 4.699859 V 213.7106 H 48.81932 c 0.985527,0 2.038685,-0.05 3.130081,-0.14937 10.897934,-1.02243 20.573115,-7.39075 25.879451,-17.03162 2.684374,-4.86061 4.101225,-10.36889 4.101225,-15.93042 v -36.15654 c 0,-10.58391 -5.137729,-20.60906 -13.740787,-26.81759 l 0.81691,-1.13387 c 8.966755,6.47321 14.321452,16.91988 14.321452,27.95146 v 36.15654 c 0,5.7968 -1.47829,11.54099 -4.27343,16.60455 -5.52952,10.04933 -15.613483,16.68529 -26.97738,17.74986 -1.135832,0.10359 -2.229849,0.15326 -3.257522,0.15326"
       style="fill:#c36a39;fill-opacity:1;fill-rule:nonzero;stroke:none;stroke-width:0.326765"
       id="path1148" />
    <path
       d="m 28.338028,214.40857 h -0.469886 v -22.53894 h 0.469886 v 22.53894"
       style="fill:#8f8e7f;fill-opacity:1;fill-rule:nonzero;stroke:none;stroke-width:0.326765"
       id="path1150" />
    <path
       d="m 51.798764,214.43666 -0.01798,-0.15063 -2.160891,-22.45103 0.465638,-0.0445 2.178869,22.59124 -0.465639,0.0549"
       style="fill:#8f8e7f;fill-opacity:1;fill-rule:nonzero;stroke:none;stroke-width:0.326765"
       id="path1152" />
    <path
       d="m 78.459181,197.10145 h -0.0598 l -0.07417,-0.0291 -19.682356,-10.95087 0.227108,-0.41171 19.683654,10.95152 -0.104564,0.18886 0.01013,0.25128"
       style="fill:#8f8e7f;fill-opacity:1;fill-rule:nonzero;stroke:none;stroke-width:0.326765"
       id="path1154" />
    <path
       d="M 82.62935,169.71465 H 60.090422 v -0.46728 H 82.62935 v 0.46728"
       style="fill:#8f8e7f;fill-opacity:1;fill-rule:nonzero;stroke:none;stroke-width:0.326765"
       id="path1156" />
    <path
       d="m 83.343002,146.2366 h -23.25258 v -0.47055 h 23.25258 v 0.47055"
       style="fill:#8f8e7f;fill-opacity:1;fill-rule:nonzero;stroke:none;stroke-width:0.326765"
       id="path1158" />
    <path
       d="m 55.321621,135.25076 -0.379052,-0.28429 13.467617,-18.05049 0.177105,0.13398 0.246376,-0.01 v 0.0784 l -0.04575,0.0817 -13.466298,18.05049"
       style="fill:#8f8e7f;fill-opacity:1;fill-rule:nonzero;stroke:none;stroke-width:0.326765"
       id="path1160" />
    <path
       d="m 41.316473,133.1758 h -0.469558 v -22.54023 h 0.469558 v 22.54023"
       style="fill:#8f8e7f;fill-opacity:1;fill-rule:nonzero;stroke:none;stroke-width:0.326765"
       id="path1162" />
    <path
       d="M 17.611971,133.1758 H 17.14241 v -22.54023 h 0.469561 v 22.54023"
       style="fill:#8f8e7f;fill-opacity:1;fill-rule:nonzero;stroke:none;stroke-width:0.326765"
       id="path1164" />
    <path
       d="m -4.9269582,133.1758 h -0.4698877 v -23.48132 h 0.4698877 v 23.48132"
       style="fill:#8f8e7f;fill-opacity:1;fill-rule:nonzero;stroke:none;stroke-width:0.326765"
       id="path1166" />
    <path
       d="m 85.450316,180.59919 v -36.15654 c 0,-20.19406 -16.431373,-36.62707 -36.627073,-36.62707 h -75.342235 c -1.206219,1.65343 -2.09845,3.54213 -2.600067,5.59095 l 0.447994,0.0457 h 77.494308 c 17.088821,0 30.991681,13.90385 30.991681,30.99038 v 36.15654 c 0,17.08817 -13.90286,30.99232 -30.991681,30.99232 H 4.7037784 c -0.3257762,0 -0.6319591,0.0663 -0.9218049,0.16732 0.5068183,2.00013 1.3861416,3.84833 2.5683741,5.46676 H 48.823243 c 20.1957,0 36.627073,-16.43008 36.627073,-36.6264"
       style="fill:#dddddc;fill-opacity:1;fill-rule:nonzero;stroke:none;stroke-width:0.326765"
       id="path1168" />
    <g
       id="g1170"
       transform="matrix(0.32676483,0,0,-0.32676483,-54.351448,516.82059)">
      <g
         id="g1172"
         clip-path="url(#clipPath1176)">
        <path
           d="m 315.746,982.953 c 25.359,0 45.988,20.627 45.988,45.987 v 110.65 c 0,25.35 -20.629,45.98 -45.988,45.98 H 124.625 93.1719 c 8.5041,-7.16 19.4651,-11.5 31.4531,-11.5 h 191.121 c 19.02,0 34.492,-15.46 34.492,-34.48 v -110.65 c 0,-19.02 -15.472,-34.491 -34.492,-34.491 h -90.531 c -11.985,0 -22.949,-4.332 -31.449,-11.496 h 31.449 90.531"
           style="fill:url(#linearGradient1188);fill-opacity:1;fill-rule:nonzero;stroke:none"
           id="path1190" />
      </g>
    </g>
  </g>
</svg>
