<svg xmlns:dc="http://purl.org/dc/elements/1.1/" xmlns:cc="http://creativecommons.org/ns#" xmlns:rdf="http://www.w3.org/1999/02/22-rdf-syntax-ns#" xmlns:svg="http://www.w3.org/2000/svg" xmlns="http://www.w3.org/2000/svg" xmlns:sodipodi="http://sodipodi.sourceforge.net/DTD/sodipodi-0.dtd" xmlns:inkscape="http://www.inkscape.org/namespaces/inkscape" width="246.30519mm" height="169.54846mm" viewBox="0 0 246.30519 169.54846" version="1.1" id="svg25029" inkscape:version="1.0.2 (e86c870879, 2021-01-15, custom)" sodipodi:docname="sofa-8people.svg">
  <defs id="defs25023">
    <clipPath clipPathUnits="userSpaceOnUse" id="clipPath796">
      <path d="M 348.234,1498.09 H 240.105 c -6.976,0 -10.484,3.6 -7.792,7.99 l 0.097,0.16 c -3.597,0.6 -6.101,4.35 -6.101,10.23 v 129.06 c 0,5.71 2.363,9.4 5.789,10.16 -2.149,4.17 1.293,7.52 8.007,7.52 h 108.129 c 6.977,0 10.485,-3.6 7.793,-8 l -1.16,-1.9 -7.027,-11.48 c -1.707,-2.79 -5.516,-5.25 -9.856,-6.68 14.407,-8.46 24.625,-29.49 24.625,-54.15 0,-25.14 -10.621,-46.49 -25.468,-54.61 4.679,-1.38 8.882,-3.96 10.699,-6.93 l 7.027,-11.48 1.16,-1.9 c 2.692,-4.39 -0.816,-7.99 -7.793,-7.99" id="path794"></path>
    </clipPath>
  </defs>
  <sodipodi:namedview id="base" pagecolor="#ffffff" bordercolor="#666666" borderopacity="1.0" inkscape:pageopacity="0.0" inkscape:pageshadow="2" inkscape:zoom="0.35" inkscape:cx="456.8872" inkscape:cy="726.12085" inkscape:document-units="mm" inkscape:current-layer="layer1" inkscape:document-rotation="0" showgrid="false" fit-margin-top="0" fit-margin-left="0" fit-margin-right="0" fit-margin-bottom="0" inkscape:window-width="1267" inkscape:window-height="1030" inkscape:window-x="61" inkscape:window-y="0" inkscape:window-maximized="0"></sodipodi:namedview>
  <metadata id="metadata25026">
    <rdf:rdf>
      <cc:work rdf:about="">
        <dc:format>image/svg+xml</dc:format>
        <dc:type rdf:resource="http://purl.org/dc/dcmitype/StillImage"></dc:type>
        <dc:title></dc:title>
      </cc:work>
    </rdf:rdf>
  </metadata>
  <g inkscape:label="Layer 1" inkscape:groupmode="layer" id="layer1" transform="translate(15.051405,43.952807)">
    <g id="g790" transform="matrix(0.32676483,0,0,-0.32676483,-89.001227,558.87277)">
      <g id="g792" clip-path="url(#clipPath796)">
        <path d="M 226.309,1498.09 H 362.61 v 165.121 H 226.309 Z" style="fill:#949183;fill-opacity:1;fill-rule:nonzero;stroke:none" id="path798"></path>
      </g>
    </g>
    <path d="M 1.7002,13.721187 V 52.295776 H -1.4998156 V 13.721187 H 1.7002" style="fill:#7b613e;fill-opacity:1;fill-rule:nonzero;stroke:none;stroke-width:0.326765" id="path800"></path>
    <path d="M 15.516139,14.283222 H 14.52833 l 0.423816,0.04575 z" style="fill:#d3d2d2;fill-opacity:1;fill-rule:nonzero;stroke:none;stroke-width:0.326765" id="path802"></path>
    <path d="m 14.52833,52.295776 h 0.987809 l -0.563993,-0.04248 z" style="fill:#d3d2d2;fill-opacity:1;fill-rule:nonzero;stroke:none;stroke-width:0.326765" id="path804"></path>
    <path d="M -9.2183258,53.396976 -11.5145,57.151501 H 28.152788 L 25.856614,53.396976 C 24.977287,51.962475 22.392255,50.786122 20.112742,50.786122 H -3.4757558 c -2.2795161,0 -4.862915,1.176353 -5.74257,2.610854" style="fill:#947549;fill-opacity:1;fill-rule:nonzero;stroke:none;stroke-width:0.326765" id="path806"></path>
    <path d="m -11.893546,57.772358 c -0.879651,1.434493 0.26664,2.610849 2.5464775,2.610849 H 25.985688 c 2.279509,0 3.425801,-1.176356 2.546474,-2.610849 L 28.152788,57.151501 H -11.5145 l -0.379046,0.620857" style="fill:#bf905a;fill-opacity:1;fill-rule:nonzero;stroke:none;stroke-width:0.326765" id="path808"></path>
    <path d="M -9.2183258,13.414028 -11.5145,9.6627678 h 39.667288 l -2.296174,3.7512602 c -0.879327,1.437765 -3.464359,2.614118 -5.743872,2.614118 H -3.4757558 c -2.2795161,0 -4.862915,-1.176353 -5.74257,-2.614118" style="fill:#947549;fill-opacity:1;fill-rule:nonzero;stroke:none;stroke-width:0.326765" id="path810"></path>
    <path d="m -11.893546,9.0419142 c -0.879651,-1.437765 0.26664,-2.6108507 2.5464775,-2.6108507 H 25.985688 c 2.279509,0 3.425801,1.1730857 2.546474,2.6108507 L 28.152788,9.6627678 H -11.5145 l -0.379046,-0.6208536" style="fill:#bf905a;fill-opacity:1;fill-rule:nonzero;stroke:none;stroke-width:0.326765" id="path812"></path>
    <path d="m -4.2031378,12.358578 c 1.9847667,1.048915 3.60846181,4.133575 3.60846181,6.855526 v 28.15406 c 0,2.718681 -1.62369511,5.80661 -3.60846181,6.855524 l -6.0438422,3.192491 c -1.98477,1.048918 -3.608465,-0.32023 -3.608465,-3.03891 v -42.17227 c 0,-2.7219521 1.623695,-4.0878294 3.608465,-3.0389134 l 6.0438422,3.1924924" style="fill:#bf905a;fill-opacity:1;fill-rule:nonzero;stroke:none;stroke-width:0.326765" id="path814"></path>
    <path d="m 5.4109392,14.283222 c -3.3176459,0 -6.00561519,2.689275 -6.00561519,6.005938 v 26.003945 c 0,3.316665 2.68796929,6.002671 6.00561519,6.002671 H 17.058142 l 0.425118,-0.04248 0.564325,0.04248 c 6.978064,0 12.635347,-8.508954 12.635347,-19.004643 0,-10.495687 -5.657283,-19.007911 -12.635347,-19.007911 l -0.564325,0.04575 -0.425118,-0.04575 H 5.4109392" style="fill:#ffffff;fill-opacity:1;fill-rule:nonzero;stroke:none;stroke-width:0.326765" id="path816"></path>
    <path d="m 28.152788,33.291133 c 0,10.495689 -5.658256,19.004643 -12.636649,19.004643 h 1.542003 l 0.425118,-0.04248 0.564325,0.04248 c 6.978064,0 12.635347,-8.508954 12.635347,-19.004643 0,-10.495687 -5.657283,-19.007911 -12.635347,-19.007911 l -0.564325,0.04575 -0.425118,-0.04575 h -1.542003 c 6.978393,0 12.636649,8.512224 12.636649,19.007911" style="fill:#e5e4e4;fill-opacity:1;fill-rule:nonzero;stroke:none;stroke-width:0.326765" id="path818"></path>
    <path d="m 226.7441,67.359634 h -35.33273 c -2.27954,0 -3.42451,-1.179618 -2.54649,-2.614115 l 0.38069,-0.620857 2.29618,-3.751263 c 0.59211,-0.970491 1.96681,-1.813542 3.49606,-2.26121 -4.85182,-2.656598 -8.32369,-9.633026 -8.32369,-17.847893 0,-8.05802 3.34052,-14.929887 8.0466,-17.694317 -1.41654,-0.467273 -2.66117,-1.271115 -3.21897,-2.182789 l -2.29618,-3.751261 -0.38069,-0.620853 c -0.87802,-1.437765 0.26695,-2.610851 2.54649,-2.610851 h 35.33273 c 2.19558,0 3.31897,1.091395 2.61804,2.454005 1.11951,0.251608 1.89165,1.454103 1.89165,3.31993 v 42.172272 c 0,1.921372 -0.8195,3.146742 -1.99357,3.342802 l 0.0304,0.05228 c 0.87964,1.434497 -0.26665,2.614115 -2.5465,2.614115" style="fill:#949183;fill-opacity:1;fill-rule:nonzero;stroke:none;stroke-width:0.326765" id="path820"></path>
    <path d="m 211.71163,13.721187 v 38.574589 h 3.2 V 13.721187 h -3.2" style="fill:#7b613e;fill-opacity:1;fill-rule:nonzero;stroke:none;stroke-width:0.326765" id="path822"></path>
    <path d="m 197.89569,14.283222 h 0.98814 l -0.42381,0.04575 z" style="fill:#d3d2d2;fill-opacity:1;fill-rule:nonzero;stroke:none;stroke-width:0.326765" id="path824"></path>
    <path d="m 198.88383,52.295776 h -0.98814 l 0.56433,-0.04248 z" style="fill:#d3d2d2;fill-opacity:1;fill-rule:nonzero;stroke:none;stroke-width:0.326765" id="path826"></path>
    <path d="m 222.6305,53.396976 2.29614,3.754525 h -39.6676 l 2.29651,-3.754525 c 0.8793,-1.434501 3.46403,-2.610854 5.74388,-2.610854 h 23.58815 c 2.27985,0 4.86328,1.176353 5.74292,2.610854" style="fill:#947549;fill-opacity:1;fill-rule:nonzero;stroke:none;stroke-width:0.326765" id="path828"></path>
    <path d="m 225.30571,57.772358 c 0.87934,1.434493 -0.26668,2.610849 -2.54649,2.610849 h -35.33275 c -2.27952,0 -3.4245,-1.176356 -2.54649,-2.610849 l 0.37906,-0.620857 h 39.6676 l 0.37907,0.620857" style="fill:#bf905a;fill-opacity:1;fill-rule:nonzero;stroke:none;stroke-width:0.326765" id="path830"></path>
    <path d="m 222.6305,13.414028 2.29614,-3.7512602 h -39.6676 l 2.29651,3.7512602 c 0.8793,1.437765 3.46403,2.614118 5.74388,2.614118 h 23.58815 c 2.27985,0 4.86328,-1.176353 5.74292,-2.614118" style="fill:#947549;fill-opacity:1;fill-rule:nonzero;stroke:none;stroke-width:0.326765" id="path832"></path>
    <path d="m 225.30571,9.0419142 c 0.87934,-1.437765 -0.26668,-2.6108507 -2.54649,-2.6108507 h -35.33275 c -2.27952,0 -3.4245,1.1730857 -2.54649,2.6108507 l 0.37906,0.6208536 h 39.6676 l 0.37907,-0.6208536" style="fill:#bf905a;fill-opacity:1;fill-rule:nonzero;stroke:none;stroke-width:0.326765" id="path834"></path>
    <path d="m 217.61661,12.358578 c -1.98607,1.048915 -3.60978,4.133575 -3.60978,6.855526 v 28.15406 c 0,2.718681 1.62371,5.80661 3.60978,6.855524 l 6.04254,3.192491 c 1.98479,1.048918 3.60844,-0.32023 3.60844,-3.03891 v -42.17227 c 0,-2.7219521 -1.62365,-4.0878294 -3.60844,-3.0389134 l -6.04254,3.1924924" style="fill:#bf905a;fill-opacity:1;fill-rule:nonzero;stroke:none;stroke-width:0.326765" id="path836"></path>
    <path d="m 208.00252,14.283222 c 3.31603,0 6.00431,2.689275 6.00431,6.005938 v 26.003945 c 0,3.316665 -2.68828,6.002671 -6.00431,6.002671 h -11.64884 l -0.42478,-0.04248 -0.56302,0.04248 c -6.97938,0 -12.63665,-8.508954 -12.63665,-19.004643 0,-10.495687 5.65727,-19.007911 12.63665,-19.007911 l 0.56302,0.04575 0.42478,-0.04575 h 11.64884" style="fill:#ffffff;fill-opacity:1;fill-rule:nonzero;stroke:none;stroke-width:0.326765" id="path838"></path>
    <path d="m 185.25904,33.291133 c 0,10.495689 5.65861,19.004643 12.63665,19.004643 h -1.54201 l -0.42478,-0.04248 -0.56302,0.04248 c -6.97938,0 -12.63665,-8.508954 -12.63665,-19.004643 0,-10.495687 5.65727,-19.007911 12.63665,-19.007911 l 0.56302,0.04575 0.42478,-0.04575 h 1.54201 c -6.97804,0 -12.63665,8.512224 -12.63665,19.007911" style="fill:#e5e4e4;fill-opacity:1;fill-rule:nonzero;stroke:none;stroke-width:0.326765" id="path840"></path>
    <path d="m 148.38461,6.8362514 c -5.37627,0 -10.22055,-1.4965822 -13.66923,-3.8885014 h -10.52281 c -3.449,2.3919192 -8.29297,3.8885014 -13.66955,3.8885014 -5.37757,0 -10.22153,-1.4965822 -13.670205,-3.8885014 H 86.330984 C 82.881001,5.3396692 78.038017,6.8362514 72.660449,6.8362514 67.284186,6.8362514 62.440226,5.3396692 58.99122,2.94775 H 52.042562 V 2.3693764 l -3.174513,1.9409838 -0.61922,0.3823145 c -0.326768,0.1993262 -0.640786,0.2940879 -0.9303,0.2940879 -0.976697,0 -1.673359,-1.081591 -1.673359,-2.8330509 V -33.081345 c 0,-1.754717 0.696662,-2.833046 1.673359,-2.833046 0.289514,0 0.603532,0.09476 0.9303,0.29409 l 0.05261,0.03267 c 0.195076,-1.173085 1.416527,-1.989995 3.332675,-1.989995 h 26.752562 15.300435 11.450819 15.30044 11.45213 15.30043 26.75256 c 2.71249,0 4.07707,1.620753 3.03043,3.600948 l -0.14933,0.284282 0.0409,0.611047 V 2.1537117 c 0,1.7514599 -0.69703,2.8330509 -1.67467,2.8330509 -0.28854,0 -0.60257,-0.094762 -0.93065,-0.2940879 L 173.64124,4.3103602 171.4124,2.94775 h -9.35727 c -3.449,2.3919192 -8.29296,3.8885014 -13.67052,3.8885014" style="fill:#949183;fill-opacity:1;fill-rule:nonzero;stroke:none;stroke-width:0.326765" id="path850"></path>
    <path d="m 84.838974,-14.664876 v -0.983559 l -0.04346,0.421527 z" style="fill:#d3d2d2;fill-opacity:1;fill-rule:nonzero;stroke:none;stroke-width:0.326765" id="path852"></path>
    <path d="m 122.70023,-14.664876 v -0.983559 l -0.0422,0.421527 z" style="fill:#d3d2d2;fill-opacity:1;fill-rule:nonzero;stroke:none;stroke-width:0.326765" id="path854"></path>
    <path d="M 166.86578,-3.4274317 H 45.267094 V -37.342354 H 166.86578 v 33.9149223" style="fill:#715a39;fill-opacity:1;fill-rule:nonzero;stroke:none;stroke-width:0.326765" id="path856"></path>
    <path d="m 46.934252,-15.648435 v 0.983559 l 0.04215,-0.562032 z" style="fill:#d3d2d2;fill-opacity:1;fill-rule:nonzero;stroke:none;stroke-width:0.326765" id="path858"></path>
    <path d="m 45.835342,-39.329082 -3.74244,-2.290625 v 39.5548848 l 3.74244,-2.2873537 c 1.433198,-0.8789974 2.604971,-3.4539049 2.604971,-5.7281871 v -23.520536 c 0,-2.274284 -1.171773,-4.852455 -2.604971,-5.728183" style="fill:#947549;fill-opacity:1;fill-rule:nonzero;stroke:none;stroke-width:0.326765" id="path860"></path>
    <path d="m 41.474997,-41.995483 c -1.433523,-0.879002 -2.605299,0.264672 -2.605299,2.53896 v 35.2317852 c 0,2.274283 1.171776,3.41469265 2.605299,2.5389627 l 0.617905,-0.3790471 V -41.619707 l -0.617905,-0.375776" style="fill:#bf905a;fill-opacity:1;fill-rule:nonzero;stroke:none;stroke-width:0.326765" id="path862"></path>
    <path d="m 163.12465,-39.329082 3.74113,-2.290625 v 39.5548848 l -3.74113,-2.2873537 c -1.43354,-0.8789974 -2.60531,-3.4539049 -2.60531,-5.7281871 v -23.520536 c 0,-2.274284 1.17177,-4.852455 2.60531,-5.728183" style="fill:#947549;fill-opacity:1;fill-rule:nonzero;stroke:none;stroke-width:0.326765" id="path864"></path>
    <path d="m 167.48499,-41.995483 c 1.43353,-0.879002 2.60498,0.264672 2.60498,2.53896 v 35.2317852 c 0,2.274283 -1.17145,3.41469265 -2.60498,2.5389627 l -0.61921,-0.3790471 V -41.619707 l 0.61921,-0.375776" style="fill:#bf905a;fill-opacity:1;fill-rule:nonzero;stroke:none;stroke-width:0.326765" id="path866"></path>
    <path d="M 167.16837,-43.952807 H 44.85995 c -2.713454,0 -4.076718,1.617486 -3.031395,3.597685 l 3.184645,6.025543 c 1.046628,1.980198 4.121489,3.600944 6.835271,3.600944 h 26.752562 1.322416 25.428841 1.32242 25.43014 1.32243 26.75126 c 2.71378,0 5.78992,-1.620746 6.83525,-3.600944 l 3.18597,-6.025543 c 1.04562,-1.980199 -0.31762,-3.597685 -3.03139,-3.597685" style="fill:#bf905a;fill-opacity:1;fill-rule:nonzero;stroke:none;stroke-width:0.326765" id="path868"></path>
    <path d="m 160.5615,-14.664876 v -0.983559 l -0.0422,0.421527 z" style="fill:#d3d2d2;fill-opacity:1;fill-rule:nonzero;stroke:none;stroke-width:0.326765" id="path870"></path>
    <path d="m 84.838974,-24.742299 c 0,-3.306865 -2.681757,-5.986336 -5.987634,-5.986336 H 52.920584 c -3.307186,0 -5.986332,2.679471 -5.986332,5.986336 v 11.616485 l 0.04215,0.42153 -0.04215,0.562033 c 0,6.9600919 8.48445,12.60332106 18.952366,12.60332106 10.466596,0 18.952356,-5.64322916 18.952356,-12.60332106 l -0.04346,-0.562033 0.04346,-0.42153 v -11.616485" style="fill:#ffffff;fill-opacity:1;fill-rule:nonzero;stroke:none;stroke-width:0.326765" id="path872"></path>
    <path d="m 65.886618,-2.0648222 c -10.467916,0 -18.952366,-5.639961 -18.952366,-12.6000538 v 1.539062 l 0.04215,0.42153 -0.04215,0.562033 c 0,6.9600919 8.48445,12.60332106 18.952366,12.60332106 10.466596,0 18.952356,-5.64322916 18.952356,-12.60332106 l -0.04346,-0.562033 0.04346,-0.42153 v -1.539062 c 0,6.9600928 -8.48576,12.6000538 -18.952356,12.6000538" style="fill:#e5e4e4;fill-opacity:1;fill-rule:nonzero;stroke:none;stroke-width:0.326765" id="path874"></path>
    <path d="m 122.70023,-24.742299 c 0,-3.306865 -2.68044,-5.986336 -5.98764,-5.986336 H 90.783153 c -3.307186,0 -5.987641,2.679471 -5.987641,5.986336 v 11.616485 l 0.04346,0.42153 -0.04346,0.562033 c 0,6.9600919 8.485759,12.60332106 18.952358,12.60332106 10.46661,0 18.95236,-5.64322916 18.95236,-12.60332106 l -0.0422,-0.562033 0.0422,-0.42153 v -11.616485" style="fill:#ffffff;fill-opacity:1;fill-rule:nonzero;stroke:none;stroke-width:0.326765" id="path876"></path>
    <path d="m 103.74787,-2.0648222 c -10.466599,0 -18.952358,-5.639961 -18.952358,-12.6000538 v 1.539062 l 0.04346,0.42153 -0.04346,0.562033 c 0,6.9600919 8.485759,12.60332106 18.952358,12.60332106 10.46661,0 18.95236,-5.64322916 18.95236,-12.60332106 l -0.0422,-0.562033 0.0422,-0.42153 v -1.539062 c 0,6.9600928 -8.48575,12.6000538 -18.95236,12.6000538" style="fill:#e5e4e4;fill-opacity:1;fill-rule:nonzero;stroke:none;stroke-width:0.326765" id="path878"></path>
    <path d="m 160.5615,-24.742299 c 0,-3.306865 -2.68045,-5.986336 -5.98633,-5.986336 h -25.92945 c -3.30719,0 -5.98764,2.679471 -5.98764,5.986336 v 11.616485 l 0.0422,0.42153 -0.0422,0.562033 c 0,6.9600919 8.48445,12.60332106 18.95236,12.60332106 10.46661,0 18.95106,-5.64322916 18.95106,-12.60332106 l -0.0422,-0.562033 0.0422,-0.42153 v -11.616485" style="fill:#ffffff;fill-opacity:1;fill-rule:nonzero;stroke:none;stroke-width:0.326765" id="path880"></path>
    <path d="m 141.61044,-2.0648222 c -10.46791,0 -18.95236,-5.639961 -18.95236,-12.6000538 v 1.539062 l 0.0422,0.42153 -0.0422,0.562033 c 0,6.9600919 8.48445,12.60332106 18.95236,12.60332106 10.46661,0 18.95106,-5.64322916 18.95106,-12.60332106 l -0.0422,-0.562033 0.0422,-0.42153 v -1.539062 c 0,6.9600928 -8.48445,12.6000538 -18.95106,12.6000538" style="fill:#e5e4e4;fill-opacity:1;fill-rule:nonzero;stroke:none;stroke-width:0.326765" id="path882"></path>
    <path d="M 173.94349,119.21722 H 51.634113 c -1.916148,0 -3.137599,-0.81365 -3.332675,-1.98674 l -0.05261,0.0327 c -0.326768,0.19933 -0.640786,0.29409 -0.9303,0.29409 -0.976697,0 -1.673359,-1.08159 -1.673359,-2.83305 V 79.489148 c 0,-1.754731 0.696662,-2.83306 1.673359,-2.83306 0.289514,0 0.603532,0.09476 0.9303,0.294097 l 0.61922,0.379042 3.174513,1.940987 v -0.578376 h 6.948658 c 3.449006,-2.391918 8.292966,-3.88523 13.669229,-3.88523 5.377568,0 10.220552,1.493312 13.670535,3.88523 h 10.521831 c 3.448676,-2.391918 8.292636,-3.88523 13.670206,-3.88523 5.37658,0 10.22055,1.493312 13.66955,3.88523 h 10.52281 c 3.44868,-2.391918 8.29296,-3.88523 13.66923,-3.88523 5.37756,0 10.22152,1.493312 13.67052,3.88523 h 9.35727 l 2.22884,-1.362611 0.61888,-0.379042 c 0.32808,-0.199334 0.64081,-0.294097 0.93065,-0.294097 0.97764,0 1.67467,1.078329 1.67467,2.83306 V 114.7242 l -0.0409,0.61105 0.14933,0.28428 c 1.04664,1.98019 -0.31794,3.59769 -3.03043,3.59769" style="fill:#949183;fill-opacity:1;fill-rule:nonzero;stroke:none;stroke-width:0.326765" id="path884"></path>
    <path d="m 84.838974,96.307731 v 0.983558 l -0.04346,-0.42479 z" style="fill:#d3d2d2;fill-opacity:1;fill-rule:nonzero;stroke:none;stroke-width:0.326765" id="path886"></path>
    <path d="m 122.70023,96.307731 v 0.983558 l -0.0422,-0.42479 z" style="fill:#d3d2d2;fill-opacity:1;fill-rule:nonzero;stroke:none;stroke-width:0.326765" id="path888"></path>
    <path d="M 166.86578,85.070294 H 45.267094 V 118.98194 H 166.86578 V 85.070294" style="fill:#715a39;fill-opacity:1;fill-rule:nonzero;stroke:none;stroke-width:0.326765" id="path890"></path>
    <path d="m 46.934252,97.291289 v -0.983558 l 0.04215,0.558768 z" style="fill:#d3d2d2;fill-opacity:1;fill-rule:nonzero;stroke:none;stroke-width:0.326765" id="path892"></path>
    <path d="m 45.835342,120.97194 -3.74244,2.28736 V 83.704409 l 3.74244,2.290625 c 1.433198,0.878995 2.604971,3.453909 2.604971,5.72492 v 23.523796 c 0,2.27429 -1.171773,4.84919 -2.604971,5.72819" style="fill:#947549;fill-opacity:1;fill-rule:nonzero;stroke:none;stroke-width:0.326765" id="path894"></path>
    <path d="m 41.474997,123.63834 c -1.433523,0.87574 -2.605299,-0.26468 -2.605299,-2.53896 V 85.867596 c 0,-2.274281 1.171776,-3.417955 2.605299,-2.538963 l 0.617905,0.375776 V 123.2593 l -0.617905,0.37904" style="fill:#bf905a;fill-opacity:1;fill-rule:nonzero;stroke:none;stroke-width:0.326765" id="path896"></path>
    <path d="m 163.12465,120.97194 3.74113,2.28736 V 83.704409 l -3.74113,2.290625 c -1.43354,0.878995 -2.60531,3.453909 -2.60531,5.72492 v 23.523796 c 0,2.27429 1.17177,4.84919 2.60531,5.72819" style="fill:#947549;fill-opacity:1;fill-rule:nonzero;stroke:none;stroke-width:0.326765" id="path898"></path>
    <path d="m 167.48499,123.63834 c 1.43353,0.87574 2.60498,-0.26468 2.60498,-2.53896 V 85.867596 c 0,-2.274281 -1.17145,-3.417955 -2.60498,-2.538963 l -0.61921,0.375776 V 123.2593 l 0.61921,0.37904" style="fill:#bf905a;fill-opacity:1;fill-rule:nonzero;stroke:none;stroke-width:0.326765" id="path900"></path>
    <path d="M 167.16837,125.59566 H 44.85995 c -2.713454,0 -4.076718,-1.62075 -3.031395,-3.60095 l 3.184645,-6.02553 c 1.046628,-1.9802 4.121489,-3.59769 6.835271,-3.59769 h 26.752562 1.322416 25.428841 1.32242 25.43014 1.32243 26.75126 c 2.71378,0 5.78992,1.61749 6.83525,3.59769 l 3.18597,6.02553 c 1.04562,1.9802 -0.31762,3.60095 -3.03139,3.60095" style="fill:#bf905a;fill-opacity:1;fill-rule:nonzero;stroke:none;stroke-width:0.326765" id="path902"></path>
    <path d="m 160.5615,96.307731 v 0.983558 l -0.0422,-0.42479 z" style="fill:#d3d2d2;fill-opacity:1;fill-rule:nonzero;stroke:none;stroke-width:0.326765" id="path904"></path>
    <path d="m 84.838974,106.38516 c 0,3.30686 -2.681757,5.98633 -5.987634,5.98633 H 52.920584 c -3.307186,0 -5.986332,-2.67947 -5.986332,-5.98633 V 94.76867 l 0.04215,-0.424797 -0.04215,-0.562031 c 0,-6.956825 8.48445,-12.600056 18.952366,-12.600056 10.466596,0 18.952356,5.643231 18.952356,12.600056 l -0.04346,0.562031 0.04346,0.424797 v 11.61649" style="fill:#ffffff;fill-opacity:1;fill-rule:nonzero;stroke:none;stroke-width:0.326765" id="path906"></path>
    <path d="m 65.886618,83.704409 c -10.467916,0 -18.952366,5.643234 -18.952366,12.603322 V 94.76867 l 0.04215,-0.424797 -0.04215,-0.562031 c 0,-6.956825 8.48445,-12.600056 18.952366,-12.600056 10.466596,0 18.952356,5.643231 18.952356,12.600056 l -0.04346,0.562031 0.04346,0.424797 v 1.539061 c 0,-6.960088 -8.48576,-12.603322 -18.952356,-12.603322" style="fill:#e5e4e4;fill-opacity:1;fill-rule:nonzero;stroke:none;stroke-width:0.326765" id="path908"></path>
    <path d="m 122.70023,106.38516 c 0,3.30686 -2.68044,5.98633 -5.98764,5.98633 H 90.783153 c -3.307186,0 -5.987641,-2.67947 -5.987641,-5.98633 V 94.76867 l 0.04346,-0.424797 -0.04346,-0.562031 c 0,-6.956825 8.485759,-12.600056 18.952358,-12.600056 10.46661,0 18.95236,5.643231 18.95236,12.600056 l -0.0422,0.562031 0.0422,0.424797 v 11.61649" style="fill:#ffffff;fill-opacity:1;fill-rule:nonzero;stroke:none;stroke-width:0.326765" id="path910"></path>
    <path d="m 103.74787,83.704409 c -10.466599,0 -18.952358,5.643234 -18.952358,12.603322 V 94.76867 l 0.04346,-0.424797 -0.04346,-0.562031 c 0,-6.956825 8.485759,-12.600056 18.952358,-12.600056 10.46661,0 18.95236,5.643231 18.95236,12.600056 l -0.0422,0.562031 0.0422,0.424797 v 1.539061 c 0,-6.960088 -8.48575,-12.603322 -18.95236,-12.603322" style="fill:#e5e4e4;fill-opacity:1;fill-rule:nonzero;stroke:none;stroke-width:0.326765" id="path912"></path>
    <path d="m 160.5615,106.38516 c 0,3.30686 -2.68045,5.98633 -5.98633,5.98633 h -25.92945 c -3.30719,0 -5.98764,-2.67947 -5.98764,-5.98633 V 94.76867 l 0.0422,-0.424797 -0.0422,-0.562031 c 0,-6.956825 8.48445,-12.600056 18.95236,-12.600056 10.46661,0 18.95106,5.643231 18.95106,12.600056 l -0.0422,0.562031 0.0422,0.424797 v 11.61649" style="fill:#ffffff;fill-opacity:1;fill-rule:nonzero;stroke:none;stroke-width:0.326765" id="path914"></path>
    <path d="m 141.61044,83.704409 c -10.46791,0 -18.95236,5.643234 -18.95236,12.603322 V 94.76867 l 0.0422,-0.424797 -0.0422,-0.562031 c 0,-6.956825 8.48445,-12.600056 18.95236,-12.600056 10.46661,0 18.95106,5.643231 18.95106,12.600056 l -0.0422,0.562031 0.0422,0.424797 v 1.539061 c 0,-6.960088 -8.48445,-12.603322 -18.95106,-12.603322" style="fill:#e5e4e4;fill-opacity:1;fill-rule:nonzero;stroke:none;stroke-width:0.326765" id="path916"></path>
    <path d="M 53.223168,64.101791 H 159.75112 V 16.914986 H 53.223168 Z" style="fill:#949183;fill-opacity:1;fill-rule:nonzero;stroke:none;stroke-width:0.326765" id="path918"></path>
    <path d="M 48.440313,59.719871 V 12.531763 H 154.96827 V 59.719871 H 48.440313" style="fill:#424143;fill-opacity:1;fill-rule:nonzero;stroke:none;stroke-width:0.326765" id="path920"></path>
    <path d="M 151.72349,57.769088 H 51.84978 V 14.629593 h 99.87371 v 43.139495" style="fill:#535355;fill-opacity:1;fill-rule:nonzero;stroke:none;stroke-width:0.326765" id="path922"></path>
  </g>
</svg>