<?xml version="1.0" encoding="UTF-8" standalone="no"?>
<svg
   xmlns:dc="http://purl.org/dc/elements/1.1/"
   xmlns:cc="http://creativecommons.org/ns#"
   xmlns:rdf="http://www.w3.org/1999/02/22-rdf-syntax-ns#"
   xmlns:svg="http://www.w3.org/2000/svg"
   xmlns="http://www.w3.org/2000/svg"
   xmlns:sodipodi="http://sodipodi.sourceforge.net/DTD/sodipodi-0.dtd"
   xmlns:inkscape="http://www.inkscape.org/namespaces/inkscape"
   width="190.24086mm"
   height="102.88518mm"
   viewBox="0 0 190.24086 102.88518"
   version="1.1"
   id="svg26904"
   inkscape:version="1.0.2 (e86c870879, 2021-01-15, custom)"
   sodipodi:docname="table-6p.svg">
  <defs
     id="defs26898" />
  <sodipodi:namedview
     id="base"
     pagecolor="#ffffff"
     bordercolor="#666666"
     borderopacity="1.0"
     inkscape:pageopacity="0.0"
     inkscape:pageshadow="2"
     inkscape:zoom="0.35"
     inkscape:cx="-460.48961"
     inkscape:cy="60.142967"
     inkscape:document-units="mm"
     inkscape:current-layer="layer1"
     inkscape:document-rotation="0"
     showgrid="false"
     inkscape:window-width="1267"
     inkscape:window-height="1030"
     inkscape:window-x="61"
     inkscape:window-y="0"
     inkscape:window-maximized="0" />
  <metadata
     id="metadata26901">
    <rdf:RDF>
      <cc:Work
         rdf:about="">
        <dc:format>image/svg+xml</dc:format>
        <dc:type
           rdf:resource="http://purl.org/dc/dcmitype/StillImage" />
        <dc:title></dc:title>
      </cc:Work>
    </rdf:RDF>
  </metadata>
  <g
     inkscape:label="Layer 1"
     inkscape:groupmode="layer"
     id="layer1"
     transform="translate(-227.67121,-132.25384)">
    <path
       d="m 347.4113,235.13902 c -10.59796,0 -18.88079,-3.36208 -19.18828,-7.39832 -0.036,-0.47346 -0.18005,-1.20474 0.0418,-1.65664 l 0.0131,0.0202 c 0.051,-0.32674 0.13757,-0.65088 0.29344,-0.96753 0.59733,1.21529 1.97334,2.32068 3.90321,3.24475 l 2.96408,-8.23804 c -0.61661,-0.28335 -1.20249,-0.58458 -1.71192,-0.91136 -0.15685,-0.45678 -0.27808,-0.9319 -0.3444,-1.42208 l -0.23887,-1.75733 -1.25216,-9.20203 h -17.32116 l -1.19988,8.8266 -0.28951,2.13276 c -0.05,0.36008 -0.12908,0.70971 -0.22743,1.05318 -0.54504,0.3944 -1.19596,0.76076 -1.89393,1.10412 l 2.96638,8.24068 c 1.74492,-0.88851 2.99316,-1.93118 3.55356,-3.07125 0.15554,0.31665 0.24377,0.6434 0.29474,0.97409 l 0.0154,-0.0268 c 0.13789,0.53357 0.1098,1.17662 0.1098,1.65043 0,4.08464 -8.66189,7.40453 -19.25887,7.40453 -10.59797,0 -18.8808,-3.36208 -19.18829,-7.39832 -0.0373,-0.47346 -0.18004,-1.20474 0.0408,-1.65664 l 0.0127,0.0202 c 0.051,-0.32674 0.1392,-0.65088 0.29474,-0.96753 0.59733,1.21529 1.97333,2.32068 3.90191,3.24475 l 2.96538,-8.23804 c -0.61791,-0.28335 -1.2038,-0.58458 -1.71192,-0.91136 -0.15815,-0.45678 -0.27808,-0.9319 -0.34571,-1.42208 l -0.23887,-1.75733 -1.25086,-9.20203 h -25.9229 v -5.87792 l -6.79933,-0.92533 -2.13443,-0.29115 c -0.35715,-0.0484 -0.70842,-0.12615 -1.05022,-0.22451 -0.39702,-0.54635 -0.76103,-1.19602 -1.10544,-1.89551 l -8.24072,2.9663 c 0.88969,1.74501 1.93122,2.99318 3.06966,3.55226 -0.3163,0.15723 -0.64176,0.24511 -0.97114,0.29767 l 0.0255,0.0128 c -0.37774,0.098 -0.81182,0.11469 -1.2024,0.11469 -0.15828,0 -0.3102,-0.004 -0.44803,-0.004 -4.08583,0 -7.40455,-8.66154 -7.40455,-19.25849 0,-10.59702 3.36211,-18.88085 7.39815,-19.18868 0.277,-0.0228 0.64333,-0.0816 0.99055,-0.0816 0.24508,0 0.48002,0.0294 0.66628,0.12125 l -0.0206,0.0127 c 0.32676,0.0526 0.65124,0.14051 0.96624,0.29506 -1.21229,0.59732 -2.31656,1.9733 -3.24196,3.90447 l 8.23689,2.96376 c 0.28592,-0.6175 0.58458,-1.20213 0.91135,-1.71284 0.45682,-0.15558 0.9316,-0.27711 1.42044,-0.34576 l 1.75898,-0.23887 7.17478,-0.97377 v -8.17562 h 26.01603 l 1.15773,-8.51521 0.23887,-1.75729 c 0.0676,-0.49019 0.18756,-0.96528 0.34571,-1.42209 0.50812,-0.32681 1.09401,-0.62808 1.71192,-0.9114 l -2.96538,-8.238 c -1.92858,0.92407 -3.30458,2.02954 -3.90191,3.24217 -0.15554,-0.31407 -0.24376,-0.63817 -0.29474,-0.96763 l -0.0127,0.0229 c -0.22089,-0.45194 -0.0781,-1.18325 -0.0408,-1.65672 0.30749,-4.03616 8.59032,-7.39827 19.18829,-7.39827 10.59698,0 19.25887,3.31635 19.25887,7.40452 0,0.47374 0.0281,1.11686 -0.1098,1.65047 l -0.0154,-0.0268 c -0.051,0.33069 -0.1392,0.65352 -0.29474,0.97151 -0.5604,-1.13756 -1.80864,-2.18023 -3.55356,-3.06867 l -2.9654,8.24068 c 0.69699,0.34343 1.34791,0.70577 1.89295,1.10416 0.0983,0.34343 0.17743,0.69307 0.22743,1.05315 l 0.28951,2.13278 1.10675,8.13972 h 17.50741 l 1.15904,-8.51521 0.23887,-1.75729 c 0.0663,-0.49019 0.18755,-0.96528 0.3444,-1.42209 0.50943,-0.32681 1.09531,-0.62808 1.71192,-0.9114 l -2.96408,-8.238 c -1.92987,0.92407 -3.30588,2.02954 -3.90321,3.24217 -0.15587,-0.31407 -0.24246,-0.63817 -0.29344,-0.96763 l -0.0131,0.0229 c -0.22188,-0.45194 -0.0778,-1.18325 -0.0418,-1.65672 0.30749,-4.03616 8.59032,-7.39827 19.18828,-7.39827 10.5983,0 19.26018,3.31635 19.26018,7.40452 0,0.47374 0.0281,1.11686 -0.1098,1.65047 l -0.0154,-0.0268 c -0.051,0.33069 -0.1392,0.65352 -0.29507,0.97151 -0.56138,-1.13756 -1.80864,-2.18023 -3.55357,-3.06867 l -2.96637,8.24068 c 0.6983,0.34343 1.3479,0.70577 1.89295,1.10416 0.0983,0.34343 0.17874,0.69307 0.22743,1.05315 l 0.28952,2.13278 1.10805,8.13972 h 31.02207 v 8.5315 l 4.55445,0.61789 1.75898,0.23887 c 0.48884,0.0687 0.96363,0.19018 1.42044,0.34576 0.32676,0.51071 0.62576,1.09534 0.91168,1.71284 l 8.23676,-2.96376 c -0.9254,-1.93117 -2.02954,-3.30715 -3.24216,-3.90447 0.31532,-0.15455 0.63948,-0.2425 0.96755,-0.29506 l -0.0219,-0.0127 c 0.18757,-0.0919 0.42251,-0.12125 0.66759,-0.12125 0.34604,0 0.71235,0.0588 0.98944,0.0816 4.03587,0.30783 7.39795,8.59166 7.39795,19.18868 0,10.59695 -3.31862,19.25849 -7.40448,19.25849 -0.1379,0 -0.28984,0.004 -0.448,0.004 -0.3895,0 -0.82344,-0.0167 -1.2025,-0.11469 l 0.0255,-0.0128 c -0.32906,-0.0526 -0.65485,-0.14044 -0.97115,-0.29767 1.13845,-0.55908 2.18017,-1.80725 3.06963,-3.55226 l -8.24069,-2.9663 c -0.34441,0.69949 -0.70842,1.34916 -1.10511,1.89551 -0.34212,0.0984 -0.69307,0.17611 -1.05055,0.22451 l -2.1341,0.29115 -4.17933,0.56927 v 6.23398 H 363.3424 l -1.20118,8.8266 -0.28952,2.13276 c -0.0487,0.36008 -0.12908,0.70971 -0.22743,1.05318 -0.54505,0.3944 -1.19465,0.76076 -1.89295,1.10412 l 2.96637,8.24068 c 1.74493,-0.88851 2.99219,-1.93118 3.55357,-3.07125 0.15587,0.31665 0.24409,0.6434 0.29507,0.97409 l 0.0154,-0.0268 c 0.1379,0.53357 0.1098,1.17662 0.1098,1.65043 0,4.08464 -8.66188,7.40453 -19.26018,7.40453 m 3.6967,-12.91375 c -0.51956,0.0523 -1.04042,0.10456 -1.57632,0.13659 v 8.73834 c 0.91756,-0.0395 1.81616,-0.1046 2.69059,-0.19021 l -1.11427,-8.68472 m -7.39306,0.006 -1.11328,8.67823 c 0.87442,0.0896 1.77302,0.15067 2.69221,0.19021 v -8.73834 c -0.53753,-0.0294 -1.05937,-0.0778 -1.57893,-0.1301 m -41.37921,-0.006 c -0.51956,0.0523 -1.03911,0.10456 -1.57631,0.13659 v 8.73834 c 0.91755,-0.0395 1.81615,-0.1046 2.69058,-0.19021 l -1.11427,-8.68472 m -7.39305,0.006 -1.11296,8.67823 c 0.87409,0.0896 1.774,0.15067 2.69188,0.19021 v -8.73834 c -0.53752,-0.0294 -1.05936,-0.0778 -1.57892,-0.1301 m 43.14047,-1.08748 -2.98042,8.27991 c 1.01624,0.32678 2.1292,0.61041 3.30718,0.85291 l 1.1195,-8.73837 c -0.50028,-0.11766 -0.97898,-0.25418 -1.44626,-0.39445 m -48.77194,0 -2.97944,8.27991 c 1.01493,0.32678 2.12789,0.61041 3.3062,0.85291 l 1.12048,-8.73837 c -0.50027,-0.11766 -0.98029,-0.25418 -1.44724,-0.39445 m 67.79587,-0.12149 c -0.57805,0.18658 -1.18453,0.35253 -1.81519,0.50676 l 1.12212,8.74755 c 1.32372,-0.27188 2.55399,-0.6012 3.66957,-0.9803 l -2.9765,-8.27401 m -48.77228,0 c -0.57804,0.18658 -1.18452,0.35253 -1.81485,0.50676 l 1.12179,8.74755 c 1.32503,-0.27188 2.55563,-0.6012 3.6712,-0.9803 l -2.97814,-8.27401 m 95.96692,-27.82468 c -0.15194,0.632 -0.32056,1.2355 -0.50681,1.81388 l 8.27368,2.97649 c 0.37905,-1.11425 0.70843,-2.34583 0.9816,-3.66829 l -8.74847,-1.12208 m -159.75501,0 -8.7485,1.12208 c 0.27314,1.32246 0.60249,2.55404 0.98157,3.66829 l 8.27375,-2.97649 c -0.18626,-0.57838 -0.35487,-1.18188 -0.50682,-1.81388 m 160.58728,-5.76058 c -0.0307,0.53622 -0.0817,1.05579 -0.13528,1.57536 l 8.68475,1.11425 c 0.0866,-0.87178 0.14934,-1.77433 0.18887,-2.68961 h -8.73834 m -170.15779,0 c 0.0396,0.91528 0.10211,1.81783 0.1889,2.68961 l 8.68495,-1.11425 c -0.0526,-0.51957 -0.10489,-1.03914 -0.13561,-1.57536 h -8.73824 m 178.70726,-6.93099 -8.67985,1.11199 c 0.0523,0.51922 0.10227,1.04137 0.13267,1.58119 h 8.73605 c -0.0395,-0.91758 -0.10227,-1.81741 -0.18887,-2.69318 m -178.51836,0 c -0.0868,0.87577 -0.14933,1.7756 -0.1889,2.69318 h 8.73596 c 0.0304,-0.53982 0.0804,-1.06197 0.13266,-1.58119 l -8.67972,-1.11199 m 177.03256,-7.49893 -8.28022,2.98041 c 0.14182,0.46736 0.2758,0.94728 0.39572,1.44762 l 8.73703,-1.12084 c -0.24246,-1.17666 -0.52446,-2.29133 -0.85253,-3.30719 m -175.54552,0 c -0.32804,1.01586 -0.61141,2.13053 -0.85393,3.30719 l 8.73707,1.12084 c 0.11992,-0.50034 0.2552,-0.98026 0.39571,-1.44762 l -8.27885,-2.98041 m 119.76187,-33.84956 -1.12212,8.74752 c 0.63066,0.1542 1.23714,0.32018 1.81519,0.50676 l 2.9765,-8.27398 c -1.11558,-0.37906 -2.34585,-0.70848 -3.66957,-0.9803 m -48.77227,0 -1.12179,8.74752 c 0.63033,0.1542 1.23681,0.32018 1.81485,0.50676 l 2.97814,-8.27398 c -1.11557,-0.37906 -2.34617,-0.70848 -3.6712,-0.9803 m 30.76817,0 c -1.17798,0.24247 -2.29094,0.52349 -3.30718,0.85277 l 2.98042,8.27995 c 0.46728,-0.14277 0.94598,-0.27679 1.44626,-0.39797 l -1.1195,-8.73475 m -48.77194,0 c -1.17831,0.24247 -2.29127,0.52349 -3.3062,0.85277 l 2.97944,8.27995 c 0.46826,-0.14277 0.94697,-0.27679 1.44724,-0.39797 l -1.12048,-8.73475 m 59.89371,-0.82313 v 8.73703 c 0.5359,0.0333 1.05676,0.083 1.57632,0.1379 l 1.11427,-8.68468 c -0.87443,-0.0896 -1.77303,-0.15071 -2.69059,-0.19025 m -48.77226,0 v 8.73703 c 0.5372,0.0333 1.05675,0.083 1.57631,0.1379 l 1.11427,-8.68468 c -0.87443,-0.0896 -1.77303,-0.15071 -2.69058,-0.19025 m 44.53445,0 c -0.91919,0.0395 -1.81779,0.10064 -2.69221,0.19025 l 1.11198,8.67819 c 0.52086,-0.0523 1.0427,-0.10064 1.58023,-0.13402 v -8.73442 m -48.77227,0 c -0.91788,0.0395 -1.81779,0.10064 -2.69188,0.19025 l 1.11296,8.67819 c 0.51956,-0.0523 1.0414,-0.10064 1.57892,-0.13402 v -8.73442"
       style="fill:#949183;fill-opacity:1;fill-rule:nonzero;stroke:none;stroke-width:0.326765"
       id="path24" />
    <path
       d="m 295.374,136.24393 c 9.36509,0 17.15386,2.58731 18.83898,6.01222 0.22187,-0.45068 0.34963,-0.91532 0.34963,-1.38882 0,-4.08453 -8.59162,-7.39831 -19.18861,-7.39831 -10.59796,0 -19.18829,3.31378 -19.18829,7.39831 0,0.4735 0.12614,0.93814 0.34834,1.38882 1.6848,-3.42491 9.47357,-6.01222 18.83995,-6.01222"
       style="fill:#653a25;fill-opacity:1;fill-rule:nonzero;stroke:none;stroke-width:0.326765"
       id="path590" />
    <path
       d="m 309.58697,148.52967 c -2.9203,-2.1305 -8.18448,-3.56137 -14.21297,-3.56137 -5.67492,0 -10.67965,1.26517 -13.68459,3.19247 -0.15815,0.45677 -0.27807,0.93189 -0.34571,1.42208 l -0.23886,1.75729 c 2.90788,-2.153 8.20637,-3.59798 14.26916,-3.59798 6.40656,0 11.95012,1.61459 14.72991,3.97344 l -0.28951,-2.13275 c -0.05,-0.36008 -0.12908,-0.70979 -0.22743,-1.05318"
       style="fill:#9b5e3a;fill-opacity:1;fill-rule:nonzero;stroke:none;stroke-width:0.326765"
       id="path592" />
    <path
       d="m 286.78499,148.30745 -2.65889,0.95483 -4.53516,-12.60073 2.66019,-0.9574 4.53386,12.6033"
       style="fill:#9b5e3a;fill-opacity:1;fill-rule:nonzero;stroke:none;stroke-width:0.326765"
       id="path594" />
    <path
       d="m 304.37279,148.30745 2.66019,0.95483 4.53517,-12.60073 -2.6602,-0.9574 -4.53516,12.6033"
       style="fill:#9b5e3a;fill-opacity:1;fill-rule:nonzero;stroke:none;stroke-width:0.326765"
       id="path596" />
    <path
       d="m 287.62118,146.85757 -1.54069,-12.02263 4.20317,-0.53883 1.5407,12.02136 -4.20318,0.5401"
       style="fill:#9b5e3a;fill-opacity:1;fill-rule:nonzero;stroke:none;stroke-width:0.326765"
       id="path598" />
    <path
       d="m 297.49308,145.81719 h -4.23782 v -11.71384 h 4.23782 v 11.71384"
       style="fill:#947549;fill-opacity:1;fill-rule:nonzero;stroke:none;stroke-width:0.326765"
       id="path600" />
    <path
       d="m 303.12715,146.85757 -4.20448,-0.5401 1.54168,-12.02136 4.20481,0.53883 -1.54201,12.02263"
       style="fill:#9b5e3a;fill-opacity:1;fill-rule:nonzero;stroke:none;stroke-width:0.326765"
       id="path602" />
    <path
       d="m 297.49308,145.81719 h -4.23782 v -11.71384 h 4.23782 v 11.71384"
       style="fill:#9b5e3a;fill-opacity:1;fill-rule:nonzero;stroke:none;stroke-width:0.326765"
       id="path604" />
    <path
       d="m 281.10484,151.34014 -1.57631,11.59658 c -0.45454,3.34282 1.53285,6.07452 4.41655,6.07452 h 23.26794 c 2.88337,0 4.87076,-2.7317 4.41623,-6.07452 l -1.52534,-11.22112 c -2.77979,-2.35885 -8.32335,-3.97344 -14.72991,-3.97344 -6.06279,0 -11.36128,1.44498 -14.26916,3.59798"
       style="fill:#cc7c54;fill-opacity:1;fill-rule:nonzero;stroke:none;stroke-width:0.326765"
       id="path606" />
    <path
       d="m 307.21302,167.31861 h -23.26794 c -2.34487,0 -4.09731,-1.80989 -4.42537,-4.28353 -0.40226,3.29671 1.56977,5.97616 4.42537,5.97616 h 23.26794 c 2.85527,0 4.8273,-2.67945 4.42538,-5.97616 -0.32808,2.47364 -2.07953,4.28353 -4.42538,4.28353"
       style="fill:#f8a980;fill-opacity:1;fill-rule:nonzero;stroke:none;stroke-width:0.326765"
       id="path608" />
    <path
       d="m 295.374,135.0277 c 9.36509,0 17.46428,2.85922 19.14908,6.28113 0.13789,-0.53364 0.10979,-1.17669 0.10979,-1.65057 0,-4.0845 -8.66188,-7.40442 -19.25887,-7.40442 -10.59796,0 -18.8808,3.36204 -19.18829,7.39828 -0.0372,0.4735 -0.18004,1.20477 0.0409,1.65671 1.6861,-3.42191 9.78105,-6.28113 19.14743,-6.28113"
       style="fill:#9b5e3a;fill-opacity:1;fill-rule:nonzero;stroke:none;stroke-width:0.326765"
       id="path610" />
    <path
       d="m 344.14496,136.24393 c 9.36639,0 17.15385,2.58731 18.83996,6.01222 0.22089,-0.45068 0.34866,-0.91532 0.34866,-1.38882 0,-4.08453 -8.59033,-7.39831 -19.18862,-7.39831 -10.59698,0 -19.18861,3.31378 -19.18861,7.39831 0,0.4735 0.12776,0.93814 0.34997,1.38882 1.6848,-3.42491 9.47226,-6.01222 18.83864,-6.01222"
       style="fill:#653a25;fill-opacity:1;fill-rule:nonzero;stroke:none;stroke-width:0.326765"
       id="path612" />
    <path
       d="m 358.35793,148.52967 c -2.9203,-2.1305 -8.18448,-3.56137 -14.21297,-3.56137 -5.67493,0 -10.67965,1.26517 -13.68458,3.19247 -0.15684,0.45677 -0.27808,0.93189 -0.34441,1.42208 l -0.23886,1.75729 c 2.90787,-2.153 8.20474,-3.59798 14.26785,-3.59798 6.40786,0 11.95111,1.61459 14.73121,3.97344 l -0.29082,-2.13275 c -0.0487,-0.36008 -0.12776,-0.70979 -0.22742,-1.05318"
       style="fill:#9b5e3a;fill-opacity:1;fill-rule:nonzero;stroke:none;stroke-width:0.326765"
       id="path614" />
    <path
       d="m 335.55725,148.30745 -2.66018,0.95483 -4.53517,-12.60073 2.66019,-0.9574 4.53516,12.6033"
       style="fill:#9b5e3a;fill-opacity:1;fill-rule:nonzero;stroke:none;stroke-width:0.326765"
       id="path616" />
    <path
       d="m 353.14374,148.30745 2.66019,0.95483 4.53517,-12.60073 -2.66019,-0.9574 -4.53517,12.6033"
       style="fill:#9b5e3a;fill-opacity:1;fill-rule:nonzero;stroke:none;stroke-width:0.326765"
       id="path618" />
    <path
       d="m 336.39214,146.85757 -1.5407,-12.02263 4.20448,-0.53883 1.5407,12.02136 -4.20448,0.5401"
       style="fill:#9b5e3a;fill-opacity:1;fill-rule:nonzero;stroke:none;stroke-width:0.326765"
       id="path620" />
    <path
       d="m 346.26501,145.81719 h -4.23748 v -11.71384 h 4.23748 v 11.71384"
       style="fill:#947549;fill-opacity:1;fill-rule:nonzero;stroke:none;stroke-width:0.326765"
       id="path622" />
    <path
       d="m 351.89812,146.85757 -4.20448,-0.5401 1.54297,-12.02136 4.20318,0.53883 -1.54167,12.02263"
       style="fill:#9b5e3a;fill-opacity:1;fill-rule:nonzero;stroke:none;stroke-width:0.326765"
       id="path624" />
    <path
       d="m 346.26501,145.81719 h -4.23748 v -11.71384 h 4.23748 v 11.71384"
       style="fill:#9b5e3a;fill-opacity:1;fill-rule:nonzero;stroke:none;stroke-width:0.326765"
       id="path626" />
    <path
       d="m 329.87711,151.34014 -1.57632,11.59658 c -0.45453,3.34282 1.53286,6.07452 4.41623,6.07452 h 23.26827 c 2.88338,0 4.87075,-2.7317 4.41623,-6.07452 l -1.52535,-11.22112 c -2.7801,-2.35885 -8.32335,-3.97344 -14.73121,-3.97344 -6.06311,0 -11.35998,1.44498 -14.26785,3.59798"
       style="fill:#cc7c54;fill-opacity:1;fill-rule:nonzero;stroke:none;stroke-width:0.326765"
       id="path628" />
    <path
       d="m 355.98529,167.31861 h -23.26827 c -2.34585,0 -4.0973,-1.80989 -4.42506,-4.28353 -0.40354,3.29671 1.56978,5.97616 4.42506,5.97616 h 23.26827 c 2.85527,0 4.82729,-2.67945 4.42505,-5.97616 -0.32775,2.47364 -2.08051,4.28353 -4.42505,4.28353"
       style="fill:#f8a980;fill-opacity:1;fill-rule:nonzero;stroke:none;stroke-width:0.326765"
       id="path630" />
    <path
       d="m 344.14496,135.0277 c 9.36639,0 17.46395,2.85922 19.15038,6.28113 0.13757,-0.53364 0.1098,-1.17669 0.1098,-1.65057 0,-4.0845 -8.66189,-7.40442 -19.26018,-7.40442 -10.59698,0 -18.87949,3.36204 -19.18861,7.39828 -0.0356,0.4735 -0.17972,1.20477 0.0422,1.65671 1.68643,-3.42191 9.78007,-6.28113 19.14645,-6.28113"
       style="fill:#9b5e3a;fill-opacity:1;fill-rule:nonzero;stroke:none;stroke-width:0.326765"
       id="path632" />
    <path
       d="m 295.374,229.10662 c 9.36509,0 17.15386,-2.58734 18.83898,-6.00953 0.22187,0.44795 0.34963,0.9126 0.34963,1.38613 0,4.08718 -8.59162,7.39828 -19.18861,7.39828 -10.59796,0 -19.18829,-3.3111 -19.18829,-7.39828 0,-0.47353 0.12614,-0.93818 0.34834,-1.38613 1.6848,3.42219 9.47357,6.00953 18.83995,6.00953"
       style="fill:#653a25;fill-opacity:1;fill-rule:nonzero;stroke:none;stroke-width:0.326765"
       id="path634" />
    <path
       d="m 309.58697,216.82092 c -2.9203,2.13276 -8.18448,3.5614 -14.21297,3.5614 -5.67492,0 -10.67965,-1.26527 -13.68459,-3.1925 -0.15815,-0.45685 -0.27807,-0.93197 -0.34571,-1.42208 l -0.23886,-1.75733 c 2.90788,2.15696 8.20637,3.59798 14.26916,3.59798 6.40656,0 11.95012,-1.61456 14.72991,-3.97347 l -0.28951,2.13282 c -0.05,0.36004 -0.12908,0.70972 -0.22743,1.05318"
       style="fill:#9b5e3a;fill-opacity:1;fill-rule:nonzero;stroke:none;stroke-width:0.326765"
       id="path636" />
    <path
       d="m 286.78499,217.04571 -2.65889,-0.95744 -4.53516,12.60073 2.66019,0.95741 4.53386,-12.6007"
       style="fill:#9b5e3a;fill-opacity:1;fill-rule:nonzero;stroke:none;stroke-width:0.326765"
       id="path638" />
    <path
       d="m 304.37279,217.04571 2.66019,-0.95744 4.53517,12.60073 -2.6602,0.95741 -4.53516,-12.6007"
       style="fill:#9b5e3a;fill-opacity:1;fill-rule:nonzero;stroke:none;stroke-width:0.326765"
       id="path640" />
    <path
       d="m 287.62118,218.4969 -1.54069,12.02129 4.20317,0.53622 1.5407,-12.02132 -4.20318,-0.53619"
       style="fill:#9b5e3a;fill-opacity:1;fill-rule:nonzero;stroke:none;stroke-width:0.326765"
       id="path642" />
    <path
       d="m 297.49308,219.53205 h -4.23782 v 11.71523 h 4.23782 v -11.71523"
       style="fill:#947549;fill-opacity:1;fill-rule:nonzero;stroke:none;stroke-width:0.326765"
       id="path644" />
    <path
       d="m 303.12715,218.4969 -4.20448,0.53619 1.54168,12.02132 4.20481,-0.53622 -1.54201,-12.02129"
       style="fill:#9b5e3a;fill-opacity:1;fill-rule:nonzero;stroke:none;stroke-width:0.326765"
       id="path646" />
    <path
       d="m 297.49308,219.53205 h -4.23782 v 11.71523 h 4.23782 v -11.71523"
       style="fill:#9b5e3a;fill-opacity:1;fill-rule:nonzero;stroke:none;stroke-width:0.326765"
       id="path648" />
    <path
       d="m 281.10484,214.01041 -1.57631,-11.59393 c -0.45454,-3.34286 1.53285,-6.0772 4.41655,-6.0772 h 23.26794 c 2.88337,0 4.87076,2.73434 4.41623,6.0772 l -1.52534,11.21844 c -2.77979,2.35891 -8.32335,3.97347 -14.72991,3.97347 -6.06279,0 -11.36128,-1.44102 -14.26916,-3.59798"
       style="fill:#cc7c54;fill-opacity:1;fill-rule:nonzero;stroke:none;stroke-width:0.326765"
       id="path650" />
    <path
       d="m 307.21302,198.03452 h -23.26794 c -2.34487,0 -4.09731,1.81126 -4.42537,4.28357 -0.40226,-3.29707 1.56977,-5.97881 4.42537,-5.97881 h 23.26794 c 2.85527,0 4.8273,2.68174 4.42538,5.97881 -0.32808,-2.47231 -2.07953,-4.28357 -4.42538,-4.28357"
       style="fill:#f8a980;fill-opacity:1;fill-rule:nonzero;stroke:none;stroke-width:0.326765"
       id="path652" />
    <path
       d="m 295.374,230.32282 c 9.36509,0 17.46428,-2.85658 19.14908,-6.28107 0.13789,0.53362 0.10979,1.17666 0.10979,1.65048 0,4.08816 -8.66188,7.40452 -19.25887,7.40452 -10.59796,0 -18.8808,-3.35982 -19.18829,-7.39828 -0.0372,-0.47357 -0.18004,-1.20484 0.0409,-1.65672 1.6861,3.42449 9.78105,6.28107 19.14743,6.28107"
       style="fill:#9b5e3a;fill-opacity:1;fill-rule:nonzero;stroke:none;stroke-width:0.326765"
       id="path654" />
    <path
       d="m 231.66133,183.27521 c 0,9.3677 2.58857,17.15513 6.01068,18.84123 -0.45058,0.2183 -0.91266,0.34607 -1.38748,0.34607 -4.08583,0 -7.39815,-8.59031 -7.39815,-19.1873 0,-10.59695 3.31232,-19.18861 7.39815,-19.18861 0.47482,0 0.9369,0.12778 1.38748,0.34999 -3.42211,1.68349 -6.01068,9.47357 -6.01068,18.83862"
       style="fill:#653a25;fill-opacity:1;fill-rule:nonzero;stroke:none;stroke-width:0.326765"
       id="path656" />
    <path
       d="m 243.94808,197.48951 c -2.13279,-2.9216 -3.56239,-8.18586 -3.56239,-14.2143 0,-5.67228 1.26491,-10.67865 3.19119,-13.68587 0.45812,-0.15554 0.9316,-0.27711 1.42175,-0.34213 l 1.75767,-0.23851 c -2.15338,2.90484 -3.59572,8.20473 -3.59572,14.26651 0,6.40754 1.61356,11.95247 3.97215,14.72992 l -2.1341,-0.29115 c -0.35846,-0.0484 -0.70843,-0.12615 -1.05055,-0.22447"
       style="fill:#9b5e3a;fill-opacity:1;fill-rule:nonzero;stroke:none;stroke-width:0.326765"
       id="path658" />
    <path
       d="m 243.72229,174.68751 0.95742,-2.6602 -12.601,-4.5352 -0.95732,2.66023 12.6009,4.53517"
       style="fill:#9b5e3a;fill-opacity:1;fill-rule:nonzero;stroke:none;stroke-width:0.326765"
       id="path660" />
    <path
       d="m 243.72229,192.27401 0.95742,2.66019 -12.601,4.53517 -0.95732,-2.66023 12.6009,-4.53513"
       style="fill:#9b5e3a;fill-opacity:1;fill-rule:nonzero;stroke:none;stroke-width:0.326765"
       id="path662" />
    <path
       d="m 242.2721,175.52073 -12.02125,-1.5391 -0.53736,4.20585 12.02141,1.53939 0.5372,-4.20614"
       style="fill:#9b5e3a;fill-opacity:1;fill-rule:nonzero;stroke:none;stroke-width:0.326765"
       id="path664" />
    <path
       d="m 241.23463,185.39526 v -4.23777 h -11.71387 v 4.23777 h 11.71387"
       style="fill:#947549;fill-opacity:1;fill-rule:nonzero;stroke:none;stroke-width:0.326765"
       id="path666" />
    <path
       d="m 242.2721,191.02937 -0.5372,-4.20581 -12.02141,1.54199 0.53736,4.20581 12.02125,-1.54199"
       style="fill:#9b5e3a;fill-opacity:1;fill-rule:nonzero;stroke:none;stroke-width:0.326765"
       id="path668" />
    <path
       d="m 241.23463,185.39526 v -4.23777 h -11.71387 v 4.23777 h 11.71387"
       style="fill:#9b5e3a;fill-opacity:1;fill-rule:nonzero;stroke:none;stroke-width:0.326765"
       id="path670" />
    <path
       d="m 246.7563,169.0087 11.59623,-1.57896 c 3.34313,-0.45452 6.07717,1.53285 6.07717,4.41755 v 23.26661 c 0,2.88502 -2.73404,4.8724 -6.07717,4.41784 l -11.2198,-1.52661 c -2.35859,-2.77745 -3.97215,-8.32238 -3.97215,-14.72992 0,-6.06178 1.44234,-11.36167 3.59572,-14.26651"
       style="fill:#cc7c54;fill-opacity:1;fill-rule:nonzero;stroke:none;stroke-width:0.326765"
       id="path672" />
    <path
       d="m 262.73477,195.1139 v -23.26661 c 0,-2.34587 -1.81027,-4.09734 -4.28388,-4.42665 3.29574,-0.40196 5.97881,1.57137 5.97881,4.42665 v 23.26661 c 0,2.8556 -2.68307,4.82893 -5.97881,4.42666 2.47361,-0.32932 4.28388,-2.08047 4.28388,-4.42666"
       style="fill:#f8a980;fill-opacity:1;fill-rule:nonzero;stroke:none;stroke-width:0.326765"
       id="path674" />
    <path
       d="m 230.44488,183.27521 c 0,9.3677 2.85792,17.46529 6.28,19.15139 -0.53227,0.13656 -1.17557,0.10717 -1.65039,0.10717 -4.08584,0 -7.40328,-8.66157 -7.40328,-19.25856 0,-10.59695 3.36084,-18.88077 7.39815,-19.18861 0.4723,-0.0356 1.20622,-0.17871 1.65552,0.0435 -3.42208,1.6861 -6.28,9.78009 -6.28,19.14514"
       style="fill:#9b5e3a;fill-opacity:1;fill-rule:nonzero;stroke:none;stroke-width:0.326765"
       id="path676" />
    <path
       d="m 410.65566,183.27521 c 0,9.3677 -2.58863,17.15513 -6.01051,18.84123 0.4493,0.2183 0.91265,0.34607 1.38744,0.34607 4.08587,0 7.39796,-8.59031 7.39796,-19.1873 0,-10.59695 -3.31209,-19.18861 -7.39796,-19.18861 -0.47479,0 -0.93814,0.12778 -1.38744,0.34999 3.42188,1.68349 6.01051,9.47357 6.01051,18.83862"
       style="fill:#653a25;fill-opacity:1;fill-rule:nonzero;stroke:none;stroke-width:0.326765"
       id="path678" />
    <path
       d="m 398.36897,197.48951 c 2.1328,-2.9216 3.56108,-8.18586 3.56108,-14.2143 0,-5.67228 -1.26359,-10.67865 -3.19118,-13.68587 -0.45682,-0.15554 -0.9303,-0.27711 -1.42044,-0.34213 l -1.75768,-0.23851 c 2.15339,2.90484 3.59573,8.20473 3.59573,14.26651 0,6.40754 -1.61357,11.95247 -3.97248,14.72992 l 2.13443,-0.29115 c 0.35846,-0.0484 0.70842,-0.12615 1.05054,-0.22447"
       style="fill:#9b5e3a;fill-opacity:1;fill-rule:nonzero;stroke:none;stroke-width:0.326765"
       id="path680" />
    <path
       d="m 398.59346,174.68751 -0.95742,-2.6602 12.60104,-4.5352 0.95741,2.66023 -12.60103,4.53517"
       style="fill:#9b5e3a;fill-opacity:1;fill-rule:nonzero;stroke:none;stroke-width:0.326765"
       id="path682" />
    <path
       d="m 398.59346,192.27401 -0.95742,2.66019 12.60104,4.53517 0.95741,-2.66023 -12.60103,-4.53513"
       style="fill:#9b5e3a;fill-opacity:1;fill-rule:nonzero;stroke:none;stroke-width:0.326765"
       id="path684" />
    <path
       d="m 400.04364,175.52073 12.02135,-1.5391 0.53721,4.20585 -12.02005,1.53939 -0.53851,-4.20614"
       style="fill:#9b5e3a;fill-opacity:1;fill-rule:nonzero;stroke:none;stroke-width:0.326765"
       id="path686" />
    <path
       d="m 401.08243,185.39526 v -4.23777 h 11.71387 v 4.23777 h -11.71387"
       style="fill:#947549;fill-opacity:1;fill-rule:nonzero;stroke:none;stroke-width:0.326765"
       id="path688" />
    <path
       d="m 400.04364,191.02937 0.53851,-4.20581 12.02005,1.54199 -0.53721,4.20581 -12.02135,-1.54199"
       style="fill:#9b5e3a;fill-opacity:1;fill-rule:nonzero;stroke:none;stroke-width:0.326765"
       id="path690" />
    <path
       d="m 401.08243,185.39526 v -4.23777 h 11.71387 v 4.23777 h -11.71387"
       style="fill:#9b5e3a;fill-opacity:1;fill-rule:nonzero;stroke:none;stroke-width:0.326765"
       id="path692" />
    <path
       d="m 395.56075,169.0087 -11.59622,-1.57896 c -3.34314,-0.45452 -6.07717,1.53285 -6.07717,4.41755 v 23.26661 c 0,2.88502 2.73403,4.8724 6.07717,4.41784 l 11.21947,-1.52661 c 2.35891,-2.77745 3.97248,-8.32238 3.97248,-14.72992 0,-6.06178 -1.44234,-11.36167 -3.59573,-14.26651"
       style="fill:#cc7c54;fill-opacity:1;fill-rule:nonzero;stroke:none;stroke-width:0.326765"
       id="path694" />
    <path
       d="m 379.58229,195.1139 v -23.26661 c 0,-2.34587 1.80994,-4.09734 4.28388,-4.42665 -3.29705,-0.40196 -5.97881,1.57137 -5.97881,4.42665 v 23.26661 c 0,2.8556 2.68176,4.82893 5.97881,4.42666 -2.47394,-0.32932 -4.28388,-2.08047 -4.28388,-4.42666"
       style="fill:#f8a980;fill-opacity:1;fill-rule:nonzero;stroke:none;stroke-width:0.326765"
       id="path696" />
    <path
       d="m 411.8722,183.27521 c 0,9.3677 -2.85788,17.46529 -6.28009,19.15139 0.5323,0.13656 1.1757,0.10717 1.64918,0.10717 4.08587,0 7.4045,-8.66157 7.4045,-19.25856 0,-10.59695 -3.36078,-18.88077 -7.39828,-19.18861 -0.47349,-0.0356 -1.20609,-0.17871 -1.6554,0.0435 3.42221,1.6861 6.28009,9.78009 6.28009,19.14514"
       style="fill:#9b5e3a;fill-opacity:1;fill-rule:nonzero;stroke:none;stroke-width:0.326765"
       id="path698" />
    <path
       d="m 344.14496,229.10662 c 9.36639,0 17.15385,-2.58734 18.83996,-6.00953 0.22089,0.44795 0.34866,0.9126 0.34866,1.38613 0,4.08718 -8.59033,7.39828 -19.18862,7.39828 -10.59698,0 -19.18861,-3.3111 -19.18861,-7.39828 0,-0.47353 0.12776,-0.93818 0.34997,-1.38613 1.6848,3.42219 9.47226,6.00953 18.83864,6.00953"
       style="fill:#653a25;fill-opacity:1;fill-rule:nonzero;stroke:none;stroke-width:0.326765"
       id="path700" />
    <path
       d="m 358.35793,216.82092 c -2.9203,2.13276 -8.18448,3.5614 -14.21297,3.5614 -5.67493,0 -10.67965,-1.26527 -13.68458,-3.1925 -0.15684,-0.45685 -0.27808,-0.93197 -0.34441,-1.42208 l -0.23886,-1.75733 c 2.90787,2.15696 8.20474,3.59798 14.26785,3.59798 6.40786,0 11.95111,-1.61456 14.73121,-3.97347 l -0.29082,2.13282 c -0.0487,0.36004 -0.12776,0.70972 -0.22742,1.05318"
       style="fill:#9b5e3a;fill-opacity:1;fill-rule:nonzero;stroke:none;stroke-width:0.326765"
       id="path702" />
    <path
       d="m 335.55725,217.04571 -2.66018,-0.95744 -4.53517,12.60073 2.66019,0.95741 4.53516,-12.6007"
       style="fill:#9b5e3a;fill-opacity:1;fill-rule:nonzero;stroke:none;stroke-width:0.326765"
       id="path704" />
    <path
       d="m 353.14374,217.04571 2.66019,-0.95744 4.53517,12.60073 -2.66019,0.95741 -4.53517,-12.6007"
       style="fill:#9b5e3a;fill-opacity:1;fill-rule:nonzero;stroke:none;stroke-width:0.326765"
       id="path706" />
    <path
       d="m 336.39214,218.4969 -1.5407,12.02129 4.20448,0.53622 1.5407,-12.02132 -4.20448,-0.53619"
       style="fill:#9b5e3a;fill-opacity:1;fill-rule:nonzero;stroke:none;stroke-width:0.326765"
       id="path708" />
    <path
       d="m 346.26501,219.53205 h -4.23748 v 11.71523 h 4.23748 v -11.71523"
       style="fill:#947549;fill-opacity:1;fill-rule:nonzero;stroke:none;stroke-width:0.326765"
       id="path710" />
    <path
       d="m 351.89812,218.4969 -4.20448,0.53619 1.54297,12.02132 4.20318,-0.53622 -1.54167,-12.02129"
       style="fill:#9b5e3a;fill-opacity:1;fill-rule:nonzero;stroke:none;stroke-width:0.326765"
       id="path712" />
    <path
       d="m 346.26501,219.53205 h -4.23748 v 11.71523 h 4.23748 v -11.71523"
       style="fill:#9b5e3a;fill-opacity:1;fill-rule:nonzero;stroke:none;stroke-width:0.326765"
       id="path714" />
    <path
       d="m 329.87711,214.01041 -1.57632,-11.59393 c -0.45453,-3.34286 1.53286,-6.0772 4.41623,-6.0772 h 23.26827 c 2.88338,0 4.87075,2.73434 4.41623,6.0772 l -1.52535,11.21844 c -2.7801,2.35891 -8.32335,3.97347 -14.73121,3.97347 -6.06311,0 -11.35998,-1.44102 -14.26785,-3.59798"
       style="fill:#cc7c54;fill-opacity:1;fill-rule:nonzero;stroke:none;stroke-width:0.326765"
       id="path716" />
    <path
       d="m 355.98529,198.03452 h -23.26827 c -2.34585,0 -4.0973,1.81126 -4.42506,4.28357 -0.40354,-3.29707 1.56978,-5.97881 4.42506,-5.97881 h 23.26827 c 2.85527,0 4.82729,2.68174 4.42505,5.97881 -0.32775,-2.47231 -2.08051,-4.28357 -4.42505,-4.28357"
       style="fill:#f8a980;fill-opacity:1;fill-rule:nonzero;stroke:none;stroke-width:0.326765"
       id="path718" />
    <path
       d="m 344.14496,230.32282 c 9.36639,0 17.46395,-2.85658 19.15038,-6.28107 0.13757,0.53362 0.1098,1.17666 0.1098,1.65048 0,4.08816 -8.66189,7.40452 -19.26018,7.40452 -10.59698,0 -18.87949,-3.35982 -19.18861,-7.39828 -0.0356,-0.47357 -0.17972,-1.20484 0.0422,-1.65672 1.68643,3.42449 9.78007,6.28107 19.14645,6.28107"
       style="fill:#9b5e3a;fill-opacity:1;fill-rule:nonzero;stroke:none;stroke-width:0.326765"
       id="path720" />
    <path
       d="M 253.93107,204.80834 V 159.85927 H 391.005 v 44.94907 H 253.93107"
       style="fill:#a1613b;fill-opacity:1;fill-rule:nonzero;stroke:none;stroke-width:0.326765"
       id="path842" />
    <path
       d="m 388.19319,201.976 h -131.449 v -39.28439 h 131.449 V 201.976"
       style="fill:#414042;fill-opacity:1;fill-rule:nonzero;stroke:none;stroke-width:0.326765"
       id="path844" />
  </g>
</svg>
