<svg xmlns:dc="http://purl.org/dc/elements/1.1/" xmlns:cc="http://creativecommons.org/ns#" xmlns:rdf="http://www.w3.org/1999/02/22-rdf-syntax-ns#" xmlns:svg="http://www.w3.org/2000/svg" xmlns="http://www.w3.org/2000/svg" xmlns:sodipodi="http://sodipodi.sourceforge.net/DTD/sodipodi-0.dtd" xmlns:inkscape="http://www.inkscape.org/namespaces/inkscape" width="89.314659mm" height="88.020653mm" viewBox="0 0 89.314659 88.020653" version="1.1" id="svg29932" inkscape:version="1.0.2 (e86c870879, 2021-01-15, custom)" sodipodi:docname="table-4p-2.svg">
  <defs id="defs29926"></defs>
  <sodipodi:namedview id="base" pagecolor="#ffffff" bordercolor="#666666" borderopacity="1.0" inkscape:pageopacity="0.0" inkscape:pageshadow="2" inkscape:zoom="0.35" inkscape:cx="-428.35924" inkscape:cy="-339.376" inkscape:document-units="mm" inkscape:current-layer="layer1" inkscape:document-rotation="0" showgrid="false" inkscape:window-width="1267" inkscape:window-height="1030" inkscape:window-x="183" inkscape:window-y="0" inkscape:window-maximized="0"></sodipodi:namedview>
  <metadata id="metadata29929">
    <rdf:rdf>
      <cc:work rdf:about="">
        <dc:format>image/svg+xml</dc:format>
        <dc:type rdf:resource="http://purl.org/dc/dcmitype/StillImage"></dc:type>
        <dc:title></dc:title>
      </cc:work>
    </rdf:rdf>
  </metadata>
  <g inkscape:label="Layer 1" inkscape:groupmode="layer" id="layer1" transform="translate(-219.17005,-237.9599)">
    <path d="m 277.97797,325.98055 -0.92806,-3.31342 c -2.9114,1.17279 -6.2902,1.88251 -9.97285,1.88251 -0.13067,0 -0.25813,-0.004 -0.3888,-0.004 -3.833,-0.0526 -7.3261,-0.86301 -10.30619,-2.1573 l -1.01621,3.30455 -3.01607,-0.93161 1.22537,-3.96723 0.65024,-3.85613 2.01288,-11.90015 -9.09062,-0.12123 0.072,-5.35212 8.98271,0.12126 0.0196,-1.4028 -8.98278,-0.11991 0.0424,-3.10166 -12.61636,1.78446 -3.86556,0.54506 -4.00294,1.11819 -0.84959,-3.03534 3.32972,-0.93191 c -1.21225,-3.01246 -1.93117,-6.52518 -1.87885,-10.35815 0.0522,-3.83556 0.86268,-7.32671 2.15663,-10.30581 l -3.28725,-1.01593 0.92802,-3.01374 3.95389,1.21882 3.85576,0.65355 12.5609,2.12168 0.0326,-2.30401 8.98278,0.11989 0.0163,-1.39755 -8.97946,-0.12124 0.0556,-4.20611 10.0251,0.13431 -0.66986,-0.26046 -1.93117,-13.64371 -0.54572,-3.87024 -1.11749,-4.00021 3.03569,-0.84766 0.93119,3.32909 c 2.91151,-1.1718 6.29028,-1.8815 9.97289,-1.8815 0.12742,0 0.25816,0.001 0.38558,0.003 3.83622,0.0523 7.32607,0.86268 10.3062,2.15567 l 1.01617,-3.28791 3.01276,0.93032 -1.21881,3.9532 -0.65352,3.85352 -2.29387,13.59014 -0.67973,0.24247 9.40763,0.12776 -0.0588,4.20187 -8.98275,-0.12122 -0.0196,1.4015 8.98271,0.12122 -0.0294,2.39847 13.23072,-1.87239 3.86885,-0.54501 3.98656,-1.1146 0.8496,3.03532 -3.3134,0.928 c 1.21236,3.01244 1.9279,6.52517 1.87562,10.35845 -0.049,3.83685 -0.86262,7.32901 -2.15343,10.30944 l 3.30038,1.01982 -0.92798,3.01246 -3.97352,-1.22537 -3.8493,-0.65354 -13.17843,-2.22462 -0.0424,3.1987 -8.98606,-0.1212 -0.0163,1.40146 8.98281,0.12122 -0.072,5.34947 -8.46978,-0.115 1.69267,11.9537 0.54574,3.86892 1.11425,3.9862 -3.03561,0.84631 m -20.23005,-27.67403 -0.0196,1.39885 17.96546,0.2412 0.0196,-1.39763 -17.96549,-0.24242 m 19.56668,-5.34197 -0.0197,1.39757 8.22145,0.11111 c -0.19928,-0.43788 -0.33327,-0.93683 -0.50651,-1.40769 l -7.69529,-0.10099 m -19.49154,-0.26534 -0.0196,1.40277 17.96556,0.2412 0.0196,-1.40149 -17.96557,-0.24248 m -8.60696,-0.11371 c -0.18295,0.46334 -0.33003,0.95972 -0.54243,1.39135 l 7.6038,0.10459 0.0196,-1.40151 -7.08099,-0.0944 m 28.17364,-5.22824 -0.0196,1.40151 6.57454,0.0882 c -0.0686,-0.45715 -0.10131,-0.93194 -0.14375,-1.40184 l -6.41118,-0.0879 m -19.4915,-0.26172 -0.0196,1.40151 17.96556,0.24242 0.0196,-1.40282 -17.96556,-0.24111 m -7.3195,-0.0984 c -0.0556,0.47122 -0.10136,0.94075 -0.18302,1.39922 l 5.95693,0.0778 0.0196,-1.39755 -5.79353,-0.0794 m 26.88615,-5.24457 -0.0196,1.4028 6.31962,0.084 c 0.0425,-0.47743 0.11441,-0.93423 0.18302,-1.39888 l -6.48306,-0.0879 m -19.49154,-0.26042 -0.0195,1.39757 17.96553,0.24243 0.0196,-1.39883 -17.9656,-0.24117 m -7.39137,-0.10227 c 0.0556,0.46726 0.11765,0.92541 0.14701,1.40539 l 5.6988,0.0752 0.0196,-1.4015 -5.86543,-0.0791 m 26.95808,-5.2449 -0.0196,1.40277 7.39793,0.10097 c 0.1699,-0.48361 0.34964,-0.94464 0.54243,-1.39529 l -7.92078,-0.10845 m -19.4915,-0.26012 -0.0195,1.40149 17.96542,0.24115 0.0197,-1.4015 -17.96553,-0.24114 m -8.82915,-0.11894 c 0.18295,0.45846 0.34961,0.9218 0.50314,1.40933 l 6.78363,0.0905 0.0164,-1.40149 -7.30317,-0.0984 m 8.90433,-5.48607 -0.0196,1.4015 17.96549,0.24247 0.0197,-1.4015 -17.96552,-0.24247" style="fill:#949183;fill-opacity:1;fill-rule:nonzero;stroke:none;stroke-width:0.326765" id="path538"></path>
    <path d="m 250.44472,242.9107 -3.02585,0.8898 -1.45732,-4.95116 3.02581,-0.88944 1.45736,4.9508" style="fill:#4e473c;fill-opacity:1;fill-rule:nonzero;stroke:none;stroke-width:0.326765" id="path540"></path>
    <path d="m 270.14866,242.92606 3.02581,0.88848 1.45408,-4.94983 -3.02577,-0.88847 -1.45412,4.94982" style="fill:#4e473c;fill-opacity:1;fill-rule:nonzero;stroke:none;stroke-width:0.326765" id="path542"></path>
    <path d="m 247.73263,246.6953 2.11413,13.61956 c 2.8363,1.51781 6.50261,2.44942 10.44995,2.44942 3.9473,0 7.61358,-0.93161 10.45316,-2.44942 l 2.11091,-13.61956 c -2.97684,-2.30238 -7.545,-3.80877 -12.56407,-3.80877 -5.01587,0 -9.58402,1.50639 -12.56408,3.80877" style="fill:#947c72;fill-opacity:1;fill-rule:nonzero;stroke:none;stroke-width:0.326765" id="path544"></path>
    <path d="m 271.19433,241.45563 c -3.1043,-1.39235 -6.83927,-2.19652 -10.89762,-2.19652 -4.05843,0 -7.79011,0.80417 -10.89435,2.19652 -0.81036,0.36269 -1.57829,0.76463 -2.29393,1.2038 l 0.6242,4.03587 c 2.98006,-2.30238 7.54821,-3.80877 12.56408,-3.80877 5.01907,0 9.58723,1.50639 12.56407,3.80877 l 0.62742,-4.03587 c -0.71886,-0.43917 -1.4835,-0.84111 -2.29387,-1.2038" style="fill:#695e50;fill-opacity:1;fill-rule:nonzero;stroke:none;stroke-width:0.326765" id="path546"></path>
    <path d="m 250.44472,315.26232 -3.02585,-0.88812 -1.45732,4.9498 3.02581,0.88979 1.45736,-4.95147" style="fill:#4e473c;fill-opacity:1;fill-rule:nonzero;stroke:none;stroke-width:0.326765" id="path548"></path>
    <path d="m 270.14866,315.24961 3.02581,-0.88818 1.45408,4.94983 -3.02577,0.88848 -1.45412,-4.95013" style="fill:#4e473c;fill-opacity:1;fill-rule:nonzero;stroke:none;stroke-width:0.326765" id="path550"></path>
    <path d="m 247.73263,311.47904 2.11413,-13.61694 c 2.8363,-1.5188 6.50261,-2.45302 10.44995,-2.45302 3.9473,0 7.61358,0.93422 10.45316,2.45302 l 2.11091,13.61694 c -2.97684,2.30273 -7.545,3.81007 -12.56407,3.81007 -5.01587,0 -9.58402,-1.50734 -12.56408,-3.81007" style="fill:#947c72;fill-opacity:1;fill-rule:nonzero;stroke:none;stroke-width:0.326765" id="path552"></path>
    <path d="m 271.19433,316.72004 c -3.1043,1.39132 -6.83927,2.1955 -10.89762,2.1955 -4.05843,0 -7.79011,-0.80418 -10.89435,-2.1955 -0.81036,-0.36239 -1.57829,-0.76465 -2.29393,-1.20611 l 0.6242,-4.03489 c 2.98006,2.30273 7.54821,3.81007 12.56408,3.81007 5.01907,0 9.58723,-1.50734 12.56407,-3.81007 l 0.62742,4.03489 c -0.71886,0.44146 -1.4835,0.84372 -2.29387,1.20611" style="fill:#695e50;fill-opacity:1;fill-rule:nonzero;stroke:none;stroke-width:0.326765" id="path554"></path>
    <path d="m 296.47284,288.93881 -0.88883,3.02519 4.9505,1.4577 0.88886,-3.02519 -4.95053,-1.4577" style="fill:#4e473c;fill-opacity:1;fill-rule:nonzero;stroke:none;stroke-width:0.326765" id="path556"></path>
    <path d="m 296.45647,269.23455 -0.88879,-3.02648 4.95046,-1.45378 0.88882,3.02649 -4.95049,1.45377" style="fill:#4e473c;fill-opacity:1;fill-rule:nonzero;stroke:none;stroke-width:0.326765" id="path558"></path>
    <path d="m 292.68563,291.65128 -13.61635,-2.11515 c -1.51941,-2.83629 -2.45064,-6.5023 -2.45064,-10.45026 0,-3.94668 0.93123,-7.61625 2.45064,-10.45257 l 13.61635,-2.11123 c 2.3037,2.97683 3.81007,7.54502 3.81007,12.5638 0,5.0165 -1.50637,9.58465 -3.81007,12.56541" style="fill:#947c72;fill-opacity:1;fill-rule:nonzero;stroke:none;stroke-width:0.326765" id="path560"></path>
    <path d="m 297.92695,268.18924 c 1.39196,3.10427 2.1959,6.83529 2.1959,10.89663 0,4.05906 -0.80394,7.79397 -2.1959,10.89435 -0.36273,0.81069 -0.76465,1.57893 -1.20255,2.29519 l -4.03877,-0.62413 c 2.3037,-2.98076 3.81007,-7.54891 3.81007,-12.56541 0,-5.01878 -1.50637,-9.58697 -3.81007,-12.5638 l 4.03877,-0.62671 c 0.4379,0.71855 0.83982,1.48316 1.20255,2.29388" style="fill:#695e50;fill-opacity:1;fill-rule:nonzero;stroke:none;stroke-width:0.326765" id="path562"></path>
    <path d="m 224.1173,288.93881 0.89207,3.02519 -4.9505,1.4577 -0.88882,-3.02519 4.94725,-1.4577" style="fill:#4e473c;fill-opacity:1;fill-rule:nonzero;stroke:none;stroke-width:0.326765" id="path564"></path>
    <path d="m 224.1336,269.23455 0.88882,-3.02648 -4.9505,-1.45378 -0.88875,3.02649 4.95043,1.45377" style="fill:#4e473c;fill-opacity:1;fill-rule:nonzero;stroke:none;stroke-width:0.326765" id="path566"></path>
    <path d="m 227.90451,291.65128 13.61951,-2.11515 c 1.51621,-2.83629 2.44758,-6.5023 2.44758,-10.45026 0,-3.94668 -0.93137,-7.61625 -2.44758,-10.45257 l -13.61951,-2.11123 c -2.30368,2.97683 -3.81007,7.54502 -3.81007,12.5638 0,5.0165 1.50639,9.58465 3.81007,12.56541" style="fill:#947c72;fill-opacity:1;fill-rule:nonzero;stroke:none;stroke-width:0.326765" id="path568"></path>
    <path d="m 222.66315,268.18924 c -1.39196,3.10427 -2.19583,6.83529 -2.19583,10.89663 0,4.05906 0.80387,7.79397 2.19583,10.89435 0.36272,0.81069 0.76468,1.57893 1.20579,2.29519 l 4.03557,-0.62413 c -2.30368,-2.98076 -3.81007,-7.54891 -3.81007,-12.56541 0,-5.01878 1.50639,-9.58697 3.81007,-12.5638 l -4.03557,-0.62671 c -0.44111,0.71855 -0.84307,1.48316 -1.20579,2.29388" style="fill:#695e50;fill-opacity:1;fill-rule:nonzero;stroke:none;stroke-width:0.326765" id="path570"></path>
    <path d="m 251.00345,264.14813 h -1.52594 v 33.11043 h 1.52594 v -33.11043" style="fill:#4e473c;fill-opacity:1;fill-rule:nonzero;stroke:none;stroke-width:0.326765" id="path572"></path>
    <path d="m 270.49502,264.14813 h -1.52601 v 33.11043 h 1.52601 v -33.11043" style="fill:#4e473c;fill-opacity:1;fill-rule:nonzero;stroke:none;stroke-width:0.326765" id="path574"></path>
    <path d="m 240.49472,275.98159 h 38.98633 v -4.20449 h -38.98633 v 4.20449" style="fill:#695e50;fill-opacity:1;fill-rule:nonzero;stroke:none;stroke-width:0.326765" id="path576"></path>
    <path d="m 240.49472,299.55216 h 38.98633 v -5.35343 h -38.98633 v 5.35343" style="fill:#695e50;fill-opacity:1;fill-rule:nonzero;stroke:none;stroke-width:0.326765" id="path578"></path>
    <path d="m 240.49472,266.17245 v 4.20184 h 38.98633 v -4.20184 h -38.98633" style="fill:#695e50;fill-opacity:1;fill-rule:nonzero;stroke:none;stroke-width:0.326765" id="path580"></path>
    <path d="m 240.49472,292.79724 h 38.98633 v -4.20188 h -38.98633 v 4.20188" style="fill:#695e50;fill-opacity:1;fill-rule:nonzero;stroke:none;stroke-width:0.326765" id="path582"></path>
    <path d="m 240.49472,287.19388 h 38.98633 v -4.20577 h -38.98633 v 4.20577" style="fill:#695e50;fill-opacity:1;fill-rule:nonzero;stroke:none;stroke-width:0.326765" id="path584"></path>
    <path d="m 240.49472,281.58662 h 38.98633 v -4.20221 h -38.98633 v 4.20221" style="fill:#695e50;fill-opacity:1;fill-rule:nonzero;stroke:none;stroke-width:0.326765" id="path586"></path>
    <path d="m 279.48105,260.56648 h -38.98633 v 4.20447 h 38.98633 v -4.20447" style="fill:#695e50;fill-opacity:1;fill-rule:nonzero;stroke:none;stroke-width:0.326765" id="path588"></path>
  </g>
</svg>